<svg xmlns="http://www.w3.org/2000/svg" data-name="レイヤー_1" preserveAspectRatio="none" viewBox="0 0 1280 150"><defs><clipPath id="a"><path d="M0 0h1280v150H0z" style="fill:none"/></clipPath></defs><path d="M0 0h1280v150H0z" style="fill:#b52c2e"/><g style="clip-path:url(#a)"><path d="M1072.1 289.5 854.2 165.7l420.6 250.6 109.6 68.9v-23.5l-250.8-140.5-61.5-31.7zM1384.4 507v-6.2l-139.1-83.4 139.1 89.6zM1300.4 466.6l84 54.5v-4.8l-84-49.7zM1225.5 396.2l158.9 98v-7l-158.9-91zM1002.8 315.5 808.4 181l568.4 409.2h7.6v-10.6l-381.6-264.1zM991 380.5l244.8 209.7h16.1l-452-373.5L991 380.5zM1352.5 590.2h12.9L964.1 301.5l388.4 288.7zM972.4 321.2l349.8 269h18.8l-220.7-161.4-147.9-107.6zM1122.7 472.2l142.3 118h16.6L1093 443.5l29.7 28.7zM1301.3 590.2h6.1l-139.6-106.4 133.5 106.4zM1384.4 184.2v-7.8L896.6 54.2l487.8 130zM1384.4 400.4v-5.6l-251.9-123 251.9 128.6zM1384.4 299.4v-11.6L986.3 139.6l101.1 41.6 297 118.2zM1384.4 570.6v-9.1L907.9 240.2l476.5 330.4zM1384.4 321.9v-7.3l-1.1-.4-179.9-69.5 181 77.2zM1384.4 542v-7.8L1221 430.3 1384.4 542zM1313.3 251.5l71.1 26.9v-8.9l-516.6-183 445.5 165zM1384.4 331.1 1098.1 211l286.3 126.4v-6.3zM1384.4 407.7l-500.6-253 500.6 262.2v-9.2zM1153.4 274.7l231 114.9v-11.2L883.2 140.9l270.2 133.8zM1384.4 340.3l-139.1-58.1 139.1 63v-4.9zM1384.4 191.7v-7.3l-341-87 341 94.3zM663.5 590.2h3.8l-81.6-268.3 77.8 268.3zM707.5 590.2h4.6L602 296.9l105.5 293.3zM816.6 590.2h3.8L705.6 379.9l111 210.3zM633.8 590.2h4.2l-59.1-225.4 54.9 225.4zM797.6 590.2h5.1L637.3 269.3l160.3 320.9zM606.1 590.2h3.9l-56.5-264.3 52.6 264.3zM613 590.2h2.8L570.6 389 613 590.2zM545.3 590.2l-12.8-110.7 11.3 110.7h1.5zM557.2 590.2h3.7l-38.8-281.6 35.1 281.6zM741.8 207.5l326.8 325.6 56.1 57.1h17.8L740 203.4l1.8 4.1zM1313.9-14.6l-255.2-9.6 325.7 19.9v-17l-264.5-8.4-265.6-8.7 459.6 23.8zM1384.4 376.6v-13.4L853.8 120.5l-65.7-28.8 596.3 284.9zM1384.4 458.7v-20.3l-502.8-271 359.1 201.7-462.4-254.9 606.1 344.5zM1384.4 175v-11.9L900.8 49.2 851.5 39l532.9 136zM1384.4-64.8v-4.7l-190.7 3.9 190.7.8zM1114.4-81.9l270-8.7v-8.8L890.4-75l224-6.9zM942.6 590.2h5.9L821 419.9l121.6 170.3zM827.3 590.2h4l-83.8-148 79.8 148zM755.5 407.4l110.3 182.8h5.9l-19.2-30.6-97-152.2zM686.3 590.2h6.7L634.5 424l22.1 73.8 29.7 92.4zM731.2 590.2h2.4l-43.9-105.4 41.5 105.4zM602.4 312.8l95.5 277.4h4l-99.5-277.4zM765.1 404.7l116.5 185.5h3.3L765.1 404.7zM1031.6 590.2h6.6L827 351.4l204.6 238.8zM846.2 385.1l171.5 205.1h9.7L903.3 448l-57.1-62.9zM966.3 590.2h13l-77-95.9 45 61.8-113.4-140.8 132.4 174.9zM1384.4 208.1v-6.2l-211.3-56.5 211.3 62.7zM476.9 381.7l.5 208.5h2.5l-3-208.5zM490.8 517.3l1.3 72.9h1.4l-2.7-72.9zM459.8 590.2l1.9-148.6-4.3 148.6h2.4zM621.4 494.2l25 96h4.8l-39.1-139.5 9.3 43.5zM501.6 369.6l12.5 220.6h4.6l-17.1-220.6zM521 457.7l11.1 132.5h1.9l-13-132.5zM748.2 590.2h.5l-3.1-7.1 2.6 7.1zM1384.4 88.9v-3.4l-218.2-32.3 218.2 35.7zM1384.4-44.2v-6.3l-356.3-.4 356.3 6.7zM907 590.2h1.2L884.6 556l22.4 34.2zM1384.4 15.7v-6L1105.2-7.6l279.2 23.3zM1384.4 119.4v-6.5L922.1 29.6l462.3 89.8zM1384.4 24.8V18L863.3-22.1l521.1 46.9zM1028.6 117.3l162.7 55.4-258-80.6 26.4 10.8 424.7 141.4v-20.6l-355.8-106.4zM1384.4 262.9V256L918.5 98.2l465.9 164.7zM1384.4 39.9v-5.3l-314-28.7 314 34zM1384.4 146.5 919.1 45.4l465.3 108v-6.9zM1384.4 99.8 957.1 29.5l427.3 77.3v-7zM1048.5 562.9l-61-62.9-43.2-42 69.3 78.9-193.1-207L926.6 452l-47.7-49.3 163.2 187.5h40.8l-82.3-86 47.9 58.7zM889.6 378.7l200.2 211.5h6.6L889.6 378.7zM753.8 229.3l351.3 360.9h8.1L753.8 229.3zM862 425l131.2 165.2h9.2L881.1 443.9 862 425zM897.6 590.2h4.3L770 394.7l127.6 195.5zM1164.2 590.2h8.2L877.9 320.4l286.3 269.8zM1185.6 590.2h2l-27.2-23.8 25.2 23.8zM1384.4 57.6V43.5L1015.6 5.3l177.6 22.8L923.5-.8l460.9 58.4zM973.4 377.2l-116.8-98.3-62.9-52.4 407.5 363.7h22.2l-250-213zM983.3 13.2l401.1 55.9v-9.2l-219.8-25.7-181.3-21zM1384.4-29.9l-314.3-7.2 314.3 11.8v-4.6zM83 435-42.4 590.2h3.8L83 435zM-51.8 590.2h3.2L40 479.1l-91.8 111.1zM90.7 466.5l12.3-21.4L-5.9 590.2h7.3l89.3-123.7zM-98.6 590.2l20.8-23.9-21.5 23.9h.7zM-80.5 590.2h3.2l94.6-112.5-97.8 112.5zM130.7 467.9l-66.9 96.2-17.6 26.1h10.1l63-99.7 11.4-22.6zM138.8 590.2l22.5-44.2-23.7 44.2h1.2zM196.9 351.2l-165.5 239h9l140-210.7 16.5-28.3zM27.8 590.2l96.9-142.7L24.1 590.2h3.7zM131.3 590.2l2-4-2.2 4h.2zM21.4 379l-179.8 167.8 106.6-106.2L54.7 336.2l-168 152.9-4.4-.7-56.2 46.5-61.5 55.3h42.7L21.4 379zM-115.8 273.2l-371.3 204.9v7.4l371.3-212.3zM-287.5 590.2h1.7l35.2-30.7-36.9 30.7zM-317.6 590.2h12.1l36.1-31.4 57.6-52.9-105.8 84.3zM-330.4 246.1 14.7 114l-501.8 182.7v9.9l156.7-60.5zM7.6 123.6l-494.7 187.7v7.9L7.6 123.6zM12.2 353.6l-6.6 2.3-269.3 234.3h15.3L12.2 353.6zM-413.9 590.2h22.1l265.2-201.4L-108 371l-299.2 214.5-6.7 4.7zM-339.3 590.2h11.3l14-11.9 104.2-89.1-129.5 101zM-424.3 590.2l279.1-204.3-290.3 204.3h11.2zM-65.1 354.3l-232.4 172.2-86.7 63.7h24.4l161.1-129.1 133.6-106.8zM-122.6 104.1-487.1 199v6.8l364.5-101.7zM8.4 446.2l-135.3 144h16.6l345.2-384.1-304.4 329.4 77.9-89.3zM-479.9 590.2h30l386.8-273.8 214.6-151.7-204.7 137.9-426.7 287.6zM-186.3-2.6-487.1 19v4.4l300.8-26zM-487.1 9.3v6.3l497.9-38-497.9 31.7zM189 590.2l80.8-186.5L185 590.2h4zM273.9 590.2h.6l13.2-44.1-13.8 44.1zM437.1 590.2l13.3-262.7-16.2 262.7h2.9zM211.5 590.2h3.5l52.1-132.6-55.6 132.6zM197.6 590.2l8.8-21.4-11 21.4h2.2zM194.4 559.4l-14.3 30.8h.9l13.4-30.8zM219.4 590.2h2l40.3-105.6-42.3 105.6zM109 570.9l-11.4 19.3h.4l11-19.3zM248 590.2h2.5L308 420.3l-60 169.9zM269.6 590.2l74.9-241.7-78.7 241.7h3.8zM260.1 590.2l70-215.6-73 215.6h3zM238.3 590.2l84.5-235.7-88.4 235.7h3.9zM225.9 590.2h2.2l37.3-101.3-39.5 101.3zM-487.1-18.5v2.1l118.5-5.7-118.5 3.6zM-487.1-38v6.5l407.8-11.9-407.8 5.4zM-487.1-89.9v7.4l593 14.7-593-22.1zM-487.1-68.8v24.4l263.4-5.3-15.3-3 96.7-3.2 37.7-2.7 221.8-.6-604.3-9.6zM-487.1-26.8v1.4l61.1-2.5-61.1 1.1zM-487.1-74.9v6.1l176.4-1.2-176.4-4.9zM-97.8 311.3l-312.3 196.1-77 45.7v17l64.6-43.6 324.7-215.2zM-409.2 448.1l-77.9 43.2v10.2l177.9-106.1-100 52.7zM-487.1 576v9.1l425.2-286.9L-487.1 576zM-393.5 470.1l-93.6 55.7v2.8l93.6-58.5zM385.1 581.7l-1.2 8.5h3.9L405.2 450l-20.1 131.7zM377 590.2l34.1-240.5-37.4 240.5h3.3zM407.1 590.2h8.9l3-38.8 10.8-161.7-6.4 58.5-16.3 142zM-332.7 442.9l-154.4 93.7v13.8L41.7 213.2l-374.4 229.7zM368.1 590.2l2-21.7-3.7 21.7h1.7zM312.8 590.2h1.8l30.1-126.5-31.9 126.5zM-487.1-10.9v4.6l279.4-16-279.4 11.4zM336.4 590.2l39.5-195-42.7 195h3.2zM-487.1 3.2v1.6l75.9-5.5-75.9 3.9zM308.9 590.2l49.3-198.5-51.8 198.5h2.5zM-487.1 35.4v5.5l355.2-37-355.2 31.5zM-487.1 128.7 31.5 28.1l-518.6 94.1v6.5zM-487.1 130.9v6.9L31.4 32.2l-518.5 98.7zM-487.1 174.7v5.8l171.8-43.4-171.8 37.6zM-131.2 72.6l-247.1 48.1-108.8 21.1v13.1l303.8-68.3 52.1-14zM-487.1 105.8v9.6l456.7-82.6-202.4 32-254.3 41zM-487.1 49.5v3.6l223.6-26.5-223.6 22.9zM-487.1 163.9v2.2l61.3-14.7-61.3 12.5zM-186.9 30.1l-300.2 36.3v4.8l300.2-41.1zM-487.1 85.3l380.5-57.6 34.2-7.4-414.7 53.9v11.1zM-487.1 185v5.9L-63.7 80.8-487.1 185zM-487.1 423.7v6.6l356.6-183.1-356.6 176.5zM-14.3 147l-259.2 104.4 243.5-103-274.9 107.9 12.7-9-194.9 74.1v31.7l302.2-131.4L-14.3 147zM-487.1 400.7v18.6l303.6-152.6-.8-3.2 129.8-66.2-432.6 203.4zM-445.9 442.5l168.1-95.7L-487.1 457v8.7l41.2-23.2zM-487.1 88.3v3.3l85.6-14.2-85.6 10.9zM-487.1 375.5v13.9l309.9-146.9L99.4 113.2l-586.5 262.3zM-367.9 381l-119.2 60.1v7.5l6.8-3.7 112.4-63.9zM-242.2 191.5l-182.3 58.6-62.6 20.3V284l252.7-91.7-7.8-.8zM-458.5 211.8l523.1-152-551.7 151.7v21l251.5-77.9 300.4-91-523.3 148.2zM-487.1 259.9v3.9l128.4-44.3-128.4 40.4zM-401.5 216.5l-85.6 23v10.7l201.8-66.1-116.2 32.4z"/></g></svg>