<svg xmlns="http://www.w3.org/2000/svg" preserveAspectRatio="none" viewBox="0 0 390 170"><defs><clipPath id="a"><path d="M0 0h390v170H0z" style="fill:none"/></clipPath></defs><path d="M0 0h390v170H0z" style="fill:#b52c2e"/><g style="clip-path:url(#a)"><path d="m330.6 139.3-83.5-47.4 161.2 96 42 26.4v-9l-96.2-53.8-23.5-12.2zM304 149.3l-74.5-51.5 217.9 156.7h2.9v-4L304 149.3zM299.5 174.2l93.8 80.3h6.2l-173.3-143 73.3 62.7zM438.1 254.5h4.9L289.2 143.9l148.9 110.6zM292.3 151.5l134.1 103h7.2l-84.5-61.8-56.8-41.2zM450.3 99v-3l-187-46.8 187 49.8zM450.3 181.8v-2.1l-96.6-47.1 96.6 49.2zM450.3 143.2v-4.5L297.7 81.9l38.8 16 113.8 45.3zM450.3 247v-3.5l-182.7-123L450.3 247zM450.3 151.8V149l-.4-.2-69-26.6 69.4 29.6zM423 124.8l27.3 10.3v-3.4l-198-70.1L423 124.8zM450.3 155.3l-109.8-46 109.8 48.4v-2.4zM450.3 184.6 258.4 87.7l191.9 100.5v-3.6zM361.7 133.7l88.6 44v-4.3l-192.1-91 103.5 51.3zM450.3 101.9v-2.8L319.6 65.8l130.7 36.1zM173.9 254.5h1.5l-31.3-102.7 29.8 102.7zM190.8 254.5h1.8l-42.2-112.3 40.4 112.3zM162.6 254.5h1.6l-22.7-86.3 21.1 86.3zM225.4 254.5h1.9l-63.4-122.9 61.5 122.9zM152 254.5h1.5l-21.7-101.2L152 254.5zM133.2 254.5h1.4l-14.9-107.9 13.5 107.9zM204 107.9l125.2 124.7 21.5 21.9h6.8L203.3 106.4l.7 1.5zM423.3 22.9l-97.8-3.7 124.8 7.6v-6.5l-101.4-3.2-101.8-3.4 176.2 9.2zM450.3 172.7v-5.1l-203.4-93-25.2-11 228.6 109.1zM450.3 204.2v-7.8L257.6 92.6l137.6 77.2-177.3-97.6 232.4 132zM450.3 95.5v-4.6L264.9 47.3 246 43.4l204.3 52.1zM450.3 3.7V1.8l-73.1 1.5 73.1.4zM150.5 148.3l36.7 106.2h1.5l-38.2-106.2zM315 254.5h2.6l-81-91.4 78.4 91.4zM450.3 108.2v-2.4l-81-21.6 81 24zM450.3 62.5v-1.3l-83.6-12.3 83.6 13.6zM450.3 11.5V9.1L313.7 9l136.6 2.5zM450.3 34.5v-2.3l-107-6.6 107 8.9zM450.3 74.2v-2.5L273.1 39.8l177.2 34.4zM450.3 38v-2.6L250.6 20l199.7 18zM313.9 73.4l62.4 21.2-98.9-30.9 10.1 4.2 162.8 54.2v-8L313.9 73.4zM450.3 129.1v-2.6L271.7 66.1l178.6 63zM450.3 43.8v-2.1l-120.4-11 120.4 13.1zM450.3 84.6 271.9 45.9l178.4 41.3v-2.6zM450.3 66.7 286.5 39.8l163.8 29.6v-2.7zM321.5 244.1 298.1 220l-16.5-16.1 26.5 30.2-74-79.3 40.7 46.8-18.3-18.9 62.6 71.8h15.6l-31.5-32.9 18.3 22.5zM208.6 116.3l134.6 138.2h3.1L208.6 116.3zM365.9 254.5h3.1L256.1 151.2l109.8 103.3zM450.3 50.5v-5.4L308.9 30.5l68.1 8.7-103.4-11 176.7 22.3zM292.8 172.9 248 135.3l-24.1-20.1 156.2 139.3h8.5l-95.8-81.6zM296.5 33.5l153.8 21.4v-3.5L366 41.6l-69.5-8.1zM450.3 17l-120.5-2.7 120.5 4.5V17zM87.2 254.5l5.1-100.6L86 254.5h1.2zM23 254.5l28.7-92.6-30.2 92.6H23zM11 254.5l32.4-90.3-33.9 90.3H11zM64.1 254.5l13.1-92.1-14.3 92.1h1.2z"/></g></svg>