<svg width="42" height="34" viewBox="0 0 42 34" fill="none" xmlns="http://www.w3.org/2000/svg">
<path d="M40.5 0.5H1.5C0.670312 0.5 0 1.17031 0 2V32C0 32.8297 0.670312 33.5 1.5 33.5H40.5C41.3297 33.5 42 32.8297 42 32V2C42 1.17031 41.3297 0.5 40.5 0.5ZM38.625 5.69375V30.125H3.375V5.69375L2.08125 4.68594L3.92344 2.31875L5.92969 3.87969H36.075L38.0813 2.31875L39.9234 4.68594L38.625 5.69375ZM36.075 3.875L21 15.5938L5.925 3.875L3.91875 2.31406L2.07656 4.68125L3.37031 5.68906L19.3828 18.1391C19.8433 18.4968 20.4098 18.691 20.993 18.691C21.5761 18.691 22.1426 18.4968 22.6031 18.1391L38.625 5.69375L39.9187 4.68594L38.0766 2.31875L36.075 3.875Z" fill="white"/>
</svg>
