<svg width="26" height="20" viewBox="0 0 26 20" fill="none" xmlns="http://www.w3.org/2000/svg">
<path d="M24.375 0.375H1.625C1.14102 0.375 0.75 0.766016 0.75 1.25V18.75C0.75 19.234 1.14102 19.625 1.625 19.625H24.375C24.859 19.625 25.25 19.234 25.25 18.75V1.25C25.25 0.766016 24.859 0.375 24.375 0.375ZM23.2812 3.40469V17.6562H2.71875V3.40469L1.96406 2.8168L3.03867 1.43594L4.20898 2.34648H21.7937L22.9641 1.43594L24.0387 2.8168L23.2812 3.40469ZM13 9.17969L3.03594 1.4332L1.96133 2.81406L12.0566 10.6645C12.3253 10.8731 12.6557 10.9864 12.9959 10.9864C13.3361 10.9864 13.6665 10.8731 13.9352 10.6645L23.2812 3.40469L24.0359 2.8168L22.9613 1.43594L13 9.17969Z" fill="black"/>
</svg>
