<svg width="34" height="14" viewBox="0 0 34 14" fill="none" xmlns="http://www.w3.org/2000/svg">
<mask id="path-1-inside-1_733_1340" fill="white">
<path fill-rule="evenodd" clip-rule="evenodd" d="M23.6324 0L29.6323 5.99991H0V7.99991H29.6323L23.6322 14H26.4607L32.87 7.5907L32.8699 7.59065L33.4608 6.99981L32.0465 5.5856L32.0465 5.58565L26.4608 0H23.6324Z"/>
</mask>
<path fill-rule="evenodd" clip-rule="evenodd" d="M23.6324 0L29.6323 5.99991H0V7.99991H29.6323L23.6322 14H26.4607L32.87 7.5907L32.8699 7.59065L33.4608 6.99981L32.0465 5.5856L32.0465 5.58565L26.4608 0H23.6324Z" fill="white"/>
<path d="M23.6324 0V-1H21.2182L22.9253 0.707107L23.6324 0ZM29.6323 5.99991V6.99991H32.0465L30.3394 5.2928L29.6323 5.99991ZM0 5.99991V4.99991H-1V5.99991H0ZM0 7.99991H-1V8.99991H0V7.99991ZM29.6323 7.99991L30.3394 8.70701L32.0465 6.99991H29.6323V7.99991ZM23.6322 14L22.9251 13.2929L21.218 15H23.6322V14ZM26.4607 14V15H26.8749L27.1678 14.7071L26.4607 14ZM32.87 7.5907L33.5771 8.2978L34.2982 7.57669L33.5631 6.86986L32.87 7.5907ZM32.8699 7.59065L32.1628 6.88354L31.4417 7.60465L32.1768 8.31148L32.8699 7.59065ZM33.4608 6.99981L34.1679 7.70692L34.875 6.99981L34.1679 6.29271L33.4608 6.99981ZM32.0465 5.5856L32.7536 4.87849L32.0392 4.16406L31.3322 4.88582L32.0465 5.5856ZM32.0465 5.58565L31.3394 6.29275L32.0538 7.00719L32.7609 6.28543L32.0465 5.58565ZM26.4608 0L27.168 -0.707107L26.8751 -1H26.4608V0ZM22.9253 0.707107L28.9252 6.70701L30.3394 5.2928L24.3395 -0.707107L22.9253 0.707107ZM29.6323 4.99991H0V6.99991H29.6323V4.99991ZM-1 5.99991V7.99991H1V5.99991H-1ZM0 8.99991H29.6323V6.99991H0V8.99991ZM28.9252 7.2928L22.9251 13.2929L24.3393 14.7071L30.3394 8.70701L28.9252 7.2928ZM23.6322 15H26.4607V13H23.6322V15ZM27.1678 14.7071L33.5771 8.2978L32.1629 6.88359L25.7536 13.2929L27.1678 14.7071ZM33.5631 6.86986L33.563 6.86981L32.1768 8.31148L32.1769 8.31153L33.5631 6.86986ZM33.577 8.29776L34.1679 7.70692L32.7536 6.29271L32.1628 6.88354L33.577 8.29776ZM34.1679 6.29271L32.7536 4.87849L31.3394 6.29271L32.7536 7.70692L34.1679 6.29271ZM31.3322 4.88582L31.3321 4.88587L32.7609 6.28543L32.7609 6.28538L31.3322 4.88582ZM32.7536 4.87854L27.168 -0.707107L25.7537 0.707107L31.3394 6.29275L32.7536 4.87854ZM26.4608 -1H23.6324V1H26.4608V-1Z" fill="#000000" mask="url(#path-1-inside-1_733_1340)"/>
</svg>
