<svg width="430" height="18" viewBox="0 0 430 18" fill="none" xmlns="http://www.w3.org/2000/svg">
<g clip-path="url(#clip0_749_210)">
<path d="M44.5 -9.76548e-05C42.3 -9.76548e-05 40 0.199902 39.2 3.0999C38.4 5.9999 40.3 7.2999 42.2 8.5999L50.1 13.8999C50.6 14.2999 50.4 15.0999 49.8 15.0999H37.1C36.4 15.0999 35.9 15.4999 35.8 16.1999L35.4 17.7999H50.6C52.8 17.7999 55.2 17.3999 55.9 14.3999C56.7 11.4999 54.8 10.1999 52.9 8.8999L45.1 3.5999C44.4 3.0999 44.6 2.1999 45.5 2.1999H55.6C58.3 2.1999 58.6 0.899902 58.9 -0.100098H44.5V-9.76548e-05Z" fill="#0A2270"/>
<path d="M69.3 17.9L74 0H84.8C91.7 0 94.1 2.5 92.5 8.7L90.1 17.9H84.2L86.6 8.7C87.7 4.3 87.1 2.4 84.2 2.4H79.3L75.3 17.9H69.3Z" fill="#0A2270"/>
<path d="M25 17.9L29 2.5C29.5 0.4 30.7 0 32.1 0H36.7L36.6 0.3C36.6 0.3 35.3 0.5 34.8 2.4L30.8 17.9H25Z" fill="#0A2270"/>
<path d="M58.9 17.9L62.9 2.5C63.5 0.4 64.7 0 66.1 0H70.7L70.6 0.3C70.6 0.3 69.3 0.5 68.8 2.4L64.8 17.9H58.9Z" fill="#0A2270"/>
<path d="M14.3 0C9.10001 0 4.00001 1.4 2.10001 8.7L-0.299988 17.9H5.60001L6.00001 16.5C7.00001 12.5 16.3 11.4 16.3 11.4L14.6 17.9H20.5L25.1 0H14.3ZM16.7 9.8L7.50001 10.9L8.00001 8.7C9.10001 4.3 10.9 2.4 14.9 2.4H18.6L16.7 9.8Z" fill="#0A2270"/>
<path d="M108.7 12.7C108 11.7 107.7 11.3 107.3 10.3V17.9H106.1V10.2C106 10.7 105.4 12.5 104.1 14.4L103.5 12.9C104.8 11.2 105.6 8.9 105.9 7.7H103.7V6.5H106V3.5H107.2V6.5H109.1V7.7H107.2V8.7C107.5 9.4 108.5 10.8 109.4 11.6L108.7 12.7ZM114.5 17.9H113.3V12.2C112.3 14.1 111.2 15.3 109.5 16.7L108.6 15.6C110.9 14 112.1 12.2 112.9 10.9H109.3V9.6H113.3V7.2H111.3C110.8 8.3 110.5 8.7 110.2 9.2L109 8.5C109.8 7.5 110.4 6.5 110.9 3.9L112.2 4.1C112.1 4.6 112 5.1 111.7 6.1H113.2V3.5H114.4V6H117.8V7.2H114.4V9.6H118.2V10.8H114.8C115.9 13.2 117.1 14.3 118.4 15.4L117.7 16.7C115.9 15.1 115 13.5 114.4 12.1V17.9H114.5Z" fill="#4B4948"/>
<path d="M127.7 15.9999C125.5 16.4999 122.6 16.9999 119.6 17.3999L119.4 16.0999C120.1 16.0999 120.9 15.9999 122.8 15.6999V10.7999H119.7V9.4999H127.1V10.6999H124.1V15.3999C126.3 14.9999 127 14.8999 127.6 14.6999L127.7 15.9999ZM128.9 3.4999C128.9 3.9999 128.9 4.6999 128.9 6.0999H133.8V7.2999H129C129.2 10.1999 129.3 13.1999 131 15.5999C131.2 15.7999 131.6 16.4999 132 16.4999C132.4 16.4999 132.8 15.3999 132.9 13.8999L134.1 14.3999C133.9 15.5999 133.6 17.8999 132.2 17.8999C130.5 17.8999 129.2 15.2999 128.8 14.0999C128 11.6999 127.9 10.4999 127.7 7.2999H119.5V5.9999H127.7C127.7 5.2999 127.7 4.2999 127.7 3.3999H128.9V3.4999ZM132.3 5.8999C131.7 5.3999 131.1 4.8999 129.9 4.2999L130.6 3.3999C131.7 3.9999 132.2 4.2999 133.1 4.9999L132.3 5.8999Z" fill="#4B4948"/>
<path d="M146.4 8.8998H138.2V8.0998C136.8 8.9998 136 9.2998 135.4 9.5998L134.8 8.2998C139.4 6.4998 141.2 3.8998 141.6 3.2998H143C144.6 5.4998 147.1 7.3998 149.8 8.2998L149 9.4998C148.3 9.1998 147.4 8.7998 146.3 7.9998V8.8998H146.4ZM145 12.5998C146.7 14.1998 147.6 15.2998 148.8 17.1998L147.7 17.8998C147.5 17.4998 147.3 17.1998 146.9 16.6998C144.3 17.0998 137.9 17.3998 135.5 17.3998L135.4 16.0998H137.6C138.6 14.3998 139.2 12.9998 139.5 12.0998H135.2V10.8998H149.1V12.0998H141C140.6 12.9998 140 14.2998 139 16.0998C139.4 16.0998 141.1 15.9998 141.5 15.9998C143.4 15.8998 145 15.7998 146.2 15.6998C146 15.4998 145.3 14.4998 144 13.2998L145 12.5998ZM145.9 7.6998C143.7 6.0998 142.8 4.9998 142.3 4.2998C141.3 5.6998 140 6.7998 138.7 7.6998H145.9Z" fill="#4B4948"/>
<path d="M154.3 17.8999H153V11.5999C152 12.4999 151.3 12.9999 150.9 13.2999L150.4 11.9999C153 10.3999 154.4 8.3999 155 7.1999H150.6V5.9999H153.1V3.3999H154.4V5.9999H156.4V7.1999C156.2 7.5999 155.8 8.4999 154.7 9.9999C155.5 10.9999 156.1 11.3999 156.9 11.9999L156.2 13.0999C155.4 12.3999 155.2 12.1999 154.3 11.1999V17.8999ZM161.2 3.3999V7.8999H164.6V9.1999H161.2V16.0999H165V17.3999H155.9V16.0999H159.9V9.1999H156.6V7.8999H159.9V3.3999H161.2Z" fill="#4B4948"/>
<path d="M180.1 4.5C179.5 8.4 177.4 9.9 175.2 11L174.3 9.8C176.2 9 177.5 8 178.2 5.7H166.8V4.5H180.1ZM167.3 16.1C171.4 14.4 172 11.5 172.1 7.4H173.6C173.5 10.9 173.1 14.8 168.2 17.2L167.3 16.1Z" fill="#4B4948"/>
<path d="M190.6 17.4999H189.1V9.7999C188.6 10.0999 186.1 11.6999 182.8 12.8999L181.9 11.6999C184.1 10.8999 189.7 8.5999 193.5 3.8999L194.9 4.7999C194.3 5.3999 192.5 7.1999 190.5 8.6999V17.4999H190.6Z" fill="#4B4948"/>
<path d="M202.7 10.9999C200.8 9.9999 200.3 9.7999 198.3 9.1999L198.9 7.9999C200.1 8.2999 201.7 8.7999 203.3 9.7999L202.7 10.9999ZM199.1 15.3999C205.6 14.9999 208.2 12.1999 210 6.6999L211.3 7.2999C209.3 12.7999 206.9 16.0999 199.4 16.8999L199.1 15.3999ZM204 7.3999C202.1 6.2999 200.3 5.7999 199.5 5.5999L200.1 4.3999C201 4.5999 202.7 5.0999 204.6 6.0999L204 7.3999Z" fill="#4B4948"/>
<path d="M218.8 8.5C217.5 7.5 215.2 6.5 214 6.2L214.7 5C215 5.1 217.5 5.8 219.7 7.2L218.8 8.5ZM214.1 15.4C218.5 15.1 223.4 13.7 225.8 5.9L227.2 6.5C226 10.1 223.9 15.9 214.6 16.9L214.1 15.4Z" fill="#4B4948"/>
<path d="M237.1 10.7001C237.1 11.4001 236.5 12.0001 235.8 12.0001C235.1 12.0001 234.5 11.4001 234.5 10.7001C234.5 10.0001 235.1 9.40006 235.8 9.40006C236.5 9.30006 237.1 9.90006 237.1 10.7001Z" fill="#4B4948"/>
<path d="M257.9 8.6V9.9H252.7C252.7 14.8 250.5 16.6 246.4 17.5L245.8 16.3C249.4 15.6 251.3 14.4 251.2 10H244.9V8.6H257.9ZM255.4 4.5V5.8H246.3V4.5H255.4ZM256.3 5.8C256.1 5 255.9 4.3 255.6 3.5L256.6 3.3C256.9 4 257.2 4.8 257.3 5.6L256.3 5.8ZM258.1 5.6C257.8 4.5 257.7 4.1 257.3 3.3L258.2 3C258.5 3.6 258.9 4.7 259 5.3L258.1 5.6Z" fill="#4B4948"/>
<path d="M265.1 11.1002C263.6 10.3002 262.2 9.7002 260.7 9.3002L261.3 8.1002C262.6 8.5002 264.5 9.1002 265.8 9.8002L265.1 11.1002ZM261.2 15.6002C267.6 15.0002 270.3 12.9002 272.3 6.9002L273.6 7.5002C271.6 13.3002 268.9 16.3002 261.8 17.1002L261.2 15.6002ZM266.3 7.5002C265.1 6.9002 263.6 6.2002 261.9 5.7002L262.5 4.5002C264.6 5.1002 266.1 5.80019 267 6.2002L266.3 7.5002ZM271.2 6.3002C271 5.6002 270.9 5.4002 270.2 3.9002L271.3 3.6002C271.8 4.5002 272 5.0002 272.3 5.9002L271.2 6.3002ZM273.3 5.8002C272.7 4.3002 272.6 4.1002 272.2 3.5002L273.2 3.2002C273.5 3.7002 273.8 4.2002 274.3 5.4002L273.3 5.8002Z" fill="#4B4948"/>
<path d="M281 9.1998C283 10.0998 284.6 11.3998 285 11.6998C286 10.3998 286.7 9.0998 287.1 7.0998H281.1C279.3 9.6998 277.6 10.6998 276.9 11.0998L276 9.9998C279.3 8.1998 280.6 5.4998 281.3 3.7998L282.8 4.0998C282.6 4.4998 282.4 4.9998 282 5.7998H288.9C288.4 8.5998 287 15.2998 277.9 17.4998L277.1 16.2998C279.9 15.6998 282 14.6998 284.1 12.7998C282.2 11.1998 280.8 10.4998 280.1 10.1998L281 9.1998Z" fill="#4B4948"/>
<path d="M295 8.7C295 10.4 294.7 12.5 294.2 14.1C293.6 16 292.4 17 291.9 17.6L290.9 16.6C291.6 16 292.6 14.9 293.1 12.9C293.3 12 293.6 10.1 293.6 8.9V4.5H295.1V8.7H295ZM299.2 15.5C302.1 14.8 303.5 12.7 304.2 9.2L305.5 9.7C304.2 16.4 299.5 17 297.8 17.1V4H299.3V15.5H299.2Z" fill="#4B4948"/>
<path d="M319.5 5.2998V6.6998H314.5V14.8998H320.4V16.2998H307.1V14.8998H312.9V6.6998H308V5.2998H319.5Z" fill="#4B4948"/>
<path d="M327.9 8.5C326.6 7.5 324.3 6.5 323.1 6.2L323.8 5C324.1 5.1 326.6 5.8 328.8 7.2L327.9 8.5ZM323.2 15.4C327.6 15.1 332.5 13.7 334.9 5.9L336.3 6.5C335 10.2 333 16 323.7 17L323.2 15.4Z" fill="#4B4948"/>
<path d="M343 11.1002C341.5 10.3002 340.1 9.7002 338.6 9.3002L339.2 8.1002C340.5 8.5002 342.4 9.1002 343.7 9.8002L343 11.1002ZM339.2 15.6002C345.6 15.0002 348.3 12.9002 350.3 6.9002L351.6 7.5002C349.6 13.3002 346.9 16.3002 339.8 17.1002L339.2 15.6002ZM344.2 7.5002C343 6.9002 341.5 6.2002 339.8 5.7002L340.4 4.5002C342.5 5.1002 344 5.80019 344.9 6.2002L344.2 7.5002ZM349.2 6.3002C349 5.6002 348.9 5.4002 348.2 3.9002L349.3 3.6002C349.8 4.5002 350 5.0002 350.3 5.9002L349.2 6.3002ZM351.2 5.8002C350.6 4.3002 350.5 4.1002 350.1 3.5002L351.1 3.2002C351.4 3.7002 351.7 4.2002 352.2 5.4002L351.2 5.8002Z" fill="#4B4948"/>
<path d="M367.2 14.2998V15.6998H353.7V14.2998H367.2ZM365.8 5.7998V7.1998H355V5.7998H365.8Z" fill="#4B4948"/>
<path d="M382.7 4.5C382.1 8.4 380 9.9 377.8 11L377 9.9C378.9 9.1 380.2 8.1 380.9 5.8H369.5V4.5H382.7ZM370 16.1C374.1 14.4 374.7 11.5 374.8 7.4H376.3C376.2 10.9 375.8 14.8 370.9 17.2L370 16.1Z" fill="#4B4948"/>
<path d="M388.4 12.7002H386.9V4.4002H388.4V12.7002ZM396.5 10.5002C396.5 16.7002 391.6 17.1002 388.1 17.5002L387.7 16.1002C391.6 15.9002 395 15.3002 395 11.0002V4.2002H396.5V10.5002Z" fill="#4B4948"/>
<path d="M405.8 8.5C404.5 7.5 402.2 6.5 401 6.2L401.7 5C402 5.1 404.5 5.8 406.7 7.2L405.8 8.5ZM401.1 15.4C405.5 15.1 410.4 13.7 412.8 5.9L414.2 6.5C413 10.2 411 16 401.7 17L401.1 15.4Z" fill="#4B4948"/>
<path d="M416.4 9.9001C418.9 8.4001 420.5 6.2001 421.3 3.8001L422.9 4.0001C422.7 4.5001 422.4 5.2001 421.9 6.1001H428.8C427.2 15.6001 420.4 16.9001 417.9 17.4001L417.3 16.1001C420.8 15.6001 425.3 14.2001 427.1 7.4001H421.1C419.4 9.7001 418.1 10.5001 417.4 10.9001L416.4 9.9001ZM427 5.7001C426.7 4.7001 426.5 4.3001 426.2 3.5001L427.2 3.2001C427.6 3.9001 427.9 4.7001 428.1 5.4001L427 5.7001ZM429.2 5.6001C429.1 5.3001 428.8 4.4001 428.3 3.4001L429.3 3.1001C429.7 3.8001 430 4.5001 430.2 5.2001L429.2 5.6001Z" fill="#4B4948"/>
</g>
<defs>
<clipPath id="clip0_749_210">
<rect width="430" height="18" fill="white"/>
</clipPath>
</defs>
</svg>
