<svg width="98" height="16" viewBox="0 0 98 16" fill="none" xmlns="http://www.w3.org/2000/svg">
<path d="M0.752 10.16V8.8H4.976V10.16H0.752ZM23.0725 0.768L24.0645 1.92C21.7605 2.576 18.3205 2.96 15.4245 3.12C15.3765 2.768 15.2005 2.24 15.0405 1.904C17.8565 1.728 21.1685 1.328 23.0725 0.768ZM22.3365 7.344L21.1845 6.864C21.8405 5.84 22.6725 4.176 23.1365 2.976L24.5285 3.488C23.8725 4.832 23.0245 6.368 22.3365 7.344ZM20.4325 6.112L19.1045 6.4C19.0725 5.648 18.7845 4.4 18.4165 3.44L19.6645 3.216C20.0485 4.144 20.3845 5.344 20.4325 6.112ZM17.6005 6.56L16.3205 6.96C16.1925 6.16 15.7605 4.88 15.2645 3.936L16.4485 3.6C16.9605 4.528 17.4565 5.76 17.6005 6.56ZM14.7045 7.264L14.8965 8.624C14.3525 8.8 13.7925 8.976 13.2485 9.152V13.616C13.2485 14.352 13.1045 14.752 12.6725 14.992C12.2405 15.216 11.6165 15.264 10.5925 15.264C10.5605 14.912 10.3845 14.272 10.1925 13.888C10.8325 13.904 11.4245 13.904 11.6005 13.888C11.8085 13.888 11.8885 13.84 11.8885 13.616V9.568C11.2645 9.76 10.6725 9.936 10.1445 10.112L9.8085 8.672C10.3845 8.528 11.1045 8.32 11.8885 8.096V5.056H10.0325V3.68H11.8885V0.591999H13.2485V3.68H14.8485V5.056H13.2485V7.696L14.7045 7.264ZM24.4645 9.728H21.2805C22.1445 11.152 23.5525 12.496 24.9125 13.232C24.6085 13.488 24.1605 14 23.9365 14.336C22.6885 13.552 21.4085 12.208 20.4805 10.736V15.152H19.0725V10.704C18.0645 12.256 16.6565 13.616 15.2165 14.4C14.9765 14.048 14.5445 13.52 14.2085 13.264C15.7605 12.544 17.2965 11.184 18.2245 9.728H15.1685V8.432H19.0725V6.72H20.4805V8.432H24.4645V9.728ZM34.1765 9.104H38.0485V6.736H34.1765V9.104ZM29.1525 9.104H32.6885V6.736H29.2165V7.376C29.2165 7.92 29.2005 8.512 29.1525 9.104ZM32.6885 3.088H29.2165V5.344H32.6885V3.088ZM38.0485 5.344V3.088H34.1765V5.344H38.0485ZM39.5365 1.664V13.392C39.5365 14.256 39.3285 14.704 38.7525 14.928C38.1605 15.168 37.2325 15.2 35.7605 15.184C35.6965 14.784 35.4565 14.128 35.2645 13.744C36.2885 13.792 37.3445 13.776 37.6485 13.776C37.9365 13.776 38.0485 13.68 38.0485 13.376V10.512H34.1765V15.088H32.6885V10.512H29.0085C28.7525 12.272 28.1765 14.064 27.0085 15.36C26.7845 15.072 26.1765 14.56 25.8405 14.384C27.5845 12.448 27.7445 9.616 27.7445 7.36V1.664H39.5365ZM53.0245 4.672H54.5285C55.2965 4.672 55.8085 4.64 56.1285 4.576V6.272C55.8725 6.24 55.2965 6.224 54.5445 6.224H53.0245V6.768C53.0245 10.896 52.0965 13.184 48.3525 14.864L46.9925 13.584C49.9845 12.48 51.3925 11.104 51.3925 6.864V6.224H47.1685V8.624C47.1685 9.28 47.2165 9.952 47.2325 10.176H45.4725C45.4885 9.952 45.5525 9.28 45.5525 8.624V6.224H43.9845C43.2325 6.224 42.5765 6.256 42.3205 6.272V4.56C42.5285 4.592 43.2485 4.672 43.9845 4.672H45.5525V2.832C45.5525 2.272 45.4885 1.76 45.4725 1.552H47.2645C47.2325 1.76 47.1685 2.24 47.1685 2.832V4.672H51.3925V2.816C51.3925 2.176 51.3445 1.648 51.3125 1.424H53.1205C53.0885 1.664 53.0245 2.176 53.0245 2.816V4.672ZM66.9925 5.984V12.704C66.9925 13.36 67.0245 14.24 67.1045 14.592H65.1205C65.1685 14.24 65.2165 13.36 65.2165 12.704V7.008C63.5365 7.904 61.4085 8.8 59.4245 9.36L58.5125 7.808C61.2485 7.184 63.9525 6 65.7285 4.896C67.3445 3.888 69.0085 2.464 69.9045 1.312L71.2645 2.544C70.1125 3.696 68.6085 4.944 66.9925 5.984ZM87.0245 8.336L86.3045 10.08C84.6085 9.168 82.0165 8.16 80.2565 7.584V12.528C80.2565 13.024 80.3045 14 80.3845 14.576H78.4165C78.4965 14.016 78.5445 13.152 78.5445 12.528V3.28C78.5445 2.768 78.4965 2.032 78.4005 1.488H80.3685C80.3205 2.016 80.2565 2.72 80.2565 3.28V5.776C82.3685 6.416 85.4245 7.552 87.0245 8.336ZM93.6583 10.16V8.8H97.8823V10.16H93.6583Z" fill="#333333"/>
</svg>
