<?xml version="1.0" encoding="UTF-8"?>
<svg id="_レイヤー_1" data-name="レイヤー_1" xmlns="http://www.w3.org/2000/svg" version="1.1" viewBox="0 0 188 46">
  <!-- Generator: Adobe Illustrator 29.4.0, SVG Export Plug-In . SVG Version: 2.1.0 Build 152)  -->
  <defs>
    <style>
      .st0 {
        fill: #231815;
      }

      .st1 {
        fill: #005bab;
      }

      .st2 {
        fill: #fff;
      }

      .st3 {
        fill: #cf121b;
      }

      .st4 {
        fill: #f5ab18;
      }
    </style>
  </defs>
  <g>
    <g>
      <path class="st3" d="M75.7,27.4h-7.2l-.3-3h6.1c1.6,0,2.2-1.3,2.2-2.9s-.7-2.9-2.2-2.9h-6.6v-1.4c-.3-1.7-1.7-2.3-3.4-2.1-1.7.1-3,1-2.9,2.6v.8c0,0-5.9,0-5.9,0-1.6,0-2.3,1.3-2.3,2.9s.7,2.9,2.3,2.9h6.4l.3,3h-7.6c-1.6,0-2.3,1.3-2.3,2.9s.7,2.9,2.3,2.9h8.1l.4,4.7c.1,1.7,1.6,2.4,3.3,2.2,1.7-.1,3-1,2.9-2.7l-.4-4.2h6.7c1.6,0,2.2-1.3,2.2-2.9s-.6-2.9-2.2-2.9Z"/>
      <g>
        <path class="st3" d="M86.8,26.3c1.1,1.4,2.6.8,4.1-.3,1.4-1.1,2.1-2.2,1-3.6-1.8-2.4-6.3-5.1-7.1-5.6-1.5-.9-2.6-.2-3.5,1.3-.9,1.5-1.2,3.3.3,4.2,2,1.2,4.6,3,5.3,4Z"/>
        <path class="st3" d="M101.3,17.8c-1.8-.2-3.2.4-3.4,2.2-1.1,11.4-13.7,13-14.2,13.1h0c-1.8.1-2.4,1.9-2.3,3.7.1,1.8,1,2.8,2.8,2.7.2,0,5.2-.3,9.7-2.6,6.1-3.2,9.7-9.2,10.4-16.2.2-1.8-1.2-2.6-2.9-2.8Z"/>
      </g>
      <g>
        <path class="st3" d="M166.6,16.4c-.9-1.1-2.2-1-3.4-.1-1.2.8-1.8,2-1,3.1l3.1,4c.9,1.1,2.2.9,3.4,0,.7-.5,1.2-1.1,1.3-1.7v-.7c0-.2-.2-.5-.4-.8l-3.1-4Z"/>
        <path class="st3" d="M182.1,23.4l3.1-4c.9-1.1.3-2.3-1-3.1-1.2-.8-2.5-1-3.4.1l-3.1,4c-.9,1.1-.3,2.3,1,3.1,1.2.8,2.5,1.1,3.4,0Z"/>
        <path class="st3" d="M185,32.1c-1.5-.4-3.1-.1-3.4,1.4-.1.6-.2,1-.3,1.2h-1.6v-5.8c-.1,0-.2-.3-.2-.3h5.9s.8-.3.9-.8c0-.5.5-2.9-.2-4,0,0-.4-.6-.6-.6h-2.1s-.9,1.8-2.3,1.9c-1.5.1-3.6-.9-4.2-2h-.1v-6.5c0-1.7-1.4-2.3-3.1-2.3s-3,.6-3,2.3v6.5s-1.5,2.2-3.5,2.1c0,0-1.7.2-3.1-2h-1.8s-.8,0-.9,1.1c0,.5-.4,3.1.1,4,0,0,.2.5.7.5h5.1c0,1.6-.6,4.7-4.5,6.3-1.5.6-1.6,2.5-1,4.1.6,1.5,1.7,2.2,3.3,1.5,6.5-2.7,8.2-8.2,8.2-11.9h.7v7.4c-.1.8,0,1.9.6,2.8.4.6,1.5,1.6,3.5,1.6h4.4c.2,0,.4,0,.5,0,1-.2,3.2-1.1,4.1-5.8.3-1.6-.7-2.1-2.3-2.5Z"/>
      </g>
      <g>
        <path class="st3" d="M128.9,18.9c.1-.2.5-.9,1-.8-.4-1.4-1.6-2.3-3.1-2.3h-12.4c-1.6,0-3,1.2-3.2,2.8-.3,2.1-2.3,5.6-3.6,7.3h0c-1,1.4-.3,3.2,1.1,4.2,1.4,1,3,1,4-.4.3-.5,2.8-3.9,4-7.5h6.7c-.3,3.6-1.8,9.9-8.1,12.3-1.6.6-1.9,2.4-1.2,4,.6,1.6,1.9,2.6,3.6,1.9,7.9-3.1,11.1-10.2,12-16-.7.3-1-.4-1-.4-.6.8-1.9.5-1.9.5-.8,0-1.4-.4-1.4-1.2v-4.1c0-.8.6-1.2,1.4-1.2,0,0,1.2,0,1.7.7,0,0,.1.1.2.2Z"/>
        <path class="st3" d="M128.7,22.9v-3.2c0-.6-.5-1-1.1-1s-1.1.3-1.1,1v3.2c0,.6.5.9,1.1.9s1.1-.3,1.1-.9Z"/>
        <path class="st3" d="M130.6,18.8c-.6,0-1.1.3-1.1,1v3.2c0,.6.5.9,1.1.9s1.1-.3,1.1-.9v-3.2c0-.6-.5-1-1.1-1Z"/>
      </g>
      <g>
        <path class="st3" d="M140,15.2c-.3-.7-1.2-1.2-2.1-1.3-1.3-.1-2.4.4-2.5,1.7h0s-.2,1.5-1.3,2.7c-.9,1-.8,1.9.1,2.8,1,.9,2.4,1.4,3.3.5.5-.6.9-1.1,1.3-1.7h1c-.5.8-1.5,2.3-2.1,2.6,0,0-1.7,1-3.3-.1,0,0-1.2,1.7,1.4,2.5,0,0-1.6,2.1-2.1,2.4,0,0-.7.7-.4,1.4,0,0,.6,1.2,1.8,1.7,1.2.4,1.4,0,1.4,0,0,0,1.1-1.1,1.1-1.2,0,0,.9,1.2-1.9,2.2v6.6s-.2,1.7,1.6,1.7h7.5s-1.5-1.8-.2-3c1.3-1.2,2.4-1.8,2.5-1.8,0,0,1.5-1,.1-2.1h-1.8v-.7h1.5s.4,0,.5-.4c0-.4.2-1.4,0-2,0,0,0-.4-.5-.4h-1.5v-.8h2.1s.4,0,.5-.5c.1-.5.2-2.6-.2-2.9,0,0-.1-.2-.6-.2h-1.1s.2-1-.2-1.2c-.4-.2-1.3-1-3.5-.2,0,0-.6.3-.5.8v.4h-.8s0-.7,0-.7c0,0,.1-1.1.9-1.3.8-.2,1.7-1,4.3.4,0,0,.4.3.4.9v.2s1.1.2,1.1-1.1,0-1.6-.2-1.7c-.1-.2-.3-.6-.7-.6h-3.5v-.8h2.2c1.3,0,1.8-1.1,1.8-2.4s-.5-2.3-1.8-2.3h-5.6ZM140,29.2v-.8h1.6v.8h-1.6ZM141.6,35.3v.8h-1.6v-.8h1.6ZM141.6,31.9v.8h-1.6s0-.8,0-.8h1.6Z"/>
        <path class="st3" d="M159.4,35.2c-1.1-.7-1.9-1.4-2.9-.8,0,0-1,.9-1,1l-.5-.4s.5-1.1,2-1.4v-1.3s1.9,0,1.9-1.1v-14.2s.2-1.9-2.1-1.9h-8.3s-.8,0-1,.5c0,0,1.5,1.2.1,4.4,0,0,1.8,1.3.6,4.6,0,0,1.3,1.5-.1,4.5,0,0,.8,2.4-.3,3.3,0,0,1.5.6.6,2.6,0,0-1.9,1.3-2.8,2,0,0-1,.6-.4,1.7.6,1.1,1.8,2,2,2.1.2,0,.8.1,1.3-.2.5-.3,3.1-2.3,3.3-3.6v-4.7h1v6.2s0,1.7,1.2,1.7h4.1s.4,0,.9-.8c.5-.8,1.3-2.5,1.3-2.5,0,0,.5-1-.7-1.8ZM154.2,27.2v.8h-3.1v-.8h3.1ZM151,19.9v-.9h3.1v.9h-3.1ZM151,24v-.8h3.1v.8h-3.1Z"/>
      </g>
    </g>
    <g>
      <path class="st3" d="M60.1,5.3h-2.7v6.3h2.3v-1.8h.7c.9,0,1.5-.2,1.9-.5.4-.3.6-.9.6-1.6s-.2-1.4-.7-1.7c-.4-.4-1.1-.5-2.1-.5ZM60.7,7.6c0,.2,0,.3-.2.4-.1,0-.3.1-.5.1h-.4v-1h.4c.2,0,.4,0,.5.1.1,0,.2.2.2.4Z"/>
      <path class="st3" d="M68.2,5.3l-2.2,6.3h2.4l.2-.8h1.7l.2.8h2.4l-2.2-6.3h-2.5ZM69.9,9.3h-.9l.2-.7c0-.4.2-.6.2-.8,0-.2,0-.4,0-.5h0c0,.2,0,.4,0,.5,0,.2,0,.5.2.8l.2.7Z"/>
      <path class="st3" d="M80.4,9.7c-.4,0-.6-.1-.9-.3-.2-.2-.3-.5-.3-.9s.1-.7.3-.9c.2-.2.5-.3.9-.3s.5,0,.7.1c.2,0,.4.2.6.4v-2.3c-.2-.1-.5-.2-.7-.2-.2,0-.5,0-.8,0-.5,0-.9,0-1.3.2-.4.2-.8.4-1.1.7-.3.3-.5.7-.7,1.1-.2.4-.2.8-.2,1.3s.1,1.2.4,1.7c.3.5.7.9,1.3,1.2.2.1.5.2.8.3.3,0,.6.1.9.1s.5,0,.7,0c.2,0,.5-.1.7-.2v-2.4c-.2.2-.4.4-.7.4-.2,0-.4.1-.7.1Z"/>
      <polygon class="st3" points="88.8 5.3 86.5 5.3 86.5 11.6 88.8 11.6 88.8 9.4 90.1 9.4 90.1 11.6 92.4 11.6 92.4 5.3 90.1 5.3 90.1 7.4 88.8 7.4 88.8 5.3"/>
      <rect class="st3" x="97.3" y="5.3" width="2.3" height="6.3"/>
      <path class="st3" d="M108.2,8.6l-2-3.3h-2.2v6.3h2.2v-2.3c0-.2,0-.4,0-.5,0-.2,0-.3,0-.5l1.9,3.3h2.2v-6.3h-2.2v2.1c0,.3,0,.5,0,.7,0,.2,0,.3,0,.5Z"/>
      <polygon class="st3" points="122.8 5.3 120.3 5.3 118.8 8 118.8 5.3 116.6 5.3 116.6 11.6 118.8 11.6 118.8 8.9 120.4 11.6 123.1 11.6 120.9 8.4 122.8 5.3"/>
      <path class="st3" d="M132.9,6.1c-.3-.3-.7-.5-1.1-.7-.4-.2-.8-.2-1.3-.2s-.9,0-1.3.2c-.4.2-.8.4-1.1.7-.3.3-.5.7-.7,1-.2.4-.2.8-.2,1.3s0,.9.2,1.3c.2.4.4.7.7,1,.3.3.7.5,1.1.7.4.2.8.2,1.3.2s.9,0,1.3-.2c.4-.2.8-.4,1.1-.7.3-.3.6-.7.7-1.1.2-.4.2-.8.2-1.3s0-.9-.2-1.3c-.2-.4-.4-.7-.7-1.1ZM131.6,8.4c0,.4,0,.6-.3.9-.2.2-.4.3-.8.3s-.6-.1-.8-.3c-.2-.2-.3-.5-.3-.9s0-.6.3-.9c.2-.2.4-.3.8-.3s.6.1.8.3c.2.2.3.5.3.9Z"/>
      <path class="st3" d="M143.7,9.6c.2-.1.3-.3.5-.4l-1.2-1.3c-.1.2-.3.4-.4.5-.2.2-.3.3-.5.4l-.6-.6c.4-.1.7-.3.8-.5.2-.2.3-.5.3-.9s-.2-.9-.6-1.2c-.4-.3-.9-.5-1.6-.5s-1.2.2-1.7.5c-.4.3-.6.7-.6,1.3s0,.4.2.6c.1.2.3.4.5.6-.5,0-.8.3-1.1.6-.3.3-.4.7-.4,1.1s.2,1,.7,1.4c.4.4,1,.5,1.7.5s.7,0,1.1-.2c.3-.1.7-.3,1-.5l.5.5h2.6l-1.5-1.6c.2-.1.4-.2.5-.4ZM140.1,7.1c0,0,0-.2,0-.3s0-.2.1-.3c0,0,.2-.1.3-.1s.2,0,.2.1c0,0,0,.2,0,.3s0,.2,0,.3c0,0-.2.2-.3.2-.1,0-.2-.1-.3-.2ZM139.4,9.3c0,0,.1-.1.3-.2l.7.8c0,0-.2,0-.2.1,0,0-.2,0-.3,0-.2,0-.3,0-.4-.1,0,0-.2-.2-.2-.3s0-.2,0-.2Z"/>
      <path class="st3" d="M150.5,7c0,0,.2,0,.4,0s.4,0,.6.1c.2,0,.4.2.7.4l.7-1.6c-.4-.2-.7-.3-1.1-.4-.3,0-.7-.1-1.1-.1-.8,0-1.4.2-1.9.6-.5.4-.7,1-.7,1.6s.1.8.4,1.1c.2.3.6.5,1.1.6,0,0,.2,0,.3,0,.4,0,.7.2.7.4s0,.2-.1.2c0,0-.2,0-.4,0-.2,0-.5,0-.7-.2-.3-.1-.5-.3-.9-.5l-.7,1.8c.4.2.8.4,1.2.5.4.1.8.2,1.2.2.8,0,1.5-.2,2-.7.5-.4.8-1,.8-1.7s-.1-.8-.4-1.1c-.2-.3-.6-.5-1-.6,0,0-.1,0-.2,0-.6-.1-.9-.3-.9-.5s0-.2.1-.2Z"/>
      <polygon class="st3" points="159.8 5.3 157.5 5.3 157.5 11.6 162 11.6 162 9.5 159.8 9.5 159.8 5.3"/>
      <path class="st3" d="M171.4,6.1c-.3-.3-.7-.5-1.1-.7-.4-.2-.8-.2-1.3-.2s-.9,0-1.3.2c-.4.2-.8.4-1.1.7-.3.3-.5.7-.7,1-.2.4-.2.8-.2,1.3s0,.9.2,1.3c.2.4.4.7.7,1,.3.3.7.5,1.1.7.4.2.8.2,1.3.2s.9,0,1.3-.2c.4-.2.8-.4,1.1-.7.3-.3.6-.7.7-1.1.2-.4.2-.8.2-1.3s0-.9-.2-1.3c-.2-.4-.4-.7-.7-1.1ZM170.1,8.4c0,.4,0,.6-.3.9-.2.2-.4.3-.8.3s-.6-.1-.8-.3c-.2-.2-.3-.5-.3-.9s0-.6.3-.9c.2-.2.4-.3.8-.3s.6.1.8.3c.2.2.3.5.3.9Z"/>
      <polygon class="st3" points="178.5 11.6 180.8 11.6 180.8 7.3 182.1 7.3 182.1 5.3 177.3 5.3 177.3 7.3 178.5 7.3 178.5 11.6"/>
    </g>
  </g>
  <g>
    <circle class="st2" cx="23.7" cy="23" r="21.5"/>
    <path class="st0" d="M42.9,20.1c-.3-.6-1-.9-1.7-.9s-1.3.2-2,.7c0-1.4,0-2.6-.3-3.6-.3-1.4-1.6-2.3-3.2-2.3-3,0-4.5,2.8-5,4.1-.2-.4-.5-.7-.8-.9-.5-.3-1.2-.5-1.9-.5s-.5,0-.8,0c-.7.1-1.2.5-1.6,1.1-.3-.1-.7-.2-1.2-.2-1.5,0-2.4,1.7-2.6,2.2l-.3.6c-.1-.6-.3-1-.6-1.4.2-.3.2-.6.2-1,0-1.2-1-2.1-2.1-2.1s-1.2.3-1.6.7c-.5-.7-1.2-1.1-2-1.1s-1.3.3-1.7.8c-.4.6-.6,1.3-.3,2.1,0,0,0,0,0,.1.7,1.8-.3,3-1,3.5-.5-.3-1.2-.7-1.7-.9-.3-.7-.9-1.9-1.8-2.8-.6-.6-1.2-.9-1.8-.9s-1.1.3-1.5.7c-.4.5-.6,1.3-.4,2,0,.3.2.6.4,1-1.1.9-1.8,2.5-1,4.2.9,1.6,2.3,1.9,3.1,2,0,1.4,0,4.6-.1,5.4,0,.7.1,1.5.6,2,.4.4.9.7,1.5.7s1.3-.1,2-1.4c.6-1.2.5-4.2.4-6.7.6.5,1.7,1.3,3.5,2.3,1.4.8,2.9,1.2,4.3,1.2,1.3,0,2.5-.3,3.7-.9,1.2-.6,1.8-1.7,1.6-2.8-.2-.8-.8-1.3-1.7-1.5.1,0,.2-.2.3-.3.2-.2.4-.5.6-.9.6.9,1.4,1,1.7,1s.6,0,1-.2c.8-.3,1.3-1.1,1.3-2.4.4.4.9.8,1.1.9.4.3,1,.4,1.7.4-.7,1-.8,2.1-.8,2.8-.2,1.6.8,3,2.6,3.6.3.1.7.2,1,.2,1.7,0,3.3-1.3,4-3.2.2-.5.6-1.8.8-2.5.7-.3,1.8-.9,2.3-1.2.1,0,.3-.2.4-.2.6-.3,1.2-.7,1.5-1.3.6-1.1.3-1.9,0-2.3ZM17.3,25.8h0c-.1-.1-.6-.5-1.3-1,.6-.7,1.1-1.4,1.4-2.2.3,1.1.9,2.5,2,3.3.3.2.7.4,1,.5-.2,0-.4,0-.6,0-.7,0-1.5-.3-2.4-.7Z"/>
    <path class="st0" d="M33.3,12.3c-.2-.9-1-1.5-1.9-1.5s-.3,0-.5,0l-1.8.4,1.2-1.8c.3-.4.4-1,.3-1.5,0-.5-.4-1-.8-1.3-.3-.2-.7-.4-1.1-.4-.7,0-1.3.3-1.6.9l-1.4,2.1v-2.2c0-1.1-.9-2-2-2s-2,.9-2,2v2.2l-1.4-2.1c-.4-.5-1-.9-1.6-.9s-.8.1-1.1.4c-.4.3-.7.8-.8,1.3s0,1.1.3,1.5l1.2,1.8-1.8-.4c-.2,0-.3,0-.5,0-.9,0-1.7.6-1.9,1.5-.1.5,0,1.1.2,1.5.3.5.7.8,1.2.9l2.8.7c.2,0,.3,0,.5,0s.2,0,.2,0c-.1.4,0,.9.2,1.2.3.4.8.7,1.3.7h6.2c.5,0,1-.3,1.3-.7.2-.4.3-.8.2-1.3.1,0,.2,0,.4,0s.3,0,.5,0l2.8-.7c1.1-.3,1.7-1.3,1.5-2.4Z"/>
    <path class="st0" d="M23.7,0C11,0,.7,10.3.7,23s10.3,23,23,23,23-10.3,23-23S36.4,0,23.7,0ZM23.7,44.5c-11.8,0-21.5-9.6-21.5-21.5S11.8,1.5,23.7,1.5s21.5,9.6,21.5,21.5-9.6,21.5-21.5,21.5Z"/>
    <g>
      <path class="st1" d="M19,18.9c.5,0,.8-.4.8-.8s-.4-.8-.8-.8-.8.4-.8.8.4.8.8.8Z"/>
      <path class="st3" d="M39.3,21.4c-.9.8-1.6.8-1.6.8v-.9c0-.3.4-2.6-.1-4.7-.2-.7-.8-1.3-2-1.3-2.3,0-3.5,2.5-3.9,3.5-.4,1,.1,1.8.1,2.1v.3s-.4.3-1.2,0c0,0-.6-.6-.6-.9,0-.5-.5-1.7-.9-2-.4-.3-1-.4-1.8-.3-.8.1-.9,1-1.3,1.4-.1.1-.3.1-.4,0-.4-.4-.5-.5-1.3-.5s-1.4,1.4-1.4,1.4c0,0-.9,1.8-1.2,2.3-.3.5-.4.5-.6.5s-.5-.5-.7-.9c-.1-.4-.1-2.7-1.2-2.7s-1,.9-.9,1.8c.1.9.7,2.7,1.7,3.5,1,.8,2.1.1,2.6-.4.5-.5.8-1.6,1.3-2.5.5-.9.9-.3,1,.1,0,.1-.1.8.1,1.4.3.7.7.8,1.3.5.7-.3.5-1.8.5-2.1s.4-1.1.5-1.4c.3-.5.6-.3.8,0,.1.3.3.4.5.9.3.5.9,1,1.3,1.3.4.3,1.6.3,2,.1.4-.1.7-.2,1-.5.3-.3.8-.4,1-.3.3.1.8,0,1.3-.3.5-.2.5,0,.5,0v.8c-.1,0-.6.3-1.2.4-2.9,1.2-3.1,2.9-3.3,4.2-.1,1.3.9,2,1.7,2.2,1.2.4,2.7-.4,3.4-2.2.2-.7.9-3,.9-3,0,0,2.1-1,2.7-1.4.6-.4,1.2-.6,1.4-1,.7-1.3-.5-2-2.3-.4ZM35.4,25.2c-.1.5-.4,1.3-.9,2-.5.7-.7.5-.9.4-.3-.1-.4-.3-.3-.9,0,0,.3-1,1.2-1.4.9-.4,1-.5.9,0ZM36.1,17.6c-.1.5-.3,1.8-1,2.3-.8.5-1.7.5-1.6-.5,0,0,.1-.8.4-1.2.3-.4.6-.9,1.6-1.2.5-.1.8,0,.7.5Z"/>
      <path class="st3" d="M21.5,27.4c-2.2,1.2-4.7-.4-4.9-.5-.3-.1-2.6-2-2.6-2,3.6-3,2.7-6.6,2.6-7-.7-1.7-2.3-1.2-2,.3,1.4,3.6-2.1,5.5-2.1,5.5,0,0-.3.1-.5-.1-.5-.5-2.3-1.3-2.3-1.3,0,0-.5-1.7-1.7-2.9-1.2-1.2-1.7.1-1.6.7.1.5.9,1.4.9,1.6,0,.3-.2.3-.7.5-.6.4-1.6,1.5-.9,2.7.9,1.7,2.9,1.2,3.1,1.7.3.5.1,5.5,0,6.5-.1,1,.9,1.8,1.6.5.7-1.3.1-7.3.1-7.3,0,0,.8-.1,1.2-.3.4-.1.5,0,.7.1.1.1,1,1,3.6,2.5,2.6,1.4,4.9,1.2,6.8.3,1.6-.8,1.1-2.7-1.3-1.4ZM7.6,24.1c-.6-.8.4-.9.7-.5.2.2.3.8.3.8,0,0-.5.3-.9-.3Z"/>
    </g>
    <g>
      <polygon class="st0" points="18 32.7 16.4 32.7 15 34.6 15 32.7 13.6 32.7 13.6 37.3 15 37.3 15 36.1 15.5 35.5 16.5 37.3 18 37.3 16.4 34.7 18 32.7"/>
      <path class="st0" d="M20.7,32.6l-2.4,4.7h1.4l.3-.6h1.4l.3.6h1.4l-2.4-4.7h0ZM20.4,35.8c.1-.3.3-.7.3-.9h0c0,.2.2.6.3.9h-.7Z"/>
      <polygon class="st0" points="26.3 34.7 23.6 32.5 23.5 32.5 23.5 37.3 24.9 37.3 24.9 35.2 27.6 37.3 27.6 37.3 27.6 32.6 26.3 32.6 26.3 34.7"/>
      <polygon class="st0" points="32.8 32.7 31.2 32.7 29.8 34.6 29.8 32.7 28.4 32.7 28.4 37.3 29.8 37.3 29.8 36.1 30.3 35.5 31.3 37.3 32.8 37.3 31.2 34.7 32.8 32.7"/>
      <path class="st0" d="M35.3,32.5c-1.5,0-2.5,1.1-2.5,2.4s1,2.4,2.5,2.4,2.5-1.1,2.5-2.4-1-2.4-2.5-2.4ZM35.3,36.2c-.7,0-1.1-.6-1.1-1.2s.4-1.2,1.1-1.2,1.1.6,1.1,1.2-.4,1.2-1.1,1.2Z"/>
    </g>
    <g>
      <path class="st2" d="M26.1,12.9c.2-.2.4-.5.4-.8s0-.3-.1-.5c0,0,0,0,0,0,.2.1.4.2.6.2.4,0,.7-.2.9-.5l1.7-2.4c.3-.5.2-1.2-.3-1.5-.2-.1-.4-.2-.6-.2-.4,0-.7.2-.9.5l-1.7,2.4c-.2.3-.2.7,0,1.1-.2-.2-.4-.3-.7-.3s-.7.2-.9.5c-.1-.2-.3-.3-.5-.4.5-.1.8-.5.8-1v-2.9c0-.6-.5-1.1-1.1-1.1s-1.1.5-1.1,1.1v2.9c0,.5.3.9.7,1-.2,0-.5.2-.6.4-.2-.3-.5-.5-.9-.5s-.4,0-.5.1c0,0,0,0,0-.1,0-.3,0-.6-.2-.8l-1.7-2.4c-.2-.3-.5-.5-.9-.5s-.4,0-.6.2c-.5.3-.6,1-.3,1.5l1.7,2.4c.2.3.5.5.9.5s.3,0,.5-.1c0,.1,0,.2,0,.4,0,.3.2.7.4.9l-1.1,2.7c0,.2,0,.4,0,.6.1.2.3.3.5.3h6.2c.2,0,.4-.1.5-.3.1-.2.1-.4,0-.6l-1.1-2.7ZM22.3,13.1c.1,0,.3-.2.3-.3,0,.1.2.2.3.3l-.3.6-.3-.5ZM24.2,13c0,0,.2-.1.2-.2.1.1.2.2.4.3l-.3.5-.4-.6Z"/>
      <path class="st2" d="M32.5,12.5c-.1-.5-.6-.8-1-.8s-.2,0-.3,0l-2.8.7c-.3,0-.5.2-.7.5-.2.2-.2.5-.1.8.1.5.6.8,1,.8s.2,0,.3,0l2.8-.7c.6-.1.9-.7.8-1.3Z"/>
      <path class="st2" d="M19,12.4l-2.8-.7c0,0-.2,0-.3,0-.5,0-.9.3-1,.8,0,.3,0,.6.1.8.1.2.4.4.7.5l2.8.7c0,0,.2,0,.3,0h0c.5,0,.9-.3,1-.8,0-.3,0-.6-.1-.8-.1-.2-.4-.4-.7-.5Z"/>
    </g>
    <g>
      <polygon class="st4" points="24.6 14.8 23.6 13.1 22.7 14.8 21.6 13.1 20.5 15.8 26.7 15.8 25.6 13.1 24.6 14.8"/>
      <circle class="st4" cx="21.8" cy="12.1" r=".5"/>
      <circle class="st4" cx="23.6" cy="12.1" r=".5"/>
      <circle class="st4" cx="25.4" cy="12.1" r=".5"/>
      <rect class="st4" x="23.2" y="6.6" width=".9" height="3.9" rx=".4" ry=".4"/>
      <rect class="st4" x="27.5" y="7.6" width=".9" height="3.9" rx=".4" ry=".4" transform="translate(10.4 -14.2) rotate(34.7)"/>
      <rect class="st4" x="29.5" y="11.2" width=".9" height="3.9" rx=".4" ry=".4" transform="translate(35.6 -19.1) rotate(76.3)"/>
      <rect class="st4" x="18.9" y="7.6" width=".9" height="3.9" rx=".4" ry=".4" transform="translate(40.8 6.3) rotate(145.3)"/>
      <rect class="st4" x="16.9" y="11.2" width=".9" height="3.9" rx=".4" ry=".4" transform="translate(34.2 -.6) rotate(103.7)"/>
    </g>
  </g>
</svg>