<svg width="150" height="150" viewBox="0 0 150 150" fill="none" xmlns="http://www.w3.org/2000/svg">
<g clip-path="url(#clip0_831_3937)">
<path d="M75 150C116.421 150 150 116.421 150 75C150 33.5786 116.421 0 75 0C33.5786 0 0 33.5786 0 75C0 116.421 33.5786 150 75 150Z" fill="white"/>
<path d="M119 31H31V119H119V31Z" fill="white"/>
<path d="M97.7297 59.6699V49.36C97.7297 46.11 95.0697 43.45 91.8197 43.45H69.0897C65.8397 43.45 63.1797 46.11 63.1797 49.36V61.1199C63.1797 64.3699 65.8397 67.0299 69.0897 67.0299H70.4897V71.93L75.3897 67.0299H78.9097" stroke="#464A65" stroke-width="2.95" stroke-linecap="round" stroke-linejoin="round"/>
<path d="M85.4297 55.7398C85.4297 56.5098 86.0597 57.1398 86.8297 57.1398C87.5997 57.1398 88.2297 56.5098 88.2297 55.7398C88.2297 54.9698 87.5997 54.3398 86.8297 54.3398C86.0597 54.3398 85.4297 54.9698 85.4297 55.7398Z" fill="#464A65"/>
<path d="M79.3994 55.7398C79.3994 56.5098 80.0294 57.1398 80.7994 57.1398C81.5694 57.1398 82.1994 56.5098 82.1994 55.7398C82.1994 54.9698 81.5694 54.3398 80.7994 54.3398C80.0294 54.3398 79.3994 54.9698 79.3994 55.7398Z" fill="#464A65"/>
<path d="M73.3799 55.7398C73.3799 56.5098 74.0099 57.1398 74.7799 57.1398C75.5499 57.1398 76.1799 56.5098 76.1799 55.7398C76.1799 54.9698 75.5499 54.3398 74.7799 54.3398C74.0099 54.3398 73.3799 54.9698 73.3799 55.7398Z" fill="#464A65"/>
<path d="M52.7501 72.5099C56.2957 72.5099 59.1701 69.6356 59.1701 66.0899C59.1701 62.5443 56.2957 59.6699 52.7501 59.6699C49.2044 59.6699 46.3301 62.5443 46.3301 66.0899C46.3301 69.6356 49.2044 72.5099 52.7501 72.5099Z" fill="#0DB2E7" stroke="#464A65" stroke-width="1.97" stroke-linecap="round" stroke-linejoin="round"/>
<path d="M63.2296 93.2899C63.8396 93.2899 64.3297 92.7999 64.3297 92.1899V88.7799C64.3597 82.1599 59.4096 75.8999 52.7496 75.8999C46.0896 75.8999 41.4596 82.1599 41.1396 88.7799V92.1899C41.1396 92.7999 41.6297 93.2899 42.2397 93.2899H63.2296Z" fill="#0DB2E7" stroke="#464A65" stroke-width="1.97" stroke-linecap="round" stroke-linejoin="round"/>
<path d="M91.3794 81.2299C96.7311 81.2299 101.069 76.8915 101.069 71.5399C101.069 66.1882 96.7311 61.8499 91.3794 61.8499C86.0278 61.8499 81.6895 66.1882 81.6895 71.5399C81.6895 76.8915 86.0278 81.2299 91.3794 81.2299Z" stroke="#464A65" stroke-width="2.95" stroke-linecap="round" stroke-linejoin="round"/>
<path d="M108.859 106.55V105.32C108.909 95.3199 101.429 85.8799 91.3794 85.8799C81.3294 85.8799 74.3294 95.3199 73.8594 105.32V106.55H108.859Z" stroke="#464A65" stroke-width="2.95" stroke-linecap="round" stroke-linejoin="round"/>
</g>
<defs>
<clipPath id="clip0_831_3937">
<rect width="150" height="150" fill="white"/>
</clipPath>
</defs>
</svg>
