<svg width="150" height="151" viewBox="0 0 150 151" fill="none" xmlns="http://www.w3.org/2000/svg">
<g clip-path="url(#clip0_831_3950)">
<path d="M75 150.314C116.421 150.314 150 116.735 150 75.3137C150 33.8924 116.421 0.313721 75 0.313721C33.5786 0.313721 0 33.8924 0 75.3137C0 116.735 33.5786 150.314 75 150.314Z" fill="white"/>
<path d="M119.39 31.3137H31.3896V119.314H119.39V31.3137Z" fill="white"/>
<path d="M46.5797 91.4938C43.7797 86.6538 42.1797 81.0338 42.1797 75.0438C42.1797 59.2838 53.2597 46.1138 68.0497 42.8938" stroke="#0DB2E7" stroke-width="2.95" stroke-linecap="round" stroke-linejoin="round"/>
<path d="M103.569 91.4939C97.8793 101.324 87.2493 107.944 75.0693 107.944C65.1993 107.944 56.3493 103.604 50.3193 96.7239" stroke="#0DB2E7" stroke-width="2.95" stroke-linecap="round" stroke-linejoin="round"/>
<path d="M75.0791 42.1438C93.2491 42.1438 107.979 56.8738 107.979 75.0438C107.979 78.4538 107.459 81.7438 106.499 84.8438" stroke="#0DB2E7" stroke-width="2.95" stroke-linecap="round" stroke-linejoin="round"/>
<path d="M80.8992 49.5938L73.4492 42.1438L80.8992 34.6838" stroke="#0DB2E7" stroke-width="2.95" stroke-linecap="round" stroke-linejoin="round"/>
<path d="M50.3196 81.5637L46.7096 91.4637L36.8096 87.8537" stroke="#0DB2E7" stroke-width="2.95" stroke-linecap="round" stroke-linejoin="round"/>
<path d="M94.1396 91.5638L104.62 90.3838L105.79 100.864" stroke="#0DB2E7" stroke-width="2.95" stroke-linecap="round" stroke-linejoin="round"/>
<path d="M91.9298 76.4339C91.9698 75.9439 91.9998 75.4439 91.9998 74.9339C91.9998 74.4239 91.9698 73.9339 91.9298 73.4339L88.3098 72.1739C88.1098 71.2139 87.8098 70.2939 87.4098 69.4139L89.5998 66.2639C89.0798 65.4039 88.4898 64.5939 87.8398 63.8439L84.1698 64.9539C83.4498 64.3039 82.6698 63.7339 81.8298 63.2539L81.7598 59.4139C80.8498 59.0239 79.8998 58.7239 78.9198 58.4939L76.5998 61.5539C76.1198 61.5039 75.6398 61.4739 75.1498 61.4739C74.6598 61.4739 74.1798 61.5039 73.6998 61.5539L71.3798 58.4939C70.3998 58.7139 69.4498 59.0239 68.5398 59.4139L68.4698 63.2539C67.6298 63.7339 66.8398 64.3039 66.1298 64.9539L62.4598 63.8439C61.7998 64.5939 61.2098 65.4039 60.6998 66.2639L62.8898 69.4139C62.4998 70.2839 62.1898 71.2039 61.9898 72.1739L58.3698 73.4339C58.3298 73.9239 58.2998 74.4239 58.2998 74.9339C58.2998 75.4439 58.3298 75.9339 58.3698 76.4339L61.9898 77.6939C62.1898 78.6539 62.4898 79.5739 62.8898 80.4539L60.6998 83.6039C61.2198 84.4639 61.8098 85.2739 62.4598 86.0239L66.1298 84.9139C66.8498 85.5639 67.6298 86.1339 68.4698 86.6139L68.5398 90.4539C69.4498 90.8439 70.3998 91.1439 71.3798 91.3739L73.6998 88.3139C74.1798 88.3639 74.6598 88.3939 75.1498 88.3939C75.6398 88.3939 76.1198 88.3639 76.5998 88.3139L78.9198 91.3739C79.8998 91.1539 80.8498 90.8439 81.7598 90.4539L81.8298 86.6139C82.6698 86.1339 83.4598 85.5639 84.1698 84.9139L87.8398 86.0239C88.4998 85.2739 89.0898 84.4639 89.5998 83.6039L87.4098 80.4539C87.7998 79.5839 88.1098 78.6639 88.3098 77.6939L91.9298 76.4339ZM75.1498 80.6339C71.9998 80.6339 69.4498 78.0839 69.4498 74.9339C69.4498 71.7839 71.9998 69.2339 75.1498 69.2339C78.2998 69.2339 80.8498 71.7839 80.8498 74.9339C80.8498 78.0839 78.2998 80.6339 75.1498 80.6339Z" fill="#0DB2E7" stroke="#464A65" stroke-width="1.97" stroke-linecap="round" stroke-linejoin="round"/>
</g>
<defs>
<clipPath id="clip0_831_3950">
<rect width="150" height="150" fill="white" transform="translate(0 0.313721)"/>
</clipPath>
</defs>
</svg>
