<svg width="1620" height="504" viewBox="0 0 1620 504" fill="none" xmlns="http://www.w3.org/2000/svg">
<g clip-path="url(#clip0_1323_5973)">
<path d="M363.79 390.813H11.3688C5.48264 390.813 0.710938 395.594 0.710938 401.491V492.61C0.710938 498.507 5.48264 503.288 11.3688 503.288H363.79C369.676 503.288 374.448 498.507 374.448 492.61V401.491C374.448 395.594 369.676 390.813 363.79 390.813Z" fill="#E6E9F1"/>
<path d="M363.789 391.525C369.275 391.525 373.737 395.996 373.737 401.491V492.61C373.737 498.106 369.275 502.576 363.789 502.576H11.3684C5.88316 502.576 1.42105 498.106 1.42105 492.61V401.491C1.42105 395.996 5.88316 391.525 11.3684 391.525H363.789ZM363.789 390.102H11.3684C5.11579 390.102 0 395.227 0 401.491V492.61C0 498.874 5.11579 504 11.3684 504H363.789C370.042 504 375.158 498.874 375.158 492.61V401.491C375.158 395.227 370.042 390.102 363.789 390.102Z" fill="#0A2270"/>
<path d="M778.737 390.813H426.316C420.43 390.813 415.658 395.594 415.658 401.491V492.61C415.658 498.507 420.43 503.288 426.316 503.288H778.737C784.623 503.288 789.395 498.507 789.395 492.61V401.491C789.395 395.594 784.623 390.813 778.737 390.813Z" fill="#E6E9F1"/>
<path d="M778.737 391.525C784.222 391.525 788.684 395.996 788.684 401.491V492.61C788.684 498.106 784.222 502.576 778.737 502.576H426.316C420.83 502.576 416.368 498.106 416.368 492.61V401.491C416.368 395.996 420.83 391.525 426.316 391.525H778.737ZM778.737 390.102H426.316C420.063 390.102 414.947 395.227 414.947 401.491V492.61C414.947 498.874 420.063 504 426.316 504H778.737C784.989 504 790.105 498.874 790.105 492.61V401.491C790.105 395.227 784.989 390.102 778.737 390.102Z" fill="#0A2270"/>
<path d="M1193.68 390.813H841.263C835.377 390.813 830.605 395.594 830.605 401.491V492.61C830.605 498.507 835.377 503.288 841.263 503.288H1193.68C1199.57 503.288 1204.34 498.507 1204.34 492.61V401.491C1204.34 395.594 1199.57 390.813 1193.68 390.813Z" fill="#E6E9F1"/>
<path d="M1193.68 391.525C1199.17 391.525 1203.63 395.996 1203.63 401.491V492.61C1203.63 498.106 1199.17 502.576 1193.68 502.576H841.263C835.778 502.576 831.316 498.106 831.316 492.61V401.491C831.316 395.996 835.778 391.525 841.263 391.525H1193.68ZM1193.68 390.102H841.263C835.01 390.102 829.895 395.227 829.895 401.491V492.61C829.895 498.874 835.01 504 841.263 504H1193.68C1199.94 504 1205.05 498.874 1205.05 492.61V401.491C1205.05 395.227 1199.94 390.102 1193.68 390.102Z" fill="#0A2270"/>
<path d="M1608.63 390.813H1256.21C1250.32 390.813 1245.55 395.594 1245.55 401.491V492.61C1245.55 498.507 1250.32 503.288 1256.21 503.288H1608.63C1614.52 503.288 1619.29 498.507 1619.29 492.61V401.491C1619.29 395.594 1614.52 390.813 1608.63 390.813Z" fill="#E6E9F1"/>
<path d="M1608.63 391.525C1614.12 391.525 1618.58 395.996 1618.58 401.491V492.61C1618.58 498.106 1614.12 502.576 1608.63 502.576H1256.21C1250.72 502.576 1246.26 498.106 1246.26 492.61V401.491C1246.26 395.996 1250.72 391.525 1256.21 391.525H1608.63ZM1608.63 390.102H1256.21C1249.96 390.102 1244.84 395.227 1244.84 401.491V492.61C1244.84 498.874 1249.96 504 1256.21 504H1608.63C1614.88 504 1620 498.874 1620 492.61V401.491C1620 395.227 1614.88 390.102 1608.63 390.102Z" fill="#0A2270"/>
<path d="M1620 135.254H0V149.491H1620V135.254Z" fill="black"/>
<path d="M1620 0H1432.42V284.746H1620V0Z" fill="#E6E6E6"/>
<path d="M1381.26 0H1193.68V284.746H1381.26V0Z" fill="#E6E6E6"/>
<path d="M1142.53 0H954.947V284.746H1142.53V0Z" fill="#0A2270"/>
<path d="M903.79 0H716.211V284.746H903.79V0Z" fill="#0A2270"/>
<path d="M665.053 0H477.474V284.746H665.053V0Z" fill="#0A2270"/>
<path d="M426.316 0H238.737V284.746H426.316V0Z" fill="#0A2270"/>
<path d="M187.579 0H0V284.746H187.579V0Z" fill="#0A2270"/>
<path d="M101.179 89.8942C100.724 90.72 100.298 91.4888 99.9281 92.1152H105.584V107.548C105.584 109.228 105.243 110.14 104.134 110.681C103.026 111.193 101.434 111.25 99.2176 111.25C99.0755 110.453 98.6491 109.228 98.2512 108.374H91.3165V109.94H88.3323V100.999H99.4734V108.061C100.468 108.089 101.349 108.089 101.69 108.089C102.173 108.089 102.315 107.947 102.315 107.52V98.7783C101.889 99.6325 101.179 99.9172 100.042 99.9172H97.7397C95.2102 99.9172 94.6986 99.1484 94.6986 96.842V95.0196H92.3965C92.1407 98.1803 91.0891 100.003 86.7691 100.999C86.5702 100.43 86.0586 99.5756 85.547 99.0061V111.193H82.3355V92.1152H87.3944C87.167 91.4033 86.826 90.5491 86.5134 89.8942H81.3691V86.8189H91.9418V84.6833H95.3807V86.8189H106.238V89.8942H101.179ZM85.547 98.6074C88.5881 98.0095 89.2418 96.9844 89.4407 95.0196H85.547V98.6074ZM96.2049 92.1152C96.546 91.4318 96.9439 90.6345 97.2565 89.8942H90.1512C90.5207 90.6345 90.8902 91.4888 91.0607 92.1152H96.2049ZM96.4323 103.505H91.3165V105.897H96.4323V103.505ZM102.315 95.0196H97.5976V96.8135C97.5976 97.4115 97.6828 97.4969 98.166 97.4969H99.6439C100.127 97.4969 100.241 97.2976 100.326 95.9308C100.752 96.2155 101.605 96.5288 102.315 96.7281V95.0196Z" fill="white"/>
<path d="M81.625 128.05H92.4534V140.721H89.0713V139.44H84.8366V140.864H81.625V128.05ZM84.8366 131.296V136.194H89.0713V131.296H84.8366ZM102.202 125.687H85.5471V115.379H102.202V125.687ZM98.7629 118.625H88.8155V122.469H98.7629V118.625ZM106.039 128.05V140.75H102.628V139.44H98.1092V140.864H94.8692V128.05H106.039ZM102.628 136.194V131.296H98.1092V136.194H102.628Z" fill="white"/>
<path d="M95.239 143.768C98.3085 148.267 102.97 152.14 107.517 154.104C106.664 154.987 105.897 156.098 105.243 157.151C100.838 154.702 96.0917 150.602 93.6475 147.1C91.3454 150.573 86.9685 154.531 82.279 157.18C81.8527 156.411 80.8864 155.158 80.1475 154.446C85.0643 151.912 89.6401 147.384 91.7717 143.768H95.239ZM95.7222 166.633H105.897V169.708H81.7106V166.633H84.8085V156.752H88.1338V166.633H92.1696V151.855H95.7222V157.948H103.339V160.938H95.7222V166.633Z" fill="white"/>
<path d="M106.522 175.204V178.365H95.3808V180.643H100.553V193.542H87.025V180.643H91.9986V178.365H81.085V175.204H106.522ZM102.401 180.244H105.669V200.062H102.401V198.411H85.2344V200.091H81.9376V180.244H85.2344V195.222H102.401V180.244ZM89.7818 185.797H92.2544V183.405H89.7818V185.797ZM89.7818 190.78H92.2544V188.359H89.7818V190.78ZM97.626 183.405H95.1534V185.797H97.626V183.405ZM97.626 188.359H95.1534V190.78H97.626V188.359Z" fill="white"/>
<path d="M344.35 104.075C342.9 105.043 341.166 105.982 339.66 106.694C341.365 107.606 343.412 108.232 345.827 108.602C345.174 109.257 344.378 110.481 343.98 111.307C338.068 110.168 334.516 107.492 332.384 102.964C331.389 103.705 330.253 104.388 329.031 104.986V107.463C330.878 107.235 332.811 106.979 334.715 106.723L334.828 109.371C330.821 109.94 326.586 110.51 323.46 110.966L322.977 108.204C323.801 108.118 324.767 108.004 325.791 107.89V106.296C324.284 106.808 322.693 107.207 321.101 107.492C320.703 106.78 319.907 105.669 319.311 105.043C322.437 104.616 325.648 103.79 328.093 102.651H319.794V99.9744H330.85V98.5221H329.713C329.571 97.8672 329.173 97.0984 328.888 96.5574C329.542 96.5859 330.224 96.5859 330.423 96.5859C330.679 96.5859 330.764 96.5005 330.764 96.2727V95.1052H328.434V99.2625H325.563V95.1052H323.432V98.636H320.874V93.055H325.563V92.0584H319.737V89.7805H321.471C320.902 89.4388 320.163 89.0116 319.708 88.7838C320.646 87.7018 321.442 86.1642 321.925 84.6835L324.398 85.3099C324.256 85.7086 324.114 86.0788 323.943 86.4774H325.563V84.655H328.434V86.4774H333.152V88.6415H328.434V89.7805H333.919V92.0584H328.434V93.055H333.464V96.2727C333.464 97.3547 333.265 97.8672 332.526 98.2089C332.157 98.3798 331.702 98.4652 331.191 98.4937H334.203V99.9744H345.287V102.651H342.445L344.35 104.075ZM325.563 89.7805V88.6415H322.863C322.636 89.0401 322.408 89.4388 322.153 89.7805H325.563ZM338.097 95.276H335.084V85.794H338.097V95.276ZM335.368 102.651C335.908 103.562 336.591 104.388 337.386 105.1C338.722 104.416 340.285 103.477 341.422 102.651H335.368ZM344.264 96.2442C344.264 97.6964 343.98 98.4082 342.957 98.8354C341.962 99.2625 340.569 99.291 338.608 99.291C338.466 98.4937 338.012 97.3547 337.614 96.6144C338.893 96.6713 340.257 96.6713 340.655 96.6428C341.081 96.6428 341.195 96.5289 341.195 96.1588V84.8544H344.264V96.2442Z" fill="white"/>
<path d="M320.362 128.05H331.191V140.722H327.809V139.44H323.574V140.864H320.362V128.05ZM323.574 131.296V136.194H327.809V131.296H323.574ZM340.939 125.687H324.284V115.379H340.939V125.687ZM337.5 118.625H327.553V122.469H337.5V118.625ZM344.776 128.05V140.75H341.365V139.44H336.847V140.864H333.607V128.05H344.776ZM341.365 136.194V131.296H336.847V136.194H341.365Z" fill="white"/>
<path d="M330.367 151.257H319.254V148.58H330.367V151.257ZM344.549 156.781C343.639 160.227 342.133 162.932 340.172 165.067C341.849 166.149 343.838 166.975 346.027 167.516C345.288 168.228 344.321 169.566 343.838 170.449C341.451 169.737 339.376 168.684 337.585 167.345C335.681 168.684 333.493 169.709 331.077 170.449C330.736 169.623 329.94 168.285 329.315 167.516V168.968H323.375V170.079H320.504V160.369H329.315V167.459C331.447 166.918 333.379 166.121 335.056 165.01C333.749 163.587 332.669 161.935 331.788 160.084L334.687 159.145H330.736V156.098H331.702C331.219 155.528 330.025 154.503 329.343 154.048V155.13H320.59V152.538H329.343V153.905C331.788 152.225 332.1 149.976 332.1 148.068V144.679H341.621V151.058C341.621 151.855 341.678 151.94 341.991 151.94H342.701C343.071 151.94 343.184 151.57 343.213 149.093C343.838 149.577 345.145 150.061 345.97 150.289C345.685 153.82 344.947 154.816 343.042 154.816H341.394C339.12 154.816 338.467 153.934 338.467 151.115V147.669H335.283V148.153C335.283 150.83 334.715 154.076 331.759 156.098H341.763L342.332 155.955L344.549 156.781ZM329.343 158.974H320.59V156.439H329.343V158.974ZM329.287 147.328H320.703V144.765H329.287V147.328ZM326.388 163.046H323.375V166.32H326.388V163.046ZM334.772 159.145C335.454 160.568 336.392 161.85 337.529 162.989C338.637 161.878 339.518 160.597 340.2 159.145H334.772Z" fill="white"/>
<path d="M330.878 180.871H319.254V178.194H330.878V180.871ZM329.656 198.582H323.46V199.692H320.533V189.983H329.656V198.582ZM320.618 182.152H329.741V184.743H320.618V182.152ZM320.618 186.053H329.741V188.587H320.618V186.053ZM329.798 176.941H320.789V174.378H329.798V176.941ZM323.46 192.659V195.934H326.7V192.659H323.46ZM346.055 186.366H340.115V200.091H336.704V186.366H330.764V183.006H336.704V173.61H340.115V183.006H346.055V186.366Z" fill="white"/>
<path d="M568.279 121.643H557.99V118.967H568.279V121.643ZM567.568 139.354H561.969V140.465H559.184V130.755H567.568V139.354ZM559.269 122.925H567.625V125.516H559.269V122.925ZM559.269 126.826H567.625V129.36H559.269V126.826ZM567.454 117.714H559.354V115.151H567.454V117.714ZM561.969 133.432V136.706H564.754V133.432H561.969ZM577.061 134.628L577.288 137.418C574.361 138.073 571.263 138.728 568.819 139.241L568.137 136.137C568.989 136.023 569.984 135.852 571.064 135.681V128.705H568.677V125.801H576.407V128.705H574.19V135.14L577.061 134.628ZM580.045 122.725C580.244 130.869 580.898 136.592 581.978 136.678C582.347 136.678 582.574 135.368 582.688 133.232C583.2 133.973 584.536 134.912 585.047 135.254C584.308 139.896 582.887 140.892 581.835 140.864C578.311 140.778 577.26 134.058 576.919 122.725H568.705V119.65H576.833C576.805 117.942 576.777 116.176 576.777 114.297H580.017V115.721L582.29 114.553C583.2 115.607 584.251 117.059 584.734 118.027L582.29 119.394C581.864 118.426 580.898 116.917 580.017 115.806C579.988 117.116 579.988 118.397 580.017 119.65H584.223V122.725H580.045Z" fill="white"/>
<path d="M567.511 145.021C566.772 147.014 565.834 149.036 564.783 150.944V170.449H561.372V156.211C560.775 156.923 560.179 157.635 559.61 158.262C559.297 157.436 558.331 155.5 557.734 154.645C560.321 152.083 562.793 148.039 564.214 143.996L567.511 145.021ZM576.521 151.741V154.731H583.882V157.806H576.521V161.024H584.251V164.156H576.521V170.477H573.053V151.741H571.973C570.836 153.848 569.529 155.784 568.25 157.265C567.71 156.639 566.374 155.443 565.664 154.902C568.165 152.339 570.41 148.239 571.689 144.167L574.958 144.992C574.56 146.188 574.105 147.356 573.565 148.523H584.592V151.741H576.521Z" fill="white"/>
<path d="M807.84 54.728H796.728V52.0514H807.84V54.728ZM806.789 72.4392H800.849V73.5497H797.978V63.8399H806.789V72.4392ZM798.063 56.0094H806.817V58.6006H798.063V56.0094ZM798.063 59.9104H806.817V62.4447H798.063V59.9104ZM806.76 50.7986H798.177V48.2358H806.76V50.7986ZM800.849 66.5165V69.7911H803.861V66.5165H800.849ZM823.273 64.267H816.992V73.9199H813.667V64.267H807.385V61.0494H813.667V51.9091H808.38V48.7484H822.761V51.9091H816.992V61.0494H823.273V64.267ZM811.336 53.0765C811.961 55.1836 812.501 57.8602 812.615 59.6257L809.773 60.3091C809.688 58.5152 809.204 55.7816 808.608 53.646L811.336 53.0765ZM817.844 59.5972C818.47 57.7748 819.123 54.8989 819.408 52.8487L822.619 53.4752C821.909 55.867 821.141 58.5436 820.431 60.2521L817.844 59.5972Z" fill="white"/>
<path d="M805.424 77.9918C804.714 79.8711 803.833 81.7789 802.866 83.6013V103.534H799.683V88.6698C799.115 89.4386 798.546 90.1505 797.95 90.7769C797.637 89.9796 796.756 88.1857 796.216 87.36C798.66 84.8827 800.991 80.9532 802.383 77.0237L805.424 77.9918ZM817.901 82.7755V86.3349H822.704V102.765H819.464V101.313H808.21V102.936H805.083V86.3349H809.659V82.7755H804.799V79.7572H822.846V82.7755H817.901ZM808.21 98.4081H809.972V89.2678H808.21V98.4081ZM812.814 89.2678V98.4081H814.718V89.2678H812.814ZM814.718 82.7755H812.842V86.3349H814.718V82.7755ZM819.464 89.2678H817.56V98.4081H819.464V89.2678Z" fill="white"/>
<path d="M810 109.115C811.99 109.115 813.638 110.766 813.638 112.759C813.638 114.752 811.99 116.404 810 116.404C808.011 116.404 806.362 114.752 806.362 112.759C806.362 110.766 808.011 109.115 810 109.115Z" fill="white"/>
<path d="M823.244 147.441H812.416V148.552H809.232V136.137C809.034 136.279 808.834 136.45 808.636 136.592C808.294 136.165 807.584 135.311 806.959 134.656V145.135H801.815V147.356H799.086V140.152C798.773 140.693 798.432 141.234 798.063 141.718C797.75 140.949 796.869 139.241 796.272 138.5C798.262 135.653 799.342 131.353 799.996 126.712H797.239V123.637H807.413V124.605H813.183C813.467 123.75 813.723 122.868 813.922 121.957L817.105 122.526C816.935 123.238 816.736 123.921 816.537 124.605H823.102V129.787H820.118V127.452H815.485C814.973 128.733 814.348 129.901 813.694 131.011H815.968C816.366 130.043 816.764 128.99 816.963 128.136L820.032 128.79C819.691 129.559 819.322 130.3 818.952 131.011H822.59V133.802H818.299V135.71H821.965V138.187H818.299V140.209H821.965V142.658H818.299V144.679H823.244V147.441ZM804.117 134.884H801.815V142.202H804.117V134.884ZM806.959 133.631C809.062 132.065 810.767 129.958 812.018 127.452H810.028V129.787H807.158V126.712H803.15C802.895 128.506 802.553 130.271 802.156 131.98H806.959V133.631ZM815.201 133.802H812.416V135.71H815.201V133.802ZM815.201 138.187H812.416V140.209H815.201V138.187ZM812.416 144.679H815.201V142.658H812.416V144.679Z" fill="white"/>
<path d="M807.044 158.945H796.728V156.268H807.044V158.945ZM806.306 174.919C807.357 173.496 807.869 171.246 808.124 169.054L810.796 169.737C810.512 172.271 810 174.976 808.608 176.656L806.306 175.261V176.656H800.707V177.767H797.921V168.057H806.306V174.919ZM806.277 162.818H798.007V160.226H806.277V162.818ZM798.007 164.127H806.277V166.662H798.007V164.127ZM806.192 155.016H798.092V152.453H806.192V155.016ZM803.492 170.734H800.707V174.008H803.492V170.734ZM809.46 156.354C810.313 156.61 811.222 156.952 812.132 157.294C812.302 156.696 812.444 156.098 812.558 155.5H808.295V152.681H822.392C822.392 152.681 822.392 153.535 822.363 153.934C822.079 160.369 821.795 163.017 821.028 163.928C820.488 164.64 819.948 164.896 819.152 165.01C818.47 165.124 817.304 165.153 816.082 165.124C816.026 164.213 815.713 162.96 815.286 162.163C814.803 161.849 814.292 161.536 813.723 161.223C812.7 163.045 811.165 164.64 808.835 165.864C808.494 165.124 807.613 164.014 806.931 163.473C808.892 162.533 810.171 161.28 811.023 159.885C809.972 159.429 808.892 159.002 807.897 158.689L809.46 156.354ZM816.196 175.033C816.736 175.033 816.85 174.663 816.935 172.043C817.503 172.556 818.839 173.04 819.692 173.268C819.379 176.998 818.555 177.938 816.537 177.938H814.207C811.535 177.938 810.995 176.998 810.995 174.179V167.943H814.121V174.151C814.121 174.919 814.178 175.033 814.69 175.033H816.196ZM813.581 164.014C815.4 164.953 817.589 166.405 818.669 167.63L816.565 169.794C815.599 168.626 813.439 167.032 811.62 165.978L813.581 164.014ZM815.599 155.5C815.429 156.525 815.201 157.55 814.889 158.546C815.883 159.031 816.793 159.515 817.475 159.97L816.111 162.163C816.708 162.191 817.191 162.191 817.475 162.191C817.873 162.22 818.129 162.134 818.328 161.821C818.725 161.394 818.953 159.714 819.152 155.5H815.599ZM820.601 168.399C822.108 170.563 823.301 173.467 823.699 175.432L820.715 176.656C820.431 174.692 819.265 171.673 817.873 169.481L820.601 168.399Z" fill="white"/>
<path d="M807.016 188.559H796.728V185.882H807.016V188.559ZM806.306 206.27H800.707V207.38H797.921V197.67H806.306V206.27ZM798.007 189.84H806.362V192.431H798.007V189.84ZM798.007 193.741H806.362V196.275H798.007V193.741ZM806.192 184.629H798.092V182.066H806.192V184.629ZM800.707 200.347V203.622H803.492V200.347H800.707ZM815.798 201.543L816.025 204.334C813.098 204.988 810 205.643 807.556 206.156L806.874 203.052C807.727 202.938 808.721 202.767 809.801 202.597V195.62H807.414V192.716H815.144V195.62H812.928V202.056L815.798 201.543ZM818.782 189.641C818.981 197.784 819.635 203.508 820.715 203.593C821.084 203.593 821.312 202.283 821.425 200.148C821.937 200.888 823.273 201.828 823.784 202.169C823.045 206.811 821.624 207.807 820.573 207.779C817.049 207.694 815.997 200.974 815.656 189.641H807.442V186.565H815.571C815.542 184.857 815.514 183.091 815.514 181.212H818.754V182.636L821.028 181.468C821.937 182.522 822.989 183.974 823.472 184.942L821.028 186.309C820.601 185.341 819.635 183.832 818.754 182.721C818.725 184.031 818.725 185.312 818.754 186.565H822.96V189.641H818.782Z" fill="white"/>
<path d="M796.415 234.858C797.381 233.406 797.722 231.014 797.836 228.594L799.712 228.964C799.57 231.555 799.286 234.203 798.12 235.798L796.415 234.858ZM818.271 229.448C819.408 231.754 821.198 233.662 823.586 234.687C822.903 235.314 821.937 236.51 821.454 237.364C819.095 236.14 817.361 234.004 816.139 231.356C815.116 233.662 813.212 235.798 809.83 237.449C809.489 236.88 808.778 236.026 808.181 235.456C808.068 235.826 807.954 236.083 807.812 236.253C807.329 236.908 806.817 237.165 806.107 237.25C805.538 237.364 804.629 237.392 803.606 237.336C803.577 236.538 803.321 235.428 802.923 234.716C803.662 234.801 804.288 234.83 804.657 234.83C804.998 234.83 805.197 234.744 805.425 234.46C805.623 234.175 805.766 233.463 805.908 231.982L804.998 232.324C804.828 231.327 804.259 229.79 803.719 228.651L805.055 228.195C805.425 228.907 805.766 229.733 806.021 230.502C806.078 229.647 806.135 228.594 806.192 227.369H798.063V211.851H808.522V214.584H805.481V216.15H807.954V217.66C810.512 216.122 812.984 213.189 814.15 210.826H817.049C818.754 213.445 821.227 216.037 823.728 217.232C823.131 218.03 822.477 219.254 822.051 220.137C821.426 219.767 820.8 219.34 820.203 218.827V220.393H817.361V221.931H822.449V229.448H818.271ZM801.417 229.049C801.673 230.701 801.787 232.893 801.701 234.26L800.167 234.46C800.252 233.036 800.167 230.872 799.968 229.192L801.417 229.049ZM800.849 214.584V216.15H802.781V214.584H800.849ZM800.849 218.713V220.422H802.781V218.713H800.849ZM800.849 224.75H802.781V222.984H800.849V224.75ZM803.321 228.765C803.776 230.245 804.174 232.125 804.259 233.349L802.781 233.662C802.724 232.438 802.355 230.53 801.9 229.049L803.321 228.765ZM809.062 224.75C809.062 224.75 809.062 225.49 809.034 225.86C808.835 230.559 808.665 233.292 808.352 234.801C811.279 233.321 812.814 231.441 813.581 229.448H809.546V221.931H814.377V220.393H811.478V218.856C810.768 219.453 810.057 220.023 809.29 220.479C808.977 219.738 808.437 218.742 807.954 218.03V218.713H805.481V220.422H807.954V222.984H805.481V224.75H809.062ZM814.207 226.999C814.349 226.145 814.377 225.291 814.377 224.465V224.38H812.302V226.999H814.207ZM819.038 217.802C817.702 216.549 816.509 215.068 815.713 213.759C814.974 215.04 813.866 216.492 812.587 217.802H819.038ZM817.361 224.38V224.493C817.361 225.319 817.333 226.145 817.248 226.999H819.578V224.38H817.361Z" fill="white"/>
<path d="M1061.58 77.5078V80.8393H1036.03V77.5078H1047V71.7844H1039.3V68.5098H1047V63.4983H1041.12C1040.3 65.0644 1039.41 66.5166 1038.48 67.6271C1037.79 67.0861 1036.29 66.061 1035.44 65.6054C1037.65 63.2136 1039.5 59.2841 1040.47 55.4115L1043.96 56.1803C1043.56 57.5471 1043.11 58.8854 1042.63 60.1952H1047V55.0698H1050.56V60.1952H1060.13V63.4983H1050.56V68.5098H1059.05V71.7844H1050.56V77.5078H1061.58Z" fill="white"/>
<path d="M1061.58 92.6277V95.5321H1040.98V97.2406C1040.98 101.227 1040.47 107.264 1037.79 111.165C1037.28 110.567 1035.86 109.399 1035.18 109.029C1037.51 105.555 1037.74 100.601 1037.74 97.2121V92.6277H1042.88C1042.65 91.745 1042.26 90.6629 1041.8 89.7802L1042.43 89.6094H1037.51V86.7334H1047.12V84.6548H1050.5V86.7334H1060.19V89.6094H1056.67C1056.01 90.6914 1055.39 91.7734 1054.85 92.6277H1061.58ZM1052.97 107.89H1061.41V110.681H1041.49V107.89H1049.65V105.384H1043.71V102.822L1043.51 103.021C1042.88 102.508 1041.6 101.74 1040.84 101.398C1042.4 100.031 1043.71 97.9239 1044.42 95.8453L1047.4 96.5287C1047.23 97.0412 1047 97.5538 1046.78 98.0663H1049.65V95.9592H1052.97V98.0663H1059.88V100.657H1052.97V102.793H1059.05V105.384H1052.97V107.89ZM1049.65 102.793V100.657H1045.35C1044.84 101.455 1044.27 102.195 1043.73 102.793H1049.65ZM1045.24 89.6094C1045.72 90.549 1046.12 91.6311 1046.29 92.3999L1045.44 92.6277H1052.12L1051.61 92.4853C1051.98 91.6595 1052.35 90.5775 1052.63 89.6094H1045.24Z" fill="white"/>
<path d="M1061.73 135.482V138.899H1035.89V135.482H1046.72V120.761H1037.43V117.23H1060.13V120.761H1050.58V135.482H1061.73Z" fill="white"/>
<path d="M1044.81 162.22C1044.47 161.479 1043.79 160.369 1043.11 159.344V170.449H1039.84V160.226C1038.93 162.419 1037.85 164.441 1036.74 165.864C1036.43 164.896 1035.72 163.501 1035.18 162.647C1036.77 160.796 1038.33 157.778 1039.39 155.016H1035.78V151.855H1039.84V148.552C1038.65 148.78 1037.48 148.979 1036.37 149.121C1036.2 148.353 1035.8 147.214 1035.44 146.53C1038.56 145.989 1042.06 145.163 1044.25 144.167L1046.49 146.758C1045.47 147.157 1044.33 147.527 1043.11 147.84V151.855H1046.15V155.016H1043.11V155.841C1043.88 156.468 1046.21 158.945 1046.75 159.571L1044.81 162.22ZM1061.98 166.889V169.851H1045.55V166.889H1052.32V164.384H1047.34V161.536H1052.32V159.173H1046.66V156.268H1061.38V159.173H1055.67V161.536H1060.7V164.384H1055.67V166.889H1061.98ZM1060.62 154.56H1047.57V144.936H1060.62V154.56ZM1057.32 147.783H1050.7V151.713H1057.32V147.783Z" fill="white"/>
<path d="M1046.58 180.871H1035.46V178.194H1046.58V180.871ZM1060.76 186.395C1059.85 189.84 1058.34 192.545 1056.38 194.681C1058.06 195.763 1060.05 196.589 1062.24 197.13C1061.5 197.841 1060.53 199.18 1060.05 200.062C1057.66 199.351 1055.59 198.297 1053.8 196.959C1051.89 198.297 1049.7 199.322 1047.29 200.062C1046.95 199.237 1046.15 197.898 1045.52 197.13V198.582H1039.58V199.692H1036.71V189.982H1045.52V197.073C1047.66 196.532 1049.59 195.734 1051.27 194.624C1049.96 193.2 1048.88 191.549 1048 189.698L1050.9 188.758H1046.95V185.711H1047.91C1047.43 185.142 1046.24 184.117 1045.55 183.661V184.743H1036.8V182.152H1045.55V183.519C1048 181.839 1048.31 179.589 1048.31 177.681V174.293H1057.83V180.671C1057.83 181.469 1057.89 181.554 1058.2 181.554H1058.91C1059.28 181.554 1059.39 181.184 1059.42 178.707C1060.05 179.191 1061.36 179.675 1062.18 179.902C1061.9 183.433 1061.16 184.43 1059.25 184.43H1057.6C1055.33 184.43 1054.68 183.547 1054.68 180.728V177.283H1051.49V177.767C1051.49 180.443 1050.92 183.69 1047.97 185.711H1057.97L1058.54 185.569L1060.76 186.395ZM1045.55 188.587H1036.8V186.053H1045.55V188.587ZM1045.5 176.941H1036.91V174.378H1045.5V176.941ZM1042.6 192.659H1039.58V195.934H1042.6V192.659ZM1050.98 188.758C1051.66 190.182 1052.6 191.463 1053.74 192.602C1054.85 191.492 1055.73 190.21 1056.41 188.758H1050.98Z" fill="white"/>
<path d="M1047.09 210.484H1035.46V207.808H1047.09V210.484ZM1045.87 228.195H1039.67V229.306H1036.74V219.596H1045.87V228.195ZM1036.83 211.766H1045.95V214.357H1036.83V211.766ZM1036.83 215.667H1045.95V218.201H1036.83V215.667ZM1046.01 206.555H1037V203.992H1046.01V206.555ZM1039.67 222.273V225.547H1042.91V222.273H1039.67ZM1062.26 215.98H1056.32V229.704H1052.91V215.98H1046.97V212.62H1052.91V203.223H1056.32V212.62H1062.26V215.98Z" fill="white"/>
<path d="M1300.32 136.735V140.066H1274.77V136.735H1285.74V131.011H1278.04V127.737H1285.74V122.725H1279.86C1279.03 124.291 1278.15 125.744 1277.21 126.854C1276.53 126.313 1275.03 125.288 1274.17 124.832C1276.39 122.441 1278.24 118.511 1279.2 114.639L1282.7 115.407C1282.3 116.774 1281.85 118.112 1281.36 119.422H1285.74V114.297H1289.29V119.422H1298.87V122.725H1289.29V127.737H1297.79V131.011H1289.29V136.735H1300.32Z" fill="black"/>
<path d="M1300.32 151.855V154.759H1279.71V156.468C1279.71 160.454 1279.2 166.491 1276.53 170.392C1276.02 169.794 1274.6 168.626 1273.92 168.256C1276.25 164.782 1276.47 159.828 1276.47 156.439V151.855H1281.62C1281.39 150.972 1280.99 149.89 1280.54 149.008L1281.16 148.837H1276.25V145.961H1285.85V143.882H1289.24V145.961H1298.93V148.837H1295.4C1294.75 149.919 1294.12 151.001 1293.58 151.855H1300.32ZM1291.71 167.117H1300.15V169.908H1280.23V167.117H1288.38V164.612H1282.44V162.049L1282.24 162.248C1281.62 161.736 1280.34 160.967 1279.57 160.625C1281.14 159.258 1282.44 157.151 1283.15 155.073L1286.14 155.756C1285.97 156.269 1285.74 156.781 1285.51 157.294H1288.38V155.186H1291.71V157.294H1298.61V159.885H1291.71V162.02H1297.79V164.612H1291.71V167.117ZM1288.38 162.02V159.885H1284.09C1283.58 160.682 1283.01 161.422 1282.47 162.02H1288.38ZM1283.98 148.837C1284.46 149.776 1284.86 150.858 1285.03 151.627L1284.18 151.855H1290.86L1290.34 151.713C1290.71 150.887 1291.08 149.805 1291.37 148.837H1283.98Z" fill="black"/>
<path d="M1527.89 121.159V124.149H1536.84V133.774C1536.84 135.397 1536.5 136.365 1535.33 136.877C1534.14 137.39 1532.52 137.447 1530.3 137.447C1530.16 136.479 1529.65 135.026 1529.17 134.115C1530.59 134.172 1532.26 134.172 1532.72 134.172C1533.17 134.172 1533.32 134.03 1533.32 133.717V127.452H1527.89V140.892H1524.36V127.452H1519.39V137.447H1515.98V124.149H1524.36V121.159H1513.31V117.856H1524.34V114.155H1527.94V117.856H1539.23V121.159H1527.89Z" fill="black"/>
<path d="M1528.17 158.148C1527.94 158.603 1527.66 159.059 1527.38 159.514H1538.92C1538.92 159.514 1538.89 160.283 1538.86 160.682C1538.46 166.234 1538.01 168.512 1537.24 169.338C1536.7 169.993 1536.07 170.221 1535.36 170.306C1534.71 170.392 1533.63 170.42 1532.49 170.363C1532.44 169.566 1532.15 168.427 1531.72 167.715C1532.63 167.801 1533.37 167.801 1533.74 167.801C1534.14 167.801 1534.37 167.744 1534.6 167.487C1534.99 167.06 1535.33 165.608 1535.65 162.163H1534.54C1533.37 165.352 1531.16 168.797 1528.85 170.591C1528.29 169.936 1527.32 169.167 1526.47 168.712C1528.63 167.345 1530.53 164.811 1531.75 162.163H1530.08C1528.54 164.896 1525.9 167.744 1523.43 169.31C1522.89 168.655 1522 167.801 1521.21 167.317C1523.31 166.263 1525.5 164.27 1527.01 162.163H1525.3C1524.28 163.245 1523.17 164.213 1522 164.953C1521.58 164.412 1520.5 163.415 1519.79 162.96C1517.74 163.985 1515.7 165.01 1513.96 165.864L1512.71 162.447C1513.68 162.077 1514.87 161.593 1516.21 161.052V153.022H1513.36V149.833H1516.21V144.224H1519.33V149.833H1522V153.022H1519.33V159.742L1521.61 158.746L1522.2 161.166C1523.23 160.283 1524.11 159.258 1524.82 158.148H1521.61V155.3H1539.48V158.148H1528.17ZM1537.55 154.218H1524.11V144.594H1537.55V154.218ZM1534.42 146.929H1527.09V148.295H1534.42V146.929ZM1534.42 150.517H1527.09V151.883H1534.42V150.517Z" fill="black"/>
<path opacity="0.2" d="M5.68457 91.1186V5.69482H90.9477" fill="white"/>
<path opacity="0.2" d="M244.421 91.1186V5.69482H329.684" fill="white"/>
<path opacity="0.2" d="M483.158 91.1186V5.69482H568.421" fill="white"/>
<path opacity="0.2" d="M721.895 91.1186V5.69482H807.158" fill="white"/>
<path opacity="0.2" d="M960.632 91.1186V5.69482H1045.89" fill="white"/>
<path opacity="0.6" d="M1199.37 91.1186V5.69482H1284.63" fill="white"/>
<path opacity="0.6" d="M1438.11 91.1186V5.69482H1523.37" fill="white"/>
<path d="M27.4971 21.9255H32.4992V40.6903H29.515V24.8015H27.4971V21.9255Z" fill="white"/>
<path d="M263.633 40.6901C264.813 39.4941 265.95 38.3409 267.058 37.2162C268.166 36.0914 269.161 35.0094 270.028 33.9558C270.895 32.9023 271.591 31.8772 272.103 30.8663C272.614 29.8555 272.87 28.8873 272.87 27.9619C272.87 27.1789 272.714 26.5382 272.387 26.0399C272.06 25.5416 271.648 25.1714 271.122 24.9294C270.596 24.6873 270.042 24.5734 269.46 24.5734C268.664 24.5734 268.024 24.7301 267.541 25.0575C267.058 25.385 266.703 25.7694 266.475 26.2392C266.248 26.709 266.134 27.1504 266.134 27.5917C266.134 28.8304 266.504 29.8128 267.243 30.5531L265.395 32.2331C264.941 31.9484 264.557 31.5355 264.23 30.9945C263.903 30.4534 263.662 29.884 263.491 29.286C263.321 28.688 263.235 28.147 263.235 27.6772C263.235 26.6378 263.491 25.6555 264.003 24.7585C264.514 23.8616 265.267 23.1212 266.276 22.5517C267.285 21.9823 268.507 21.6975 269.943 21.6975C271.151 21.6975 272.202 21.9823 273.097 22.5375C273.993 23.0928 274.689 23.8331 275.186 24.7443C275.684 25.6555 275.94 26.6521 275.94 27.7341C275.94 28.9301 275.655 30.0833 275.073 31.208C274.49 32.3328 273.765 33.4433 272.87 34.5395C271.975 35.6358 271.065 36.7321 270.113 37.8141H276.508V40.6901H263.633Z" fill="white"/>
<path d="M514.193 21.9255L510.016 28.8449C510.854 28.9018 511.636 29.1296 512.36 29.514C513.085 29.8984 513.682 30.4964 514.122 31.3079C514.563 32.1194 514.79 33.1588 514.79 34.4544C514.79 35.7499 514.492 36.9316 513.881 37.8998C513.27 38.8679 512.474 39.6082 511.465 40.135C510.456 40.6618 509.348 40.9181 508.14 40.9181C507.23 40.9181 506.321 40.733 505.397 40.3486C504.473 39.9642 503.72 39.4801 503.138 38.8679L504.644 36.4191C504.985 36.832 505.468 37.2164 506.094 37.5438C506.719 37.8713 507.387 38.0421 508.083 38.0421C509.063 38.0421 509.916 37.7005 510.641 37.0313C511.366 36.3621 511.721 35.4367 511.721 34.2835C511.721 33.2442 511.422 32.4184 510.811 31.8062C510.2 31.194 509.376 30.895 508.31 30.895C507.756 30.895 507.301 30.9377 506.946 31.0089C506.591 31.0801 506.25 31.1798 505.951 31.2937L505.838 31.1798L509.845 24.8015H504.303V21.9255H514.193Z" fill="white"/>
<path d="M741.051 36.2195V36.1911L752.561 21.6975H752.59V33.9416H755.006V36.2195H752.59V40.6901H749.606V36.2195H741.051ZM749.606 28.6168L745.513 33.9416H749.606V28.6168Z" fill="white"/>
<path d="M987.092 40.9181C986.083 40.9181 985.116 40.733 984.164 40.3486C983.212 39.9642 982.459 39.5086 981.891 38.9533L983.454 36.6184C983.837 37.0313 984.335 37.3872 984.974 37.6577C985.614 37.9283 986.239 38.0706 986.864 38.0706C987.845 38.0706 988.655 37.7574 989.294 37.1167C989.934 36.476 990.246 35.6503 990.246 34.6252C990.246 33.5432 989.948 32.6462 989.351 31.9344C988.754 31.2225 987.873 30.8666 986.694 30.8666C986.054 30.8666 985.443 30.952 984.889 31.1371C984.335 31.3221 983.738 31.5927 983.113 31.9486H983.084V21.9255H992.094V24.8015H985.671V28.5601C986.239 28.432 986.822 28.3608 987.404 28.3608C988.697 28.3608 989.777 28.6455 990.658 29.215C991.54 29.7845 992.207 30.5391 992.648 31.4645C993.089 32.3899 993.316 33.415 993.316 34.5398C993.316 35.7357 993.046 36.8177 992.506 37.7859C991.966 38.754 991.227 39.5228 990.289 40.0781C989.351 40.6333 988.285 40.9181 987.092 40.9181Z" fill="white"/>
<path d="M1226.85 40.9179C1225.59 40.9179 1224.44 40.619 1223.4 40.0068C1222.36 39.3945 1221.55 38.5261 1220.94 37.4013C1220.33 36.2766 1220.03 34.924 1220.03 33.3437C1220.03 32.1335 1220.27 30.9661 1220.74 29.8698C1221.21 28.7735 1221.85 27.7342 1222.66 26.7661C1223.47 25.7979 1224.38 24.8868 1225.4 24.0468C1226.43 23.2068 1227.49 22.4237 1228.59 21.7261L1230.57 23.8901C1228.83 24.7301 1227.42 25.6983 1226.34 26.7945C1225.26 27.8908 1224.48 28.9871 1223.98 30.0691C1224.45 29.5993 1225 29.2291 1225.64 28.9871C1226.28 28.7451 1227.01 28.6169 1227.85 28.6169C1228.81 28.6169 1229.72 28.8732 1230.57 29.3857C1231.43 29.8983 1232.12 30.6101 1232.65 31.5071C1233.18 32.404 1233.45 33.4434 1233.45 34.5966C1233.45 35.8922 1233.13 37.0027 1232.51 37.9566C1231.88 38.9105 1231.07 39.6366 1230.08 40.1491C1229.08 40.6617 1228 40.9179 1226.85 40.9179ZM1226.74 38.2413C1227.75 38.2413 1228.6 37.9139 1229.31 37.259C1230.02 36.604 1230.38 35.7213 1230.38 34.6251C1230.38 33.5288 1230.02 32.7173 1229.31 32.0766C1228.6 31.4359 1227.75 31.1227 1226.74 31.1227C1226.06 31.1227 1225.44 31.2651 1224.89 31.5356C1224.34 31.8061 1223.91 32.1905 1223.58 32.6603C1223.26 33.1301 1223.1 33.6569 1223.1 34.2264V34.7674C1223.1 35.3796 1223.26 35.9491 1223.58 36.4759C1223.91 37.0027 1224.34 37.4298 1224.89 37.7573C1225.44 38.0847 1226.06 38.2413 1226.74 38.2413Z" fill="black"/>
<path d="M1472.25 21.9255L1464.83 40.6903H1461.48L1467.9 24.8015H1459.92V21.9255H1472.25Z" fill="black"/>
<path d="M141.139 439.847C140.144 442.637 138.61 446.41 136.464 449.172C134.133 452.119 130.481 454.938 126.815 456.476L125.024 454.611C128.833 453.272 132.371 450.71 134.702 447.82C137.075 444.844 138.794 440.644 139.519 436.957L141.978 437.626C141.665 438.323 141.367 439.22 141.153 439.861L141.139 439.847Z" fill="black"/>
<path d="M165.595 437.555C163.833 439.349 161.375 441.456 158.732 443.121V454.098C158.732 455.067 158.788 456.334 158.888 456.846H156.387C156.458 456.362 156.543 455.081 156.543 454.098V444.403C153.801 445.912 150.276 447.407 146.923 448.403L145.743 446.41C150.021 445.414 154.369 443.463 157.183 441.698C159.797 440.089 162.483 437.854 163.918 436.031L165.609 437.569L165.595 437.555Z" fill="black"/>
<path d="M186.471 439.349C186.314 439.548 185.988 440.117 185.831 440.445C184.964 442.68 183.344 445.67 181.525 447.976C184.211 450.283 187.338 453.614 189 455.622L187.21 457.188C185.49 454.91 182.79 451.906 180.175 449.542C177.433 452.518 173.98 455.309 170.2 457.031L168.565 455.337C172.686 453.728 176.466 450.667 179.11 447.72C180.843 445.741 182.719 442.694 183.359 440.573H173.383C172.488 440.573 171.081 440.673 170.796 440.701V438.395C171.152 438.452 172.615 438.551 173.383 438.551H183.259C184.098 438.551 184.765 438.48 185.178 438.352L186.485 439.349H186.471ZM186.57 439.306C186.059 438.281 185.22 436.772 184.524 435.775L185.874 435.191C186.513 436.145 187.465 437.697 187.949 438.708L186.57 439.32V439.306ZM188.773 434.28C189.469 435.234 190.435 436.814 190.919 437.768L189.54 438.38C188.972 437.284 188.133 435.818 187.437 434.864L188.773 434.28Z" fill="black"/>
<path d="M216.143 438.309H213.002V455.28C213.002 456.661 212.675 457.33 211.695 457.615C210.672 457.971 208.91 457.971 206.394 457.971C206.266 457.43 205.883 456.49 205.57 455.949C207.616 456.049 209.72 456.02 210.302 456.006C210.871 455.978 211.041 455.807 211.041 455.266V438.323H193.491V436.43H216.129V438.323L216.143 438.309ZM197.939 451.564V453.614H196.092V442.054H206.48V451.564H197.939ZM197.939 443.89V449.728H204.618V443.89H197.939Z" fill="black"/>
<path d="M228.719 450.482C228.136 449.685 226.772 448.232 225.678 447.122V457.985H223.816V448.119C222.608 449.343 221.386 450.425 220.15 451.251C219.965 450.767 219.454 449.898 219.184 449.528C222.068 447.734 225.095 444.502 226.786 441.114H220.107V439.377H223.816V434.607H225.678V439.377H227.781L228.108 439.306L229.159 440.003C228.42 441.897 227.34 443.748 226.118 445.414C227.241 446.367 229.373 448.361 229.913 448.959L228.733 450.496L228.719 450.482ZM240.954 456.191C241.537 456.191 241.65 455.835 241.721 453.116C242.048 453.429 242.773 453.7 243.285 453.828C243.1 457.003 242.617 457.771 241.167 457.771H238.794C237.032 457.771 236.62 457.259 236.62 455.465V450.155H234.545C234.09 453.842 232.826 456.49 228.79 457.971C228.591 457.558 228.079 456.875 227.696 456.504C231.277 455.294 232.328 453.116 232.74 450.155H230.723V435.875H241.395V450.155H238.354V455.465C238.354 456.077 238.453 456.177 239.064 456.177H240.983L240.954 456.191ZM232.428 440.146H239.519V437.483H232.428V440.146ZM232.428 444.36H239.519V441.641H232.428V444.36ZM232.428 448.588H239.519V445.869H232.428V448.588Z" fill="black"/>
<path d="M255.065 435.618C254.298 437.441 253.331 439.263 252.223 440.957V457.957H250.304V443.648C249.224 445.001 248.102 446.239 246.979 447.264C246.78 446.809 246.183 445.798 245.828 445.342C248.741 442.908 251.555 439.035 253.246 435.006L255.065 435.618ZM266.22 455.835C267.627 455.835 267.854 454.91 268.039 451.194C268.522 451.521 269.29 451.892 269.858 452.02C269.545 456.177 268.991 457.629 266.348 457.629H261.104C258.447 457.629 257.623 456.86 257.623 454.07V435.205H259.541V444.744C262.383 443.15 265.297 441.157 267.187 439.434L268.537 441.071C266.135 443.022 262.696 444.972 259.527 446.666V454.098C259.527 455.536 259.811 455.835 261.218 455.835H266.206H266.22Z" fill="black"/>
<path d="M107.943 451.322C109.905 451.322 111.496 449.728 111.496 447.763C111.496 445.797 109.905 444.203 107.943 444.203C105.981 444.203 104.391 445.797 104.391 447.763C104.391 449.728 105.981 451.322 107.943 451.322Z" fill="black"/>
<path d="M509.319 430.222H522.464V431.959H509.319V430.222ZM522.109 424.869H509.973V423.203H515.089V420.456H516.908V423.203H522.109V424.869ZM511.039 434.195H521.043V443.634H519.196V442.281H512.801V443.79H511.039V434.209V434.195ZM512.673 429.909C512.545 428.784 512.09 427.062 511.55 425.752L513.142 425.424C513.725 426.677 514.194 428.428 514.321 429.525L512.687 429.909H512.673ZM512.801 435.889V440.601H519.196V435.889H512.801ZM517.434 429.61C517.917 428.428 518.556 426.535 518.869 425.254L520.659 425.695C520.119 427.176 519.508 428.87 518.968 429.995L517.434 429.61ZM532.71 422.677C531.658 425.083 530.351 428.03 529.157 430.365C531.715 432.728 532.355 434.75 532.383 436.572C532.383 438.138 532.028 439.32 531.133 439.904C530.678 440.217 530.138 440.388 529.47 440.473C528.83 440.544 527.992 440.544 527.239 440.53C527.21 439.989 527.04 439.178 526.699 438.637C527.495 438.708 528.177 438.708 528.717 438.694C529.1 438.665 529.512 438.594 529.811 438.409C530.351 438.081 530.507 437.313 530.507 436.387C530.507 434.778 529.797 432.87 527.21 430.649C528.262 428.5 529.385 425.723 530.18 423.673H525.349V443.776H523.501V421.879H531.019L531.331 421.808L532.71 422.705V422.677Z" fill="black"/>
<path d="M536.973 432.628H546.011V443.548H544.149V442.395H538.806V443.776H536.987V432.628H536.973ZM538.792 434.479V440.559H544.135V434.479H538.792ZM554.608 429.938H540.696V421.452H554.608V429.938ZM552.675 423.275H542.515V428.115H552.675V423.275ZM558.317 432.628V443.605H556.455V442.395H550.643V443.776H548.796V432.628H558.317ZM556.441 440.544V434.465H550.629V440.544H556.441Z" fill="black"/>
<path d="M572.201 421.965C572.102 422.449 571.974 422.961 571.889 423.474C571.732 424.214 571.505 425.709 571.221 427.062C572.4 426.962 573.452 426.876 574.063 426.876C576.337 426.876 578.184 427.773 578.184 431.205C578.184 434.223 577.772 438.224 576.72 440.359C575.896 442.053 574.646 442.466 573.011 442.466C572.045 442.466 570.837 442.281 570.013 442.11L569.686 439.932C570.766 440.288 572.088 440.502 572.812 440.502C573.736 440.502 574.475 440.302 575.015 439.192C575.839 437.498 576.223 434.194 576.223 431.447C576.223 429.14 575.171 428.727 573.537 428.727C572.926 428.727 571.931 428.799 570.823 428.912C569.899 432.557 568.166 438.266 565.494 442.523L563.419 441.683C566.006 438.224 567.867 432.5 568.748 429.126C567.412 429.254 566.219 429.382 565.551 429.453C564.94 429.525 563.917 429.639 563.277 429.767L563.078 427.531C563.874 427.56 564.513 427.56 565.323 427.531C566.162 427.503 567.625 427.375 569.16 427.247C569.515 425.424 569.828 423.445 569.8 421.737L572.201 421.965ZM580.898 424.869C582.49 426.919 584.692 431.532 585.531 433.895L583.555 434.864C582.788 432.244 580.799 427.816 579.022 425.738L580.884 424.869H580.898ZM581.95 425.268C581.438 424.243 580.571 422.677 579.875 421.708L581.239 421.139C581.879 422.036 582.831 423.63 583.357 424.655L581.95 425.268ZM584.834 424.214C584.266 423.118 583.428 421.651 582.717 420.683L584.067 420.114C584.735 421.039 585.73 422.648 586.213 423.602L584.834 424.214Z" fill="black"/>
<path d="M611.493 437.013C610.27 437.882 608.778 438.779 607.499 439.448C608.75 440.729 610.313 441.698 612.203 442.239C611.819 442.594 611.279 443.321 611.024 443.776C607.229 442.438 604.785 439.676 603.421 435.732C602.597 436.501 601.602 437.17 600.522 437.754V441.285C602.114 440.971 603.819 440.615 605.538 440.26L605.695 441.854C602.554 442.523 599.243 443.235 596.813 443.748L596.358 442.11L598.916 441.626V438.58C597.794 439.092 596.614 439.533 595.463 439.889C595.264 439.533 594.724 438.708 594.412 438.352C596.941 437.711 599.684 436.629 601.545 435.22H595.918L596.145 436.045C593.687 437.199 591.058 438.352 589.012 439.249L588.372 437.327C589.239 437.013 590.347 436.586 591.541 436.074V428.129H588.855V426.335H591.541V420.512H593.303V426.335H595.79V428.129H593.303V435.362L595.406 434.465V433.596H602.725V431.86H596.714V425.837H602.81V423.944H595.946V422.378H602.81V420.384H604.629V422.378H611.72V423.944H604.629V425.837H610.981V431.86H604.586V433.596H611.848V435.234H604.97C605.382 436.387 605.922 437.441 606.576 438.366C607.798 437.626 609.262 436.629 610.128 435.903L611.493 437.028V437.013ZM600.92 427.19H598.334V430.422H600.92V427.19ZM602.384 430.422H605.098V427.19H602.384V430.422ZM606.547 430.422H609.304V427.19H606.547V430.422Z" fill="black"/>
<path d="M639.09 439.761C637.754 441.114 636.177 441.883 634.429 441.883C632.681 441.883 631.615 440.758 631.615 438.651C631.615 435.832 632.567 431.646 632.567 429.197C632.567 427.731 631.828 427.119 630.549 427.119C628.503 427.119 625.434 429.496 623.103 432.016C623.046 433.098 623.032 434.095 623.032 434.992C623.032 437.298 623.032 438.836 623.131 441.114C623.16 441.555 623.203 442.196 623.259 442.652H621.028C621.057 442.296 621.099 441.555 621.099 441.142C621.128 438.708 621.128 437.455 621.17 434.636C621.17 434.38 621.199 434.038 621.199 433.668C619.977 435.533 618.3 437.967 617.078 439.662L615.799 437.896C617.206 436.131 620.119 432.187 621.398 430.18C621.455 429.354 621.497 428.542 621.554 427.745C620.403 427.873 618.2 428.186 616.623 428.386L616.424 426.25C616.993 426.279 617.476 426.279 618.087 426.222C618.911 426.165 620.389 426.022 621.696 425.809C621.767 424.599 621.824 423.702 621.824 423.431C621.824 422.847 621.853 422.178 621.725 421.538L624.155 421.609C624.027 422.221 623.828 423.659 623.643 425.424L623.771 425.367L624.51 426.264C624.197 426.72 623.771 427.418 623.387 428.03C623.33 428.485 623.316 428.984 623.259 429.468C625.235 427.645 628.475 425.211 631.018 425.211C633.391 425.211 634.599 426.549 634.599 428.614C634.599 431.148 633.647 435.533 633.647 438.096C633.647 438.964 634.059 439.633 634.955 439.633C636.234 439.633 637.584 438.807 638.763 437.526L639.09 439.733V439.761Z" fill="black"/>
<path d="M658.629 424.015C658.174 424.328 657.606 424.712 657.222 424.983C655.972 425.937 652.561 428.927 650.628 430.564C651.779 430.18 652.93 430.023 654.053 430.023C658.274 430.023 661.315 432.586 661.315 436.017C661.315 440.117 657.918 442.78 652.561 442.78C649.108 442.78 646.976 441.242 646.976 439.135C646.976 437.398 648.539 435.803 650.884 435.803C654.053 435.803 655.773 437.925 656.099 440.288C658.089 439.519 659.24 438.053 659.24 435.974C659.24 433.483 656.739 431.675 653.542 431.675C649.378 431.675 647.062 433.44 643.85 436.729L642.372 435.22C644.475 433.483 647.715 430.763 649.207 429.525C650.614 428.343 653.769 425.681 655.019 424.556C653.684 424.613 648.696 424.841 647.388 424.912C646.806 424.94 646.209 424.969 645.669 425.068L645.612 422.933C646.18 423.004 646.891 423.004 647.403 423.004C648.71 423.004 654.721 422.819 656.057 422.691C656.796 422.62 657.151 422.563 657.435 422.491L658.615 423.972L658.629 424.015ZM654.252 440.801C654.025 438.807 652.817 437.412 650.898 437.412C649.747 437.412 648.88 438.11 648.88 438.978C648.88 440.231 650.344 440.957 652.234 440.957C652.945 440.957 653.641 440.9 654.252 440.801Z" fill="black"/>
<path d="M688.784 424.399V426.136H666.062V424.399H672.328C671.874 423.403 670.865 422.022 669.998 420.997L671.732 420.327C672.726 421.409 673.806 422.919 674.289 423.915L673.039 424.399H680.67C681.537 423.175 682.517 421.481 683.072 420.242L685.061 420.911C684.365 422.093 683.526 423.346 682.787 424.399H688.77H688.784ZM676.975 441.569C676.975 442.538 676.748 443.036 676.052 443.335C675.341 443.648 674.233 443.648 672.499 443.648C672.399 443.164 672.144 442.466 671.888 441.982C673.167 442.039 674.318 442.039 674.645 442.011C675.028 441.982 675.128 441.883 675.128 441.555V438.138H669.472V443.648H667.653V428.414H676.961V441.569H676.975ZM669.472 430.066V432.571H675.128V430.066H669.472ZM675.128 436.629V434.066H669.472V436.629H675.128ZM681.835 439.092H680.073V428.685H681.835V439.092ZM685.203 427.916H687.065V441.37C687.065 442.523 686.809 443.036 686.042 443.349C685.217 443.662 683.938 443.705 682.006 443.677C681.906 443.164 681.594 442.367 681.309 441.854C682.873 441.911 684.251 441.911 684.635 441.883C685.075 441.854 685.203 441.754 685.203 441.37V427.916Z" fill="black"/>
<path d="M697.837 422.577C697.68 423.018 697.453 423.83 697.353 424.3C696.87 426.635 696.131 431.176 696.131 434.009C696.131 435.234 696.188 436.259 696.33 437.498C696.771 436.344 697.325 434.864 697.737 433.853L698.831 434.679C698.192 436.473 697.268 439.163 697.041 440.374C696.97 440.729 696.913 441.214 696.913 441.498L696.984 442.395L695.137 442.523C694.625 440.729 694.213 437.811 694.213 434.365C694.213 430.621 695.037 426.264 695.336 424.186C695.407 423.602 695.52 422.933 695.52 422.392L697.822 422.577H697.837ZM703.62 434.892C703.393 435.818 703.293 436.529 703.293 437.227C703.293 438.38 704.061 439.505 707.542 439.505C709.816 439.505 711.763 439.306 713.809 438.836L713.838 440.986C712.274 441.299 710.157 441.498 707.514 441.498C703.265 441.498 701.375 440.089 701.375 437.697C701.375 436.772 701.56 435.775 701.787 434.693L703.634 434.878L703.62 434.892ZM702.626 424.527C705.397 424.983 710.512 424.883 713.042 424.527V426.635C710.328 426.919 705.411 426.919 702.654 426.635L702.626 424.527Z" fill="black"/>
<path d="M532.354 470.144V471.838H509.632V470.144H515.742V467.225H511.238V465.531H515.742V463.125H512.104V454.127H529.882V463.125H526.201V465.531H530.862V467.225H526.201V470.144H532.34H532.354ZM519.068 473.276C516.964 474.586 513.696 475.839 511.039 476.536C510.754 476.152 510.214 475.483 509.817 475.098C512.446 474.458 515.7 473.233 517.334 472.151L519.068 473.276ZM513.952 457.885H519.963V455.607H513.952V457.885ZM513.952 461.601H519.963V459.323H513.952V461.601ZM517.661 465.531H524.283V463.125H517.661V465.531ZM517.661 470.144H524.283V467.225H517.661V470.144ZM527.978 455.607H521.782V457.885H527.978V455.607ZM527.978 459.323H521.782V461.601H527.978V459.323ZM524.283 472.094C527.196 473.02 530.351 474.244 532.269 475.169L530.706 476.55C528.916 475.597 525.974 474.344 523.075 473.404L524.283 472.094Z" fill="black"/>
<path d="M558.261 462.555H556.399V458.74H538.878V462.555H537.059V457.074H541.151C540.768 456.234 539.901 454.967 539.162 454.055L540.853 453.358C541.691 454.255 542.587 455.508 543.027 456.362L541.435 457.074H546.779V453.102H548.697V457.074H558.261V462.555ZM556.698 473.404C556.698 474.401 556.499 474.913 555.703 475.198C554.907 475.511 553.628 475.511 551.667 475.511C551.568 474.97 551.255 474.287 550.999 473.774C552.534 473.831 553.898 473.831 554.268 473.803C554.651 473.774 554.779 473.703 554.779 473.39V469.802H548.839V476.55H546.921V469.802H540.597V475.383H538.707V468.051H546.921V465.944H540.981V460.562H554.339V465.944H548.839V468.051H556.698V473.404ZM542.8 464.506H552.449V462H542.8V464.506ZM556.186 453.999C555.348 455.123 554.367 456.305 553.628 457.074L552.093 456.433C552.804 455.593 553.728 454.226 554.211 453.301L556.186 453.999Z" fill="black"/>
<path d="M569.97 453.742C569.259 455.636 568.364 457.515 567.341 459.281V476.451H565.55V462.071C564.726 463.253 563.859 464.306 562.964 465.218C562.765 464.776 562.253 463.78 561.884 463.367C564.385 460.904 566.744 457.088 568.207 453.187L569.97 453.728V453.742ZM585.956 465.218V469.574H584.223V466.755H570.737V469.631H569.018V465.218H585.956ZM576.549 455.579V453.201H578.439V455.579H585.729V457.245H569.458V455.579H576.549ZM571.433 463.737V458.668H583.74V463.737H571.433ZM571.945 468.478H583.285V470.044H578.425V474.486C578.425 475.511 578.226 475.995 577.402 476.251C576.606 476.536 575.299 476.536 573.409 476.536C573.337 476.024 573.053 475.326 572.826 474.813C574.332 474.87 575.668 474.87 576.052 474.842C576.464 474.842 576.563 474.742 576.563 474.429V470.044H571.959V468.478H571.945ZM573.224 462.399H581.878V459.992H573.224V462.399Z" fill="black"/>
<path d="M612.161 473.375V475.24H589.339V473.375H592.877V458.739H594.824V473.375H600.764V453.201H602.739V461.687H611.024V463.552H602.739V473.375H612.175H612.161Z" fill="black"/>
<path d="M492.765 437.085C494.727 437.085 496.317 435.491 496.317 433.525C496.317 431.56 494.727 429.966 492.765 429.966C490.802 429.966 489.212 431.56 489.212 433.525C489.212 435.491 490.802 437.085 492.765 437.085Z" fill="black"/>
<path d="M948.212 441.185C949.676 441.498 951.281 441.598 952.972 441.598C953.811 441.626 957.96 441.598 959.069 441.57C958.813 442.025 958.486 442.908 958.372 443.435H952.901C947.459 443.435 943.338 442.481 940.78 437.996C939.941 440.274 938.705 442.381 936.943 443.819C936.616 443.463 935.92 442.851 935.536 442.566C938.606 440.189 939.842 435.718 940.211 431.959L942.158 432.216C942.002 433.369 941.775 434.551 941.49 435.732C942.57 438.295 944.233 439.804 946.308 440.63V430.45H936.232V428.656H946.308V425.14H938.421V423.374H946.308V420.399H948.226V423.374H956.511V425.14H948.226V428.656H958.415V430.45H948.226V434.451H956.724V436.188H948.226V441.185H948.212Z" fill="black"/>
<path d="M970.807 426.478C970.011 427.788 969.044 429.098 967.993 430.351V443.833H966.103V432.443C965.137 433.44 964.156 434.365 963.204 435.106C962.92 434.721 962.252 433.896 961.868 433.511C964.511 431.646 967.268 428.685 969.03 425.795L970.792 426.464L970.807 426.478ZM969.798 421.068C968.135 423.317 965.52 425.809 963.247 427.432C962.962 427.019 962.451 426.279 962.124 425.923C964.241 424.485 966.7 422.178 967.979 420.356L969.798 421.068ZM985.486 430.735H981.621V441.327C981.621 442.509 981.337 443.093 980.498 443.406C979.631 443.691 978.196 443.691 975.695 443.691C975.624 443.178 975.368 442.381 975.084 441.84C976.903 441.897 978.594 441.897 979.077 441.868C979.56 441.84 979.717 441.74 979.717 441.299V430.735H971.176V428.913H985.5V430.735H985.486ZM984.747 423.702H972.256V421.908H984.747V423.702Z" fill="black"/>
<path d="M1011.65 426.293C1011.65 426.293 1011.62 427.005 1011.62 427.261C1011.34 437.996 1011.11 441.569 1010.24 442.637C1009.8 443.306 1009.29 443.506 1008.52 443.591C1007.81 443.691 1006.6 443.662 1005.42 443.591C1005.37 443.079 1005.17 442.281 1004.88 441.797C1006.11 441.897 1007.24 441.925 1007.73 441.925C1008.17 441.925 1008.39 441.854 1008.65 441.512C1009.23 440.772 1009.54 437.384 1009.8 428.087H1006.15C1005.84 434.906 1004.67 440.487 1000.17 443.876C999.882 443.463 999.214 442.822 998.759 442.523C999.171 442.239 999.526 441.94 999.882 441.626C995.988 442.082 992.023 442.523 989.167 442.837L988.883 441.171C990.418 441.043 992.336 440.858 994.439 440.658V438.451H989.608V436.985H994.439V435.419H989.65V427.802H994.439V426.193H988.911V424.712H994.439V423.018C992.805 423.146 991.142 423.246 989.636 423.303C989.565 422.89 989.38 422.278 989.181 421.893C992.975 421.694 997.58 421.224 1000.21 420.641L1001.16 422.107C999.782 422.42 998.034 422.648 996.173 422.847V424.712H1001.6V426.193H996.173V427.802H1001.13V435.419H996.173V436.985H1001.19V438.451H996.173V440.473C997.835 440.317 999.569 440.146 1001.29 439.932V440.06C1003.52 437.042 1004.19 432.913 1004.41 428.087H1001.42V426.293H1004.46C1004.51 424.499 1004.51 422.634 1004.51 420.683H1006.3C1006.3 422.605 1006.3 424.499 1006.25 426.293H1011.68H1011.65ZM991.213 430.963H994.439V429.112H991.213V430.963ZM994.439 434.095V432.23H991.213V434.095H994.439ZM996.144 429.112V430.963H999.498V429.112H996.144ZM999.498 432.216H996.144V434.081H999.498V432.216Z" fill="black"/>
<path d="M1038.36 422.036V423.801H1027.98V426.649H1033.19V438.11H1020.96V426.649H1026.07V423.801H1015.88V422.036H1038.35H1038.36ZM1035.81 426.378H1037.65V443.677H1035.81V442.167H1018.54V443.762H1016.69V426.378H1018.54V440.345H1035.81V426.378ZM1022.58 431.603H1026.21V428.272H1022.58V431.603ZM1022.58 436.501H1026.21V433.141H1022.58V436.501ZM1031.53 428.272H1027.88V431.603H1031.53V428.272ZM1031.53 433.141H1027.88V436.501H1031.53V433.141Z" fill="black"/>
<path d="M1047.69 443.235C1046.05 441.185 1043.85 439.007 1042.03 437.526L1043.69 436.06C1045.54 437.54 1047.84 439.875 1049.42 441.754L1047.69 443.235Z" fill="black"/>
<path d="M1056.23 432.429C1056.23 426.35 1059.86 422.662 1064.82 422.662C1067.44 422.662 1069.14 423.844 1070.22 424.997L1068.94 426.535C1067.99 425.538 1066.8 424.741 1064.88 424.741C1061.11 424.741 1058.66 427.66 1058.66 432.358C1058.66 437.056 1060.89 440.075 1064.89 440.075C1066.26 440.075 1067.55 439.662 1068.31 438.978V434.052H1064.34V432.073H1070.48V439.961C1069.27 441.214 1067.21 442.139 1064.67 442.139C1059.72 442.139 1056.23 438.523 1056.23 432.429Z" fill="black"/>
<path d="M1075.95 423.018H1081.29C1085.51 423.018 1088.33 424.428 1088.33 428.528C1088.33 432.628 1085.51 434.351 1081.42 434.351H1078.32V441.812H1075.95V423.018ZM1081.12 432.429C1084.42 432.429 1085.98 431.219 1085.98 428.528C1085.98 425.837 1084.32 424.94 1081.02 424.94H1078.34V432.429H1081.12Z" fill="black"/>
<path d="M1091.51 439.348L1092.92 437.74C1094.27 439.149 1096.17 440.075 1098.12 440.075C1100.58 440.075 1102.06 438.85 1102.06 436.999C1102.06 435.148 1100.7 434.465 1098.93 433.668L1096.21 432.486C1094.48 431.746 1092.41 430.407 1092.41 427.66C1092.41 424.769 1094.91 422.662 1098.32 422.662C1100.55 422.662 1102.51 423.616 1103.85 424.997L1102.6 426.506C1101.44 425.424 1100.07 424.741 1098.32 424.741C1096.2 424.741 1094.81 425.823 1094.81 427.503C1094.81 429.325 1096.44 430.009 1097.91 430.635L1100.59 431.788C1102.77 432.742 1104.46 434.024 1104.46 436.814C1104.46 439.79 1102 442.153 1098.09 442.153C1095.43 442.153 1093.16 441.071 1091.51 439.363V439.348Z" fill="black"/>
<path d="M1113.35 443.235C1111.72 441.185 1109.52 439.007 1107.7 437.526L1109.36 436.06C1111.21 437.54 1113.51 439.875 1115.09 441.754L1113.35 443.235Z" fill="black"/>
<path d="M940.084 464.321C939.132 463.524 937.142 462.342 935.579 461.573L936.673 460.192C938.151 460.89 940.183 461.986 941.178 462.755L940.084 464.321ZM941.846 467.937C940.695 470.628 939.189 473.803 937.881 476.166L936.219 475.013C937.426 473.034 939.132 469.702 940.382 466.812L941.846 467.937ZM941.363 457.658C940.411 456.789 938.478 455.522 936.958 454.711L938.037 453.358C939.544 454.098 941.519 455.28 942.471 456.12L941.377 457.658H941.363ZM957.122 463.552C956.227 466.883 954.721 469.546 952.802 471.653C954.593 473.119 956.71 474.216 959.197 474.885C958.742 475.298 958.231 476.01 957.946 476.522C955.445 475.725 953.285 474.529 951.466 472.934C949.605 474.543 947.473 475.725 945.2 476.579C944.944 476.123 944.375 475.355 943.978 474.985C946.251 474.216 948.354 473.134 950.145 471.653C948.411 469.731 947.075 467.425 946.081 464.776H945.441C945.313 468.549 944.645 473.205 942.144 476.494C941.818 476.18 941.05 475.696 940.553 475.526C943.338 471.98 943.622 466.94 943.622 463.253V456.789H949.79V453.102H951.651V456.789H957.279L957.591 456.718L958.955 457.102C958.316 458.953 957.492 460.975 956.781 462.256L955.175 461.744C955.587 460.918 956.042 459.751 956.483 458.597H951.68V463.082H955.616L955.971 463.011L957.151 463.58L957.122 463.552ZM945.455 458.583V463.068H949.775V458.583H945.455ZM947.857 464.791C948.695 466.926 949.903 468.82 951.438 470.429C952.873 468.891 954.024 467.012 954.792 464.791H947.857Z" fill="black"/>
<path d="M973.365 464.833V476.494H971.518V464.833H967.368C967.269 469.119 966.629 473.319 963.574 476.679C963.261 476.266 962.579 475.654 962.139 475.397C964.91 472.379 965.464 468.635 965.563 464.833H962.267V463.068H965.592V456.476H962.65V454.682H975.752V456.476H973.351V463.068H976.136V464.833H973.351H973.365ZM971.518 463.068V456.476H967.397V463.068H971.518ZM985.813 468.122C983.668 471.667 980.03 474.685 976.093 476.508C975.781 476.052 975.227 475.383 974.758 474.999C978.523 473.433 982.133 470.585 984.023 467.439L985.813 468.136V468.122ZM984.492 454.269C982.644 456.633 979.76 458.882 977.202 460.292C976.847 459.879 976.307 459.295 975.823 458.953C978.253 457.743 981.167 455.565 982.73 453.515L984.492 454.255V454.269ZM985.202 461.274C983.213 463.765 980.158 466.2 977.429 467.738C977.102 467.325 976.562 466.741 976.093 466.371C978.68 465.061 981.749 462.726 983.469 460.534L985.202 461.274Z" fill="black"/>
<path d="M999.754 473.29C1000.55 473.233 1001.32 473.105 1001.93 472.977C1005.18 472.265 1008.35 469.845 1008.35 465.46C1008.35 461.616 1005.92 458.455 1001.62 458.099C1001.29 460.462 1000.79 463.025 1000.11 465.403C998.546 470.614 996.528 473.304 994.169 473.304C991.81 473.304 989.636 470.685 989.636 466.513C989.636 461.003 994.553 456.177 1000.73 456.177C1006.92 456.177 1010.45 460.377 1010.45 465.502C1010.45 470.628 1006.94 474.401 1000.9 475.198L999.725 473.276L999.754 473.29ZM998.091 464.99C998.73 462.883 999.214 460.477 999.498 458.142C994.638 458.754 991.668 462.94 991.668 466.342C991.668 469.546 993.146 470.955 994.254 470.955C995.363 470.955 996.784 469.261 998.091 464.976V464.99Z" fill="black"/>
<path d="M1017.46 467.937C1017.1 470.343 1016.49 472.806 1015.64 474.443C1015.33 474.216 1014.56 473.86 1014.16 473.732C1015 472.165 1015.54 469.887 1015.83 467.624L1017.46 467.937ZM1020.25 465.887V476.551H1018.55V465.986C1017.09 466.058 1015.71 466.143 1014.53 466.214L1014.38 464.52L1016.07 464.449C1016.61 463.751 1017.19 462.94 1017.76 462.085C1016.96 460.932 1015.64 459.494 1014.46 458.441L1015.43 457.216C1015.68 457.416 1015.91 457.658 1016.17 457.885C1017.03 456.447 1017.93 454.525 1018.47 453.116L1020.13 453.785C1019.26 455.479 1018.18 457.501 1017.23 458.939C1017.8 459.509 1018.31 460.092 1018.71 460.605C1019.71 459.01 1020.63 457.373 1021.3 456.02L1022.9 456.732C1021.44 459.167 1019.49 462.171 1017.82 464.378L1021.61 464.221C1021.25 463.424 1020.84 462.612 1020.4 461.915L1021.74 461.374C1022.79 463.011 1023.81 465.218 1024.14 466.599L1022.7 467.239C1022.6 466.798 1022.45 466.285 1022.25 465.759L1020.23 465.887H1020.25ZM1022.48 467.453C1023.17 468.919 1023.85 470.856 1024.11 472.123L1022.65 472.607C1022.39 471.325 1021.75 469.403 1021.08 467.923L1022.46 467.467L1022.48 467.453ZM1037.95 474.016V475.782H1023.19V474.016H1026.33C1026.64 471.653 1026.97 468.663 1027.25 465.531H1024.24V463.765H1027.44C1027.66 461.203 1027.88 458.612 1028 456.305H1024.62V454.568H1035.59C1035.59 457.359 1035.56 460.591 1035.49 463.765H1037.89V465.531H1035.46C1035.39 468.663 1035.28 471.653 1035.15 474.016H1037.94H1037.95ZM1029.1 465.531C1028.81 468.663 1028.52 471.681 1028.26 474.016H1033.28C1033.43 471.653 1033.56 468.663 1033.63 465.531H1029.1ZM1029.84 456.305C1029.68 458.64 1029.48 461.203 1029.25 463.765H1033.67C1033.75 461.231 1033.8 458.64 1033.8 456.305H1029.84Z" fill="black"/>
<path d="M1049.45 453.871C1048.68 455.793 1047.79 457.686 1046.73 459.452V476.451H1044.84V462.399C1044.02 463.552 1043.12 464.605 1042.26 465.502C1042.03 465.061 1041.43 464.064 1041.08 463.637C1043.69 461.146 1046.12 457.259 1047.57 453.287L1049.43 453.871H1049.45ZM1064.33 460.69H1061.1V473.917C1061.1 475.355 1060.69 475.938 1059.75 476.223C1058.76 476.536 1057.04 476.551 1054.28 476.536C1054.18 476.052 1053.82 475.17 1053.54 474.671C1055.69 474.742 1057.79 474.742 1058.4 474.728C1058.97 474.671 1059.2 474.529 1059.2 473.931V460.704H1048.88V458.811H1059.2V453.429H1061.12V458.811H1064.34V460.704L1064.33 460.69ZM1054.19 470.528C1053.43 468.934 1051.79 466.2 1050.49 464.15L1052.12 463.381C1053.46 465.36 1055.13 468.022 1055.96 469.589L1054.19 470.542V470.528Z" fill="black"/>
<path d="M1073.14 455.024C1072.98 455.479 1072.81 456.177 1072.68 456.661C1071.89 460.348 1071.05 465.858 1071.97 470.016C1072.33 468.934 1072.84 467.424 1073.31 466.172L1074.43 466.869C1073.82 468.635 1073.05 471.197 1072.8 472.45C1072.72 472.835 1072.67 473.29 1072.67 473.575L1072.74 474.443L1071 474.643C1070.49 473.105 1069.67 469.802 1069.67 466.599C1069.67 462.498 1070.31 458.569 1070.62 456.476C1070.72 455.892 1070.75 455.223 1070.75 454.782L1073.15 455.009L1073.14 455.024ZM1090 461.459C1088.85 461.658 1087.42 461.815 1085.91 461.915V462.783C1085.91 468.635 1085.91 472.749 1080.54 475.938L1078.68 474.458C1079.47 474.13 1080.53 473.504 1081.17 472.863C1083.88 470.5 1084.01 467.652 1084.01 462.769V462.028C1082.93 462.085 1081.83 462.1 1080.78 462.1C1079.57 462.1 1077.78 462.028 1076.69 461.915V459.864C1077.78 460.05 1079.4 460.149 1080.75 460.149C1081.8 460.149 1082.87 460.121 1083.95 460.078C1083.89 458.483 1083.85 456.803 1083.79 456.163C1083.74 455.593 1083.64 455.038 1083.57 454.654H1085.94C1085.88 455.095 1085.88 455.579 1085.87 456.134C1085.84 456.704 1085.87 458.369 1085.9 459.95C1087.38 459.822 1088.81 459.637 1090.02 459.366V461.473L1090 461.459Z" fill="black"/>
<path d="M919.123 437.085C921.085 437.085 922.676 435.491 922.676 433.525C922.676 431.56 921.085 429.966 919.123 429.966C917.161 429.966 915.57 431.56 915.57 433.525C915.57 435.491 917.161 437.085 919.123 437.085Z" fill="black"/>
<path d="M1333.73 436.601C1333.32 435.832 1332.32 434.422 1331.48 433.241V443.748H1329.76V434.365C1328.84 435.547 1327.87 436.572 1326.92 437.412C1326.72 436.971 1326.23 436.131 1325.96 435.817C1328.39 433.824 1330.92 430.365 1332.32 426.876H1326.54V425.182H1329.71V420.498H1331.4V425.182H1333.13L1333.46 425.111L1334.45 425.752C1333.79 427.731 1332.85 429.667 1331.77 431.475C1332.02 431.76 1332.31 432.144 1332.64 432.529C1333.2 431.689 1333.84 430.607 1334.2 429.838L1335.35 430.664C1334.74 431.632 1334.01 432.714 1333.4 433.483C1334.04 434.28 1334.61 434.992 1334.84 435.305L1333.71 436.615L1333.73 436.601ZM1347.83 435.675C1346.93 437.569 1345.55 439.092 1343.89 440.288C1345.62 441.128 1347.68 441.754 1349.9 442.11C1349.49 442.495 1348.98 443.264 1348.72 443.748C1346.26 443.292 1344.06 442.466 1342.2 441.342C1340.02 442.495 1337.52 443.264 1334.91 443.776C1334.72 443.335 1334.27 442.523 1333.94 442.167C1336.34 441.783 1338.65 441.171 1340.59 440.245C1339.64 439.476 1338.8 438.608 1338.11 437.626C1337.27 438.323 1336.34 438.964 1335.32 439.548C1335.04 439.135 1334.48 438.551 1334.07 438.309C1336.68 436.928 1338.65 435.106 1339.8 433.44H1336.9V426.421C1336.51 426.933 1336.1 427.417 1335.65 427.902C1335.32 427.517 1334.72 427.033 1334.3 426.805C1336.22 424.883 1337.52 422.321 1338.23 420.342L1340.02 420.655C1339.74 421.367 1339.41 422.135 1339.03 422.904H1349.42V424.513H1338.16C1337.84 425.083 1337.47 425.638 1337.07 426.179H1347.9V433.426H1341.96C1341.57 433.967 1341.19 434.508 1340.73 435.034H1346.36L1346.72 434.963L1347.84 435.661L1347.83 435.675ZM1338.62 429.197H1346.06V427.474H1338.62V429.197ZM1338.62 432.173H1346.06V430.436H1338.62V432.173ZM1342.26 439.348C1343.46 438.58 1344.5 437.654 1345.27 436.558H1339.31C1340.05 437.64 1341.05 438.551 1342.26 439.348Z" fill="black"/>
<path d="M1359.52 435.889C1360.54 436.601 1363.26 438.708 1363.87 439.277L1362.79 440.758C1362.18 440.046 1360.69 438.679 1359.52 437.654V443.734H1357.79V437.426C1356.57 439.377 1355 441.228 1353.54 442.424C1353.31 441.968 1352.84 441.271 1352.49 440.915C1354.25 439.69 1356.17 437.355 1357.38 435.049H1353.13V433.44H1357.79V430.692H1359.52V433.44H1363.84V435.049H1359.52V435.889ZM1362.73 429.838C1362.89 429.838 1363.05 429.809 1363.12 429.781C1363.19 429.724 1363.3 429.681 1363.34 429.496C1363.39 429.311 1363.44 428.884 1363.47 428.372C1363.76 428.599 1364.21 428.827 1364.62 428.955C1364.57 429.567 1364.5 430.237 1364.37 430.493C1364.21 430.778 1364.01 430.934 1363.78 431.062C1363.56 431.162 1363.15 431.219 1362.83 431.219H1361.81C1361.37 431.219 1360.89 431.119 1360.6 430.863C1360.29 430.55 1360.19 430.165 1360.19 428.884V424.826H1357.99C1357.66 427.233 1356.64 429.824 1353.77 431.931C1353.51 431.546 1352.87 431.005 1352.49 430.778C1355.02 429.012 1355.97 426.862 1356.32 424.826H1353.2V423.189H1356.49C1356.52 422.833 1356.52 422.477 1356.52 422.136V420.342H1358.13V422.193C1358.13 422.52 1358.13 422.862 1358.1 423.189H1361.78V429.012C1361.78 429.425 1361.81 429.681 1361.88 429.724C1361.94 429.795 1362.04 429.824 1362.16 429.824H1362.7L1362.73 429.838ZM1376.22 442.523H1366.78V443.705H1365.05V427.532C1364.77 427.887 1364.48 428.229 1364.21 428.528C1363.88 428.243 1363.13 427.702 1362.7 427.475C1364.5 425.738 1366 423.018 1366.9 420.271L1368.62 420.712C1368.18 422.022 1367.62 423.332 1366.98 424.527H1370.44C1371.02 423.303 1371.66 421.637 1372.03 420.427L1373.89 420.883C1373.41 422.093 1372.81 423.417 1372.28 424.527H1375.92V426.222H1372.08V429.753H1375.69V431.39H1372.08V435.006H1375.76V436.672H1372.08V440.801H1376.25V442.523H1376.22ZM1370.29 426.222H1366.78V429.753H1370.29V426.222ZM1370.29 431.404H1366.78V435.02H1370.29V431.404ZM1366.78 440.801H1370.29V436.672H1366.78V440.801Z" fill="black"/>
<path d="M1392.93 426.421C1391.59 426.805 1390.02 427.133 1388.35 427.346C1387.1 430.934 1384.84 435.348 1382.83 438.081L1380.84 437.056C1382.97 434.593 1385.11 430.55 1386.27 427.574C1385.53 427.631 1384.79 427.645 1384.03 427.645C1383.08 427.645 1382.04 427.617 1381.09 427.574L1380.94 425.652C1381.89 425.78 1382.95 425.837 1384.06 425.837C1384.96 425.837 1385.91 425.78 1386.88 425.709C1387.26 424.3 1387.62 422.691 1387.67 421.324L1389.95 421.523C1389.69 422.449 1389.36 423.986 1388.95 425.439C1390.29 425.239 1391.61 424.926 1392.89 424.513L1392.94 426.407L1392.93 426.421ZM1395.89 429.368C1395.81 430.422 1395.83 431.162 1395.86 432.116C1395.89 433.041 1395.99 434.707 1396.04 436.245C1398.22 437.042 1399.98 438.295 1401.29 439.42L1400.19 441.157C1399.11 440.188 1397.76 439.049 1396.13 438.266C1396.16 438.651 1396.16 439.007 1396.16 439.291C1396.16 441.313 1394.82 442.979 1391.71 442.979C1388.92 442.979 1386.65 441.826 1386.65 439.32C1386.65 436.985 1388.85 435.476 1391.71 435.476C1392.55 435.476 1393.37 435.547 1394.11 435.704C1394.04 433.625 1393.91 431.133 1393.85 429.368H1395.9H1395.89ZM1394.18 437.498C1393.38 437.27 1392.52 437.142 1391.62 437.142C1389.76 437.142 1388.52 437.982 1388.52 439.135C1388.52 440.288 1389.48 441.114 1391.44 441.114C1393.51 441.114 1394.19 439.961 1394.19 438.708C1394.19 438.38 1394.19 437.967 1394.17 437.498H1394.18ZM1400.93 430.066C1399.58 428.912 1396.84 427.346 1395.15 426.578L1396.14 424.983C1397.99 425.809 1400.87 427.446 1402.08 428.371L1400.93 430.066Z" fill="black"/>
<path d="M1407.85 433.369C1409.07 432.116 1411.3 429.268 1412.92 427.375C1414.27 425.766 1415.33 425.581 1417.17 427.119C1418.74 428.4 1420.84 430.664 1422.47 432.429C1424.19 434.28 1426.79 437.07 1428.67 439.277L1427.01 441.1C1425.22 438.793 1422.89 436.145 1421.25 434.28C1419.49 432.301 1417.36 429.995 1416.26 429.083C1415.18 428.186 1414.83 428.215 1413.96 429.283C1412.74 430.763 1410.58 433.597 1409.43 435.006C1408.89 435.675 1408.33 436.472 1407.95 436.985L1406.09 435.091C1406.73 434.522 1407.21 434.066 1407.88 433.397L1407.85 433.369ZM1424.59 423.303C1426.31 423.303 1427.69 424.712 1427.69 426.435C1427.69 428.158 1426.31 429.539 1424.59 429.539C1422.87 429.539 1421.46 428.158 1421.46 426.435C1421.46 424.712 1422.84 423.303 1424.59 423.303ZM1424.59 428.3C1425.61 428.3 1426.45 427.46 1426.45 426.435C1426.45 425.41 1425.61 424.57 1424.59 424.57C1423.57 424.57 1422.7 425.396 1422.7 426.435C1422.7 427.474 1423.54 428.3 1424.59 428.3Z" fill="black"/>
<path d="M1450.71 421.139C1451.35 422.064 1452.27 423.602 1452.81 424.655L1451.46 425.268L1452.67 425.98C1452.47 426.336 1452.22 426.933 1452.09 427.332C1451.42 429.582 1450.11 432.458 1448.32 434.978C1449.29 435.59 1450.17 436.188 1450.81 436.643L1449.4 438.466C1448.79 437.982 1447.94 437.369 1446.97 436.7C1444.67 439.363 1441.45 441.854 1436.94 443.548L1435.09 441.94C1439.54 440.587 1442.92 438.124 1445.23 435.561C1443.21 434.251 1441.03 432.97 1439.6 432.173L1440.93 430.664C1442.41 431.432 1444.57 432.657 1446.56 433.895C1448.12 431.689 1449.35 429.083 1449.83 427.047H1441.1C1439.5 429.325 1437.21 431.817 1434.35 433.767L1432.63 432.429C1437.05 429.71 1439.7 425.866 1440.85 423.531C1441.1 423.075 1441.52 422.15 1441.67 421.509L1443.97 422.249C1443.56 422.919 1443.11 423.759 1442.85 424.243C1442.7 424.556 1442.53 424.855 1442.31 425.196H1449.3C1450 425.196 1450.58 425.125 1450.99 424.969L1451.44 425.225C1450.92 424.2 1450.09 422.691 1449.39 421.737L1450.74 421.153L1450.71 421.139ZM1453.52 420.114C1454.19 421.068 1455.19 422.648 1455.64 423.602L1454.29 424.214C1453.72 423.089 1452.88 421.651 1452.17 420.698L1453.52 420.114Z" fill="black"/>
<path d="M1456.35 441.142C1458.5 439.605 1460.03 437.327 1460.8 434.835C1461.54 432.472 1461.57 427.375 1461.57 424.527C1461.57 423.759 1461.5 423.189 1461.38 422.662H1463.74C1463.71 422.976 1463.61 423.744 1463.61 424.513C1463.61 427.361 1463.51 432.842 1462.82 435.405C1462.05 438.153 1460.42 440.658 1458.26 442.424L1456.34 441.142H1456.35ZM1468.08 441.27C1468.18 440.858 1468.26 440.345 1468.26 439.832V424.47C1468.26 423.502 1468.13 422.776 1468.1 422.577H1470.46C1470.43 422.776 1470.36 423.502 1470.36 424.47V439.263C1472.72 438.181 1475.86 435.846 1477.81 432.956L1479.03 434.693C1476.83 437.697 1473.28 440.302 1470.31 441.797C1469.92 441.997 1469.7 442.182 1469.44 442.381L1468.09 441.256L1468.08 441.27Z" fill="black"/>
<path d="M1486.79 434.095V441.527C1486.79 442.495 1486.59 442.993 1486.02 443.292C1485.48 443.577 1484.64 443.62 1483.34 443.62C1483.27 443.164 1483.05 442.409 1482.83 441.897C1483.65 441.925 1484.39 441.925 1484.62 441.925C1484.9 441.925 1485 441.826 1485 441.541V434.75L1482.39 435.718L1481.87 433.924C1482.77 433.639 1483.82 433.255 1485 432.842V427.261H1482.13V425.496H1485V420.37H1486.79V425.496H1489.16V427.261H1486.79V432.187L1489.02 431.39L1489.33 433.112L1486.81 434.081L1486.79 434.095ZM1499.28 437.398C1500.82 439.121 1503.25 440.701 1505.51 441.498C1505.09 441.854 1504.55 442.523 1504.28 442.965C1502.11 442.039 1499.75 440.245 1498.15 438.281V443.819H1496.35V438.466C1494.51 440.516 1491.79 442.281 1489.22 443.207C1488.94 442.765 1488.43 442.082 1488.01 441.726C1490.64 440.929 1493.41 439.291 1495.18 437.426H1489.65V435.818H1496.35V433.896H1490.13V428.158H1496.52V433.896H1497.96V428.158H1504.54V433.896H1498.15V435.818H1505.14V437.426H1499.3L1499.28 437.398ZM1494.96 429.525H1491.64V432.443H1494.96V429.525ZM1501.97 426.962H1492.66V421.395H1501.97V426.962ZM1500.21 422.833H1494.35V425.524H1500.21V422.833ZM1499.47 432.443H1502.95V429.525H1499.47V432.443Z" fill="black"/>
<path d="M1516.62 421.039C1515.92 422.89 1515.01 424.755 1514 426.52V443.719H1512.11V429.468C1511.32 430.592 1510.45 431.617 1509.58 432.514C1509.4 432.073 1508.85 431.034 1508.49 430.621C1511.02 428.158 1513.38 424.342 1514.81 420.441L1516.63 421.025L1516.62 421.039ZM1524.09 426.449V430.108H1531.38V431.874H1524.09V435.746H1531.74V437.54H1524.09V443.748H1522.17V426.449H1520.41C1519.32 428.499 1518.05 430.35 1516.77 431.788C1516.46 431.461 1515.72 430.82 1515.3 430.507C1517.6 428.129 1519.67 424.428 1520.92 420.683L1522.74 421.167C1522.33 422.349 1521.85 423.502 1521.34 424.627H1531.98V426.449H1524.09Z" fill="black"/>
<path d="M1546.09 440.544C1546.89 440.487 1547.65 440.359 1548.27 440.231C1551.52 439.519 1554.69 437.099 1554.69 432.714C1554.69 428.87 1552.26 425.709 1547.95 425.353C1547.63 427.717 1547.13 430.279 1546.45 432.657C1544.88 437.868 1542.87 440.559 1540.51 440.559C1538.15 440.559 1535.97 437.939 1535.97 433.767C1535.97 428.258 1540.89 423.431 1547.07 423.431C1553.25 423.431 1556.79 427.631 1556.79 432.757C1556.79 437.882 1553.28 441.655 1547.24 442.452L1546.06 440.53L1546.09 440.544ZM1544.43 432.244C1545.07 430.137 1545.55 427.731 1545.84 425.396C1540.98 426.008 1538.01 430.194 1538.01 433.597C1538.01 436.8 1539.48 438.209 1540.59 438.209C1541.7 438.209 1543.12 436.515 1544.43 432.23V432.244Z" fill="black"/>
<path d="M1346.83 456.575V476.422H1344.86V475.112H1331.21V476.55H1329.32V456.575H1335.75C1336.13 455.451 1336.54 454.07 1336.74 453.059L1338.92 453.344C1338.53 454.44 1338.08 455.593 1337.64 456.575H1346.82H1346.83ZM1331.23 458.398V462.213H1344.87V458.398H1331.23ZM1331.23 464.022V467.737H1344.87V464.022H1331.23ZM1344.86 473.319V469.517H1331.21V473.319H1344.86Z" fill="black"/>
<path d="M1375.61 459.038C1375.61 459.038 1375.58 459.75 1375.58 460.007C1375.3 470.741 1375.07 474.315 1374.2 475.383C1373.76 476.052 1373.25 476.251 1372.48 476.337C1371.77 476.436 1370.56 476.408 1369.38 476.337C1369.33 475.824 1369.13 475.027 1368.84 474.543C1370.07 474.642 1371.2 474.671 1371.69 474.671C1372.13 474.671 1372.35 474.6 1372.61 474.258C1373.19 473.518 1373.5 470.129 1373.76 460.832H1370.11C1369.8 467.652 1368.63 473.233 1364.13 476.621C1363.84 476.209 1363.17 475.568 1362.72 475.269C1363.13 474.984 1363.49 474.685 1363.84 474.372C1359.95 474.828 1355.98 475.269 1353.13 475.582L1352.84 473.916C1354.38 473.788 1356.3 473.603 1358.4 473.404V471.197H1353.57V469.731H1358.4V468.164H1353.61V460.548H1358.4V458.939H1352.87V457.458H1358.4V455.764C1356.76 455.892 1355.1 455.992 1353.6 456.049C1353.52 455.636 1353.34 455.023 1353.14 454.639C1356.94 454.44 1361.54 453.97 1364.17 453.386L1365.12 454.853C1363.74 455.166 1361.99 455.394 1360.13 455.593V457.458H1365.56V458.939H1360.13V460.548H1365.09V468.164H1360.13V469.731H1365.15V471.197H1360.13V473.219C1361.8 473.062 1363.53 472.891 1365.25 472.678V472.806C1367.48 469.788 1368.15 465.659 1368.37 460.832H1365.38V459.038H1368.42C1368.47 457.245 1368.47 455.379 1368.47 453.429H1370.26C1370.26 455.351 1370.26 457.245 1370.21 459.038H1375.64H1375.61ZM1355.16 463.708H1358.38V461.857H1355.16V463.708ZM1358.38 466.84V464.975H1355.16V466.84H1358.38ZM1360.1 461.857V463.708H1363.46V461.857H1360.1ZM1363.46 464.961H1360.1V466.826H1363.46V464.961Z" fill="black"/>
<path d="M1388.17 454.127C1387.4 455.949 1386.44 457.771 1385.33 459.466V476.465H1383.41V462.156C1382.33 463.509 1381.21 464.748 1380.08 465.773C1379.88 465.317 1379.29 464.306 1378.93 463.851C1381.85 461.416 1384.66 457.544 1386.35 453.514L1388.17 454.127ZM1399.32 474.344C1400.73 474.344 1400.96 473.418 1401.14 469.702C1401.63 470.03 1402.39 470.4 1402.96 470.528C1402.65 474.685 1402.1 476.137 1399.45 476.137H1394.21C1391.55 476.137 1390.73 475.369 1390.73 472.578V453.714H1392.65V463.253C1395.49 461.658 1398.4 459.665 1400.29 457.942L1401.64 459.579C1399.24 461.53 1395.8 463.481 1392.63 465.175V472.607C1392.63 474.045 1392.92 474.344 1394.32 474.344H1399.31H1399.32Z" fill="black"/>
<path d="M1309.67 437.085C1311.63 437.085 1313.22 435.491 1313.22 433.525C1313.22 431.56 1311.63 429.966 1309.67 429.966C1307.71 429.966 1306.12 431.56 1306.12 433.525C1306.12 435.491 1307.71 437.085 1309.67 437.085Z" fill="black"/>
<path d="M1050.16 284.746H1047.32V323.187H1050.16V284.746Z" fill="#0A2270"/>
<path d="M333.948 284.746H331.105V323.187H333.948V284.746Z" fill="#0A2270"/>
<path d="M189 353.085H186.158V391.525H189V353.085Z" fill="#0A2270"/>
<path d="M1433.84 353.085H186.158V355.932H1433.84V353.085Z" fill="#0A2270"/>
<path d="M1050.16 320.339H331.105V323.186H1050.16V320.339Z" fill="#0A2270"/>
<path d="M603.948 353.085H601.105V391.525H603.948V353.085Z" fill="#0A2270"/>
<path d="M1018.89 353.085H1016.05V391.525H1018.89V353.085Z" fill="#0A2270"/>
<path d="M1433.84 353.085H1431V391.525H1433.84V353.085Z" fill="#0A2270"/>
<path d="M572.684 284.746H569.842V323.187H572.684V284.746Z" fill="#0A2270"/>
<path d="M692.053 320.339H689.211V355.932H692.053V320.339Z" fill="#0A2270"/>
<path d="M811.421 284.746H808.579V323.187H811.421V284.746Z" fill="#0A2270"/>
<path d="M571.263 295.424C577.15 295.424 581.921 290.643 581.921 284.746C581.921 278.849 577.15 274.068 571.263 274.068C565.377 274.068 560.605 278.849 560.605 284.746C560.605 290.643 565.377 295.424 571.263 295.424Z" fill="#FFFF00" stroke="#0A2270" stroke-width="2" stroke-miterlimit="10"/>
<path d="M810 295.424C815.886 295.424 820.658 290.643 820.658 284.746C820.658 278.849 815.886 274.068 810 274.068C804.113 274.068 799.342 278.849 799.342 284.746C799.342 290.643 804.113 295.424 810 295.424Z" fill="#FFFF00" stroke="#0A2270" stroke-width="2" stroke-miterlimit="10"/>
<path d="M332.526 295.424C338.412 295.424 343.184 290.643 343.184 284.746C343.184 278.849 338.412 274.068 332.526 274.068C326.64 274.068 321.868 278.849 321.868 284.746C321.868 290.643 326.64 295.424 332.526 295.424Z" fill="#FFFF00" stroke="#0A2270" stroke-width="2" stroke-miterlimit="10"/>
<path d="M1048.74 295.424C1054.62 295.424 1059.39 290.643 1059.39 284.746C1059.39 278.849 1054.62 274.068 1048.74 274.068C1042.85 274.068 1038.08 278.849 1038.08 284.746C1038.08 290.643 1042.85 295.424 1048.74 295.424Z" fill="#FFFF00" stroke="#0A2270" stroke-width="2" stroke-miterlimit="10"/>
<path d="M187.579 401.491C193.465 401.491 198.237 396.711 198.237 390.813C198.237 384.916 193.465 380.135 187.579 380.135C181.693 380.135 176.921 384.916 176.921 390.813C176.921 396.711 181.693 401.491 187.579 401.491Z" fill="#FFFF00" stroke="#0A2270" stroke-width="2" stroke-miterlimit="10"/>
<path d="M602.526 401.491C608.412 401.491 613.184 396.711 613.184 390.813C613.184 384.916 608.412 380.135 602.526 380.135C596.64 380.135 591.868 384.916 591.868 390.813C591.868 396.711 596.64 401.491 602.526 401.491Z" fill="#FFFF00" stroke="#0A2270" stroke-width="2" stroke-miterlimit="10"/>
<path d="M1017.47 401.491C1023.36 401.491 1028.13 396.711 1028.13 390.813C1028.13 384.916 1023.36 380.135 1017.47 380.135C1011.59 380.135 1006.82 384.916 1006.82 390.813C1006.82 396.711 1011.59 401.491 1017.47 401.491Z" fill="#FFFF00" stroke="#0A2270" stroke-width="2" stroke-miterlimit="10"/>
<path d="M1432.42 401.491C1438.31 401.491 1443.08 396.711 1443.08 390.813C1443.08 384.916 1438.31 380.135 1432.42 380.135C1426.54 380.135 1421.76 384.916 1421.76 390.813C1421.76 396.711 1426.54 401.491 1432.42 401.491Z" fill="#FFFF00" stroke="#0A2270" stroke-width="2" stroke-miterlimit="10"/>
</g>
<defs>
<clipPath id="clip0_1323_5973">
<rect width="1620" height="504" fill="white"/>
</clipPath>
</defs>
</svg>
