<svg width="360" height="1000" viewBox="0 0 360 1000" fill="none" xmlns="http://www.w3.org/2000/svg">
<g clip-path="url(#clip0_1624_2680)">
<path d="M130 78H120V918H130V78Z" fill="black"/>
<path d="M250 0H0V100H250V0Z" fill="#0A2270"/>
<path d="M99.0001 44.08C98.6801 44.66 98.3801 45.2 98.1201 45.64H102.1V56.48C102.1 57.66 101.86 58.3 101.08 58.68C100.3 59.04 99.1801 59.08 97.6201 59.08C97.5201 58.52 97.2201 57.66 96.9401 57.06H92.0601V58.16H89.9601V51.88H97.8001V56.84C98.5001 56.86 99.1201 56.86 99.3601 56.86C99.7001 56.86 99.8001 56.76 99.8001 56.46V50.32C99.5001 50.92 99.0001 51.12 98.2001 51.12H96.5801C94.8001 51.12 94.4401 50.58 94.4401 48.96V47.68H92.8201C92.6401 49.9 91.9001 51.18 88.8601 51.88C88.7201 51.48 88.3601 50.88 88.0001 50.48V59.04H85.7401V45.64H89.3001C89.1401 45.14 88.9001 44.54 88.6801 44.08H85.0601V41.92H92.5001V40.42H94.9201V41.92H102.56V44.08H99.0001ZM88.0001 50.2C90.1401 49.78 90.6001 49.06 90.7401 47.68H88.0001V50.2ZM95.5001 45.64C95.7401 45.16 96.0201 44.6 96.2401 44.08H91.2401C91.5001 44.6 91.7601 45.2 91.8801 45.64H95.5001ZM95.6601 53.64H92.0601V55.32H95.6601V53.64ZM99.8001 47.68H96.4801V48.94C96.4801 49.36 96.5401 49.42 96.8801 49.42H97.9201C98.2601 49.42 98.3401 49.28 98.4001 48.32C98.7001 48.52 99.3001 48.74 99.8001 48.88V47.68Z" fill="white"/>
<path d="M106.04 50.08H113.66V58.98H111.28V58.08H108.3V59.08H106.04V50.08ZM108.3 52.36V55.8H111.28V52.36H108.3ZM120.52 48.42H108.8V41.18H120.52V48.42ZM118.1 43.46H111.1V46.16H118.1V43.46ZM123.22 50.08V59H120.82V58.08H117.64V59.08H115.36V50.08H123.22ZM120.82 55.8V52.36H117.64V55.8H120.82Z" fill="white"/>
<path d="M136.42 40.32C138.58 43.48 141.86 46.2 145.06 47.58C144.46 48.2 143.92 48.98 143.46 49.72C140.36 48 137.02 45.12 135.3 42.66C133.68 45.1 130.6 47.88 127.3 49.74C127 49.2 126.32 48.32 125.8 47.82C129.26 46.04 132.48 42.86 133.98 40.32H136.42ZM136.76 56.38H143.92V58.54H126.9V56.38H129.08V49.44H131.42V56.38H134.26V46H136.76V50.28H142.12V52.38H136.76V56.38Z" fill="white"/>
<path d="M165.16 41.6V43.82H157.32V45.42H160.96V54.48H151.44V45.42H154.94V43.82H147.26V41.6H165.16ZM162.26 45.14H164.56V59.06H162.26V57.9H150.18V59.08H147.86V45.14H150.18V55.66H162.26V45.14ZM153.38 49.04H155.12V47.36H153.38V49.04ZM153.38 52.54H155.12V50.84H153.38V52.54ZM158.9 47.36H157.16V49.04H158.9V47.36ZM158.9 50.84H157.16V52.54H158.9V50.84Z" fill="white"/>
<path opacity="0.2" d="M4 64V4H64" fill="white"/>
<path d="M19.3501 15.4H22.8701V28.58H20.7701V17.42H19.3501V15.4Z" fill="white"/>
<path d="M250 150H0V250H250V150Z" fill="#0A2270"/>
<path d="M102.12 204.04C101.1 204.72 99.88 205.38 98.82 205.88C100.02 206.52 101.46 206.96 103.16 207.22C102.7 207.68 102.14 208.54 101.86 209.12C97.7 208.32 95.2 206.44 93.7 203.26C93 203.78 92.2 204.26 91.34 204.68V206.42C92.64 206.26 94 206.08 95.34 205.9L95.42 207.76C92.6 208.16 89.62 208.56 87.42 208.88L87.08 206.94C87.66 206.88 88.34 206.8 89.06 206.72V205.6C88 205.96 86.88 206.24 85.76 206.44C85.48 205.94 84.92 205.16 84.5 204.72C86.7 204.42 88.96 203.84 90.68 203.04H84.84V201.16H92.62V200.14H91.82C91.72 199.68 91.44 199.14 91.24 198.76C91.7 198.78 92.18 198.78 92.32 198.78C92.5 198.78 92.56 198.72 92.56 198.56V197.74H90.92V200.66H88.9V197.74H87.4V200.22H85.6V196.3H88.9V195.6H84.8V194H86.02C85.62 193.76 85.1 193.46 84.78 193.3C85.44 192.54 86 191.46 86.34 190.42L88.08 190.86C87.98 191.14 87.88 191.4 87.76 191.68H88.9V190.4H90.92V191.68H94.24V193.2H90.92V194H94.78V195.6H90.92V196.3H94.46V198.56C94.46 199.32 94.32 199.68 93.8 199.92C93.54 200.04 93.22 200.1 92.86 200.12H94.98V201.16H102.78V203.04H100.78L102.12 204.04ZM88.9 194V193.2H87C86.84 193.48 86.68 193.76 86.5 194H88.9ZM97.72 197.86H95.6V191.2H97.72V197.86ZM95.8 203.04C96.18 203.68 96.66 204.26 97.22 204.76C98.16 204.28 99.26 203.62 100.06 203.04H95.8ZM102.06 198.54C102.06 199.56 101.86 200.06 101.14 200.36C100.44 200.66 99.46 200.68 98.08 200.68C97.98 200.12 97.66 199.32 97.38 198.8C98.28 198.84 99.24 198.84 99.52 198.82C99.82 198.82 99.9 198.74 99.9 198.48V190.54H102.06V198.54Z" fill="white"/>
<path d="M106.04 200.08H113.66V208.98H111.28V208.08H108.3V209.08H106.04V200.08ZM108.3 202.36V205.8H111.28V202.36H108.3ZM120.52 198.42H108.8V191.18H120.52V198.42ZM118.1 193.46H111.1V196.16H118.1V193.46ZM123.22 200.08V209H120.82V208.08H117.64V209.08H115.36V200.08H123.22ZM120.82 205.8V202.36H117.64V205.8H120.82Z" fill="white"/>
<path d="M133.88 195.58H126.06V193.7H133.88V195.58ZM143.86 199.46C143.22 201.88 142.16 203.78 140.78 205.28C141.96 206.04 143.36 206.62 144.9 207C144.38 207.5 143.7 208.44 143.36 209.06C141.68 208.56 140.22 207.82 138.96 206.88C137.62 207.82 136.08 208.54 134.38 209.06C134.14 208.48 133.58 207.54 133.14 207V208.02H128.96V208.8H126.94V201.98H133.14V206.96C134.64 206.58 136 206.02 137.18 205.24C136.26 204.24 135.5 203.08 134.88 201.78L136.92 201.12H134.14V198.98H134.82C134.48 198.58 133.64 197.86 133.16 197.54V198.3H127V196.48H133.16V197.44C134.88 196.26 135.1 194.68 135.1 193.34V190.96H141.8V195.44C141.8 196 141.84 196.06 142.06 196.06H142.56C142.82 196.06 142.9 195.8 142.92 194.06C143.36 194.4 144.28 194.74 144.86 194.9C144.66 197.38 144.14 198.08 142.8 198.08H141.64C140.04 198.08 139.58 197.46 139.58 195.48V193.06H137.34V193.4C137.34 195.28 136.94 197.56 134.86 198.98H141.9L142.3 198.88L143.86 199.46ZM133.16 201H127V199.22H133.16V201ZM133.12 192.82H127.08V191.02H133.12V192.82ZM131.08 203.86H128.96V206.16H131.08V203.86ZM136.98 201.12C137.46 202.12 138.12 203.02 138.92 203.82C139.7 203.04 140.32 202.14 140.8 201.12H136.98Z" fill="white"/>
<path d="M155.04 195.58H146.86V193.7H155.04V195.58ZM154.18 208.02H149.82V208.8H147.76V201.98H154.18V208.02ZM147.82 196.48H154.24V198.3H147.82V196.48ZM147.82 199.22H154.24V201H147.82V199.22ZM154.28 192.82H147.94V191.02H154.28V192.82ZM149.82 203.86V206.16H152.1V203.86H149.82ZM165.72 199.44H161.54V209.08H159.14V199.44H154.96V197.08H159.14V190.48H161.54V197.08H165.72V199.44Z" fill="white"/>
<path opacity="0.2" d="M4 214V154H64" fill="white"/>
<path d="M17.1799 178.58C18.0099 177.74 18.8099 176.93 19.5899 176.14C20.3699 175.35 21.0699 174.59 21.6799 173.85C22.2899 173.11 22.7799 172.39 23.1399 171.68C23.4999 170.97 23.6799 170.29 23.6799 169.64C23.6799 169.09 23.5699 168.64 23.3399 168.29C23.1099 167.94 22.8199 167.68 22.4499 167.51C22.0799 167.34 21.6899 167.26 21.2799 167.26C20.7199 167.26 20.2699 167.37 19.9299 167.6C19.5899 167.83 19.3399 168.1 19.1799 168.43C19.0199 168.76 18.9399 169.07 18.9399 169.38C18.9399 170.25 19.1999 170.94 19.7199 171.46L18.4199 172.64C18.0999 172.44 17.8299 172.15 17.5999 171.77C17.3699 171.39 17.1999 170.99 17.0799 170.57C16.9599 170.15 16.8999 169.77 16.8999 169.44C16.8999 168.71 17.0799 168.02 17.4399 167.39C17.7999 166.76 18.3299 166.24 19.0399 165.84C19.7499 165.44 20.6099 165.24 21.6199 165.24C22.4699 165.24 23.2099 165.44 23.8399 165.83C24.4699 166.22 24.9599 166.74 25.3099 167.38C25.6599 168.02 25.8399 168.72 25.8399 169.48C25.8399 170.32 25.6399 171.13 25.2299 171.92C24.8199 172.71 24.3099 173.49 23.6799 174.26C23.0499 175.03 22.4099 175.8 21.7399 176.56H26.2399V178.58H17.1799Z" fill="white"/>
<path d="M250 300H0V400H250V300Z" fill="#0A2270"/>
<path d="M112.5 345.58H105.26V343.7H112.5V345.58ZM112 358.02H108.06V358.8H106.1V351.98H112V358.02ZM106.16 346.48H112.04V348.3H106.16V346.48ZM106.16 349.22H112.04V351H106.16V349.22ZM111.92 342.82H106.22V341.02H111.92V342.82ZM108.06 353.86V356.16H110.02V353.86H108.06ZM118.68 354.7L118.84 356.66C116.78 357.12 114.6 357.58 112.88 357.94L112.4 355.76C113 355.68 113.7 355.56 114.46 355.44V350.54H112.78V348.5H118.22V350.54H116.66V355.06L118.68 354.7ZM120.78 346.34C120.92 352.06 121.38 356.08 122.14 356.14C122.4 356.14 122.56 355.22 122.64 353.72C123 354.24 123.94 354.9 124.3 355.14C123.78 358.4 122.78 359.1 122.04 359.08C119.56 359.02 118.82 354.3 118.58 346.34H112.8V344.18H118.52C118.5 342.98 118.48 341.74 118.48 340.42H120.76V341.42L122.36 340.6C123 341.34 123.74 342.36 124.08 343.04L122.36 344C122.06 343.32 121.38 342.26 120.76 341.48C120.74 342.4 120.74 343.3 120.76 344.18H123.72V346.34H120.78Z" fill="white"/>
<path d="M132.76 341.2C132.24 342.6 131.58 344.02 130.84 345.36V359.06H128.44V349.06C128.02 349.56 127.6 350.06 127.2 350.5C126.98 349.92 126.3 348.56 125.88 347.96C127.7 346.16 129.44 343.32 130.44 340.48L132.76 341.2ZM139.1 345.92V348.02H144.28V350.18H139.1V352.44H144.54V354.64H139.1V359.08H136.66V345.92H135.9C135.1 347.4 134.18 348.76 133.28 349.8C132.9 349.36 131.96 348.52 131.46 348.14C133.22 346.34 134.8 343.46 135.7 340.6L138 341.18C137.72 342.02 137.4 342.84 137.02 343.66H144.78V345.92H139.1Z" fill="white"/>
<path opacity="0.2" d="M4 364V304H64" fill="white"/>
<path d="M25.1699 315.4L22.2299 320.26C22.8199 320.3 23.3699 320.46 23.8799 320.73C24.3899 321 24.8099 321.42 25.1199 321.99C25.4299 322.56 25.5899 323.29 25.5899 324.2C25.5899 325.11 25.3799 325.94 24.9499 326.62C24.5199 327.3 23.9599 327.82 23.2499 328.19C22.5399 328.56 21.7599 328.74 20.9099 328.74C20.2699 328.74 19.6299 328.61 18.9799 328.34C18.3299 328.07 17.7999 327.73 17.3899 327.3L18.4499 325.58C18.6899 325.87 19.0299 326.14 19.4699 326.37C19.9099 326.6 20.3799 326.72 20.8699 326.72C21.5599 326.72 22.1599 326.48 22.6699 326.01C23.1799 325.54 23.4299 324.89 23.4299 324.08C23.4299 323.35 23.2199 322.77 22.7899 322.34C22.3599 321.91 21.7799 321.7 21.0299 321.7C20.6399 321.7 20.3199 321.73 20.0699 321.78C19.8199 321.83 19.5799 321.9 19.3699 321.98L19.2899 321.9L22.1099 317.42H18.2099V315.4H25.1699Z" fill="white"/>
<path d="M250 450H0V550H250V450Z" fill="#0A2270"/>
<path d="M66.08 495.58H58.26V493.7H66.08V495.58ZM65.34 508.02H61.16V508.8H59.14V501.98H65.34V508.02ZM59.2 496.48H65.36V498.3H59.2V496.48ZM59.2 499.22H65.36V501H59.2V499.22ZM65.32 492.82H59.28V491.02H65.32V492.82ZM61.16 503.86V506.16H63.28V503.86H61.16ZM76.95 502.28H72.53V509.06H70.19V502.28H65.77V500.02H70.19V493.6H66.47V491.38H76.59V493.6H72.53V500.02H76.95V502.28ZM68.54 494.42C68.98 495.9 69.36 497.78 69.44 499.02L67.44 499.5C67.38 498.24 67.04 496.32 66.62 494.82L68.54 494.42ZM73.12 499C73.56 497.72 74.02 495.7 74.22 494.26L76.48 494.7C75.98 496.38 75.44 498.26 74.94 499.46L73.12 499Z" fill="white"/>
<path d="M85.18 491.12C84.68 492.44 84.06 493.78 83.38 495.06V509.06H81.14V498.62C80.74 499.16 80.34 499.66 79.92 500.1C79.7 499.54 79.08 498.28 78.7 497.7C80.42 495.96 82.06 493.2 83.04 490.44L85.18 491.12ZM93.96 494.48V496.98H97.34V508.52H95.06V507.5H87.14V508.64H84.94V496.98H88.16V494.48H84.74V492.36H97.44V494.48H93.96ZM87.14 505.46H88.38V499.04H87.14V505.46ZM90.38 499.04V505.46H91.72V499.04H90.38ZM91.72 494.48H90.4V496.98H91.72V494.48ZM95.06 499.04H93.72V505.46H95.06V499.04Z" fill="white"/>
<path d="M104.2 497.18C105.6 497.18 106.76 498.34 106.76 499.74C106.76 501.14 105.6 502.3 104.2 502.3C102.8 502.3 101.64 501.14 101.64 499.74C101.64 498.34 102.8 497.18 104.2 497.18Z" fill="white"/>
<path d="M129.32 508.3H121.7V509.08H119.46V500.36C119.32 500.46 119.18 500.58 119.04 500.68C118.8 500.38 118.3 499.78 117.86 499.32V506.68H114.24V508.24H112.32V503.18C112.1 503.56 111.86 503.94 111.6 504.28C111.38 503.74 110.76 502.54 110.34 502.02C111.74 500.02 112.5 497 112.96 493.74H111.02V491.58H118.18V492.26H122.24C122.44 491.66 122.62 491.04 122.76 490.4L125 490.8C124.88 491.3 124.74 491.78 124.6 492.26H129.22V495.9H127.12V494.26H123.86C123.5 495.16 123.06 495.98 122.6 496.76H124.2C124.48 496.08 124.76 495.34 124.9 494.74L127.06 495.2C126.82 495.74 126.56 496.26 126.3 496.76H128.86V498.72H125.84V500.06H128.42V501.8H125.84V503.22H128.42V504.94H125.84V506.36H129.32V508.3ZM115.86 499.48H114.24V504.62H115.86V499.48ZM117.86 498.6C119.34 497.5 120.54 496.02 121.42 494.26H120.02V495.9H118V493.74H115.18C115 495 114.76 496.24 114.48 497.44H117.86V498.6ZM123.66 498.72H121.7V500.06H123.66V498.72ZM123.66 501.8H121.7V503.22H123.66V501.8ZM121.7 506.36H123.66V504.94H121.7V506.36Z" fill="white"/>
<path d="M138.72 495.58H131.46V493.7H138.72V495.58ZM138.2 506.8C138.94 505.8 139.3 504.22 139.48 502.68L141.36 503.16C141.16 504.94 140.8 506.84 139.82 508.02L138.2 507.04V508.02H134.26V508.8H132.3V501.98H138.2V506.8ZM138.18 498.3H132.36V496.48H138.18V498.3ZM132.36 499.22H138.18V501H132.36V499.22ZM138.12 492.82H132.42V491.02H138.12V492.82ZM136.22 503.86H134.26V506.16H136.22V503.86ZM140.42 493.76C141.02 493.94 141.66 494.18 142.3 494.42C142.42 494 142.52 493.58 142.6 493.16H139.6V491.18H149.52C149.52 491.18 149.52 491.78 149.5 492.06C149.3 496.58 149.1 498.44 148.56 499.08C148.18 499.58 147.8 499.76 147.24 499.84C146.76 499.92 145.94 499.94 145.08 499.92C145.04 499.28 144.82 498.4 144.52 497.84C144.18 497.62 143.82 497.4 143.42 497.18C142.7 498.46 141.62 499.58 139.98 500.44C139.74 499.92 139.12 499.14 138.64 498.76C140.02 498.1 140.92 497.22 141.52 496.24C140.78 495.92 140.02 495.62 139.32 495.4L140.42 493.76ZM145.16 506.88C145.54 506.88 145.62 506.62 145.68 504.78C146.08 505.14 147.02 505.48 147.62 505.64C147.4 508.26 146.82 508.92 145.4 508.92H143.76C141.88 508.92 141.5 508.26 141.5 506.28V501.9H143.7V506.26C143.7 506.8 143.74 506.88 144.1 506.88H145.16ZM143.32 499.14C144.6 499.8 146.14 500.82 146.9 501.68L145.42 503.2C144.74 502.38 143.22 501.26 141.94 500.52L143.32 499.14ZM144.74 493.16C144.62 493.88 144.46 494.6 144.24 495.3C144.94 495.64 145.58 495.98 146.06 496.3L145.1 497.84C145.52 497.86 145.86 497.86 146.06 497.86C146.34 497.88 146.52 497.82 146.66 497.6C146.94 497.3 147.1 496.12 147.24 493.16H144.74ZM148.26 502.22C149.32 503.74 150.16 505.78 150.44 507.16L148.34 508.02C148.14 506.64 147.32 504.52 146.34 502.98L148.26 502.22Z" fill="white"/>
<path d="M159.5 495.58H152.26V493.7H159.5V495.58ZM159 508.02H155.06V508.8H153.1V501.98H159V508.02ZM153.16 496.48H159.04V498.3H153.16V496.48ZM153.16 499.22H159.04V501H153.16V499.22ZM158.92 492.82H153.22V491.02H158.92V492.82ZM155.06 503.86V506.16H157.02V503.86H155.06ZM165.68 504.7L165.84 506.66C163.78 507.12 161.6 507.58 159.88 507.94L159.4 505.76C160 505.68 160.7 505.56 161.46 505.44V500.54H159.78V498.5H165.22V500.54H163.66V505.06L165.68 504.7ZM167.78 496.34C167.92 502.06 168.38 506.08 169.14 506.14C169.4 506.14 169.56 505.22 169.64 503.72C170 504.24 170.94 504.9 171.3 505.14C170.78 508.4 169.78 509.1 169.04 509.08C166.56 509.02 165.82 504.3 165.58 496.34H159.8V494.18H165.52C165.5 492.98 165.48 491.74 165.48 490.42H167.76V491.42L169.36 490.6C170 491.34 170.74 492.36 171.08 493.04L169.36 494C169.06 493.32 168.38 492.26 167.76 491.48C167.74 492.4 167.74 493.3 167.76 494.18H170.72V496.34H167.78Z" fill="white"/>
<path d="M172.84 507.3C173.52 506.28 173.76 504.6 173.84 502.9L175.16 503.16C175.06 504.98 174.86 506.84 174.04 507.96L172.84 507.3ZM188.22 503.5C189.02 505.12 190.28 506.46 191.96 507.18C191.48 507.62 190.8 508.46 190.46 509.06C188.8 508.2 187.58 506.7 186.72 504.84C186 506.46 184.66 507.96 182.28 509.12C182.04 508.72 181.54 508.12 181.12 507.72C181.04 507.98 180.96 508.16 180.86 508.28C180.52 508.74 180.16 508.92 179.66 508.98C179.26 509.06 178.62 509.08 177.9 509.04C177.88 508.48 177.7 507.7 177.42 507.2C177.94 507.26 178.38 507.28 178.64 507.28C178.88 507.28 179.02 507.22 179.18 507.02C179.32 506.82 179.42 506.32 179.52 505.28L178.88 505.52C178.76 504.82 178.36 503.74 177.98 502.94L178.92 502.62C179.18 503.12 179.42 503.7 179.6 504.24C179.64 503.64 179.68 502.9 179.72 502.04H174V491.14H181.36V493.06H179.22V494.16H180.96V495.22C182.76 494.14 184.5 492.08 185.32 490.42H187.36C188.56 492.26 190.3 494.08 192.06 494.92C191.64 495.48 191.18 496.34 190.88 496.96C190.44 496.7 190 496.4 189.58 496.04V497.14H187.58V498.22H191.16V503.5H188.22ZM176.36 503.22C176.54 504.38 176.62 505.92 176.56 506.88L175.48 507.02C175.54 506.02 175.48 504.5 175.34 503.32L176.36 503.22ZM175.96 493.06V494.16H177.32V493.06H175.96ZM175.96 495.96V497.16H177.32V495.96H175.96ZM175.96 500.2H177.32V498.96H175.96V500.2ZM177.7 503.02C178.02 504.06 178.3 505.38 178.36 506.24L177.32 506.46C177.28 505.6 177.02 504.26 176.7 503.22L177.7 503.02ZM181.74 500.2C181.74 500.2 181.74 500.72 181.72 500.98C181.58 504.28 181.46 506.2 181.24 507.26C183.3 506.22 184.38 504.9 184.92 503.5H182.08V498.22H185.48V497.14H183.44V496.06C182.94 496.48 182.44 496.88 181.9 497.2C181.68 496.68 181.3 495.98 180.96 495.48V495.96H179.22V497.16H180.96V498.96H179.22V500.2H181.74ZM185.36 501.78C185.46 501.18 185.48 500.58 185.48 500V499.94H184.02V501.78H185.36ZM188.76 495.32C187.82 494.44 186.98 493.4 186.42 492.48C185.9 493.38 185.12 494.4 184.22 495.32H188.76ZM187.58 499.94V500.02C187.58 500.6 187.56 501.18 187.5 501.78H189.14V499.94H187.58Z" fill="white"/>
<path opacity="0.2" d="M4 514V454H64" fill="white"/>
<path d="M16.47 475.44V475.42L24.57 465.24H24.59V473.84H26.29V475.44H24.59V478.58H22.49V475.44H16.47ZM22.49 470.1L19.61 473.84H22.49V470.1Z" fill="white"/>
<path d="M250 600H0V700H250V600Z" fill="#0A2270"/>
<path d="M82.0399 656.18V658.52H64.0599V656.18H71.7799V652.16H66.3599V649.86H71.7799V646.34H67.6399C67.0599 647.44 66.4399 648.46 65.7799 649.24C65.2999 648.86 64.2399 648.14 63.6399 647.82C65.1999 646.14 66.4999 643.38 67.1799 640.66L69.6399 641.2C69.3599 642.16 69.0399 643.1 68.6999 644.02H71.7799V640.42H74.2799V644.02H81.0199V646.34H74.2799V649.86H80.2599V652.16H74.2799V656.18H82.0399Z" fill="white"/>
<path d="M102.84 646V648.04H88.34V649.24C88.34 652.04 87.98 656.28 86.1 659.02C85.74 658.6 84.74 657.78 84.26 657.52C85.9 655.08 86.06 651.6 86.06 649.22V646H89.68C89.52 645.38 89.24 644.62 88.92 644L89.36 643.88H85.9V641.86H92.66V640.4H95.04V641.86H101.86V643.88H99.38C98.92 644.64 98.48 645.4 98.1 646H102.84ZM96.78 656.72H102.72V658.68H88.7V656.72H94.44V654.96H90.26V653.16L90.12 653.3C89.68 652.94 88.78 652.4 88.24 652.16C89.34 651.2 90.26 649.72 90.76 648.26L92.86 648.74C92.74 649.1 92.58 649.46 92.42 649.82H94.44V648.34H96.78V649.82H101.64V651.64H96.78V653.14H101.06V654.96H96.78V656.72ZM94.44 653.14V651.64H91.42C91.06 652.2 90.66 652.72 90.28 653.14H94.44ZM91.34 643.88C91.68 644.54 91.96 645.3 92.08 645.84L91.48 646H96.18L95.82 645.9C96.08 645.32 96.34 644.56 96.54 643.88H91.34Z" fill="white"/>
<path d="M123.74 655.3V657.7H105.56V655.3H113.18V644.96H106.64V642.48H122.62V644.96H115.9V655.3H123.74Z" fill="white"/>
<path d="M132.64 653.28C132.4 652.76 131.92 651.98 131.44 651.26V659.06H129.14V651.88C128.5 653.42 127.74 654.84 126.96 655.84C126.74 655.16 126.24 654.18 125.86 653.58C126.98 652.28 128.08 650.16 128.82 648.22H126.28V646H129.14V643.68C128.3 643.84 127.48 643.98 126.7 644.08C126.58 643.54 126.3 642.74 126.04 642.26C128.24 641.88 130.7 641.3 132.24 640.6L133.82 642.42C133.1 642.7 132.3 642.96 131.44 643.18V646H133.58V648.22H131.44V648.8C131.98 649.24 133.62 650.98 134 651.42L132.64 653.28ZM144.72 656.56V658.64H133.16V656.56H137.92V654.8H134.42V652.8H137.92V651.14H133.94V649.1H144.3V651.14H140.28V652.8H143.82V654.8H140.28V656.56H144.72ZM143.76 647.9H134.58V641.14H143.76V647.9ZM141.44 643.14H136.78V645.9H141.44V643.14Z" fill="white"/>
<path d="M154.68 645.58H146.86V643.7H154.68V645.58ZM164.66 649.46C164.02 651.88 162.96 653.78 161.58 655.28C162.76 656.04 164.16 656.62 165.7 657C165.18 657.5 164.5 658.44 164.16 659.06C162.48 658.56 161.02 657.82 159.76 656.88C158.42 657.82 156.88 658.54 155.18 659.06C154.94 658.48 154.38 657.54 153.94 657V658.02H149.76V658.8H147.74V651.98H153.94V656.96C155.44 656.58 156.8 656.02 157.98 655.24C157.06 654.24 156.3 653.08 155.68 651.78L157.72 651.12H154.94V648.98H155.62C155.28 648.58 154.44 647.86 153.96 647.54V648.3H147.8V646.48H153.96V647.44C155.68 646.26 155.9 644.68 155.9 643.34V640.96H162.6V645.44C162.6 646 162.64 646.06 162.86 646.06H163.36C163.62 646.06 163.7 645.8 163.72 644.06C164.16 644.4 165.08 644.74 165.66 644.9C165.46 647.38 164.94 648.08 163.6 648.08H162.44C160.84 648.08 160.38 647.46 160.38 645.48V643.06H158.14V643.4C158.14 645.28 157.74 647.56 155.66 648.98H162.7L163.1 648.88L164.66 649.46ZM153.96 651H147.8V649.22H153.96V651ZM153.92 642.82H147.88V641.02H153.92V642.82ZM151.88 653.86H149.76V656.16H151.88V653.86ZM157.78 651.12C158.26 652.12 158.92 653.02 159.72 653.82C160.5 653.04 161.12 652.14 161.6 651.12H157.78Z" fill="white"/>
<path d="M175.84 645.58H167.66V643.7H175.84V645.58ZM174.98 658.02H170.62V658.8H168.56V651.98H174.98V658.02ZM168.62 646.48H175.04V648.3H168.62V646.48ZM168.62 649.22H175.04V651H168.62V649.22ZM175.08 642.82H168.74V641.02H175.08V642.82ZM170.62 653.86V656.16H172.9V653.86H170.62ZM186.52 649.44H182.34V659.08H179.94V649.44H175.76V647.08H179.94V640.48H182.34V647.08H186.52V649.44Z" fill="white"/>
<path opacity="0.2" d="M4 664V604H64" fill="white"/>
<path d="M21.2701 628.74C20.5601 628.74 19.8801 628.61 19.2101 628.34C18.5401 628.07 18.0101 627.75 17.6101 627.36L18.7101 625.72C18.9801 626.01 19.3301 626.26 19.7801 626.45C20.2301 626.64 20.6701 626.74 21.1101 626.74C21.8001 626.74 22.3701 626.52 22.8201 626.07C23.2701 625.62 23.4901 625.04 23.4901 624.32C23.4901 623.56 23.2801 622.93 22.8601 622.43C22.4401 621.93 21.8201 621.68 20.9901 621.68C20.5401 621.68 20.1101 621.74 19.7201 621.87C19.3301 622 18.9101 622.19 18.4701 622.44H18.4501V615.4H24.7901V617.42H20.2701V620.06C20.6701 619.97 21.0801 619.92 21.4901 619.92C22.4001 619.92 23.1601 620.12 23.7801 620.52C24.4001 620.92 24.8701 621.45 25.1801 622.1C25.4901 622.75 25.6501 623.47 25.6501 624.26C25.6501 625.1 25.4601 625.86 25.0801 626.54C24.7001 627.22 24.1801 627.76 23.5201 628.15C22.8601 628.54 22.1101 628.74 21.2701 628.74Z" fill="white"/>
<path d="M250 750H0V850H250V750Z" fill="#E6E6E6"/>
<path d="M123.64 806.18V808.52H105.66V806.18H113.38V802.16H107.96V799.86H113.38V796.34H109.24C108.66 797.44 108.04 798.46 107.38 799.24C106.9 798.86 105.84 798.14 105.24 797.82C106.8 796.14 108.1 793.38 108.78 790.66L111.24 791.2C110.96 792.16 110.64 793.1 110.3 794.02H113.38V790.42H115.88V794.02H122.62V796.34H115.88V799.86H121.86V802.16H115.88V806.18H123.64Z" fill="black"/>
<path d="M144.44 796V798.04H129.94V799.24C129.94 802.04 129.58 806.28 127.7 809.02C127.34 808.6 126.34 807.78 125.86 807.52C127.5 805.08 127.66 801.6 127.66 799.22V796H131.28C131.12 795.38 130.84 794.62 130.52 794L130.96 793.88H127.5V791.86H134.26V790.4H136.64V791.86H143.46V793.88H140.98C140.52 794.64 140.08 795.4 139.7 796H144.44ZM138.38 806.72H144.32V808.68H130.3V806.72H136.04V804.96H131.86V803.16L131.72 803.3C131.28 802.94 130.38 802.4 129.84 802.16C130.94 801.2 131.86 799.72 132.36 798.26L134.46 798.74C134.34 799.1 134.18 799.46 134.02 799.82H136.04V798.34H138.38V799.82H143.24V801.64H138.38V803.14H142.66V804.96H138.38V806.72ZM136.04 803.14V801.64H133.02C132.66 802.2 132.26 802.72 131.88 803.14H136.04ZM132.94 793.88C133.28 794.54 133.56 795.3 133.68 795.84L133.08 796H137.78L137.42 795.9C137.68 795.32 137.94 794.56 138.14 793.88H132.94Z" fill="black"/>
<path opacity="0.6" d="M4 814V754H64" fill="white"/>
<path d="M21.6501 778.74C20.7601 778.74 19.9501 778.53 19.2201 778.1C18.4901 777.67 17.9201 777.06 17.4901 776.27C17.0601 775.48 16.8501 774.53 16.8501 773.42C16.8501 772.57 17.0201 771.75 17.3501 770.98C17.6801 770.21 18.1301 769.48 18.7001 768.8C19.2701 768.12 19.9101 767.48 20.6301 766.89C21.3501 766.3 22.1001 765.76 22.8701 765.26L24.2701 766.78C23.0401 767.37 22.0501 768.05 21.2901 768.82C20.5301 769.59 19.9801 770.36 19.6301 771.12C19.9601 770.79 20.3501 770.53 20.8001 770.36C21.2501 770.19 21.7601 770.1 22.3501 770.1C23.0301 770.1 23.6701 770.28 24.2701 770.64C24.8701 771 25.3601 771.5 25.7301 772.13C26.1001 772.76 26.2901 773.49 26.2901 774.3C26.2901 775.21 26.0701 775.99 25.6301 776.66C25.1901 777.33 24.6201 777.84 23.9201 778.2C23.2201 778.56 22.4601 778.74 21.6501 778.74ZM21.5701 776.86C22.2801 776.86 22.8801 776.63 23.3801 776.17C23.8801 775.71 24.1301 775.09 24.1301 774.32C24.1301 773.55 23.8801 772.98 23.3801 772.53C22.8801 772.08 22.2801 771.86 21.5701 771.86C21.0901 771.86 20.6601 771.96 20.2701 772.15C19.8801 772.34 19.5801 772.61 19.3501 772.94C19.1201 773.27 19.0101 773.64 19.0101 774.04V774.42C19.0101 774.85 19.1201 775.25 19.3501 775.62C19.5801 775.99 19.8801 776.29 20.2701 776.52C20.6601 776.75 21.0901 776.86 21.5701 776.86Z" fill="black"/>
<path d="M250 900H0V1000H250V900Z" fill="#E6E6E6"/>
<path d="M115.78 945.24V947.34H122.08V954.1C122.08 955.24 121.84 955.92 121.02 956.28C120.18 956.64 119.04 956.68 117.48 956.68C117.38 956 117.02 954.98 116.68 954.34C117.68 954.38 118.86 954.38 119.18 954.38C119.5 954.38 119.6 954.28 119.6 954.06V949.66H115.78V959.1H113.3V949.66H109.8V956.68H107.4V947.34H113.3V945.24H105.52V942.92H113.28V940.32H115.82V942.92H123.76V945.24H115.78Z" fill="black"/>
<path d="M136.78 950.42C136.62 950.74 136.42 951.06 136.22 951.38H144.34C144.34 951.38 144.32 951.92 144.3 952.2C144.02 956.1 143.7 957.7 143.16 958.28C142.78 958.74 142.34 958.9 141.84 958.96C141.38 959.02 140.62 959.04 139.82 959C139.78 958.44 139.58 957.64 139.28 957.14C139.92 957.2 140.44 957.2 140.7 957.2C140.98 957.2 141.14 957.16 141.3 956.98C141.58 956.68 141.82 955.66 142.04 953.24H141.26C140.44 955.48 138.88 957.9 137.26 959.16C136.86 958.7 136.18 958.16 135.58 957.84C137.1 956.88 138.44 955.1 139.3 953.24H138.12C137.04 955.16 135.18 957.16 133.44 958.26C133.06 957.8 132.44 957.2 131.88 956.86C133.36 956.12 134.9 954.72 135.96 953.24H134.76C134.04 954 133.26 954.68 132.44 955.2C132.14 954.82 131.38 954.12 130.88 953.8C129.44 954.52 128 955.24 126.78 955.84L125.9 953.44C126.58 953.18 127.42 952.84 128.36 952.46V946.82H126.36V944.58H128.36V940.64H130.56V944.58H132.44V946.82H130.56V951.54L132.16 950.84L132.58 952.54C133.3 951.92 133.92 951.2 134.42 950.42H132.16V948.42H144.74V950.42H136.78ZM143.38 947.66H133.92V940.9H143.38V947.66ZM141.18 942.54H136.02V943.5H141.18V942.54ZM141.18 945.06H136.02V946.02H141.18V945.06Z" fill="black"/>
<path opacity="0.6" d="M4 964V904H64" fill="white"/>
<path d="M26.0101 915.4L20.7901 928.58H18.4301L22.9501 917.42H17.3301V915.4H26.0101Z" fill="black"/>
<path d="M352 0.5H318C313.858 0.5 310.5 3.85786 310.5 8V146C310.5 150.142 313.858 153.5 318 153.5H352C356.142 153.5 359.5 150.142 359.5 146V8C359.5 3.85786 356.142 0.5 352 0.5Z" fill="#E6E9F1"/>
<path d="M352 1C355.86 1 359 4.14 359 8V146C359 149.86 355.86 153 352 153H318C314.14 153 311 149.86 311 146V8C311 4.14 314.14 1 318 1H352ZM352 0H318C313.6 0 310 3.6 310 8V146C310 150.4 313.6 154 318 154H352C356.4 154 360 150.4 360 146V8C360 3.6 356.4 0 352 0Z" fill="#0A2270"/>
<path d="M352 165.83H318C313.858 165.83 310.5 169.188 310.5 173.33V421.33C310.5 425.472 313.858 428.83 318 428.83H352C356.142 428.83 359.5 425.472 359.5 421.33V173.33C359.5 169.188 356.142 165.83 352 165.83Z" fill="#E6E9F1"/>
<path d="M352 166.33C355.86 166.33 359 169.47 359 173.33V421.33C359 425.19 355.86 428.33 352 428.33H318C314.14 428.33 311 425.19 311 421.33V173.33C311 169.47 314.14 166.33 318 166.33H352ZM352 165.33H318C313.6 165.33 310 168.93 310 173.33V421.33C310 425.73 313.6 429.33 318 429.33H352C356.4 429.33 360 425.73 360 421.33V173.33C360 168.93 356.4 165.33 352 165.33Z" fill="#0A2270"/>
<path d="M352 746.5H318C313.858 746.5 310.5 749.858 310.5 754V992C310.5 996.142 313.858 999.5 318 999.5H352C356.142 999.5 359.5 996.142 359.5 992V754C359.5 749.858 356.142 746.5 352 746.5Z" fill="#E6E9F1"/>
<path d="M352 747C355.86 747 359 750.14 359 754V992C359 995.86 355.86 999 352 999H318C314.14 999 311 995.86 311 992V754C311 750.14 314.14 747 318 747H352ZM352 746H318C313.6 746 310 749.6 310 754V992C310 996.4 313.6 1000 318 1000H352C356.4 1000 360 996.4 360 992V754C360 749.6 356.4 746 352 746Z" fill="#0A2270"/>
<path d="M352 441.17H318C313.858 441.17 310.5 444.528 310.5 448.67V726.67C310.5 730.812 313.858 734.17 318 734.17H352C356.142 734.17 359.5 730.812 359.5 726.67V448.67C359.5 444.528 356.142 441.17 352 441.17Z" fill="#E6E9F1"/>
<path d="M352 441.67C355.86 441.67 359 444.81 359 448.67V726.67C359 730.53 355.86 733.67 352 733.67H318C314.14 733.67 311 730.53 311 726.67V448.67C311 444.81 314.14 441.67 318 441.67H352ZM352 440.67H318C313.6 440.67 310 444.27 310 448.67V726.67C310 731.07 313.6 734.67 318 734.67H352C356.4 734.67 360 731.07 360 726.67V448.67C360 444.27 356.4 440.67 352 440.67Z" fill="#0A2270"/>
<path d="M339.77 34.97C339.09 36.88 338.02 39.47 336.53 41.4C334.93 43.43 332.41 45.4 329.87 46.42L328.63 45.16C331.28 44.24 333.73 42.46 335.33 40.46C336.97 38.41 338.16 35.51 338.66 32.97L340.35 33.4C340.13 33.89 339.94 34.52 339.77 34.97Z" fill="black"/>
<path d="M341.39 49.62C340.17 50.86 338.46 52.32 336.64 53.45V61.03C336.64 61.7 336.68 62.56 336.75 62.9H335.02C335.07 62.58 335.11 61.69 335.11 61.03V54.35C333.22 55.38 330.79 56.4 328.47 57.09L327.66 55.72C330.61 55.02 333.62 53.68 335.58 52.46C337.38 51.36 339.24 49.8 340.23 48.55L341.4 49.61L341.39 49.62Z" fill="black"/>
<path d="M339.95 69.54C339.84 69.68 339.61 70.08 339.52 70.31C338.91 71.84 337.79 73.91 336.55 75.51C338.4 77.11 340.56 79.38 341.72 80.79L340.48 81.87C339.29 80.29 337.42 78.21 335.62 76.59C333.69 78.63 331.32 80.55 328.71 81.76L327.58 80.57C330.44 79.47 333.05 77.36 334.87 75.33C336.08 73.96 337.37 71.85 337.8 70.4H330.9C330.27 70.4 329.32 70.47 329.12 70.49V68.89C329.35 68.93 330.36 69 330.9 69H337.74C338.32 69 338.78 68.95 339.05 68.86L339.95 69.54ZM340.03 69.53C339.69 68.81 339.09 67.75 338.61 67.08L339.55 66.67C340 67.32 340.63 68.38 341.01 69.1L340.04 69.53H340.03ZM341.56 66.05C342.03 66.7 342.71 67.8 343.04 68.46L342.09 68.89C341.71 68.12 341.14 67.11 340.63 66.46L341.57 66.05H341.56Z" fill="black"/>
<path d="M343 87.09H340.79V99.01C340.79 99.98 340.56 100.45 339.87 100.65C339.15 100.9 337.91 100.9 336.14 100.9C336.05 100.52 335.78 99.86 335.56 99.48C337 99.55 338.48 99.53 338.89 99.52C339.29 99.5 339.41 99.38 339.41 99V87.1H327.06V85.77H342.99V87.1L343 87.09ZM330.2 96.4V97.84H328.9V89.72H336.21V96.4H330.2ZM330.2 91.02V95.12H334.9V91.02H330.2Z" fill="black"/>
<path d="M333.13 114.37C332.71 113.81 331.76 112.79 330.99 112.01V119.64H329.68V112.71C328.83 113.57 327.97 114.33 327.1 114.91C326.97 114.57 326.61 113.96 326.42 113.7C328.46 112.44 330.58 110.17 331.77 107.79H327.07V106.57H329.68V103.22H330.99V106.57H332.47L332.7 106.52L333.44 107.01C332.92 108.34 332.16 109.64 331.3 110.81C332.09 111.48 333.59 112.88 333.97 113.3L333.14 114.38L333.13 114.37ZM341.74 118.38C342.15 118.38 342.23 118.13 342.28 116.22C342.51 116.44 343.02 116.63 343.38 116.72C343.25 118.95 342.91 119.49 341.89 119.49H340.22C338.98 119.49 338.69 119.13 338.69 117.87V114.14H337.23C336.91 116.73 336.02 118.59 333.18 119.63C333.04 119.34 332.68 118.86 332.41 118.6C334.93 117.75 335.67 116.22 335.96 114.14H334.54V104.11H342.05V114.14H339.91V117.87C339.91 118.3 339.98 118.37 340.41 118.37H341.76L341.74 118.38ZM335.74 107.11H340.73V105.24H335.74V107.11ZM335.74 110.06H340.73V108.15H335.74V110.06ZM335.74 113.04H340.73V111.13H335.74V113.04Z" fill="black"/>
<path d="M332.95 122.64C332.41 123.92 331.73 125.2 330.95 126.39V138.33H329.6V128.28C328.84 129.23 328.05 130.1 327.26 130.82C327.12 130.5 326.7 129.79 326.45 129.47C328.5 127.76 330.48 125.04 331.67 122.21L332.95 122.64ZM340.8 136.85C341.79 136.85 341.95 136.2 342.08 133.59C342.42 133.82 342.96 134.08 343.36 134.17C343.14 137.09 342.75 138.11 340.89 138.11H337.2C335.33 138.11 334.75 137.57 334.75 135.61V122.36H336.1V129.06C338.1 127.94 340.15 126.54 341.48 125.33L342.43 126.48C340.74 127.85 338.32 129.22 336.09 130.41V135.63C336.09 136.64 336.29 136.85 337.28 136.85H340.79H340.8Z" fill="black"/>
<path d="M334.16 24C335.541 24 336.66 22.8807 336.66 21.5C336.66 20.1193 335.541 19 334.16 19C332.779 19 331.66 20.1193 331.66 21.5C331.66 22.8807 332.779 24 334.16 24Z" fill="black"/>
<path d="M326.81 203.02H336.06V204.24H326.81V203.02ZM335.81 199.25H327.27V198.08H330.87V196.15H332.15V198.08H335.81V199.25ZM328.02 205.81H335.06V212.44H333.76V211.49H329.26V212.55H328.02V205.82V205.81ZM329.17 202.8C329.08 202.01 328.76 200.8 328.38 199.88L329.5 199.65C329.91 200.53 330.24 201.76 330.33 202.53L329.18 202.8H329.17ZM329.26 207V210.31H333.76V207H329.26ZM332.52 202.59C332.86 201.76 333.31 200.43 333.53 199.53L334.79 199.84C334.41 200.88 333.98 202.07 333.6 202.86L332.52 202.59ZM343.27 197.72C342.53 199.41 341.61 201.48 340.77 203.12C342.57 204.78 343.02 206.2 343.04 207.48C343.04 208.58 342.79 209.41 342.16 209.82C341.84 210.04 341.46 210.16 340.99 210.22C340.54 210.27 339.95 210.27 339.42 210.26C339.4 209.88 339.28 209.31 339.04 208.93C339.6 208.98 340.08 208.98 340.46 208.97C340.73 208.95 341.02 208.9 341.23 208.77C341.61 208.54 341.72 208 341.72 207.35C341.72 206.22 341.22 204.88 339.4 203.32C340.14 201.81 340.93 199.86 341.49 198.42H338.09V212.54H336.79V197.16H342.08L342.3 197.11L343.27 197.74V197.72Z" fill="black"/>
<path d="M327.55 223.43H333.91V231.1H332.6V230.29H328.84V231.26H327.56V223.43H327.55ZM328.83 224.73V229H332.59V224.73H328.83ZM339.95 221.54H330.16V215.58H339.95V221.54ZM338.6 216.86H331.45V220.26H338.6V216.86ZM342.57 223.43V231.14H341.26V230.29H337.17V231.26H335.87V223.43H342.57ZM341.25 228.99V224.72H337.16V228.99H341.25Z" fill="black"/>
<path d="M333.71 234.53C333.64 234.85 333.57 235.21 333.49 235.56C333.4 236.06 333.22 237.09 333.04 238.03C333.85 237.98 334.57 237.92 334.99 237.92C336.56 237.92 337.83 238.53 337.83 240.89C337.83 242.96 337.54 245.7 336.8 247.16C336.24 248.33 335.4 248.62 334.26 248.62C333.59 248.62 332.75 248.49 332.19 248.35L331.97 246.89C332.71 247.11 333.63 247.25 334.11 247.25C334.76 247.25 335.26 247.12 335.62 246.37C336.18 245.2 336.43 242.93 336.43 241.04C336.43 239.46 335.71 239.19 334.61 239.19C334.2 239.19 333.49 239.24 332.74 239.3C332.11 241.8 330.92 245.71 329.09 248.66L327.65 248.08C329.43 245.72 330.73 241.78 331.32 239.44C330.4 239.53 329.56 239.62 329.11 239.67C328.7 239.72 328.01 239.81 327.54 239.89L327.4 238.36C327.96 238.38 328.41 238.38 328.95 238.36C329.53 238.34 330.55 238.25 331.62 238.16C331.85 236.92 332.05 235.55 332.05 234.38L333.71 234.54V234.53ZM339.68 236.53C340.78 237.93 342.27 241.1 342.87 242.72L341.5 243.37C341 241.59 339.61 238.54 338.4 237.1L339.68 236.52V236.53ZM340.4 236.82C340.04 236.1 339.46 235.02 338.98 234.37L339.92 233.96C340.35 234.61 341 235.67 341.38 236.39L340.41 236.82H340.4ZM342.38 236.08C342 235.31 341.43 234.32 340.92 233.65L341.84 233.25C342.33 233.9 343.01 235 343.34 235.66L342.38 236.07V236.08Z" fill="black"/>
<path d="M342.93 263.52C342.07 264.13 341.02 264.76 340.12 265.23C341 266.13 342.1 266.81 343.43 267.19C343.16 267.44 342.78 267.95 342.6 268.27C339.93 267.33 338.21 265.39 337.25 262.62C336.67 263.16 335.97 263.63 335.21 264.04V266.52C336.33 266.3 337.53 266.05 338.74 265.8L338.85 266.92C336.64 267.39 334.31 267.89 332.6 268.25L332.28 267.1L334.08 266.76V264.62C333.29 264.98 332.46 265.29 331.65 265.54C331.51 265.29 331.13 264.71 330.91 264.46C332.69 264.01 334.62 263.25 335.93 262.26H331.97L332.13 262.84C330.4 263.65 328.55 264.46 327.11 265.09L326.66 263.74C327.27 263.52 328.05 263.22 328.89 262.86V257.28H327V256.02H328.89V251.93H330.13V256.02H331.88V257.28H330.13V262.36L331.61 261.73V261.12H336.76V259.9H332.53V255.67H336.82V254.34H331.99V253.24H336.82V251.84H338.1V253.24H343.09V254.34H338.1V255.67H342.57V259.9H338.07V261.12H343.18V262.27H338.34C338.63 263.08 339.01 263.82 339.47 264.47C340.33 263.95 341.36 263.25 341.97 262.74L342.93 263.53V263.52ZM335.49 256.62H333.67V258.89H335.49V256.62ZM336.52 258.89H338.43V256.62H336.52V258.89ZM339.45 258.89H341.39V256.62H339.45V258.89Z" fill="black"/>
<path d="M343.25 283.25C342.33 284.19 341.25 284.71 340.06 284.71C338.87 284.71 338.12 283.94 338.12 282.5C338.12 280.55 338.79 277.71 338.79 276.02C338.79 275.01 338.27 274.58 337.39 274.58C335.99 274.58 333.88 276.22 332.28 277.95C332.24 278.67 332.23 279.37 332.23 279.98C332.23 281.58 332.21 282.63 332.3 284.18C332.32 284.49 332.35 284.92 332.39 285.24H330.84C330.86 285.01 330.89 284.48 330.89 284.21C330.91 282.54 330.91 281.67 330.94 279.75C330.94 279.59 330.94 279.37 330.96 279.12C330.11 280.38 328.96 282.04 328.13 283.19L327.23 281.98C328.22 280.77 330.2 278.06 331.1 276.69C331.14 276.13 331.17 275.56 331.21 275.02C330.42 275.11 328.91 275.31 327.81 275.45L327.67 273.99C328.07 274.01 328.41 274.01 328.82 273.97C329.38 273.93 330.4 273.83 331.3 273.7C331.35 272.87 331.39 272.24 331.39 272.04C331.39 271.64 331.41 271.19 331.32 270.76L332.98 270.81C332.89 271.22 332.76 272.2 332.64 273.4L332.71 273.38L333.25 273.99C333.02 274.31 332.73 274.76 332.48 275.18C332.44 275.52 332.43 275.86 332.39 276.21C333.74 274.95 335.97 273.28 337.72 273.28C339.34 273.28 340.17 274.2 340.17 275.62C340.17 277.37 339.54 280.36 339.54 282.12C339.54 282.73 339.81 283.18 340.42 283.18C341.3 283.18 342.24 282.62 343.03 281.74L343.26 283.25H343.25Z" fill="black"/>
<path d="M339.16 290.41C338.84 290.63 338.46 290.88 338.17 291.08C337.32 291.73 335.18 293.66 333.87 294.79C334.68 294.52 335.37 294.41 336.14 294.41C339.04 294.41 341.13 296.1 341.13 298.48C341.13 301.32 338.59 303.16 334.85 303.16C332.55 303.16 331.3 302.06 331.3 300.67C331.3 299.48 332.36 298.37 333.98 298.37C336.1 298.37 337.29 299.77 337.56 301.38C338.89 300.84 339.7 299.83 339.7 298.45C339.7 296.78 338.06 295.59 335.87 295.59C333.15 295.59 331.37 296.94 329.26 299.16L328.22 298.13L332.83 294.17C333.78 293.34 335.82 291.58 336.68 290.8C335.76 290.84 332.61 291 331.73 291.03C331.32 291.07 330.92 291.08 330.54 291.14L330.5 289.68C330.9 289.73 331.38 289.75 331.74 289.75C332.64 289.75 336.48 289.62 337.39 289.53C337.91 289.48 338.15 289.44 338.34 289.37L339.15 290.41H339.16ZM336.28 301.73C336.1 300.38 335.27 299.48 333.98 299.48C333.19 299.48 332.59 299.93 332.59 300.54C332.59 301.39 333.45 301.85 334.73 301.85C335.29 301.85 335.79 301.81 336.28 301.72V301.73Z" fill="black"/>
<path d="M343.02 308.75V309.97H327.03V308.75H331.44C331.12 308.05 330.41 307.08 329.8 306.36L331.02 305.89C331.72 306.65 332.48 307.71 332.82 308.41L331.94 308.75H337.31C337.92 307.89 338.61 306.7 339 305.83L340.4 306.3C339.91 307.13 339.32 308.01 338.8 308.75H343.01H343.02ZM334.7 320.81C334.7 321.49 334.54 321.84 334.05 322.05C333.55 322.27 332.77 322.27 331.55 322.27C331.48 321.93 331.3 321.44 331.12 321.1C332.02 321.14 332.83 321.14 333.06 321.12C333.33 321.1 333.4 321.03 333.4 320.8V318.4H329.42V322.27H328.14V311.57H334.69V320.81H334.7ZM329.42 312.73V314.49H333.4V312.73H329.42ZM333.4 317.34V315.54H329.42V317.34H333.4ZM338.12 319.07H336.88V311.76H338.12V319.07ZM340.49 311.22H341.8V320.67C341.8 321.48 341.62 321.84 341.08 322.06C340.5 322.28 339.6 322.31 338.24 322.29C338.17 321.93 337.95 321.37 337.75 321.01C338.85 321.05 339.82 321.05 340.09 321.03C340.4 321.01 340.49 320.94 340.49 320.67V311.22Z" fill="black"/>
<path d="M330.95 325.65C330.84 325.94 330.68 326.5 330.61 326.82C330.29 328.42 329.75 331.54 329.75 333.5C329.75 334.33 329.8 335.03 329.91 335.88C330.2 335.09 330.59 334.08 330.86 333.38L331.62 333.96C331.19 335.18 330.56 337.04 330.4 337.87C330.35 338.1 330.31 338.45 330.31 338.64L330.36 339.25L329.1 339.34C328.74 338.1 328.45 336.1 328.45 333.74C328.45 331.17 329.03 328.18 329.22 326.75C329.27 326.33 329.35 325.88 329.35 325.51L330.95 325.65ZM334.93 334.1C334.75 334.71 334.68 335.22 334.68 335.68C334.68 336.47 335.2 337.25 337.61 337.25C339.18 337.25 340.51 337.11 341.9 336.8L341.94 338.28C340.88 338.5 339.4 338.64 337.6 338.64C334.67 338.64 333.37 337.65 333.37 336.03C333.37 335.38 333.5 334.72 333.66 333.98L334.94 334.11L334.93 334.1ZM334.23 326.98C336.12 327.29 339.65 327.23 341.4 326.98V328.4C339.51 328.6 336.14 328.6 334.25 328.4L334.23 326.98Z" fill="black"/>
<path d="M343.02 354.35V355.54H327.03V354.35H331.33V352.3H328.16V351.11H331.33V349.42H328.77V343.1H341.28V349.42H338.69V351.11H341.97V352.3H338.69V354.35H343.01H343.02ZM333.67 356.54C332.19 357.46 329.89 358.34 328.02 358.83C327.82 358.56 327.44 358.09 327.16 357.82C329.01 357.37 331.3 356.51 332.45 355.75L333.67 356.54ZM330.07 345.74H334.3V344.14H330.07V345.74ZM330.07 348.35H334.3V346.75H330.07V348.35ZM332.68 351.11H337.34V349.42H332.68V351.11ZM332.68 354.35H337.34V352.3H332.68V354.35ZM339.94 344.14H335.58V345.74H339.94V344.14ZM339.94 346.75H335.58V348.35H339.94V346.75ZM337.34 355.71C339.39 356.36 341.61 357.22 342.96 357.87L341.86 358.84C340.6 358.17 338.53 357.29 336.49 356.63L337.34 355.71Z" fill="black"/>
<path d="M342.53 367.74H341.22V365.06H328.89V367.74H327.61V363.89H330.49C330.22 363.3 329.61 362.41 329.09 361.77L330.28 361.28C330.87 361.91 331.5 362.79 331.81 363.39L330.69 363.89H334.45V361.1H335.8V363.89H342.53V367.74ZM341.43 375.35C341.43 376.05 341.29 376.41 340.73 376.61C340.17 376.83 339.27 376.83 337.89 376.83C337.82 376.45 337.6 375.97 337.42 375.61C338.5 375.65 339.45 375.65 339.72 375.63C339.99 375.61 340.08 375.56 340.08 375.34V372.82H335.9V377.56H334.55V372.82H330.1V376.74H328.77V371.59H334.55V370.11H330.37V366.33H339.77V370.11H335.9V371.59H341.43V375.35ZM331.65 369.11H338.44V367.35H331.65V369.11ZM341.07 361.72C340.48 362.51 339.79 363.34 339.27 363.88L338.19 363.43C338.69 362.84 339.34 361.88 339.69 361.23L341.08 361.72H341.07Z" fill="black"/>
<path d="M332.05 380.26C331.55 381.59 330.92 382.91 330.2 384.15V396.21H328.94V386.11C328.36 386.94 327.75 387.68 327.12 388.32C326.98 388.01 326.62 387.31 326.36 387.02C328.12 385.29 329.78 382.61 330.81 379.87L332.05 380.25V380.26ZM343.3 388.33V391.39H342.08V389.41H332.59V391.43H331.38V388.33H343.3ZM336.68 381.56V379.89H338.01V381.56H343.14V382.73H331.69V381.56H336.68ZM333.08 387.28V383.72H341.74V387.28H333.08ZM333.44 390.62H341.42V391.72H338V394.84C338 395.56 337.86 395.9 337.28 396.08C336.72 396.28 335.8 396.28 334.47 396.28C334.42 395.92 334.22 395.43 334.06 395.07C335.12 395.11 336.06 395.11 336.33 395.09C336.62 395.09 336.69 395.02 336.69 394.8V391.72H333.45V390.62H333.44ZM334.34 386.35H340.43V384.66H334.34V386.35Z" fill="black"/>
<path d="M343.02 412.77V414.08H326.96V412.77H329.45V402.49H330.82V412.77H335V398.6H336.39V404.56H342.22V405.87H336.39V412.77H343.03H343.02Z" fill="black"/>
<path d="M334.16 188C335.541 188 336.66 186.881 336.66 185.5C336.66 184.119 335.541 183 334.16 183C332.779 183 331.66 184.119 331.66 185.5C331.66 186.881 332.779 188 334.16 188Z" fill="black"/>
<path d="M335.63 478.72C336.66 478.94 337.79 479.01 338.98 479.01C339.57 479.03 342.49 479.01 343.27 478.99C343.09 479.31 342.86 479.93 342.78 480.3H338.93C335.1 480.3 332.2 479.63 330.4 476.48C329.81 478.08 328.94 479.56 327.7 480.57C327.47 480.32 326.98 479.89 326.71 479.69C328.87 478.02 329.74 474.88 330 472.24L331.37 472.42C331.26 473.23 331.1 474.06 330.9 474.89C331.66 476.69 332.83 477.75 334.29 478.33V471.18H327.2V469.92H334.29V467.45H328.74V466.21H334.29V464.12H335.64V466.21H341.47V467.45H335.64V469.92H342.81V471.18H335.64V473.99H341.62V475.21H335.64V478.72H335.63Z" fill="black"/>
<path d="M332.81 487.11C332.25 488.03 331.57 488.95 330.83 489.83V499.3H329.5V491.3C328.82 492 328.13 492.65 327.47 493.17C327.27 492.9 326.8 492.32 326.53 492.05C328.38 490.74 330.33 488.66 331.57 486.63L332.81 487.1V487.11ZM332.1 483.31C330.93 484.89 329.09 486.64 327.49 487.78C327.29 487.49 326.93 486.97 326.7 486.72C328.2 485.71 329.92 484.09 330.82 482.81L332.1 483.31ZM343.14 490.1H340.42V497.54C340.42 498.37 340.22 498.78 339.63 499C339.02 499.2 338.01 499.2 336.25 499.2C336.2 498.84 336.02 498.28 335.82 497.9C337.1 497.94 338.29 497.94 338.63 497.92C338.97 497.9 339.08 497.83 339.08 497.52V490.1H333.07V488.82H343.15V490.1H343.14ZM342.62 485.16H333.83V483.9H342.62V485.16Z" fill="black"/>
<path d="M342.83 505.7C342.83 505.7 342.81 506.2 342.81 506.38C342.61 513.92 342.45 516.43 341.84 517.18C341.53 517.65 341.17 517.79 340.63 517.85C340.13 517.92 339.28 517.9 338.45 517.85C338.41 517.49 338.27 516.93 338.07 516.59C338.93 516.66 339.73 516.68 340.07 516.68C340.38 516.68 340.54 516.63 340.72 516.39C341.13 515.87 341.35 513.49 341.53 506.96H338.95C338.73 511.75 337.91 515.67 334.74 518.05C334.54 517.76 334.07 517.31 333.75 517.1C334.04 516.9 334.29 516.69 334.54 516.47C331.8 516.79 329.01 517.1 327 517.32L326.8 516.15C327.88 516.06 329.23 515.93 330.71 515.79V514.24H327.31V513.21H330.71V512.11H327.34V506.76H330.71V505.63H326.82V504.59H330.71V503.4C329.56 503.49 328.39 503.56 327.33 503.6C327.28 503.31 327.15 502.88 327.01 502.61C329.68 502.47 332.92 502.14 334.77 501.73L335.44 502.76C334.47 502.98 333.24 503.14 331.93 503.28V504.59H335.75V505.63H331.93V506.76H335.42V512.11H331.93V513.21H335.46V514.24H331.93V515.66C333.1 515.55 334.32 515.43 335.53 515.28V515.37C337.1 513.25 337.56 510.35 337.73 506.96H335.62V505.7H337.76C337.8 504.44 337.8 503.13 337.8 501.76H339.06C339.06 503.11 339.06 504.44 339.02 505.7H342.84H342.83ZM328.45 508.98H330.72V507.68H328.45V508.98ZM330.72 511.18V509.87H328.45V511.18H330.72ZM331.92 507.68V508.98H334.28V507.68H331.92ZM334.28 509.86H331.92V511.17H334.28V509.86Z" fill="black"/>
<path d="M342.91 521.43V522.67H335.6V524.67H339.27V532.72H330.66V524.67H334.26V522.67H327.09V521.43H342.9H342.91ZM341.11 524.48H342.41V536.63H341.11V535.57H328.96V536.69H327.66V524.48H328.96V534.29H341.11V524.48ZM331.8 528.15H334.36V525.81H331.8V528.15ZM331.8 531.59H334.36V529.23H331.8V531.59ZM338.1 525.81H335.53V528.15H338.1V525.81ZM338.1 529.23H335.53V531.59H338.1V529.23Z" fill="black"/>
<path d="M341.84 543.81C340.69 542.41 339.18 540.89 337.92 539.87L339.07 538.86C340.33 539.89 341.93 541.49 343.03 542.79L341.84 543.82V543.81Z" fill="black"/>
<path d="M329.84 557.17C329.84 552.9 332.4 550.31 335.89 550.31C337.73 550.31 338.93 551.14 339.69 551.95L338.79 553.03C338.12 552.33 337.28 551.77 335.93 551.77C333.28 551.77 331.55 553.82 331.55 557.12C331.55 560.42 333.12 562.54 335.94 562.54C336.89 562.54 337.81 562.25 338.33 561.77V558.31H335.54V556.92H339.86V562.46C339.01 563.34 337.56 563.99 335.77 563.99C332.3 563.99 329.83 561.45 329.83 557.17H329.84Z" fill="black"/>
<path d="M331.11 569.28H334.87C337.84 569.28 339.82 570.27 339.82 573.15C339.82 576.03 337.84 577.24 334.96 577.24H332.78V582.48H331.11V569.28ZM334.75 575.89C337.07 575.89 338.17 575.04 338.17 573.15C338.17 571.26 337 570.63 334.68 570.63H332.79V575.89H334.75Z" fill="black"/>
<path d="M330.47 599.47L331.46 598.34C332.41 599.33 333.75 599.98 335.12 599.98C336.85 599.98 337.89 599.12 337.89 597.82C337.89 596.52 336.94 596.04 335.69 595.48L333.78 594.65C332.56 594.13 331.1 593.19 331.1 591.27C331.1 589.23 332.86 587.76 335.26 587.76C336.83 587.76 338.21 588.43 339.15 589.4L338.27 590.46C337.46 589.7 336.49 589.22 335.26 589.22C333.77 589.22 332.79 589.98 332.79 591.16C332.79 592.44 333.94 592.92 334.97 593.36L336.86 594.17C338.39 594.84 339.58 595.74 339.58 597.7C339.58 599.79 337.85 601.45 335.1 601.45C333.23 601.45 331.63 600.69 330.47 599.49V599.47Z" fill="black"/>
<path d="M341.84 609.69C340.69 608.29 339.18 606.77 337.92 605.75L339.07 604.74C340.33 605.77 341.93 607.37 343.03 608.66L341.84 609.69Z" fill="black"/>
<path d="M329.91 622.45C329.24 621.89 327.84 621.06 326.74 620.52L327.51 619.55C328.55 620.04 329.98 620.81 330.68 621.35L329.91 622.45ZM331.15 624.99C330.34 626.88 329.28 629.11 328.36 630.77L327.19 629.96C328.04 628.57 329.24 626.23 330.12 624.2L331.15 624.99ZM330.81 617.77C330.14 617.16 328.78 616.27 327.71 615.7L328.47 614.75C329.53 615.27 330.92 616.1 331.59 616.69L330.82 617.77H330.81ZM341.9 621.91C341.27 624.25 340.21 626.12 338.86 627.6C340.12 628.63 341.61 629.4 343.36 629.87C343.04 630.16 342.68 630.66 342.48 631.02C340.72 630.46 339.2 629.62 337.92 628.5C336.61 629.63 335.11 630.46 333.51 631.06C333.33 630.74 332.93 630.2 332.65 629.94C334.25 629.4 335.73 628.64 336.99 627.6C335.77 626.25 334.83 624.63 334.13 622.77H333.68C333.59 625.42 333.12 628.69 331.36 631C331.13 630.78 330.59 630.44 330.24 630.32C332.2 627.83 332.4 624.29 332.4 621.7V617.16H336.74V614.57H338.05V617.16H342.01L342.23 617.11L343.19 617.38C342.74 618.68 342.16 620.1 341.66 621L340.53 620.64C340.82 620.06 341.14 619.24 341.45 618.43H338.07V621.58H340.84L341.09 621.53L341.92 621.93L341.9 621.91ZM333.69 618.42V621.57H336.73V618.42H333.69ZM335.38 622.78C335.97 624.28 336.82 625.61 337.9 626.74C338.91 625.66 339.72 624.34 340.26 622.78H335.38Z" fill="black"/>
<path d="M334.61 641.53V649.72H333.31V641.53H330.39C330.32 644.54 329.87 647.49 327.72 649.85C327.5 649.56 327.02 649.13 326.71 648.95C328.65 646.83 329.05 644.2 329.12 641.53H326.8V640.29H329.14V635.66H327.07V634.4H336.29V635.66H334.6V640.29H336.56V641.53H334.6H334.61ZM333.31 640.29V635.66H330.41V640.29H333.31ZM343.37 643.84C341.86 646.33 339.3 648.45 336.53 649.73C336.31 649.41 335.92 648.94 335.59 648.67C338.24 647.57 340.78 645.57 342.11 643.36L343.37 643.85V643.84ZM342.44 634.11C341.14 635.77 339.11 637.35 337.31 638.34C337.06 638.05 336.68 637.64 336.34 637.4C338.05 636.55 340.1 635.02 341.2 633.58L342.44 634.1V634.11ZM342.94 639.03C341.54 640.78 339.39 642.49 337.47 643.57C337.24 643.28 336.86 642.87 336.53 642.61C338.35 641.69 340.51 640.05 341.72 638.51L342.94 639.03Z" fill="black"/>
<path d="M334.84 665.24C335.4 665.2 335.9 665.11 336.32 665.04C338.55 664.54 340.75 662.88 340.75 659.89C340.75 657.24 339.08 655.08 336.12 654.81C335.89 656.45 335.54 658.21 335.08 659.83C334.02 663.41 332.63 665.27 331.01 665.27C329.39 665.27 327.89 663.47 327.89 660.59C327.89 656.81 331.26 653.51 335.52 653.51C339.78 653.51 342.18 656.39 342.18 659.92C342.18 663.45 339.78 666.02 335.64 666.56L334.83 665.23L334.84 665.24ZM333.69 659.55C334.12 658.11 334.45 656.43 334.64 654.85C331.33 655.28 329.29 658.13 329.29 660.47C329.29 662.68 330.3 663.64 331.04 663.64C331.83 663.64 332.8 662.49 333.69 659.55Z" fill="black"/>
<path d="M328.84 680C328.59 681.69 328.16 683.42 327.56 684.57C327.34 684.41 326.8 684.16 326.52 684.07C327.11 682.97 327.49 681.37 327.69 679.78L328.84 680ZM330.81 678.56V686.05H329.62V678.63C328.59 678.68 327.62 678.74 326.79 678.79L326.68 677.6L327.87 677.55C328.25 677.06 328.66 676.49 329.06 675.89C328.5 675.08 327.56 674.07 326.74 673.33L327.42 672.47C327.6 672.61 327.76 672.78 327.94 672.94C328.55 671.93 329.18 670.58 329.56 669.59L330.73 670.06C330.12 671.25 329.36 672.67 328.7 673.68C329.1 674.08 329.46 674.49 329.74 674.85C330.44 673.73 331.09 672.58 331.56 671.63L332.69 672.13C331.66 673.84 330.3 675.95 329.11 677.5L331.78 677.39C331.53 676.83 331.24 676.26 330.93 675.77L331.87 675.39C332.61 676.54 333.33 678.09 333.56 679.06L332.55 679.51C332.48 679.2 332.37 678.84 332.23 678.47L330.81 678.56ZM332.37 679.66C332.86 680.69 333.34 682.05 333.52 682.94L332.49 683.28C332.31 682.38 331.86 681.03 331.39 679.99L332.36 679.67L332.37 679.66ZM343.27 684.27V685.51H332.88V684.27H335.09C335.31 682.61 335.54 680.51 335.74 678.31H333.62V677.07H335.87C336.03 675.27 336.18 673.45 336.27 671.83H333.89V670.61H341.61C341.61 672.57 341.59 674.84 341.54 677.07H343.23V678.31H341.52C341.47 680.51 341.39 682.61 341.3 684.27H343.26H343.27ZM337.04 678.31C336.84 680.51 336.63 682.63 336.45 684.27H339.98C340.09 682.61 340.18 680.51 340.23 678.31H337.04ZM337.56 671.82C337.45 673.46 337.31 675.26 337.15 677.06H340.27C340.32 675.28 340.36 673.46 340.36 671.82H337.57H337.56Z" fill="black"/>
<path d="M332.64 688.83C332.1 690.18 331.47 691.51 330.73 692.75V704.69H329.4V694.82C328.82 695.63 328.19 696.37 327.58 697C327.42 696.69 327 695.99 326.75 695.69C328.59 693.94 330.3 691.21 331.32 688.42L332.63 688.83H332.64ZM343.11 693.62H340.84V702.91C340.84 703.92 340.55 704.33 339.89 704.53C339.19 704.75 337.98 704.76 336.04 704.75C335.97 704.41 335.72 703.8 335.52 703.44C337.03 703.49 338.51 703.49 338.94 703.48C339.34 703.44 339.5 703.34 339.5 702.92V693.63H332.24V692.3H339.5V688.52H340.85V692.3H343.12V693.63L343.11 693.62ZM335.98 700.54C335.44 699.42 334.29 697.5 333.37 696.06L334.52 695.52C335.46 696.91 336.64 698.78 337.22 699.88L335.98 700.55V700.54Z" fill="black"/>
<path d="M330.75 708.08C330.66 708.4 330.53 708.87 330.46 709.21C329.9 711.71 329.31 715.35 329.96 718.21C330.19 717.49 330.55 716.45 330.86 715.58L331.63 716.05C331.23 717.26 330.69 719.02 330.51 719.88C330.46 720.13 330.4 720.46 330.42 720.67C330.44 720.83 330.46 721.07 330.47 721.25L329.26 721.39C328.92 720.33 328.34 718.06 328.34 715.86C328.34 713.05 328.79 710.51 329.01 709.05C329.08 708.65 329.1 708.2 329.1 707.9L330.74 708.06L330.75 708.08ZM342.37 712.43C341.56 712.56 340.59 712.66 339.54 712.74V713.26C339.54 717.26 339.54 720.1 335.85 722.3L334.57 721.27C335.13 721.04 335.83 720.6 336.26 720.17C338.13 718.55 338.2 716.59 338.2 713.26V712.81C337.46 712.85 336.72 712.86 336 712.86C335.17 712.86 333.95 712.81 333.17 712.75V711.33C333.94 711.44 335.04 711.53 335.98 711.53C336.68 711.53 337.42 711.51 338.16 711.48C338.14 710.42 338.11 709.28 338.07 708.85C338.03 708.47 337.98 708.08 337.91 707.82H339.55C339.51 708.11 339.51 708.45 339.5 708.83C339.48 709.23 339.5 710.34 339.52 711.39C340.55 711.32 341.54 711.17 342.36 710.99V712.43H342.37Z" fill="black"/>
<path d="M334.16 456C335.541 456 336.66 454.881 336.66 453.5C336.66 452.119 335.541 451 334.16 451C332.779 451 331.66 452.119 331.66 453.5C331.66 454.881 332.779 456 334.16 456Z" fill="black"/>
<path d="M332.09 782.5C331.8 781.96 331.1 780.97 330.51 780.14V787.52H329.3V780.93C328.65 781.76 327.97 782.48 327.3 783.07C327.16 782.76 326.81 782.17 326.62 781.95C328.33 780.55 330.11 778.12 331.1 775.67H327.03V774.48H329.26V771.19H330.45V774.48H331.67L331.9 774.43L332.6 774.88C332.13 776.27 331.47 777.63 330.71 778.9C330.89 779.1 331.09 779.37 331.32 779.64C331.72 779.05 332.17 778.29 332.42 777.75L333.23 778.33C332.8 779.01 332.29 779.77 331.86 780.31C332.31 780.87 332.71 781.37 332.87 781.59L332.08 782.51L332.09 782.5ZM342.01 781.85C341.38 783.18 340.41 784.25 339.24 785.09C340.46 785.68 341.91 786.12 343.47 786.37C343.18 786.64 342.82 787.18 342.64 787.52C340.91 787.2 339.36 786.62 338.05 785.83C336.52 786.64 334.76 787.18 332.92 787.54C332.79 787.23 332.47 786.66 332.24 786.41C333.93 786.14 335.55 785.71 336.92 785.06C336.25 784.52 335.66 783.91 335.17 783.22C334.58 783.71 333.93 784.16 333.21 784.57C333.01 784.28 332.62 783.87 332.33 783.7C334.17 782.73 335.55 781.45 336.36 780.28H334.32V775.35C334.05 775.71 333.76 776.05 333.44 776.39C333.21 776.12 332.79 775.78 332.49 775.62C333.84 774.27 334.76 772.47 335.26 771.08L336.52 771.3C336.32 771.8 336.09 772.34 335.82 772.88H343.13V774.01H335.21C334.98 774.41 334.72 774.8 334.44 775.18H342.06V780.27H337.88C337.61 780.65 337.34 781.03 337.02 781.4H340.98L341.23 781.35L342.02 781.84L342.01 781.85ZM335.53 777.3H340.77V776.09H335.53V777.3ZM335.53 779.39H340.77V778.17H335.53V779.39ZM338.08 784.43C338.93 783.89 339.66 783.24 340.2 782.47H336.01C336.53 783.23 337.23 783.87 338.08 784.43Z" fill="black"/>
<path d="M331.51 800.72C332.23 801.22 334.14 802.7 334.57 803.1L333.81 804.14C333.38 803.64 332.33 802.68 331.51 801.96V806.23H330.29V801.8C329.43 803.17 328.33 804.47 327.3 805.31C327.14 804.99 326.81 804.5 326.56 804.25C327.8 803.39 329.15 801.75 330 800.13H327.01V799H330.29V797.07H331.51V799H334.55V800.13H331.51V800.72ZM333.78 796.47C333.89 796.47 334 796.45 334.05 796.43C334.1 796.39 334.18 796.36 334.21 796.23C334.24 796.1 334.28 795.8 334.3 795.44C334.5 795.6 334.82 795.76 335.11 795.85C335.07 796.28 335.02 796.75 334.93 796.93C334.82 797.13 334.68 797.24 334.52 797.33C334.36 797.4 334.07 797.44 333.85 797.44H333.13C332.82 797.44 332.48 797.37 332.28 797.19C332.06 796.97 331.99 796.7 331.99 795.8V792.96H330.44C330.21 794.65 329.49 796.47 327.47 797.95C327.29 797.68 326.84 797.3 326.57 797.14C328.35 795.9 329.02 794.39 329.27 792.96H327.07V791.81H329.39C329.41 791.56 329.41 791.31 329.41 791.07V789.81H330.54V791.11C330.54 791.34 330.54 791.58 330.52 791.81H333.11V795.9C333.11 796.19 333.13 796.37 333.18 796.4C333.22 796.45 333.29 796.47 333.38 796.47H333.76H333.78ZM343.27 805.38H336.63V806.21H335.41V794.85C335.21 795.1 335.01 795.34 334.82 795.55C334.59 795.35 334.06 794.97 333.76 794.81C335.02 793.59 336.08 791.68 336.71 789.75L337.92 790.06C337.61 790.98 337.22 791.9 336.77 792.74H339.2C339.61 791.88 340.06 790.71 340.32 789.86L341.63 790.18C341.29 791.03 340.87 791.96 340.5 792.74H343.06V793.93H340.36V796.41H342.9V797.56H340.36V800.1H342.95V801.27H340.36V804.17H343.29V805.38H343.27ZM339.09 793.93H336.62V796.41H339.09V793.93ZM339.09 797.57H336.62V800.11H339.09V797.57ZM336.62 804.17H339.09V801.27H336.62V804.17Z" fill="black"/>
<path d="M336.23 812.45C335.31 812.7 334.23 812.92 333.08 813.08C332.23 815.53 330.79 818.45 329.39 820.34L328 819.62C329.46 817.95 330.86 815.26 331.64 813.23C331.14 813.27 330.63 813.28 330.13 813.28C329.46 813.28 328.74 813.23 328.1 813.17L327.99 811.8C328.58 811.91 329.38 812.02 330.13 812.02C330.76 812.02 331.41 811.98 332.08 811.93C332.35 811.01 332.57 810 332.6 809.09L334.15 809.23C333.99 809.84 333.77 810.81 333.5 811.77C334.4 811.63 335.32 811.41 336.2 811.14L336.24 812.45H336.23ZM338.28 814.45C338.23 815.19 338.26 815.69 338.28 816.34C338.3 816.97 338.35 818.09 338.39 819.13C339.89 819.67 341.09 820.54 341.97 821.29L341.23 822.5C340.49 821.83 339.56 821.08 338.44 820.52C338.46 820.77 338.46 820.99 338.46 821.19C338.46 822.58 337.54 823.71 335.4 823.71C333.47 823.71 331.91 822.92 331.91 821.21C331.91 819.59 333.44 818.6 335.4 818.6C335.98 818.6 336.53 818.65 337.06 818.76C337.01 817.36 336.92 815.68 336.88 814.46H338.28V814.45ZM337.11 820C336.55 819.84 335.98 819.75 335.35 819.75C334.07 819.75 333.21 820.29 333.21 821.08C333.21 821.87 333.86 822.43 335.23 822.43C336.6 822.43 337.14 821.64 337.14 820.77C337.14 820.55 337.14 820.28 337.12 820H337.11ZM341.74 814.94C340.82 814.15 338.91 813.07 337.74 812.55L338.46 811.45C339.72 812.01 341.7 813.14 342.53 813.79L341.74 814.94Z" fill="black"/>
<path d="M328.36 834.21C329.21 833.36 330.74 831.38 331.85 830.07C332.79 828.97 333.51 828.85 334.79 829.91C335.87 830.77 337.33 832.34 338.46 833.57C339.63 834.85 341.45 836.79 342.75 838.29L341.6 839.55C340.36 837.97 338.76 836.15 337.6 834.85C336.39 833.48 334.92 831.9 334.16 831.25C333.42 830.64 333.17 830.66 332.56 831.39C331.71 832.42 330.22 834.36 329.41 835.33C329.07 835.8 328.67 836.34 328.4 836.7L327.1 835.39C327.57 835.01 327.89 834.69 328.36 834.22V834.21ZM339.92 827.26C341.11 827.26 342.06 828.23 342.06 829.42C342.06 830.61 341.1 831.56 339.92 831.56C338.74 831.56 337.78 830.6 337.78 829.42C337.78 828.24 338.74 827.26 339.92 827.26ZM339.92 830.72C340.64 830.72 341.22 830.13 341.22 829.42C341.22 828.71 340.64 828.12 339.92 828.12C339.2 828.12 338.61 828.7 338.61 829.42C338.61 830.14 339.2 830.72 339.92 830.72Z" fill="black"/>
<path d="M338.91 845.82C339.38 845.82 339.77 845.77 340.06 845.66L341.21 846.36C341.07 846.61 340.9 847.03 340.81 847.3C340.34 848.87 339.44 850.83 338.2 852.58C338.88 853.01 339.48 853.41 339.93 853.73L338.96 855.01C338.55 854.67 337.95 854.24 337.27 853.77C335.7 855.61 333.49 857.34 330.34 858.49L329.08 857.39C332.16 856.45 334.46 854.74 336.07 852.98C334.67 852.08 333.17 851.2 332.18 850.64L333.1 849.61C334.13 850.13 335.6 850.98 336.99 851.82C338.07 850.31 338.93 848.49 339.28 847.08H333.25C332.13 848.66 330.55 850.37 328.57 851.73L327.38 850.81C330.44 848.94 332.26 846.27 333.05 844.67C333.23 844.36 333.5 843.72 333.63 843.27L335.23 843.79C334.94 844.24 334.62 844.83 334.44 845.16C334.33 845.38 334.21 845.59 334.06 845.83H338.92L338.91 845.82ZM339.88 842.91C340.33 843.54 340.96 844.62 341.32 845.34L340.36 845.76C340.02 845.06 339.41 843.98 338.94 843.31L339.88 842.91ZM341.83 842.2C342.28 842.85 342.98 843.95 343.31 844.61L342.36 845.02C341.98 844.25 341.4 843.26 340.9 842.59L341.84 842.19L341.83 842.2Z" fill="black"/>
<path d="M327.58 875.02C329.07 873.96 330.06 872.46 330.59 870.73C331.13 869.11 331.13 865.76 331.13 863.78C331.13 863.28 331.09 862.88 331 862.5H332.64C332.6 862.72 332.55 863.26 332.55 863.78C332.55 865.74 332.48 869.36 331.99 871.13C331.47 873.04 330.33 874.75 328.86 875.97L327.58 875.02ZM335.63 875.18C335.68 874.89 335.74 874.53 335.74 874.19V863.75C335.74 863.08 335.65 862.6 335.65 862.45H337.29C337.25 862.59 337.2 863.1 337.2 863.76V873.79C338.82 873.05 341.02 871.43 342.37 869.43L343.2 870.64C341.69 872.71 339.24 874.53 337.19 875.56C336.92 875.69 336.76 875.81 336.58 875.96L335.64 875.19L335.63 875.18Z" fill="black"/>
<path d="M330.18 888.58V893.8C330.18 894.48 330.04 894.83 329.64 895.04C329.26 895.24 328.67 895.27 327.75 895.27C327.7 894.95 327.55 894.42 327.39 894.06C327.97 894.08 328.49 894.08 328.65 894.08C328.85 894.08 328.92 894.01 328.92 893.81V889.04L327.08 889.72L326.72 888.46C327.35 888.26 328.09 887.99 328.92 887.7V883.78H326.9V882.54H328.92V878.94H330.18V882.54H331.85V883.78H330.18V887.24L331.75 886.68L331.97 887.89L330.19 888.57L330.18 888.58ZM338.96 890.9C340.04 892.11 341.75 893.22 343.34 893.78C343.05 894.03 342.67 894.5 342.48 894.81C340.95 894.16 339.29 892.9 338.16 891.52V895.41H336.9V891.65C335.6 893.09 333.69 894.33 331.88 894.98C331.68 894.67 331.32 894.19 331.03 893.94C332.88 893.38 334.83 892.23 336.07 890.92H332.18V889.79H336.9V888.44H332.52V884.41H337.02V888.44H338.03V884.41H342.66V888.44H338.16V889.79H343.08V890.92H338.97L338.96 890.9ZM335.92 885.37H333.58V887.42H335.92V885.37ZM340.85 883.57H334.3V879.66H340.85V883.57ZM339.61 880.67H335.49V882.56H339.61V880.67ZM339.09 887.42H341.54V885.37H339.09V887.42Z" fill="black"/>
<path d="M332.45 898.13C331.96 899.43 331.32 900.74 330.61 901.98V914.06H329.28V904.05C328.72 904.84 328.11 905.56 327.5 906.19C327.37 905.88 326.98 905.15 326.73 904.86C328.51 903.13 330.17 900.45 331.18 897.71L332.46 898.12L332.45 898.13ZM337.7 901.93V904.5H342.83V905.74H337.7V908.46H343.08V909.72H337.7V914.08H336.35V901.93H335.11C334.34 903.37 333.45 904.67 332.55 905.68C332.33 905.45 331.81 905 331.51 904.78C333.13 903.11 334.59 900.51 335.47 897.88L336.75 898.22C336.46 899.05 336.12 899.86 335.76 900.65H343.25V901.93H337.71H337.7Z" fill="black"/>
<path d="M334.84 929.6C335.4 929.56 335.9 929.47 336.32 929.4C338.55 928.9 340.75 927.24 340.75 924.25C340.75 921.6 339.08 919.44 336.12 919.17C335.89 920.81 335.54 922.57 335.08 924.19C334.02 927.77 332.63 929.63 331.01 929.63C329.39 929.63 327.89 927.83 327.89 924.95C327.89 921.17 331.26 917.87 335.52 917.87C339.78 917.87 342.18 920.75 342.18 924.28C342.18 927.81 339.78 930.38 335.64 930.92L334.83 929.59L334.84 929.6ZM333.69 923.91C334.12 922.47 334.45 920.79 334.64 919.21C331.33 919.64 329.29 922.49 329.29 924.83C329.29 927.04 330.3 928 331.04 928C331.83 928 332.8 926.85 333.69 923.91Z" fill="black"/>
<path d="M341.3 936.38V950.32H339.91V949.4H330.31V950.41H328.98V936.38H333.5C333.77 935.59 334.06 934.62 334.2 933.91L335.73 934.11C335.46 934.88 335.14 935.69 334.83 936.38H341.29H341.3ZM330.32 937.66V940.34H339.92V937.66H330.32ZM330.32 941.6V944.21H339.92V941.6H330.32ZM339.92 948.14V945.47H330.32V948.14H339.92Z" fill="black"/>
<path d="M342.83 956.83C342.83 956.83 342.81 957.33 342.81 957.51C342.61 965.05 342.45 967.56 341.84 968.31C341.53 968.78 341.17 968.92 340.63 968.98C340.13 969.05 339.28 969.03 338.45 968.98C338.41 968.62 338.27 968.06 338.07 967.72C338.93 967.79 339.73 967.81 340.07 967.81C340.38 967.81 340.54 967.76 340.72 967.52C341.13 967 341.35 964.62 341.53 958.09H338.95C338.73 962.88 337.91 966.8 334.74 969.18C334.54 968.89 334.07 968.44 333.75 968.23C334.04 968.03 334.29 967.82 334.54 967.6C331.8 967.92 329.01 968.23 327 968.45L326.8 967.28C327.88 967.19 329.23 967.06 330.71 966.92V965.37H327.31V964.34H330.71V963.24H327.34V957.89H330.71V956.76H326.82V955.72H330.71V954.53C329.56 954.62 328.39 954.69 327.33 954.73C327.28 954.44 327.15 954.01 327.01 953.74C329.68 953.6 332.92 953.27 334.77 952.86L335.44 953.89C334.47 954.11 333.24 954.27 331.93 954.41V955.72H335.75V956.76H331.93V957.89H335.42V963.24H331.93V964.34H335.46V965.37H331.93V966.79C333.1 966.68 334.32 966.56 335.53 966.41V966.5C337.1 964.38 337.56 961.48 337.73 958.09H335.62V956.83H337.76C337.8 955.57 337.8 954.26 337.8 952.89H339.06C339.06 954.24 339.06 955.57 339.02 956.83H342.84H342.83ZM328.45 960.11H330.72V958.81H328.45V960.11ZM330.72 962.3V960.99H328.45V962.3H330.72ZM331.92 958.81V960.11H334.28V958.81H331.92ZM334.28 960.99H331.92V962.3H334.28V960.99Z" fill="black"/>
<path d="M332.95 972.09C332.41 973.37 331.73 974.65 330.95 975.84V987.78H329.6V977.73C328.84 978.68 328.05 979.55 327.26 980.27C327.12 979.95 326.7 979.24 326.45 978.92C328.5 977.21 330.48 974.49 331.67 971.66L332.95 972.09ZM340.8 986.3C341.79 986.3 341.95 985.65 342.08 983.04C342.42 983.27 342.96 983.53 343.36 983.62C343.14 986.54 342.75 987.56 340.89 987.56H337.2C335.33 987.56 334.75 987.02 334.75 985.06V971.81H336.1V978.51C338.1 977.39 340.15 975.99 341.48 974.78L342.43 975.93C340.74 977.3 338.32 978.67 336.09 979.85V985.07C336.09 986.08 336.29 986.29 337.28 986.29H340.79L340.8 986.3Z" fill="black"/>
<path d="M334.16 763C335.541 763 336.66 761.881 336.66 760.5C336.66 759.119 335.541 758 334.16 758C332.779 758 331.66 759.119 331.66 760.5C331.66 761.881 332.779 763 334.16 763Z" fill="black"/>
<path d="M271 199H248V201H271V199Z" fill="#0A2270"/>
<path d="M310 76H291V78H310V76Z" fill="#0A2270"/>
<path d="M310 296H291V298H310V296Z" fill="#0A2270"/>
<path d="M310 587H291V589H310V587Z" fill="#0A2270"/>
<path d="M310 872H291V874H310V872Z" fill="#0A2270"/>
<path d="M271 649H248V651H271V649Z" fill="#0A2270"/>
<path d="M271 199H269V650.75H271V199Z" fill="#0A2270"/>
<path d="M292 76H290V874H292V76Z" fill="#0A2270"/>
<path d="M271 499H248V501H271V499Z" fill="#0A2270"/>
<path d="M290 423.88H269V425.88H290V423.88Z" fill="#0A2270"/>
<path d="M271 349H248V351H271V349Z" fill="#0A2270"/>
<path d="M248.5 507.5C252.642 507.5 256 504.142 256 500C256 495.858 252.642 492.5 248.5 492.5C244.358 492.5 241 495.858 241 500C241 504.142 244.358 507.5 248.5 507.5Z" fill="#FFFF00" stroke="#0A2270" stroke-width="2" stroke-miterlimit="10"/>
<path d="M248.5 357.5C252.642 357.5 256 354.142 256 350C256 345.858 252.642 342.5 248.5 342.5C244.358 342.5 241 345.858 241 350C241 354.142 244.358 357.5 248.5 357.5Z" fill="#FFFF00" stroke="#0A2270" stroke-width="2" stroke-miterlimit="10"/>
<path d="M248.5 657.5C252.642 657.5 256 654.142 256 650C256 645.858 252.642 642.5 248.5 642.5C244.358 642.5 241 645.858 241 650C241 654.142 244.358 657.5 248.5 657.5Z" fill="#FFFF00" stroke="#0A2270" stroke-width="2" stroke-miterlimit="10"/>
<path d="M248.5 207.5C252.642 207.5 256 204.142 256 200C256 195.858 252.642 192.5 248.5 192.5C244.358 192.5 241 195.858 241 200C241 204.142 244.358 207.5 248.5 207.5Z" fill="#FFFF00" stroke="#0A2270" stroke-width="2" stroke-miterlimit="10"/>
<path d="M310.5 595.17C314.642 595.17 318 591.812 318 587.67C318 583.528 314.642 580.17 310.5 580.17C306.358 580.17 303 583.528 303 587.67C303 591.812 306.358 595.17 310.5 595.17Z" fill="#FFFF00" stroke="#0A2270" stroke-width="2" stroke-miterlimit="10"/>
<path d="M310.5 304.83C314.642 304.83 318 301.472 318 297.33C318 293.188 314.642 289.83 310.5 289.83C306.358 289.83 303 293.188 303 297.33C303 301.472 306.358 304.83 310.5 304.83Z" fill="#FFFF00" stroke="#0A2270" stroke-width="2" stroke-miterlimit="10"/>
<path d="M310.5 880.5C314.642 880.5 318 877.142 318 873C318 868.858 314.642 865.5 310.5 865.5C306.358 865.5 303 868.858 303 873C303 877.142 306.358 880.5 310.5 880.5Z" fill="#FFFF00" stroke="#0A2270" stroke-width="2" stroke-miterlimit="10"/>
<path d="M310.5 84.5C314.642 84.5 318 81.1421 318 77C318 72.8579 314.642 69.5 310.5 69.5C306.358 69.5 303 72.8579 303 77C303 81.1421 306.358 84.5 310.5 84.5Z" fill="#FFFF00" stroke="#0A2270" stroke-width="2" stroke-miterlimit="10"/>
</g>
<defs>
<clipPath id="clip0_1624_2680">
<rect width="360" height="1000" fill="white"/>
</clipPath>
</defs>
</svg>
