<svg xmlns="http://www.w3.org/2000/svg" viewBox="0 0 168.53 29.37"><defs><style>.cls-1{fill:#333;}</style></defs><title>アセット 1</title><g id="レイヤー_2" data-name="レイヤー 2"><g id="header"><path class="cls-1" d="M13.45,6.13l4.94,11.7H8.56ZM15,0h-.86L5.49,20.52C3.75,24.65,2.64,27.75,0,28v.8H8.43V28c-1.45,0-2.9-.39-2.9-1.79,0-1.58,1.75-5,2.3-6.6H19l1.53,3.62c1.62,3.79,1.66,4.6-2,4.77v.8H29.42V28c-2.38.12-3.28-2.43-4.05-4.18Z"/><path class="cls-1" d="M30.39,28.77v-.51l18.69-26H40.19c-4.43,0-6.9.77-7.66,5.67H31.42L32.27.59H54.74V1.1L36.27,27.16H46.7c4.68,0,6.6-1.2,7.83-5.88h1l-1,7.49Z"/><path class="cls-1" d="M56.62,28.77V28c3.11,0,3.75-1.37,3.75-2.6V4c0-1.23-.64-2.6-3.75-2.6V.59H68.45V1.4c-3.1,0-3.74,1.37-3.74,2.6V25.37c0,1.2,1.62,1.66,4.26,1.66,5.4,0,9.19.17,11.53-5.66h1.06l-2,7.4Z"/><path class="cls-1" d="M91.4,25.37c0,1.23.64,2.6,4.17,2.6v.8H82.88V28c3.54,0,4.18-1.37,4.18-2.6V4c0-1.23-.64-2.6-4.18-2.6V.59H95.57V1.4C92,1.4,91.4,2.77,91.4,4Z"/><path class="cls-1" d="M122.35,29.37h-.64L102.89,5.92h-.08V25.37c0,1.23.63,2.6,4.13,2.6v.8H96.8V28c3.49,0,4.13-1.37,4.13-2.6V3.75l-.34-.43c-1.32-1.49-1.7-1.88-3.79-1.92V.59h7.28l16.31,20.48h.08V4c0-1.23-.64-2.6-4.12-2.6V.59h10.13V1.4c-3.5,0-4.13,1.37-4.13,2.6Z"/><path class="cls-1" d="M135.2,25.37c0,1.23.64,2.6,3.83,2.6v.8H127V28c3.19,0,3.83-1.37,3.83-2.6V4c0-1.23-.64-2.6-3.83-2.6V.59h12.09V1.4c-3.28,0-3.92,1.37-3.92,2.6V14C137,12.3,146.06,4.86,146.06,2.85c0-1.58-1.79-1.36-2.9-1.45V.59h11.16V1.4c-3.11,0-4.77,1.62-6.86,3.7l-7.7,7.63,6.72,7.1L149.33,23c2.22,2.47,4,5,7,5v.8h-13V28c3.15,0,3.4-.77,2.72-1.92a42.4,42.4,0,0,0-5.66-6.68l-4.13-4.09-1.11.9Z"/><path class="cls-1" d="M168.53,26.94a2.38,2.38,0,0,1-2.46,2.43,2.45,2.45,0,1,1,2.46-2.43Z"/></g></g></svg>