<svg width="1600" height="6" viewBox="0 0 1600 6" fill="none" xmlns="http://www.w3.org/2000/svg">
<path d="M5 2.5L0 0.113249V5.88675L5 3.5V2.5ZM3 3.5H5V2.5H3V3.5ZM7 3.5H9V2.5H7V3.5ZM11 3.5H13V2.5H11V3.5ZM15 3.5H17V2.5H15V3.5ZM19 3.5H21V2.5H19V3.5ZM23 3.5H25V2.5H23V3.5ZM27 3.5H29V2.5H27V3.5ZM31 3.5H33V2.5H31V3.5ZM35 3.5H37V2.5H35V3.5ZM39 3.5H41V2.5H39V3.5ZM43 3.5H45V2.5H43V3.5ZM47 3.5H49V2.5H47V3.5ZM51 3.5H53V2.5H51V3.5ZM55 3.5H57V2.5H55V3.5ZM59 3.5H61V2.5H59V3.5ZM63 3.5H65V2.5H63V3.5ZM67 3.5H69V2.5H67V3.5ZM71 3.5H73V2.5H71V3.5ZM75 3.5H77V2.5H75V3.5ZM79 3.5H81V2.5H79V3.5ZM83 3.5H85V2.5H83V3.5ZM87 3.5H89V2.5H87V3.5ZM91 3.5H93V2.5H91V3.5ZM95 3.5H97V2.5H95V3.5ZM99 3.5H101V2.5H99V3.5ZM103 3.5H105V2.5H103V3.5ZM107 3.5H109V2.5H107V3.5ZM111 3.5H113V2.5H111V3.5ZM115 3.5H117V2.5H115V3.5ZM119 3.5H121V2.5H119V3.5ZM123 3.5H125V2.5H123V3.5ZM127 3.5H129V2.5H127V3.5ZM131 3.5H133V2.5H131V3.5ZM135 3.5H137V2.5H135V3.5ZM139 3.5H141V2.5H139V3.5ZM143 3.5H145V2.5H143V3.5ZM147 3.5H149V2.5H147V3.5ZM151 3.5H153V2.5H151V3.5ZM155 3.5H157V2.5H155V3.5ZM159 3.5H161V2.5H159V3.5ZM163 3.5H165V2.5H163V3.5ZM167 3.5H169V2.5H167V3.5ZM171 3.5H173V2.5H171V3.5ZM175 3.5H177V2.5H175V3.5ZM179 3.5H181V2.5H179V3.5ZM183 3.5H185V2.5H183V3.5ZM187 3.5H189V2.5H187V3.5ZM191 3.5H193V2.5H191V3.5ZM195 3.5H197V2.5H195V3.5ZM199 3.5H201V2.5H199V3.5ZM203 3.5H205V2.5H203V3.5ZM207 3.5H209V2.5H207V3.5ZM211 3.5H213V2.5H211V3.5ZM215 3.5H217V2.5H215V3.5ZM219 3.5H221V2.5H219V3.5ZM223 3.5H225V2.5H223V3.5ZM227 3.5H229V2.5H227V3.5ZM231 3.5H233V2.5H231V3.5ZM235 3.5H237V2.5H235V3.5ZM239 3.5H241V2.5H239V3.5ZM243 3.5H245V2.5H243V3.5ZM247 3.5H249V2.5H247V3.5ZM251 3.5H253V2.5H251V3.5ZM255 3.5H257V2.5H255V3.5ZM259 3.5H261V2.5H259V3.5ZM263 3.5H265V2.5H263V3.5ZM267 3.5H269V2.5H267V3.5ZM271 3.5H273V2.5H271V3.5ZM275 3.5H277V2.5H275V3.5ZM279 3.5H281V2.5H279V3.5ZM283 3.5H285V2.5H283V3.5ZM287 3.5H289V2.5H287V3.5ZM291 3.5H293V2.5H291V3.5ZM295 3.5H297V2.5H295V3.5ZM299 3.5H301V2.5H299V3.5ZM303 3.5H305V2.5H303V3.5ZM307 3.5H309V2.5H307V3.5ZM311 3.5H313V2.5H311V3.5ZM315 3.5H317V2.5H315V3.5ZM319 3.5H321V2.5H319V3.5ZM323 3.5H325V2.5H323V3.5ZM327 3.5H329V2.5H327V3.5ZM331 3.5H333V2.5H331V3.5ZM335 3.5H337V2.5H335V3.5ZM339 3.5H341V2.5H339V3.5ZM343 3.5H345V2.5H343V3.5ZM347 3.5H349V2.5H347V3.5ZM351 3.5H353V2.5H351V3.5ZM355 3.5H357V2.5H355V3.5ZM359 3.5H361V2.5H359V3.5ZM363 3.5H365V2.5H363V3.5ZM367 3.5H369V2.5H367V3.5ZM371 3.5H373V2.5H371V3.5ZM375 3.5H377V2.5H375V3.5ZM379 3.5H381V2.5H379V3.5ZM383 3.5H385V2.5H383V3.5ZM387 3.5H389V2.5H387V3.5ZM391 3.5H393V2.5H391V3.5ZM395 3.5H397V2.5H395V3.5ZM399 3.5H401V2.5H399V3.5ZM403 3.5H405V2.5H403V3.5ZM407 3.5H409V2.5H407V3.5ZM411 3.5H413V2.5H411V3.5ZM415 3.5H417V2.5H415V3.5ZM419 3.5H421V2.5H419V3.5ZM423 3.5H425V2.5H423V3.5ZM427 3.5H429V2.5H427V3.5ZM431 3.5H433V2.5H431V3.5ZM435 3.5H437V2.5H435V3.5ZM439 3.5H441V2.5H439V3.5ZM443 3.5H445V2.5H443V3.5ZM447 3.5H449V2.5H447V3.5ZM451 3.5H453V2.5H451V3.5ZM455 3.5H457V2.5H455V3.5ZM459 3.5H461V2.5H459V3.5ZM463 3.5H465V2.5H463V3.5ZM467 3.5H469V2.5H467V3.5ZM471 3.5H473V2.5H471V3.5ZM475 3.5H477V2.5H475V3.5ZM479 3.5H481V2.5H479V3.5ZM483 3.5H485V2.5H483V3.5ZM487 3.5H489V2.5H487V3.5ZM491 3.5H493V2.5H491V3.5ZM495 3.5H497V2.5H495V3.5ZM499 3.5H501V2.5H499V3.5ZM503 3.5H505V2.5H503V3.5ZM507 3.5H509V2.5H507V3.5ZM511 3.5H513V2.5H511V3.5ZM515 3.5H517V2.5H515V3.5ZM519 3.5H521V2.5H519V3.5ZM523 3.5H525V2.5H523V3.5ZM527 3.5H529V2.5H527V3.5ZM531 3.5H533V2.5H531V3.5ZM535 3.5H537V2.5H535V3.5ZM539 3.5H541V2.5H539V3.5ZM543 3.5H545V2.5H543V3.5ZM547 3.5H549V2.5H547V3.5ZM551 3.5H553V2.5H551V3.5ZM555 3.5H557V2.5H555V3.5ZM559 3.5H561V2.5H559V3.5ZM563 3.5H565V2.5H563V3.5ZM567 3.5H569V2.5H567V3.5ZM571 3.5H573V2.5H571V3.5ZM575 3.5H577V2.5H575V3.5ZM579 3.5H581V2.5H579V3.5ZM583 3.5H585V2.5H583V3.5ZM587 3.5H589V2.5H587V3.5ZM591 3.5H593V2.5H591V3.5ZM595 3.5H597V2.5H595V3.5ZM599 3.5H601V2.5H599V3.5ZM603 3.5H605V2.5H603V3.5ZM607 3.5H609V2.5H607V3.5ZM611 3.5H613V2.5H611V3.5ZM615 3.5H617V2.5H615V3.5ZM619 3.5H621V2.5H619V3.5ZM623 3.5H625V2.5H623V3.5ZM627 3.5H629V2.5H627V3.5ZM631 3.5H633V2.5H631V3.5ZM635 3.5H637V2.5H635V3.5ZM639 3.5H641V2.5H639V3.5ZM643 3.5H645V2.5H643V3.5ZM647 3.5H649V2.5H647V3.5ZM651 3.5H653V2.5H651V3.5ZM655 3.5H657V2.5H655V3.5ZM659 3.5H661V2.5H659V3.5ZM663 3.5H665V2.5H663V3.5ZM667 3.5H669V2.5H667V3.5ZM671 3.5H673V2.5H671V3.5ZM675 3.5H677V2.5H675V3.5ZM679 3.5H681V2.5H679V3.5ZM683 3.5H685V2.5H683V3.5ZM687 3.5H689V2.5H687V3.5ZM691 3.5H693V2.5H691V3.5ZM695 3.5H697V2.5H695V3.5ZM699 3.5H701V2.5H699V3.5ZM703 3.5H705V2.5H703V3.5ZM707 3.5H709V2.5H707V3.5ZM711 3.5H713V2.5H711V3.5ZM715 3.5H717V2.5H715V3.5ZM719 3.5H721V2.5H719V3.5ZM723 3.5H725V2.5H723V3.5ZM727 3.5H729V2.5H727V3.5ZM731 3.5H733V2.5H731V3.5ZM735 3.5H737V2.5H735V3.5ZM739 3.5H741V2.5H739V3.5ZM743 3.5H745V2.5H743V3.5ZM747 3.5H749V2.5H747V3.5ZM751 3.5H753V2.5H751V3.5ZM755 3.5H757V2.5H755V3.5ZM759 3.5H761V2.5H759V3.5ZM763 3.5H765V2.5H763V3.5ZM767 3.5H769V2.5H767V3.5ZM771 3.5H773V2.5H771V3.5ZM775 3.5H777V2.5H775V3.5ZM779 3.5H781V2.5H779V3.5ZM783 3.5H785V2.5H783V3.5ZM787 3.5H789V2.5H787V3.5ZM791 3.5H793V2.5H791V3.5ZM795 3.5H797V2.5H795V3.5ZM799 3.5H801V2.5H799V3.5ZM803 3.5H805V2.5H803V3.5ZM807 3.5H809V2.5H807V3.5ZM811 3.5H813V2.5H811V3.5ZM815 3.5H817V2.5H815V3.5ZM819 3.5H821V2.5H819V3.5ZM823 3.5H825V2.5H823V3.5ZM827 3.5H829V2.5H827V3.5ZM831 3.5H833V2.5H831V3.5ZM835 3.5H837V2.5H835V3.5ZM839 3.5H841V2.5H839V3.5ZM843 3.5H845V2.5H843V3.5ZM847 3.5H849V2.5H847V3.5ZM851 3.5H853V2.5H851V3.5ZM855 3.5H857V2.5H855V3.5ZM859 3.5H861V2.5H859V3.5ZM863 3.5H865V2.5H863V3.5ZM867 3.5H869V2.5H867V3.5ZM871 3.5H873V2.5H871V3.5ZM875 3.5H877V2.5H875V3.5ZM879 3.5H881V2.5H879V3.5ZM883 3.5H885V2.5H883V3.5ZM887 3.5H889V2.5H887V3.5ZM891 3.5H893V2.5H891V3.5ZM895 3.5H897V2.5H895V3.5ZM899 3.5H901V2.5H899V3.5ZM903 3.5H905V2.5H903V3.5ZM907 3.5H909V2.5H907V3.5ZM911 3.5H913V2.5H911V3.5ZM915 3.5H917V2.5H915V3.5ZM919 3.5H921V2.5H919V3.5ZM923 3.5H925V2.5H923V3.5ZM927 3.5H929V2.5H927V3.5ZM931 3.5H933V2.5H931V3.5ZM935 3.5H937V2.5H935V3.5ZM939 3.5H941V2.5H939V3.5ZM943 3.5H945V2.5H943V3.5ZM947 3.5H949V2.5H947V3.5ZM951 3.5H953V2.5H951V3.5ZM955 3.5H957V2.5H955V3.5ZM959 3.5H961V2.5H959V3.5ZM963 3.5H965V2.5H963V3.5ZM967 3.5H969V2.5H967V3.5ZM971 3.5H973V2.5H971V3.5ZM975 3.5H977V2.5H975V3.5ZM979 3.5H981V2.5H979V3.5ZM983 3.5H985V2.5H983V3.5ZM987 3.5H989V2.5H987V3.5ZM991 3.5H993V2.5H991V3.5ZM995 3.5H997V2.5H995V3.5ZM999 3.5H1001V2.5H999V3.5ZM1003 3.5H1005V2.5H1003V3.5ZM1007 3.5H1009V2.5H1007V3.5ZM1011 3.5H1013V2.5H1011V3.5ZM1015 3.5H1017V2.5H1015V3.5ZM1019 3.5H1021V2.5H1019V3.5ZM1023 3.5H1025V2.5H1023V3.5ZM1027 3.5H1029V2.5H1027V3.5ZM1031 3.5H1033V2.5H1031V3.5ZM1035 3.5H1037V2.5H1035V3.5ZM1039 3.5H1041V2.5H1039V3.5ZM1043 3.5H1045V2.5H1043V3.5ZM1047 3.5H1049V2.5H1047V3.5ZM1051 3.5H1053V2.5H1051V3.5ZM1055 3.5H1057V2.5H1055V3.5ZM1059 3.5H1061V2.5H1059V3.5ZM1063 3.5H1065V2.5H1063V3.5ZM1067 3.5H1069V2.5H1067V3.5ZM1071 3.5H1073V2.5H1071V3.5ZM1075 3.5H1077V2.5H1075V3.5ZM1079 3.5H1081V2.5H1079V3.5ZM1083 3.5H1085V2.5H1083V3.5ZM1087 3.5H1089V2.5H1087V3.5ZM1091 3.5H1093V2.5H1091V3.5ZM1095 3.5H1097V2.5H1095V3.5ZM1099 3.5H1101V2.5H1099V3.5ZM1103 3.5H1105V2.5H1103V3.5ZM1107 3.5H1109V2.5H1107V3.5ZM1111 3.5H1113V2.5H1111V3.5ZM1115 3.5H1117V2.5H1115V3.5ZM1119 3.5H1121V2.5H1119V3.5ZM1123 3.5H1125V2.5H1123V3.5ZM1127 3.5H1129V2.5H1127V3.5ZM1131 3.5H1133V2.5H1131V3.5ZM1135 3.5H1137V2.5H1135V3.5ZM1139 3.5H1141V2.5H1139V3.5ZM1143 3.5H1145V2.5H1143V3.5ZM1147 3.5H1149V2.5H1147V3.5ZM1151 3.5H1153V2.5H1151V3.5ZM1155 3.5H1157V2.5H1155V3.5ZM1159 3.5H1161V2.5H1159V3.5ZM1163 3.5H1165V2.5H1163V3.5ZM1167 3.5H1169V2.5H1167V3.5ZM1171 3.5H1173V2.5H1171V3.5ZM1175 3.5H1177V2.5H1175V3.5ZM1179 3.5H1181V2.5H1179V3.5ZM1183 3.5H1185V2.5H1183V3.5ZM1187 3.5H1189V2.5H1187V3.5ZM1191 3.5H1193V2.5H1191V3.5ZM1195 3.5H1197V2.5H1195V3.5ZM1199 3.5H1201V2.5H1199V3.5ZM1203 3.5H1205V2.5H1203V3.5ZM1207 3.5H1209V2.5H1207V3.5ZM1211 3.5H1213V2.5H1211V3.5ZM1215 3.5H1217V2.5H1215V3.5ZM1219 3.5H1221V2.5H1219V3.5ZM1223 3.5H1225V2.5H1223V3.5ZM1227 3.5H1229V2.5H1227V3.5ZM1231 3.5H1233V2.5H1231V3.5ZM1235 3.5H1237V2.5H1235V3.5ZM1239 3.5H1241V2.5H1239V3.5ZM1243 3.5H1245V2.5H1243V3.5ZM1247 3.5H1249V2.5H1247V3.5ZM1251 3.5H1253V2.5H1251V3.5ZM1255 3.5H1257V2.5H1255V3.5ZM1259 3.5H1261V2.5H1259V3.5ZM1263 3.5H1265V2.5H1263V3.5ZM1267 3.5H1269V2.5H1267V3.5ZM1271 3.5H1273V2.5H1271V3.5ZM1275 3.5H1277V2.5H1275V3.5ZM1279 3.5H1281V2.5H1279V3.5ZM1283 3.5H1285V2.5H1283V3.5ZM1287 3.5H1289V2.5H1287V3.5ZM1291 3.5H1293V2.5H1291V3.5ZM1295 3.5H1297V2.5H1295V3.5ZM1299 3.5H1301V2.5H1299V3.5ZM1303 3.5H1305V2.5H1303V3.5ZM1307 3.5H1309V2.5H1307V3.5ZM1311 3.5H1313V2.5H1311V3.5ZM1315 3.5H1317V2.5H1315V3.5ZM1319 3.5H1321V2.5H1319V3.5ZM1323 3.5H1325V2.5H1323V3.5ZM1327 3.5H1329V2.5H1327V3.5ZM1331 3.5H1333V2.5H1331V3.5ZM1335 3.5H1337V2.5H1335V3.5ZM1339 3.5H1341V2.5H1339V3.5ZM1343 3.5H1345V2.5H1343V3.5ZM1347 3.5H1349V2.5H1347V3.5ZM1351 3.5H1353V2.5H1351V3.5ZM1355 3.5H1357V2.5H1355V3.5ZM1359 3.5H1361V2.5H1359V3.5ZM1363 3.5H1365V2.5H1363V3.5ZM1367 3.5H1369V2.5H1367V3.5ZM1371 3.5H1373V2.5H1371V3.5ZM1375 3.5H1377V2.5H1375V3.5ZM1379 3.5H1381V2.5H1379V3.5ZM1383 3.5H1385V2.5H1383V3.5ZM1387 3.5H1389V2.5H1387V3.5ZM1391 3.5H1393V2.5H1391V3.5ZM1395 3.5H1397V2.5H1395V3.5ZM1399 3.5H1401V2.5H1399V3.5ZM1403 3.5H1405V2.5H1403V3.5ZM1407 3.5H1409V2.5H1407V3.5ZM1411 3.5H1413V2.5H1411V3.5ZM1415 3.5H1417V2.5H1415V3.5ZM1419 3.5H1421V2.5H1419V3.5ZM1423 3.5H1425V2.5H1423V3.5ZM1427 3.5H1429V2.5H1427V3.5ZM1431 3.5H1433V2.5H1431V3.5ZM1435 3.5H1437V2.5H1435V3.5ZM1439 3.5H1441V2.5H1439V3.5ZM1443 3.5H1445V2.5H1443V3.5ZM1447 3.5H1449V2.5H1447V3.5ZM1451 3.5H1453V2.5H1451V3.5ZM1455 3.5H1457V2.5H1455V3.5ZM1459 3.5H1461V2.5H1459V3.5ZM1463 3.5H1465V2.5H1463V3.5ZM1467 3.5H1469V2.5H1467V3.5ZM1471 3.5H1473V2.5H1471V3.5ZM1475 3.5H1477V2.5H1475V3.5ZM1479 3.5H1481V2.5H1479V3.5ZM1483 3.5H1485V2.5H1483V3.5ZM1487 3.5H1489V2.5H1487V3.5ZM1491 3.5H1493V2.5H1491V3.5ZM1495 3.5H1497V2.5H1495V3.5ZM1499 3.5H1501V2.5H1499V3.5ZM1503 3.5H1505V2.5H1503V3.5ZM1507 3.5H1509V2.5H1507V3.5ZM1511 3.5H1513V2.5H1511V3.5ZM1515 3.5H1517V2.5H1515V3.5ZM1519 3.5H1521V2.5H1519V3.5ZM1523 3.5H1525V2.5H1523V3.5ZM1527 3.5H1529V2.5H1527V3.5ZM1531 3.5H1533V2.5H1531V3.5ZM1535 3.5H1537V2.5H1535V3.5ZM1539 3.5H1541V2.5H1539V3.5ZM1543 3.5H1545V2.5H1543V3.5ZM1547 3.5H1549V2.5H1547V3.5ZM1551 3.5H1553V2.5H1551V3.5ZM1555 3.5H1557V2.5H1555V3.5ZM1559 3.5H1561V2.5H1559V3.5ZM1563 3.5H1565V2.5H1563V3.5ZM1567 3.5H1569V2.5H1567V3.5ZM1571 3.5H1573V2.5H1571V3.5ZM1575 3.5H1577V2.5H1575V3.5ZM1579 3.5H1581V2.5H1579V3.5ZM1583 3.5H1585V2.5H1583V3.5ZM1587 3.5H1589V2.5H1587V3.5ZM1591 3.5H1593V2.5H1591V3.5ZM1595 3.5H1597V2.5H1595V3.5ZM1599 3.5H1600V2.5H1599V3.5Z" fill="black"/>
</svg>
