<svg xmlns="http://www.w3.org/2000/svg" preserveAspectRatio="none" viewBox="0 0 1280 150"><defs><clipPath id="a"><path d="M0 0h1280v150H0z" style="fill:none"/></clipPath></defs><path d="M0 0h1280v150H0z" style="fill:#2c6a77"/><g style="clip-path:url(#a)"><path d="m1410.4 96.8-167.3-214.2 163.3 217.3 4-3.1zM1402.1 102.2l-166-215.1 162 218.2 4-3.1zM1393.8 107.6l-164.8-216 160.7 219 4.1-3zM1385.4 113 1222-103.8 1381.4 116l4-3zM1377.1 118.4 1215-99.3l158.1 220.7 4-3zM1368.8 123.9 1208-94.8l156.8 221.6 4-2.9zM1360.5 129.3 1201-90.3l155.4 222.5 4.1-2.9zM1352.2 134.7 1194-85.7l154.1 223.3 4.1-2.9zM1343.9 140.1 1187-81.2 1339.8 143l4.1-2.9zM1335.6 145.5 1180-76.7l151.4 225.1 4.2-2.9zM1327.3 151 1172.9-72.2l150.2 226 4.2-2.8zM1319 156.4l-153.1-224 148.9 226.8 4.2-2.8zM1310.6 161.8 1158.9-63.1l147.6 227.7 4.1-2.8zM1302.3 167.2 1151.9-58.6 1298.1 170l4.2-2.8zM1294 172.6 1144.9-54.1l144.9 229.5 4.2-2.8zM1285.7 178.1 1137.9-49.6l143.6 230.4 4.2-2.7zM1277.4 183.5 1130.9-45l142.3 231.2 4.2-2.7zM1269.1 188.9 1123.9-40.5l140.9 232.1 4.3-2.7zM1260.8 194.3 1116.8-36l139.7 233 4.3-2.7zM1252.5 199.7 1109.8-31.5l138.4 233.9 4.3-2.7zM1244.1 205.2 1102.8-26.9l137 234.7 4.3-2.6zM1235.8 210.6l-140-233 135.7 235.6 4.3-2.6zM1227.5 216 1088.8-17.9l134.4 236.5 4.3-2.6zM1219.2 221.4 1081.8-13.4 1214.9 224l4.3-2.6zM1210.9 226.8 1074.8-8.8l131.7 238.1 4.4-2.5zM1202.6 232.3 1067.8-4.3l130.4 239 4.4-2.4zM1194.3 237.7 1060.7.2l129.2 239.9 4.4-2.4z"/></g></svg>