<svg xmlns="http://www.w3.org/2000/svg" preserveAspectRatio="none" viewBox="0 0 390 170"><defs><clipPath id="a"><path d="M0 0h390v170H0z" style="fill:none"/></clipPath></defs><path d="M0 0h390v170H0z" style="fill:#2c6a77"/><g style="clip-path:url(#a)"><path d="m634.9 99.8-167.3-214 163.3 217.1 4-3.1zM626.6 105.2l-166-214.9 162 218 4-3.1zM618.2 110.6 453.5-105.2l160.7 218.9 4-3.1zM609.9 116.1 446.5-100.6l159.4 219.7 4-3zM601.6 121.5 439.5-96.1l158.1 220.6 4-3zM593.3 126.9 432.5-91.6l156.8 221.4 4-2.9zM585 132.3 425.5-87.1l155.4 222.3 4.1-2.9zM576.7 137.7 418.5-82.6l154.1 223.2 4.1-2.9zM568.4 143.1 411.5-78l152.8 224 4.1-2.9zM560.1 148.5l-155.6-222 151.4 224.9 4.2-2.9zM551.8 154 397.4-69l150.2 225.8 4.2-2.8zM543.4 159.4l-153-223.9 148.9 226.7 4.1-2.8zM535.1 164.8 383.4-60 531 167.6l4.1-2.8zM526.8 170.2 376.4-55.4 522.6 173l4.2-2.8zM518.5 175.6 369.4-50.9l144.9 229.3 4.2-2.8zM510.2 181 362.4-46.4 506 183.8l4.2-2.8zM501.9 186.5 355.4-41.9l142.2 231 4.3-2.6zM493.6 191.9 348.3-37.4l141 231.9 4.3-2.6zM485.3 197.3l-144-230.1L481 199.9l4.3-2.6zM477 202.7l-142.7-231 138.4 233.6 4.3-2.6zM468.6 208.1 327.3-23.8l137 234.5 4.3-2.6zM460.3 213.5l-140-232.8L456 216.1l4.3-2.6zM452 218.9 313.3-14.8l134.4 236.3 4.3-2.6zM443.7 224.4 306.3-10.2l133.1 237.1 4.3-2.5zM435.4 229.8 299.3-5.7l131.7 238 4.4-2.5zM427.1 235.2 292.2-1.2l130.5 238.9 4.4-2.5zM418.8 240.6 285.2 3.3l129.2 239.8 4.4-2.5z"/></g></svg>