<svg xmlns="http://www.w3.org/2000/svg" viewBox="0 0 394.29 298.11">
  <title>sec02</title>
  <g id="レイヤー_2" data-name="レイヤー 2">
    <g id="content">
      <path class="st01" d="M230.68,139.27a10,10,0,0,0-.56,3c0,.42.21.7.49.7,1,0,3.77-2.94,6.29-6.85l1.54,1c-4.27,6.65-7,9.37-9.58,9.37-2,0-3.15-1.4-3.15-3.7a26,26,0,0,1,.7-4.9c-2.45,5.67-6.43,8.6-11.47,8.6s-8.18-2.93-8.18-8c0-14.19,9.93-28.1,19.93-28.1,3,0,5,.91,6.36,3.07l2.59-10.07a9.42,9.42,0,0,0,.28-1.81c0-1.61-.77-2-3.57-2h-.91l.42-1.75,10.56-2.31Zm-3.57-27.13q-6,0-10.7,9.65c-2,4.2-4.47,13.71-4.47,17.62,0,2.94,1.47,4.41,4.33,4.41,4.55,0,8.39-4.2,11.4-12.38,2-5.45,3.77-12.86,3.77-15.66C231.44,113.47,229.84,112.14,227.11,112.14Z"/>
      <path class="st01" d="M251.23,133.05a27.41,27.41,0,0,0-.63,5.1c0,3.92,1.4,5.74,4.34,5.74s6-2.17,10.13-6.79a9,9,0,0,1,.77-.9l1.47,1c-5.87,6.72-9.72,9.3-14,9.3-4.83,0-8-4.12-8-10.41,0-12.8,9.51-25.59,19-25.59,3.56,0,5.73,2,5.73,5.38C270,123.82,263.47,129.76,251.23,133.05Zm12.24-20.42c-5.32,0-9.65,6.58-12,18.32,9.51-2.45,14.89-8,14.89-15.45A2.55,2.55,0,0,0,263.47,112.63Z"/>
      <path class="st01" d="M295.91,118.79c-1.61,0-2.38-.77-2.87-2.8-.56-2.52-1.75-3.5-4.26-3.5-3.78,0-6.72,2.66-6.72,6,0,2.79,1.19,4.33,5.81,7.62,5.52,3.91,6.71,5.59,6.71,9.72,0,6.22-5.11,10.69-12.1,10.69-5.38,0-10.13-2.93-10.13-6.22a2.65,2.65,0,0,1,2.86-2.8c1.75,0,1.75.07,3.5,4.34.63,1.54,2.44,2.31,4.82,2.31a6.9,6.9,0,0,0,7.13-6.72c0-2-.77-3.21-3.21-5-7.62-5.59-9.09-7.55-9.09-12.17,0-5.73,4.61-9.78,11.11-9.78,4.9,0,9,2.44,9,5.38C298.49,117.67,297.52,118.79,295.91,118.79Z"/>
      <path class="st01" d="M306.18,146.54a3.48,3.48,0,0,1-3.84-3.77,10.25,10.25,0,0,1,.84-3.85l7-21.67a12.83,12.83,0,0,0,.84-2.94.63.63,0,0,0-.63-.63c-.84,0-4.06,3.92-5.87,7.13L302.9,120c4.33-6.92,6.85-9.43,9.51-9.43a3,3,0,0,1,3.14,3.14,12.45,12.45,0,0,1-.7,3.64l-7.41,22.79a13,13,0,0,0-.49,2c0,.49.49.84,1.26.84,1.33,0,3.43-2.31,6.15-6.71l1.68.9C311.78,144.17,309.26,146.54,306.18,146.54Zm10.49-45.23a3.92,3.92,0,1,1,3.92-3.92A3.91,3.91,0,0,1,316.67,101.31Z"/>
      <path class="st01" d="M345.13,147.24c-2,7.27-5.95,10.42-13.43,10.42-5.24,0-8.74-2-8.74-5.1a2.6,2.6,0,0,1,2.59-2.66,2.74,2.74,0,0,1,2.8,2.66c0,.35-.07.69-.07,1,0,1.54,1.19,2.31,3.63,2.31,5.39,0,7.34-2.8,10.21-14.68-3.29,3.77-6.29,5.31-10.42,5.31-5.45,0-8.74-3.7-8.74-9,0-12.93,10.21-27.05,19.58-27.05a8,8,0,0,1,6.92,3.21l.63-2.17h4.62Zm-2.45-35.1c-3.78,0-6.71,2.66-9.79,9-2.94,6.09-5.31,13.92-5.31,17.55s1.75,5.46,5.24,5.46c5.66,0,9.23-4.27,12.66-15.18,1.46-4.68,2.65-9.92,2.65-12C348.13,114.1,346,112.14,342.68,112.14Z"/>
      <path class="st01" d="M382.6,146.54a3.48,3.48,0,0,1-3.7-3.7,9.3,9.3,0,0,1,.42-2.94l7.62-22a5.16,5.16,0,0,0,.35-1.68,2.19,2.19,0,0,0-2.38-2.17c-4.62,0-14.54,13.78-22.58,31.39h-5c1.75-5,3.64-10.48,5.46-15.38.62-1.68,1.39-4.05,2.37-7.34.35-1.33,2.17-6.85,2.17-7.9a.81.81,0,0,0-.84-.84c-1.12,0-2.59,1.89-5.87,6.29l-.42.56-1.54-1c.35-.55,1.12-1.74,1.47-2.3,2.87-4.55,5.8-7.06,8.18-7.06a3.15,3.15,0,0,1,3.43,3.28c0,2.31-2.1,9.72-5.11,18.18,1.19-2.17,5.94-9.16,8.46-12.44,5.66-7.35,7.76-9,11.05-9s5.8,2.23,5.8,5a9.64,9.64,0,0,1-.63,3.15l-7.34,21.81a9,9,0,0,0-.35,1.68.81.81,0,0,0,.84.84c1.12,0,3.78-2.94,6.22-6.78l1.61,1C387.92,144,385.26,146.54,382.6,146.54Z"/>
      <path class="st01" d="M54.19,5.08A43.72,43.72,0,0,1,65.84,6.47,76.09,76.09,0,0,1,74.26,9.3a16.92,16.92,0,0,0,6.4,1.42,179.07,179.07,0,0,0-1.37,19.57L74.83,31a36.94,36.94,0,0,0-1.55-8,22.63,22.63,0,0,0-3.56-6.64,15.32,15.32,0,0,0-7.06-5A31.82,31.82,0,0,0,51.48,9.66q-13,0-23.95,10.45T13.07,47a58.32,58.32,0,0,0-.81,10.41,28.6,28.6,0,0,0,2.08,10.3,35.34,35.34,0,0,0,5.08,8.89,21.83,21.83,0,0,0,8.3,6.26,27.84,27.84,0,0,0,11.74,2.39q12,0,19.7-6.07l4-18.89a7.38,7.38,0,0,0,.21-1.37,4.19,4.19,0,0,0-.09-1.14,5.06,5.06,0,0,0-.31-.93,2.15,2.15,0,0,0-.59-.75,4.41,4.41,0,0,0-1.89-1l-1.24-.34a9.38,9.38,0,0,0-1.51-.24L56,54.36c-.52-.06-1.17-.11-2-.16-.29-.37-.32-1.13-.09-2.29a3.71,3.71,0,0,1,1.08-2.29q11.87.26,15.62.25T82,49.62A2.93,2.93,0,0,1,82.23,51a6.14,6.14,0,0,1-.41,1.86A3.21,3.21,0,0,1,81,54.2a9.32,9.32,0,0,0-4.74,1.61,7.34,7.34,0,0,0-2.39,4.45l-3,14.25A3.68,3.68,0,0,0,72.17,78,61.06,61.06,0,0,1,35.55,89.83q-12.45,0-21.25-5.46A28.76,28.76,0,0,1,2.06,69.75,35.59,35.59,0,0,1,.92,49.62,54.82,54.82,0,0,1,8.66,31a55.43,55.43,0,0,1,13-14.12A60.3,60.3,0,0,1,37.47,8.18,48.4,48.4,0,0,1,54.19,5.08Z"/>
      <path class="st01" d="M106.28,43.15c-.12.58-.06.88.19.92a2.8,2.8,0,0,0,.8-.67A39.23,39.23,0,0,1,115.11,36a14.73,14.73,0,0,1,8.45-3.1c2.44,0,4.18.66,5.24,2A4.66,4.66,0,0,1,129.88,39a8,8,0,0,1-2.76,4.39,6.87,6.87,0,0,1-4.55,2,3.23,3.23,0,0,1-1.67-.44,4,4,0,0,1-1.12-.9c-.24-.31-.54-.73-.89-1.27s-.59-.9-.72-1.11a3,3,0,0,0-2.47-.87q-1.56,0-7.13,6.17-4,4.56-4.89,8.44L100.1,73c-.37,1.86-.68,3.36-.91,4.5a7.68,7.68,0,0,0-.1,3,5.34,5.34,0,0,0,.66,1.84,3.11,3.11,0,0,0,1.73,1,11.39,11.39,0,0,0,2.57.55l3.84.35a3.26,3.26,0,0,1,.13,2.29,4,4,0,0,1-1,2.29q-10.74-.27-15-.27-3.72,0-14.49.27a3.15,3.15,0,0,1-.09-2.29,4.11,4.11,0,0,1,1-2.29,45.84,45.84,0,0,0,4.95-.54,6.94,6.94,0,0,0,3-1.46,7,7,0,0,0,2.23-3.19,50.85,50.85,0,0,0,1.61-6l5.27-24.72q1.06-5.33-.06-6.72t-6.39-1.89a6.17,6.17,0,0,1,.5-3.59A78.67,78.67,0,0,0,106,32.52a1.2,1.2,0,0,1,1.3,1Q107.82,35.75,106.28,43.15Z"/>
      <path class="st01" d="M157.38,82.53h-.25l-3,2a40.78,40.78,0,0,1-7.81,4.3,21.81,21.81,0,0,1-7.18,1q-7.18,0-10.87-3.29t-2.2-10.41q1.35-6.31,8.14-11.18a47,47,0,0,1,16.67-7.21l11.52-2.66q.78-.26,1-1.5,3.54-16.09-6.72-16.1a21.66,21.66,0,0,0-7.61,1.27q-3.42,1.26-4,3.92a9.6,9.6,0,0,0-.31,2.41,4.32,4.32,0,0,1-.13,2.23,5,5,0,0,1-2.11,2.75,7,7,0,0,1-4.37,1.36q-4.48,0-3.55-4.46,1.11-5.15,8.64-9.61a29.83,29.83,0,0,1,15.34-4.46,26.85,26.85,0,0,1,5.43.5,16.64,16.64,0,0,1,4.8,1.86A8.42,8.42,0,0,1,172.45,39a20.37,20.37,0,0,1,1.65,6.19,24.69,24.69,0,0,1-.87,9.14l-4,18.9a18.78,18.78,0,0,0-.9,7.58A3.3,3.3,0,0,0,172,84a4.86,4.86,0,0,0,2.92-1,9.51,9.51,0,0,1,1.48-1c.29,0,.58.25.87.74a2,2,0,0,1,.31,1.36,6.22,6.22,0,0,1-1.7,1.76,19.35,19.35,0,0,1-4.53,2.63,14.35,14.35,0,0,1-5.79,1.3Q157.93,89.89,157.38,82.53Zm5-23.66-10.56,2.61Q139,64.65,136.68,75.57a8,8,0,0,0,1.09,6.27c1.22,1.9,3.3,2.84,6.22,2.84s7-1.83,12.31-5.51a5.42,5.42,0,0,0,2.48-3.28Z"/>
      <path class="st01" d="M204.28,41.86c-.08.41,0,.66.22.74a.6.6,0,0,0,.65-.18,45.66,45.66,0,0,1,6.48-5.07A31.66,31.66,0,0,1,218.35,34a19.45,19.45,0,0,1,6.25-1.15q9.48,0,14.31,7.78t2.61,18.12a40.93,40.93,0,0,1-14.44,24,31.39,31.39,0,0,1-20.19,7.07,24.93,24.93,0,0,1-10.6-2.06,1.77,1.77,0,0,0-1.3-.4c-.29.1-.51.58-.68,1.46l-2.87,13.65c-.39,1.86-.7,3.36-.94,4.49a8.07,8.07,0,0,0-.14,3,4.74,4.74,0,0,0,.65,1.87,3.48,3.48,0,0,0,1.74,1,11.38,11.38,0,0,0,2.6.55l3.84.29a3.22,3.22,0,0,1,.12,2.29,4,4,0,0,1-1,2.29Q187.55,118,183.2,118q-3.48,0-14.2.27a3.22,3.22,0,0,1-.12-2.29,4,4,0,0,1,1-2.29,39.18,39.18,0,0,0,4.83-.48,6.77,6.77,0,0,0,3-1.46,7.2,7.2,0,0,0,2.17-3.19,48.68,48.68,0,0,0,1.61-6L193,48.39c.68-3.56.66-5.8-.08-6.73s-2.85-1.56-6.36-1.89a6.17,6.17,0,0,1,.49-3.59,82.45,82.45,0,0,0,16.68-3.66,1.21,1.21,0,0,1,1.3,1Q205.59,35.75,204.28,41.86Zm.9,4.7A10.53,10.53,0,0,0,202,52.12l-4.86,23.12a17,17,0,0,0-.49,3.38,4.06,4.06,0,0,0,.4,1.91,12,12,0,0,0,1.49,2.07c1.58,1.76,4.38,2.64,8.42,2.64a20,20,0,0,0,13.53-5.17,25.68,25.68,0,0,0,4.37-5.41,36.08,36.08,0,0,0,3.06-6.22,46.93,46.93,0,0,0,1.89-6.4q2.23-10.4-.8-16.86c-2-4.31-5.14-6.46-9.36-6.46-1.81,0-4.15.78-7,2.34A34.59,34.59,0,0,0,205.18,46.56Z"/>
      <path class="st01" d="M263.87,52.25l-4.45,20.84q-.68,3.16-.9,5a17.37,17.37,0,0,0-.12,3.11,2.18,2.18,0,0,0,1,1.82,6.86,6.86,0,0,0,1.95.8,24.12,24.12,0,0,0,3.19.42,3.26,3.26,0,0,1,.13,2.29,4,4,0,0,1-1,2.29q-10.63-.27-12.48-.27-3.47,0-14,.27a3.15,3.15,0,0,1-.09-2.29,4.18,4.18,0,0,1,1-2.29,40.85,40.85,0,0,0,4.68-.54,6.57,6.57,0,0,0,2.88-1.46,7,7,0,0,0,2.14-3.19,54.57,54.57,0,0,0,1.57-6l11.85-55.44a35.86,35.86,0,0,0,.8-4.9,25.66,25.66,0,0,0,.06-2.94,1.84,1.84,0,0,0-1-1.64,5.48,5.48,0,0,0-1.76-.62c-.56-.08-1.52-.17-2.88-.25h-.41l-.37,0-.4,0a1.9,1.9,0,0,1-.37-1.09A5.92,5.92,0,0,1,255,4.71a4.14,4.14,0,0,1,.37-1.24q2.53-.18,6.26-.78c2.47-.39,4.86-.83,7.15-1.33a36.68,36.68,0,0,0,5-1.36A1.8,1.8,0,0,1,275,.31a1,1,0,0,1,.22,1q-1.62,5.09-3.35,13.32l-6.1,28.6c-.13.57-.09.83.12.79a5.48,5.48,0,0,0,1.11-.87q11.36-10.24,23.71-10.25c4.81,0,8,1.45,9.57,4.34s1.59,8.63-.19,17l-4,18.89a40.19,40.19,0,0,0-.84,5,18.05,18.05,0,0,0,0,3.1A2.19,2.19,0,0,0,296.41,83a8.36,8.36,0,0,0,2.17.8,35,35,0,0,0,3.59.48,3.49,3.49,0,0,1,0,2.29,4.61,4.61,0,0,1-1,2.29q-10.83-.27-13.36-.27-2.29,0-13,.27a3.53,3.53,0,0,1,0-2.29,4.61,4.61,0,0,1,1-2.29q2.35-.24,3.51-.48a10.71,10.71,0,0,0,2.35-.8,4,4,0,0,0,1.86-1.82,23.7,23.7,0,0,0,1.27-3.07,48.56,48.56,0,0,0,1.3-5l4.1-19.26q1.43-6.77.56-9.79a6.23,6.23,0,0,0-2.2-3.38A5.68,5.68,0,0,0,285,39.46a22.91,22.91,0,0,0-8.67,2,37,37,0,0,0-9.11,5.47A9.56,9.56,0,0,0,263.87,52.25Z"/>
      <path class="st01" d="M332,73.09a41.7,41.7,0,0,0-.83,5,16.22,16.22,0,0,0,0,3.1A2.15,2.15,0,0,0,332.37,83a9.61,9.61,0,0,0,2.39.8,35.6,35.6,0,0,0,3.92.42,3.15,3.15,0,0,1,.09,2.29,4.18,4.18,0,0,1-1,2.29q-10.85-.27-14-.27-3.53,0-14.25.27a3.22,3.22,0,0,1-.12-2.29,4,4,0,0,1,1-2.29,43.12,43.12,0,0,0,4.89-.54,6.66,6.66,0,0,0,2.95-1.49A7,7,0,0,0,320.37,79,50,50,0,0,0,322,73.1l5.28-24.72q1.11-5.27,0-6.69t-6.41-1.92a6.17,6.17,0,0,1,.5-3.59q12.2-1.55,18.21-3.66a2.26,2.26,0,0,1,.83.13,1.1,1.1,0,0,1,.5.31.47.47,0,0,1,.09.43q-2.25,8.11-3.56,14.43Zm1.33-60.51a7.35,7.35,0,0,1,3-4.15,8.14,8.14,0,0,1,4.83-1.93A4.34,4.34,0,0,1,345,8.61a5.75,5.75,0,0,1,.87,4.46A7.53,7.53,0,0,1,343,17.19a7.85,7.85,0,0,1-5,2,4.41,4.41,0,0,1-3.75-2.07A5.68,5.68,0,0,1,333.29,12.58Z"/>
      <path class="st01" d="M387.84,77.12A42.54,42.54,0,0,1,379.63,85,25.19,25.19,0,0,1,372,88.87a28.49,28.49,0,0,1-7.62,1q-11.78,0-16.85-7.56T345.15,62.2a38.3,38.3,0,0,1,7.28-15.61A41.15,41.15,0,0,1,358,40.82a35.53,35.53,0,0,1,6.32-4.33,32.31,32.31,0,0,1,6.59-2.67,24.25,24.25,0,0,1,6.51-.93q9,0,13.37,3.35a8.09,8.09,0,0,1,3.27,8.67,6.25,6.25,0,0,1-2.73,4.18,8,8,0,0,1-4.46,1.46q-4.22,0-3.72-4.46a41.41,41.41,0,0,0,0-4.15,4.07,4.07,0,0,0-1.85-3.2,9.15,9.15,0,0,0-5.3-1.26q-6.37,0-11.71,6T356.84,59.6Q354.55,70.35,358,77t10.63,6.64q8.73,0,16.95-8.3A2.33,2.33,0,0,1,387.84,77.12Z"/>
      <path class="st01" d="M78.14,191.56c-.14.05-.21.1-.21.14l-.57.29a45.15,45.15,0,0,1-21.07,5.14A37,37,0,0,1,40.68,194a23.87,23.87,0,0,1-10.5-8.93,24.47,24.47,0,0,1-3.68-13.42q0-17.37,23-30.43l.5-.29v-.42a49.48,49.48,0,0,1,2.36-15.11,36.45,36.45,0,0,1,6.21-12.11q7-8.49,15.36-8.5a10.35,10.35,0,0,1,7.32,2.61,8.44,8.44,0,0,1,2.82,6.46q0,8.66-12.93,16.93-2.15,1.42-8,4.72-6.35,3.5-8.35,4.5a49.78,49.78,0,0,0,3.32,14.71,66,66,0,0,0,7.39,14.64,70.05,70.05,0,0,0,16.71,17.07,46.66,46.66,0,0,0,8.93-8.32,42.77,42.77,0,0,0,6.18-9.79,23.24,23.24,0,0,0,2.25-9.46,11.05,11.05,0,0,0-2.39-7.39A7.74,7.74,0,0,0,91,148.64q-10,0-14.86,17.5l-3.71-5.5a26.31,26.31,0,0,1,4-8.29,19.83,19.83,0,0,1,6.22-5.64,14.67,14.67,0,0,1,7.32-2,11.62,11.62,0,0,1,6.21,1.71,12,12,0,0,1,4.39,4.79,14.31,14.31,0,0,1,1.61,6.78,23.33,23.33,0,0,1-1.36,7.61,39.41,39.41,0,0,1-3.71,7.82,50,50,0,0,1-5.89,7.71,47.8,47.8,0,0,1-7.18,6.5l.36.22a27.39,27.39,0,0,0,14.71,4.57,20,20,0,0,0,9.75-2.22,28,28,0,0,0,8.18-7.49l1,1.14q-8.5,12.93-22.14,12.93A34,34,0,0,1,78.14,191.56Zm-2.21-1.36a54.49,54.49,0,0,1-17.86-19.6,64.89,64.89,0,0,1-8-27.11l-.07-.35Q34,153.35,34,168a24,24,0,0,0,7.65,18.18q7.64,7.25,19.14,7.25A36.7,36.7,0,0,0,75.93,190.2ZM54.79,138a110,110,0,0,0,15.42-9.5,23.65,23.65,0,0,0,6.29-6.9,14.81,14.81,0,0,0,2.36-7.53,6.12,6.12,0,0,0-1.9-4.79,7.22,7.22,0,0,0-5-1.71,12.27,12.27,0,0,0-8.54,3.75,26.22,26.22,0,0,0-6.32,10.07,38.45,38.45,0,0,0-2.35,13.53v1.86Z"/>
      <path class="st01" d="M159.05,268.19c-6.78,1.47-13.14,10.56-20.55,28.88h-5c3.49-8.53,9.64-28.11,9.64-30.63a.75.75,0,0,0-.77-.84c-1.11,0-2.93,1.61-5.87,6.3l-.35.56-1.61-1,1.47-2.31c2.87-4.55,5.8-7.06,8.11-7.06a3.21,3.21,0,0,1,3.43,3.49c0,3.29-1.4,8.74-3.92,15.25,6.71-11,13.57-18.74,16.43-18.74a2.57,2.57,0,0,1,2.8,2.65C162.9,266.79,161.85,267.63,159.05,268.19Z"/>
      <path class="st01" d="M180.1,298.11c-9.51,0-15.31-6.43-15.31-17.12,0-11.4,6.08-18.95,15.31-18.95,8.67,0,13.42,5.73,14,16.64H170.24v2.24c0,8.87,4.34,14,11.89,14,4,0,7.41-1.68,10.55-5.25l1.47,1.19A16.56,16.56,0,0,1,180.1,298.11Zm.21-34.39c-5.52,0-9.16,4.89-9.86,13.28h17.69C187.79,267.56,185.55,263.72,180.31,263.72Z"/>
      <path class="st01" d="M213.45,298.11c-5.1,0-7.34-2.72-7.34-8.94V265h-4.55v-1.53c4.27-.91,6.65-4.41,7.35-10.56h1.88v10.14H221v2H210.79V289.1c0,3.91,1.26,5.66,4.13,5.66,2,0,4.05-1.05,5.94-3.08L222.4,293C219.74,296.44,216.81,298.11,213.45,298.11Z"/>
      <path class="st01" d="M242.88,298.11c-9.3,0-15.17-7-15.17-18s5.87-18,15.38-18c9.16,0,15,7.06,15,18S252.25,298.11,242.88,298.11Zm.14-34.32c-6.29,0-9.85,5.8-9.85,16.29s3.49,16.36,9.78,16.36,9.72-5.95,9.72-16.36S249.11,263.79,243,263.79Z"/>
      <path class="st01" d="M286.79,298.11V292l-.14.21c-2.93,3.64-7.06,5.87-11,5.87-6.08,0-9.15-3.56-9.15-10.76V269.94c0-2.38-1.26-3.71-3.43-3.71h-.7v-1.47l8.81-2.65v25.24c0,4.61,2.1,7.13,5.94,7.13a13.35,13.35,0,0,0,9.65-4.83V269.94c0-2.38-1.26-3.71-3.42-3.71h-.7v-1.47l8.81-2.65V291.4c0,3.08,1,4.27,3.84,4.27h.84v1.68Z"/>
      <path class="st01" d="M324.69,270.5a2.63,2.63,0,0,1-2.59-2.59,3.43,3.43,0,0,1,.07-.77,10.06,10.06,0,0,0,.07-1.26,2.15,2.15,0,0,0-2.31-2.09c-5.8,0-13.42,14.54-13.42,25.59,0,4.19,1.47,6.15,4.54,6.15,3.64,0,6.85-2,11.05-7l1.4,1.11c-4.62,5.81-8.74,8.46-12.87,8.46-5.8,0-9.16-4.05-9.16-11,0-12.24,9.65-25,18.88-25,4,0,7.2,2.31,7.2,5.1A3,3,0,0,1,324.69,270.5Z"/>
      <path class="st01" d="M350.84,297.07v-1.68h.76c2.8,0,3.85-1.19,3.85-4.34V272.11c0-4.9-1.68-6.79-5.87-6.79-3.22,0-6.37,1.61-9.65,4.83v20.9c0,3.15,1.05,4.34,3.84,4.34h.77v1.68h-14v-1.68h.84c2.8,0,3.84-1.19,3.84-4.34V251.2c0-2.31-1.25-3.7-3.42-3.7h-.7V246l8.81-2.66v24.68c3.84-4.19,7.06-5.94,11.25-5.94,6.23,0,8.95,3,8.95,10v18.94c0,3.15,1.05,4.34,3.85,4.34h.84v1.68Z"/>
      <path class="st01" d="M135.32,178.27a29.61,29.61,0,0,0,.73-5.06,12.54,12.54,0,0,0-.24-3.2,2.6,2.6,0,0,0-1.67-1.83,11.82,11.82,0,0,0-2.87-.79q-1.53-.21-4.56-.33a3.15,3.15,0,0,1-.12-2.27,3.81,3.81,0,0,1,1-2.25q12.53.26,16.16.25c1.82,0,4.89-.15,9.23-.44s7-.43,7.9-.43a42,42,0,0,1,9.81,1,20.22,20.22,0,0,1,6.82,2.78,20.59,20.59,0,0,1,4.29,4,10.44,10.44,0,0,1,2.24,4.59,46.31,46.31,0,0,1,.67,4.64,10.76,10.76,0,0,1-.39,4.21,30.38,30.38,0,0,1-3.3,8.7,39.38,39.38,0,0,1-6.38,8.33,28.75,28.75,0,0,1-10.52,6.51,41,41,0,0,1-14.52,2.47,26.2,26.2,0,0,1-9.8-1.51l-4.57,21.5a37.25,37.25,0,0,0-.71,4.33,6.83,6.83,0,0,0,.31,3,5.78,5.78,0,0,0,1.08,1.88,4.92,4.92,0,0,0,2.3,1.07,21.93,21.93,0,0,0,3.15.57c1,.1,2.44.21,4.34.33a3.26,3.26,0,0,1,.13,2.29,4,4,0,0,1-1,2.29q-12.62-.27-18.15-.27-4.08,0-16.53.27a3.22,3.22,0,0,1-.12-2.29,4,4,0,0,1,1-2.29,54.32,54.32,0,0,0,5.67-.48,8.88,8.88,0,0,0,3.53-1.46,7.21,7.21,0,0,0,2.57-3.25,38,38,0,0,0,1.73-6Zm11.56-4-6.3,29.62c1.45.42,4.62.62,9.51.62q9.49,0,15.22-4.58t7.89-14.53a29.2,29.2,0,0,0,.78-6.08,19.44,19.44,0,0,0-.44-4.7,9.54,9.54,0,0,0-1.49-3.38,9.82,9.82,0,0,0-2.29-2.34,11.46,11.46,0,0,0-3-1.44,18.36,18.36,0,0,0-3.39-.77,30.15,30.15,0,0,0-3.72-.21Q148.62,166.51,146.88,174.3Z"/>
      <path class="st01" d="M200.71,208.28l-4.45,20.85q-.67,3.17-.9,5a17.27,17.27,0,0,0-.12,3.1,2.15,2.15,0,0,0,1,1.82,6.61,6.61,0,0,0,2,.81,24.12,24.12,0,0,0,3.19.42,3.26,3.26,0,0,1,.13,2.29,4,4,0,0,1-1,2.29q-10.64-.27-12.49-.27-3.45,0-14,.27a3.15,3.15,0,0,1-.09-2.29,4.11,4.11,0,0,1,1-2.29,40.85,40.85,0,0,0,4.68-.54,6.79,6.79,0,0,0,2.88-1.46,7,7,0,0,0,2.13-3.19,52,52,0,0,0,1.58-6l11.85-55.45a35.53,35.53,0,0,0,.8-4.89,25.66,25.66,0,0,0,.06-2.94,1.85,1.85,0,0,0-1-1.65,5.73,5.73,0,0,0-1.76-.62q-.84-.12-2.88-.24h-.41l-.37,0a3,3,0,0,0-.4,0,1.84,1.84,0,0,1-.37-1.08,5.16,5.16,0,0,1,.06-1.46,4.16,4.16,0,0,1,.37-1.23c1.69-.13,3.78-.39,6.25-.78s4.87-.84,7.16-1.33a38.21,38.21,0,0,0,5-1.36,1.8,1.8,0,0,1,1.21.31,1,1,0,0,1,.22,1q-1.62,5.07-3.35,13.32l-6.1,28.59c-.13.57-.09.84.12.8a5.48,5.48,0,0,0,1.11-.87q11.35-10.25,23.71-10.25,7.21,0,9.57,4.34t-.19,17l-4,18.9a40.4,40.4,0,0,0-.84,5,18.05,18.05,0,0,0,0,3.1,2.17,2.17,0,0,0,1.18,1.82,8.1,8.1,0,0,0,2.16.81,35.73,35.73,0,0,0,3.6.48,3.49,3.49,0,0,1,0,2.29,4.61,4.61,0,0,1-1,2.29q-10.83-.27-13.36-.27-2.29,0-13,.27a3.63,3.63,0,0,1,0-2.29,4.61,4.61,0,0,1,1-2.29c1.57-.16,2.74-.32,3.5-.48a10.66,10.66,0,0,0,2.36-.81,4,4,0,0,0,1.86-1.81,23.89,23.89,0,0,0,1.27-3.08,49,49,0,0,0,1.3-5l4.1-19.27q1.42-6.75.56-9.79a6.2,6.2,0,0,0-2.2-3.37,5.68,5.68,0,0,0-3.56-1.21,23.07,23.07,0,0,0-8.67,2,37.32,37.32,0,0,0-9.11,5.47A9.62,9.62,0,0,0,200.71,208.28Z"/>
      <path class="st01" d="M243.13,218.6a38.79,38.79,0,0,1,11.46-20.81,30.78,30.78,0,0,1,21.74-8.86,26.57,26.57,0,0,1,9.89,1.7,16,16,0,0,1,6.56,4.56,22.8,22.8,0,0,1,3.69,6.53,20.29,20.29,0,0,1,1.24,7.72,59.5,59.5,0,0,1-.81,8.05,36,36,0,0,1-12.76,21.31A30.82,30.82,0,0,1,264,245.86a26.25,26.25,0,0,1-9.36-1.58,16.82,16.82,0,0,1-6.59-4.27,22,22,0,0,1-4-6.23,19.43,19.43,0,0,1-1.56-7.37A44.35,44.35,0,0,1,243.13,218.6Zm29.74-25.09q-14.07,0-18.84,22.16a24.61,24.61,0,0,0-.83,8.1,44.88,44.88,0,0,0,1.14,8.34,12.15,12.15,0,0,0,4,6.52,11.43,11.43,0,0,0,7.77,2.65,14,14,0,0,0,5-.93,19.9,19.9,0,0,0,5.14-3,19.26,19.26,0,0,0,4.89-6.16,35.06,35.06,0,0,0,3.41-9.75q2.85-13.49-.25-20.71T272.87,193.51Z"/>
      <path class="st01" d="M308.2,190.17h5.73q1-4.95,1.67-8.07c.43-2.08.71-3.44.85-4.07s.21-1.16.25-1.59.09-.79.13-1.05a1.51,1.51,0,0,1,.88-1,13.6,13.6,0,0,1,2.3-.86,20.9,20.9,0,0,0,2.24-.75l1.7-.72c.67-.29,1.23-.55,1.66-.79a11.57,11.57,0,0,1,1.34-.62,3.26,3.26,0,0,1,1-.26c.66,0,.91.38.74,1.14q-1.6,5.22-3.34,13.75l-1,4.87h15.23a1.09,1.09,0,0,1,.72.2.47.47,0,0,1,.09.54l-.5,2.35c-.24,1-1.38,1.54-3.4,1.49H323.31l-6.95,32.48q-.67,3.09-.93,5.17a17.55,17.55,0,0,0-.12,3.62,3.45,3.45,0,0,0,.8,2.22,2.6,2.6,0,0,0,1.93.68,19.76,19.76,0,0,0,11.15-3.62,1.91,1.91,0,0,1,1.86,2.19q-9.24,8.37-18.92,8.37-9.84,0-7.17-12.51l8-38.6h-7.49c-.42,0-.56-.22-.44-.68l.31-1.55A2.7,2.7,0,0,1,308.2,190.17Z"/>
      <path class="st01" d="M339.53,218.6A38.66,38.66,0,0,1,351,197.79a30.76,30.76,0,0,1,21.74-8.86,26.51,26.51,0,0,1,9.88,1.7,16,16,0,0,1,6.57,4.56,22.8,22.8,0,0,1,3.69,6.53,20.48,20.48,0,0,1,1.24,7.72,61.15,61.15,0,0,1-.81,8.05,36,36,0,0,1-12.76,21.31,30.83,30.83,0,0,1-20.13,7.06,26.25,26.25,0,0,1-9.36-1.58,16.79,16.79,0,0,1-6.6-4.27,22.18,22.18,0,0,1-3.95-6.23,19.43,19.43,0,0,1-1.56-7.37A43.42,43.42,0,0,1,339.53,218.6Zm29.73-25.09q-14.06,0-18.83,22.16a24.61,24.61,0,0,0-.83,8.1,44.88,44.88,0,0,0,1.14,8.34,12.15,12.15,0,0,0,4,6.52,11.43,11.43,0,0,0,7.77,2.65,14,14,0,0,0,5-.93,19.9,19.9,0,0,0,5.14-3,19.4,19.4,0,0,0,4.89-6.16,35.06,35.06,0,0,0,3.41-9.75q2.85-13.49-.25-20.71T369.26,193.51Z"/>
    </g>
  </g>
</svg>
