<svg xmlns="http://www.w3.org/2000/svg" viewBox="0 0 384.6 180.15">
  <title>sec03</title>
  <g id="レイヤー_2" data-name="レイヤー 2">
    <g id="content">
      <path class="st01" d="M28.23,162.75a9.57,9.57,0,0,0-.53,2.84c0,.4.2.66.47.66,1,0,3.57-2.77,5.95-6.48l1.46,1c-4,6.29-6.62,8.87-9.07,8.87-1.85,0-3-1.32-3-3.51a24.51,24.51,0,0,1,.66-4.63c-2.32,5.36-6.09,8.14-10.85,8.14s-7.74-2.78-7.74-7.54c0-13.43,9.39-26.6,18.85-26.6,2.85,0,4.7.86,6,2.91l2.45-9.53a9.32,9.32,0,0,0,.27-1.72c0-1.52-.73-1.92-3.38-1.92H29l.4-1.65,10-2.18Zm-3.37-25.67q-5.66,0-10.12,9.13c-1.92,4-4.24,13-4.24,16.67,0,2.78,1.39,4.17,4.1,4.17,4.3,0,7.94-4,10.79-11.71,1.85-5.16,3.57-12.18,3.57-14.82C29,138.33,27.44,137.08,24.86,137.08Z"/>
      <path class="st01" d="M57.67,169.63c-9,0-14.48-6.09-14.48-16.21,0-10.79,5.75-17.93,14.48-17.93,8.21,0,12.71,5.43,13.24,15.75H48.35v2.11c0,8.41,4.1,13.24,11.24,13.24,3.77,0,7-1.59,10-5L71,162.75A15.69,15.69,0,0,1,57.67,169.63Zm.2-32.55c-5.22,0-8.66,4.63-9.33,12.57H65.28C65,140.72,62.84,137.08,57.87,137.08Z"/>
      <path class="st01" d="M106.37,138.07c-1.59,0-3.24,1.85-4.5,5L91.55,168.64H90l-9.72-26.2c-1.26-3.38-2.12-4.37-3.84-4.37h-.86v-1.59h12v1.59h-.86c-1.45,0-2.44.53-2.44,1.32a8.51,8.51,0,0,0,.72,2.52L92,161.36l7.28-18.26a9.9,9.9,0,0,0,.66-2.78c0-1.39-1.12-2.25-2.91-2.25h-.86v-1.59H106.9v1.59Z"/>
      <path class="st01" d="M126,169.63c-9,0-14.48-6.09-14.48-16.21,0-10.79,5.75-17.93,14.48-17.93,8.21,0,12.71,5.43,13.24,15.75H116.63v2.11c0,8.41,4.1,13.24,11.24,13.24,3.78,0,7-1.59,10-5l1.39,1.13A15.69,15.69,0,0,1,126,169.63Zm.2-32.55c-5.22,0-8.66,4.63-9.33,12.57h16.74C133.23,140.72,131.12,137.08,126.15,137.08Z"/>
      <path class="st01" d="M146.33,168.64v-1.59h.8c2.64,0,3.64-1.13,3.64-4.1V125.23c0-2.18-1.19-3.5-3.25-3.5h-.66v-1.39l8.34-2.52V163c0,3,1,4.1,3.64,4.1h.79v1.59Z"/>
      <path class="st01" d="M180.47,169.63c-8.8,0-14.35-6.62-14.35-17.07s5.55-17,14.55-17c8.67,0,14.23,6.68,14.23,17.07S189.34,169.63,180.47,169.63Zm.14-32.49c-6,0-9.33,5.49-9.33,15.42S174.59,168,180.54,168s9.2-5.62,9.2-15.48S186.36,137.14,180.61,137.14Z"/>
      <path class="st01" d="M217,169.63a12.11,12.11,0,0,1-8.61-3.38v8.21c0,3,1,4.1,3.64,4.1h.8v1.59h-13.3v-1.59h.79c2.65,0,3.64-1.19,3.64-4.1V143c0-2.25-1.19-3.51-3.24-3.51h-.66v-1.39l8.33-2.51v3.3a13.83,13.83,0,0,1,8.87-3.3c8.8,0,13.89,6.15,13.89,16.67S225.6,169.63,217,169.63Zm-.67-31.56c-3,0-4.69.73-7.94,3.37v21.9a9.84,9.84,0,0,0,7.61,3.58c6.42,0,10-5.1,10-14.29S222.42,138.07,216.33,138.07Z"/>
      <path class="st01" d="M273.83,168.64v-1.59h.79c2.65,0,3.64-1.13,3.64-4.1V144.88c0-4.3-1.85-6.48-5.36-6.48-3.24,0-4.89.53-8.47,4.1l-.39.4v20c0,3,1,4.1,3.64,4.1h.79v1.59H255.24v-1.59H256c2.64,0,3.63-1.13,3.63-4.1V146.14c0-6.28-1-7.67-5.42-7.67a12.6,12.6,0,0,0-8.73,4V163c0,3,1,4.1,3.63,4.1h.73v1.59H236.58v-1.59h.79c2.65,0,3.64-1.13,3.64-4.1V143c0-2.25-1.19-3.51-3.24-3.51h-.66v-1.39l8.34-2.51v5c3-3.38,6.21-5,10.05-5,4.37,0,7.08,1.65,8.21,5.09,3.37-3.44,6.74-5.09,10.52-5.09,5.69,0,8.46,3,8.46,9V163c0,3,1,4.1,3.64,4.1h.8v1.59Z"/>
      <path class="st01" d="M307,169.63c-9,0-14.49-6.09-14.49-16.21,0-10.79,5.76-17.93,14.49-17.93,8.21,0,12.71,5.43,13.24,15.75H297.71v2.11c0,8.41,4.11,13.24,11.25,13.24,3.77,0,7-1.59,10-5l1.39,1.13A15.7,15.7,0,0,1,307,169.63Zm.2-32.55c-5.23,0-8.67,4.63-9.33,12.57h16.74C314.32,140.72,312.2,137.08,307.24,137.08Z"/>
      <path class="st01" d="M346.21,168.64v-1.59h.73c2.65,0,3.64-1.13,3.64-4.1V145c0-4.63-1.59-6.42-5.56-6.42-3,0-5.95,1.45-9.13,4.56V163c0,3,1,4.1,3.64,4.1h.73v1.59H327v-1.59h.8c2.64,0,3.64-1.13,3.64-4.1V143c0-2.25-1.19-3.51-3.24-3.51h-.67v-1.39l8.34-2.51v5.62c3.11-3.71,6.75-5.62,10.65-5.62,5.89,0,8.47,2.84,8.47,9.46V163c0,3,1,4.1,3.64,4.1h.79v1.59Z"/>
      <path class="st01" d="M375.39,169.63c-4.83,0-6.95-2.58-6.95-8.47V138.33h-4.3v-1.45c4-.86,6.29-4.17,6.95-10h1.79v9.59h9.65v1.85h-9.65v22.76c0,3.71,1.19,5.36,3.9,5.36a7.94,7.94,0,0,0,5.62-2.91l1.46,1.26C381.34,168,378.57,169.63,375.39,169.63Z"/>
      <path class="st01" d="M67.54,4.07a139.88,139.88,0,0,1-1.37,18.16c-.79.5-2.37.77-4.75.82a37.18,37.18,0,0,0-1.14-6.79,21.84,21.84,0,0,0-2.51-5.58A10.52,10.52,0,0,0,52.68,6.5a21.43,21.43,0,0,0-8.26-1.41Q38.3,5.09,32.58,10T25.63,20.79a8.44,8.44,0,0,0-.31,3.87,27.76,27.76,0,0,0,.76,3.39A8.34,8.34,0,0,0,27.73,31a31.19,31.19,0,0,0,2.34,2.53,17.31,17.31,0,0,0,2.79,2.16C34,36.4,35,37,35.92,37.51s2,1,3.13,1.54,2.15,1,3,1.3,1.75.72,2.71,1.14,1.7.73,2.21,1Q55,46.22,59,52t2,14.93a31.14,31.14,0,0,1-6.29,12.77A38.57,38.57,0,0,1,43,89.54a37.55,37.55,0,0,1-18.37,4.6A59.86,59.86,0,0,1,11,92.5,51.55,51.55,0,0,0,0,90.86,116.64,116.64,0,0,1,1.75,69.51a6.11,6.11,0,0,1,4.68-.41,28.55,28.55,0,0,0,1.41,9,15.14,15.14,0,0,0,4,6.2,16.4,16.4,0,0,0,6.37,3.56,29.52,29.52,0,0,0,8.77,1.17q8.54,0,14-4.42T48.2,71.78a23,23,0,0,0,.52-4.42,17.14,17.14,0,0,0-.31-3.74,11.89,11.89,0,0,0-1.13-3.12A14.33,14.33,0,0,0,45.56,58a16.26,16.26,0,0,0-2.24-2.09,20.54,20.54,0,0,0-2.51-1.72Q39.6,53.49,38,52.72T35.2,51.46l-2.79-1.17q-1.54-.66-2.58-1.14a45.66,45.66,0,0,1-9-5.62,18.77,18.77,0,0,1-5.47-7.89,19,19,0,0,1-.55-11.17A28.81,28.81,0,0,1,26.36,6.79,33.69,33.69,0,0,1,46.76,0,41.51,41.51,0,0,1,60.25,1.89,52.64,52.64,0,0,0,67.54,4.07Z"/>
      <path class="st01" d="M76.84,115.36Q69,125.46,61,125.45a6.17,6.17,0,0,1-4.4-1.48,3.73,3.73,0,0,1-1.1-3.75,8,8,0,0,1,2.54-3.92,7,7,0,0,1,5-2.13,10.26,10.26,0,0,1,1.82.2,12,12,0,0,0,2.17.21,9.55,9.55,0,0,0,7.91-4.06q4.83-6.88,8.26-12.94,2.68-4.74.83-13.28L76,47.21q-1.45-6.48-2.89-8.1c-1-1.08-3-1.75-6-2a3.5,3.5,0,0,1-.14-2.51A4.93,4.93,0,0,1,68,32c3.72.2,7.5.3,11.36.3q5.52,0,16-.3a2.07,2.07,0,0,1,.24,1,6.31,6.31,0,0,1-.1,1.5A6.64,6.64,0,0,1,95.13,36a3.13,3.13,0,0,1-.72,1.08A15.86,15.86,0,0,0,88.7,38.3a2.71,2.71,0,0,0-1.62,2.55,20.35,20.35,0,0,0,.65,4.22,2.35,2.35,0,0,1,.16.74l6.23,29.33c.55,2.67,1.65,2.71,3.31.14l20.85-31.93a6.08,6.08,0,0,0,1.1-2.51,2.56,2.56,0,0,0-.28-1.74A3.11,3.11,0,0,0,117.59,38a10.47,10.47,0,0,0-2.13-.61c-.69-.11-1.54-.22-2.55-.31a3.5,3.5,0,0,1-.14-2.51,4.93,4.93,0,0,1,1.1-2.58q10.39.3,12.73.3,3,0,10.12-.3a3.6,3.6,0,0,1,.14,2.55,4.22,4.22,0,0,1-1.17,2.54A14.12,14.12,0,0,0,128.36,40a24.94,24.94,0,0,0-6,6.06q-13,18.82-37.17,57.22Q80.77,110.29,76.84,115.36Z"/>
      <path class="st01" d="M130.94,73.08a4,4,0,0,1,2.34-.68,2.48,2.48,0,0,1,2.07.54q.27,9.81,2.75,12.79,2.34,3.31,9.29,3.32a17.2,17.2,0,0,0,8.81-2.51,10.71,10.71,0,0,0,5.3-7.17q1-4.53-1.31-7.34T150,65.77q-7.77-3.45-10.39-7.54t-1-11.59Q140,40,146.94,35.47a26.5,26.5,0,0,1,14.9-4.57,41.38,41.38,0,0,1,6.57.52q3.27.52,6.81,1.35l4.51,1q-.48,1.86-2,7t-2.1,7.9a4,4,0,0,1-2.37.68,2.72,2.72,0,0,1-2.17-.54,16.62,16.62,0,0,0-.79-6.94,7.47,7.47,0,0,0-3-4,14.08,14.08,0,0,0-3.44-1.55,11.92,11.92,0,0,0-3.09-.41,12.86,12.86,0,0,0-7.37,2.4,10.3,10.3,0,0,0-4.4,6.47,16.11,16.11,0,0,0-.31,2.57,5.7,5.7,0,0,0,.34,2.16c.26.68.51,1.28.76,1.8a4.59,4.59,0,0,0,1.38,1.55q1,.78,1.68,1.29a14.11,14.11,0,0,0,2.24,1.22c1,.47,1.85.83,2.44,1.08l2.82,1.2Q175.54,64,172.85,76.41A19.23,19.23,0,0,1,168.72,85a20.38,20.38,0,0,1-7.16,5.53,40.88,40.88,0,0,1-7.81,2.71,31.81,31.81,0,0,1-7.05.86,48.26,48.26,0,0,1-12.52-1.53,8.92,8.92,0,0,0-2.76-.32,18.3,18.3,0,0,0-3.58.47Q129.35,85.32,130.94,73.08Z"/>
      <path class="st01" d="M191,32.27h6.35l1.86-9c.48-2.31.8-3.82.94-4.52a16,16,0,0,0,.29-1.77c.05-.48.09-.87.14-1.16a1.67,1.67,0,0,1,1-1.1,15.66,15.66,0,0,1,2.55-.94,25.41,25.41,0,0,0,2.49-.84l1.89-.8c.74-.32,1.36-.61,1.84-.87a12.58,12.58,0,0,1,1.49-.7,3.62,3.62,0,0,1,1.1-.29c.73,0,1,.43.82,1.28q-1.78,5.79-3.71,15.27l-1.16,5.4h16.93a1.13,1.13,0,0,1,.79.23.52.52,0,0,1,.11.6l-.56,2.61c-.27,1.15-1.53,1.7-3.78,1.66H207.76L200,73.44c-.5,2.29-.85,4.21-1,5.74a20.14,20.14,0,0,0-.13,4,3.89,3.89,0,0,0,.89,2.48,2.92,2.92,0,0,0,2.14.75,21.93,21.93,0,0,0,12.39-4,2.13,2.13,0,0,1,2.06,2.43q-10.24,9.3-21,9.3-10.93,0-8-13.9l8.91-42.87H188c-.46,0-.62-.26-.48-.77l.34-1.72A3,3,0,0,1,191,32.27Z"/>
      <path class="st01" d="M271.06,79.69a2.35,2.35,0,0,1,2.47,2.2q-12,12.26-26.56,12.25-13.9,0-19.61-9-5-7.65-2.2-20.86a43.81,43.81,0,0,1,5.67-14.14,41,41,0,0,1,9.09-10.46,44.07,44.07,0,0,1,10.39-6.26,26.1,26.1,0,0,1,10.08-2.24q23.81,0,18.58,24.5a2.84,2.84,0,0,1-3.17,2.41l-37.43-.27q-2.55,11.84.41,19.33a16.29,16.29,0,0,0,5.54,7.61A13,13,0,0,0,252,87.26a26.23,26.23,0,0,0,10-1.69A35.4,35.4,0,0,0,271.06,79.69Zm-31.25-27,25.6-.39A2.37,2.37,0,0,0,268,50.47q1.73-7.72-1-11a9.4,9.4,0,0,0-7.6-3.23,20.33,20.33,0,0,0-2.79.19,16.93,16.93,0,0,0-3.78,1.19,19,19,0,0,0-4.48,2.64,25.21,25.21,0,0,0-4.44,4.86A34.13,34.13,0,0,0,239.81,52.71Z"/>
      <path class="st01" d="M309.07,42.28q-.19.88,0,1a12.5,12.5,0,0,0,1.31-1q13.35-11.39,23.8-11.38a12.31,12.31,0,0,1,8.59,2.92,9.67,9.67,0,0,1,3.3,7.37c0,.91.51.93,1.52.07Q359.62,30.9,373,30.9q5.93,0,8.67,3a10.76,10.76,0,0,1,2.55,8,78.68,78.68,0,0,1-1.45,11.41l-4.58,22.24-1,4.92a11.12,11.12,0,0,0-.25,3.28,6.05,6.05,0,0,0,.48,2.07A2.81,2.81,0,0,0,378.84,87a8.33,8.33,0,0,0,2.21.64c.75.1,1.87.22,3.33.35a3.87,3.87,0,0,1,0,2.54A5.09,5.09,0,0,1,383.35,93q-12-.3-14.38-.31-2.54,0-14.37.31a4.06,4.06,0,0,1-.07-2.55,4.94,4.94,0,0,1,1-2.54,20.12,20.12,0,0,0,5.89-1.1,6.53,6.53,0,0,0,3-3.18,37.39,37.39,0,0,0,2.58-8.11l5.21-24.78q1.44-6.81-.07-9.7c-1-1.92-2.92-2.89-5.73-2.89q-10.22,0-20.63,9.27c-.14,1.16-.48,3.07-1,5.71l-4.7,22.35c-.33,1.58-.6,2.88-.82,3.91a17.63,17.63,0,0,0-.39,2.84c-.05.86-.06,1.55,0,2.06a2.94,2.94,0,0,0,.45,1.42,3,3,0,0,0,2.17,1.55,16.07,16.07,0,0,0,1.79.39c.57.08,1.36.17,2.37.26a3.87,3.87,0,0,1,0,2.54A5.18,5.18,0,0,1,344.6,93q-12-.3-13.69-.31-2.52,0-14.36.31a4,4,0,0,1-.07-2.55,4.86,4.86,0,0,1,1-2.54,20.63,20.63,0,0,0,6-1.1,6.24,6.24,0,0,0,3-3.14A39.35,39.35,0,0,0,329,75.56l5.14-24.5q2.75-12.8-6.6-12.87-6.82,0-17.17,8.29a10.75,10.75,0,0,0-3.69,5.89L301.89,75.5l-1,4.92a12,12,0,0,0-.29,3.27,6.26,6.26,0,0,0,.42,2,2.53,2.53,0,0,0,1.34,1.15,8.69,8.69,0,0,0,2.06.67q1,.19,3,.39a3.58,3.58,0,0,1,.14,2.54,4.6,4.6,0,0,1-1.1,2.55q-11.66-.3-13.66-.31-3.58,0-15.21.31a3.49,3.49,0,0,1-.11-2.55A4.59,4.59,0,0,1,278.63,88a38.13,38.13,0,0,0,4.95-.63,7.81,7.81,0,0,0,3.13-1.63,8,8,0,0,0,2.41-3.54A52,52,0,0,0,291,75.56l5.81-27.47c.83-3.94.82-6.42,0-7.46s-3.23-1.73-7.12-2.09a6.79,6.79,0,0,1,.55-4,92.19,92.19,0,0,0,18.64-4.06,1.33,1.33,0,0,1,1.44,1.1Q310.8,34.07,309.07,42.28Z"/>
    </g>
  </g>
</svg>
