<svg xmlns="http://www.w3.org/2000/svg" viewBox="0 0 262.4 205.05">
  <title>sec01</title>
  <g id="レイヤー_2" data-name="レイヤー 2">
    <g id="content">
      <path class="st01" d="M41.1,181.85a12.46,12.46,0,0,0-.7,3.79c0,.53.26.88.61.88,1.33,0,4.77-3.7,7.94-8.64l1.95,1.32C45.51,187.58,42.07,191,38.81,191c-2.47,0-4-1.76-4-4.67a32.26,32.26,0,0,1,.88-6.18C32.63,187.32,27.6,191,21.25,191c-6.53,0-10.32-3.7-10.32-10.06,0-17.91,12.53-35.46,25.14-35.46,3.8,0,6.27,1.14,8,3.88l3.27-12.71a12.54,12.54,0,0,0,.35-2.29c0-2-1-2.56-4.5-2.56H42.07l.53-2.2,13.32-2.92Zm-4.5-34.24q-7.55,0-13.5,12.18c-2.55,5.29-5.64,17.29-5.64,22.23,0,3.71,1.85,5.56,5.47,5.56,5.73,0,10.58-5.29,14.38-15.62,2.47-6.88,4.76-16.23,4.76-19.76C42.07,149.29,40,147.61,36.6,147.61Z"/>
      <path class="st01" d="M67,174a34.38,34.38,0,0,0-.79,6.44c0,4.94,1.76,7.24,5.47,7.24,3.53,0,7.58-2.74,12.79-8.56a14.62,14.62,0,0,1,1-1.15l1.85,1.33C79.92,187.76,75.07,191,69.69,191c-6.09,0-10.15-5.2-10.15-13.14,0-16.15,12-32.3,24-32.3,4.5,0,7.23,2.56,7.23,6.8C90.77,162.35,82.48,169.85,67,174Zm15.44-25.76c-6.7,0-12.17,8.29-15.17,23.12,12-3.09,18.79-10.15,18.79-19.5C86.1,149.47,84.86,148.23,82.48,148.23Z"/>
      <path class="st01" d="M123.42,156c-2,0-3-1-3.62-3.53-.7-3.18-2.2-4.42-5.38-4.42-4.76,0-8.47,3.36-8.47,7.59,0,3.53,1.5,5.47,7.32,9.62,7,4.94,8.47,7.06,8.47,12.26,0,7.85-6.44,13.5-15.26,13.5-6.79,0-12.79-3.7-12.79-7.85a3.36,3.36,0,0,1,3.61-3.53c2.21,0,2.21.09,4.42,5.47.79,1.94,3.08,2.91,6.08,2.91a8.71,8.71,0,0,0,9-8.47c0-2.56-1-4.06-4.06-6.26-9.61-7.06-11.47-9.53-11.47-15.35,0-7.24,5.83-12.36,14-12.36,6.18,0,11.38,3.09,11.38,6.8C126.68,154.58,125.45,156,123.42,156Z"/>
      <path class="st01" d="M139.92,191c-3.09,0-4.85-1.76-4.85-4.76,0-1.5.17-2.21,1.05-4.86L145,154.05a16.3,16.3,0,0,0,1.06-3.7.8.8,0,0,0-.8-.8c-1.06,0-5.12,4.95-7.41,9l-2-1.05c5.47-8.74,8.65-11.92,12-11.92a3.75,3.75,0,0,1,4,4,15.59,15.59,0,0,1-.88,4.59l-9.35,28.76a16.1,16.1,0,0,0-.62,2.47c0,.62.62,1.06,1.59,1.06,1.67,0,4.32-2.91,7.76-8.47l2.12,1.15C147,188,143.8,191,139.92,191Zm13.23-57.08a4.94,4.94,0,1,1,4.94-4.94A4.94,4.94,0,0,1,153.15,133.94Z"/>
      <path class="st01" d="M189.06,191.9c-2.47,9.18-7.5,13.15-16.94,13.15-6.62,0-11-2.56-11-6.44a3.28,3.28,0,0,1,3.27-3.35,3.45,3.45,0,0,1,3.53,3.35c0,.44-.09.88-.09,1.32,0,1.94,1.5,2.91,4.59,2.91,6.79,0,9.26-3.53,12.88-18.52-4.15,4.76-7.94,6.7-13.15,6.7-6.88,0-11-4.67-11-11.38,0-16.32,12.88-34.14,24.71-34.14,3.88,0,6.7,1.32,8.73,4.05l.79-2.73h5.83ZM186,147.61c-4.76,0-8.47,3.36-12.35,11.39-3.7,7.67-6.7,17.55-6.7,22.14s2.2,6.88,6.61,6.88c7.15,0,11.65-5.38,16-19.14,1.85-5.91,3.35-12.53,3.35-15.09C192.85,150.08,190.12,147.61,186,147.61Z"/>
      <path class="st01" d="M238.12,191a4.4,4.4,0,0,1-4.68-4.67,11.77,11.77,0,0,1,.53-3.71l9.62-27.7a6.7,6.7,0,0,0,.44-2.12,2.77,2.77,0,0,0-3-2.74c-5.83,0-18.35,17.38-28.5,39.62h-6.35c2.2-6.27,4.59-13.24,6.88-19.41.79-2.12,1.76-5.12,3-9.27.44-1.67,2.73-8.64,2.73-10a1,1,0,0,0-1-1.05c-1.42,0-3.27,2.38-7.42,7.94l-.53.7-1.94-1.23c.45-.71,1.42-2.21,1.86-2.91,3.61-5.74,7.32-8.92,10.32-8.92a4,4,0,0,1,4.32,4.15c0,2.91-2.64,12.26-6.44,22.94,1.5-2.73,7.5-11.56,10.68-15.7,7.14-9.27,9.79-11.39,13.94-11.39s7.32,2.83,7.32,6.27a12.37,12.37,0,0,1-.79,4l-9.27,27.53a11.72,11.72,0,0,0-.44,2.11,1,1,0,0,0,1.06,1.06c1.41,0,4.76-3.7,7.85-8.56l2,1.24C244.82,187.76,241.47,191,238.12,191Z"/>
      <path class="st01" d="M128.12,21.77a7.17,7.17,0,0,0,1.09-3.39,3.32,3.32,0,0,0-.62-2.17A4.94,4.94,0,0,0,126.16,15a21.67,21.67,0,0,0-3.09-.67c-.85-.1-2.14-.2-3.86-.31-.37-.51-.42-1.47-.16-2.89a4.73,4.73,0,0,1,1.33-2.89q12.74.34,17.51.34,2.12,0,14-.34a4,4,0,0,1,.16,2.85A5.53,5.53,0,0,1,150.79,14q-6.25.31-9.77,2.69a19.91,19.91,0,0,0-6.1,7L85,110q-2,3.66-5.16,3.73-3.6,0-4.15-3.9l-6.55-56.9c-.36-3-.78-4.45-1.25-4.45q-.94,0-3.13,4L30.27,109.83q-2.19,3.84-5.32,3.91-3.76,0-4.15-3.91L10.17,22.75Q9.39,17,7.71,15.63C6.59,14.74,4.12,14.19.32,14,0,13.48-.1,12.52.16,11.1A5.1,5.1,0,0,1,1.41,8.21q12.71.34,14.8.34,7.44,0,18.07-.34a4,4,0,0,1,.16,2.85A5.17,5.17,0,0,1,33.11,14a20.74,20.74,0,0,0-7.47,1.46q-2.37,1.17-1.91,4.81L32,94.06h.31L64,41a19.74,19.74,0,0,0,2.35-6.1,15.25,15.25,0,0,0,.16-4.47l-.85-7.37a9.57,9.57,0,0,0-3.28-6.13Q59.5,14.29,53.79,14a3.68,3.68,0,0,1-.31-1.7A7.1,7.1,0,0,1,53.91,10a4.33,4.33,0,0,1,1-1.74q12.75.34,16,.34,4.45,0,19.63-.34a3.91,3.91,0,0,1,.11,2.85A5.6,5.6,0,0,1,89.29,14c-1.87.15-3.28.31-4.22.49a14.23,14.23,0,0,0-3.28,1.11,4.61,4.61,0,0,0-2.54,2.71A10.29,10.29,0,0,0,79,23.06l7.87,71.3h.31Z"/>
      <path class="st01" d="M176.86,96.94c1.72.15,2.65,1,2.81,2.5Q166,113.35,149.49,113.35q-15.78,0-22.27-10.24-5.72-8.67-2.51-23.68a49.57,49.57,0,0,1,6.45-16.07,46.57,46.57,0,0,1,10.32-11.88,50.33,50.33,0,0,1,11.81-7.12,29.67,29.67,0,0,1,11.45-2.54q27,0,21.11,27.83-.56,2.75-3.6,2.74l-42.53-.31q-2.9,13.44.47,22a18.41,18.41,0,0,0,6.3,8.64,14.76,14.76,0,0,0,8.71,2.86,29.91,29.91,0,0,0,11.38-1.92A40.47,40.47,0,0,0,176.86,96.94Zm-35.5-30.65,29.09-.45a2.68,2.68,0,0,0,2.89-2.1q1.95-8.77-1.14-12.46a10.65,10.65,0,0,0-8.63-3.67,22.73,22.73,0,0,0-3.17.22,18.8,18.8,0,0,0-4.3,1.35,21.69,21.69,0,0,0-5.08,3,28.53,28.53,0,0,0-5,5.52A38.48,38.48,0,0,0,141.36,66.29Z"/>
      <path class="st01" d="M220.45,48.7q9.54-7.19,19.39-7.19a21.42,21.42,0,0,1,17.86,8.8q6.76,8.79,3.79,22.7a51.79,51.79,0,0,1-10.08,21.62A50.91,50.91,0,0,1,235,108.74a37.89,37.89,0,0,1-17.39,4.61q-9.41,0-13.32-4.19a2.79,2.79,0,0,0-2-1.13,4.66,4.66,0,0,0-2.47,1.55q-1.41,1.42-4.62,4.16a2.91,2.91,0,0,1-3.05-1.95,74.31,74.31,0,0,0,3.05-11.34l16.57-78.17a51.94,51.94,0,0,0,1.06-6.18,24.12,24.12,0,0,0,.08-3.71,2.41,2.41,0,0,0-1.3-2.07,6.75,6.75,0,0,0-2.19-.78c-.68-.11-1.88-.21-3.6-.32h-.5l-.47,0a3.16,3.16,0,0,0-.51,0,2.45,2.45,0,0,1-.47-1.37,7.16,7.16,0,0,1,.08-1.84,8,8,0,0,1,.39-1.56c1.61-.11,3.56-.33,5.83-.67s4.5-.7,6.71-1.09,4.31-.82,6.32-1.29A33.16,33.16,0,0,0,227.74,0a2.26,2.26,0,0,1,1.52.39,1.16,1.16,0,0,1,.2,1.25q-2,6.42-4.22,16.82L219,47.91q-.24,1.1.15,1.29C219.38,49.34,219.83,49.17,220.45,48.7Zm0,5a11.08,11.08,0,0,0-4.14,6.7l-8.53,40.08a21.6,21.6,0,0,0,4.34,5.26,8.51,8.51,0,0,0,5.6,1.85q11,0,18.68-8.82t10.71-23q2.43-11.49-1.05-19.34t-10.91-7.84A24.16,24.16,0,0,0,220.45,53.68Z"/>
    </g>
  </g>
</svg>
