<svg xmlns="http://www.w3.org/2000/svg" viewBox="0 0 396.16 113.74">
  <title>sec04</title>
  <g id="レイヤー_2" data-name="レイヤー 2">
    <g id="content">
      <path d="M128.12,21.77a7.17,7.17,0,0,0,1.09-3.39,3.32,3.32,0,0,0-.62-2.17A4.94,4.94,0,0,0,126.16,15a21.67,21.67,0,0,0-3.09-.67c-.85-.1-2.14-.2-3.86-.31-.37-.51-.42-1.47-.16-2.89a4.73,4.73,0,0,1,1.33-2.89q12.74.34,17.51.34,2.12,0,14-.34a4,4,0,0,1,.16,2.85A5.53,5.53,0,0,1,150.79,14q-6.25.31-9.77,2.69a19.91,19.91,0,0,0-6.1,7L85,110q-2,3.66-5.16,3.73-3.6,0-4.15-3.9l-6.55-56.9c-.36-3-.78-4.45-1.25-4.45q-.94,0-3.13,4L30.27,109.83q-2.19,3.84-5.32,3.91-3.76,0-4.15-3.91L10.17,22.75Q9.39,17,7.71,15.63C6.59,14.74,4.12,14.19.32,14,0,13.48-.1,12.52.16,11.1A5.1,5.1,0,0,1,1.41,8.21q12.71.34,14.8.34,7.44,0,18.07-.34a4,4,0,0,1,.16,2.85A5.17,5.17,0,0,1,33.11,14a20.74,20.74,0,0,0-7.47,1.46q-2.37,1.17-1.91,4.81L32,94.06h.31L64,41a19.74,19.74,0,0,0,2.35-6.1,15.25,15.25,0,0,0,.16-4.47l-.85-7.37a9.57,9.57,0,0,0-3.28-6.13Q59.5,14.29,53.79,14a3.68,3.68,0,0,1-.31-1.7A7.1,7.1,0,0,1,53.91,10a4.33,4.33,0,0,1,1-1.74q12.75.34,16,.34,4.45,0,19.63-.34a3.91,3.91,0,0,1,.11,2.85A5.6,5.6,0,0,1,89.29,14c-1.87.15-3.28.31-4.22.49a14.23,14.23,0,0,0-3.28,1.11,4.58,4.58,0,0,0-2.54,2.71A10.29,10.29,0,0,0,79,23.06l7.87,71.3h.31Z"/>
      <path d="M125.42,79a48.89,48.89,0,0,1,14.46-26.27q11.88-11.17,27.44-11.18a33.4,33.4,0,0,1,12.47,2.15,19.94,19.94,0,0,1,8.28,5.75,28.26,28.26,0,0,1,4.65,8.24,25.58,25.58,0,0,1,1.57,9.74,76.19,76.19,0,0,1-1,10.16q-3.51,16.73-16.1,26.89a38.92,38.92,0,0,1-25.41,8.91,32.92,32.92,0,0,1-11.8-2,21.21,21.21,0,0,1-8.33-5.4,27.48,27.48,0,0,1-5-7.85,24.39,24.39,0,0,1-2-9.3A55.17,55.17,0,0,1,125.42,79ZM162.94,47.3q-17.74,0-23.76,28a31.06,31.06,0,0,0-1.06,10.21A56.09,56.09,0,0,0,139.57,96a15.35,15.35,0,0,0,5,8.24,14.46,14.46,0,0,0,9.81,3.34,17.72,17.72,0,0,0,6.25-1.17,24.87,24.87,0,0,0,6.49-3.76,24.6,24.6,0,0,0,6.18-7.77,44.87,44.87,0,0,0,4.3-12.31q3.59-17-.32-26.14T162.94,47.3Z"/>
      <path d="M229.75,54.46c-.16.72-.08,1.11.24,1.16a3.64,3.64,0,0,0,1-.85,49.37,49.37,0,0,1,9.89-9.35q5.52-3.91,10.67-3.91,4.62,0,6.61,2.46a5.89,5.89,0,0,1,1.37,5.2,10.14,10.14,0,0,1-3.48,5.55,8.75,8.75,0,0,1-5.75,2.5,4.17,4.17,0,0,1-2.11-.54,5.2,5.2,0,0,1-1.41-1.14c-.31-.39-.69-.92-1.13-1.6l-.9-1.41a3.78,3.78,0,0,0-3.13-1.09q-1.95,0-9,7.78-5.07,5.76-6.17,10.66L222,92.14q-.72,3.54-1.15,5.68a9.73,9.73,0,0,0-.13,3.72,6.78,6.78,0,0,0,.83,2.34,4.07,4.07,0,0,0,2.18,1.31,15.51,15.51,0,0,0,3.25.69l4.84.44a4,4,0,0,1,.16,2.89,5.17,5.17,0,0,1-1.25,2.89q-13.56-.34-19-.34-4.68,0-18.29.34a4.06,4.06,0,0,1-.12-2.89,5.34,5.34,0,0,1,1.29-2.89,58.26,58.26,0,0,0,6.26-.68,9,9,0,0,0,3.83-1.84,8.78,8.78,0,0,0,2.81-4,60.89,60.89,0,0,0,2-7.52l6.64-31.2q1.35-6.72-.07-8.48t-8.06-2.38a7.75,7.75,0,0,1,.63-4.54A99.18,99.18,0,0,0,229.44,41a1.53,1.53,0,0,1,1.64,1.25Q231.71,45.11,229.75,54.46Z"/>
      <path d="M266.76,92.25l14.89-70a50.8,50.8,0,0,0,1.05-6.14,27.86,27.86,0,0,0,.12-3.7,2.31,2.31,0,0,0-1.25-2.06,7.22,7.22,0,0,0-2.22-.78c-.71-.1-1.92-.2-3.64-.31h-.51a2.77,2.77,0,0,1-.46,0c-.19,0-.36,0-.51,0a2.42,2.42,0,0,1-.47-1.38A7.24,7.24,0,0,1,273.84,6a5.58,5.58,0,0,1,.47-1.58c2.13-.15,4.75-.48,7.84-1s6.09-1.07,9-1.7A46.41,46.41,0,0,0,297.53,0a2.29,2.29,0,0,1,1.52.39,1.26,1.26,0,0,1,.27,1.25q-2,6.41-4.22,16.8L283.21,74.27q5.34-.69,12-4.84a97,97,0,0,0,15.59-12.9,18.48,18.48,0,0,0,1.76-2,10.78,10.78,0,0,0,1.29-2.42,1.91,1.91,0,0,0-.67-2.38,8.2,8.2,0,0,0-4.34-1.19,4,4,0,0,1-.15-2.85A5.17,5.17,0,0,1,310,42.76q11.79.35,15.55.34,2.12,0,14-.34a4.12,4.12,0,0,1,.15,2.89,5.13,5.13,0,0,1-1.25,2.9q-11.49,1.06-18.29,6.9L303,69.71a2.81,2.81,0,0,0-1,1.61,3.37,3.37,0,0,0,.71,2.22L318.16,100a10.93,10.93,0,0,0,4.8,4.55,28.56,28.56,0,0,0,7.55,1.73c.36.51.4,1.48.11,2.89a5.23,5.23,0,0,1-1.29,2.89q-9.54-.31-13.06-.31c-2.36,0-5.7.1-10,.31-.26,0-.42-.26-.47-.78q-.15-3.36-4.32-11.24L293.1,84.43a18.38,18.38,0,0,0-4-5.24,25,25,0,0,0-6.75-.86l-3,13.91q-.86,3.92-1.13,6.32a21.92,21.92,0,0,0-.16,4,2.86,2.86,0,0,0,1.13,2.25,6.87,6.87,0,0,0,2.07,1,20.82,20.82,0,0,0,3.33.53,4.12,4.12,0,0,1,.15,2.89,5.1,5.1,0,0,1-1.25,2.89q-13.65-.34-14.51-.34-3.67,0-17.19.34a4.06,4.06,0,0,1-.16-2.89,5.13,5.13,0,0,1,1.25-2.89,49.3,49.3,0,0,0,5.71-.68,8,8,0,0,0,3.52-1.84,9.19,9.19,0,0,0,2.62-4A71.28,71.28,0,0,0,266.76,92.25Z"/>
      <path d="M340.73,89.42a4.55,4.55,0,0,1,2.66-.76c1.2-.06,2,.15,2.35.61.2,7.43,1.25,12.28,3.12,14.53q2.65,3.77,10.56,3.77a19.47,19.47,0,0,0,10-2.85,12.15,12.15,0,0,0,6-8.15q1.1-5.14-1.48-8.34t-11.57-7.11q-8.83-3.91-11.81-8.57t-1.17-13.16q1.65-7.48,9.5-12.69a30.13,30.13,0,0,1,16.92-5.19,46.75,46.75,0,0,1,7.47.6q3.7.59,7.74,1.53l5.12,1.19c-.37,1.41-1.11,4.05-2.23,7.94s-1.91,6.88-2.38,9a4.64,4.64,0,0,1-2.7.77,3.11,3.11,0,0,1-2.46-.62,18.88,18.88,0,0,0-.9-7.88,8.56,8.56,0,0,0-3.4-4.5,15.72,15.72,0,0,0-3.91-1.76,13.44,13.44,0,0,0-3.52-.46A14.54,14.54,0,0,0,366.3,50a11.66,11.66,0,0,0-5,7.34,18.58,18.58,0,0,0-.35,2.92,6.48,6.48,0,0,0,.39,2.46c.29.77.58,1.45.86,2a5.4,5.4,0,0,0,1.57,1.76c.75.59,1.39,1.08,1.91,1.46a15.09,15.09,0,0,0,2.54,1.39c1.17.54,2.1.95,2.78,1.23l3.2,1.36q17.21,7.1,14.15,21.23a21.8,21.8,0,0,1-4.69,9.79,22.94,22.94,0,0,1-8.13,6.28,45.86,45.86,0,0,1-8.87,3.09,36,36,0,0,1-8,1,54.82,54.82,0,0,1-14.23-1.74,10.06,10.06,0,0,0-3.13-.36,20.08,20.08,0,0,0-4.06.54Q338.93,103.33,340.73,89.42Z"/>
    </g>
  </g>
</svg>
