<svg width="1274" height="795" viewBox="0 0 1274 795" fill="none" xmlns="http://www.w3.org/2000/svg">
<g clip-path="url(#clip0_1300_2185)">
<path opacity="0.1" d="M296.279 498.911H0V795H296.279V498.911Z" fill="#0A2270"/>
<path d="M296.279 498.911H0L29.6279 469.302H266.651L296.279 498.911Z" fill="#5A6994"/>
<path opacity="0.2" d="M622.186 439.693H325.907V795H622.186V439.693Z" fill="#0A2270"/>
<path d="M622.186 439.693H325.907L355.535 410.084H592.558L622.186 439.693Z" fill="#5A6994"/>
<path opacity="0.3" d="M948.093 380.475H651.814V795H948.093V380.475Z" fill="#0A2270"/>
<path d="M948.093 380.475H651.814L681.442 350.866H918.465L948.093 380.475Z" fill="#5A6994"/>
<path opacity="0.4" d="M1274 321.257H977.721V795H1274V321.257Z" fill="#0A2270"/>
<path d="M1274 321.257H977.721L1007.35 291.648H1244.37L1274 321.257Z" fill="#5A6994"/>
<path d="M503.245 158.186C509.719 152.886 515.2 140.968 514.637 133.388C514.311 129.095 511.274 122.359 505.497 122.877C503.038 119.413 492.149 121.175 488.92 124.58C485.291 128.458 483.394 133.433 483.839 137.089C484.268 140.628 487.127 144.329 488.016 147.793C488.505 149.703 486.772 149.466 488.505 149.999C489.32 150.251 490.194 150.088 491.023 149.91C498.505 148.37 496.668 163.575 503.26 158.201L503.245 158.186Z" fill="#5A6994"/>
<path d="M509.334 148.385C507.482 148.593 494.09 153.448 492.238 153.241C492.238 162.775 492.905 170.222 477.291 170.222C477.291 185.456 486.476 197.018 499.69 197.018C514.696 197.018 527.392 187.114 527.392 170.266C510.252 170.266 507.334 164.137 509.334 148.385Z" fill="#FFD8BD"/>
<path d="M501.793 125.038C492.06 123.099 485.75 130.102 485.557 140.554C485.394 149.14 488.461 156.528 492.253 159.859C496.727 163.782 507.615 159.74 509.644 153.034C511.881 145.631 515.748 127.807 501.793 125.038Z" fill="#FFD8BD"/>
<path d="M511.837 139.902C512.948 140.035 514.281 139.606 515.155 140.302C517.525 142.226 515.007 147.778 511.081 147.304C511.081 144.995 511.052 142.671 511.852 139.917L511.837 139.902Z" fill="#FFD8BD"/>
<path d="M487.29 140.968C486.179 141.101 484.846 140.672 483.972 141.368C481.602 143.292 484.12 148.844 488.046 148.37C488.046 146.061 488.075 143.736 487.276 140.983L487.29 140.968Z" fill="#FFD8BD"/>
<path d="M482.594 168.741C495.912 170.844 506.83 170.755 515.614 167.794C520.177 168.09 522.829 170.725 527.406 171.021C522.918 191.348 519.347 208.551 514.859 228.862C500.297 225.28 495.778 228.596 480.787 228.64C481.72 210.683 474.446 191.437 472.817 173.523C477.439 171.539 481.261 168.519 482.594 168.741Z" fill="white"/>
<path d="M491.971 170.503L498.83 171.051L496.445 178.157L499.63 207.588L487.068 209.498L492.89 178.645L491.971 170.503Z" fill="#1A7491"/>
<path d="M510.355 160.791C506.667 163.885 494.371 170.044 494.371 170.044C494.371 170.044 498.149 174.722 499.837 179.652C504.03 176.306 514.844 173.568 517.792 169.097C515.54 167.187 512.34 163.056 510.355 160.791Z" fill="white"/>
<path d="M490.994 163.204C493.719 167.32 495.29 170.548 495.29 170.548C495.29 170.548 490.46 173.568 489.053 178.616C484.861 175.27 486.016 173.568 483.053 169.082C485.305 167.172 489.008 165.455 490.994 163.19V163.204Z" fill="white"/>
<path d="M472.802 193.213L474.269 231.705L472.802 259.049L532.68 258.323C532.68 258.323 529.539 219.98 529.539 217.315C529.539 206.996 530.487 195.641 530.487 195.641C530.487 195.641 535.08 173.449 533.85 168.386C526.31 165.825 514.044 163.545 512.385 163.19L491.438 201.03C491.438 201.03 489.379 164.389 489.157 163.989C489.023 164.019 478.905 168.889 474.92 170.207C475.365 177.565 473.883 180.363 472.787 193.184L472.802 193.213Z" fill="#25335C"/>
<path d="M502.415 128.843C489.379 127.763 486.357 141.116 485.557 140.953C484.876 140.82 484.283 130.753 486.416 128.029C488.549 125.29 490.312 122.936 495.142 122.773C497.408 122.699 500.03 122.448 501.423 124.254C501.838 123.854 502.475 123.899 503.037 124.002C506.46 124.683 509.333 127.259 510.933 130.353C512.533 133.447 511.985 136.408 511.837 139.902C506.163 137.311 505.63 133.122 502.415 128.843Z" fill="#5A6994"/>
<path d="M468.121 258.279C468.284 261.995 468.462 265.71 468.625 269.441C468.669 270.374 468.714 271.321 469.01 272.21C469.351 273.216 469.988 274.09 470.61 274.948C471.928 276.74 473.543 278.694 475.765 278.768C476.298 277.184 475.158 275.541 474.047 274.282C472.936 273.024 471.691 271.529 472.002 269.885C472.15 269.116 472.624 268.464 472.965 267.754C473.706 266.214 473.795 264.437 473.869 262.735C473.928 261.536 473.973 260.307 473.632 259.152C473.276 257.953 472.506 256.917 471.958 255.792C471.41 254.666 471.084 253.304 471.632 252.179C470.254 252.12 468.891 252.076 467.514 252.016C467.706 254.296 468.032 256.561 468.121 258.293V258.279Z" fill="#FFD8BD"/>
<path d="M469.973 261.24C470.876 264.585 471.928 267.902 473.143 271.144C473.439 271.914 473.958 272.846 474.773 272.772C475.35 271.44 475.306 269.93 475.187 268.479C475.054 266.673 474.847 264.867 474.58 263.075C474.432 262.113 474.269 261.151 473.839 260.277C473.41 259.404 472.684 258.634 471.751 258.382C471.439 259.715 470.951 261.003 469.958 261.24H469.973Z" fill="#FFD8BD"/>
<path d="M499.497 403.955C499.497 401.246 498.46 398.359 498.608 395.575C493.423 395.916 488.268 396.671 483.987 395.975C479.054 402.844 472.935 408.87 465.973 413.681C463.514 415.384 460.581 417.738 461.499 420.699C461.84 421.824 462.699 422.697 463.766 423.201C465.899 424.207 468.195 423.822 470.387 423.378C473.469 422.756 476.52 422.001 479.542 421.113C481.765 420.462 483.987 419.736 486.061 418.67C488.105 417.604 491.349 414.732 491.349 414.732L492.238 415.413C492.238 415.413 497.482 412.304 498.919 409.699C499.186 409.033 499.823 405.939 499.512 403.94L499.497 403.955Z" fill="black"/>
<path d="M474.935 170.222C468.225 171.243 468.18 198.321 467.173 220.128C466.403 231.601 466.077 260.485 466.077 260.485L479.143 260.44C479.143 260.44 477.232 206.004 479.883 197.018C481.765 190.637 476.076 170.044 474.935 170.222Z" fill="#25335C"/>
<path d="M510.726 398.581L507.437 414.851C507.437 414.851 503.289 422.312 508.474 423.97C513.659 425.629 521.095 427.642 525.273 424.829C529.451 422.016 530.769 415.887 530.769 415.887L526.384 400.639L510.711 398.581H510.726Z" fill="black"/>
<path d="M473.306 249.692L479.098 400.106L500.104 398.655L502.356 251.439L473.306 249.692Z" fill="#25335C"/>
<path d="M498.49 256.502L507.763 401.157L529.703 402.045L530.132 256.502H498.49Z" fill="#25335C"/>
<path d="M517.161 185.045L478.082 193.839C477.324 194.009 476.848 194.762 477.019 195.52L488.278 245.492C488.449 246.25 489.202 246.725 489.96 246.555L529.039 237.761C529.797 237.59 530.273 236.838 530.103 236.08L518.843 186.108C518.672 185.35 517.919 184.874 517.161 185.045Z" fill="#F59057"/>
<path d="M488.919 190.756L491.112 196.189L504.4 193.613L504.074 188.032L488.919 190.756Z" fill="#BDBDBD"/>
<path d="M502.148 225.191C497.601 224.155 496.519 224.643 491.986 223.548C490.09 223.089 484.816 225.383 483.053 226.198C482.061 228.477 483.201 230.21 483.764 232.637C484.327 235.065 483.868 236.324 484.92 238.589C485.009 238.781 484.994 238.915 485.172 239.018C485.335 239.122 485.542 239.137 485.735 239.151C487.409 239.24 489.082 239.211 490.756 239.092C491.408 239.048 492.727 238.974 493.334 238.767C494.534 238.352 496.489 238.382 497.482 237.582C500.919 234.799 503.763 233.659 508.163 234.133C507.659 231.838 507.837 223.459 506.059 223.385C504.059 223.296 501.541 224.998 502.134 225.22L502.148 225.191Z" fill="#FFD8BD"/>
<path d="M533.865 168.401C537.317 169.659 544.191 199.016 545.702 210.401C547.302 222.334 542.502 224.732 540.872 225.901C533.436 231.29 504.504 237.567 504.504 237.567L502.563 222.763L526.192 211.541C526.192 211.541 517.777 185.633 518.607 180.037C519.422 174.426 529.258 166.728 533.865 168.416V168.401Z" fill="#25335C"/>
<path d="M244.49 222.6C246.238 221.401 248.03 220.187 249.334 218.514C249.941 217.729 250.445 216.871 250.963 216.027C252.933 212.844 258.489 206.626 258.815 206.3C262.444 202.762 266.073 199.224 269.703 195.685C269.91 195.493 270.118 195.286 270.399 195.212C270.977 195.064 271.54 195.626 271.629 196.218C271.718 196.811 271.451 197.388 271.169 197.921C269.095 201.903 265.94 205.205 262.933 208.343C264.474 209.676 265.348 211.6 266.162 213.48C267.347 216.175 268.503 218.647 267.022 221.194C265.718 223.429 259.452 226.568 255.156 226.257C252.296 229.336 246.845 232.252 243.749 235.095C242.934 231.483 241.527 228.004 239.616 224.821C241.319 222.985 243.482 221.578 244.475 222.585L244.49 222.6Z" fill="#FFD8BD"/>
<path d="M175.604 248.153L210.714 237.316L244.46 218.159L253.867 233.067L220.165 254.504L182.76 273.513L175.604 248.153Z" fill="#25335C"/>
<path d="M177.575 235.628C175.708 235.983 163.842 229.277 161.946 229.218C163.309 236.22 161.339 242.319 148.362 254.296C149.606 269.752 161.413 279.878 174.82 278.798C190.033 277.584 187.989 285.963 186.611 268.879C180.093 269.397 182.656 250.921 182.656 250.921C182.656 250.921 174.449 245.517 177.575 235.613V235.628Z" fill="#FFD8BD"/>
<path d="M151.473 246.317C161.354 246.361 171.234 246.11 181.101 245.532C186.019 261.95 182.745 310.953 184.552 327.993C175.308 331.058 159.383 339.2 158.435 321.479C159.487 302.988 152.539 266.14 151.473 246.317Z" fill="white"/>
<path d="M168.805 202.584C157.043 204.08 158.272 215.287 159.783 223.414C161.457 232.327 174.671 241.209 180.938 237.952C188.389 234.088 188.004 226.39 188.078 222.304C188.315 209.794 184.33 200.63 168.805 202.584Z" fill="#FFD8BD"/>
<path d="M187.708 220.394C188.211 221.549 189.011 222.541 189.989 223.251C190.285 223.459 190.596 223.651 190.834 223.932C191.071 224.214 191.204 224.643 191.056 224.983C190.952 225.235 190.745 225.398 190.537 225.546C189.53 226.301 188.523 227.056 187.515 227.811C187.456 225.309 187.471 222.807 187.708 220.394Z" fill="#FFD8BD"/>
<path d="M153.191 210.046C150.776 224.954 157.857 231.364 162.42 234.325C164.642 234.222 166.82 229.647 166.82 229.647C166.82 229.647 172.538 218.025 172.331 217.715C171.901 217.048 162.331 214.132 161.739 213.584C161.324 213.199 160.716 213.155 160.153 213.11C158.287 212.992 156.035 209.424 153.206 210.046H153.191Z" fill="#5A6994"/>
<path d="M175.604 248.153C178.834 247.013 180.775 247.871 184.152 247.368C184.448 250.136 185.278 251.913 185.604 254.992C183.737 255.066 181.871 255.451 180.123 256.117C178.73 253.719 177.338 251.321 175.619 248.153H175.604Z" fill="#29ABE2"/>
<path d="M149.236 331.546C149.828 325.979 150.421 320.413 151.028 314.861C163.102 315.276 174.153 316.105 188.419 318.681C187.722 324.292 187.485 336.979 186.804 337.409C186.3 337.734 175.19 335.854 164.716 335.292C158.85 334.981 152.599 334.536 149.251 331.561L149.236 331.546Z" fill="#25335C"/>
<path d="M185.249 254.341C187.9 265.903 190.493 273.098 190.137 290.227C188.019 291.293 191.056 288.968 188.774 289.62C186.493 290.271 184.049 290.493 181.767 289.842C181.989 279.064 182.508 266.347 181.664 255.599C183.071 255.288 183.663 254.903 185.234 254.326L185.249 254.341Z" fill="#29ABE2"/>
<path d="M160.865 238.426C166.094 241.135 175.812 244.081 181.382 245.991C180.182 249.233 180.049 257.953 180.049 257.953C180.049 257.953 158.835 249.263 154.036 247.383C155.695 244.896 158.821 240.647 160.88 238.426H160.865Z" fill="white"/>
<path d="M166.227 199.224C157.294 200.245 154.391 205.382 153.191 210.046C152.924 229.514 173.916 217.714 173.916 217.714C173.916 217.714 176.967 215.449 178.36 209.35C182.997 209.232 182.167 211.822 187.737 213.865C187.633 199.357 168.553 195.523 166.227 199.224Z" fill="#5A6994"/>
<path d="M217.602 459.175C223.216 466.474 232.105 471.137 241.304 471.655C244.312 471.818 247.897 471.848 249.526 474.365C250.578 475.993 250.341 478.243 249.289 479.872C248.237 481.5 240.697 483.262 238.786 483.543C221.039 486.09 222.313 481.604 221.765 482.803C219.839 484.654 212.225 487.156 210.862 484.402C208.358 479.369 207.543 468.917 205.588 463.646C210.314 461.307 213.943 461.455 217.617 459.19L217.602 459.175Z" fill="black"/>
<path d="M113.875 446.221C111.045 455.045 112.245 465.068 117.075 472.973C118.66 475.549 120.674 478.54 119.519 481.323C118.763 483.129 116.778 484.21 114.823 484.269C112.868 484.328 107.105 479.102 105.772 477.666C93.5205 464.431 97.9647 462.921 96.661 463.143C94.0241 462.61 87.5949 457.739 89.1059 455.03C91.8613 450.085 100.039 443.423 103.298 438.804C107.934 441.38 109.89 444.475 113.86 446.221H113.875Z" fill="black"/>
<path d="M172.316 217.7C171.22 217.566 170.049 216.797 169.042 217.315C166.257 218.736 167.22 225.102 171.101 225.546C171.723 223.148 172.345 220.749 172.316 217.685V217.7Z" fill="#FFD8BD"/>
<path d="M157.857 339.644C157.857 339.644 181.426 403.94 187.559 421.261C195.233 442.891 200.403 460.138 204.966 473.018C213.454 469.701 217.158 467.037 225.646 463.72C213.158 419.677 184.552 327.978 184.552 327.978L157.857 339.644Z" fill="#25335C"/>
<path d="M146.14 318.77L136.925 390.172L97.9795 440.462L115.978 456.437L159.754 402.282L182.582 319.999L146.14 318.77Z" fill="#25335C"/>
<path d="M148.362 247.368C148.362 247.368 148.065 294.076 146.347 308.555C146.021 311.323 137.236 330.273 135.533 338.608C149.65 345.758 158.45 344.633 177.353 336.417C184.656 332.612 188.137 333.249 188.641 320.561C189.426 300.827 191.441 290.094 190.004 272.92C179.93 262.365 183.485 264.334 174.76 255.792C172.494 253.571 157.857 239.255 157.857 239.255L148.376 247.368H148.362Z" fill="#25335C"/>
<path d="M136.896 327.549C137.074 329.622 137.607 331.561 137.844 333.619C138.081 335.677 138.096 337.498 137.533 339.748C136.97 341.998 136.362 343.641 134.155 344.145C129.074 345.3 126.141 343.834 125.489 343.419C124.378 342.724 124.008 341.273 124.659 340.118C125.133 339.289 125.341 339.082 125.4 338.549C125.519 337.527 125.356 337.053 125.282 336.076C125.045 332.449 126.289 328.363 128.452 324.721L128.111 322.989C131.089 322.071 134.081 321.672 136.911 321.805C136.762 323.167 136.629 324.544 136.599 325.876C136.807 326.779 137.014 327.667 136.896 327.519V327.549Z" fill="#FFD8BD"/>
<path d="M163.028 252.757C160.139 248.611 154.139 244.747 149.251 246.613C144.362 248.478 139.088 261.906 134.763 268.879C134.763 268.879 127.074 281.936 125.697 290.701C123.593 304.025 124.586 324.618 124.586 324.618C124.586 324.618 138.437 325.595 143.429 324.499C143.429 311.989 145.207 293.469 145.207 293.469C145.207 293.469 155.665 275.482 157.872 271.277C160.42 266.421 164.168 257.642 163.043 252.742L163.028 252.757Z" fill="#25335C"/>
<path d="M172.005 217.019L172.523 221.075C173.353 220.394 173.871 219.417 174.183 218.396C174.494 217.374 174.597 216.308 174.716 215.242C173.812 215.568 172.923 215.894 172.005 217.004V217.019Z" fill="#5A6994"/>
<path d="M903.044 81.8835C905.888 87.9977 904.362 94.8966 902.955 99.1899C901.548 103.498 898.807 107.347 895.222 110.116C896.57 103.069 896.526 95.7701 895.118 88.738C894.97 87.9829 894.837 87.0947 895.355 86.5321C895.726 86.1324 896.303 86.0435 896.852 85.9547C898.644 85.703 900.274 81.5134 903.059 81.8835H903.044Z" fill="#5A6994"/>
<path d="M879.031 107.717C880.794 107.91 895.208 102.166 896.97 101.958C896.23 108.606 894.734 122.611 912.94 123.588C912.94 138.126 900.526 149.17 887.904 149.17C873.579 149.17 860.898 140.302 860.898 124.224C877.253 124.224 878.557 117.34 879.031 107.717Z" fill="#FFD8BD"/>
<path d="M887.667 76.4798C899.118 76.9979 898.807 87.894 897.963 95.844C897.044 104.549 894.674 111.492 888.215 113.669C880.408 116.304 875.075 110.071 873.283 102.343C870.661 91.0326 872.557 75.784 887.667 76.4798Z" fill="#FFD8BD"/>
<path d="M897.948 94.334C899 94.482 900.289 94.0823 901.103 94.7633C903.34 96.6435 900.851 101.884 897.104 101.381C897.118 99.175 897.148 96.9544 897.948 94.334Z" fill="#FFD8BD"/>
<path d="M878.26 77.2794C879.89 74.4518 883.015 72.4235 885.948 72.69C894.703 73.4747 901.711 77.9456 903.207 82.3425C905.547 88.9749 897.311 97.2506 897.311 97.2506C897.311 97.2506 896.615 95.3112 895.726 92.5724C891.222 90.6774 880.675 89.4043 878.23 83.2308C877.119 88.7825 876.201 89.5375 872.527 93.8752C871.846 90.411 871.016 87.5685 871.786 84.1191C872.557 80.6696 874.882 78.1825 878.26 77.2794Z" fill="#5A6994"/>
<path d="M904.229 122.181C892.911 127.985 881.816 126.726 872.72 121.278C868.365 121.56 865.254 123.943 860.898 124.224C865.18 143.618 869.165 160.17 873.431 179.564C887.326 176.144 901.8 176.173 916.11 176.218C915.221 159.074 921.695 144.092 923.235 127.008C918.821 125.113 905.37 121.604 904.214 122.196L904.229 122.181Z" fill="white"/>
<path d="M882.305 131.449C879.549 141.101 877.342 152.753 875.357 162.597C877.416 163.427 879.49 164.27 881.668 164.7C883.845 165.144 886.156 165.159 888.23 164.374C887.208 154.322 886.512 142.33 886.497 132.219C885.164 132.041 883.83 131.849 882.319 131.434L882.305 131.449Z" fill="#F59057"/>
<path d="M890.319 126.045C887.223 125.231 884.052 124.713 880.853 124.491C881.356 127.363 881.578 130.279 881.49 133.181C883.252 133.107 885.015 133.329 886.704 133.818C887.83 131.478 888.956 129.125 890.319 126.03V126.045Z" fill="#F59057"/>
<path d="M871.801 121.323C874.734 118.288 877.312 116.215 877.312 116.215C877.312 116.215 882.23 122.226 884.689 124.491C883.415 126.016 880.586 129.065 879.312 130.575C875.905 126.134 875.712 125.231 871.801 121.323Z" fill="white"/>
<path d="M898.141 114.823C893.459 117.755 888.956 120.982 884.689 124.491C886.986 127.363 888.363 131.464 890.674 133.61C893.77 129.894 900.511 124.905 904.851 122.773C903.118 120.568 900.214 116.733 898.126 114.809L898.141 114.823Z" fill="white"/>
<path d="M835.107 136.305C832.781 133.166 832.233 129.065 832.174 125.157C832.115 121.249 832.441 117.296 831.581 113.476C831.389 112.647 830.989 111.7 830.159 111.567C829.063 111.404 828.411 112.825 828.53 113.92C828.648 115.016 829.137 116.141 828.767 117.192C828.396 118.214 827.285 118.791 826.204 118.865C825.123 118.939 824.071 118.584 823.049 118.229C820.456 117.355 817.864 116.467 815.286 115.593C814.205 115.223 813.064 114.853 811.923 115.046C810.797 115.238 809.716 116.215 809.82 117.355C808.309 117.207 806.783 118.362 806.531 119.857C806.709 119.931 806.901 120.005 807.079 120.079C805.998 120.819 805.85 122.463 806.457 123.632C807.05 124.802 808.175 125.601 809.316 126.282C812.012 127.896 814.945 129.125 817.538 130.901C820.145 132.663 822.471 135.12 823.167 138.185C823.508 139.651 823.76 141.575 825.241 141.886C825.982 142.049 826.737 141.664 827.404 141.309C829.982 139.917 832.559 138.511 835.107 136.29V136.305Z" fill="#FFD8BD"/>
<path d="M860.158 122.907C849.403 138.733 849.121 144.196 844.899 150.413C840.499 144.136 839.462 143.766 834.115 133.892C828.885 136.186 825.834 137.445 820.619 139.739C824.663 154.174 830.367 169.482 834.455 173.301C841.033 179.415 848.795 178.305 852.765 175.951C860.913 171.11 860.009 163.708 862.217 154.485C864.839 143.485 863.713 134.869 860.158 122.907Z" fill="#25335C"/>
<path d="M895.267 330.717C897.015 334.759 896.541 339.378 895.696 343.701C894.852 348.024 893.963 352.939 894.408 357.306C894.852 361.688 898.348 366.84 902.733 367.166C908.347 367.595 910.244 366.426 912.421 362.606C914.599 358.786 914.614 353.19 913.532 348.927C912.451 344.663 912.095 340.666 910.244 336.683C909.488 335.07 909.592 330.584 908.273 329.385C905.503 326.824 898.674 329.962 895.282 330.717H895.267Z" fill="black"/>
<path d="M919.725 212.725C918.288 216.545 917.577 220.631 917.651 224.717C917.651 225.368 918.066 225.961 918.688 226.153C919.784 226.508 920.51 225.235 920.762 224.184C920.999 223.192 921.369 221.963 922.376 221.801L922.154 236.709C922.125 238.233 924.036 238.974 925.028 237.804C925.576 237.168 925.872 234.799 926.169 235.583C926.969 237.715 928.895 236.531 929.561 233.792C931.309 233.2 932.524 229.736 932.805 227.9C933.309 222.23 933.724 216.352 932.879 210.712C932.791 210.135 932.657 209.468 932.154 209.172C931.709 208.906 931.146 209.009 930.643 209.113C927.102 209.868 923.576 210.608 919.739 212.711L919.725 212.725Z" fill="#FFD8BD"/>
<path d="M867.683 331.487C866.379 340.429 861.017 348.704 853.388 353.56C850.899 355.144 847.832 356.891 847.655 359.837C847.536 361.747 848.81 363.553 850.499 364.442C852.188 365.33 854.202 365.404 856.084 365.078C863.269 363.835 868.468 357.335 875.431 355.159C877.949 354.375 880.942 353.975 882.349 351.754C883.119 350.555 883.223 349.06 883.267 347.624C883.46 342.102 883.119 336.565 882.245 331.117C877.075 331.383 871.905 331.664 867.668 331.487H867.683Z" fill="black"/>
<path d="M888.215 200.334C888.215 200.334 884.186 304.38 884.689 340.577C876.142 340.414 872.542 340.74 863.994 340.577C863.491 304.928 860.928 198.75 860.928 198.75L888.215 200.319V200.334Z" fill="#25335C"/>
<path d="M914.658 199.313V339.881L891.533 339.926L885.934 196.219L914.658 199.313Z" fill="#25335C"/>
<path d="M902.363 117.607C902.17 118.006 900.452 121.056 897.341 127.57L879.905 163.323C879.905 163.323 877.845 138.377 875.668 125.305C875.52 124.417 875.372 123.528 875.223 122.625C875.105 121.944 875.001 121.249 874.883 120.568C874.779 119.916 874.675 119.265 874.572 118.613C871.757 120.212 868.572 120.035 860.158 122.907C858.528 130.546 860.261 153.493 859.135 161.221C858.854 163.145 859.876 211.822 859.876 211.822L916.288 212.681C916.288 172.783 916.347 144.166 923.813 124.224C920.006 122.803 902.511 117.651 902.377 117.621L902.363 117.607Z" fill="#25335C"/>
<path d="M923.798 124.224C932.198 148.311 935.857 171.984 934.375 211.837C928.894 212.474 923.146 212.814 917.65 213.451C917.65 181.532 914.525 171.88 912.673 143.144C912.436 139.369 913.058 135.491 914.569 132.041C916.08 128.577 920.228 124.106 923.783 124.239L923.798 124.224Z" fill="#25335C"/>
<path d="M855.209 79.7518C854.898 79.7518 854.572 79.6481 854.306 79.4261L849.728 75.6954C849.121 75.192 849.032 74.3037 849.521 73.6967C850.01 73.0898 850.913 73.0009 851.521 73.4895L856.098 77.2202C856.706 77.7236 856.795 78.6118 856.306 79.2188C856.024 79.5593 855.609 79.737 855.209 79.737V79.7518Z" fill="#FFE100"/>
<path d="M862.32 73.7559C861.668 73.7559 861.076 73.2969 860.928 72.6307L859.669 66.857C859.506 66.0871 859.994 65.3321 860.75 65.1693C861.52 65.0064 862.276 65.495 862.439 66.25L863.698 72.0237C863.861 72.7936 863.372 73.5486 862.617 73.7115C862.513 73.7263 862.409 73.7411 862.32 73.7411V73.7559Z" fill="#FFE100"/>
<path d="M845.773 88.9454C845.047 88.9454 844.425 88.3976 844.366 87.6574C844.292 86.8727 844.87 86.1769 845.64 86.1029L851.521 85.5403C852.306 85.4663 853.002 86.0437 853.076 86.8135C853.15 87.5982 852.573 88.294 851.802 88.368L845.921 88.9306C845.921 88.9306 845.832 88.9306 845.788 88.9306L845.773 88.9454Z" fill="#FFE100"/>
<path d="M783.229 79.7517C782.814 79.7517 782.414 79.5741 782.133 79.2335C781.629 78.6266 781.733 77.7235 782.34 77.2349L786.918 73.5042C787.525 73.0009 788.429 73.1045 788.917 73.7115C789.406 74.3185 789.317 75.2215 788.71 75.7101L784.133 79.4408C783.866 79.6629 783.555 79.7665 783.229 79.7665V79.7517Z" fill="#FFE100"/>
<path d="M776.118 73.7557C776.014 73.7557 775.91 73.7557 775.822 73.7261C775.051 73.5633 774.562 72.8083 774.74 72.0384L775.999 66.2647C776.162 65.4949 776.918 65.0063 777.688 65.184C778.458 65.3468 778.947 66.1018 778.77 66.8717L777.51 72.6454C777.362 73.3116 776.77 73.7706 776.118 73.7706V73.7557Z" fill="#FFE100"/>
<path d="M792.665 88.9451C792.665 88.9451 792.576 88.9451 792.532 88.9451L786.651 88.3825C785.866 88.3085 785.303 87.6127 785.377 86.8281C785.451 86.0434 786.147 85.4809 786.932 85.5549L792.813 86.1174C793.598 86.1915 794.161 86.8873 794.087 87.6719C794.013 88.4121 793.391 88.9599 792.68 88.9599L792.665 88.9451Z" fill="#FFE100"/>
<path d="M732.002 341.065C729.869 346.78 729.498 354.138 730.328 360.104C731.468 368.232 745.171 370.304 745.645 359.379C745.838 355.07 745.468 350.733 744.534 346.499C744.164 344.767 743.601 342.931 742.031 341.82C739.587 340.074 735.957 340.917 731.987 341.065H732.002Z" fill="#25335C"/>
<path d="M732.032 310.509C731.943 319.258 732.432 327.993 732.343 336.742C730.861 343.641 730.209 348.645 733.083 352.065C734.861 354.182 740.268 356.121 743.246 352.065C746.164 348.097 743.586 340.606 744.016 335.898C743.779 327.193 743.942 318.474 744.49 309.769C740.505 309.828 736.52 309.887 732.032 310.509Z" fill="#FFD8BD"/>
<path d="M777.94 349.282C779.288 352.095 781.955 354.271 783.569 356.98C785.184 359.689 785.347 363.583 782.414 365.256C780.844 366.144 778.77 366.144 777.007 365.582C775.244 365.034 773.733 363.997 772.326 362.932C768.222 359.837 764.548 356.225 762.267 351.947C759.986 347.668 759.215 342.649 760.919 338.178C767.141 341.835 773.066 345.892 777.94 349.297V349.282Z" fill="#25335C"/>
<path d="M772.429 312.389C772.518 321.139 772.607 329.873 772.681 338.623C775.407 343.908 778.474 348.527 781.184 353.812C776.266 356.018 769.585 354.656 765.971 351.014C762.356 347.372 761.112 343.567 760.667 338.845C760.904 330.14 760.504 320.339 759.956 311.649C763.941 311.708 767.926 311.767 772.415 312.389H772.429Z" fill="#FFD8BD"/>
<path d="M750.504 79.0557C745.719 79.8848 741.838 83.6599 739.779 88.0421C737.72 92.439 737.246 97.3985 737.187 102.24C737.127 107.081 737.468 111.951 736.89 116.778C735.883 125.26 732.002 133.373 726.032 139.488C726.639 142.463 728.891 144.891 731.543 146.372C734.194 147.852 737.216 148.504 740.209 149.022C751.927 151.065 764.622 151.242 774.977 145.424C773.57 144.299 772.399 145.424 772.059 143.662C769.481 130.294 767.066 119.975 768.251 106.414C768.651 101.899 770.681 92.8239 767.94 86.9761C766.326 83.5563 763.289 81.1284 759.733 79.8404C756.178 78.5672 754.223 78.4192 750.504 79.0705V79.0557Z" fill="#B56E50"/>
<path d="M740.105 125.053C750.919 130.59 761.526 129.391 770.222 124.18C774.385 124.461 777.14 124.654 781.303 124.92C777.214 143.455 773.614 161.339 769.526 179.874C756.252 176.603 742.416 176.632 728.743 176.677C729.587 160.303 729.602 145.01 728.121 128.68C732.343 126.874 739.009 124.491 740.105 125.053Z" fill="white"/>
<path d="M751.793 197.788C751.793 197.788 757.526 283.061 757.082 319.273C764.474 319.11 767.585 319.436 774.977 319.273C775.407 283.624 777.629 196.218 777.629 196.218L751.793 197.788Z" fill="#5A6994"/>
<path d="M762.222 112.588C760.534 112.781 750.86 112.781 749.171 112.588C748.238 118.095 749.171 125.483 731.78 126.401C731.78 140.302 743.646 150.843 755.704 150.843C769.392 150.843 777.91 142.848 777.91 127.481C776.859 127.481 775.881 125.72 774.977 125.66C762.385 124.743 763.097 117.71 762.222 112.573V112.588Z" fill="#FFD8BD"/>
<path d="M757.66 82.979C746.712 82.979 744.179 93.5198 744.979 101.114C745.853 109.435 748.045 114.394 754.223 116.482C761.689 118.998 767.911 114.35 769.229 106.903C770.815 97.9315 771.126 82.9938 757.66 82.9938V82.979Z" fill="#FFD8BD"/>
<path d="M746.831 100.137C745.823 100.271 744.594 99.9006 743.808 100.552C741.675 102.343 744.045 107.362 747.63 106.873C747.616 104.756 747.586 102.654 746.831 100.137Z" fill="#FFD8BD"/>
<path d="M740.105 125.053C750.919 130.59 761.526 129.391 770.222 124.18C774.385 124.461 773.748 127.215 777.91 127.481C773.822 146.017 773.614 161.339 769.526 179.874C756.252 176.603 742.416 176.632 728.743 176.677C729.587 160.303 729.602 145.01 728.121 128.68C732.343 126.874 739.009 124.491 740.105 125.053Z" fill="white"/>
<path d="M729.676 199.312V319.273L747.868 319.317L754.712 196.218L729.676 199.312Z" fill="#5A6994"/>
<path d="M744.89 100.152C749.705 99.3232 751.645 94.7338 753.008 91.7285C758.104 91.0919 759.748 88.9897 760.756 83.7193C764.059 90.6922 766.415 95.5777 770.103 95.5777C771.214 89.7891 770.829 87.3464 768.222 83.4528C765.615 79.5593 761.733 77.4866 756.608 77.1461C754.638 77.0129 751.527 77.4422 749.616 77.9456C746.757 78.7154 744.416 80.7584 742.49 83.0087C740.683 85.1257 739.35 88.0422 738.683 90.7366C738.016 93.431 742.579 97.5023 744.905 100.167L744.89 100.152Z" fill="#B56E50"/>
<path d="M746.742 98.4498C746.756 100.167 746.949 101.884 747.334 103.572C748.06 101.988 748.386 100.226 748.253 98.4794C747.408 98.5238 746.564 98.3906 746.742 98.4498Z" fill="#B56E50"/>
<path d="M785.895 146.786C786.191 140.465 786.502 134.143 786.799 127.807C786.828 127.067 786.991 126.149 787.687 125.912C788.739 125.557 789.406 127.082 789.376 128.192C789.347 129.302 789.45 130.812 790.547 131.005C792.428 127.511 794.502 124.136 796.739 120.864C797.45 119.842 798.324 118.732 799.568 118.599C800.798 118.48 801.924 119.428 802.398 120.553C802.872 121.693 802.813 122.966 802.694 124.18C802.027 130.975 799.524 137.578 795.524 143.1C794.206 144.906 792.65 146.949 793.139 149.14C790.621 148.785 788.087 148.43 785.895 146.742V146.786Z" fill="#FFD8BD"/>
<path d="M744.683 106.488C744.683 106.03 745.053 105.659 745.512 105.659C745.971 105.659 746.342 106.03 746.342 106.488C746.342 106.947 745.971 107.318 745.512 107.318C745.053 107.318 744.683 106.947 744.683 106.488Z" fill="white"/>
<path d="M770.015 123.277C765.882 127.17 760.756 127.999 755.067 128.059C749.394 128.118 743.231 127.422 739.128 123.306C734.595 124.728 735.469 124.461 726.017 128.177C724.832 128.636 730.373 179.637 730.373 179.637C730.373 179.637 729.143 191.91 726.728 205.131C726.254 207.692 767.363 207.174 781.688 205.131C779.318 190.682 776.177 181.74 776.177 181.74C776.177 181.74 780.666 157.016 780.281 149.17C780.029 143.781 781.125 136.601 778.977 126.741C776.785 125.838 774.044 124.165 770 123.262L770.015 123.277Z" fill="#25335C"/>
<path d="M784.725 143.233C789.021 143.825 793.702 145.78 798.042 145.676C797.954 155.669 797.465 165.662 796.561 175.611C796.146 180.23 791.08 189.142 783.154 184.715C780.666 183.324 779.081 180.881 778.355 178.349C777.629 175.818 777.688 173.183 777.866 170.592C778.414 162.538 781.94 151.538 784.739 143.233H784.725Z" fill="#25335C"/>
<path d="M731.573 171.169C743.305 169.585 753.038 169.881 764.756 171.702C764.326 171.791 765.393 182.879 764.726 183.871C764.311 184.493 746.757 187.365 730.906 187.365C729.484 187.365 726.61 174.574 728.58 173.345C730.55 172.117 732.624 170.977 731.587 171.169H731.573Z" fill="#25335C"/>
<path d="M778.992 126.741C778.992 126.741 790.265 155.284 791.954 170.37C792.235 172.931 792.443 175.551 791.806 178.038C791.169 180.526 789.525 182.894 787.11 183.783C784.814 184.612 782.177 183.96 780.177 182.554C778.192 181.147 776.77 179.075 775.644 176.913C771.674 169.289 770.963 160.303 772.088 151.775C773.2 143.248 775.022 135.683 779.007 126.741H778.992Z" fill="#25335C"/>
<path d="M727.78 172.516C730.373 172.753 732.98 172.842 735.587 173.079C737.306 160.451 738.476 149.303 737.883 145.661C736.387 136.482 734.328 134.913 726.032 128.162C718.181 136.689 713.218 159.755 712.625 176.425C719.884 172.576 723.617 172.117 727.78 172.516Z" fill="#25335C"/>
<path d="M776.095 141.114L742.784 134.39L733.278 181.421L766.588 188.146L776.095 141.114Z" fill="#BFBFBF"/>
<path d="M759.497 173.671C760.845 171.702 762.371 169.896 764.06 168.267C764.548 167.794 765.185 167.305 765.808 167.527C766.711 167.853 766.696 169.245 766.489 170.266C767.304 169.763 767.867 168.904 768.43 168.09C768.992 167.276 769.585 166.432 770.444 166.002C771.289 165.573 772.444 165.691 772.963 166.535C773.392 167.231 773.274 168.164 773.14 169.008C772.859 170.755 772.563 172.502 772.281 174.263C772.015 175.892 771.733 177.55 770.963 178.956C770.059 180.629 768.518 181.828 766.874 182.569C765.23 183.324 763.467 183.679 761.719 184.034C760.874 184.212 759.912 184.345 759.23 183.797C758.652 183.324 758.445 182.509 758.297 181.74C757.852 179.519 757.215 177.002 759.497 173.671Z" fill="#FFD8BD"/>
<path d="M712.611 182.332C713.055 189.29 719.484 191.155 726.447 190.652C744.416 189.364 759.423 187.632 759.423 187.632L757.778 170.681C757.778 170.681 733.557 171.036 712.685 172.206C712.685 172.206 712.581 182.287 712.596 182.332H712.611Z" fill="#25335C"/>
<path d="M55.3892 612.491H62.4554V591.705H56.5002V587.664C59.7889 587.042 62.0554 586.198 64.1442 584.91H68.9884V612.491H75.1658V617.776H55.3892V612.491Z" fill="#0A2270"/>
<path d="M99.92 602.809C98.009 600.81 96.4091 599.611 93.2981 599.611C90.4538 599.611 87.9207 601.787 86.2319 604.94L81.3433 602.276C84.3209 596.768 88.6762 594.104 93.4314 594.104C97.6534 594.104 100.898 595.702 103.92 598.989C105.831 601.032 107.475 602.187 110.542 602.187C113.386 602.187 115.919 600.011 117.608 596.857L122.496 599.522C119.519 605.029 115.164 607.694 110.408 607.694C106.186 607.694 102.942 606.095 99.92 602.809Z" fill="#0A2270"/>
<path d="M127.074 613.823L130.14 609.693C132.096 611.602 134.496 613.068 137.473 613.068C140.806 613.068 143.073 611.425 143.073 608.493C143.073 605.251 141.162 603.253 134.007 603.253V598.545C140.051 598.545 142.006 596.457 142.006 593.526C142.006 590.95 140.406 589.44 137.606 589.396C135.251 589.44 133.34 590.55 131.385 592.327L128.051 588.33C130.896 585.843 134.051 584.288 137.918 584.288C144.273 584.288 148.584 587.397 148.584 593.037C148.584 596.591 146.584 599.167 143.073 600.543V600.765C146.806 601.787 149.65 604.541 149.65 608.849C149.65 614.889 144.362 618.398 138.095 618.398C132.896 618.398 129.385 616.443 127.074 613.823Z" fill="#0A2270"/>
<path d="M196.448 612.18H181.248V621.684H175.782V612.18H155.783V607.117H162.805V595.48H175.782V590.151H166.272C164.449 593.304 162.316 596.146 160.227 598.234C159.205 597.346 156.939 595.569 155.65 594.814C159.65 591.439 163.072 585.754 164.983 580.024L170.36 581.401C169.96 582.645 169.471 583.844 168.894 585.043H194.003V590.151H181.248V595.48H192.981V600.366H181.248V607.117H196.448V612.18ZM175.782 607.117V600.366H168.094V607.117H175.782Z" fill="#0A2270"/>
<path d="M237.957 582.556V621.151H232.357V618.398H211.78V621.151H206.447V582.556H237.957ZM211.78 587.708V592.815H232.357V587.708H211.78ZM211.78 597.79V603.03H232.357V597.79H211.78ZM232.357 613.246V608.005H211.78V613.246H232.357Z" fill="#0A2270"/>
<path d="M378.808 613.823L381.874 609.693C383.83 611.602 386.229 613.068 389.207 613.068C392.54 613.068 394.807 611.425 394.807 608.493C394.807 605.251 392.896 603.253 385.741 603.253V598.545C391.785 598.545 393.74 596.457 393.74 593.526C393.74 590.95 392.14 589.44 389.34 589.396C386.985 589.44 385.074 590.55 383.118 592.327L379.785 588.33C382.63 585.843 385.785 584.288 389.651 584.288C396.007 584.288 400.317 587.397 400.317 593.037C400.317 596.591 398.318 599.167 394.807 600.543V600.765C398.54 601.787 401.384 604.541 401.384 608.849C401.384 614.889 396.095 618.398 389.829 618.398C384.629 618.398 381.119 616.443 378.808 613.823Z" fill="#0A2270"/>
<path d="M425.827 602.809C423.916 600.81 422.316 599.611 419.205 599.611C416.361 599.611 413.828 601.787 412.139 604.94L407.25 602.276C410.228 596.768 414.583 594.104 419.339 594.104C423.561 594.104 426.805 595.702 429.827 598.989C431.738 601.032 433.382 602.187 436.449 602.187C439.293 602.187 441.826 600.011 443.515 596.857L448.404 599.522C445.426 605.029 441.071 607.694 436.315 607.694C432.093 607.694 428.849 606.095 425.827 602.809Z" fill="#0A2270"/>
<path d="M452.981 613.912L456.003 609.737C457.87 611.558 460.181 613.068 463.247 613.068C466.669 613.068 469.069 610.892 469.069 607.028C469.069 603.164 466.847 601.076 463.514 601.076C461.558 601.076 460.492 601.565 458.581 602.809L455.603 600.854L456.492 584.91H474.091V590.373H462.136L461.514 597.346C462.803 596.724 463.958 596.413 465.469 596.413C470.98 596.413 475.602 599.7 475.602 606.85C475.602 614.001 470.18 618.398 464.091 618.398C458.892 618.398 455.425 616.355 452.981 613.912Z" fill="#0A2270"/>
<path d="M522.355 612.18H507.156V621.684H501.689V612.18H481.69V607.117H488.712V595.48H501.689V590.151H492.179C490.357 593.304 488.223 596.146 486.135 598.234C485.112 597.346 482.846 595.569 481.557 594.814C485.557 591.439 488.979 585.754 490.89 580.024L496.267 581.401C495.867 582.645 495.379 583.844 494.801 585.043H519.91V590.151H507.156V595.48H518.888V600.366H507.156V607.117H522.355V612.18ZM501.689 607.117V600.366H494.001V607.117H501.689Z" fill="#0A2270"/>
<path d="M563.863 582.556V621.151H558.264V618.398H537.687V621.151H532.354V582.556H563.863ZM537.687 587.708V592.815H558.264V587.708H537.687ZM537.687 597.79V603.03H558.264V597.79H537.687ZM558.264 613.246V608.005H537.687V613.246H558.264Z" fill="#0A2270"/>
<path d="M690.745 613.912L693.767 609.737C695.634 611.558 697.945 613.068 701.011 613.068C704.433 613.068 706.833 610.892 706.833 607.028C706.833 603.164 704.611 601.076 701.278 601.076C699.322 601.076 698.256 601.565 696.345 602.809L693.367 600.854L694.256 584.91H711.855V590.373H699.9L699.278 597.346C700.567 596.724 701.722 596.413 703.233 596.413C708.744 596.413 713.366 599.7 713.366 606.85C713.366 614.001 707.944 618.398 701.856 618.398C696.656 618.398 693.189 616.355 690.745 613.912Z" fill="#0A2270"/>
<path d="M737.75 602.809C735.839 600.81 734.239 599.611 731.128 599.611C728.284 599.611 725.751 601.787 724.062 604.94L719.173 602.276C722.151 596.768 726.506 594.104 731.262 594.104C735.484 594.104 738.728 595.702 741.75 598.989C743.661 601.032 745.305 602.187 748.372 602.187C751.216 602.187 753.749 600.011 755.438 596.857L760.326 599.522C757.349 605.029 752.994 607.694 748.238 607.694C744.016 607.694 740.772 606.095 737.75 602.809Z" fill="#0A2270"/>
<path d="M767.407 612.491H774.473V591.705H768.518V587.664C771.807 587.042 774.073 586.198 776.162 584.91H781.006V612.491H787.184V617.776H767.407V612.491Z" fill="#0A2270"/>
<path d="M793.658 601.21C793.658 589.84 798.102 584.288 804.813 584.288C811.523 584.288 815.923 589.884 815.923 601.21C815.923 612.535 811.479 618.398 804.813 618.398C798.146 618.398 793.658 612.535 793.658 601.21ZM809.746 601.21C809.746 592.016 807.613 589.351 804.813 589.351C802.013 589.351 799.835 592.016 799.835 601.21C799.835 610.403 801.968 613.29 804.813 613.29C807.657 613.29 809.746 610.448 809.746 601.21Z" fill="#0A2270"/>
<path d="M862.231 612.18H847.032V621.684H841.566V612.18H821.567V607.117H828.589V595.48H841.566V590.151H832.055C830.233 593.304 828.1 596.146 826.011 598.234C824.989 597.346 822.722 595.569 821.434 594.814C825.433 591.439 828.855 585.754 830.766 580.024L836.144 581.401C835.744 582.645 835.255 583.844 834.677 585.043H859.787V590.151H847.032V595.48H858.765V600.366H847.032V607.117H862.231V612.18ZM841.566 607.117V600.366H833.877V607.117H841.566Z" fill="#0A2270"/>
<path d="M903.74 582.556V621.151H898.141V618.398H877.564V621.151H872.231V582.556H903.74ZM877.564 587.708V592.815H898.141V587.708H877.564ZM877.564 597.79V603.03H898.141V597.79H877.564ZM898.141 613.246V608.005H877.564V613.246H898.141Z" fill="#0A2270"/>
<path d="M1033.11 612.491H1040.18V591.705H1034.22V587.664C1037.51 587.042 1039.78 586.198 1041.87 584.91H1046.71V612.491H1052.89V617.776H1033.11V612.491Z" fill="#0A2270"/>
<path d="M1059.38 601.21C1059.38 589.84 1063.82 584.288 1070.53 584.288C1077.24 584.288 1081.64 589.884 1081.64 601.21C1081.64 612.535 1077.2 618.398 1070.53 618.398C1063.86 618.398 1059.38 612.535 1059.38 601.21ZM1075.46 601.21C1075.46 592.016 1073.33 589.351 1070.53 589.351C1067.73 589.351 1065.55 592.016 1065.55 601.21C1065.55 610.403 1067.69 613.29 1070.53 613.29C1073.37 613.29 1075.46 610.448 1075.46 601.21Z" fill="#0A2270"/>
<path d="M1127.95 612.18H1112.75V621.684H1107.28V612.18H1087.28V607.117H1094.31V595.48H1107.28V590.151H1097.77C1095.95 593.304 1093.82 596.146 1091.73 598.234C1090.71 597.346 1088.44 595.569 1087.15 594.814C1091.15 591.439 1094.57 585.754 1096.48 580.024L1101.86 581.401C1101.46 582.645 1100.97 583.844 1100.4 585.043H1125.5V590.151H1112.75V595.48H1124.48V600.366H1112.75V607.117H1127.95V612.18ZM1107.28 607.117V600.366H1099.6V607.117H1107.28Z" fill="#0A2270"/>
<path d="M1169.46 582.556V621.151H1163.86V618.398H1143.28V621.151H1137.95V582.556H1169.46ZM1143.28 587.708V592.815H1163.86V587.708H1143.28ZM1143.28 597.79V603.03H1163.86V597.79H1143.28ZM1163.86 613.246V608.005H1143.28V613.246H1163.86Z" fill="#0A2270"/>
<path d="M1198.03 602.809C1196.12 600.81 1194.52 599.611 1191.41 599.611C1188.57 599.611 1186.03 601.787 1184.35 604.94L1179.46 602.276C1182.44 596.768 1186.79 594.104 1191.55 594.104C1195.77 594.104 1199.01 595.702 1202.03 598.989C1203.94 601.032 1205.59 602.187 1208.66 602.187C1211.5 602.187 1214.03 600.011 1215.72 596.857L1220.61 599.522C1217.63 605.029 1213.28 607.694 1208.52 607.694C1204.3 607.694 1201.06 606.095 1198.03 602.809Z" fill="#0A2270"/>
<path d="M109.742 691.339C111.401 693.057 113.742 694.567 116.023 695.366C115.43 695.869 114.63 696.847 114.216 697.498C111.371 696.254 108.557 693.915 106.749 691.339H97.9202C97.2092 692.376 96.2907 693.412 95.313 694.33H100.735V692.109H103.52V694.33H109.386V696.521H103.52V699.156H113.475V701.436H91.1651V699.156H100.735V696.521H95.0759V694.567C93.5946 695.899 91.8761 697.024 90.1873 697.824C89.8022 697.172 89.0022 696.195 88.4097 695.721C90.7503 694.833 93.1205 693.175 94.8093 691.339H88.7059V689.059H94.4538V679.91H90.1577V677.66H94.4538V675.084H97.2092V677.66H107.283V675.114H110.097V677.66H114.334V679.91H110.097V689.059H115.667V691.339H109.742ZM97.2092 679.91V681.568H107.283V679.91H97.2092ZM97.2092 685.269H107.283V683.582H97.2092V685.269ZM97.2092 689.059H107.283V687.283H97.2092V689.059Z" fill="black"/>
<path d="M136.111 683.819C138.51 688.586 142.54 692.968 146.984 695.218C146.332 695.781 145.354 696.906 144.91 697.646C140.673 695.248 137.029 691.073 134.422 686.276V694.182H139.725V696.965H134.422V702.206H131.518V696.965H126.096V694.182H131.518V686.306C128.911 691.102 125.237 695.248 121.089 697.735C120.645 697.054 119.726 696.018 119.134 695.455C123.43 693.175 127.43 688.645 129.859 683.819H120.171V681.035H131.518V675.054H134.422V681.035H145.888V683.819H136.111Z" fill="black"/>
<path d="M176.553 679.644C176.553 679.644 176.553 680.591 176.523 680.946C176.108 694.3 175.753 698.89 174.568 700.37C173.827 701.347 173.116 701.614 171.99 701.762C170.953 701.88 169.205 701.85 167.516 701.762C167.457 701.021 167.131 699.867 166.627 699.097C168.524 699.245 170.242 699.274 170.983 699.274C171.575 699.274 171.901 699.186 172.227 698.771C173.175 697.794 173.56 693.323 173.946 682.16H166.953C166.124 684.055 165.205 685.773 164.257 687.135C163.813 686.72 162.776 685.98 162.094 685.595V699.186H154.065V701.436H151.547V679.792H154.865C155.28 678.371 155.724 676.416 155.902 674.995L158.895 675.498C158.391 676.979 157.828 678.548 157.354 679.792H162.094V685.388C164.05 682.841 165.62 678.903 166.509 674.995L169.175 675.617C168.82 676.979 168.435 678.341 167.961 679.644H176.553ZM154.065 682.19V687.816H159.576V682.19H154.065ZM159.576 696.758V690.214H154.065V696.758H159.576ZM169.442 694.448C168.613 692.642 166.687 689.74 165.116 687.609L167.279 686.395C168.85 688.438 170.864 691.25 171.753 692.997L169.442 694.448Z" fill="black"/>
<path d="M196.818 682.368C195.367 682.753 193.559 683.138 191.604 683.404C190.182 687.52 187.634 692.642 185.234 695.869L182.39 694.419C184.79 691.547 187.249 687.046 188.523 683.73C187.812 683.759 187.13 683.789 186.419 683.789C185.293 683.789 184.078 683.759 182.893 683.671L182.686 680.947C183.841 681.065 185.234 681.124 186.419 681.124C187.397 681.124 188.404 681.095 189.441 681.006C189.886 679.377 190.241 677.571 190.3 676.031L193.53 676.328C193.293 677.334 192.908 678.963 192.463 680.621C193.945 680.384 195.396 680.029 196.73 679.614L196.818 682.368ZM200.433 685.418C200.344 686.661 200.374 687.668 200.403 688.852C200.433 689.8 200.522 691.487 200.611 693.145C203.129 694.063 205.203 695.544 206.685 696.847L205.114 699.363C203.959 698.327 202.477 697.054 200.729 696.106V696.906C200.729 699.393 199.218 701.406 195.367 701.406C191.959 701.406 189.204 699.955 189.204 696.906C189.204 694.152 191.693 692.198 195.337 692.198C196.196 692.198 196.996 692.257 197.796 692.405C197.678 690.096 197.53 687.342 197.47 685.418H200.433ZM197.885 694.952C197.055 694.715 196.137 694.596 195.189 694.596C193.233 694.596 191.959 695.455 191.959 696.639C191.959 697.824 192.967 698.742 194.981 698.742C197.174 698.742 197.915 697.498 197.915 695.988C197.915 695.692 197.915 695.366 197.885 694.952ZM205.914 686.543C204.285 685.21 201.055 683.345 199.07 682.457L200.552 680.177C202.655 681.095 206.122 683.049 207.573 684.115L205.914 686.543Z" fill="black"/>
<path d="M91.3577 736.819C93.965 738.654 97.787 740.164 101.402 740.845C100.779 741.438 99.9795 742.563 99.5647 743.303C95.713 742.267 91.7429 740.283 88.9579 737.737V743.688H86.2617V737.944C83.4471 740.312 79.4473 742.237 75.7438 743.273C75.329 742.563 74.5587 741.526 73.9365 740.934C77.4622 740.194 81.3139 738.654 83.9211 736.819H74.7661V734.509H86.2617V732.703H77.5215V730.63H86.2617V728.854H76.0697V726.663H82.1435C81.8768 725.834 81.3731 724.768 80.8991 723.968L81.6102 723.85H74.8846V721.54H79.2695C78.8251 720.386 77.9363 718.757 77.1067 717.543L79.5066 716.744C80.425 718.017 81.462 719.823 81.8768 720.978L80.3658 721.54H83.6249V716.477H86.2025V721.54H89.1356V716.477H91.7429V721.54H94.9427L93.8169 721.185C94.5279 720.001 95.4464 718.135 95.8908 716.803L98.7351 717.514C97.9351 718.964 97.0463 720.445 96.276 721.54H100.542V723.85H94.8242C94.2613 724.857 93.6687 725.834 93.165 726.663H99.4461V728.854H88.9579V730.63H98.0536V732.703H88.9579V734.509H100.631V736.819H91.3577ZM83.7434 723.85C84.2767 724.709 84.81 725.775 85.0174 726.485L84.1582 726.663H90.4096C90.8541 725.863 91.3281 724.797 91.7133 723.85H83.7434Z" fill="black"/>
<path d="M129.667 721.837C128.867 723.702 127.741 725.271 126.378 726.574C128.126 727.581 130.17 728.321 132.363 728.795C131.8 729.328 131 730.394 130.644 731.104C128.274 730.482 126.111 729.535 124.215 728.262C122.408 729.446 120.275 730.334 117.964 731.045C117.816 730.719 117.519 730.275 117.193 729.831C116.69 731.578 116.127 733.325 115.564 734.598L113.668 733.65C114.142 732.496 114.586 730.838 114.971 729.209H112.69V740.579C112.69 741.911 112.483 742.652 111.594 743.125C110.735 743.51 109.52 743.57 107.683 743.57C107.594 742.829 107.238 741.704 106.883 740.964C108.068 741.023 109.253 741.023 109.609 740.993C109.964 740.964 110.083 740.905 110.083 740.549V732.525C108.986 735.072 107.594 737.47 106.083 738.951C105.816 738.151 105.164 737.026 104.69 736.315C106.468 734.746 108.157 731.933 109.224 729.209H105.105V726.811H112.66C111.031 725.626 108.453 724.235 106.32 723.317L108.038 721.54C108.868 721.866 109.816 722.281 110.705 722.725C111.623 722.014 112.512 721.126 113.253 720.238H105.461V717.899H115.208L115.653 717.81L117.43 718.905C116.334 720.652 114.557 722.488 112.808 723.85C113.757 724.383 114.557 724.945 115.179 725.419L113.905 726.811H115.742L116.156 726.663L117.816 727.255C117.727 727.64 117.638 728.025 117.549 728.439C119.238 727.966 120.749 727.344 122.082 726.574C121.075 725.626 120.186 724.59 119.445 723.465C118.853 724.116 118.26 724.679 117.667 725.182C117.134 724.738 116.068 723.968 115.386 723.613C117.727 721.925 119.83 719.261 121.015 716.477L123.593 717.188C123.238 717.987 122.823 718.757 122.378 719.527H131.711V721.837H129.667ZM131.178 732.94C131.178 732.94 131.148 733.651 131.089 734.035C130.585 739.335 130.052 741.615 129.222 742.504C128.63 743.096 128.037 743.273 127.237 743.392C126.497 743.451 125.282 743.451 123.949 743.392C123.889 742.622 123.593 741.556 123.208 740.845C124.363 740.964 125.46 740.993 125.963 740.993C126.408 740.993 126.645 740.934 126.911 740.668C127.415 740.224 127.83 738.714 128.215 735.249H123.919C122.912 738.891 120.838 741.852 116.156 743.688C115.831 743.037 115.09 742.03 114.527 741.556C118.379 740.164 120.186 737.944 121.104 735.249H116.956V732.94H121.697C121.845 732.022 121.964 731.104 122.052 730.127H124.778C124.689 731.104 124.571 732.022 124.423 732.94H131.178ZM121.164 721.837C121.934 723.05 122.941 724.116 124.156 725.094C125.193 724.176 126.023 723.08 126.645 721.837H121.164Z" fill="black"/>
<path d="M149.221 737.233C149.31 736.226 149.34 734.568 149.34 733.117C146.851 734.509 145.281 735.841 145.281 737.559C145.281 739.572 147.177 739.957 150.14 739.957C152.51 739.957 155.71 739.661 158.287 739.187L158.198 742.178C156.065 742.444 152.688 742.681 150.051 742.681C145.666 742.681 142.259 741.674 142.259 738.032C142.259 734.39 145.784 732.14 149.162 730.423C148.806 729.387 147.858 728.972 146.792 728.972C144.955 728.972 143.177 729.92 141.933 731.074C141.074 731.903 140.214 732.969 139.237 734.213L136.718 732.318C140.155 729.061 142.14 726.218 143.355 723.761H142.496C141.281 723.761 139.237 723.702 137.607 723.583V720.83C139.148 721.037 141.251 721.155 142.644 721.155H144.362C144.747 719.823 144.984 718.55 145.044 717.632L148.095 717.869C147.918 718.639 147.681 719.764 147.266 721.037C150.169 720.918 153.251 720.652 155.947 720.178V722.902C153.073 723.346 149.458 723.583 146.288 723.702C145.696 725.004 144.925 726.367 144.066 727.521C144.984 726.988 146.644 726.663 147.799 726.663C149.636 726.663 151.147 727.521 151.71 729.15C153.517 728.291 155.028 727.669 156.421 727.048C157.399 726.603 158.258 726.218 159.206 725.745L160.361 728.469C159.561 728.706 158.287 729.179 157.399 729.535C155.888 730.097 153.991 730.897 151.947 731.844C151.977 733.502 152.036 735.841 152.066 737.233H149.221Z" fill="black"/>
<path d="M172.627 726.396C170.109 727.432 167.531 728.558 165.428 729.387L164.391 727.136C166.405 726.485 169.309 725.449 172.212 724.412L172.627 726.396ZM179.264 729.239C178.849 730.008 178.434 730.778 178.019 731.489H187.56V743.747H184.686V742.651H171.146V743.747H168.39V731.489H175.323C175.649 730.749 175.975 729.949 176.183 729.239C176.034 729.416 175.827 729.564 175.56 729.683C174.731 730.038 173.486 730.008 171.679 730.008C171.561 729.387 171.264 728.587 170.968 727.995C172.153 728.025 173.279 728.025 173.635 728.025C174.02 728.025 174.109 727.906 174.109 727.61V720.089H165.161V717.928H176.627V727.61C176.627 728.113 176.568 728.498 176.479 728.794L179.264 729.239ZM169.961 724.531C169.22 723.672 167.561 722.517 166.198 721.748L167.561 720.149C168.924 720.83 170.612 721.925 171.383 722.784L169.961 724.531ZM184.686 733.591H171.146V735.96H184.686V733.591ZM184.686 740.49V738.062H171.146V740.49H184.686ZM177.605 726.544C179.708 725.893 182.79 724.856 185.782 723.791L186.226 725.804C183.59 726.811 180.775 727.847 178.553 728.646L177.605 726.544ZM189.841 727.58C189.841 728.794 189.574 729.387 188.686 729.772C187.826 730.127 186.493 730.127 184.567 730.127C184.449 729.475 184.152 728.587 183.827 727.965C185.071 728.025 186.375 728.025 186.76 728.025C187.145 727.995 187.234 727.906 187.234 727.58V720.089H178.345V717.928H189.841V727.58ZM182.908 724.472C182.108 723.642 180.419 722.488 179.027 721.718L180.39 720.119C181.753 720.77 183.501 721.836 184.33 722.695L182.908 724.472Z" fill="black"/>
<path d="M204.151 723.998C203.47 725.212 202.581 726.455 201.663 727.669V743.658H198.996V730.719C197.989 731.815 196.893 732.762 195.885 733.591C195.648 732.969 194.937 731.489 194.493 730.808C197.13 728.943 199.974 725.982 201.722 723.021L204.151 723.998ZM203.737 717.632C201.9 720.238 198.996 723.021 196.33 724.768C196.033 724.146 195.352 723.05 194.907 722.488C197.218 721.007 199.826 718.609 201.07 716.596L203.737 717.632ZM221.928 735.812H217.691V740.816C217.691 742.178 217.425 742.859 216.447 743.244C215.469 743.658 214.047 743.688 211.944 743.688C211.795 742.948 211.41 741.911 211.055 741.201C212.536 741.26 213.958 741.26 214.373 741.23C214.817 741.201 214.936 741.112 214.936 740.757V735.812H203.529V733.443H214.936V731.282H204.24V729.002H221.365V731.282H217.691V733.443H221.928V735.812ZM207.766 735.99C209.07 737.174 210.67 738.862 211.41 739.987L209.336 741.467C208.655 740.342 207.114 738.566 205.811 737.292L207.766 735.99ZM220.18 727.314H205.899V717.395H220.18V727.314ZM217.395 719.409H208.566V721.392H217.395V719.409ZM217.395 723.287H208.566V725.271H217.395V723.287Z" fill="black"/>
<path d="M419.62 686.187C419.62 690.806 419.176 697.676 416.598 702.206C416.094 701.762 414.88 700.933 414.257 700.637C416.657 696.432 416.865 690.421 416.865 686.187V678.667H427.531V675.054H430.405V678.667H441.396V681.332H419.62V686.187ZM419.383 698.445C420.775 696.166 421.487 692.672 421.783 689.504L424.301 690.066C423.946 693.294 423.264 697.202 421.842 699.541L419.383 698.445ZM433.041 699.186C434.108 699.186 434.256 698.445 434.404 694.271C434.967 694.715 436.123 695.189 436.834 695.396C436.567 700.311 435.856 701.673 433.249 701.673H429.397C426.612 701.673 425.901 700.785 425.901 697.972V687.105H428.597V697.972C428.597 699.008 428.805 699.186 429.812 699.186H433.041ZM433.071 688.26C431.649 686.928 428.627 684.944 426.227 683.7L428.094 681.894C430.434 683.019 433.486 684.855 435.056 686.217L433.071 688.26ZM437.841 688.793C439.737 691.813 441.545 695.751 442.019 698.416L439.323 699.541C438.908 696.935 437.249 692.879 435.412 689.77L437.841 688.793Z" fill="black"/>
<path d="M470.432 698.771C470.432 700.37 470.047 701.199 468.98 701.613C467.884 702.058 466.165 702.117 463.44 702.087C463.321 701.347 462.877 700.133 462.521 699.422C464.417 699.511 466.373 699.482 466.936 699.482C467.469 699.482 467.676 699.304 467.676 698.741V693.441H460.506V701.91H457.751V693.441H450.937C450.463 696.698 449.396 700.015 447.233 702.413C446.818 701.88 445.692 700.932 445.07 700.607C448.3 697.024 448.596 691.783 448.596 687.608V677.068H470.432V698.771ZM457.751 690.836V686.454H451.322V687.638C451.322 688.645 451.292 689.74 451.203 690.836H457.751ZM451.322 679.703V683.878H457.751V679.703H451.322ZM467.676 679.703H460.506V683.878H467.676V679.703ZM467.676 690.836V686.454H460.506V690.836H467.676Z" fill="black"/>
<path d="M502.46 679.644C502.46 679.644 502.46 680.591 502.43 680.946C502.015 694.3 501.66 698.89 500.475 700.37C499.734 701.347 499.023 701.614 497.897 701.762C496.86 701.88 495.112 701.85 493.423 701.762C493.364 701.021 493.038 699.867 492.534 699.097C494.43 699.245 496.149 699.274 496.89 699.274C497.482 699.274 497.808 699.186 498.134 698.771C499.082 697.794 499.467 693.323 499.852 682.16H492.86C492.031 684.055 491.112 685.773 490.164 687.135C489.72 686.72 488.683 685.98 488.001 685.595V699.186H479.972V701.436H477.454V679.792H480.772C481.187 678.371 481.631 676.416 481.809 674.995L484.801 675.498C484.298 676.979 483.735 678.548 483.261 679.792H488.001V685.388C489.957 682.841 491.527 678.903 492.416 674.995L495.082 675.617C494.727 676.979 494.342 678.341 493.867 679.644H502.46ZM479.972 682.19V687.816H485.483V682.19H479.972ZM485.483 696.758V690.214H479.972V696.758H485.483ZM495.349 694.448C494.519 692.642 492.593 689.74 491.023 687.609L493.186 686.395C494.756 688.438 496.771 691.25 497.66 692.997L495.349 694.448Z" fill="black"/>
<path d="M522.725 682.368C521.273 682.753 519.466 683.138 517.511 683.404C516.089 687.52 513.541 692.642 511.141 695.869L508.296 694.419C510.696 691.547 513.155 687.046 514.429 683.73C513.718 683.759 513.037 683.789 512.326 683.789C511.2 683.789 509.985 683.759 508.8 683.671L508.593 680.947C509.748 681.065 511.141 681.124 512.326 681.124C513.304 681.124 514.311 681.095 515.348 681.006C515.792 679.377 516.148 677.571 516.207 676.031L519.437 676.328C519.199 677.334 518.814 678.963 518.37 680.621C519.851 680.384 521.303 680.029 522.636 679.614L522.725 682.368ZM526.34 685.418C526.251 686.661 526.281 687.668 526.31 688.852C526.34 689.8 526.429 691.487 526.518 693.145C529.036 694.063 531.11 695.544 532.591 696.847L531.021 699.363C529.865 698.327 528.384 697.054 526.636 696.106V696.906C526.636 699.393 525.125 701.406 521.273 701.406C517.866 701.406 515.111 699.955 515.111 696.906C515.111 694.152 517.6 692.198 521.244 692.198C522.103 692.198 522.903 692.257 523.703 692.405C523.584 690.096 523.436 687.342 523.377 685.418H526.34ZM523.792 694.952C522.962 694.715 522.044 694.596 521.096 694.596C519.14 694.596 517.866 695.455 517.866 696.639C517.866 697.824 518.874 698.742 520.888 698.742C523.081 698.742 523.821 697.498 523.821 695.988C523.821 695.692 523.821 695.366 523.792 694.952ZM531.821 686.543C530.191 685.21 526.962 683.345 524.977 682.457L526.458 680.177C528.562 681.095 532.028 683.049 533.48 684.115L531.821 686.543Z" fill="black"/>
<path d="M417.264 736.819C419.872 738.654 423.694 740.164 427.308 740.845C426.686 741.438 425.886 742.563 425.471 743.303C421.62 742.267 417.65 740.283 414.865 737.737V743.688H412.168V737.944C409.354 740.312 405.354 742.237 401.651 743.273C401.236 742.563 400.465 741.526 399.843 740.934C403.369 740.194 407.221 738.654 409.828 736.819H400.673V734.509H412.168V732.703H403.428V730.63H412.168V728.854H401.976V726.663H408.05C407.784 725.834 407.28 724.768 406.806 723.968L407.517 723.85H400.791V721.54H405.176C404.732 720.386 403.843 718.757 403.013 717.543L405.413 716.744C406.332 718.017 407.369 719.823 407.784 720.978L406.273 721.54H409.532V716.477H412.109V721.54H415.042V716.477H417.65V721.54H420.849L419.724 721.185C420.435 720.001 421.353 718.135 421.798 716.803L424.642 717.514C423.842 718.964 422.953 720.445 422.183 721.54H426.449V723.85H420.731C420.168 724.857 419.575 725.834 419.072 726.663H425.353V728.854H414.865V730.63H423.96V732.703H414.865V734.509H426.538V736.819H417.264ZM409.65 723.85C410.183 724.709 410.717 725.775 410.924 726.485L410.065 726.663H416.316C416.761 725.863 417.235 724.797 417.62 723.85H409.65Z" fill="black"/>
<path d="M455.573 721.837C454.774 723.702 453.648 725.271 452.285 726.574C454.033 727.581 456.077 728.321 458.27 728.795C457.707 729.328 456.907 730.394 456.551 731.104C454.181 730.482 452.018 729.535 450.122 728.262C448.315 729.446 446.181 730.334 443.87 731.045C443.722 730.719 443.426 730.275 443.1 729.831C442.596 731.578 442.034 733.325 441.471 734.598L439.574 733.65C440.048 732.496 440.493 730.838 440.878 729.209H438.597V740.579C438.597 741.911 438.389 742.652 437.5 743.125C436.641 743.51 435.427 743.57 433.59 743.57C433.501 742.829 433.145 741.704 432.79 740.964C433.975 741.023 435.16 741.023 435.515 740.993C435.871 740.964 435.989 740.905 435.989 740.549V732.525C434.893 735.072 433.501 737.47 431.99 738.951C431.723 738.151 431.071 737.026 430.597 736.315C432.375 734.746 434.064 731.933 435.13 729.209H431.012V726.811H438.567C436.938 725.626 434.36 724.235 432.227 723.317L433.945 721.54C434.775 721.866 435.723 722.281 436.612 722.725C437.53 722.014 438.419 721.126 439.16 720.238H431.367V717.899H441.115L441.559 717.81L443.337 718.905C442.241 720.652 440.463 722.488 438.715 723.85C439.663 724.383 440.463 724.945 441.085 725.419L439.811 726.811H441.648L442.063 726.663L443.722 727.255C443.633 727.64 443.545 728.025 443.456 728.439C445.144 727.966 446.655 727.344 447.989 726.574C446.981 725.626 446.093 724.59 445.352 723.465C444.759 724.116 444.167 724.679 443.574 725.182C443.041 724.738 441.974 723.968 441.293 723.613C443.633 721.925 445.737 719.261 446.922 716.477L449.5 717.188C449.144 717.987 448.729 718.757 448.285 719.527H457.618V721.837H455.573ZM457.084 732.94C457.084 732.94 457.055 733.651 456.996 734.035C456.492 739.335 455.959 741.615 455.129 742.504C454.537 743.096 453.944 743.273 453.144 743.392C452.403 743.451 451.189 743.451 449.855 743.392C449.796 742.622 449.5 741.556 449.115 740.845C450.27 740.964 451.366 740.993 451.87 740.993C452.314 740.993 452.551 740.934 452.818 740.668C453.322 740.224 453.737 738.714 454.122 735.249H449.826C448.818 738.891 446.744 741.852 442.063 743.688C441.737 743.037 440.997 742.03 440.434 741.556C444.285 740.164 446.093 737.944 447.011 735.249H442.863V732.94H447.604C447.752 732.022 447.87 731.104 447.959 730.127H450.685C450.596 731.104 450.477 732.022 450.329 732.94H457.084ZM447.07 721.837C447.841 723.05 448.848 724.116 450.063 725.094C451.1 724.176 451.929 723.08 452.551 721.837H447.07Z" fill="black"/>
<path d="M475.128 737.233C475.217 736.226 475.246 734.568 475.246 733.117C472.758 734.509 471.187 735.841 471.187 737.559C471.187 739.572 473.084 739.957 476.046 739.957C478.417 739.957 481.616 739.661 484.194 739.187L484.105 742.178C481.972 742.444 478.594 742.681 475.958 742.681C471.573 742.681 468.165 741.674 468.165 738.032C468.165 734.39 471.691 732.14 475.069 730.423C474.713 729.387 473.765 728.972 472.698 728.972C470.862 728.972 469.084 729.92 467.839 731.074C466.98 731.903 466.121 732.969 465.143 734.213L462.625 732.318C466.062 729.061 468.047 726.218 469.262 723.761H468.402C467.188 723.761 465.143 723.702 463.514 723.583V720.83C465.054 721.037 467.158 721.155 468.551 721.155H470.269C470.654 719.823 470.891 718.55 470.95 717.632L474.002 717.869C473.824 718.639 473.587 719.764 473.173 721.037C476.076 720.918 479.157 720.652 481.853 720.178V722.902C478.98 723.346 475.365 723.583 472.195 723.702C471.602 725.004 470.832 726.367 469.973 727.521C470.891 726.988 472.55 726.663 473.706 726.663C475.543 726.663 477.054 727.521 477.617 729.15C479.424 728.291 480.935 727.669 482.328 727.048C483.305 726.603 484.164 726.218 485.113 725.745L486.268 728.469C485.468 728.706 484.194 729.179 483.305 729.535C481.794 730.097 479.898 730.897 477.854 731.844C477.883 733.502 477.943 735.841 477.972 737.233H475.128Z" fill="black"/>
<path d="M496.963 732.644V740.431C496.963 741.852 496.667 742.563 495.808 742.948C494.949 743.392 493.615 743.451 491.601 743.451C491.512 742.77 491.127 741.645 490.801 740.964C492.104 740.993 493.349 740.993 493.704 740.993C494.119 740.964 494.297 740.845 494.297 740.401V733.384C493.023 733.739 491.838 734.095 490.712 734.391L489.971 731.755C491.186 731.489 492.667 731.104 494.297 730.689V724.857H490.356V722.31H494.297V716.507H496.963V722.31H500.341V724.857H496.963V729.979L500.134 729.12L500.459 731.637L496.963 732.644ZM517.14 740.016V742.563H499.245V740.016H517.14ZM515.155 736.611H501.378V718.52H515.155V736.611ZM512.4 721.067H504.044V726.248H512.4V721.067ZM512.4 728.795H504.044V734.035H512.4V728.795Z" fill="black"/>
<path d="M536.013 726.781H545.553V743.688H542.62V742.444H523.155V739.691H542.62V735.782H524.755V733.147H542.62V729.535H523.747V726.781H533.021V716.507H536.013V726.781ZM526.858 725.538C526.295 723.643 524.755 720.8 523.244 718.728L525.732 717.721C527.332 719.793 528.873 722.517 529.495 724.383L526.858 725.538ZM545.968 718.431C544.724 720.978 543.124 723.82 541.85 725.686L539.421 724.797C540.635 722.843 542.146 719.764 542.976 717.454L545.968 718.431Z" fill="black"/>
<path d="M736.891 679.288C737.246 679.288 737.691 679.288 738.135 679.229C738.076 678.963 738.046 678.696 738.046 678.43C738.046 676.564 739.587 675.025 741.453 675.025C743.32 675.025 744.89 676.564 744.89 678.43C744.89 680.295 743.35 681.835 741.453 681.835C741.187 681.835 740.92 681.805 740.683 681.746L740.535 682.308C739.883 685.329 738.491 690.007 736.091 693.175C733.395 696.669 729.691 699.511 724.328 701.199L721.78 698.416C727.587 696.995 730.935 694.448 733.365 691.369C735.409 688.763 736.683 684.973 737.068 682.279H722.521C721.247 682.279 720.062 682.338 719.321 682.368V679.081C720.151 679.2 721.543 679.288 722.521 679.288H736.891ZM743.32 678.43C743.32 677.423 742.49 676.594 741.453 676.594C740.416 676.594 739.616 677.423 739.616 678.43C739.616 679.436 740.446 680.265 741.453 680.265C742.461 680.265 743.32 679.466 743.32 678.43Z" fill="black"/>
<path d="M771.259 696.402C771.259 697.439 771.318 699.985 771.318 700.222H768.089C768.118 700.074 768.118 699.393 768.148 698.564H752.801C752.801 699.363 752.801 700.074 752.83 700.222H749.63C749.63 699.955 749.69 697.587 749.69 696.402V681.864C749.69 681.094 749.69 680.088 749.66 679.288C750.815 679.348 751.764 679.348 752.504 679.348H768.592C769.274 679.348 770.34 679.348 771.318 679.318C771.259 680.117 771.259 681.035 771.259 681.864V696.402ZM752.771 682.308V695.632H768.148V682.308H752.771Z" fill="black"/>
<path d="M786.902 687.786L785.184 690.421C783.643 689.296 780.473 687.283 778.606 686.276L780.295 683.73C782.132 684.736 785.51 686.809 786.902 687.786ZM789.895 694.744C794.843 691.931 798.872 687.964 801.242 683.759L803.049 686.898C800.383 690.925 796.265 694.715 791.465 697.498C788.473 699.245 784.325 700.666 781.628 701.169L779.88 698.12C783.169 697.557 786.784 696.462 789.895 694.744ZM791.376 681.243L789.598 683.789C788.087 682.693 784.917 680.621 783.11 679.584L784.799 677.038C786.636 678.045 789.954 680.236 791.376 681.243ZM800.264 682.101L798.19 683.019C797.39 681.331 796.561 679.792 795.524 678.37L797.539 677.512C798.309 678.667 799.583 680.739 800.264 682.101ZM804.323 680.591L802.249 681.509C801.42 679.821 800.501 678.341 799.464 676.949L801.509 676.091C802.338 677.186 803.583 679.229 804.323 680.591Z" fill="black"/>
<path d="M826.663 697.439C827.433 697.439 828.174 697.35 828.766 697.261V700.34C828.144 700.281 827.167 700.252 826.663 700.252H810.279C809.597 700.252 808.797 700.281 808.027 700.34V697.261C808.768 697.35 809.597 697.439 810.279 697.439H816.767V687.135H811.701C811.138 687.135 810.13 687.164 809.508 687.224V684.263C810.16 684.352 811.138 684.411 811.671 684.411H825.27C826.011 684.411 826.811 684.352 827.463 684.263V687.224C826.781 687.164 825.952 687.135 825.27 687.135H819.819V697.439H826.663Z" fill="black"/>
<path d="M857.061 681.42C856.765 681.894 856.439 682.634 856.231 683.226C855.431 686.069 853.683 690.036 851.017 693.293C848.291 696.639 844.706 699.363 839.166 701.495L836.41 699.038C842.129 697.32 845.654 694.685 848.291 691.635C850.484 689.119 852.261 685.388 852.795 682.901H843.551C841.654 685.447 839.136 688.053 836.025 690.125L833.418 688.201C838.573 685.121 841.329 681.006 842.721 678.4C843.077 677.808 843.58 676.594 843.817 675.735L847.254 676.861C846.662 677.749 846.039 678.904 845.714 679.496C845.595 679.733 845.447 679.999 845.299 680.236H852.409C853.239 680.236 854.069 680.147 854.631 679.94L857.061 681.42Z" fill="black"/>
<path d="M879.163 692.642C876.023 690.954 871.223 689.089 867.964 688.023V697.172C867.964 698.09 868.053 699.896 868.201 700.962H864.557C864.705 699.926 864.794 698.327 864.794 697.172V680.058C864.794 679.111 864.705 677.749 864.527 676.742H868.172C868.083 677.719 867.964 679.022 867.964 680.058V684.677C871.875 685.862 877.534 687.964 880.497 689.415L879.163 692.642Z" fill="black"/>
<path d="M705.766 718.905C705.707 719.527 705.648 720.267 705.648 721.096V731.015C705.648 731.785 705.707 732.821 705.766 733.413H702.3C702.329 732.91 702.448 731.874 702.448 731.015V721.096C702.448 720.563 702.389 719.527 702.329 718.905H705.766ZM719.454 718.668C719.395 719.438 719.336 720.326 719.336 721.392V726.663C719.336 733.443 718.269 735.96 716.077 738.447C714.151 740.697 711.159 742.03 708.996 742.77L706.537 740.194C709.351 739.483 711.899 738.358 713.707 736.315C715.781 733.976 716.166 731.667 716.166 726.485V721.392C716.166 720.326 716.077 719.438 715.988 718.668H719.454Z" fill="black"/>
<path d="M726.387 728.143C727.335 728.232 729.172 728.321 730.772 728.321H746.86C748.312 728.321 749.467 728.202 750.178 728.143V731.785C749.527 731.755 748.193 731.667 746.89 731.667H730.772C729.113 731.667 727.365 731.726 726.387 731.785V728.143Z" fill="black"/>
<path d="M777.259 722.044L779.007 723.109C778.71 723.583 778.385 724.323 778.177 724.916C777.436 727.373 775.985 730.541 773.97 733.413C775.066 734.124 776.074 734.805 776.814 735.338L774.711 738.032C774 737.44 773.022 736.73 771.926 735.96C769.289 738.95 765.674 741.733 760.608 743.628L757.941 741.289C763.156 739.69 766.741 736.996 769.318 734.242C767.156 732.821 764.874 731.459 763.274 730.571L765.23 728.35C766.889 729.209 769.17 730.482 771.333 731.785C772.963 729.446 774.296 726.663 774.8 724.59H765.407C763.452 727.284 760.756 730.127 757.586 732.318L755.067 730.364C760.223 727.196 763.156 722.932 764.548 720.297C764.933 719.675 765.437 718.49 765.674 717.602L769.052 718.668C768.459 719.556 767.837 720.711 767.511 721.303L767.156 721.925H774.355C775.214 721.925 776.014 721.836 776.577 721.629L776.696 721.688C776.103 720.534 775.303 719.053 774.592 718.076L776.488 717.277C777.229 718.342 778.296 720.178 778.888 721.333L777.259 722.044ZM779.836 716.033C780.636 717.128 781.762 718.994 782.295 720.06L780.37 720.918C779.747 719.645 778.77 717.958 777.94 716.832L779.836 716.033Z" fill="black"/>
<path d="M785.021 728.143C785.969 728.232 787.806 728.321 789.406 728.321H805.494C806.946 728.321 808.101 728.202 808.812 728.143V731.785C808.16 731.755 806.827 731.667 805.524 731.667H789.406C787.747 731.667 785.999 731.726 785.021 731.785V728.143Z" fill="black"/>
<path d="M827.448 737.233C827.537 736.226 827.567 734.568 827.567 733.117C825.078 734.509 823.508 735.841 823.508 737.559C823.508 739.572 825.404 739.957 828.367 739.957C830.737 739.957 833.937 739.661 836.514 739.187L836.426 742.178C834.292 742.444 830.915 742.681 828.278 742.681C823.893 742.681 820.486 741.674 820.486 738.032C820.486 734.39 824.011 732.14 827.389 730.423C827.034 729.387 826.085 728.972 825.019 728.972C823.182 728.972 821.404 729.92 820.16 731.074C819.301 731.903 818.441 732.969 817.464 734.213L814.945 732.318C818.382 729.061 820.367 726.218 821.582 723.761H820.723C819.508 723.761 817.464 723.702 815.834 723.583V720.83C817.375 721.037 819.478 721.155 820.871 721.155H822.589C822.975 719.823 823.211 718.55 823.271 717.632L826.322 717.869C826.145 718.639 825.908 719.764 825.493 721.037C828.396 720.918 831.478 720.652 834.174 720.178V722.902C831.3 723.346 827.685 723.583 824.515 723.702C823.923 725.004 823.152 726.367 822.293 727.521C823.212 726.988 824.871 726.663 826.026 726.663C827.863 726.663 829.374 727.521 829.937 729.15C831.744 728.291 833.255 727.669 834.648 727.048C835.626 726.603 836.485 726.218 837.433 725.745L838.588 728.469C837.788 728.706 836.514 729.179 835.626 729.535C834.115 730.097 832.218 730.897 830.174 731.844C830.204 733.502 830.263 735.841 830.293 737.233H827.448Z" fill="black"/>
<path d="M849.284 732.644V740.431C849.284 741.852 848.987 742.563 848.128 742.948C847.269 743.392 845.936 743.451 843.921 743.451C843.832 742.77 843.447 741.645 843.121 740.964C844.425 740.993 845.669 740.993 846.025 740.993C846.439 740.964 846.617 740.845 846.617 740.401V733.384C845.343 733.739 844.158 734.095 843.032 734.391L842.292 731.755C843.506 731.489 844.988 731.104 846.617 730.689V724.857H842.677V722.31H846.617V716.507H849.284V722.31H852.661V724.857H849.284V729.979L852.454 729.12L852.78 731.637L849.284 732.644ZM869.46 740.016V742.563H851.565V740.016H869.46ZM867.475 736.611H853.698V718.52H867.475V736.611ZM864.72 721.067H856.365V726.248H864.72V721.067ZM864.72 728.795H856.365V734.035H864.72V728.795Z" fill="black"/>
<path d="M888.334 726.781H897.874V743.688H894.941V742.444H875.475V739.691H894.941V735.782H877.075V733.147H894.941V729.535H876.068V726.781H885.341V716.507H888.334V726.781ZM879.179 725.538C878.616 723.643 877.075 720.8 875.564 718.728L878.053 717.721C879.653 719.793 881.193 722.517 881.816 724.383L879.179 725.538ZM898.289 718.431C897.044 720.978 895.444 723.82 894.17 725.686L891.741 724.797C892.956 722.843 894.467 719.764 895.296 717.454L898.289 718.431Z" fill="black"/>
<path d="M1062.8 679.288C1063.15 679.288 1063.6 679.288 1064.04 679.229C1063.98 678.963 1063.95 678.696 1063.95 678.43C1063.95 676.564 1065.49 675.025 1067.36 675.025C1069.23 675.025 1070.8 676.564 1070.8 678.43C1070.8 680.295 1069.26 681.835 1067.36 681.835C1067.09 681.835 1066.83 681.805 1066.59 681.746L1066.44 682.308C1065.79 685.329 1064.4 690.007 1062 693.175C1059.3 696.669 1055.6 699.511 1050.24 701.199L1047.69 698.416C1053.49 696.995 1056.84 694.448 1059.27 691.369C1061.32 688.763 1062.59 684.973 1062.98 682.279H1048.43C1047.15 682.279 1045.97 682.338 1045.23 682.368V679.081C1046.06 679.2 1047.45 679.288 1048.43 679.288H1062.8ZM1069.23 678.43C1069.23 677.423 1068.4 676.594 1067.36 676.594C1066.32 676.594 1065.52 677.423 1065.52 678.43C1065.52 679.436 1066.35 680.265 1067.36 680.265C1068.37 680.265 1069.23 679.466 1069.23 678.43Z" fill="black"/>
<path d="M1097.17 696.402C1097.17 697.439 1097.23 699.985 1097.23 700.222H1094C1094.03 700.074 1094.03 699.393 1094.06 698.564H1078.71C1078.71 699.363 1078.71 700.074 1078.74 700.222H1075.54C1075.54 699.955 1075.6 697.587 1075.6 696.402V681.864C1075.6 681.094 1075.6 680.088 1075.57 679.288C1076.72 679.348 1077.67 679.348 1078.41 679.348H1094.5C1095.18 679.348 1096.25 679.348 1097.23 679.318C1097.17 680.117 1097.17 681.035 1097.17 681.864V696.402ZM1078.68 682.308V695.632H1094.06V682.308H1078.68Z" fill="black"/>
<path d="M1112.81 687.786L1111.09 690.421C1109.55 689.296 1106.38 687.283 1104.51 686.276L1106.2 683.73C1108.04 684.736 1111.42 686.809 1112.81 687.786ZM1115.8 694.744C1120.75 691.931 1124.78 687.964 1127.15 683.759L1128.96 686.898C1126.29 690.925 1122.17 694.715 1117.37 697.498C1114.38 699.245 1110.23 700.666 1107.54 701.169L1105.79 698.12C1109.08 697.557 1112.69 696.462 1115.8 694.744ZM1117.28 681.243L1115.51 683.789C1113.99 682.693 1110.82 680.621 1109.02 679.584L1110.71 677.038C1112.54 678.045 1115.86 680.236 1117.28 681.243ZM1126.17 682.101L1124.1 683.019C1123.3 681.331 1122.47 679.792 1121.43 678.37L1123.45 677.512C1124.22 678.667 1125.49 680.739 1126.17 682.101ZM1130.23 680.591L1128.16 681.509C1127.33 679.821 1126.41 678.341 1125.37 676.949L1127.42 676.091C1128.25 677.186 1129.49 679.229 1130.23 680.591Z" fill="black"/>
<path d="M1152.57 697.439C1153.34 697.439 1154.08 697.35 1154.67 697.261V700.34C1154.05 700.281 1153.07 700.252 1152.57 700.252H1136.19C1135.5 700.252 1134.7 700.281 1133.93 700.34V697.261C1134.67 697.35 1135.5 697.439 1136.19 697.439H1142.67V687.135H1137.61C1137.04 687.135 1136.04 687.164 1135.42 687.224V684.263C1136.07 684.352 1137.04 684.411 1137.58 684.411H1151.18C1151.92 684.411 1152.72 684.352 1153.37 684.263V687.224C1152.69 687.164 1151.86 687.135 1151.18 687.135H1145.73V697.439H1152.57Z" fill="black"/>
<path d="M1182.97 681.42C1182.67 681.894 1182.35 682.634 1182.14 683.226C1181.34 686.069 1179.59 690.036 1176.92 693.293C1174.2 696.639 1170.61 699.363 1165.07 701.495L1162.32 699.038C1168.04 697.32 1171.56 694.685 1174.2 691.635C1176.39 689.119 1178.17 685.388 1178.7 682.901H1169.46C1167.56 685.447 1165.04 688.053 1161.93 690.125L1159.33 688.201C1164.48 685.121 1167.24 681.006 1168.63 678.4C1168.98 677.808 1169.49 676.594 1169.72 675.735L1173.16 676.861C1172.57 677.749 1171.95 678.904 1171.62 679.496C1171.5 679.733 1171.35 679.999 1171.21 680.236H1178.32C1179.15 680.236 1179.98 680.147 1180.54 679.94L1182.97 681.42Z" fill="black"/>
<path d="M1205.07 692.642C1201.93 690.954 1197.13 689.089 1193.87 688.023V697.172C1193.87 698.09 1193.96 699.896 1194.11 700.962H1190.46C1190.61 699.926 1190.7 698.327 1190.7 697.172V680.058C1190.7 679.111 1190.61 677.749 1190.43 676.742H1194.08C1193.99 677.719 1193.87 679.022 1193.87 680.058V684.677C1197.78 685.862 1203.44 687.964 1206.4 689.415L1205.07 692.642Z" fill="black"/>
<path d="M1021.78 722.636C1021.42 723.021 1021.13 723.376 1020.92 723.672C1018.79 727.166 1014.99 731.963 1010.46 735.516C1012.21 737.263 1014.13 739.335 1015.32 740.756L1012.59 742.947C1011.41 741.349 1009.01 738.684 1007.11 736.73C1005.33 734.983 1002.1 732.14 1000.45 730.985L1002.88 729.002C1004 729.831 1006.25 731.637 1008.21 733.384C1012.12 730.393 1015.23 726.426 1016.68 723.879H1000.03C998.846 723.879 997.453 723.998 996.831 724.057V720.741C997.631 720.859 999.023 720.978 1000.03 720.978H1017.16C1018.1 720.978 1018.93 720.889 1019.44 720.711L1021.78 722.636Z" fill="black"/>
<path d="M1039.2 739.306C1039.2 740.401 1039.29 741.882 1039.35 742.799H1035.97C1036.09 741.941 1036.18 740.401 1036.18 739.306C1036.18 737.707 1036.18 735.338 1036.21 733.443C1033.45 734.983 1030.22 736.256 1026.58 737.351L1024.77 734.598C1030.46 733.295 1034.19 731.311 1036.83 729.594C1039.32 727.995 1041.45 725.952 1042.4 724.62H1030.78C1029.72 724.62 1027.97 724.679 1027.05 724.738V721.659C1028.06 721.777 1029.72 721.836 1030.73 721.836H1036.24V720.089C1036.24 719.201 1036.18 718.106 1036.06 717.425H1039.44C1039.35 718.106 1039.26 719.231 1039.26 720.089V721.836H1043.58C1044.35 721.836 1045.12 721.777 1045.69 721.599L1047.64 723.465C1047.02 724.116 1046.25 724.916 1045.72 725.537C1044.21 727.284 1041.81 729.683 1039.2 731.548V739.306ZM1043.44 730.867C1046.19 732.347 1047.76 733.236 1050.58 735.131L1048.62 737.707C1046.04 735.752 1044.18 734.539 1041.51 733.088L1043.44 730.867Z" fill="black"/>
<path d="M1055.61 728.143C1056.56 728.232 1058.4 728.321 1060 728.321H1076.09C1077.54 728.321 1078.69 728.202 1079.4 728.143V731.785C1078.75 731.755 1077.42 731.667 1076.12 731.667H1060C1058.34 731.667 1056.59 731.726 1055.61 731.785V728.143Z" fill="black"/>
<path d="M1093.51 729.238L1091.79 731.874C1090.25 730.749 1087.08 728.735 1085.21 727.728L1086.9 725.182C1088.74 726.189 1092.11 728.261 1093.51 729.238ZM1096.5 736.197C1101.45 733.384 1105.48 729.416 1107.85 725.212L1109.65 728.35C1106.99 732.377 1102.87 736.167 1098.07 738.95C1095.08 740.697 1090.93 742.118 1088.23 742.622L1086.48 739.572C1089.77 739.009 1093.39 737.914 1096.5 736.197ZM1097.98 722.695L1096.2 725.241C1094.69 724.146 1091.52 722.073 1089.71 721.037L1091.4 718.49C1093.24 719.497 1096.56 721.688 1097.98 722.695ZM1106.87 723.554L1104.8 724.471C1104 722.784 1103.17 721.244 1102.13 719.823L1104.14 718.964C1104.91 720.119 1106.19 722.192 1106.87 723.554ZM1110.93 722.044L1108.85 722.961C1108.02 721.274 1107.11 719.793 1106.07 718.402L1108.11 717.543C1108.94 718.638 1110.19 720.682 1110.93 722.044Z" fill="black"/>
<path d="M1125.65 734.835C1127.34 733.325 1129.5 730.689 1130.42 729.061C1129.71 729.209 1126.1 729.92 1122.36 730.689C1123.52 734.864 1124.88 739.809 1125.33 741.201C1125.48 741.734 1125.83 742.829 1126.04 743.392L1122.84 744.191C1122.75 743.48 1122.6 742.622 1122.36 741.852C1121.95 740.401 1120.62 735.427 1119.52 731.282C1116.85 731.815 1114.51 732.318 1113.68 732.496L1112.97 729.653C1113.83 729.594 1114.6 729.475 1115.55 729.327C1115.96 729.268 1117.21 729.031 1118.81 728.735C1118.45 727.344 1118.13 726.218 1117.95 725.597C1117.74 724.856 1117.48 724.235 1117.18 723.702L1120.35 722.932C1120.44 723.524 1120.62 724.235 1120.79 724.975L1121.68 728.202C1125.68 727.432 1130.33 726.544 1131.4 726.307C1131.82 726.218 1132.35 726.07 1132.67 725.893L1134.57 727.225C1133.33 729.772 1130.3 734.035 1128.23 736.137L1125.65 734.835Z" fill="black"/>
<path d="M1139.46 728.143C1140.41 728.232 1142.25 728.321 1143.84 728.321H1159.93C1161.38 728.321 1162.54 728.202 1163.25 728.143V731.785C1162.6 731.755 1161.27 731.667 1159.96 731.667H1143.84C1142.19 731.667 1140.44 731.726 1139.46 731.785V728.143Z" fill="black"/>
<path d="M1181.89 737.233C1181.98 736.226 1182.01 734.568 1182.01 733.117C1179.52 734.509 1177.95 735.841 1177.95 737.559C1177.95 739.572 1179.84 739.957 1182.81 739.957C1185.18 739.957 1188.38 739.661 1190.95 739.187L1190.86 742.178C1188.73 742.444 1185.35 742.681 1182.72 742.681C1178.33 742.681 1174.92 741.674 1174.92 738.032C1174.92 734.39 1178.45 732.14 1181.83 730.423C1181.47 729.387 1180.52 728.972 1179.46 728.972C1177.62 728.972 1175.84 729.92 1174.6 731.074C1173.74 731.903 1172.88 732.969 1171.9 734.213L1169.38 732.318C1172.82 729.061 1174.81 726.218 1176.02 723.761H1175.16C1173.95 723.761 1171.9 723.702 1170.27 723.583V720.83C1171.81 721.037 1173.92 721.155 1175.31 721.155H1177.03C1177.41 719.823 1177.65 718.55 1177.71 717.632L1180.76 717.869C1180.58 718.639 1180.35 719.764 1179.93 721.037C1182.83 720.918 1185.92 720.652 1188.61 720.178V722.902C1185.74 723.346 1182.12 723.583 1178.95 723.702C1178.36 725.004 1177.59 726.367 1176.73 727.521C1177.65 726.988 1179.31 726.663 1180.46 726.663C1182.3 726.663 1183.81 727.521 1184.38 729.15C1186.18 728.291 1187.69 727.669 1189.09 727.048C1190.06 726.603 1190.92 726.218 1191.87 725.745L1193.03 728.469C1192.23 728.706 1190.95 729.179 1190.06 729.535C1188.55 730.097 1186.66 730.897 1184.61 731.844C1184.64 733.502 1184.7 735.841 1184.73 737.233H1181.89Z" fill="black"/>
<path d="M1203.72 732.644V740.431C1203.72 741.852 1203.43 742.563 1202.57 742.948C1201.71 743.392 1200.37 743.451 1198.36 743.451C1198.27 742.77 1197.89 741.645 1197.56 740.964C1198.86 740.993 1200.11 740.993 1200.46 740.993C1200.88 740.964 1201.06 740.845 1201.06 740.401V733.384C1199.78 733.739 1198.6 734.095 1197.47 734.391L1196.73 731.755C1197.95 731.489 1199.43 731.104 1201.06 730.689V724.857H1197.12V722.31H1201.06V716.507H1203.72V722.31H1207.1V724.857H1203.72V729.979L1206.89 729.12L1207.22 731.637L1203.72 732.644ZM1223.9 740.016V742.563H1206V740.016H1223.9ZM1221.91 736.611H1208.14V718.52H1221.91V736.611ZM1219.16 721.067H1210.8V726.248H1219.16V721.067ZM1219.16 728.795H1210.8V734.035H1219.16V728.795Z" fill="black"/>
<path d="M1242.77 726.781H1252.31V743.688H1249.38V742.444H1229.91V739.691H1249.38V735.782H1231.51V733.147H1249.38V729.535H1230.51V726.781H1239.78V716.507H1242.77V726.781ZM1233.62 725.538C1233.05 723.643 1231.51 720.8 1230 718.728L1232.49 717.721C1234.09 719.793 1235.63 722.517 1236.25 724.383L1233.62 725.538ZM1252.73 718.431C1251.48 720.978 1249.88 723.82 1248.61 725.686L1246.18 724.797C1247.39 722.843 1248.91 719.764 1249.73 717.454L1252.73 718.431Z" fill="black"/>
<path opacity="0.5" d="M290.353 593.659V504.833H201.47" fill="white"/>
<path opacity="0.5" d="M616.261 534.441V445.615H527.377" fill="white"/>
<path opacity="0.5" d="M942.167 475.224V386.397H853.284" fill="white"/>
<path opacity="0.5" d="M1268.07 416.006V327.179H1179.19" fill="white"/>
<path d="M1137.9 36.4487C1128.68 28.0249 1127.53 21.0816 1128.6 13.5462C1129.28 8.69031 1131.19 3.99729 1136.97 3.3459C1138.7 -0.547678 1149.74 -0.977007 1153.59 1.71741C1157.92 4.81154 1160.79 9.29729 1161.07 12.9984C1161.35 16.6995 1159.28 20.756 1159.1 24.3386C1159 26.3076 1160.66 25.7303 1159.06 26.6037C1158.3 27.0182 1157.41 27.0182 1156.57 27.0182C1148.93 26.9886 1146.42 36.4043 1137.9 36.4635V36.4487Z" fill="#5A6994"/>
<path d="M1137.89 29.7571C1139.74 29.9643 1153.16 34.835 1155.01 34.6277C1155.01 44.1914 1154.35 51.6381 1169.99 51.6381C1169.99 66.9015 1160.79 78.4786 1147.55 78.4786C1132.51 78.4786 1119.8 68.5596 1119.8 51.6825C1136.97 51.6825 1139.89 45.5386 1137.89 29.7571Z" fill="#FFD8BD"/>
<path d="M1141.8 4.16004C1150.97 0.32568 1158.56 5.93657 1160.84 16.1665C1162.7 24.5606 1161.18 32.4218 1158.11 36.4486C1154.5 41.2008 1143.02 39.3947 1139.68 33.2064C1136.01 26.3815 1128.66 9.6673 1141.82 4.16004H1141.8Z" fill="#FFD8BD"/>
<path d="M1135.58 21.2444C1134.53 21.5997 1133.12 21.4368 1132.41 22.2955C1130.45 24.6642 1134.04 29.5941 1137.8 28.3505C1137.36 26.0706 1136.9 23.7908 1135.58 21.2444Z" fill="#FFD8BD"/>
<path d="M1164.69 50.1428C1151.36 52.2598 1140.41 52.1562 1131.61 49.1953C1127.03 49.4914 1124.38 52.1266 1119.8 52.4227C1124.29 72.7788 1127.88 90.0112 1132.36 110.367C1146.94 106.77 1151.47 110.101 1166.5 110.145C1165.56 92.1579 1172.85 72.8677 1174.48 54.9246C1169.84 52.9408 1166.02 49.9207 1164.69 50.128V50.1428Z" fill="white"/>
<path d="M1155.3 51.9194L1148.42 52.4672L1150.81 59.5733L1147.62 89.0786L1160.2 90.9736L1154.38 60.0767L1155.3 51.9194Z" fill="#C1272D"/>
<path d="M1136.88 42.1781C1140.59 45.2871 1152.9 51.4457 1152.9 51.4457C1152.9 51.4457 1149.1 56.1388 1147.43 61.0686C1143.22 57.7228 1132.41 54.9692 1129.43 50.4834C1131.7 48.5737 1134.88 44.4284 1136.88 42.1633V42.1781Z" fill="white"/>
<path d="M1157.71 44.4136C1154.98 48.544 1151.96 51.9639 1151.96 51.9639C1151.96 51.9639 1156.79 54.9988 1158.21 60.0471C1162.42 56.7013 1161.25 54.984 1164.21 50.4982C1161.95 48.5884 1159.7 46.6787 1157.7 44.4136H1157.71Z" fill="white"/>
<path d="M1174.5 78.4786V106.681L1176.29 154.973L1113.06 154.514C1113.06 154.514 1117.64 108.695 1117.64 105.704C1117.64 94.0529 1116.69 81.2322 1116.69 81.2322C1116.69 81.2322 1112.08 56.1682 1113.33 50.4685C1120.88 47.5817 1133.18 45.0057 1134.84 44.606L1155.81 87.3317C1155.81 87.3317 1159.73 47.1819 1159.93 46.723C1160.07 46.7526 1169.43 48.9881 1173.43 50.4685C1172.98 58.7886 1173.4 63.9998 1174.48 78.4786H1174.5Z" fill="#25335C"/>
<path d="M1113.33 50.4686C1108.13 51.0904 1091.18 77.1462 1085.67 87.2577C1081.67 94.6007 1086.14 99.3085 1086.71 101.233L1108.81 129.673L1117.76 114.454L1106.31 91.5954C1106.31 91.5954 1124.71 69.8328 1125.62 64.2367C1126.54 58.6407 1118.22 49.8912 1113.33 50.4686Z" fill="#25335C"/>
<path d="M1141.16 8.60143C1153.74 4.94473 1157.55 13.2352 1160.94 13.7534C1161.04 10.2891 1159.35 6.86931 1156.72 4.60423C1154.08 2.33914 1151.87 0.370148 1147.1 1.18439C1144.87 1.56931 1142.23 1.85059 1141.24 3.89361C1140.76 3.58272 1140.13 3.76037 1139.61 3.96763C1136.38 5.32965 1134.08 8.40897 1133.12 11.7844C1132.17 15.1598 1133.99 18.476 1134.84 21.8662C1139.89 18.1947 1138.87 13.4425 1141.16 8.60143Z" fill="#5A6994"/>
<path d="M1196.67 68.2636L1202.2 61.039L1203.26 56.1979C1203.26 56.1979 1204.43 53.5775 1204.27 50.7203C1204.09 47.863 1203.53 42.3409 1204.18 41.1566C1204.83 39.9722 1205.86 40.9493 1206.67 42.1633C1207.29 43.1108 1208.48 46.9747 1208.98 48.6773C1209.1 49.077 1209.56 49.2398 1209.9 49.0178L1222.68 40.4904C1222.68 40.4904 1225.51 37.7071 1226.63 38.6102C1227.74 39.5133 1225.91 42.7259 1225.91 42.7259L1218.23 49.6395C1218.23 49.6395 1220.27 51.7122 1221.25 53.5183C1222.23 55.3245 1223.01 58.0337 1223.01 58.0337C1223.01 58.0337 1221.68 62.2678 1220.61 62.8303C1217.59 64.4292 1216 64.9622 1216 64.9622L1210.54 67.6714L1204.95 75.9619L1196.69 68.2784L1196.67 68.2636Z" fill="#FFD8BD"/>
<path d="M1147.76 285.771C1147.76 283.062 1148.79 280.16 1148.64 277.377C1153.84 277.717 1159 278.472 1163.3 277.776C1168.23 284.661 1174.36 290.686 1181.34 295.512C1183.8 297.215 1186.73 299.583 1185.83 302.544C1185.49 303.669 1184.63 304.543 1183.56 305.046C1181.43 306.053 1179.13 305.668 1176.92 305.224C1173.84 304.602 1170.78 303.832 1167.75 302.959C1165.52 302.307 1163.3 301.582 1161.22 300.516C1159.16 299.45 1155.93 296.563 1155.93 296.563L1155.04 297.244C1155.04 297.244 1149.79 294.135 1148.35 291.53C1148.08 290.864 1147.44 287.769 1147.74 285.756L1147.76 285.771Z" fill="black"/>
<path d="M1106.2 149.393C1106.2 149.393 1106.28 149.393 1106.31 149.378C1106.29 149.333 1106.26 149.274 1106.25 149.229C1106.23 149.289 1106.22 149.348 1106.2 149.407V149.393Z" fill="#FFD8BD"/>
<path d="M1173.43 50.4685C1178.18 52.8076 1190.64 84.4596 1190.64 84.4596C1190.64 84.4596 1185.19 100.463 1182.41 102.802C1174.85 101.899 1172.64 95.6517 1169.99 86.6506C1168.1 80.2551 1168.64 55.0579 1173.43 50.4685Z" fill="#25335C"/>
<path d="M1123.61 279.064L1125.36 295.601C1125.36 295.601 1128.79 303.433 1123.48 304.587C1118.16 305.742 1110.54 307.06 1106.65 303.862C1102.75 300.664 1102 294.431 1102 294.431L1107.8 279.642L1123.62 279.064H1123.61Z" fill="black"/>
<path d="M1173.03 130.413L1168.18 281.922L1147.15 280.471L1144.9 139.739L1173.03 130.413Z" fill="#25335C"/>
<path d="M1150.84 143.677L1126.32 281.922L1104.37 280.737L1117.52 138.096L1150.84 143.677Z" fill="#25335C"/>
<path d="M1173.03 127.348C1173.03 127.348 1173.03 123.958 1173.03 130.413C1173.03 136.867 1172.67 146.668 1172.67 146.668L1145.55 150.561H1140.23L1116.32 144.122L1117.28 121.027L1125.13 116.644C1127 115.638 1129.12 115.164 1131.24 115.268L1165.01 116.926C1167.99 117.074 1170.55 119.087 1171.4 121.93L1173.01 127.348H1173.03Z" fill="#25335C"/>
<path d="M1117.21 115.623C1118.17 115.934 1118.93 116.645 1119.64 117.34C1121.24 118.865 1122.82 120.405 1124.42 121.93C1124.63 122.122 1124.84 122.329 1124.94 122.581C1125.25 123.351 1124.35 124.18 1123.48 124.195C1122.6 124.21 1121.8 123.721 1121.08 123.262C1121.76 124.402 1122.56 124.994 1122.91 126.253C1122.97 126.46 1122.75 127.333 1122.63 127.511C1122.45 127.792 1122.04 127.792 1121.71 127.733C1121.05 127.629 1120.39 127.452 1119.77 127.2C1120.51 128.074 1121.3 129.08 1121.21 130.191C1121.12 131.301 1118.59 131.523 1117.74 130.724C1118.63 131.375 1118.44 132.781 1118.1 133.329C1117.37 134.499 1113.77 132.574 1113.43 132.382C1110.79 130.812 1112.74 132.115 1110.1 130.546C1109.21 130.013 1108.25 129.421 1107.86 128.488C1107.48 127.555 1107.08 124.802 1108.13 124.728C1107.82 123.899 1109.05 122.433 1109.34 121.604C1110.37 118.643 1112.02 117.888 1112.6 116.556C1112.88 115.919 1115.02 114.898 1117.21 115.623Z" fill="#FFD8BD"/>
<path d="M1115.06 115.89C1116.01 114.394 1116.97 112.899 1117.92 111.419C1118.11 111.108 1118.32 110.782 1118.63 110.59C1118.94 110.397 1119.37 110.338 1119.67 110.575C1119.86 110.738 1119.95 111.004 1120.02 111.256C1120.25 112.026 1120.42 112.795 1120.44 113.595C1120.47 115.638 1119.21 117.651 1117.34 118.51C1116.6 117.533 1115.74 116.645 1115.06 115.904V115.89Z" fill="#FFD8BD"/>
<path d="M1198.18 61.0833L1209.83 71.4464C1209.83 71.4464 1194.43 107.17 1184.73 111.581C1177.95 114.675 1172.41 105.201 1171.98 104.238C1167.13 93.0905 1198.18 61.0833 1198.18 61.0833Z" fill="#25335C"/>
<path d="M1227 8.58667L1228.18 19.8233" stroke="#FFE100" stroke-width="2.31" stroke-linecap="round" stroke-linejoin="round"/>
<path d="M1249.22 10.9407L1239.69 22.8139" stroke="#FFE100" stroke-width="2.31" stroke-linecap="round" stroke-linejoin="round"/>
<path d="M1256.96 31.874L1245.72 33.0584" stroke="#FFE100" stroke-width="2.31" stroke-linecap="round" stroke-linejoin="round"/>
<path d="M1140.67 424.888C791.065 558.128 146.658 546.285 146.658 546.285C146.658 546.285 845.877 531.48 1127.34 395.279C1131.79 405.642 1140.67 424.888 1140.67 424.888Z" fill="#E51919"/>
<path d="M1114.01 376.033L1145.12 447.095L1219.19 374.553L1114.01 376.033Z" fill="#E51919"/>
</g>
<defs>
<clipPath id="clip0_1300_2185">
<rect width="1274" height="795" fill="white"/>
</clipPath>
</defs>
</svg>
