<svg width="360" height="820" viewBox="0 0 360 820" fill="none" xmlns="http://www.w3.org/2000/svg">
<g clip-path="url(#clip0_1425_3229)">
<path d="M240 38H230V798H240V38Z" fill="black"/>
<path d="M360 0H110V100H360V0Z" fill="#0A2270"/>
<path d="M78 2H2V578H78V2Z" fill="white"/>
<path d="M76 4V576H4V4H76ZM80 0H0V580H80V0Z" fill="#0A2270"/>
<path d="M50.53 58.95C50.31 59.24 49.89 59.74 49.72 60.05C48.71 61.74 46.64 64.47 44.51 65.97L42.27 64.19C44.01 63.13 45.7 61.24 46.25 60.19H34.98C34.1 60.19 33.4 60.26 32.36 60.32V57.33C33.2 57.46 34.1 57.55 34.98 57.55H46.64C47.23 57.55 48.42 57.48 48.84 57.37L50.53 58.95ZM41.73 61.86C41.73 67.23 41.62 71.61 35.72 74.78L33.21 72.71C33.94 72.49 34.71 72.14 35.5 71.54C38.25 69.63 38.74 67.36 38.74 63.79C38.74 63.13 38.72 62.56 38.61 61.85H41.73V61.86Z" fill="#0A2270"/>
<path d="M43.3102 92.7696C43.3102 93.7396 43.3502 95.0796 43.4902 95.6096H40.1002C40.1702 95.0996 40.2502 93.7396 40.2502 92.7696V85.7096C38.0302 86.8296 35.3202 87.9496 32.7902 88.6396L31.2502 86.0196C35.0102 85.1796 38.6702 83.5996 41.0802 82.0796C43.2602 80.7396 45.5002 78.8196 46.7102 77.2196L49.0202 79.3096C47.3702 80.9396 45.4302 82.5696 43.3002 83.9496V92.7696H43.3102Z" fill="#0A2270"/>
<path d="M38.18 106.87L36.62 109.29C35.39 108.43 33.14 106.96 31.71 106.21L33.25 103.83C34.7 104.6 37.08 106.1 38.18 106.87ZM39.95 111.82C43.6 109.75 46.62 106.78 48.33 103.7L49.98 106.65C47.98 109.62 44.94 112.37 41.4 114.42C39.2 115.63 36.12 116.73 34.2 117.06L32.59 114.22C35.01 113.82 37.59 113.1 39.94 111.82H39.95ZM41.51 102.01L39.9 104.39C38.69 103.55 36.44 102.08 35.02 101.29L36.58 98.9099C38.01 99.6999 40.39 101.22 41.51 102.01Z" fill="#0A2270"/>
<path d="M40.6902 132.57C44.3602 130.39 47.1802 127.09 48.5702 124.19L50.2202 127.23C48.5902 130.13 45.7102 133.13 42.2602 135.22C40.0602 136.54 37.2902 137.73 34.2502 138.23L32.4202 135.41C35.8102 134.93 38.5802 133.83 40.6902 132.57ZM40.4702 125.77L38.2902 128.04C37.1502 126.83 34.4602 124.52 32.9002 123.44L34.9002 121.26C36.3702 122.25 39.2102 124.49 40.4702 125.77Z" fill="#0A2270"/>
<path d="M40.71 142.88C42.25 142.88 43.53 144.16 43.53 145.7C43.53 147.24 42.25 148.52 40.71 148.52C39.17 148.52 37.89 147.24 37.89 145.7C37.89 144.16 39.17 142.88 40.71 142.88Z" fill="#0A2270"/>
<path d="M47.69 160.59C48.13 160.59 49.08 160.57 49.67 160.48V163.27C49.1 163.25 48.28 163.23 47.69 163.23H42.48C42.37 165.45 41.89 167.23 41.09 168.75C40.34 170.25 38.69 171.94 36.76 172.91L34.23 171.08C35.77 170.46 37.31 169.23 38.17 167.96C39.05 166.64 39.4 165.03 39.51 163.23H33.57C32.91 163.23 32.07 163.23 31.48 163.27V160.48C32.12 160.55 32.89 160.59 33.57 160.59H47.7H47.69ZM36.29 157.65C35.56 157.65 34.64 157.69 33.96 157.74V154.97C34.66 155.06 35.57 155.12 36.27 155.12H43.35C44.08 155.12 44.93 155.05 45.66 154.97V157.74C44.93 157.7 44.1 157.65 43.35 157.65H36.29ZM46.94 157.14C46.5 156.28 45.82 154.98 45.25 154.17L46.97 153.47C47.52 154.26 48.27 155.63 48.69 156.42L46.95 157.15L46.94 157.14ZM49.54 156.15C49.1 155.25 48.4 153.99 47.82 153.18L49.51 152.5C50.08 153.29 50.85 154.68 51.25 155.43L49.53 156.16L49.54 156.15Z" fill="#0A2270"/>
<path d="M37.8999 184.73L36.3199 187.15C35.0899 186.29 32.8699 184.84 31.4099 184.07L32.9699 181.72C34.4199 182.49 36.7999 183.96 37.8999 184.73ZM39.6399 189.68C43.3099 187.61 46.3299 184.66 48.0499 181.58L49.6999 184.51C47.6999 187.5 44.6599 190.23 41.1399 192.28C38.9399 193.51 35.8399 194.59 33.9199 194.94L32.2899 192.1C34.7099 191.7 37.3099 190.96 39.6399 189.68ZM41.2199 179.87L39.6099 182.25C38.3999 181.41 36.1499 179.96 34.7299 179.17L36.2899 176.77C37.7199 177.56 40.0699 179.08 41.2199 179.87ZM47.6199 180.53L45.7699 181.34C45.1299 179.98 44.6499 179.05 43.8499 177.95L45.6499 177.2C46.2699 178.1 47.1499 179.53 47.6099 180.52L47.6199 180.53ZM50.6799 179.38L48.8299 180.19C48.1299 178.85 47.5999 177.99 46.7799 176.91L48.6299 176.14C49.3099 177 50.1499 178.43 50.6799 179.37V179.38Z" fill="#0A2270"/>
<path d="M49.3402 202.57C49.0802 202.99 48.7902 203.58 48.5902 204.11C48.0602 205.78 47.0502 207.94 45.6202 210.01C46.4302 210.52 47.1402 211 47.6902 211.4L45.7502 213.93C45.2202 213.49 44.5402 212.96 43.7502 212.41C41.8102 214.5 39.2802 216.44 35.7602 217.78L33.2702 215.6C37.1002 214.43 39.5402 212.61 41.3202 210.78C39.8502 209.83 38.3702 208.91 37.2702 208.29L39.1002 206.24C40.2402 206.83 41.7202 207.67 43.1702 208.53C44.2302 206.99 45.0802 205.21 45.4102 203.91H39.2002C37.7002 205.91 35.7002 207.98 33.5202 209.48L31.1902 207.7C34.9702 205.37 36.9802 202.4 38.0602 200.53C38.3902 200 38.8502 199.03 39.0502 198.26L42.1502 199.25C41.6402 200 41.0702 200.97 40.8302 201.45L40.8102 201.47H45.2302C45.8902 201.47 46.6402 201.36 47.1002 201.23L49.3202 202.57H49.3402Z" fill="#0A2270"/>
<path d="M31.1702 236.83C33.0802 235.51 34.1402 233.66 34.7302 231.84C35.3502 229.99 35.3702 226.12 35.3702 223.52C35.3702 222.64 35.3002 222.07 35.1502 221.54H38.3202C38.3202 221.63 38.1702 222.6 38.1702 223.48C38.1702 226.03 38.1002 230.39 37.5302 232.55C36.8902 234.99 35.5502 237.13 33.7002 238.75L31.1702 236.84V236.83ZM41.0402 237.31C41.1502 236.89 41.2202 236.32 41.2202 235.73V223.36C41.2202 222.39 41.0702 221.56 41.0402 221.51H44.2502C44.2502 221.51 44.1202 222.41 44.1202 223.38V234.43C45.8602 233.68 47.9902 231.99 49.4402 229.9L51.0902 232.25C49.3102 234.6 46.2102 236.91 43.7602 238.17C43.3402 238.39 43.1202 238.59 42.8402 238.79L41.0402 237.32V237.31Z" fill="#0A2270"/>
<path d="M47.8898 256.29C48.6598 256.29 49.3398 256.2 49.8898 256.11V259.23C49.2998 259.14 48.3898 259.14 47.8898 259.14H33.6498C33.0098 259.14 32.2598 259.16 31.5398 259.23V256.11C32.2198 256.24 32.9898 256.29 33.6498 256.29H39.1498V247.47H34.9498C34.3798 247.47 33.4798 247.51 32.8998 247.56V244.61C33.4698 244.7 34.3698 244.74 34.9498 244.74H46.7198C47.3798 244.74 48.1298 244.7 48.7198 244.61V247.56C48.0998 247.52 47.3298 247.47 46.7198 247.47H42.1398V256.29H47.8798H47.8898Z" fill="#0A2270"/>
<path d="M40.6902 275.409C44.3602 273.229 47.1802 269.929 48.5702 267.029L50.2202 270.069C48.5902 272.969 45.7102 275.969 42.2602 278.059C40.0602 279.379 37.2902 280.569 34.2502 281.069L32.4202 278.249C35.8102 277.769 38.5802 276.669 40.6902 275.409ZM40.4702 268.609L38.2902 270.879C37.1502 269.669 34.4602 267.359 32.9002 266.279L34.9002 264.099C36.3702 265.089 39.2102 267.329 40.4702 268.609Z" fill="#0A2270"/>
<path d="M37.8999 292.86L36.3199 295.28C35.0899 294.42 32.8699 292.97 31.4099 292.2L32.9699 289.85C34.4199 290.62 36.7999 292.09 37.8999 292.86ZM39.6399 297.81C43.3099 295.74 46.3299 292.79 48.0499 289.71L49.6999 292.64C47.6999 295.63 44.6599 298.36 41.1399 300.41C38.9399 301.64 35.8399 302.72 33.9199 303.07L32.2899 300.23C34.7099 299.83 37.3099 299.09 39.6399 297.81ZM41.2199 288L39.6099 290.38C38.3999 289.54 36.1499 288.09 34.7299 287.3L36.2899 284.9C37.7199 285.69 40.0699 287.21 41.2199 288ZM47.6199 288.66L45.7699 289.47C45.1299 288.11 44.6499 287.18 43.8499 286.08L45.6499 285.33C46.2699 286.23 47.1499 287.66 47.6099 288.65L47.6199 288.66ZM50.6799 287.51L48.8299 288.32C48.1299 286.98 47.5999 286.12 46.7799 285.04L48.6299 284.27C49.3099 285.13 50.1499 286.56 50.6799 287.5V287.51Z" fill="#0A2270"/>
<path d="M31.76 319.17C32.62 319.24 33.63 319.3 34.49 319.3H46.86C47.61 319.3 48.53 319.26 49.26 319.17V322.47C48.49 322.38 47.52 322.32 46.86 322.32H34.49C33.63 322.32 32.6 322.39 31.76 322.47V319.17ZM33.59 308.59C34.38 308.7 35.39 308.74 36.12 308.74H45.05C45.91 308.74 46.83 308.67 47.47 308.59V311.74C46.83 311.72 45.8 311.65 45.05 311.65H36.14C35.33 311.65 34.31 311.69 33.59 311.74V308.59Z" fill="#0A2270"/>
<path d="M50.53 330.5C50.31 330.79 49.89 331.29 49.72 331.6C48.71 333.29 46.64 336.02 44.51 337.52L42.27 335.74C44.01 334.68 45.7 332.79 46.25 331.74H34.98C34.1 331.74 33.4 331.81 32.36 331.87V328.88C33.2 329.01 34.1 329.1 34.98 329.1H46.64C47.23 329.1 48.42 329.03 48.84 328.92L50.53 330.5ZM41.73 333.4C41.73 338.77 41.62 343.15 35.72 346.32L33.21 344.25C33.94 344.03 34.71 343.68 35.5 343.08C38.25 341.17 38.74 338.9 38.74 335.33C38.74 334.67 38.72 334.1 38.61 333.39H41.73V333.4Z" fill="#0A2270"/>
<path d="M37.3 349.82C37.26 350.3 37.23 350.79 37.23 351.45V358.76C37.23 359.31 37.25 360.15 37.3 360.65H34.11C34.13 360.23 34.2 359.4 34.2 358.76V351.45C34.2 351.08 34.18 350.31 34.11 349.82H37.3ZM47.25 349.62C47.21 350.24 47.16 350.94 47.16 351.8V356.07C47.16 360.71 46.28 362.72 44.65 364.48C43.24 366.06 41 367.1 39.41 367.6L37.17 365.22C39.33 364.71 41.13 363.9 42.43 362.49C43.9 360.88 44.19 359.26 44.19 355.89V351.8C44.19 350.94 44.15 350.24 44.06 349.62H47.25Z" fill="#0A2270"/>
<path d="M40.69 382.69C44.36 380.51 47.18 377.21 48.57 374.31L50.22 377.35C48.59 380.25 45.71 383.25 42.26 385.34C40.06 386.66 37.29 387.85 34.25 388.35L32.42 385.53C35.81 385.05 38.58 383.95 40.69 382.69ZM40.47 375.89L38.29 378.16C37.15 376.95 34.46 374.64 32.9 373.56L34.9 371.38C36.37 372.37 39.21 374.61 40.47 375.89Z" fill="#0A2270"/>
<path d="M47.21 395.67L48.9701 396.73C48.7101 397.15 48.4201 397.74 48.2401 398.29C47.6701 400.2 46.44 403.09 44.46 405.48C42.44 407.99 39.8401 409.97 35.7901 411.58L33.2201 409.29C37.6401 407.97 40.04 406.1 41.93 403.94C43.4001 402.27 44.6601 399.67 44.9901 398.06H38.92C37.49 399.95 35.6001 401.82 33.4901 403.27L31.05 401.49C34.86 399.16 36.73 396.39 37.8 394.51C38.13 394 38.5701 392.99 38.7701 392.27L41.94 393.33C41.41 394.08 40.88 395.05 40.62 395.51L40.55 395.62H44.8801C45.5401 395.62 46.2701 395.53 46.75 395.38L46.8601 395.45C46.4201 394.59 45.85 393.49 45.32 392.77L47.01 392.07C47.56 392.86 48.33 394.23 48.75 395.02L47.21 395.68V395.67ZM49.5801 391.09C50.1301 391.9 50.9401 393.27 51.32 394.02L49.6 394.77C49.14 393.87 48.4601 392.61 47.8601 391.8L49.5801 391.1V391.09Z" fill="#0A2270"/>
<path d="M40.23 429.77C41.07 429.68 41.64 429.55 42.23 429.44C44.94 428.78 47.07 426.84 47.07 423.74C47.07 420.64 45.46 418.59 42.6 418.11C42.31 419.91 41.94 421.89 41.32 423.87C40.04 428.18 38.22 430.82 35.89 430.82C33.56 430.82 31.53 428.2 31.53 424.59C31.53 419.68 35.82 415.48 41.36 415.48C46.62 415.48 49.96 419.15 49.96 423.8C49.96 428.45 47.21 431.48 41.82 432.29L40.21 429.76L40.23 429.77ZM38.58 423.32C39.06 421.76 39.46 419.93 39.72 418.15C36.2 418.9 34.31 422 34.31 424.33C34.31 426.49 35.17 427.52 35.98 427.52C36.86 427.52 37.7 426.2 38.58 423.32Z" fill="#0A2270"/>
<path d="M38.3601 447.32C37.5501 447.54 36.7301 447.78 35.9001 448V453.24C35.9001 454.52 35.6601 455.15 34.9301 455.53C34.2001 455.95 33.1301 456.01 31.5901 456.01C31.5201 455.33 31.1701 454.29 30.8601 453.63C31.7201 453.65 32.6401 453.65 32.9301 453.65C33.2401 453.65 33.3501 453.54 33.3501 453.23V448.65L31.0201 449.27L30.3401 446.76C31.2001 446.58 32.2501 446.34 33.3501 446.08V442.23H30.6201V439.81H33.3501V435.65H35.9001V439.81H38.2101V442.23H35.9001V445.46L38.0601 444.91L38.3701 447.31L38.3601 447.32ZM50.8801 453.02V455.46H37.3701V453.02H50.8801ZM49.5401 450.86H38.8901V437.04H49.5401V450.86ZM46.9201 439.47H41.4001V442.68H46.9201V439.47ZM46.9201 445.12H41.4001V448.44H46.9201V445.12Z" fill="#0A2270"/>
<path d="M34.66 465.38C34.24 463.99 33.16 461.86 32.09 460.32L34.47 459.37C35.64 460.89 36.71 462.91 37.2 464.32L34.67 465.38H34.66ZM42.17 466.11H49.17V479.07H46.38V478.17H32.12V475.57H46.38V473.28H33.38V470.75H46.38V468.73H32.63V466.11H39.3V458.5H42.18V466.11H42.17ZM49.54 460.04C48.57 462 47.45 464.09 46.5 465.48L44.21 464.69C45.07 463.17 46.08 460.91 46.61 459.19L49.54 460.05V460.04Z" fill="#0A2270"/>
<path d="M32.82 488.11C32.4 488.57 31.94 489.06 31.46 489.5C31.17 488.91 30.49 487.94 30.01 487.52C32.08 485.74 33.44 483.36 34.19 481.43H36.28C37.71 482.57 39.62 484.31 40.48 485.59L38.87 487.9C38.21 486.84 36.89 485.22 35.64 484.07C35.11 485.04 34.45 486.12 33.62 487.17H38.37V489.35H32.83V488.12L32.82 488.11ZM39.37 496.87C39.37 497.86 39.24 498.52 38.6 498.87C37.96 499.24 37.19 499.27 36.09 499.27C36.02 498.61 35.78 497.69 35.5 497.07C36.12 497.09 36.67 497.09 36.86 497.07C37.06 497.07 37.1 497 37.1 496.81V493.05H35.27V501.92H32.94V493.05H31.11V490.78H39.36V496.87H39.37ZM44.59 498.96C43.38 500.13 41.31 501.36 39.62 502.02C39.2 501.51 38.43 500.77 37.86 500.3C39.58 499.71 41.51 498.54 42.46 497.57L44.59 498.96ZM43.53 485.91C43.62 485.43 43.68 484.94 43.75 484.46H39.57V482.26H50.73V484.46H46.62C46.47 484.97 46.31 485.45 46.16 485.91H50.12V497.55H40.33V485.91H43.54H43.53ZM47.6 487.85H42.69V489.24H47.6V487.85ZM47.6 491.01H42.69V492.42H47.6V491.01ZM47.6 494.23H42.69V495.64H47.6V494.23ZM47.58 497.72C48.79 498.51 50.46 499.7 51.32 500.54L49.25 502.01C48.5 501.17 46.87 499.9 45.64 499.02L47.58 497.72Z" fill="#0A2270"/>
<path d="M37.2199 518.87C35.2799 520.01 33.1499 521.22 31.3399 522.19L30.3499 519.55C30.9699 519.29 31.7099 518.93 32.5299 518.56V511.98H30.5499V509.49H32.5299V504.56H34.9699V509.49H36.6199V512H34.9699V517.3L36.4699 516.55L37.2199 518.86V518.87ZM50.4399 511.56C49.7599 514.44 48.7899 517.02 47.5099 519.22C47.8799 521.18 48.3899 522.37 48.9199 522.37C49.2299 522.37 49.3999 521.56 49.4699 519.6C49.9499 520.22 50.6799 520.77 51.2299 521.05C50.8599 523.98 50.2199 524.81 48.5699 524.81C47.3399 524.81 46.4099 523.64 45.7299 521.77C44.8299 522.89 43.7899 523.86 42.6499 524.67C42.2999 524.23 41.3299 523.39 40.7799 523.02C41.8399 522.36 42.7599 521.57 43.5999 520.69C41.2699 521.31 38.7999 521.97 36.9099 522.45L36.2899 520.01C38.1999 519.66 41.0899 519 43.8599 518.38L44.0599 520.12C44.3899 519.72 44.6999 519.33 44.9799 518.91C44.4699 516.29 44.1899 513.08 44.0599 509.67H36.9499V507.29H43.9699C43.9499 506.28 43.9299 505.29 43.9299 504.28H46.4199C46.3999 505.29 46.3999 506.28 46.4199 507.29H48.7499C48.1999 506.72 47.4699 506.06 46.8399 505.55L48.3099 504.27C49.1699 504.89 50.2199 505.77 50.7299 506.4L49.7799 507.28H50.7499V509.66H46.4799C46.5699 511.66 46.6999 513.53 46.8999 515.2C47.4099 513.92 47.7799 512.56 48.1099 511.09L50.4399 511.55V511.56ZM43.2499 511.14V517.83H37.5999V511.14H43.2499ZM41.1999 513.15H39.5099V515.83H41.1999V513.15Z" fill="#0A2270"/>
<path d="M209 44.0799C208.68 44.6599 208.38 45.1999 208.12 45.6399H212.1V56.4799C212.1 57.6599 211.86 58.2999 211.08 58.6799C210.3 59.0399 209.18 59.0799 207.62 59.0799C207.52 58.5199 207.22 57.6599 206.94 57.0599H202.06V58.1599H199.96V51.8799H207.8V56.8399C208.5 56.8599 209.12 56.8599 209.36 56.8599C209.7 56.8599 209.8 56.7599 209.8 56.4599V50.3199C209.5 50.9199 209 51.1199 208.2 51.1199H206.58C204.8 51.1199 204.44 50.5799 204.44 48.9599V47.6799H202.82C202.64 49.8999 201.9 51.1799 198.86 51.8799C198.72 51.4799 198.36 50.8799 198 50.4799V59.0399H195.74V45.6399H199.3C199.14 45.1399 198.9 44.5399 198.68 44.0799H195.06V41.9199H202.5V40.4199H204.92V41.9199H212.56V44.0799H209ZM198 50.1999C200.14 49.7799 200.6 49.0599 200.74 47.6799H198V50.1999ZM205.5 45.6399C205.74 45.1599 206.02 44.5999 206.24 44.0799H201.24C201.5 44.5999 201.76 45.1999 201.88 45.6399H205.5ZM205.66 53.6399H202.06V55.3199H205.66V53.6399ZM209.8 47.6799H206.48V48.9399C206.48 49.3599 206.54 49.4199 206.88 49.4199H207.92C208.26 49.4199 208.34 49.2799 208.4 48.3199C208.7 48.5199 209.3 48.7399 209.8 48.8799V47.6799Z" fill="white"/>
<path d="M216.04 50.0807H223.66V58.9807H221.28V58.0807H218.3V59.0807H216.04V50.0807ZM218.3 52.3607V55.8007H221.28V52.3607H218.3ZM230.52 48.4207H218.8V41.1807H230.52V48.4207ZM228.1 43.4607H221.1V46.1607H228.1V43.4607ZM233.22 50.0807V59.0007H230.82V58.0807H227.64V59.0807H225.36V50.0807H233.22ZM230.82 55.8007V52.3607H227.64V55.8007H230.82Z" fill="white"/>
<path d="M246.42 40.3203C248.58 43.4803 251.86 46.2003 255.06 47.5803C254.46 48.2003 253.92 48.9803 253.46 49.7203C250.36 48.0003 247.02 45.1203 245.3 42.6603C243.68 45.1003 240.6 47.8803 237.3 49.7403C237 49.2003 236.32 48.3203 235.8 47.8203C239.26 46.0403 242.48 42.8603 243.98 40.3203H246.42ZM246.76 56.3803H253.92V58.5403H236.9V56.3803H239.08V49.4403H241.42V56.3803H244.26V46.0003H246.76V50.2803H252.12V52.3803H246.76V56.3803Z" fill="white"/>
<path d="M275.16 41.6006V43.8206H267.32V45.4206H270.96V54.4806H261.44V45.4206H264.94V43.8206H257.26V41.6006H275.16ZM272.26 45.1406H274.56V59.0606H272.26V57.9006H260.18V59.0806H257.86V45.1406H260.18V55.6606H272.26V45.1406ZM263.38 49.0406H265.12V47.3606H263.38V49.0406ZM263.38 52.5406H265.12V50.8406H263.38V52.5406ZM268.9 47.3606H267.16V49.0406H268.9V47.3606ZM268.9 50.8406H267.16V52.5406H268.9V50.8406Z" fill="white"/>
<path d="M99.54 530L78 517.56V542.44L99.54 530Z" fill="#0A2270"/>
<path d="M99.54 410L78 397.56V422.44L99.54 410Z" fill="#0A2270"/>
<path d="M99.54 170L78 157.56V182.44L99.54 170Z" fill="#0A2270"/>
<path d="M99.54 290L78 277.56V302.44L99.54 290Z" fill="#0A2270"/>
<path d="M99.54 49.9996L78 37.5596V62.4396L99.54 49.9996Z" fill="#0A2270"/>
<path opacity="0.2" d="M114 64V4H174" fill="white"/>
<path d="M129.35 15.4004H132.87V28.5804H130.77V17.4204H129.35V15.4004Z" fill="white"/>
<path d="M360 120H110V220H360V120Z" fill="#0A2270"/>
<path d="M212.12 174.04C211.1 174.72 209.88 175.38 208.82 175.88C210.02 176.52 211.46 176.96 213.16 177.22C212.7 177.68 212.14 178.54 211.86 179.12C207.7 178.32 205.2 176.44 203.7 173.26C203 173.78 202.2 174.26 201.34 174.68V176.42C202.64 176.26 204 176.08 205.34 175.9L205.42 177.76C202.6 178.16 199.62 178.56 197.42 178.88L197.08 176.94C197.66 176.88 198.34 176.8 199.06 176.72V175.6C198 175.96 196.88 176.24 195.76 176.44C195.48 175.94 194.92 175.16 194.5 174.72C196.7 174.42 198.96 173.84 200.68 173.04H194.84V171.16H202.62V170.14H201.82C201.72 169.68 201.44 169.14 201.24 168.76C201.7 168.78 202.18 168.78 202.32 168.78C202.5 168.78 202.56 168.72 202.56 168.56V167.74H200.92V170.66H198.9V167.74H197.4V170.22H195.6V166.3H198.9V165.6H194.8V164H196.02C195.62 163.76 195.1 163.46 194.78 163.3C195.44 162.54 196 161.46 196.34 160.42L198.08 160.86C197.98 161.14 197.88 161.4 197.76 161.68H198.9V160.4H200.92V161.68H204.24V163.2H200.92V164H204.78V165.6H200.92V166.3H204.46V168.56C204.46 169.32 204.32 169.68 203.8 169.92C203.54 170.04 203.22 170.1 202.86 170.12H204.98V171.16H212.78V173.04H210.78L212.12 174.04ZM198.9 164V163.2H197C196.84 163.48 196.68 163.76 196.5 164H198.9ZM207.72 167.86H205.6V161.2H207.72V167.86ZM205.8 173.04C206.18 173.68 206.66 174.26 207.22 174.76C208.16 174.28 209.26 173.62 210.06 173.04H205.8ZM212.06 168.54C212.06 169.56 211.86 170.06 211.14 170.36C210.44 170.66 209.46 170.68 208.08 170.68C207.98 170.12 207.66 169.32 207.38 168.8C208.28 168.84 209.24 168.84 209.52 168.82C209.82 168.82 209.9 168.74 209.9 168.48V160.54H212.06V168.54Z" fill="white"/>
<path d="M216.04 170.081H223.66V178.981H221.28V178.081H218.3V179.081H216.04V170.081ZM218.3 172.361V175.801H221.28V172.361H218.3ZM230.52 168.421H218.8V161.181H230.52V168.421ZM228.1 163.461H221.1V166.161H228.1V163.461ZM233.22 170.081V179.001H230.82V178.081H227.64V179.081H225.36V170.081H233.22ZM230.82 175.801V172.361H227.64V175.801H230.82Z" fill="white"/>
<path d="M243.88 165.58H236.06V163.7H243.88V165.58ZM253.86 169.46C253.22 171.88 252.16 173.78 250.78 175.28C251.96 176.04 253.36 176.62 254.9 177C254.38 177.5 253.7 178.44 253.36 179.06C251.68 178.56 250.22 177.82 248.96 176.88C247.62 177.82 246.08 178.54 244.38 179.06C244.14 178.48 243.58 177.54 243.14 177V178.02H238.96V178.8H236.94V171.98H243.14V176.96C244.64 176.58 246 176.02 247.18 175.24C246.26 174.24 245.5 173.08 244.88 171.78L246.92 171.12H244.14V168.98H244.82C244.48 168.58 243.64 167.86 243.16 167.54V168.3H237V166.48H243.16V167.44C244.88 166.26 245.1 164.68 245.1 163.34V160.96H251.8V165.44C251.8 166 251.84 166.06 252.06 166.06H252.56C252.82 166.06 252.9 165.8 252.92 164.06C253.36 164.4 254.28 164.74 254.86 164.9C254.66 167.38 254.14 168.08 252.8 168.08H251.64C250.04 168.08 249.58 167.46 249.58 165.48V163.06H247.34V163.4C247.34 165.28 246.94 167.56 244.86 168.98H251.9L252.3 168.88L253.86 169.46ZM243.16 171H237V169.22H243.16V171ZM243.12 162.82H237.08V161.02H243.12V162.82ZM241.08 173.86H238.96V176.16H241.08V173.86ZM246.98 171.12C247.46 172.12 248.12 173.02 248.92 173.82C249.7 173.04 250.32 172.14 250.8 171.12H246.98Z" fill="white"/>
<path d="M265.04 165.58H256.86V163.7H265.04V165.58ZM264.18 178.02H259.82V178.8H257.76V171.98H264.18V178.02ZM257.82 166.48H264.24V168.3H257.82V166.48ZM257.82 169.22H264.24V171H257.82V169.22ZM264.28 162.82H257.94V161.02H264.28V162.82ZM259.82 173.86V176.16H262.1V173.86H259.82ZM275.72 169.44H271.54V179.08H269.14V169.44H264.96V167.08H269.14V160.48H271.54V167.08H275.72V169.44Z" fill="white"/>
<path opacity="0.2" d="M114 184V124H174" fill="white"/>
<path d="M127.18 148.58C128.01 147.74 128.81 146.93 129.59 146.14C130.37 145.35 131.07 144.59 131.68 143.85C132.29 143.11 132.78 142.39 133.14 141.68C133.5 140.97 133.68 140.29 133.68 139.64C133.68 139.09 133.57 138.64 133.34 138.29C133.11 137.94 132.82 137.68 132.45 137.51C132.08 137.34 131.69 137.26 131.28 137.26C130.72 137.26 130.27 137.37 129.93 137.6C129.59 137.83 129.34 138.1 129.18 138.43C129.02 138.76 128.94 139.07 128.94 139.38C128.94 140.25 129.2 140.94 129.72 141.46L128.42 142.64C128.1 142.44 127.83 142.15 127.6 141.77C127.37 141.39 127.2 140.99 127.08 140.57C126.96 140.15 126.9 139.77 126.9 139.44C126.9 138.71 127.08 138.02 127.44 137.39C127.8 136.76 128.33 136.24 129.04 135.84C129.75 135.44 130.61 135.24 131.62 135.24C132.47 135.24 133.21 135.44 133.84 135.83C134.47 136.22 134.96 136.74 135.31 137.38C135.66 138.02 135.84 138.72 135.84 139.48C135.84 140.32 135.64 141.13 135.23 141.92C134.82 142.71 134.31 143.49 133.68 144.26C133.05 145.03 132.41 145.8 131.74 146.56H136.24V148.58H127.18Z" fill="white"/>
<path d="M360 240H110V340H360V240Z" fill="#0A2270"/>
<path d="M222.5 285.58H215.26V283.7H222.5V285.58ZM222 298.02H218.06V298.8H216.1V291.98H222V298.02ZM216.16 286.48H222.04V288.3H216.16V286.48ZM216.16 289.22H222.04V291H216.16V289.22ZM221.92 282.82H216.22V281.02H221.92V282.82ZM218.06 293.86V296.16H220.02V293.86H218.06ZM228.68 294.7L228.84 296.66C226.78 297.12 224.6 297.58 222.88 297.94L222.4 295.76C223 295.68 223.7 295.56 224.46 295.44V290.54H222.78V288.5H228.22V290.54H226.66V295.06L228.68 294.7ZM230.78 286.34C230.92 292.06 231.38 296.08 232.14 296.14C232.4 296.14 232.56 295.22 232.64 293.72C233 294.24 233.94 294.9 234.3 295.14C233.78 298.4 232.78 299.1 232.04 299.08C229.56 299.02 228.82 294.3 228.58 286.34H222.8V284.18H228.52C228.5 282.98 228.48 281.74 228.48 280.42H230.76V281.42L232.36 280.6C233 281.34 233.74 282.36 234.08 283.04L232.36 284C232.06 283.32 231.38 282.26 230.76 281.48C230.74 282.4 230.74 283.3 230.76 284.18H233.72V286.34H230.78Z" fill="white"/>
<path d="M242.76 281.2C242.24 282.6 241.58 284.02 240.84 285.36V299.06H238.44V289.06C238.02 289.56 237.6 290.06 237.2 290.5C236.98 289.92 236.3 288.56 235.88 287.96C237.7 286.16 239.44 283.32 240.44 280.48L242.76 281.2ZM249.1 285.92V288.02H254.28V290.18H249.1V292.44H254.54V294.64H249.1V299.08H246.66V285.92H245.9C245.1 287.4 244.18 288.76 243.28 289.8C242.9 289.36 241.96 288.52 241.46 288.14C243.22 286.34 244.8 283.46 245.7 280.6L248 281.18C247.72 282.02 247.4 282.84 247.02 283.66H254.78V285.92H249.1Z" fill="white"/>
<path opacity="0.2" d="M114 304V244H174" fill="white"/>
<path d="M135.17 255.4L132.23 260.26C132.82 260.3 133.37 260.46 133.88 260.73C134.39 261 134.81 261.42 135.12 261.99C135.43 262.56 135.59 263.29 135.59 264.2C135.59 265.11 135.38 265.94 134.95 266.62C134.52 267.3 133.96 267.82 133.25 268.19C132.54 268.56 131.76 268.74 130.91 268.74C130.27 268.74 129.63 268.61 128.98 268.34C128.33 268.07 127.8 267.73 127.39 267.3L128.45 265.58C128.69 265.87 129.03 266.14 129.47 266.37C129.91 266.6 130.38 266.72 130.87 266.72C131.56 266.72 132.16 266.48 132.67 266.01C133.18 265.54 133.43 264.89 133.43 264.08C133.43 263.35 133.22 262.77 132.79 262.34C132.36 261.91 131.78 261.7 131.03 261.7C130.64 261.7 130.32 261.73 130.07 261.78C129.82 261.83 129.58 261.9 129.37 261.98L129.29 261.9L132.11 257.42H128.21V255.4H135.17Z" fill="white"/>
<path d="M360 360H110V460H360V360Z" fill="#0A2270"/>
<path d="M176.08 405.58H168.26V403.7H176.08V405.58ZM175.34 418.02H171.16V418.8H169.14V411.98H175.34V418.02ZM169.2 406.48H175.36V408.3H169.2V406.48ZM169.2 409.22H175.36V411H169.2V409.22ZM175.32 402.82H169.28V401.02H175.32V402.82ZM171.16 413.86V416.16H173.28V413.86H171.16ZM186.95 412.28H182.53V419.06H180.19V412.28H175.77V410.02H180.19V403.6H176.47V401.38H186.59V403.6H182.53V410.02H186.95V412.28ZM178.54 404.42C178.98 405.9 179.36 407.78 179.44 409.02L177.44 409.5C177.38 408.24 177.04 406.32 176.62 404.82L178.54 404.42ZM183.12 409C183.56 407.72 184.02 405.7 184.22 404.26L186.48 404.7C185.98 406.38 185.44 408.26 184.94 409.46L183.12 409Z" fill="white"/>
<path d="M195.18 401.12C194.68 402.44 194.06 403.78 193.38 405.06V419.06H191.14V408.62C190.74 409.16 190.34 409.66 189.92 410.1C189.7 409.54 189.08 408.28 188.7 407.7C190.42 405.96 192.06 403.2 193.04 400.44L195.18 401.12ZM203.96 404.48V406.98H207.34V418.52H205.06V417.5H197.14V418.64H194.94V406.98H198.16V404.48H194.74V402.36H207.44V404.48H203.96ZM197.14 415.46H198.38V409.04H197.14V415.46ZM200.38 409.04V415.46H201.72V409.04H200.38ZM201.72 404.48H200.4V406.98H201.72V404.48ZM205.06 409.04H203.72V415.46H205.06V409.04Z" fill="white"/>
<path d="M214.2 407.181C215.6 407.181 216.76 408.341 216.76 409.741C216.76 411.141 215.6 412.301 214.2 412.301C212.8 412.301 211.64 411.141 211.64 409.741C211.64 408.341 212.8 407.181 214.2 407.181Z" fill="white"/>
<path d="M239.32 418.3H231.7V419.08H229.46V410.36C229.32 410.46 229.18 410.58 229.04 410.68C228.8 410.38 228.3 409.78 227.86 409.32V416.68H224.24V418.24H222.32V413.18C222.1 413.56 221.86 413.94 221.6 414.28C221.38 413.74 220.76 412.54 220.34 412.02C221.74 410.02 222.5 407 222.96 403.74H221.02V401.58H228.18V402.26H232.24C232.44 401.66 232.62 401.04 232.76 400.4L235 400.8C234.88 401.3 234.74 401.78 234.6 402.26H239.22V405.9H237.12V404.26H233.86C233.5 405.16 233.06 405.98 232.6 406.76H234.2C234.48 406.08 234.76 405.34 234.9 404.74L237.06 405.2C236.82 405.74 236.56 406.26 236.3 406.76H238.86V408.72H235.84V410.06H238.42V411.8H235.84V413.22H238.42V414.94H235.84V416.36H239.32V418.3ZM225.86 409.48H224.24V414.62H225.86V409.48ZM227.86 408.6C229.34 407.5 230.54 406.02 231.42 404.26H230.02V405.9H228V403.74H225.18C225 405 224.76 406.24 224.48 407.44H227.86V408.6ZM233.66 408.72H231.7V410.06H233.66V408.72ZM233.66 411.8H231.7V413.22H233.66V411.8ZM231.7 416.36H233.66V414.94H231.7V416.36Z" fill="white"/>
<path d="M248.72 405.58H241.46V403.7H248.72V405.58ZM248.2 416.8C248.94 415.8 249.3 414.22 249.48 412.68L251.36 413.16C251.16 414.94 250.8 416.84 249.82 418.02L248.2 417.04V418.02H244.26V418.8H242.3V411.98H248.2V416.8ZM248.18 408.3H242.36V406.48H248.18V408.3ZM242.36 409.22H248.18V411H242.36V409.22ZM248.12 402.82H242.42V401.02H248.12V402.82ZM246.22 413.86H244.26V416.16H246.22V413.86ZM250.42 403.76C251.02 403.94 251.66 404.18 252.3 404.42C252.42 404 252.52 403.58 252.6 403.16H249.6V401.18H259.52C259.52 401.18 259.52 401.78 259.5 402.06C259.3 406.58 259.1 408.44 258.56 409.08C258.18 409.58 257.8 409.76 257.24 409.84C256.76 409.92 255.94 409.94 255.08 409.92C255.04 409.28 254.82 408.4 254.52 407.84C254.18 407.62 253.82 407.4 253.42 407.18C252.7 408.46 251.62 409.58 249.98 410.44C249.74 409.92 249.12 409.14 248.64 408.76C250.02 408.1 250.92 407.22 251.52 406.24C250.78 405.92 250.02 405.62 249.32 405.4L250.42 403.76ZM255.16 416.88C255.54 416.88 255.62 416.62 255.68 414.78C256.08 415.14 257.02 415.48 257.62 415.64C257.4 418.26 256.82 418.92 255.4 418.92H253.76C251.88 418.92 251.5 418.26 251.5 416.28V411.9H253.7V416.26C253.7 416.8 253.74 416.88 254.1 416.88H255.16ZM253.32 409.14C254.6 409.8 256.14 410.82 256.9 411.68L255.42 413.2C254.74 412.38 253.22 411.26 251.94 410.52L253.32 409.14ZM254.74 403.16C254.62 403.88 254.46 404.6 254.24 405.3C254.94 405.64 255.58 405.98 256.06 406.3L255.1 407.84C255.52 407.86 255.86 407.86 256.06 407.86C256.34 407.88 256.52 407.82 256.66 407.6C256.94 407.3 257.1 406.12 257.24 403.16H254.74ZM258.26 412.22C259.32 413.74 260.16 415.78 260.44 417.16L258.34 418.02C258.14 416.64 257.32 414.52 256.34 412.98L258.26 412.22Z" fill="white"/>
<path d="M269.5 405.58H262.26V403.7H269.5V405.58ZM269 418.02H265.06V418.8H263.1V411.98H269V418.02ZM263.16 406.48H269.04V408.3H263.16V406.48ZM263.16 409.22H269.04V411H263.16V409.22ZM268.92 402.82H263.22V401.02H268.92V402.82ZM265.06 413.86V416.16H267.02V413.86H265.06ZM275.68 414.7L275.84 416.66C273.78 417.12 271.6 417.58 269.88 417.94L269.4 415.76C270 415.68 270.7 415.56 271.46 415.44V410.54H269.78V408.5H275.22V410.54H273.66V415.06L275.68 414.7ZM277.78 406.34C277.92 412.06 278.38 416.08 279.14 416.14C279.4 416.14 279.56 415.22 279.64 413.72C280 414.24 280.94 414.9 281.3 415.14C280.78 418.4 279.78 419.1 279.04 419.08C276.56 419.02 275.82 414.3 275.58 406.34H269.8V404.18H275.52C275.5 402.98 275.48 401.74 275.48 400.42H277.76V401.42L279.36 400.6C280 401.34 280.74 402.36 281.08 403.04L279.36 404C279.06 403.32 278.38 402.26 277.76 401.48C277.74 402.4 277.74 403.3 277.76 404.18H280.72V406.34H277.78Z" fill="white"/>
<path d="M282.84 417.3C283.52 416.28 283.76 414.6 283.84 412.9L285.16 413.16C285.06 414.98 284.86 416.84 284.04 417.96L282.84 417.3ZM298.22 413.5C299.02 415.12 300.28 416.46 301.96 417.18C301.48 417.62 300.8 418.46 300.46 419.06C298.8 418.2 297.58 416.7 296.72 414.84C296 416.46 294.66 417.96 292.28 419.12C292.04 418.72 291.54 418.12 291.12 417.72C291.04 417.98 290.96 418.16 290.86 418.28C290.52 418.74 290.16 418.92 289.66 418.98C289.26 419.06 288.62 419.08 287.9 419.04C287.88 418.48 287.7 417.7 287.42 417.2C287.94 417.26 288.38 417.28 288.64 417.28C288.88 417.28 289.02 417.22 289.18 417.02C289.32 416.82 289.42 416.32 289.52 415.28L288.88 415.52C288.76 414.82 288.36 413.74 287.98 412.94L288.92 412.62C289.18 413.12 289.42 413.7 289.6 414.24C289.64 413.64 289.68 412.9 289.72 412.04H284V401.14H291.36V403.06H289.22V404.16H290.96V405.22C292.76 404.14 294.5 402.08 295.32 400.42H297.36C298.56 402.26 300.3 404.08 302.06 404.92C301.64 405.48 301.18 406.34 300.88 406.96C300.44 406.7 300 406.4 299.58 406.04V407.14H297.58V408.22H301.16V413.5H298.22ZM286.36 413.22C286.54 414.38 286.62 415.92 286.56 416.88L285.48 417.02C285.54 416.02 285.48 414.5 285.34 413.32L286.36 413.22ZM285.96 403.06V404.16H287.32V403.06H285.96ZM285.96 405.96V407.16H287.32V405.96H285.96ZM285.96 410.2H287.32V408.96H285.96V410.2ZM287.7 413.02C288.02 414.06 288.3 415.38 288.36 416.24L287.32 416.46C287.28 415.6 287.02 414.26 286.7 413.22L287.7 413.02ZM291.74 410.2C291.74 410.2 291.74 410.72 291.72 410.98C291.58 414.28 291.46 416.2 291.24 417.26C293.3 416.22 294.38 414.9 294.92 413.5H292.08V408.22H295.48V407.14H293.44V406.06C292.94 406.48 292.44 406.88 291.9 407.2C291.68 406.68 291.3 405.98 290.96 405.48V405.96H289.22V407.16H290.96V408.96H289.22V410.2H291.74ZM295.36 411.78C295.46 411.18 295.48 410.58 295.48 410V409.94H294.02V411.78H295.36ZM298.76 405.32C297.82 404.44 296.98 403.4 296.42 402.48C295.9 403.38 295.12 404.4 294.22 405.32H298.76ZM297.58 409.94V410.02C297.58 410.6 297.56 411.18 297.5 411.78H299.14V409.94H297.58Z" fill="white"/>
<path opacity="0.2" d="M114 424V364H174" fill="white"/>
<path d="M126.47 385.44V385.42L134.57 375.24H134.59V383.84H136.29V385.44H134.59V388.58H132.49V385.44H126.47ZM132.49 380.1L129.61 383.84H132.49V380.1Z" fill="white"/>
<path d="M360 480H110V580H360V480Z" fill="#0A2270"/>
<path d="M192.04 536.18V538.52H174.06V536.18H181.78V532.16H176.36V529.86H181.78V526.34H177.64C177.06 527.44 176.44 528.46 175.78 529.24C175.3 528.86 174.24 528.14 173.64 527.82C175.2 526.14 176.5 523.38 177.18 520.66L179.64 521.2C179.36 522.16 179.04 523.1 178.7 524.02H181.78V520.42H184.28V524.02H191.02V526.34H184.28V529.86H190.26V532.16H184.28V536.18H192.04Z" fill="white"/>
<path d="M212.84 526V528.04H198.34V529.24C198.34 532.04 197.98 536.28 196.1 539.02C195.74 538.6 194.74 537.78 194.26 537.52C195.9 535.08 196.06 531.6 196.06 529.22V526H199.68C199.52 525.38 199.24 524.62 198.92 524L199.36 523.88H195.9V521.86H202.66V520.4H205.04V521.86H211.86V523.88H209.38C208.92 524.64 208.48 525.4 208.1 526H212.84ZM206.78 536.72H212.72V538.68H198.7V536.72H204.44V534.96H200.26V533.16L200.12 533.3C199.68 532.94 198.78 532.4 198.24 532.16C199.34 531.2 200.26 529.72 200.76 528.26L202.86 528.74C202.74 529.1 202.58 529.46 202.42 529.82H204.44V528.34H206.78V529.82H211.64V531.64H206.78V533.14H211.06V534.96H206.78V536.72ZM204.44 533.14V531.64H201.42C201.06 532.2 200.66 532.72 200.28 533.14H204.44ZM201.34 523.88C201.68 524.54 201.96 525.3 202.08 525.84L201.48 526H206.18L205.82 525.9C206.08 525.32 206.34 524.56 206.54 523.88H201.34Z" fill="white"/>
<path d="M233.74 535.3V537.7H215.56V535.3H223.18V524.96H216.64V522.48H232.62V524.96H225.9V535.3H233.74Z" fill="white"/>
<path d="M242.64 533.281C242.4 532.761 241.92 531.981 241.44 531.261V539.061H239.14V531.881C238.5 533.421 237.74 534.841 236.96 535.841C236.74 535.161 236.24 534.181 235.86 533.581C236.98 532.281 238.08 530.161 238.82 528.221H236.28V526.001H239.14V523.681C238.3 523.841 237.48 523.981 236.7 524.081C236.58 523.541 236.3 522.741 236.04 522.261C238.24 521.881 240.7 521.301 242.24 520.601L243.82 522.421C243.1 522.701 242.3 522.961 241.44 523.181V526.001H243.58V528.221H241.44V528.801C241.98 529.241 243.62 530.981 244 531.421L242.64 533.281ZM254.72 536.561V538.641H243.16V536.561H247.92V534.801H244.42V532.801H247.92V531.141H243.94V529.101H254.3V531.141H250.28V532.801H253.82V534.801H250.28V536.561H254.72ZM253.76 527.901H244.58V521.141H253.76V527.901ZM251.44 523.141H246.78V525.901H251.44V523.141Z" fill="white"/>
<path d="M264.68 525.58H256.86V523.7H264.68V525.58ZM274.66 529.46C274.02 531.88 272.96 533.78 271.58 535.28C272.76 536.04 274.16 536.62 275.7 537C275.18 537.5 274.5 538.44 274.16 539.06C272.48 538.56 271.02 537.82 269.76 536.88C268.42 537.82 266.88 538.54 265.18 539.06C264.94 538.48 264.38 537.54 263.94 537V538.02H259.76V538.8H257.74V531.98H263.94V536.96C265.44 536.58 266.8 536.02 267.98 535.24C267.06 534.24 266.3 533.08 265.68 531.78L267.72 531.12H264.94V528.98H265.62C265.28 528.58 264.44 527.86 263.96 527.54V528.3H257.8V526.48H263.96V527.44C265.68 526.26 265.9 524.68 265.9 523.34V520.96H272.6V525.44C272.6 526 272.64 526.06 272.86 526.06H273.36C273.62 526.06 273.7 525.8 273.72 524.06C274.16 524.4 275.08 524.74 275.66 524.9C275.46 527.38 274.94 528.08 273.6 528.08H272.44C270.84 528.08 270.38 527.46 270.38 525.48V523.06H268.14V523.4C268.14 525.28 267.74 527.56 265.66 528.98H272.7L273.1 528.88L274.66 529.46ZM263.96 531H257.8V529.22H263.96V531ZM263.92 522.82H257.88V521.02H263.92V522.82ZM261.88 533.86H259.76V536.16H261.88V533.86ZM267.78 531.12C268.26 532.12 268.92 533.02 269.72 533.82C270.5 533.04 271.12 532.14 271.6 531.12H267.78Z" fill="white"/>
<path d="M285.84 525.58H277.66V523.7H285.84V525.58ZM284.98 538.02H280.62V538.8H278.56V531.98H284.98V538.02ZM278.62 526.48H285.04V528.3H278.62V526.48ZM278.62 529.22H285.04V531H278.62V529.22ZM285.08 522.82H278.74V521.02H285.08V522.82ZM280.62 533.86V536.16H282.9V533.86H280.62ZM296.52 529.44H292.34V539.08H289.94V529.44H285.76V527.08H289.94V520.48H292.34V527.08H296.52V529.44Z" fill="white"/>
<path opacity="0.2" d="M114 544V484H174" fill="white"/>
<path d="M131.27 508.74C130.56 508.74 129.88 508.61 129.21 508.34C128.54 508.07 128.01 507.75 127.61 507.36L128.71 505.72C128.98 506.01 129.33 506.26 129.78 506.45C130.23 506.64 130.67 506.74 131.11 506.74C131.8 506.74 132.37 506.52 132.82 506.07C133.27 505.62 133.49 505.04 133.49 504.32C133.49 503.56 133.28 502.93 132.86 502.43C132.44 501.93 131.82 501.68 130.99 501.68C130.54 501.68 130.11 501.74 129.72 501.87C129.33 502 128.91 502.19 128.47 502.44H128.45V495.4H134.79V497.42H130.27V500.06C130.67 499.97 131.08 499.92 131.49 499.92C132.4 499.92 133.16 500.12 133.78 500.52C134.4 500.92 134.87 501.45 135.18 502.1C135.49 502.75 135.65 503.47 135.65 504.26C135.65 505.1 135.46 505.86 135.08 506.54C134.7 507.22 134.18 507.76 133.52 508.15C132.86 508.54 132.11 508.74 131.27 508.74Z" fill="white"/>
<path d="M360 600H110V700H360V600Z" fill="#E6E6E6"/>
<path d="M233.64 656.18V658.52H215.66V656.18H223.38V652.16H217.96V649.86H223.38V646.34H219.24C218.66 647.44 218.04 648.46 217.38 649.24C216.9 648.86 215.84 648.14 215.24 647.82C216.8 646.14 218.1 643.38 218.78 640.66L221.24 641.2C220.96 642.16 220.64 643.1 220.3 644.02H223.38V640.42H225.88V644.02H232.62V646.34H225.88V649.86H231.86V652.16H225.88V656.18H233.64Z" fill="black"/>
<path d="M254.44 646V648.04H239.94V649.24C239.94 652.04 239.58 656.28 237.7 659.02C237.34 658.6 236.34 657.78 235.86 657.52C237.5 655.08 237.66 651.6 237.66 649.22V646H241.28C241.12 645.38 240.84 644.62 240.52 644L240.96 643.88H237.5V641.86H244.26V640.4H246.64V641.86H253.46V643.88H250.98C250.52 644.64 250.08 645.4 249.7 646H254.44ZM248.38 656.72H254.32V658.68H240.3V656.72H246.04V654.96H241.86V653.16L241.72 653.3C241.28 652.94 240.38 652.4 239.84 652.16C240.94 651.2 241.86 649.72 242.36 648.26L244.46 648.74C244.34 649.1 244.18 649.46 244.02 649.82H246.04V648.34H248.38V649.82H253.24V651.64H248.38V653.14H252.66V654.96H248.38V656.72ZM246.04 653.14V651.64H243.02C242.66 652.2 242.26 652.72 241.88 653.14H246.04ZM242.94 643.88C243.28 644.54 243.56 645.3 243.68 645.84L243.08 646H247.78L247.42 645.9C247.68 645.32 247.94 644.56 248.14 643.88H242.94Z" fill="black"/>
<path opacity="0.6" d="M114 664V604H174" fill="white"/>
<path d="M131.65 628.74C130.76 628.74 129.95 628.53 129.22 628.1C128.49 627.67 127.92 627.06 127.49 626.27C127.06 625.48 126.85 624.53 126.85 623.42C126.85 622.57 127.02 621.75 127.35 620.98C127.68 620.21 128.13 619.48 128.7 618.8C129.27 618.12 129.91 617.48 130.63 616.89C131.35 616.3 132.1 615.75 132.87 615.26L134.27 616.78C133.04 617.37 132.05 618.05 131.29 618.82C130.53 619.59 129.98 620.36 129.63 621.12C129.96 620.79 130.35 620.53 130.8 620.36C131.25 620.19 131.76 620.1 132.35 620.1C133.03 620.1 133.67 620.28 134.27 620.64C134.87 621 135.36 621.5 135.73 622.13C136.1 622.76 136.29 623.49 136.29 624.3C136.29 625.21 136.07 625.99 135.63 626.66C135.19 627.33 134.62 627.84 133.92 628.2C133.22 628.56 132.46 628.74 131.65 628.74ZM131.57 626.86C132.28 626.86 132.88 626.63 133.38 626.17C133.88 625.71 134.13 625.09 134.13 624.32C134.13 623.55 133.88 622.98 133.38 622.53C132.88 622.08 132.28 621.86 131.57 621.86C131.09 621.86 130.66 621.96 130.27 622.15C129.88 622.34 129.58 622.61 129.35 622.94C129.12 623.27 129.01 623.64 129.01 624.04V624.42C129.01 624.85 129.12 625.25 129.35 625.62C129.58 625.99 129.88 626.29 130.27 626.52C130.66 626.75 131.09 626.86 131.57 626.86Z" fill="black"/>
<path d="M360 720H110V820H360V720Z" fill="#E6E6E6"/>
<path d="M225.78 765.24V767.34H232.08V774.1C232.08 775.24 231.84 775.92 231.02 776.28C230.18 776.64 229.04 776.68 227.48 776.68C227.38 776 227.02 774.98 226.68 774.34C227.68 774.38 228.86 774.38 229.18 774.38C229.5 774.38 229.6 774.28 229.6 774.06V769.66H225.78V779.1H223.3V769.66H219.8V776.68H217.4V767.34H223.3V765.24H215.52V762.92H223.28V760.32H225.82V762.92H233.76V765.24H225.78Z" fill="black"/>
<path d="M246.78 770.421C246.62 770.741 246.42 771.061 246.22 771.381H254.34C254.34 771.381 254.32 771.921 254.3 772.201C254.02 776.101 253.7 777.701 253.16 778.281C252.78 778.741 252.34 778.901 251.84 778.961C251.38 779.021 250.62 779.041 249.82 779.001C249.78 778.441 249.58 777.641 249.28 777.141C249.92 777.201 250.44 777.201 250.7 777.201C250.98 777.201 251.14 777.161 251.3 776.981C251.58 776.681 251.82 775.661 252.04 773.241H251.26C250.44 775.481 248.88 777.901 247.26 779.161C246.86 778.701 246.18 778.161 245.58 777.841C247.1 776.881 248.44 775.101 249.3 773.241H248.12C247.04 775.161 245.18 777.161 243.44 778.261C243.06 777.801 242.44 777.201 241.88 776.861C243.36 776.121 244.9 774.721 245.96 773.241H244.76C244.04 774.001 243.26 774.681 242.44 775.201C242.14 774.821 241.38 774.121 240.88 773.801C239.44 774.521 238 775.241 236.78 775.841L235.9 773.441C236.58 773.181 237.42 772.841 238.36 772.461V766.821H236.36V764.581H238.36V760.641H240.56V764.581H242.44V766.821H240.56V771.541L242.16 770.841L242.58 772.541C243.3 771.921 243.92 771.201 244.42 770.421H242.16V768.421H254.74V770.421H246.78ZM253.38 767.661H243.92V760.901H253.38V767.661ZM251.18 762.541H246.02V763.501H251.18V762.541ZM251.18 765.061H246.02V766.021H251.18V765.061Z" fill="black"/>
<path opacity="0.6" d="M114 784V724H174" fill="white"/>
<path d="M136.01 735.4L130.79 748.58H128.43L132.95 737.42H127.33V735.4H136.01Z" fill="black"/>
</g>
<defs>
<clipPath id="clip0_1425_3229">
<rect width="360" height="820" fill="white"/>
</clipPath>
</defs>
</svg>
