<svg width="1620" height="450" viewBox="0 0 1620 450" fill="none" xmlns="http://www.w3.org/2000/svg">
<g clip-path="url(#clip0_1116_2732)">
<path d="M1620 300.475H0V314.715H1620V300.475Z" fill="black"/>
<path d="M1620 165.19H1432.42V450H1620V165.19Z" fill="#E6E6E6"/>
<path d="M1381.26 165.19H1193.68V450H1381.26V165.19Z" fill="#E6E6E6"/>
<path d="M1142.53 165.19H954.947V450H1142.53V165.19Z" fill="#0A2270"/>
<path d="M903.789 165.19H716.21V450H903.789V165.19Z" fill="#0A2270"/>
<path d="M665.053 165.19H477.474V450H665.053V165.19Z" fill="#0A2270"/>
<path d="M426.316 165.19H238.737V450H426.316V165.19Z" fill="#0A2270"/>
<path d="M187.579 165.19H0V450H187.579V165.19Z" fill="#0A2270"/>
<path d="M1139.68 2.84814H2.84229V111.076H1139.68V2.84814Z" fill="white"/>
<path d="M1136.84 5.6962V108.228H5.68421V5.6962H1136.84ZM1142.53 0H0V113.924H1142.53V0Z" fill="#0A2270"/>
<path d="M268.337 47.7484C267.996 48.1614 267.4 48.9019 267.115 49.3719C265.652 51.8212 262.682 55.7659 259.584 57.9589L256.358 55.3529C258.859 53.8149 261.303 51.0665 262.113 49.5285H245.828C244.521 49.5285 243.483 49.6282 242.02 49.7421V45.3845C243.213 45.5696 244.521 45.6978 245.828 45.6978H262.682C263.563 45.6978 265.282 45.5981 265.836 45.413L268.337 47.7342V47.7484ZM255.576 51.9779C255.576 59.7532 255.42 66.1472 246.88 70.7184L243.256 67.7421C244.251 67.4003 245.387 66.8592 246.538 66.019C250.503 63.2564 251.256 59.9383 251.256 54.7975C251.256 53.8291 251.2 52.9747 251.043 51.9779H255.576Z" fill="#0A2270"/>
<path d="M286.882 66.2327C286.882 67.614 286.939 69.5507 287.166 70.3339H282.221C282.349 69.5792 282.434 67.614 282.434 66.2327V55.951C279.208 57.5744 275.301 59.2121 271.677 60.2089L269.432 56.3925C274.903 55.1963 280.161 52.8893 283.656 50.7247C286.811 48.7453 290.065 45.9684 291.813 43.6472L295.153 46.6804C292.78 49.0586 289.966 51.4083 286.868 53.4162V66.2327H286.882Z" fill="#0A2270"/>
<path d="M309.108 55.7089L306.82 59.2121C305.043 57.9874 301.818 55.8656 299.686 54.769L301.974 51.2944C304.063 52.4194 307.502 54.5839 309.108 55.7089ZM311.637 62.8861C316.952 59.9099 321.3 55.6235 323.801 51.1377L326.203 55.3956C323.29 59.7247 318.884 63.6978 313.754 66.6456C310.571 68.4684 306.095 70.0349 303.31 70.5333L300.965 66.4035C304.461 65.8054 308.212 64.7374 311.623 62.9004L311.637 62.8861ZM313.925 48.6314L311.58 52.1061C309.832 50.8814 306.578 48.7596 304.518 47.5918L306.806 44.1456C308.866 45.2991 312.305 47.4922 313.939 48.6314H313.925Z" fill="#0A2270"/>
<path d="M342.119 61.9178C347.433 58.7564 351.526 53.9574 353.501 49.7279L355.945 54.1425C353.572 58.3719 349.409 62.701 344.378 65.7343C341.223 67.6425 337.188 69.3941 332.782 70.1488L330.153 66.0191C335.028 65.3355 339.092 63.7264 342.133 61.9178H342.119ZM342.119 51.7643L338.935 55.0539C337.315 53.3023 333.408 49.8846 331.12 48.2897L334.061 45.1567C336.25 46.6235 340.314 49.8846 342.133 51.7643H342.119Z" fill="#0A2270"/>
<path d="M365.566 53.0459C367.754 53.0459 369.573 54.8687 369.573 57.0617C369.573 59.2548 367.754 61.0775 365.566 61.0775C363.378 61.0775 361.559 59.2548 361.559 57.0617C361.559 54.8687 363.378 53.0459 365.566 53.0459Z" fill="#0A2270"/>
<path d="M399.458 53.5159C400.111 53.5159 401.49 53.4589 402.3 53.3307V57.4035C401.518 57.3466 400.325 57.3038 399.458 57.3038H391.926C391.741 60.5364 391.045 63.1567 389.922 65.3497C388.828 67.5143 386.427 69.9494 383.641 71.3592L379.989 68.6963C382.206 67.8561 384.395 66.0618 385.645 64.2105C386.924 62.2738 387.464 59.9241 387.578 57.2896H378.98C378.071 57.2896 376.849 57.3466 375.982 57.4178V53.3165C376.92 53.4447 378.014 53.5016 378.98 53.5016H399.458V53.5159ZM382.945 49.258C381.879 49.258 380.544 49.2864 379.606 49.3576V45.3133C380.6 45.47 381.894 45.5697 382.945 45.5697H393.177C394.242 45.5697 395.493 45.47 396.559 45.3133V49.3576C395.493 49.3007 394.271 49.258 393.177 49.258H382.945ZM398.392 48.5317C397.738 47.2501 396.772 45.3988 395.919 44.1741L398.42 43.1345C399.202 44.288 400.296 46.2675 400.893 47.4209L398.392 48.5175V48.5317ZM402.144 47.0934C401.49 45.7833 400.481 43.9605 399.642 42.7643L402.115 41.7247C402.925 42.9209 404.09 44.8861 404.616 45.9826L402.144 47.0792V47.0934Z" fill="#0A2270"/>
<path d="M416.809 55.8656L414.521 59.3688C412.745 58.1156 409.49 56.0222 407.387 54.883L409.632 51.4368C411.764 52.5618 415.203 54.7264 416.795 55.8514L416.809 55.8656ZM419.31 63.0143C424.625 60.0381 429.001 55.7517 431.474 51.2659L433.876 55.5238C431.005 59.8814 426.557 63.826 421.456 66.8023C418.272 68.5824 413.768 70.1488 411.011 70.6615L408.666 66.5602C412.162 65.9621 415.914 64.8941 419.296 63.0143H419.31ZM421.598 48.7881L419.281 52.2343C417.534 51.0096 414.279 48.9162 412.219 47.7485L414.464 44.3023C416.525 45.4273 419.964 47.6488 421.598 48.7881ZM430.906 49.7564L428.191 50.9099C427.282 48.9305 426.571 47.5919 425.435 45.9969L428.035 44.9004C428.945 46.2105 430.195 48.3181 430.906 49.7564ZM435.282 48.0618L432.625 49.258C431.63 47.2786 430.849 46.0681 429.684 44.5017L432.341 43.4052C433.307 44.6583 434.529 46.6947 435.282 48.076V48.0618Z" fill="#0A2270"/>
<path d="M463.775 48.9732C463.434 49.5713 463.022 50.4115 462.737 51.1947C461.927 53.6013 460.492 56.777 458.417 59.7817C459.568 60.508 460.634 61.22 461.416 61.7896L458.574 65.4494C457.821 64.7944 456.826 64.0396 455.66 63.2279C452.875 66.2612 449.195 69.0808 444.122 71.0317L440.498 67.8703C446.026 66.1757 449.564 63.5127 452.165 60.8498C450.033 59.4684 447.916 58.1868 446.324 57.2754L448.982 54.2991C450.644 55.1393 452.762 56.3355 454.865 57.5887C456.399 55.3672 457.65 52.7896 458.119 50.9099H449.152C446.964 53.8292 444.051 56.8339 440.896 58.9985L437.514 56.3925C443.013 53.0032 445.926 48.7169 447.489 45.9827C447.958 45.2279 448.612 43.7896 448.896 42.6931L453.429 44.1029C452.676 45.1994 451.866 46.6377 451.497 47.2928L451.468 47.3213H457.877C458.844 47.3213 459.909 47.1931 460.592 46.9795L463.775 48.9589V48.9732Z" fill="#0A2270"/>
<path d="M467.143 67.7991C469.899 65.8624 471.576 62.9716 472.457 60.3086C473.338 57.6172 473.367 51.6931 473.367 47.9051C473.367 46.652 473.267 45.8118 473.083 45.057H477.673C477.644 45.1852 477.459 46.595 477.459 47.8767C477.459 51.5792 477.36 58.1868 476.521 61.3482C475.584 64.8941 473.651 67.9558 470.951 70.3339L467.143 67.7991ZM481.623 68.2691C481.751 67.671 481.879 66.8023 481.879 65.9479V47.6773C481.879 46.2675 481.666 45.0713 481.623 44.9858H486.284C486.256 45.0855 486.071 46.296 486.071 47.7058V64.0966C488.6 63.0001 491.698 60.5222 493.801 57.489L496.203 60.9352C493.603 64.3244 489.098 67.6994 485.602 69.4937C484.948 69.8355 484.636 70.1203 484.224 70.4336L481.623 68.2691Z" fill="#0A2270"/>
<path d="M523.487 64.0396C524.61 64.0396 525.619 63.9114 526.4 63.7833V68.326C525.519 68.1978 524.212 68.1693 523.487 68.1693H502.882C501.944 68.1693 500.85 68.1978 499.812 68.326V63.7833C500.779 63.9684 501.901 64.0396 502.882 64.0396H510.826V51.2516H504.786C503.948 51.2516 502.598 51.3086 501.816 51.3798V47.0934C502.626 47.2215 503.905 47.2785 504.786 47.2785H521.796C522.734 47.2785 523.828 47.1788 524.738 47.0934V51.3798C523.8 51.3228 522.706 51.2516 521.796 51.2516H515.202V64.0396H523.487Z" fill="#0A2270"/>
<path d="M543.553 61.9178C548.867 58.7564 552.96 53.9574 554.935 49.7279L557.38 54.1425C555.006 58.3719 550.843 62.701 545.812 65.7343C542.657 67.6425 538.622 69.3941 534.216 70.1488L531.587 66.0191C536.462 65.3355 540.526 63.7264 543.567 61.9178H543.553ZM543.553 51.7643L540.37 55.0539C538.75 53.3023 534.842 49.8846 532.554 48.2897L535.495 45.1567C537.684 46.6235 541.748 49.8846 543.567 51.7643H543.553Z" fill="#0A2270"/>
<path d="M570.652 55.8656L568.364 59.3688C566.588 58.1156 563.334 56.0222 561.23 54.883L563.476 51.4368C565.607 52.5618 569.046 54.7264 570.638 55.8514L570.652 55.8656ZM573.153 63.0143C578.468 60.0381 582.845 55.7517 585.317 51.2659L587.719 55.5238C584.848 59.8814 580.4 63.826 575.299 66.8023C572.116 68.5824 567.611 70.1488 564.854 70.6615L562.509 66.5602C566.005 65.9621 569.757 64.8941 573.139 63.0143H573.153ZM575.441 48.7881L573.125 52.2343C571.377 51.0096 568.123 48.9162 566.062 47.7485L568.307 44.3023C570.368 45.4273 573.807 47.6488 575.441 48.7881ZM584.763 49.7564L582.049 50.9099C581.139 48.9305 580.429 47.5919 579.292 45.9969L581.893 44.9004C582.802 46.2105 584.053 48.3181 584.763 49.7564ZM589.14 48.0618L586.483 49.258C585.488 47.2786 584.706 46.0681 583.541 44.5017L586.198 43.4052C587.165 44.6583 588.387 46.6947 589.14 48.076V48.0618Z" fill="#0A2270"/>
<path d="M593.659 63.0143C594.881 63.114 596.345 63.2279 597.567 63.2279H615.515C616.581 63.2279 617.888 63.1282 618.954 63.0143V67.8134C617.86 67.6852 616.453 67.6282 615.515 67.6282H597.567C596.345 67.6282 594.81 67.7279 593.659 67.8134V63.0143ZM596.288 47.6915C597.411 47.8197 598.889 47.8767 599.94 47.8767H612.886C614.137 47.8767 615.487 47.777 616.353 47.6915V52.2342C615.444 52.2058 613.98 52.1061 612.886 52.1061H599.969C598.775 52.1061 597.34 52.163 596.274 52.2342V47.6915H596.288Z" fill="#0A2270"/>
<path d="M651.667 47.7484C651.325 48.1614 650.729 48.9019 650.444 49.3719C648.981 51.8212 646.011 55.7659 642.913 57.9589L639.687 55.3529C642.188 53.8149 644.632 51.0665 645.442 49.5285H629.157C627.85 49.5285 626.812 49.6282 625.349 49.7421V45.3845C626.542 45.5696 627.85 45.6978 629.157 45.6978H646.011C646.892 45.6978 648.611 45.5981 649.165 45.413L651.667 47.7342V47.7484ZM638.905 51.9779C638.905 59.7532 638.749 66.1472 630.209 70.7184L626.585 67.7421C627.58 67.4003 628.717 66.8592 629.868 66.019C633.832 63.2564 634.585 59.9383 634.585 54.7975C634.585 53.8291 634.529 52.9747 634.372 51.9779H638.905Z" fill="#0A2270"/>
<path d="M662.139 44.9289C662.083 45.6124 662.04 46.3102 662.04 47.307V57.902C662.04 58.6852 662.068 59.9099 662.139 60.6219H657.507C657.535 60.0238 657.663 58.7991 657.663 57.8592V47.2928C657.663 46.6947 657.635 45.5982 657.535 44.9146H662.125L662.139 44.9289ZM676.549 44.644C676.492 45.527 676.421 46.5238 676.421 47.777V53.9858C676.421 60.7216 675.114 63.5982 672.797 66.1757C670.737 68.4684 667.483 69.9921 665.195 70.7184L661.912 67.2722C665.038 66.5459 667.667 65.364 669.572 63.3276C671.703 60.9779 672.101 58.6282 672.101 53.7437V47.7912C672.101 46.538 672.044 45.5412 671.916 44.6583H676.549V44.644Z" fill="#0A2270"/>
<path d="M695.591 61.9178C700.906 58.7564 704.999 53.9574 706.974 49.7279L709.418 54.1425C707.045 58.3719 702.881 62.701 697.851 65.7343C694.696 67.6425 690.66 69.3941 686.255 70.1488L683.626 66.0191C688.5 65.3355 692.564 63.7264 695.605 61.9178H695.591ZM695.591 51.7643L692.408 55.0539C690.788 53.3023 686.88 49.8846 684.592 48.2897L687.534 45.1567C689.722 46.6235 693.786 49.8846 695.605 51.7643H695.591Z" fill="#0A2270"/>
<path d="M735.608 48.5602L738.265 50.1836C737.924 50.7817 737.484 51.6504 737.228 52.4051C736.39 55.2247 734.599 59.3972 731.757 62.8719C728.787 66.5317 725.035 69.394 719.152 71.7437L715.457 68.4257C721.838 66.5175 725.305 63.7833 728.062 60.6504C730.194 58.2437 731.999 54.4415 732.496 52.1346H723.671C721.611 54.8545 718.882 57.6171 715.799 59.7247L712.303 57.0903C717.802 53.7722 720.531 49.7279 722.051 47.0365C722.549 46.2532 723.174 44.8149 723.458 43.7469L728.048 45.2564C727.295 46.3529 726.485 47.7627 726.115 48.4463L726.016 48.6029H732.297C733.263 48.6029 734.329 48.4463 735.011 48.2327L735.224 48.3608C734.599 47.1077 733.718 45.4415 732.936 44.3165L735.409 43.3197C736.191 44.4447 737.285 46.4526 737.882 47.6061L735.565 48.5744L735.608 48.5602ZM739.132 41.8956C739.942 43.0491 741.107 45.057 741.662 46.1535L739.161 47.2216C738.535 45.9115 737.541 44.0887 736.66 42.8925L739.132 41.8956Z" fill="#0A2270"/>
<path d="M756.739 66.5887C757.933 66.432 758.8 66.2754 759.61 66.0902C763.574 65.1504 766.644 62.3023 766.644 57.788C766.644 53.2738 764.328 50.2975 760.178 49.5713C759.738 52.2058 759.212 55.0823 758.331 58.0016C756.483 64.2675 753.798 68.0839 750.415 68.0839C747.033 68.0839 744.106 64.2959 744.106 59.0554C744.106 51.9067 750.33 45.769 758.359 45.769C766.388 45.769 770.864 51.1235 770.864 57.902C770.864 64.6804 766.857 69.0523 759.041 70.2485L756.725 66.5887H756.739ZM754.323 57.1899C755.048 54.8972 755.602 52.2342 755.986 49.6709C750.856 50.739 748.142 55.2532 748.142 58.6567C748.142 61.7896 749.392 63.3276 750.543 63.3276C751.822 63.3276 753.073 61.3909 754.323 57.1899Z" fill="#0A2270"/>
<path d="M786.411 59.0697C785.259 59.383 784.094 59.7248 782.915 60.0381V67.5001C782.915 69.3229 782.574 70.22 781.536 70.7612C780.499 71.3593 778.978 71.4447 776.79 71.4447C776.691 70.4764 776.193 68.9954 775.753 68.0555C776.975 68.084 778.282 68.084 778.694 68.084C779.135 68.084 779.291 67.9273 779.291 67.4859V60.9637L775.98 61.8466L775.014 58.2723C776.236 58.0159 777.728 57.6742 779.291 57.3039V51.8213H775.412V48.3751H779.291V42.451H782.915V48.3751H786.197V51.8213H782.915V56.421L785.984 55.6378L786.425 59.0555L786.411 59.0697ZM804.202 67.1726V70.6473H785.004V67.1726H804.202ZM802.284 64.1109H787.149V44.4305H802.284V64.1109ZM798.575 47.8767H790.731V52.4479H798.575V47.8767ZM798.575 55.9368H790.731V60.6647H798.575V55.9368Z" fill="#0A2270"/>
<path d="M813.666 52.2058C813.069 50.2263 811.535 47.1931 810 45.0001L813.382 43.6472C815.045 45.8118 816.565 48.6883 817.262 50.6963L813.666 52.2058ZM824.324 53.2311H834.272V71.6868H830.307V70.4051H810.043V66.7026H830.307V63.4415H811.833V59.8387H830.307V56.9621H810.767V53.2311H820.246V42.394H824.338V53.2311H824.324ZM834.797 44.5871C833.419 47.3782 831.827 50.3545 830.477 52.3339L827.223 51.2089C828.445 49.0444 829.881 45.826 830.634 43.3766L834.797 44.6013V44.5871Z" fill="#0A2270"/>
<path d="M843.551 51.9779C842.954 52.6329 842.301 53.3307 841.619 53.9573C841.207 53.1171 840.24 51.7358 839.558 51.1377C842.5 48.6029 844.432 45.2136 845.498 42.4652H848.468C850.5 44.0886 853.214 46.5665 854.437 48.3893L852.149 51.6788C851.211 50.1693 849.335 47.8624 847.559 46.2247C846.805 47.606 845.868 49.144 844.688 50.6393H851.438V53.7437H843.565V51.9921L843.551 51.9779ZM852.873 64.4526C852.873 65.8624 852.689 66.8022 851.779 67.3007C850.87 67.8276 849.776 67.8703 848.212 67.8703C848.113 66.9304 847.772 65.6203 847.374 64.7374C848.255 64.7658 849.037 64.7658 849.307 64.7374C849.591 64.7374 849.648 64.6377 849.648 64.3671V59.0127H847.047V71.644H843.736V59.0127H841.135V55.7801H852.859V64.4526H852.873ZM860.277 67.4288C858.558 69.095 855.616 70.8465 853.214 71.7864C852.618 71.0601 851.523 70.0063 850.713 69.337C853.158 68.4969 855.9 66.8307 857.25 65.4494L860.277 67.4288ZM858.785 48.845C858.913 48.1614 858.998 47.4636 859.098 46.7801H853.158V43.6472H869.017V46.7801H863.176C862.963 47.5063 862.736 48.1899 862.522 48.845H868.15V65.4209H854.238V48.845H858.799H858.785ZM864.569 51.6076H857.591V53.587H864.569V51.6076ZM864.569 56.1219H857.591V58.1298H864.569V56.1219ZM864.569 60.6931H857.591V62.701H864.569V60.6931ZM864.54 65.6772C866.26 66.8022 868.633 68.4969 869.855 69.6931L866.913 71.7864C865.848 70.5902 863.531 68.7817 861.783 67.5285L864.54 65.6772Z" fill="#0A2270"/>
<path d="M882.317 63.1994C879.56 64.8228 876.534 66.5459 873.962 67.9272L872.555 64.1677C873.436 63.7975 874.487 63.2848 875.653 62.7579V53.3877H872.839V49.8418H875.653V42.8212H879.12V49.8418H881.465V53.4162H879.12V60.9636L881.252 59.8956L882.317 63.1851V63.1994ZM901.118 52.8038C900.151 56.9051 898.773 60.5791 896.954 63.712C897.48 66.5032 898.205 68.1978 898.958 68.1978C899.398 68.1978 899.64 67.0443 899.739 64.2532C900.422 65.1361 901.459 65.9193 902.24 66.3181C901.715 70.4905 900.805 71.6725 898.46 71.6725C896.713 71.6725 895.391 70.0063 894.425 67.3434C893.146 68.9383 891.668 70.3196 890.048 71.4731C889.55 70.8465 888.172 69.6503 887.39 69.1234C888.897 68.1836 890.204 67.0586 891.398 65.8054C888.087 66.6883 884.577 67.6282 881.891 68.3117L881.01 64.837C883.724 64.3386 887.831 63.3988 891.767 62.5158L892.051 64.9937C892.52 64.4241 892.961 63.8687 893.359 63.2706C892.634 59.5396 892.236 54.9684 892.051 50.1124H881.948V46.7231H891.924C891.895 45.2848 891.867 43.875 891.867 42.4367H895.405C895.377 43.875 895.377 45.2848 895.405 46.7231H898.716C897.935 45.9114 896.897 44.9715 895.988 44.2453L898.077 42.4225C899.299 43.3054 900.791 44.5586 901.516 45.4557L900.166 46.7089H901.544V50.0981H895.476C895.604 52.9462 895.789 55.6092 896.073 57.9874C896.798 56.1646 897.324 54.2279 897.793 52.1345L901.104 52.7896L901.118 52.8038ZM890.886 52.2057V61.7326H882.843V52.2057H890.886ZM887.973 55.0538H885.571V58.8703H887.973V55.0538Z" fill="#0A2270"/>
<path d="M101.179 255.104C100.724 255.93 100.298 256.699 99.9286 257.326H105.584V272.763C105.584 274.443 105.243 275.354 104.135 275.896C103.026 276.408 101.435 276.465 99.2181 276.465C99.0759 275.668 98.6496 274.443 98.2517 273.589H91.317V275.155H88.3328V266.212H99.4738V273.275C100.469 273.304 101.35 273.304 101.691 273.304C102.174 273.304 102.316 273.161 102.316 272.734V263.99C101.89 264.845 101.179 265.13 100.042 265.13H97.7402C95.2107 265.13 94.6991 264.361 94.6991 262.054V260.231H92.397C92.1412 263.392 91.0896 265.215 86.7696 266.212C86.5707 265.642 86.0591 264.788 85.5475 264.218V276.408H82.3359V257.326H87.3949C87.1675 256.614 86.8265 255.759 86.5138 255.104H81.3696V252.028H91.9423V249.892H95.3812V252.028H106.238V255.104H101.179ZM85.5475 263.82C88.5886 263.221 89.2423 262.196 89.4412 260.231H85.5475V263.82ZM96.2054 257.326C96.5465 256.642 96.9444 255.845 97.257 255.104H90.1517C90.5212 255.845 90.8907 256.699 91.0612 257.326H96.2054ZM96.4328 268.718H91.317V271.111H96.4328V268.718ZM102.316 260.231H97.5981V262.025C97.5981 262.623 97.6833 262.709 98.1665 262.709H99.6444C100.128 262.709 100.241 262.509 100.326 261.142C100.753 261.427 101.605 261.74 102.316 261.94V260.231Z" fill="white"/>
<path d="M81.6255 293.269H92.4539V305.943H89.0718V304.661H84.8371V306.085H81.6255V293.269ZM84.8371 296.516V301.414H89.0718V296.516H84.8371ZM102.202 290.905H85.5476V280.595H102.202V290.905ZM98.7634 283.842H88.816V287.687H98.7634V283.842ZM106.039 293.269V305.971H102.629V304.661H98.1097V306.085H94.8697V293.269H106.039ZM102.629 301.414V296.516H98.1097V301.414H102.629Z" fill="white"/>
<path d="M95.239 308.99C98.3085 313.49 102.97 317.364 107.517 319.329C106.664 320.212 105.897 321.323 105.243 322.377C100.838 319.927 96.0917 315.826 93.6475 312.323C91.3454 315.797 86.9685 319.756 82.279 322.405C81.8527 321.636 80.8864 320.383 80.1475 319.671C85.0643 317.136 89.6401 312.608 91.7717 308.99H95.239ZM95.7222 331.861H105.897V334.937H81.7106V331.861H84.8085V321.978H88.1338V331.861H92.1696V317.079H95.7222V323.174H103.339V326.165H95.7222V331.861Z" fill="white"/>
<path d="M106.522 340.433V343.595H95.3812V345.873H100.554V358.775H87.0254V345.873H91.9991V343.595H81.0854V340.433H106.522ZM102.401 345.475H105.67V365.297H102.401V363.646H85.2349V365.326H81.9381V345.475H85.2349V360.456H102.401V345.475ZM89.7823 351.028H92.2549V348.636H89.7823V351.028ZM89.7823 356.013H92.2549V353.592H89.7823V356.013ZM97.6265 348.636H95.1539V351.028H97.6265V348.636ZM97.6265 353.592H95.1539V356.013H97.6265V353.592Z" fill="white"/>
<path d="M344.35 269.288C342.9 270.256 341.166 271.196 339.66 271.908C341.365 272.82 343.412 273.446 345.827 273.816C345.174 274.471 344.378 275.696 343.98 276.522C338.068 275.383 334.516 272.706 332.384 268.177C331.389 268.918 330.253 269.601 329.031 270.199V272.677C330.878 272.449 332.811 272.193 334.715 271.937L334.828 274.585C330.821 275.155 326.586 275.725 323.46 276.18L322.977 273.418C323.801 273.332 324.767 273.218 325.791 273.104V271.509C324.284 272.022 322.693 272.421 321.101 272.706C320.703 271.994 319.907 270.883 319.311 270.256C322.437 269.829 325.648 269.003 328.093 267.864H319.794V265.187H330.85V263.734H329.713C329.571 263.079 329.173 262.31 328.888 261.769C329.542 261.797 330.224 261.797 330.423 261.797C330.679 261.797 330.764 261.712 330.764 261.484V260.316H328.434V264.475H325.563V260.316H323.432V263.848H320.874V258.266H325.563V257.269H319.737V254.99H321.471C320.902 254.649 320.163 254.221 319.708 253.994C320.646 252.911 321.442 251.373 321.925 249.892L324.398 250.519C324.256 250.918 324.114 251.288 323.943 251.687H325.563V249.864H328.434V251.687H333.152V253.851H328.434V254.99H333.919V257.269H328.434V258.266H333.464V261.484C333.464 262.566 333.265 263.079 332.526 263.421C332.157 263.592 331.702 263.677 331.191 263.706H334.203V265.187H345.287V267.864H342.445L344.35 269.288ZM325.563 254.99V253.851H322.863C322.636 254.25 322.408 254.649 322.153 254.99H325.563ZM338.097 260.487H335.084V251.003H338.097V260.487ZM335.368 267.864C335.908 268.775 336.591 269.601 337.386 270.313C338.722 269.63 340.285 268.69 341.422 267.864H335.368ZM344.264 261.456C344.264 262.908 343.98 263.62 342.957 264.047C341.962 264.475 340.569 264.503 338.608 264.503C338.466 263.706 338.012 262.566 337.614 261.826C338.893 261.883 340.257 261.883 340.655 261.854C341.081 261.854 341.195 261.74 341.195 261.37V250.063H344.264V261.456Z" fill="white"/>
<path d="M320.362 293.269H331.191V305.943H327.809V304.661H323.574V306.085H320.362V293.269ZM323.574 296.516V301.414H327.809V296.516H323.574ZM340.939 290.905H324.284V280.595H340.939V290.905ZM337.5 283.842H327.553V287.687H337.5V283.842ZM344.776 293.269V305.971H341.365V304.661H336.847V306.085H333.607V293.269H344.776ZM341.365 301.414V296.516H336.847V301.414H341.365Z" fill="white"/>
<path d="M330.367 316.481H319.254V313.804H330.367V316.481ZM344.549 322.006C343.639 325.452 342.133 328.158 340.172 330.294C341.849 331.377 343.838 332.203 346.027 332.744C345.288 333.456 344.321 334.794 343.838 335.677C341.451 334.965 339.376 333.911 337.585 332.573C335.681 333.911 333.493 334.937 331.077 335.677C330.736 334.851 329.94 333.513 329.315 332.744V334.196H323.375V335.307H320.504V325.595H329.315V332.687C331.447 332.146 333.379 331.348 335.056 330.237C333.749 328.813 332.669 327.161 331.788 325.31L334.687 324.37H330.736V321.323H331.702C331.219 320.753 330.025 319.728 329.343 319.272V320.354H320.59V317.763H329.343V319.13C331.788 317.449 332.1 315.199 332.1 313.291V309.902H341.621V316.282C341.621 317.079 341.678 317.165 341.991 317.165H342.701C343.071 317.165 343.184 316.794 343.213 314.316C343.838 314.801 345.145 315.285 345.97 315.513C345.685 319.044 344.947 320.041 343.042 320.041H341.394C339.12 320.041 338.467 319.158 338.467 316.339V312.892H335.283V313.377C335.283 316.054 334.715 319.301 331.759 321.323H341.763L342.332 321.18L344.549 322.006ZM329.343 324.199H320.59V321.665H329.343V324.199ZM329.287 312.551H320.703V309.987H329.287V312.551ZM326.388 328.272H323.375V331.547H326.388V328.272ZM334.772 324.37C335.454 325.794 336.392 327.076 337.529 328.215C338.637 327.104 339.518 325.823 340.2 324.37H334.772Z" fill="white"/>
<path d="M330.878 346.101H319.254V343.424H330.878V346.101ZM329.656 363.816H323.46V364.927H320.533V355.215H329.656V363.816ZM320.618 347.383H329.741V349.975H320.618V347.383ZM320.618 351.285H329.741V353.82H320.618V351.285ZM329.798 342.171H320.789V339.608H329.798V342.171ZM323.46 357.892V361.168H326.7V357.892H323.46ZM346.055 351.598H340.115V365.326H336.704V351.598H330.764V348.237H336.704V338.839H340.115V348.237H346.055V351.598Z" fill="white"/>
<path d="M568.279 286.861H557.991V284.184H568.279V286.861ZM567.569 304.576H561.97V305.687H559.184V295.975H567.569V304.576ZM559.27 288.142H567.625V290.734H559.27V288.142ZM559.27 292.044H567.625V294.579H559.27V292.044ZM567.455 282.93H559.355V280.367H567.455V282.93ZM561.97 298.652V301.927H564.755V298.652H561.97ZM577.061 299.848L577.289 302.639C574.361 303.294 571.263 303.949 568.819 304.462L568.137 301.358C568.99 301.244 569.984 301.073 571.064 300.902V293.924H568.677V291.019H576.408V293.924H574.191V300.361L577.061 299.848ZM580.045 287.943C580.244 296.089 580.898 301.813 581.978 301.899C582.348 301.899 582.575 300.589 582.689 298.453C583.2 299.193 584.536 300.133 585.048 300.475C584.309 305.117 582.888 306.114 581.836 306.085C578.312 306 577.26 299.279 576.919 287.943H568.705V284.867H576.834C576.805 283.158 576.777 281.392 576.777 279.513H580.017V280.937L582.291 279.769C583.2 280.823 584.252 282.275 584.735 283.244L582.291 284.611C581.864 283.642 580.898 282.133 580.017 281.022C579.989 282.332 579.989 283.614 580.017 284.867H584.223V287.943H580.045Z" fill="white"/>
<path d="M567.512 310.229C566.773 312.223 565.835 314.245 564.783 316.153V335.663H561.373V321.422C560.776 322.134 560.179 322.846 559.611 323.473C559.298 322.647 558.332 320.71 557.735 319.856C560.321 317.293 562.794 313.248 564.215 309.204L567.512 310.229ZM576.521 316.965V319.956H583.882V323.032H576.521V326.25H584.252V329.383H576.521V335.706H573.054V316.965H571.974C570.837 319.073 569.53 321.009 568.251 322.49C567.711 321.864 566.375 320.668 565.664 320.127C568.165 317.563 570.411 313.462 571.69 309.389L574.958 310.215C574.56 311.411 574.105 312.579 573.565 313.747H584.593V316.965H576.521Z" fill="white"/>
<path d="M807.84 219.93H796.728V217.253H807.84V219.93ZM806.789 237.646H800.849V238.756H797.978V229.044H806.789V237.646ZM798.063 221.212H806.817V223.804H798.063V221.212ZM798.063 225.114H806.817V227.649H798.063V225.114ZM806.76 216H798.177V213.437H806.76V216ZM800.849 231.722V234.997H803.861V231.722H800.849ZM823.273 229.472H816.992V239.127H813.667V229.472H807.385V226.253H813.667V217.111H808.38V213.949H822.761V217.111H816.992V226.253H823.273V229.472ZM811.336 218.279C811.961 220.386 812.501 223.063 812.615 224.829L809.773 225.513C809.688 223.718 809.204 220.984 808.608 218.848L811.336 218.279ZM817.844 224.801C818.47 222.978 819.123 220.101 819.408 218.051L822.619 218.677C821.909 221.07 821.141 223.747 820.431 225.456L817.844 224.801Z" fill="white"/>
<path d="M805.424 243.199C804.714 245.079 803.833 246.987 802.866 248.81V268.747H799.683V253.88C799.115 254.649 798.546 255.361 797.95 255.987C797.637 255.19 796.756 253.396 796.216 252.57C798.66 250.092 800.991 246.161 802.383 242.231L805.424 243.199ZM817.901 247.984V251.544H822.704V267.978H819.464V266.525H808.21V268.149H805.083V251.544H809.659V247.984H804.799V244.965H822.846V247.984H817.901ZM808.21 263.62H809.972V254.478H808.21V263.62ZM812.814 254.478V263.62H814.718V254.478H812.814ZM814.718 247.984H812.842V251.544H814.718V247.984ZM819.464 254.478H817.56V263.62H819.464V254.478Z" fill="white"/>
<path d="M810 274.329C811.99 274.329 813.638 275.981 813.638 277.975C813.638 279.968 811.99 281.62 810 281.62C808.011 281.62 806.362 279.968 806.362 277.975C806.362 275.981 808.011 274.329 810 274.329Z" fill="white"/>
<path d="M823.245 312.665H812.416V313.775H809.233V301.358C809.034 301.5 808.835 301.671 808.636 301.813C808.295 301.386 807.584 300.532 806.959 299.877V310.358H801.815V312.579H799.087V305.373C798.774 305.915 798.433 306.456 798.063 306.94C797.751 306.171 796.87 304.462 796.273 303.722C798.262 300.873 799.342 296.573 799.996 291.93H797.239V288.854H807.414V289.823H813.183C813.468 288.968 813.723 288.085 813.922 287.174L817.106 287.744C816.935 288.456 816.736 289.139 816.537 289.823H823.102V295.006H820.118V292.671H815.486C814.974 293.953 814.349 295.12 813.695 296.231H815.969C816.367 295.263 816.765 294.209 816.963 293.354L820.033 294.01C819.692 294.779 819.322 295.519 818.953 296.231H822.591V299.022H818.299V300.93H821.966V303.408H818.299V305.43H821.966V307.88H818.299V309.902H823.245V312.665ZM804.117 300.104H801.815V307.424H804.117V300.104ZM806.959 298.851C809.062 297.285 810.768 295.177 812.018 292.671H810.029V295.006H807.158V291.93H803.151C802.895 293.725 802.554 295.491 802.156 297.199H806.959V298.851ZM815.201 299.022H812.416V300.93H815.201V299.022ZM815.201 303.408H812.416V305.43H815.201V303.408ZM812.416 309.902H815.201V307.88H812.416V309.902Z" fill="white"/>
<path d="M807.044 324.171H796.728V321.494H807.044V324.171ZM806.306 340.149C807.357 338.725 807.869 336.475 808.124 334.282L810.796 334.965C810.512 337.5 810 340.206 808.608 341.886L806.306 340.491V341.886H800.707V342.997H797.921V333.285H806.306V340.149ZM806.277 328.044H798.007V325.453H806.277V328.044ZM798.007 329.354H806.277V331.889H798.007V329.354ZM806.192 320.241H798.092V317.677H806.192V320.241ZM803.492 335.962H800.707V339.237H803.492V335.962ZM809.46 321.579C810.313 321.835 811.222 322.177 812.132 322.519C812.302 321.921 812.444 321.323 812.558 320.725H808.295V317.905H822.392C822.392 317.905 822.392 318.76 822.363 319.158C822.079 325.595 821.795 328.244 821.028 329.155C820.488 329.867 819.948 330.123 819.152 330.237C818.47 330.351 817.304 330.38 816.082 330.351C816.026 329.44 815.713 328.187 815.286 327.389C814.803 327.076 814.292 326.763 813.723 326.449C812.7 328.272 811.165 329.867 808.835 331.092C808.494 330.351 807.613 329.241 806.931 328.699C808.892 327.76 810.171 326.506 811.023 325.111C809.972 324.655 808.892 324.228 807.897 323.915L809.46 321.579ZM816.196 340.263C816.736 340.263 816.85 339.892 816.935 337.272C817.503 337.785 818.839 338.269 819.692 338.497C819.379 342.228 818.555 343.168 816.537 343.168H814.207C811.535 343.168 810.995 342.228 810.995 339.408V333.171H814.121V339.38C814.121 340.149 814.178 340.263 814.69 340.263H816.196ZM813.581 329.241C815.4 330.18 817.589 331.633 818.669 332.858L816.565 335.022C815.599 333.854 813.439 332.26 811.62 331.206L813.581 329.241ZM815.599 320.725C815.429 321.75 815.201 322.775 814.889 323.772C815.883 324.256 816.793 324.741 817.475 325.196L816.111 327.389C816.708 327.418 817.191 327.418 817.475 327.418C817.873 327.446 818.129 327.361 818.328 327.048C818.725 326.62 818.953 324.94 819.152 320.725H815.599ZM820.601 333.627C822.108 335.791 823.301 338.696 823.699 340.661L820.715 341.886C820.431 339.921 819.265 336.902 817.873 334.709L820.601 333.627Z" fill="white"/>
<path d="M807.016 353.791H796.728V351.114H807.016V353.791ZM806.306 371.506H800.707V372.617H797.921V362.905H806.306V371.506ZM798.007 355.073H806.362V357.665H798.007V355.073ZM798.007 358.975H806.362V361.51H798.007V358.975ZM806.192 349.861H798.092V347.298H806.192V349.861ZM800.707 365.582V368.858H803.492V365.582H800.707ZM815.798 366.779L816.025 369.57C813.098 370.225 810 370.88 807.556 371.392L806.874 368.288C807.727 368.174 808.721 368.003 809.801 367.832V360.855H807.414V357.949H815.144V360.855H812.928V367.291L815.798 366.779ZM818.782 354.873C818.981 363.019 819.635 368.744 820.715 368.829C821.084 368.829 821.312 367.519 821.425 365.383C821.937 366.123 823.273 367.063 823.784 367.405C823.045 372.048 821.624 373.044 820.573 373.016C817.049 372.93 815.997 366.209 815.656 354.873H807.442V351.798H815.571C815.542 350.089 815.514 348.323 815.514 346.443H818.754V347.867L821.028 346.699C821.937 347.753 822.989 349.206 823.472 350.174L821.028 351.541C820.601 350.573 819.635 349.063 818.754 347.953C818.725 349.263 818.725 350.544 818.754 351.798H822.96V354.873H818.782Z" fill="white"/>
<path d="M796.415 400.101C797.381 398.649 797.722 396.256 797.836 393.836L799.712 394.206C799.57 396.798 799.286 399.446 798.12 401.041L796.415 400.101ZM818.271 394.69C819.408 396.997 821.198 398.905 823.586 399.93C822.903 400.557 821.937 401.753 821.454 402.608C819.095 401.383 817.361 399.247 816.139 396.598C815.116 398.905 813.212 401.041 809.83 402.693C809.489 402.123 808.778 401.269 808.181 400.699C808.068 401.07 807.954 401.326 807.812 401.497C807.329 402.152 806.817 402.408 806.107 402.494C805.538 402.608 804.629 402.636 803.606 402.579C803.577 401.782 803.321 400.671 802.923 399.959C803.662 400.044 804.288 400.073 804.657 400.073C804.998 400.073 805.197 399.987 805.425 399.703C805.623 399.418 805.766 398.706 805.908 397.225L804.998 397.567C804.828 396.57 804.259 395.032 803.719 393.892L805.055 393.437C805.425 394.149 805.766 394.975 806.021 395.744C806.078 394.889 806.135 393.836 806.192 392.611H798.063V377.089H808.522V379.823H805.481V381.389H807.954V382.899C810.512 381.361 812.984 378.427 814.15 376.063H817.049C818.754 378.684 821.227 381.275 823.728 382.472C823.131 383.269 822.477 384.494 822.051 385.377C821.426 385.006 820.8 384.579 820.203 384.067V385.633H817.361V387.171H822.449V394.69H818.271ZM801.417 394.291C801.673 395.943 801.787 398.136 801.701 399.503L800.167 399.703C800.252 398.279 800.167 396.114 799.968 394.434L801.417 394.291ZM800.849 379.823V381.389H802.781V379.823H800.849ZM800.849 383.953V385.661H802.781V383.953H800.849ZM800.849 389.991H802.781V388.225H800.849V389.991ZM803.321 394.006C803.776 395.487 804.174 397.367 804.259 398.592L802.781 398.905C802.724 397.68 802.355 395.772 801.9 394.291L803.321 394.006ZM809.062 389.991C809.062 389.991 809.062 390.731 809.034 391.101C808.835 395.801 808.665 398.535 808.352 400.044C811.279 398.563 812.814 396.684 813.581 394.69H809.546V387.171H814.377V385.633H811.478V384.095C810.768 384.693 810.057 385.263 809.29 385.718C808.977 384.978 808.437 383.981 807.954 383.269V383.953H805.481V385.661H807.954V388.225H805.481V389.991H809.062ZM814.207 392.241C814.349 391.386 814.377 390.532 814.377 389.706V389.62H812.302V392.241H814.207ZM819.038 383.041C817.702 381.788 816.509 380.307 815.713 378.997C814.974 380.279 813.866 381.731 812.587 383.041H819.038ZM817.361 389.62V389.734C817.361 390.56 817.333 391.386 817.248 392.241H819.578V389.62H817.361Z" fill="white"/>
<path d="M1061.58 242.715V246.047H1036.03V242.715H1047V236.99H1039.3V233.715H1047V228.702H1041.12C1040.3 230.269 1039.42 231.721 1038.48 232.832C1037.8 232.291 1036.29 231.266 1035.44 230.81C1037.65 228.418 1039.5 224.487 1040.47 220.614L1043.96 221.383C1043.56 222.75 1043.11 224.089 1042.63 225.399H1047V220.272H1050.56V225.399H1060.13V228.702H1050.56V233.715H1059.05V236.99H1050.56V242.715H1061.58Z" fill="white"/>
<path d="M1061.58 257.839V260.744H1040.98V262.452C1040.98 266.44 1040.47 272.478 1037.79 276.38C1037.28 275.782 1035.86 274.614 1035.18 274.244C1037.51 270.769 1037.74 265.813 1037.74 262.424V257.839H1042.88C1042.65 256.956 1042.26 255.873 1041.8 254.99L1042.43 254.82H1037.51V251.943H1047.12V249.864H1050.5V251.943H1060.19V254.82H1056.67C1056.01 255.902 1055.39 256.984 1054.85 257.839H1061.58ZM1052.97 273.104H1061.41V275.896H1041.49V273.104H1049.65V270.598H1043.71V268.035L1043.51 268.234C1042.88 267.721 1041.6 266.952 1040.84 266.611C1042.4 265.244 1043.71 263.136 1044.42 261.057L1047.4 261.74C1047.23 262.253 1047 262.766 1046.78 263.278H1049.65V261.171H1052.97V263.278H1059.88V265.87H1052.97V268.006H1059.05V270.598H1052.97V273.104ZM1049.65 268.006V265.87H1045.35C1044.84 266.668 1044.27 267.408 1043.73 268.006H1049.65ZM1045.24 254.82C1045.72 255.759 1046.12 256.842 1046.29 257.611L1045.44 257.839H1052.12L1051.61 257.696C1051.98 256.87 1052.35 255.788 1052.63 254.82H1045.24Z" fill="white"/>
<path d="M1061.73 300.703V304.12H1035.89V300.703H1046.72V285.978H1037.43V282.446H1060.13V285.978H1050.58V300.703H1061.73Z" fill="white"/>
<path d="M1044.81 327.446C1044.47 326.706 1043.79 325.595 1043.11 324.57V335.677H1039.84V325.452C1038.93 327.645 1037.85 329.668 1036.74 331.092C1036.43 330.123 1035.72 328.728 1035.18 327.873C1036.77 326.022 1038.33 323.003 1039.39 320.24H1035.78V317.079H1039.84V313.775C1038.65 314.003 1037.48 314.202 1036.37 314.345C1036.2 313.576 1035.81 312.437 1035.44 311.753C1038.56 311.212 1042.06 310.386 1044.25 309.389L1046.49 311.981C1045.47 312.38 1044.33 312.75 1043.11 313.063V317.079H1046.15V320.24H1043.11V321.066C1043.88 321.693 1046.21 324.171 1046.75 324.797L1044.81 327.446ZM1061.98 332.117V335.079H1045.55V332.117H1052.32V329.611H1047.34V326.763H1052.32V324.399H1046.66V321.494H1061.38V324.399H1055.67V326.763H1060.7V329.611H1055.67V332.117H1061.98ZM1060.62 319.785H1047.57V310.158H1060.62V319.785ZM1057.32 313.006H1050.7V316.937H1057.32V313.006Z" fill="white"/>
<path d="M1046.58 346.101H1035.46V343.424H1046.58V346.101ZM1060.76 351.627C1059.85 355.073 1058.34 357.778 1056.38 359.915C1058.06 360.997 1060.05 361.823 1062.24 362.364C1061.5 363.076 1060.53 364.414 1060.05 365.297C1057.66 364.585 1055.59 363.532 1053.8 362.193C1051.89 363.532 1049.7 364.557 1047.29 365.297C1046.95 364.471 1046.15 363.133 1045.53 362.364V363.816H1039.59V364.927H1036.71V355.215H1045.53V362.307C1047.66 361.766 1049.59 360.968 1051.27 359.858C1049.96 358.433 1048.88 356.782 1048 354.93L1050.9 353.99H1046.95V350.943H1047.91C1047.43 350.373 1046.24 349.348 1045.55 348.892V349.975H1036.8V347.383H1045.55V348.75C1048 347.07 1048.31 344.82 1048.31 342.911V339.522H1057.83V345.902C1057.83 346.699 1057.89 346.785 1058.2 346.785H1058.91C1059.28 346.785 1059.39 346.415 1059.42 343.937C1060.05 344.421 1061.36 344.905 1062.18 345.133C1061.9 348.665 1061.16 349.661 1059.25 349.661H1057.6C1055.33 349.661 1054.68 348.778 1054.68 345.959V342.513H1051.49V342.997C1051.49 345.674 1050.93 348.921 1047.97 350.943H1057.97L1058.54 350.801L1060.76 351.627ZM1045.55 353.82H1036.8V351.285H1045.55V353.82ZM1045.5 342.171H1036.91V339.608H1045.5V342.171ZM1042.6 357.892H1039.59V361.168H1042.6V357.892ZM1050.98 353.99C1051.66 355.415 1052.6 356.696 1053.74 357.835C1054.85 356.725 1055.73 355.443 1056.41 353.99H1050.98Z" fill="white"/>
<path d="M1047.09 375.721H1035.46V373.044H1047.09V375.721ZM1045.87 393.437H1039.67V394.547H1036.74V384.835H1045.87V393.437ZM1036.83 377.003H1045.95V379.595H1036.83V377.003ZM1036.83 380.905H1045.95V383.44H1036.83V380.905ZM1046.01 371.791H1037V369.228H1046.01V371.791ZM1039.67 387.513V390.788H1042.91V387.513H1039.67ZM1062.27 381.218H1056.33V394.946H1052.91V381.218H1046.97V377.857H1052.91V368.459H1056.33V377.857H1062.27V381.218Z" fill="white"/>
<path d="M1300.32 301.956V305.288H1274.77V301.956H1285.74V296.231H1278.04V292.956H1285.74V287.943H1279.86C1279.03 289.51 1278.15 290.962 1277.21 292.073C1276.53 291.532 1275.03 290.506 1274.17 290.051C1276.39 287.658 1278.24 283.728 1279.2 279.854L1282.7 280.623C1282.3 281.991 1281.85 283.329 1281.36 284.639H1285.74V279.513H1289.29V284.639H1298.87V287.943H1289.29V292.956H1297.79V296.231H1289.29V301.956H1300.32Z" fill="black"/>
<path d="M1300.32 317.079V319.984H1279.71V321.693C1279.71 325.68 1279.2 331.718 1276.53 335.62C1276.02 335.022 1274.6 333.854 1273.92 333.484C1276.25 330.01 1276.47 325.054 1276.47 321.665V317.079H1281.62C1281.39 316.196 1280.99 315.114 1280.54 314.231L1281.16 314.06H1276.25V311.184H1285.85V309.104H1289.24V311.184H1298.93V314.06H1295.4C1294.75 315.142 1294.12 316.225 1293.58 317.079H1300.32ZM1291.71 332.345H1300.15V335.136H1280.23V332.345H1288.38V329.839H1282.44V327.275L1282.24 327.475C1281.62 326.962 1280.34 326.193 1279.57 325.851C1281.14 324.484 1282.44 322.377 1283.15 320.298L1286.14 320.981C1285.97 321.494 1285.74 322.006 1285.51 322.519H1288.38V320.411H1291.71V322.519H1298.61V325.111H1291.71V327.247H1297.79V329.839H1291.71V332.345ZM1288.38 327.247V325.111H1284.09C1283.58 325.908 1283.01 326.649 1282.47 327.247H1288.38ZM1283.98 314.06C1284.46 315 1284.86 316.082 1285.03 316.851L1284.18 317.079H1290.86L1290.34 316.937C1290.71 316.111 1291.08 315.029 1291.37 314.06H1283.98Z" fill="black"/>
<path d="M1527.89 286.377V289.367H1536.84V298.994C1536.84 300.617 1536.5 301.585 1535.33 302.098C1534.14 302.611 1532.52 302.668 1530.3 302.668C1530.16 301.699 1529.65 300.247 1529.17 299.335C1530.59 299.392 1532.26 299.392 1532.72 299.392C1533.17 299.392 1533.32 299.25 1533.32 298.937V292.671H1527.89V306.114H1524.36V292.671H1519.39V302.668H1515.98V289.367H1524.36V286.377H1513.31V283.073H1524.33V279.37H1527.94V283.073H1539.23V286.377H1527.89Z" fill="black"/>
<path d="M1528.17 323.373C1527.94 323.829 1527.66 324.285 1527.38 324.74H1538.91C1538.91 324.74 1538.89 325.509 1538.86 325.908C1538.46 331.462 1538.01 333.74 1537.24 334.566C1536.7 335.221 1536.07 335.449 1535.36 335.535C1534.71 335.62 1533.63 335.649 1532.49 335.592C1532.43 334.794 1532.15 333.655 1531.72 332.943C1532.63 333.028 1533.37 333.028 1533.74 333.028C1534.14 333.028 1534.37 332.971 1534.59 332.715C1534.99 332.288 1535.33 330.835 1535.65 327.389H1534.54C1533.37 330.579 1531.16 334.025 1528.85 335.82C1528.29 335.165 1527.32 334.396 1526.47 333.94C1528.63 332.573 1530.53 330.038 1531.75 327.389H1530.08C1528.54 330.123 1525.9 332.971 1523.43 334.538C1522.89 333.883 1522 333.028 1521.21 332.544C1523.31 331.49 1525.5 329.497 1527.01 327.389H1525.3C1524.28 328.471 1523.17 329.44 1522 330.18C1521.58 329.639 1520.5 328.642 1519.79 328.187C1517.74 329.212 1515.69 330.237 1513.96 331.092L1512.71 327.674C1513.68 327.304 1514.87 326.82 1516.21 326.278V318.247H1513.36V315.057H1516.21V309.446H1519.33V315.057H1522V318.247H1519.33V324.968L1521.61 323.971L1522.2 326.392C1523.23 325.509 1524.11 324.484 1524.82 323.373H1521.61V320.525H1539.48V323.373H1528.17ZM1537.55 319.443H1524.11V309.816H1537.55V319.443ZM1534.42 312.152H1527.09V313.519H1534.42V312.152ZM1534.42 315.74H1527.09V317.108H1534.42V315.74Z" fill="black"/>
<path d="M93.7897 141.593L111.468 110.905H76.1118L93.7897 141.593Z" fill="#0A2270"/>
<path d="M332.527 141.593L350.204 110.905H314.849L332.527 141.593Z" fill="#0A2270"/>
<path d="M810 141.593L827.678 110.905H792.322L810 141.593Z" fill="#0A2270"/>
<path d="M571.263 141.593L588.941 110.905H553.585L571.263 141.593Z" fill="#0A2270"/>
<path d="M1048.74 141.593L1066.41 110.905H1031.06L1048.74 141.593Z" fill="#0A2270"/>
<path opacity="0.2" d="M5.68408 256.329V170.886H90.9472" fill="white"/>
<path opacity="0.2" d="M244.421 256.329V170.886H329.684" fill="white"/>
<path opacity="0.2" d="M483.158 256.329V170.886H568.421" fill="white"/>
<path opacity="0.2" d="M721.895 256.329V170.886H807.158" fill="white"/>
<path opacity="0.2" d="M960.632 256.329V170.886H1045.89" fill="white"/>
<path opacity="0.6" d="M1199.37 256.329V170.886H1284.63" fill="white"/>
<path opacity="0.6" d="M1438.11 256.329V170.886H1523.37" fill="white"/>
<path d="M27.4976 187.12H32.4997V205.889H29.5155V189.997H27.4976V187.12Z" fill="white"/>
<path d="M263.634 205.889C264.813 204.693 265.95 203.54 267.058 202.415C268.167 201.29 269.162 200.207 270.028 199.154C270.895 198.1 271.592 197.074 272.103 196.063C272.615 195.052 272.871 194.084 272.871 193.158C272.871 192.375 272.714 191.734 272.387 191.236C272.061 190.737 271.648 190.367 271.123 190.125C270.597 189.883 270.043 189.769 269.46 189.769C268.664 189.769 268.025 189.926 267.542 190.253C267.058 190.581 266.703 190.965 266.476 191.435C266.248 191.905 266.135 192.347 266.135 192.788C266.135 194.027 266.504 195.01 267.243 195.75L265.396 197.43C264.941 197.146 264.557 196.733 264.231 196.192C263.904 195.65 263.662 195.081 263.492 194.483C263.321 193.885 263.236 193.343 263.236 192.873C263.236 191.834 263.492 190.851 264.003 189.954C264.515 189.057 265.268 188.316 266.277 187.747C267.286 187.177 268.508 186.892 269.943 186.892C271.151 186.892 272.203 187.177 273.098 187.733C273.993 188.288 274.69 189.029 275.187 189.94C275.684 190.851 275.94 191.848 275.94 192.93C275.94 194.127 275.656 195.28 275.073 196.405C274.491 197.53 273.766 198.641 272.871 199.737C271.975 200.834 271.066 201.93 270.114 203.013H276.508V205.889H263.634Z" fill="white"/>
<path d="M514.193 187.12L510.016 194.041C510.854 194.098 511.636 194.326 512.36 194.71C513.085 195.095 513.682 195.693 514.122 196.505C514.563 197.316 514.79 198.356 514.79 199.652C514.79 200.948 514.492 202.13 513.881 203.098C513.27 204.066 512.474 204.807 511.465 205.334C510.456 205.861 509.348 206.117 508.14 206.117C507.23 206.117 506.321 205.932 505.397 205.547C504.473 205.163 503.72 204.679 503.138 204.066L504.644 201.617C504.985 202.03 505.468 202.415 506.094 202.742C506.719 203.07 507.387 203.241 508.083 203.241C509.063 203.241 509.916 202.899 510.641 202.229C511.366 201.56 511.721 200.634 511.721 199.481C511.721 198.441 511.422 197.615 510.811 197.003C510.2 196.391 509.376 196.092 508.31 196.092C507.756 196.092 507.301 196.134 506.946 196.206C506.591 196.277 506.25 196.377 505.951 196.49L505.838 196.377L509.845 189.997H504.303V187.12H514.193Z" fill="white"/>
<path d="M741.05 201.418V201.389L752.561 186.892H752.589V199.139H755.005V201.418H752.589V205.889H749.605V201.418H741.05ZM749.605 193.813L745.512 199.139H749.605V193.813Z" fill="white"/>
<path d="M987.092 206.117C986.083 206.117 985.116 205.932 984.164 205.547C983.212 205.163 982.459 204.707 981.891 204.152L983.454 201.816C983.837 202.229 984.335 202.585 984.974 202.856C985.614 203.127 986.239 203.269 986.864 203.269C987.845 203.269 988.655 202.956 989.294 202.315C989.934 201.674 990.246 200.848 990.246 199.823C990.246 198.741 989.948 197.843 989.351 197.131C988.754 196.419 987.873 196.063 986.694 196.063C986.054 196.063 985.443 196.149 984.889 196.334C984.335 196.519 983.738 196.79 983.113 197.146H983.084V187.12H992.094V189.997H985.671V193.756C986.239 193.628 986.822 193.557 987.404 193.557C988.697 193.557 989.777 193.842 990.658 194.411C991.54 194.981 992.207 195.736 992.648 196.661C993.089 197.587 993.316 198.612 993.316 199.737C993.316 200.934 993.046 202.016 992.506 202.984C991.966 203.953 991.227 204.722 990.289 205.277C989.351 205.832 988.285 206.117 987.092 206.117Z" fill="white"/>
<path d="M1226.85 206.117C1225.59 206.117 1224.44 205.818 1223.4 205.206C1222.36 204.593 1221.55 203.725 1220.94 202.6C1220.33 201.475 1220.03 200.122 1220.03 198.541C1220.03 197.331 1220.27 196.163 1220.74 195.066C1221.21 193.97 1221.85 192.93 1222.66 191.962C1223.47 190.994 1224.38 190.082 1225.4 189.242C1226.43 188.402 1227.49 187.619 1228.59 186.921L1230.57 189.085C1228.83 189.926 1227.42 190.894 1226.34 191.991C1225.26 193.087 1224.48 194.184 1223.98 195.266C1224.45 194.796 1225 194.426 1225.64 194.184C1226.28 193.941 1227.01 193.813 1227.85 193.813C1228.81 193.813 1229.72 194.07 1230.57 194.582C1231.43 195.095 1232.12 195.807 1232.65 196.704C1233.18 197.601 1233.45 198.641 1233.45 199.794C1233.45 201.09 1233.13 202.201 1232.51 203.155C1231.88 204.109 1231.07 204.835 1230.08 205.348C1229.08 205.861 1228 206.117 1226.85 206.117ZM1226.74 203.44C1227.75 203.44 1228.6 203.112 1229.31 202.457C1230.02 201.802 1230.38 200.919 1230.38 199.823C1230.38 198.726 1230.02 197.915 1229.31 197.274C1228.6 196.633 1227.75 196.32 1226.74 196.32C1226.06 196.32 1225.44 196.462 1224.89 196.733C1224.34 197.003 1223.91 197.388 1223.58 197.858C1223.26 198.328 1223.1 198.854 1223.1 199.424V199.965C1223.1 200.578 1223.26 201.147 1223.58 201.674C1223.91 202.201 1224.34 202.628 1224.89 202.956C1225.44 203.283 1226.06 203.44 1226.74 203.44Z" fill="black"/>
<path d="M1472.25 187.12L1464.84 205.889H1461.48L1467.9 189.997H1459.92V187.12H1472.25Z" fill="black"/>
</g>
<defs>
<clipPath id="clip0_1116_2732">
<rect width="1620" height="450" fill="white"/>
</clipPath>
</defs>
</svg>
