<svg width="150" height="150" viewBox="0 0 150 150" fill="none" xmlns="http://www.w3.org/2000/svg">
<g id="_&#227;&#131;&#172;&#227;&#130;&#164;&#227;&#131;&#164;&#227;&#131;&#188;_1" clip-path="url(#clip0_839_4221)">
<path id="Vector" d="M119 31H31V119H119V31Z" fill="#E6E9F1"/>
<path id="Vector_2" d="M75 150C116.421 150 150 116.421 150 75C150 33.5786 116.421 0 75 0C33.5786 0 0 33.5786 0 75C0 116.421 33.5786 150 75 150Z" fill="#E6E9F1"/>
<g id="Group">
<path id="Vector_3" d="M96.9406 99.99H53.0506C51.0306 99.99 49.3906 98.35 49.3906 96.33V50.9C49.3906 48.4 51.0406 46.2 53.4306 45.49C57.9406 44.16 65.8106 42.33 74.9906 42.33C84.1706 42.33 91.9906 44.17 96.5306 45.5C98.9406 46.2 100.591 48.41 100.591 50.91V96.32C100.591 98.34 98.9506 99.98 96.9306 99.98L96.9406 99.99Z" stroke="#464A65" stroke-width="2.95" stroke-linecap="round" stroke-linejoin="round"/>
<path id="Vector_4" d="M93.1413 57.47H56.8613C56.5852 57.47 56.3613 57.6938 56.3613 57.97V77.77C56.3613 78.0461 56.5852 78.27 56.8613 78.27H93.1413C93.4175 78.27 93.6413 78.0461 93.6413 77.77V57.97C93.6413 57.6938 93.4175 57.47 93.1413 57.47Z" stroke="#464A65" stroke-width="1.97" stroke-linecap="round" stroke-linejoin="round"/>
<path id="Vector_5" d="M81.3811 49.37H68.6211V51.5H81.3811V49.37Z" fill="#0DB2E7" stroke="#0DB2E7" stroke-width="2.95" stroke-linecap="round" stroke-linejoin="round"/>
<path id="Vector_6" d="M62.0256 91.2602C62.4278 89.5562 61.3725 87.8489 59.6685 87.4468C57.9646 87.0446 56.2573 88.0999 55.8551 89.8038C55.453 91.5077 56.5083 93.2151 58.2122 93.6172C59.9161 94.0194 61.6234 92.9641 62.0256 91.2602Z" stroke="#464A65" stroke-width="1.97" stroke-linecap="round" stroke-linejoin="round"/>
<path id="Vector_7" d="M93.8576 91.2613C94.2598 89.5573 93.2045 87.85 91.5006 87.4479C89.7966 87.0457 88.0893 88.101 87.6872 89.8049C87.285 91.5088 88.3403 93.2162 90.0442 93.6183C91.7481 94.0205 93.4555 92.9652 93.8576 91.2613Z" stroke="#464A65" stroke-width="1.97" stroke-linecap="round" stroke-linejoin="round"/>
<path id="Vector_8" d="M59.95 107.67H58.57C56.6 107.67 55 106.07 55 104.1V100.08H63.51V104.1C63.51 106.07 61.91 107.67 59.94 107.67H59.95Z" stroke="#464A65" stroke-width="2.95" stroke-linecap="round" stroke-linejoin="round"/>
<path id="Vector_9" d="M91.4305 107.67H90.0505C88.0805 107.67 86.4805 106.07 86.4805 104.1V100.08H94.9905V104.1C94.9905 106.07 93.3905 107.67 91.4205 107.67H91.4305Z" stroke="#464A65" stroke-width="2.95" stroke-linecap="round" stroke-linejoin="round"/>
</g>
</g>
<defs>
<clipPath id="clip0_839_4221">
<rect width="150" height="150" fill="white"/>
</clipPath>
</defs>
</svg>
