<svg width="150" height="150" viewBox="0 0 150 150" fill="none" xmlns="http://www.w3.org/2000/svg">
<g id="_&#227;&#131;&#172;&#227;&#130;&#164;&#227;&#131;&#164;&#227;&#131;&#188;_1" clip-path="url(#clip0_839_4173)">
<path id="Vector" d="M119 31H31V119H119V31Z" fill="#E6E9F1"/>
<path id="Vector_2" d="M75 150C116.421 150 150 116.421 150 75C150 33.5786 116.421 0 75 0C33.5786 0 0 33.5786 0 75C0 116.421 33.5786 150 75 150Z" fill="#E6E9F1"/>
<g id="Group">
<path id="Vector_3" d="M57.9698 53.93C61.6756 53.93 64.6798 50.9258 64.6798 47.22C64.6798 43.5142 61.6756 40.51 57.9698 40.51C54.2639 40.51 51.2598 43.5142 51.2598 47.22C51.2598 50.9258 54.2639 53.93 57.9698 53.93Z" fill="#E6E9F1" stroke="#464A65" stroke-width="2.95" stroke-linecap="round" stroke-linejoin="round"/>
<g id="Vector_4">
<path d="M64.1197 92.67L62.8797 107.94C62.8097 108.81 62.0797 109.49 61.1997 109.49H55.3197C54.4597 109.49 53.7397 108.84 53.6497 107.99L51.2597 85.86L48.4197 84.2C47.8097 83.84 47.4297 83.18 47.4297 82.47V61.31C47.4297 60.23 48.3097 59.35 49.3897 59.35H66.5397" fill="#E6E9F1"/>
<path d="M64.1197 92.67L62.8797 107.94C62.8097 108.81 62.0797 109.49 61.1997 109.49H55.3197C54.4597 109.49 53.7397 108.84 53.6497 107.99L51.2597 85.86L48.4197 84.2C47.8097 83.84 47.4297 83.18 47.4297 82.47V61.31C47.4297 60.23 48.3097 59.35 49.3897 59.35H66.5397" stroke="#464A65" stroke-width="2.95" stroke-linecap="round" stroke-linejoin="round"/>
</g>
<path id="Vector_5" d="M56.0701 82.41L53.6901 81.02C53.1601 80.71 52.8301 80.14 52.8301 79.53V66.69C52.8301 65.62 53.7001 64.75 54.7701 64.75H61.1701C62.2401 64.75 63.1101 65.62 63.1101 66.69V79.53C63.1101 80.14 62.7801 80.71 62.2501 81.02L59.8001 82.45C59.6301 82.55 59.5201 82.73 59.5001 82.93L58.6901 92.98C58.6301 93.72 57.5501 93.73 57.4801 93L56.3901 82.88C56.3701 82.69 56.2601 82.52 56.0901 82.42L56.0701 82.41Z" fill="#0DB2E7" stroke="#0DB2E7" stroke-width="1.69" stroke-linecap="round" stroke-linejoin="round"/>
<path id="Vector_6" d="M92.1299 53.93C95.8358 53.93 98.8399 50.9258 98.8399 47.22C98.8399 43.5142 95.8358 40.51 92.1299 40.51C88.4241 40.51 85.4199 43.5142 85.4199 47.22C85.4199 50.9258 88.4241 53.93 92.1299 53.93Z" fill="#E6E9F1" stroke="#464A65" stroke-width="2.95" stroke-linecap="round" stroke-linejoin="round"/>
<g id="Vector_7">
<path d="M85.4192 61.65C86.7492 60.23 88.6392 59.35 90.7292 59.35H93.5292C97.3392 59.35 100.499 62.29 100.779 66.09L102.559 90.37C102.619 91.23 102.189 92.05 101.449 92.48L98.8292 94.01L97.1292 107.75C97.0092 108.75 96.1592 109.5 95.1492 109.5H89.6692C88.6892 109.5 87.8592 108.79 87.6992 107.83L85.4192 94.01L84.4492 93.44" fill="#E6E9F1"/>
<path d="M85.4192 61.65C86.7492 60.23 88.6392 59.35 90.7292 59.35H93.5292C97.3392 59.35 100.499 62.29 100.779 66.09L102.559 90.37C102.619 91.23 102.189 92.05 101.449 92.48L98.8292 94.01L97.1292 107.75C97.0092 108.75 96.1592 109.5 95.1492 109.5H89.6692C88.6892 109.5 87.8592 108.79 87.6992 107.83L85.4192 94.01L84.4492 93.44" stroke="#464A65" stroke-width="2.95" stroke-linecap="round" stroke-linejoin="round"/>
</g>
<path id="Vector_8" d="M89.9589 90.4L87.7189 89.09C87.4189 88.91 87.2389 88.58 87.2689 88.23L88.7989 67.34C88.9089 65.88 90.1189 64.75 91.5789 64.75H92.6689C94.1289 64.75 95.3489 65.88 95.4489 67.34L96.9789 88.23C97.0089 88.58 96.8289 88.92 96.5289 89.09L94.1889 90.46C93.9389 90.6 93.7789 90.86 93.7389 91.14L93.0989 96.33C92.9689 97.39 91.4489 97.42 91.2789 96.37L90.3989 91.05C90.3589 90.78 90.1889 90.54 89.9589 90.4Z" fill="#0DB2E7" stroke="#0DB2E7" stroke-width="1.69" stroke-linecap="round" stroke-linejoin="round"/>
<path id="Vector_9" d="M74.7593 68.24C77.5097 68.24 79.7393 66.0104 79.7393 63.26C79.7393 60.5097 77.5097 58.28 74.7593 58.28C72.0089 58.28 69.7793 60.5097 69.7793 63.26C69.7793 66.0104 72.0089 68.24 74.7593 68.24Z" fill="#E6E9F1" stroke="#464A65" stroke-width="2.95" stroke-linecap="round" stroke-linejoin="round"/>
<path id="Vector_10" d="M72.6999 72.27H76.8099C79.9999 72.27 82.5799 74.85 82.5799 78.04V88.68C82.5799 89.68 82.0499 90.61 81.1799 91.11L79.7299 91.96L78.3699 108.76C78.3399 109.18 77.9799 109.51 77.5599 109.51H72.3999C71.9899 109.51 71.6399 109.2 71.5899 108.79L69.7699 91.97L68.3199 91.12C67.4599 90.62 66.9199 89.69 66.9199 88.69V78.05C66.9199 74.86 69.4999 72.28 72.6899 72.28L72.6999 72.27Z" fill="#E6E9F1" stroke="#464A65" stroke-width="2.95" stroke-linecap="round" stroke-linejoin="round"/>
</g>
</g>
<defs>
<clipPath id="clip0_839_4173">
<rect width="150" height="150" fill="white"/>
</clipPath>
</defs>
</svg>
