<svg width="150" height="150" viewBox="0 0 150 150" fill="none" xmlns="http://www.w3.org/2000/svg">
<g id="_&#227;&#131;&#172;&#227;&#130;&#164;&#227;&#131;&#164;&#227;&#131;&#188;_1" clip-path="url(#clip0_839_4197)">
<path id="Vector" d="M119 31H31V119H119V31Z" fill="#E6E9F1"/>
<path id="Vector_2" d="M75 150C116.421 150 150 116.421 150 75C150 33.5786 116.421 0 75 0C33.5786 0 0 33.5786 0 75C0 116.421 33.5786 150 75 150Z" fill="#E6E9F1"/>
<g id="Group">
<path id="Vector_3" d="M72.7297 46.79H97.9997C99.4097 46.79 100.55 47.93 100.55 49.34V99.69C100.55 101.1 99.4097 102.24 97.9997 102.24H57.2297C55.8197 102.24 54.6797 101.1 54.6797 99.69V72.07" stroke="#464A65" stroke-width="2.95" stroke-linecap="round" stroke-linejoin="round"/>
<path id="Vector_4" d="M84.2692 89.33C84.5792 89.7 84.9492 90 85.3692 90.23C85.7692 90.48 86.2592 90.64 86.8392 90.71V86.49C84.5992 85.92 83.5092 84.66 83.5592 82.71C83.5992 80.45 84.6892 79.16 86.8392 78.84V77.51H87.8092V78.84C88.9892 78.85 90.0492 79.27 90.9992 80.1L89.8992 81.53C89.2792 81 88.5892 80.71 87.8092 80.64V84.66C90.1392 85.22 91.2892 86.52 91.2592 88.55C91.2492 89.61 90.9292 90.48 90.3192 91.18C89.6992 91.9 88.8692 92.34 87.8092 92.5V94.54H86.8392V92.5C86.1092 92.49 85.4092 92.32 84.7492 91.99C84.0792 91.65 83.4792 91.22 82.9492 90.71L84.2792 89.31L84.2692 89.33ZM86.8392 80.66C86.4792 80.71 86.1592 80.89 85.8992 81.21C85.7792 81.37 85.6892 81.57 85.6092 81.81C85.5192 82.05 85.4792 82.34 85.4792 82.68C85.4792 83.11 85.5792 83.47 85.7792 83.76C85.9792 84.06 86.3292 84.3 86.8292 84.46V80.66H86.8392ZM87.8092 90.71C88.3892 90.56 88.7892 90.29 89.0192 89.92C89.2392 89.55 89.3392 89.1 89.3392 88.55C89.3392 88.11 89.2392 87.73 89.0392 87.4C88.8192 87.07 88.4192 86.85 87.8092 86.73V90.72V90.71Z" fill="#464A65" stroke="#464A65" stroke-width="0.75" stroke-linecap="round" stroke-linejoin="round"/>
<path id="Vector_5" d="M72.9199 58.82H88.9099" stroke="#464A65" stroke-width="2.95" stroke-linecap="round" stroke-linejoin="round"/>
<path id="Vector_6" d="M64.5488 69.57H88.9088" stroke="#464A65" stroke-width="2.95" stroke-linecap="round" stroke-linejoin="round"/>
<path id="Vector_7" d="M64.5488 80.33H75.9188" stroke="#464A65" stroke-width="2.95" stroke-linecap="round" stroke-linejoin="round"/>
<path id="Vector_8" d="M64.5488 91.09H75.9188" stroke="#464A65" stroke-width="2.95" stroke-linecap="round" stroke-linejoin="round"/>
<path id="Vector_9" d="M67.6859 55.0427C68.8352 47.8437 63.9308 41.0761 56.7318 39.9269C49.5328 38.7777 42.7652 43.682 41.616 50.881C40.4668 58.08 45.3711 64.8476 52.5701 65.9968C59.7691 67.146 66.5367 62.2417 67.6859 55.0427Z" stroke="#464A65" stroke-width="2.95" stroke-linecap="round" stroke-linejoin="round"/>
<path id="Vector_10" d="M54.6394 61.49C59.3504 61.49 63.1694 57.671 63.1694 52.96C63.1694 48.249 59.3504 44.43 54.6394 44.43C49.9284 44.43 46.1094 48.249 46.1094 52.96C46.1094 57.671 49.9284 61.49 54.6394 61.49Z" fill="#0DB2E7" stroke="#0DB2E7" stroke-width="1.69" stroke-linecap="round" stroke-linejoin="round"/>
<g id="Group_2">
<path id="Vector_11" d="M55.7305 49.13H53.5605V56.78H55.7305V49.13Z" fill="#E6E9F1" stroke="#E6E9F1" stroke-width="1.69" stroke-linecap="round" stroke-linejoin="round"/>
<path id="Vector_12" d="M58.4703 51.87H50.8203V54.04H58.4703V51.87Z" fill="#E6E9F1" stroke="#E6E9F1" stroke-width="1.69" stroke-linecap="round" stroke-linejoin="round"/>
</g>
</g>
</g>
<defs>
<clipPath id="clip0_839_4197">
<rect width="150" height="150" fill="white"/>
</clipPath>
</defs>
</svg>
