<svg width="150" height="150" viewBox="0 0 150 150" fill="none" xmlns="http://www.w3.org/2000/svg">
<g id="_&#227;&#131;&#172;&#227;&#130;&#164;&#227;&#131;&#164;&#227;&#131;&#188;_1" clip-path="url(#clip0_839_4213)">
<path id="Vector" d="M119 31H31V119H119V31Z" fill="#E6E9F1"/>
<path id="Vector_2" d="M75 150C116.421 150 150 116.421 150 75C150 33.5786 116.421 0 75 0C33.5786 0 0 33.5786 0 75C0 116.421 33.5786 150 75 150Z" fill="#E6E9F1"/>
<g id="Group">
<path id="Vector_3" d="M95.7892 41.6799H90.4892C86.2592 41.6799 83.6492 45.1099 83.6492 49.3399C83.6492 49.3399 82.9192 69.9599 82.8092 77.4199C82.7792 79.1899 83.8192 80.1699 84.2592 80.6499C85.4392 81.9299 88.5492 82.2899 89.7892 82.8199C90.5892 83.1599 90.9992 83.8599 90.9992 84.5199V106.48C90.9992 107.55 91.8592 108.41 92.9292 108.41H95.7792C96.8492 108.41 97.7092 107.54 97.7092 106.48V43.6099C97.7092 42.5399 96.8392 41.6699 95.7692 41.6699L95.7892 41.6799Z" stroke="#464A65" stroke-width="2.95" stroke-linecap="round" stroke-linejoin="round"/>
<path id="Vector_4" d="M67.8493 42.74L67.3593 56.68C67.3793 57.33 66.5193 57.87 65.8593 57.87H65.6993C65.0793 57.87 64.2293 57.38 64.2093 56.76L63.4693 42.71C63.4493 42.08 63.2693 41.58 62.6393 41.58H61.1093C60.4793 41.58 60.3093 42.08 60.2893 42.71L59.5493 56.76C59.5193 57.38 58.6793 57.87 58.0593 57.87H57.8993C57.2493 57.87 56.3893 57.33 56.4093 56.68L55.9193 42.74C55.9193 42.1 55.3993 41.58 54.7593 41.58H53.6293C53.0093 41.58 52.4993 42.07 52.4693 42.69L52.2793 67.49C52.2793 70.9 54.2293 73.67 57.6393 73.67H58.6593V106.83C58.6593 107.7 59.3693 108.41 60.2393 108.41H63.6993C64.5693 108.41 65.2793 107.7 65.2793 106.83V73.67H66.2993C69.7193 73.67 71.6693 70.9 71.6693 67.49L71.4793 42.69C71.4493 42.07 70.9393 41.58 70.3193 41.58H68.7193C68.0793 41.58 67.8293 42.1 67.8293 42.74H67.8493Z" stroke="#464A65" stroke-width="2.95" stroke-linecap="round" stroke-linejoin="round"/>
<path id="Vector_5" d="M88.8886 64.09L88.5586 74.77" stroke="#0DB2E7" stroke-width="1.97" stroke-linecap="round" stroke-linejoin="round"/>
</g>
</g>
<defs>
<clipPath id="clip0_839_4213">
<rect width="150" height="150" fill="white"/>
</clipPath>
</defs>
</svg>
