<svg width="150" height="150" viewBox="0 0 150 150" fill="none" xmlns="http://www.w3.org/2000/svg">
<g id="_&#227;&#131;&#172;&#227;&#130;&#164;&#227;&#131;&#164;&#227;&#131;&#188;_1" clip-path="url(#clip0_839_4186)">
<path id="Vector" d="M119 31H31V119H119V31Z" fill="#E6E9F1"/>
<path id="Vector_2" d="M75 150C116.421 150 150 116.421 150 75C150 33.5786 116.421 0 75 0C33.5786 0 0 33.5786 0 75C0 116.421 33.5786 150 75 150Z" fill="#E6E9F1"/>
<g id="Group">
<path id="Vector_3" d="M86.0093 56.3901L93.6093 63.9901C94.8193 65.2001 94.8193 67.17 93.6093 68.38L66.0093 95.9801L54.0293 84.0001L81.6293 56.4001C82.8393 55.1901 84.7993 55.1901 86.0093 56.4001V56.3901Z" stroke="#464A65" stroke-width="2.95" stroke-linecap="round" stroke-linejoin="round"/>
<path id="Vector_4" d="M92.2744 49.5001L88.7812 52.9932L96.9978 61.2097L100.491 57.7166L92.2744 49.5001Z" stroke="#464A65" stroke-width="2.95" stroke-linecap="round" stroke-linejoin="round"/>
<path id="Vector_5" d="M53.0732 88.7072L49.5801 92.2003L57.7967 100.417L61.2898 96.9238L53.0732 88.7072Z" stroke="#464A65" stroke-width="2.95" stroke-linecap="round" stroke-linejoin="round"/>
<path id="Vector_6" d="M99.4688 50.53L103.969 46.03" stroke="#464A65" stroke-width="2.95" stroke-linecap="round" stroke-linejoin="round"/>
<path id="Vector_7" d="M61.0193 103.97L46.0293 88.98" stroke="#464A65" stroke-width="2.95" stroke-linecap="round" stroke-linejoin="round"/>
<path id="Vector_8" d="M83.6046 61.5466L72.4746 72.6339L77.3443 77.5222L88.4742 66.4349L83.6046 61.5466Z" fill="#0DB2E7" stroke="#0DB2E7" stroke-width="1.69" stroke-linecap="round" stroke-linejoin="round"/>
</g>
</g>
<defs>
<clipPath id="clip0_839_4186">
<rect width="150" height="150" fill="white"/>
</clipPath>
</defs>
</svg>
