<svg width="1924" height="1080" viewBox="0 0 1924 1080" fill="none" xmlns="http://www.w3.org/2000/svg">
<mask id="mask0_725_2980" style="mask-type:alpha" maskUnits="userSpaceOnUse" x="0" y="0" width="1924" height="1080">
<path fill-rule="evenodd" clip-rule="evenodd" d="M1201.37 0L752.674 1080H0V0H1201.37ZM1924 0V1080H802.752L1251.45 0H1924Z" fill="white"/>
</mask>
<g mask="url(#mask0_725_2980)">
<path d="M1291.23 809.656H1305.81V813.716H1295.44V818.269H1304.62V822.329H1295.44V826.94H1306.22V831H1291.23V809.656Z" fill="black"/>
<path d="M1271.31 809.656H1285.71V813.716H1280.52V831H1276.3V813.716H1271.31V809.656Z" fill="black"/>
<path d="M1261.58 809.656H1265.79V831H1261.58V809.656Z" fill="black"/>
<path d="M1254.61 814.818C1253.8 814.373 1252.96 814.006 1252.11 813.716C1251.28 813.426 1250.49 813.281 1249.76 813.281C1248.85 813.281 1248.13 813.465 1247.61 813.832C1247.09 814.199 1246.82 814.75 1246.82 815.485C1246.82 815.988 1247.02 816.442 1247.41 816.848C1247.81 817.235 1248.32 817.583 1248.94 817.892C1249.58 818.201 1250.24 818.482 1250.92 818.733C1251.75 819.042 1252.56 819.439 1253.33 819.922C1254.1 820.386 1254.74 821.034 1255.25 821.865C1255.75 822.677 1256 823.76 1256 825.113C1256 826.196 1255.72 827.201 1255.16 828.129C1254.6 829.057 1253.78 829.811 1252.69 830.391C1251.61 830.952 1250.27 831.232 1248.68 831.232C1247.46 831.232 1246.21 831.048 1244.94 830.681C1243.68 830.314 1242.49 829.734 1241.36 828.941L1243.22 825.664C1243.96 826.205 1244.8 826.65 1245.75 826.998C1246.7 827.346 1247.55 827.52 1248.31 827.52C1248.81 827.52 1249.31 827.452 1249.82 827.317C1250.34 827.162 1250.76 826.911 1251.09 826.563C1251.44 826.215 1251.62 825.732 1251.62 825.113C1251.62 824.475 1251.31 823.924 1250.69 823.46C1250.09 822.977 1249.36 822.571 1248.51 822.242C1247.85 821.991 1247.17 821.701 1246.48 821.372C1245.78 821.043 1245.12 820.647 1244.5 820.183C1243.9 819.7 1243.41 819.11 1243.02 818.414C1242.65 817.699 1242.47 816.829 1242.47 815.804C1242.47 814.567 1242.74 813.494 1243.28 812.585C1243.84 811.676 1244.63 810.961 1245.63 810.439C1246.64 809.898 1247.8 809.598 1249.12 809.54C1250.84 809.54 1252.24 809.743 1253.3 810.149C1254.39 810.555 1255.35 811.038 1256.21 811.599L1254.61 814.818Z" fill="black"/>
<path d="M1361.56 765.656H1375.97V769.716H1370.77V787H1366.55V769.716H1361.56V765.656Z" fill="black"/>
<path d="M1351.83 765.656H1356.04V787H1351.83V765.656Z" fill="black"/>
<path d="M1332.2 779.112C1332.2 779.789 1332.4 780.437 1332.81 781.055C1333.22 781.674 1333.75 782.177 1334.41 782.563C1335.08 782.95 1335.82 783.143 1336.61 783.143C1337.49 783.143 1338.26 782.95 1338.94 782.563C1339.62 782.177 1340.15 781.674 1340.54 781.055C1340.94 780.437 1341.15 779.789 1341.15 779.112V765.656H1345.3V779.199C1345.3 780.765 1344.91 782.157 1344.14 783.375C1343.36 784.574 1342.32 785.521 1341 786.217C1339.68 786.894 1338.22 787.232 1336.61 787.232C1335.03 787.232 1333.57 786.894 1332.26 786.217C1330.96 785.521 1329.92 784.574 1329.15 783.375C1328.37 782.157 1327.99 780.765 1327.99 779.199V765.656H1332.2V779.112Z" fill="black"/>
<path d="M1313.54 765.656C1316.23 765.656 1318.29 766.314 1319.72 767.628C1321.18 768.924 1321.9 770.664 1321.9 772.848C1321.9 774.066 1321.64 775.265 1321.12 776.444C1320.61 777.624 1319.75 778.561 1318.53 779.257L1323.5 787H1318.59L1314.09 780.214H1311.27V787H1307.06V765.656H1313.54ZM1314.26 776.154C1315.11 776.154 1315.77 775.98 1316.24 775.632C1316.72 775.265 1317.06 774.84 1317.25 774.356C1317.45 773.854 1317.54 773.399 1317.54 772.993C1317.54 772.761 1317.51 772.471 1317.43 772.123C1317.37 771.756 1317.23 771.389 1317.02 771.021C1316.81 770.654 1316.48 770.345 1316.03 770.093C1315.61 769.842 1315.03 769.716 1314.29 769.716H1311.27V776.154H1314.26Z" fill="black"/>
<path d="M1301.39 785.232C1301.16 785.425 1300.72 785.686 1300.08 786.015C1299.46 786.343 1298.7 786.633 1297.79 786.885C1296.88 787.136 1295.87 787.252 1294.77 787.233C1293.08 787.194 1291.57 786.894 1290.23 786.334C1288.92 785.754 1287.79 784.971 1286.87 783.985C1285.95 782.999 1285.26 781.868 1284.77 780.592C1284.29 779.316 1284.05 777.953 1284.05 776.503C1284.05 774.337 1284.48 772.423 1285.35 770.761C1286.23 769.098 1287.44 767.793 1288.99 766.846C1290.55 765.898 1292.37 765.425 1294.45 765.425C1295.88 765.425 1297.15 765.618 1298.25 766.005C1299.35 766.391 1300.25 766.807 1300.95 767.252L1299.3 771.225C1298.81 770.857 1298.16 770.48 1297.35 770.094C1296.56 769.688 1295.64 769.485 1294.59 769.485C1293.51 769.485 1292.49 769.784 1291.54 770.384C1290.61 770.983 1289.86 771.795 1289.28 772.82C1288.71 773.825 1288.43 774.975 1288.43 776.271C1288.43 777.643 1288.69 778.852 1289.22 779.896C1289.74 780.92 1290.49 781.723 1291.45 782.303C1292.42 782.883 1293.56 783.173 1294.85 783.173C1295.99 783.173 1296.97 782.989 1297.79 782.622C1298.6 782.254 1299.22 781.868 1299.64 781.462L1301.39 785.232Z" fill="black"/>
<path d="M1264.56 765.656H1279.14V769.716H1268.77V774.269H1277.95V778.329H1268.77V782.94H1279.55V787H1264.56V765.656Z" fill="black"/>
<path d="M1249.67 765.656C1252.36 765.656 1254.42 766.314 1255.86 767.628C1257.31 768.924 1258.04 770.664 1258.04 772.848C1258.04 774.066 1257.77 775.265 1257.25 776.444C1256.75 777.624 1255.89 778.561 1254.67 779.257L1259.63 787H1254.72L1250.22 780.214H1247.41V787H1243.19V765.656H1249.67ZM1250.4 776.154C1251.25 776.154 1251.91 775.98 1252.37 775.632C1252.86 775.265 1253.19 774.84 1253.39 774.356C1253.58 773.854 1253.68 773.399 1253.68 772.993C1253.68 772.761 1253.64 772.471 1253.56 772.123C1253.5 771.756 1253.37 771.389 1253.16 771.021C1252.94 770.654 1252.61 770.345 1252.17 770.093C1251.74 769.842 1251.16 769.716 1250.43 769.716H1247.41V776.154H1250.4Z" fill="black"/>
<path d="M1468.87 740.855C1468.62 741.125 1468.22 741.406 1467.68 741.696C1467.14 741.966 1466.51 742.218 1465.79 742.45C1465.1 742.682 1464.38 742.865 1463.64 743.001C1462.91 743.155 1462.21 743.233 1461.55 743.233C1459.25 743.233 1457.24 742.788 1455.54 741.899C1453.84 741.009 1452.52 739.791 1451.59 738.245C1450.68 736.698 1450.22 734.929 1450.22 732.938C1450.22 730.985 1450.51 729.293 1451.1 727.863C1451.7 726.413 1452.5 725.214 1453.51 724.267C1454.53 723.3 1455.7 722.585 1457.02 722.121C1458.36 721.657 1459.75 721.425 1461.2 721.425C1462.58 721.425 1463.84 721.579 1464.98 721.889C1466.12 722.179 1467.09 722.546 1467.88 722.991L1466.52 726.906C1466.17 726.712 1465.71 726.519 1465.12 726.326C1464.54 726.132 1463.95 725.978 1463.35 725.862C1462.75 725.726 1462.22 725.659 1461.75 725.659C1459.45 725.659 1457.68 726.239 1456.44 727.399C1455.2 728.539 1454.58 730.26 1454.58 732.561C1454.58 733.895 1454.88 735.045 1455.48 736.012C1456.08 736.978 1456.91 737.723 1457.98 738.245C1459.06 738.767 1460.29 739.028 1461.67 739.028C1462.27 739.028 1462.82 738.989 1463.32 738.912C1463.83 738.815 1464.25 738.67 1464.6 738.477V735.896H1460.91V731.836H1468.87V740.855Z" fill="black"/>
<path d="M1444.46 743.87L1429.5 730.385L1429.59 743H1425.32V720.815H1425.49L1440.42 734.503L1440.33 721.656H1444.57V743.87H1444.46Z" fill="black"/>
<path d="M1414.14 721.656H1418.35V743H1414.14V721.656Z" fill="black"/>
<path d="M1399.25 721.656C1401.94 721.656 1404 722.314 1405.43 723.628C1406.89 724.924 1407.61 726.664 1407.61 728.848C1407.61 730.066 1407.35 731.265 1406.83 732.444C1406.33 733.624 1405.46 734.561 1404.24 735.257L1409.21 743H1404.3L1399.8 736.214H1396.98V743H1392.77V721.656H1399.25ZM1399.97 732.154C1400.83 732.154 1401.48 731.98 1401.95 731.632C1402.43 731.265 1402.77 730.84 1402.97 730.356C1403.16 729.854 1403.26 729.399 1403.26 728.993C1403.26 728.761 1403.22 728.471 1403.14 728.123C1403.08 727.756 1402.95 727.389 1402.73 727.021C1402.52 726.654 1402.19 726.345 1401.75 726.093C1401.32 725.842 1400.74 725.716 1400 725.716H1396.98V732.154H1399.97Z" fill="black"/>
<path d="M1371.97 721.656H1386.55V725.716H1376.19V730.269H1385.36V734.329H1376.19V738.94H1386.96V743H1371.97V721.656Z" fill="black"/>
<path d="M1351.18 721.656H1365.76V725.716H1355.39V730.269H1364.57V734.329H1355.39V738.94H1366.16V743H1351.18V721.656Z" fill="black"/>
<path d="M1344.1 743.87L1329.15 730.385L1329.23 743H1324.96V720.815H1325.14L1340.07 734.503L1339.98 721.656H1344.22V743.87H1344.1Z" fill="black"/>
<path d="M1313.78 721.656H1317.99V743H1313.78V721.656Z" fill="black"/>
<path d="M1307.55 740.855C1307.29 741.125 1306.9 741.406 1306.35 741.696C1305.81 741.966 1305.18 742.218 1304.47 742.45C1303.77 742.682 1303.05 742.865 1302.32 743.001C1301.58 743.155 1300.88 743.233 1300.23 743.233C1297.92 743.233 1295.92 742.788 1294.21 741.899C1292.51 741.009 1291.19 739.791 1290.26 738.245C1289.35 736.698 1288.9 734.929 1288.9 732.938C1288.9 730.985 1289.19 729.293 1289.77 727.863C1290.37 726.413 1291.17 725.214 1292.18 724.267C1293.21 723.3 1294.38 722.585 1295.69 722.121C1297.03 721.657 1298.42 721.425 1299.88 721.425C1301.25 721.425 1302.51 721.579 1303.65 721.889C1304.8 722.179 1305.76 722.546 1306.56 722.991L1305.19 726.906C1304.84 726.712 1304.38 726.519 1303.8 726.326C1303.22 726.132 1302.63 725.978 1302.03 725.862C1301.43 725.726 1300.89 725.659 1300.43 725.659C1298.12 725.659 1296.35 726.239 1295.11 727.399C1293.87 728.539 1293.25 730.26 1293.25 732.561C1293.25 733.895 1293.55 735.045 1294.16 736.012C1294.76 736.978 1295.59 737.723 1296.65 738.245C1297.74 738.767 1298.97 739.028 1300.34 739.028C1300.94 739.028 1301.49 738.989 1302 738.912C1302.5 738.815 1302.93 738.67 1303.28 738.477V735.896H1299.59V731.836H1307.55V740.855Z" fill="black"/>
<path d="M1283.13 743.87L1268.17 730.385L1268.26 743H1263.99V720.815H1264.16L1279.09 734.503L1279.01 721.656H1283.25V743.87H1283.13Z" fill="black"/>
<path d="M1243.19 721.656H1257.77V725.716H1247.41V730.269H1256.58V734.329H1247.41V738.94H1258.18V743H1243.19V721.656Z" fill="black"/>
<path d="M1351.41 677.656H1355.62V694.94H1365.67V699H1351.41V677.656Z" fill="black"/>
<path d="M1327.32 699L1336.97 676.815H1337.2L1346.84 699H1341.96L1340.31 694.824H1333.22L1331.48 699H1327.32ZM1334.7 691.286H1338.91L1336.85 686.095L1334.7 691.286Z" fill="black"/>
<path d="M1311.54 677.656H1325.95V681.716H1320.75V699H1316.54V681.716H1311.54V677.656Z" fill="black"/>
<path d="M1301.81 677.656H1306.02V699H1301.81V677.656Z" fill="black"/>
<path d="M1295.58 696.855C1295.32 697.125 1294.93 697.406 1294.38 697.696C1293.84 697.966 1293.21 698.218 1292.5 698.45C1291.8 698.682 1291.08 698.865 1290.35 699.001C1289.61 699.155 1288.91 699.233 1288.26 699.233C1285.95 699.233 1283.95 698.788 1282.24 697.899C1280.54 697.009 1279.22 695.791 1278.29 694.245C1277.38 692.698 1276.93 690.929 1276.93 688.938C1276.93 686.985 1277.22 685.293 1277.8 683.863C1278.4 682.413 1279.2 681.214 1280.21 680.267C1281.24 679.3 1282.41 678.585 1283.72 678.121C1285.06 677.657 1286.45 677.425 1287.91 677.425C1289.28 677.425 1290.54 677.579 1291.68 677.889C1292.83 678.179 1293.79 678.546 1294.59 678.991L1293.22 682.906C1292.87 682.712 1292.41 682.519 1291.83 682.326C1291.25 682.132 1290.66 681.978 1290.06 681.862C1289.46 681.726 1288.92 681.659 1288.46 681.659C1286.15 681.659 1284.38 682.239 1283.14 683.399C1281.9 684.539 1281.28 686.26 1281.28 688.561C1281.28 689.895 1281.59 691.045 1282.19 692.012C1282.79 692.978 1283.62 693.723 1284.68 694.245C1285.77 694.767 1287 695.028 1288.37 695.028C1288.97 695.028 1289.52 694.989 1290.03 694.912C1290.53 694.815 1290.96 694.67 1291.31 694.477V691.896H1287.62V687.836H1295.58V696.855Z" fill="black"/>
<path d="M1267.05 677.656H1271.27V699H1267.05V677.656Z" fill="black"/>
<path d="M1243.19 699V677.656H1249.58C1251.73 677.656 1253.56 677.975 1255.07 678.613C1256.58 679.251 1257.79 680.102 1258.7 681.165C1259.63 682.229 1260.31 683.418 1260.74 684.732C1261.16 686.047 1261.38 687.371 1261.38 688.705C1261.38 690.291 1261.09 691.721 1260.5 692.997C1259.94 694.254 1259.17 695.337 1258.18 696.245C1257.19 697.135 1256.05 697.821 1254.75 698.304C1253.46 698.768 1252.08 699 1250.63 699H1243.19ZM1247.41 694.94H1249.9C1252.03 694.94 1253.75 694.389 1255.04 693.287C1256.36 692.185 1257.02 690.561 1257.02 688.415C1257.02 687.023 1256.79 685.892 1256.32 685.022C1255.88 684.133 1255.32 683.447 1254.64 682.963C1253.98 682.48 1253.3 682.151 1252.6 681.977C1251.91 681.784 1251.32 681.687 1250.83 681.687H1247.41V694.94Z" fill="black"/>
<path d="M1324.76 655.87L1309.8 642.385L1309.89 655H1305.62V632.815H1305.79L1320.72 646.503L1320.63 633.656H1324.88V655.87H1324.76Z" fill="black"/>
<path d="M1294.44 633.656H1298.65V655H1294.44V633.656Z" fill="black"/>
<path d="M1287.47 638.818C1286.65 638.373 1285.82 638.006 1284.97 637.716C1284.14 637.426 1283.35 637.281 1282.62 637.281C1281.71 637.281 1280.99 637.465 1280.47 637.832C1279.94 638.199 1279.68 638.75 1279.68 639.485C1279.68 639.988 1279.88 640.442 1280.26 640.848C1280.67 641.235 1281.18 641.583 1281.8 641.892C1282.44 642.201 1283.1 642.482 1283.78 642.733C1284.61 643.042 1285.41 643.439 1286.19 643.922C1286.96 644.386 1287.6 645.034 1288.1 645.865C1288.61 646.677 1288.86 647.76 1288.86 649.113C1288.86 650.196 1288.58 651.201 1288.02 652.129C1287.46 653.057 1286.63 653.811 1285.55 654.391C1284.46 654.952 1283.13 655.232 1281.54 655.232C1280.32 655.232 1279.07 655.048 1277.79 654.681C1276.54 654.314 1275.34 653.734 1274.22 652.941L1276.08 649.664C1276.82 650.205 1277.66 650.65 1278.61 650.998C1279.56 651.346 1280.41 651.52 1281.16 651.52C1281.67 651.52 1282.17 651.452 1282.67 651.317C1283.2 651.162 1283.62 650.911 1283.95 650.563C1284.3 650.215 1284.47 649.732 1284.47 649.113C1284.47 648.475 1284.16 647.924 1283.54 647.46C1282.94 646.977 1282.22 646.571 1281.37 646.242C1280.71 645.991 1280.03 645.701 1279.33 645.372C1278.64 645.043 1277.98 644.647 1277.36 644.183C1276.76 643.7 1276.26 643.11 1275.88 642.414C1275.51 641.699 1275.32 640.829 1275.32 639.804C1275.32 638.567 1275.6 637.494 1276.14 636.585C1276.7 635.676 1277.48 634.961 1278.49 634.439C1279.5 633.898 1280.66 633.598 1281.98 633.54C1283.7 633.54 1285.09 633.743 1286.16 634.149C1287.24 634.555 1288.21 635.038 1289.06 635.599L1287.47 638.818Z" fill="black"/>
<path d="M1264.87 633.656H1269.08V655H1264.87V633.656Z" fill="black"/>
<path d="M1240.78 655L1250.43 632.815H1250.66L1260.3 655H1255.42L1253.77 650.824H1246.68L1244.94 655H1240.78ZM1248.16 647.286H1252.37L1250.31 642.095L1248.16 647.286Z" fill="black"/>
<path d="M1110.94 766.08L1035.78 630H1071.95L1126.64 732.48L1180.48 630H1216.38L1140.38 766.08V833H1110.94V766.08Z" fill="black"/>
<path d="M865.721 833L955.181 621.6H956.863L1046.32 833H1012.39L992.479 782.04H915.919L894.887 833H865.721ZM926.015 756.84H982.383L954.9 686.84L926.015 756.84Z" fill="black"/>
<path d="M611.373 631.119H645.587L696.065 773.639L730.84 684.039L710.087 631.119H739.253L793.938 770.559L841.332 631.119H872.741L793.097 841.959L745.422 720.719L692.42 842.519L611.373 631.119Z" fill="black"/>
<path d="M503.986 684.22L503.986 632.92L514.911 632.92L514.911 672.988L537.518 672.988L537.518 637.24L548.443 637.24L548.443 672.988L571.483 672.988L571.483 631.408L582.408 631.408L582.408 684.22L503.986 684.22Z" fill="black"/>
<path d="M503.986 706.377L582.408 706.377L582.408 717.717L548.443 717.717L548.443 757.785L582.408 757.785L582.408 769.017L503.986 769.017L503.986 757.785L537.626 757.785L537.626 717.717L503.986 717.717L503.986 706.377Z" fill="black"/>
<path d="M503.986 837.601L503.986 785.437L514.911 785.437L514.911 806.173L582.408 806.173L582.408 817.513L514.911 817.513L514.911 837.601L503.986 837.601Z" fill="black"/>
<path d="M1667.75 567.6C1672.26 567.6 1675.86 571.25 1675.86 575.7C1675.86 580.15 1672.26 583.8 1667.75 583.8C1663.34 583.8 1659.69 580.15 1659.69 575.7C1659.69 571.25 1663.34 567.6 1667.75 567.6ZM1667.75 580.15C1670.25 580.15 1672.26 578.2 1672.26 575.7C1672.26 573.2 1670.25 571.2 1667.75 571.2C1665.35 571.2 1663.29 573.2 1663.29 575.7C1663.29 578.2 1665.35 580.15 1667.75 580.15Z" fill="black"/>
<path d="M1607.61 565C1609.06 563.8 1610.26 562.7 1611.76 561.1C1614.07 558.75 1617.92 553.65 1620.98 550.1C1624.43 546.15 1627.69 545.8 1631.29 549.3C1634.65 552.6 1638.61 557.7 1641.56 560.9C1644.71 564.35 1648.92 568.8 1653.68 573.05L1648.57 578.9C1645.02 575.55 1640.76 570.8 1637.6 567.1C1634.5 563.5 1630.84 558.75 1628.49 556.15C1626.74 554.25 1625.84 554.5 1624.38 556.3C1622.43 558.8 1618.87 563.7 1616.77 566.5C1615.62 568.1 1614.52 569.9 1613.62 571.2L1607.61 565Z" fill="black"/>
<path d="M1577.51 548.199V552.749H1580.26C1582.17 551.299 1583.97 549.799 1585.67 548.199H1577.51ZM1588.43 570.049V566.849H1571.2V570.049H1588.43ZM1571.2 577.949H1588.43V574.549H1571.2V577.949ZM1600.4 557.999H1582.37C1580.41 559.399 1578.51 560.699 1576.46 561.999H1594.64V584.199H1588.43V582.899H1571.2V584.399H1565.24V568.049C1562.74 569.149 1560.13 570.249 1557.58 571.199C1556.83 569.899 1555.07 567.499 1553.92 566.299C1560.48 564.249 1566.79 561.399 1572.55 557.999H1555.53V552.749H1571.6V548.199H1559.83V543.049H1571.6V537.649H1577.51V543.049H1588.38V545.499C1590.28 543.449 1591.98 541.349 1593.53 539.149L1598.64 541.749C1595.79 545.699 1592.43 549.399 1588.78 552.749H1600.4V557.999Z" fill="black"/>
<path d="M1514.16 564.349H1522.17V560.549H1514.16V564.349ZM1536.6 560.549H1528.38V564.349H1536.6V560.549ZM1518.92 546.349V549.099H1531.59V546.349H1518.92ZM1548.16 571.849V577.249H1528.38V584.399H1522.17V577.249H1502.74V571.849H1522.17V568.899H1508.15V555.949H1522.17V553.499H1513.06V546.349H1503.54V541.299H1513.06V537.649H1518.92V541.299H1531.59V537.649H1537.75V541.299H1547.31V546.349H1537.75V553.499H1528.38V555.949H1543.01V568.899H1528.38V571.849H1548.16Z" fill="black"/>
<path d="M1479.86 568.7H1466.64C1468.34 570.65 1470.44 572.25 1473.05 573.6C1475.7 572.25 1478 570.65 1479.86 568.7ZM1484.87 563.8L1488.72 566.4C1486.47 570.4 1483.26 573.6 1479.36 576.1C1484.16 577.55 1489.92 578.4 1496.48 578.7C1495.23 580.1 1493.78 582.65 1493.03 584.3C1484.92 583.65 1478.21 582.15 1472.75 579.55C1466.64 582.1 1459.53 583.6 1452.11 584.45C1451.66 582.95 1450.36 580.4 1449.31 579.1C1455.72 578.6 1461.73 577.65 1466.89 576C1465.18 574.7 1463.63 573.2 1462.23 571.55C1459.98 572.95 1457.42 574.25 1454.52 575.4C1453.77 574 1452.01 571.9 1450.76 571C1456.42 569.1 1460.63 566.6 1463.53 563.9C1462.63 562.65 1460.58 560.8 1459.28 559.9C1465.39 556.3 1466.19 551.3 1466.24 547.45H1450.71V542H1469.74V537.7H1475.85V542H1495.03V547.45H1482.16V556.45C1482.16 558.95 1481.76 560.4 1480.06 561.25C1478.31 562.05 1476 562.1 1473 562.1C1472.8 560.55 1472.05 558.35 1471.34 556.9C1473.1 556.95 1475.05 556.95 1475.6 556.95C1476.2 556.95 1476.35 556.8 1476.35 556.3V547.45H1471.8C1471.8 551.45 1471.24 556.4 1467.64 560.55L1472.9 561.6C1472.3 562.4 1471.69 563.2 1471.04 564H1483.81L1484.87 563.8ZM1457.12 549.1L1462.68 550.6C1460.63 554.5 1457.32 558.5 1453.87 560.95C1452.77 559.85 1450.86 558.25 1449.76 557.5C1452.87 555.5 1455.82 552.1 1457.12 549.1ZM1483.56 551.55L1488.17 548.9C1491.03 551.7 1494.53 555.6 1496.13 558.25L1491.18 561.3C1489.77 558.6 1486.37 554.5 1483.56 551.55Z" fill="black"/>
<path d="M1408.85 571C1410.9 571 1412.9 567.9 1414.91 561.2C1416.06 557.55 1416.96 553.3 1417.56 549.2C1409.35 550.9 1404.99 558.1 1404.99 563.55C1404.99 568.55 1406.99 571 1408.85 571ZM1422.47 582.05L1418.76 576.2C1420.67 575.95 1422.07 575.7 1423.37 575.4C1429.73 573.9 1434.64 569.35 1434.64 562.15C1434.64 555.3 1430.93 550.2 1424.27 549.05C1423.57 553.25 1422.72 557.85 1421.32 562.5C1418.36 572.5 1414.05 578.6 1408.65 578.6C1403.19 578.6 1398.53 572.55 1398.53 564.2C1398.53 552.8 1408.5 543 1421.37 543C1433.64 543 1441.4 551.55 1441.4 562.35C1441.4 572.75 1434.99 580.15 1422.47 582.05Z" fill="black"/>
<path d="M1353.96 539.7L1360.77 540C1360.07 542.45 1359.07 547.5 1358.77 550.25C1361.12 546.45 1365.43 542.25 1371.04 542.25C1377.95 542.25 1383.31 549 1383.31 559.9C1383.31 573.9 1374.69 580.6 1361.57 583L1357.82 577.25C1368.83 575.55 1376.55 571.95 1376.55 559.95C1376.55 552.3 1373.99 548.05 1369.89 548.05C1364.03 548.05 1358.92 556.85 1358.67 563.35C1358.62 564.7 1358.62 566.3 1358.92 568.6L1352.76 569C1352.51 567.1 1352.16 564.05 1352.16 560.75C1352.16 556.15 1352.81 550 1353.56 544.9C1353.81 543.1 1353.91 541.1 1353.96 539.7Z" fill="black"/>
<path d="M1320.86 538.95L1326.67 544.1C1325.12 545.25 1323.46 546.55 1322.31 547.45C1319.11 550.05 1312.55 555.1 1309.24 557.95C1306.59 560.2 1306.64 560.75 1309.34 563.05C1313.05 566.2 1322.61 573.75 1327.52 578.5L1321.76 583.8C1320.36 582.25 1318.81 580.7 1317.4 579.2C1314.7 576.35 1307.14 569.9 1302.58 566.05C1297.67 561.9 1298.07 559.15 1303.03 555.05C1306.89 551.9 1313.7 546.4 1317.05 543.1C1318.46 541.75 1320.06 540.1 1320.86 538.95Z" fill="black"/>
<path d="M1275.94 539.8C1277.24 541.65 1278.99 544.8 1279.95 546.7L1275.94 548.4C1274.89 546.35 1273.34 543.35 1271.98 541.45L1275.94 539.8ZM1281.9 537.55C1283.2 539.4 1285.05 542.6 1285.96 544.35L1281.95 546.05C1280.95 544 1279.29 541.05 1277.94 539.15L1281.9 537.55ZM1239.48 553.35C1241.29 553.05 1243.79 552.35 1245.59 551.85C1249.4 550.65 1259.46 547.15 1266.73 547.15C1275.69 547.15 1282.75 552.25 1282.75 561.45C1282.75 572.65 1272.08 579.85 1254.56 580.7L1251.7 574.1C1265.12 573.8 1275.64 569.95 1275.64 561.3C1275.64 556.65 1272.43 553.1 1266.47 553.1C1259.16 553.1 1247.5 558.05 1242.29 560.3L1239.48 553.35Z" fill="black"/>
<path d="M1226.61 543.399C1225.71 545.199 1225.01 547.399 1224.41 548.999C1222.31 554.749 1219.05 562.299 1214.99 567.349C1210.74 572.649 1203.73 578.749 1196.01 581.849L1190.31 575.999C1198.12 573.299 1204.88 568.399 1209.34 562.999C1214.14 557.199 1217.45 548.549 1218.8 541.399L1226.61 543.399Z" fill="black"/>
<path d="M1158.06 563.9V571.55C1158.06 574.3 1159.76 575.3 1163.76 575.3C1168.27 575.3 1172.68 575 1176.68 574.6L1176.23 581.35C1172.98 581.55 1167.32 581.75 1162.61 581.75C1153.45 581.75 1151.2 578.6 1151.2 573.55V563.9H1143.03C1141.63 563.9 1139.08 564.05 1137.57 564.15V557.6C1138.98 557.7 1141.48 557.85 1143.03 557.85H1151.2V549.35H1145.74C1143.93 549.35 1142.33 549.4 1140.88 549.5V543.25C1142.33 543.35 1143.93 543.5 1145.74 543.5H1169.82C1171.53 543.5 1173.18 543.4 1174.33 543.25V549.5C1173.03 549.45 1171.63 549.35 1169.82 549.35H1158.06V557.85H1173.18C1174.23 557.85 1176.74 557.75 1178.04 557.65L1178.09 564.05C1176.68 563.9 1174.43 563.9 1173.33 563.9H1158.06Z" fill="black"/>
<path d="M1719.35 492.6C1723.86 492.6 1727.47 496.25 1727.47 500.7C1727.47 505.15 1723.86 508.8 1719.35 508.8C1714.95 508.8 1711.29 505.15 1711.29 500.7C1711.29 496.25 1714.95 492.6 1719.35 492.6ZM1719.35 505.15C1721.86 505.15 1723.86 503.2 1723.86 500.7C1723.86 498.2 1721.86 496.2 1719.35 496.2C1716.95 496.2 1714.9 498.2 1714.9 500.7C1714.9 503.2 1716.95 505.15 1719.35 505.15Z" fill="black"/>
<path d="M1659.21 490C1660.66 488.8 1661.86 487.7 1663.37 486.1C1665.67 483.75 1669.53 478.65 1672.58 475.1C1676.04 471.15 1679.29 470.8 1682.9 474.3C1686.25 477.6 1690.21 482.7 1693.16 485.9C1696.32 489.35 1700.53 493.8 1705.28 498.05L1700.17 503.9C1696.62 500.55 1692.36 495.8 1689.21 492.1C1686.1 488.5 1682.45 483.75 1680.09 481.15C1678.34 479.25 1677.44 479.5 1675.99 481.3C1674.03 483.8 1670.48 488.7 1668.38 491.5C1667.22 493.1 1666.12 494.9 1665.22 496.2L1659.21 490Z" fill="black"/>
<path d="M1629.11 473.199V477.749H1631.87C1633.77 476.299 1635.57 474.799 1637.28 473.199H1629.11ZM1640.03 495.049V491.849H1622.8V495.049H1640.03ZM1622.8 502.949H1640.03V499.549H1622.8V502.949ZM1652 482.999H1633.97C1632.02 484.399 1630.12 485.699 1628.06 486.999H1646.24V509.199H1640.03V507.899H1622.8V509.399H1616.84V493.049C1614.34 494.149 1611.74 495.249 1609.18 496.199C1608.43 494.899 1606.68 492.499 1605.53 491.299C1612.09 489.249 1618.4 486.399 1624.16 482.999H1607.13V477.749H1623.2V473.199H1611.44V468.049H1623.2V462.649H1629.11V468.049H1639.98V470.499C1641.88 468.449 1643.59 466.349 1645.14 464.149L1650.25 466.749C1647.39 470.699 1644.04 474.399 1640.38 477.749H1652V482.999Z" fill="black"/>
<path d="M1570.77 482.5L1571.82 487.9C1569.87 488.6 1567.87 489.3 1565.87 489.95V502.65C1565.87 505.55 1565.36 507 1563.66 507.85C1562.01 508.8 1559.61 508.95 1556.05 508.95C1555.9 507.4 1555.1 505.05 1554.4 503.55C1556.4 503.6 1558.45 503.6 1559.1 503.6C1559.81 503.6 1560.06 503.35 1560.06 502.65V491.9C1558.3 492.5 1556.65 493.05 1555.05 493.55L1553.35 487.9C1555.25 487.4 1557.55 486.7 1560.06 486V477.65H1553.75V472.15H1560.06V462.7H1565.87V472.15H1571.17V477.65H1565.87V484.15C1567.52 483.6 1569.12 483.05 1570.77 482.5ZM1592.71 501V488.9H1581.04V501H1592.71ZM1600.22 471.55H1585.45C1584.34 475.45 1583.04 479.5 1581.34 483.3H1598.57V509.1H1592.71V506.55H1581.04V509.35H1575.43V493.55C1574.28 495.05 1573.08 496.4 1571.82 497.65C1570.87 496.35 1569.07 494.2 1567.92 493.05C1573.48 487.95 1577.23 479.25 1579.14 471.55H1571.42V465.9H1600.22V471.55Z" fill="black"/>
<path d="M1517.09 468.8H1509.23V471.35H1517.09V468.8ZM1509.23 477.95H1517.09V475.2H1509.23V477.95ZM1522.7 482.25H1509.23V509.35H1503.42V464.55H1522.7V482.25ZM1521.9 493.25H1526.55V489.5H1521.9V493.25ZM1537.27 498.1H1531.76V508.4H1526.55V498.1H1521.75C1521.25 501.55 1519.59 506.4 1515.34 509.3C1514.49 508.25 1512.68 506.7 1511.53 505.9C1514.74 503.9 1516.14 500.65 1516.64 498.1H1511.58V493.25H1516.84V489.5H1512.28V484.8H1536.47V489.5H1531.76V493.25H1537.27V498.1ZM1531.66 478.05H1539.77V475.2H1531.66V478.05ZM1539.77 468.8H1531.66V471.35H1539.77V468.8ZM1545.63 464.55V502.4C1545.63 505.45 1545.08 507.1 1543.28 508.05C1541.48 509.05 1538.87 509.2 1535.07 509.2C1534.87 507.55 1534.07 504.85 1533.26 503.3C1535.52 503.4 1537.97 503.4 1538.72 503.35C1539.52 503.35 1539.77 503.05 1539.77 502.35V482.35H1526V464.55H1545.63Z" fill="black"/>
<path d="M1460.45 496C1462.5 496 1464.51 492.9 1466.51 486.2C1467.66 482.55 1468.56 478.3 1469.16 474.2C1460.95 475.9 1456.59 483.1 1456.59 488.55C1456.59 493.55 1458.6 496 1460.45 496ZM1474.07 507.05L1470.37 501.2C1472.27 500.95 1473.67 500.7 1474.97 500.4C1481.33 498.9 1486.24 494.35 1486.24 487.15C1486.24 480.3 1482.54 475.2 1475.87 474.05C1475.17 478.25 1474.32 482.85 1472.92 487.5C1469.97 497.5 1465.66 503.6 1460.25 503.6C1454.79 503.6 1450.13 497.55 1450.13 489.2C1450.13 477.8 1460.1 468 1472.97 468C1485.24 468 1493 476.55 1493 487.35C1493 497.75 1486.59 505.15 1474.07 507.05Z" fill="black"/>
<path d="M1441.82 465.35V470.55H1429.95V465.35H1441.82ZM1429.45 470.75L1425.4 472.6C1424.8 470.75 1423.39 467.8 1422.09 465.6L1426.05 463.95C1427.35 466.1 1428.85 468.9 1429.45 470.75ZM1403.91 462.7L1409.27 464.6C1406.62 468.95 1402.41 473.65 1398.55 476.7C1397.85 475.45 1396.4 473.25 1395.5 472.25C1398.7 469.8 1402.16 465.85 1403.91 462.7ZM1410.07 483.5L1414.83 484.2C1414.33 491.15 1413.28 498.1 1411.32 502.65C1410.47 501.95 1408.42 500.55 1407.32 499.9C1409.12 495.9 1409.77 489.65 1410.07 483.5ZM1428.2 478.7H1421.74V508.55H1416.23V478.7H1409.57V476.65C1408.72 478.35 1407.72 480.1 1406.67 481.75V509.35H1401.21V489.1C1400.16 490.25 1399.16 491.35 1398.1 492.3C1397.55 491.05 1395.95 488.05 1394.9 486.8C1398.85 483.5 1402.71 478.3 1405.06 473.15L1409.57 474.7V473.25H1416.23V463.4H1421.74V473.25H1428.2V478.7ZM1422.69 484.45L1427.05 483.6C1428.1 488.4 1429 494.4 1429.3 498.45L1424.69 499.35C1424.54 495.35 1423.64 489.2 1422.69 484.45ZM1442.57 479.4V484.7H1438.72V502.9C1438.72 505.7 1438.32 507.3 1436.56 508.25C1434.81 509.2 1432.36 509.3 1429.05 509.3C1428.9 507.65 1428.2 505.25 1427.45 503.5C1429.5 503.6 1431.61 503.6 1432.21 503.6C1432.86 503.6 1433.06 503.45 1433.06 502.8V484.7H1428.7V479.4H1442.57Z" fill="black"/>
<path d="M1359.99 483.9L1360.75 489.35C1358.99 489.85 1357.19 490.35 1355.39 490.8V502.75C1355.39 505.65 1354.84 507.05 1353.13 508C1351.48 508.9 1349.08 509.05 1345.57 509.05C1345.32 507.55 1344.57 505.2 1343.87 503.65C1345.82 503.7 1347.88 503.7 1348.53 503.7C1349.28 503.7 1349.48 503.45 1349.48 502.7V492.4L1344.62 493.6L1343.07 487.95C1344.92 487.6 1347.07 487.1 1349.48 486.5V477.65H1343.72V472.15H1349.48V462.65H1355.39V472.15H1360.29V477.65H1355.39V485.05L1359.99 483.9ZM1380.93 486.6H1368.76C1370.16 489.9 1372.16 492.9 1374.67 495.45C1377.27 492.95 1379.42 490 1380.93 486.6ZM1384.68 481L1388.49 482.6C1386.59 489.55 1383.38 495 1379.17 499.2C1382.43 501.5 1386.29 503.15 1390.74 504.25C1389.49 505.45 1387.79 507.85 1386.94 509.4C1382.08 507.95 1377.92 505.9 1374.47 503.1C1370.56 505.8 1366.15 507.8 1361.3 509.25C1360.65 507.65 1359.19 505.15 1358.09 503.85C1362.5 502.8 1366.55 501.2 1370.06 498.95C1367.11 495.6 1364.75 491.65 1362.95 487.05L1364.45 486.6H1361.85V481.25H1371.71V475.25H1360.95V469.75H1371.71V462.6H1377.62V469.75H1388.84V475.25H1377.62V481.25H1383.63L1384.68 481Z" fill="black"/>
<path d="M1297.15 507.2L1291.04 503.15C1295.44 500.05 1298.15 495.45 1299.55 491.2C1300.95 486.9 1301 477.45 1301 471.4C1301 469.4 1300.85 468.05 1300.55 466.85H1307.91C1307.86 467.05 1307.56 469.3 1307.56 471.35C1307.56 477.25 1307.41 487.8 1306.06 492.85C1304.56 498.5 1301.45 503.4 1297.15 507.2ZM1318.38 507.35L1314.22 503.9C1314.42 502.95 1314.62 501.55 1314.62 500.2V471.05C1314.62 468.8 1314.27 466.9 1314.22 466.75H1321.68C1321.63 466.9 1321.33 468.85 1321.33 471.1V497.25C1325.39 495.5 1330.35 491.55 1333.7 486.7L1337.56 492.2C1333.4 497.6 1326.19 503 1320.58 505.85C1319.53 506.4 1319.03 506.85 1318.38 507.35Z" fill="black"/>
<path d="M1276.36 469.95L1281.47 473.1C1280.92 474.05 1280.27 475.4 1279.82 476.65C1278.52 480.5 1276.21 485.55 1272.91 490.35C1274.76 491.5 1276.46 492.65 1277.72 493.55L1273.16 499.4C1271.96 498.35 1270.35 497.15 1268.5 495.85C1264.04 500.7 1258.14 505.2 1250.02 508.3L1244.21 503.25C1253.08 500.55 1258.74 496.3 1262.89 492.05C1259.49 489.85 1256.08 487.8 1253.53 486.35L1257.78 481.6C1260.44 482.95 1263.84 484.85 1267.2 486.85C1269.65 483.3 1271.66 479.2 1272.41 476.2H1258.04C1254.53 480.85 1249.87 485.65 1244.81 489.1L1239.41 484.95C1248.22 479.55 1252.88 472.7 1255.38 468.35C1256.13 467.15 1257.18 464.85 1257.63 463.1L1264.9 465.35C1263.69 467.1 1262.39 469.4 1261.79 470.45L1261.74 470.5H1272.01C1273.56 470.5 1275.26 470.3 1276.36 469.95Z" fill="black"/>
<path d="M1221.35 466.6C1222.81 468.7 1224.81 472.05 1225.96 474.35L1221.6 476.2C1220.15 473.05 1219 470.9 1217.2 468.35L1221.35 466.6ZM1228.27 464.2C1229.82 466.2 1231.77 469.45 1232.97 471.65L1228.72 473.55C1227.11 470.4 1225.86 468.45 1224.01 465.95L1228.27 464.2ZM1199.62 465.65C1202.93 467.45 1208.43 471 1211.04 472.8L1207.33 478.3C1204.53 476.35 1199.32 473 1196.02 471.15L1199.62 465.65ZM1190.36 501.15C1195.96 500.2 1201.97 498.5 1207.38 495.5C1215.9 490.75 1222.91 483.9 1226.86 476.75L1230.72 483.55C1226.11 490.5 1219 496.8 1210.84 501.55C1205.73 504.4 1198.52 506.9 1194.11 507.7L1190.36 501.15ZM1191.91 477.05C1195.31 478.85 1200.82 482.3 1203.38 484.1L1199.72 489.7C1196.87 487.7 1191.66 484.35 1188.3 482.55L1191.91 477.05Z" fill="black"/>
<path d="M1181.74 468.35L1177.79 470.1C1176.73 468 1175.13 465.1 1173.78 463.2L1177.74 461.55C1179.04 463.45 1180.89 466.6 1181.74 468.35ZM1175.78 470.65L1171.78 472.4C1170.73 470.35 1169.17 467.4 1167.82 465.45L1171.83 463.8C1173.08 465.65 1174.83 468.8 1175.78 470.65ZM1163.41 473.55H1147.04C1145.34 473.55 1143.18 473.6 1141.68 473.7V467.25C1143.28 467.5 1145.34 467.65 1147.04 467.65H1163.41C1165.12 467.65 1167.12 467.5 1168.82 467.25V473.7C1167.12 473.6 1165.17 473.55 1163.41 473.55ZM1140.68 480.35H1173.48C1174.53 480.35 1176.73 480.25 1178.04 480.05V486.55C1176.79 486.45 1174.88 486.4 1173.48 486.4H1161.41C1161.11 491.55 1160.01 495.75 1158.21 499.25C1156.45 502.7 1152.6 506.6 1148.14 508.85L1142.28 504.6C1145.84 503.25 1149.34 500.4 1151.35 497.45C1153.4 494.35 1154.25 490.6 1154.45 486.4H1140.68C1139.23 486.4 1137.27 486.5 1135.87 486.6V480.05C1137.37 480.25 1139.13 480.35 1140.68 480.35Z" fill="black"/>
<path d="M916.3 582V379H972.668C992.859 379 1009.97 382.08 1023.99 388.24C1038.01 394.213 1049.41 402.333 1058.2 412.6C1066.99 422.68 1073.34 433.88 1077.27 446.2C1081.38 458.52 1083.44 470.84 1083.44 483.16C1083.44 498.28 1080.73 512 1075.31 524.32C1070.07 536.453 1062.69 546.813 1053.15 555.4C1043.81 563.987 1033.06 570.613 1020.9 575.28C1008.75 579.76 995.944 582 982.483 582H916.3ZM945.466 553.72H976.874C991.644 553.72 1004.73 550.92 1016.14 545.32C1027.54 539.72 1036.51 531.507 1043.06 520.68C1049.79 509.853 1053.15 496.693 1053.15 481.2C1053.15 468.507 1051 457.587 1046.7 448.44C1042.59 439.107 1037.08 431.453 1030.16 425.48C1023.24 419.32 1015.48 414.747 1006.88 411.76C998.281 408.773 989.494 407.28 980.52 407.28H945.466V553.72Z" fill="black"/>
<path d="M698.906 582L788.366 370.6H790.049L879.508 582H845.575L825.664 531.04H749.105L728.072 582H698.906ZM759.201 505.84H815.568L788.086 435.84L759.201 505.84Z" fill="black"/>
<path d="M536.176 379H669.384V407.28H565.342V465.8H658.166V494.08H565.342V553.72H673.31V582H536.176V379Z" fill="black"/>
<path d="M360.903 379H390.068V553.72H492.147V582H360.903V379Z" fill="black"/>
</g>
<mask id="mask1_725_2980" style="mask-type:alpha" maskUnits="userSpaceOnUse" x="3" y="0" width="1921" height="1080">
<path fill-rule="evenodd" clip-rule="evenodd" d="M1202.5 0L754.5 1080H3V0H1202.5ZM1924 0V1080H804.5L1252.5 0H1924Z" fill="white"/>
</mask>
<g mask="url(#mask1_725_2980)">
<path d="M1292.22 809.656H1306.78V813.716H1296.42V818.269H1305.59V822.329H1296.42V826.94H1307.18V831H1292.22V809.656Z" fill="black"/>
<path d="M1272.33 809.656H1286.71V813.716H1281.52V831H1277.31V813.716H1272.33V809.656Z" fill="black"/>
<path d="M1262.61 809.656H1266.82V831H1262.61V809.656Z" fill="black"/>
<path d="M1255.65 814.818C1254.84 814.373 1254.01 814.006 1253.16 813.716C1252.33 813.426 1251.54 813.281 1250.81 813.281C1249.9 813.281 1249.19 813.465 1248.66 813.832C1248.14 814.199 1247.88 814.75 1247.88 815.485C1247.88 815.988 1248.07 816.442 1248.46 816.848C1248.87 817.235 1249.38 817.583 1250 817.892C1250.64 818.201 1251.29 818.482 1251.97 818.733C1252.8 819.042 1253.6 819.439 1254.38 819.922C1255.15 820.386 1255.79 821.034 1256.29 821.865C1256.79 822.677 1257.04 823.76 1257.04 825.113C1257.04 826.196 1256.76 827.201 1256.2 828.129C1255.64 829.057 1254.82 829.811 1253.74 830.391C1252.66 830.952 1251.32 831.232 1249.74 831.232C1248.52 831.232 1247.27 831.048 1246 830.681C1244.74 830.314 1243.55 829.734 1242.43 828.941L1244.28 825.664C1245.02 826.205 1245.86 826.65 1246.81 826.998C1247.75 827.346 1248.61 827.52 1249.36 827.52C1249.86 827.52 1250.36 827.452 1250.87 827.317C1251.39 827.162 1251.81 826.911 1252.14 826.563C1252.49 826.215 1252.67 825.732 1252.67 825.113C1252.67 824.475 1252.36 823.924 1251.74 823.46C1251.14 822.977 1250.41 822.571 1249.56 822.242C1248.9 821.991 1248.23 821.701 1247.53 821.372C1246.84 821.043 1246.18 820.647 1245.56 820.183C1244.96 819.7 1244.47 819.11 1244.08 818.414C1243.71 817.699 1243.53 816.829 1243.53 815.804C1243.53 814.567 1243.8 813.494 1244.34 812.585C1244.9 811.676 1245.69 810.961 1246.69 810.439C1247.7 809.898 1248.86 809.598 1250.17 809.54C1251.89 809.54 1253.28 809.743 1254.35 810.149C1255.43 810.555 1256.4 811.038 1257.25 811.599L1255.65 814.818Z" fill="black"/>
<path d="M1362.44 765.656H1376.82V769.716H1371.63V787H1367.42V769.716H1362.44V765.656Z" fill="black"/>
<path d="M1352.72 765.656H1356.93V787H1352.72V765.656Z" fill="black"/>
<path d="M1333.12 779.112C1333.12 779.789 1333.32 780.437 1333.73 781.055C1334.14 781.674 1334.67 782.177 1335.33 782.563C1336 782.95 1336.74 783.143 1337.53 783.143C1338.4 783.143 1339.17 782.95 1339.85 782.563C1340.53 782.177 1341.06 781.674 1341.44 781.055C1341.85 780.437 1342.05 779.789 1342.05 779.112V765.656H1346.2V779.199C1346.2 780.765 1345.81 782.157 1345.04 783.375C1344.27 784.574 1343.22 785.521 1341.91 786.217C1340.59 786.894 1339.13 787.232 1337.53 787.232C1335.94 787.232 1334.49 786.894 1333.18 786.217C1331.88 785.521 1330.85 784.574 1330.08 783.375C1329.3 782.157 1328.92 780.765 1328.92 779.199V765.656H1333.12V779.112Z" fill="black"/>
<path d="M1314.49 765.656C1317.18 765.656 1319.23 766.314 1320.67 767.628C1322.12 768.924 1322.84 770.664 1322.84 772.848C1322.84 774.066 1322.58 775.265 1322.06 776.444C1321.55 777.624 1320.69 778.561 1319.48 779.257L1324.44 787H1319.53L1315.04 780.214H1312.23V787H1308.02V765.656H1314.49ZM1315.21 776.154C1316.06 776.154 1316.72 775.98 1317.19 775.632C1317.67 775.265 1318.01 774.84 1318.2 774.356C1318.39 773.854 1318.49 773.399 1318.49 772.993C1318.49 772.761 1318.45 772.471 1318.37 772.123C1318.32 771.756 1318.18 771.389 1317.97 771.021C1317.76 770.654 1317.43 770.345 1316.98 770.093C1316.56 769.842 1315.98 769.716 1315.24 769.716H1312.23V776.154H1315.21Z" fill="black"/>
<path d="M1302.36 785.232C1302.13 785.425 1301.69 785.686 1301.05 786.015C1300.43 786.343 1299.67 786.633 1298.76 786.885C1297.85 787.136 1296.85 787.252 1295.75 787.233C1294.06 787.194 1292.56 786.894 1291.22 786.334C1289.91 785.754 1288.79 784.971 1287.86 783.985C1286.95 782.999 1286.25 781.868 1285.77 780.592C1285.29 779.316 1285.05 777.953 1285.05 776.503C1285.05 774.337 1285.48 772.423 1286.35 770.761C1287.22 769.098 1288.43 767.793 1289.98 766.846C1291.54 765.898 1293.36 765.425 1295.43 765.425C1296.86 765.425 1298.12 765.618 1299.23 766.005C1300.33 766.391 1301.23 766.807 1301.92 767.252L1300.27 771.225C1299.79 770.857 1299.14 770.48 1298.33 770.094C1297.53 769.688 1296.62 769.485 1295.57 769.485C1294.49 769.485 1293.47 769.784 1292.53 770.384C1291.6 770.983 1290.85 771.795 1290.27 772.82C1289.7 773.825 1289.42 774.975 1289.42 776.271C1289.42 777.643 1289.69 778.852 1290.21 779.896C1290.73 780.92 1291.47 781.723 1292.44 782.303C1293.41 782.883 1294.54 783.173 1295.83 783.173C1296.97 783.173 1297.95 782.989 1298.76 782.622C1299.57 782.254 1300.19 781.868 1300.62 781.462L1302.36 785.232Z" fill="black"/>
<path d="M1265.59 765.656H1280.14V769.716H1269.79V774.269H1278.95V778.329H1269.79V782.94H1280.55V787H1265.59V765.656Z" fill="black"/>
<path d="M1250.72 765.656C1253.41 765.656 1255.47 766.314 1256.9 767.628C1258.35 768.924 1259.07 770.664 1259.07 772.848C1259.07 774.066 1258.81 775.265 1258.29 776.444C1257.79 777.624 1256.93 778.561 1255.71 779.257L1260.67 787H1255.77L1251.27 780.214H1248.46V787H1244.26V765.656H1250.72ZM1251.45 776.154C1252.3 776.154 1252.96 775.98 1253.42 775.632C1253.9 775.265 1254.24 774.84 1254.43 774.356C1254.63 773.854 1254.72 773.399 1254.72 772.993C1254.72 772.761 1254.69 772.471 1254.61 772.123C1254.55 771.756 1254.41 771.389 1254.2 771.021C1253.99 770.654 1253.66 770.345 1253.22 770.093C1252.79 769.842 1252.21 769.716 1251.48 769.716H1248.46V776.154H1251.45Z" fill="black"/>
<path d="M1469.58 740.855C1469.33 741.125 1468.93 741.406 1468.39 741.696C1467.85 741.966 1467.22 742.218 1466.51 742.45C1465.81 742.682 1465.1 742.865 1464.36 743.001C1463.63 743.155 1462.93 743.233 1462.27 743.233C1459.97 743.233 1457.97 742.788 1456.27 741.899C1454.57 741.009 1453.25 739.791 1452.33 738.245C1451.42 736.698 1450.96 734.929 1450.96 732.938C1450.96 730.985 1451.25 729.293 1451.83 727.863C1452.43 726.413 1453.23 725.214 1454.24 724.267C1455.26 723.3 1456.43 722.585 1457.75 722.121C1459.08 721.657 1460.47 721.425 1461.92 721.425C1463.3 721.425 1464.55 721.579 1465.69 721.889C1466.84 722.179 1467.8 722.546 1468.59 722.991L1467.23 726.906C1466.88 726.712 1466.42 726.519 1465.84 726.326C1465.26 726.132 1464.67 725.978 1464.07 725.862C1463.47 725.726 1462.94 725.659 1462.48 725.659C1460.18 725.659 1458.41 726.239 1457.17 727.399C1455.93 728.539 1455.31 730.26 1455.31 732.561C1455.31 733.895 1455.61 735.045 1456.21 736.012C1456.81 736.978 1457.64 737.723 1458.71 738.245C1459.79 738.767 1461.02 739.028 1462.39 739.028C1462.99 739.028 1463.54 738.989 1464.04 738.912C1464.54 738.815 1464.97 738.67 1465.32 738.477V735.896H1461.63V731.836H1469.58V740.855Z" fill="black"/>
<path d="M1445.21 743.87L1430.27 730.385L1430.36 743H1426.09V720.815H1426.27L1441.17 734.503L1441.09 721.656H1445.32V743.87H1445.21Z" fill="black"/>
<path d="M1414.93 721.656H1419.14V743H1414.93V721.656Z" fill="black"/>
<path d="M1400.07 721.656C1402.75 721.656 1404.81 722.314 1406.24 723.628C1407.69 724.924 1408.42 726.664 1408.42 728.848C1408.42 730.066 1408.16 731.265 1407.64 732.444C1407.13 733.624 1406.27 734.561 1405.05 735.257L1410.01 743H1405.11L1400.62 736.214H1397.8V743H1393.6V721.656H1400.07ZM1400.79 732.154C1401.64 732.154 1402.3 731.98 1402.76 731.632C1403.25 731.265 1403.59 730.84 1403.78 730.356C1403.97 729.854 1404.07 729.399 1404.07 728.993C1404.07 728.761 1404.03 728.471 1403.95 728.123C1403.89 727.756 1403.76 727.389 1403.55 727.021C1403.33 726.654 1403.01 726.345 1402.56 726.093C1402.14 725.842 1401.56 725.716 1400.82 725.716H1397.8V732.154H1400.79Z" fill="black"/>
<path d="M1372.83 721.656H1387.39V725.716H1377.04V730.269H1386.2V734.329H1377.04V738.94H1387.8V743H1372.83V721.656Z" fill="black"/>
<path d="M1352.07 721.656H1366.63V725.716H1356.28V730.269H1365.44V734.329H1356.28V738.94H1367.03V743H1352.07V721.656Z" fill="black"/>
<path d="M1345.01 743.87L1330.07 730.385L1330.16 743H1325.9V720.815H1326.07L1340.98 734.503L1340.89 721.656H1345.12V743.87H1345.01Z" fill="black"/>
<path d="M1314.73 721.656H1318.94V743H1314.73V721.656Z" fill="black"/>
<path d="M1308.51 740.855C1308.25 741.125 1307.86 741.406 1307.32 741.696C1306.78 741.966 1306.15 742.218 1305.43 742.45C1304.74 742.682 1304.02 742.865 1303.29 743.001C1302.55 743.155 1301.86 743.233 1301.2 743.233C1298.9 743.233 1296.9 742.788 1295.2 741.899C1293.49 741.009 1292.18 739.791 1291.25 738.245C1290.34 736.698 1289.89 734.929 1289.89 732.938C1289.89 730.985 1290.18 729.293 1290.76 727.863C1291.36 726.413 1292.16 725.214 1293.17 724.267C1294.19 723.3 1295.36 722.585 1296.67 722.121C1298.01 721.657 1299.4 721.425 1300.85 721.425C1302.22 721.425 1303.48 721.579 1304.62 721.889C1305.76 722.179 1306.73 722.546 1307.52 722.991L1306.16 726.906C1305.81 726.712 1305.35 726.519 1304.77 726.326C1304.19 726.132 1303.6 725.978 1303 725.862C1302.4 725.726 1301.87 725.659 1301.4 725.659C1299.1 725.659 1297.33 726.239 1296.09 727.399C1294.86 728.539 1294.24 730.26 1294.24 732.561C1294.24 733.895 1294.54 735.045 1295.14 736.012C1295.74 736.978 1296.57 737.723 1297.63 738.245C1298.71 738.767 1299.94 739.028 1301.31 739.028C1301.91 739.028 1302.46 738.989 1302.97 738.912C1303.47 738.815 1303.9 738.67 1304.24 738.477V735.896H1300.56V731.836H1308.51V740.855Z" fill="black"/>
<path d="M1284.13 743.87L1269.2 730.385L1269.28 743H1265.02V720.815H1265.19L1280.1 734.503L1280.01 721.656H1284.25V743.87H1284.13Z" fill="black"/>
<path d="M1244.26 721.656H1258.81V725.716H1248.46V730.269H1257.62V734.329H1248.46V738.94H1259.22V743H1244.26V721.656Z" fill="black"/>
<path d="M1352.3 677.656H1356.51V694.94H1366.54V699H1352.3V677.656Z" fill="black"/>
<path d="M1328.25 699L1337.88 676.815H1338.11L1347.74 699H1342.87L1341.22 694.824H1334.14L1332.4 699H1328.25ZM1335.62 691.286H1339.82L1337.77 686.095L1335.62 691.286Z" fill="black"/>
<path d="M1312.5 677.656H1326.88V681.716H1321.69V699H1317.48V681.716H1312.5V677.656Z" fill="black"/>
<path d="M1302.78 677.656H1306.99V699H1302.78V677.656Z" fill="black"/>
<path d="M1296.56 696.855C1296.3 697.125 1295.91 697.406 1295.37 697.696C1294.82 697.966 1294.2 698.218 1293.48 698.45C1292.79 698.682 1292.07 698.865 1291.34 699.001C1290.6 699.155 1289.9 699.233 1289.25 699.233C1286.95 699.233 1284.95 698.788 1283.24 697.899C1281.54 697.009 1280.23 695.791 1279.3 694.245C1278.39 692.698 1277.94 690.929 1277.94 688.938C1277.94 686.985 1278.23 685.293 1278.81 683.863C1279.41 682.413 1280.21 681.214 1281.21 680.267C1282.24 679.3 1283.41 678.585 1284.72 678.121C1286.06 677.657 1287.45 677.425 1288.9 677.425C1290.27 677.425 1291.53 677.579 1292.67 677.889C1293.81 678.179 1294.78 678.546 1295.57 678.991L1294.21 682.906C1293.86 682.712 1293.39 682.519 1292.81 682.326C1292.23 682.132 1291.64 681.978 1291.05 681.862C1290.45 681.726 1289.91 681.659 1289.45 681.659C1287.15 681.659 1285.38 682.239 1284.14 683.399C1282.91 684.539 1282.29 686.26 1282.29 688.561C1282.29 689.895 1282.59 691.045 1283.19 692.012C1283.79 692.978 1284.62 693.723 1285.68 694.245C1286.76 694.767 1287.99 695.028 1289.36 695.028C1289.96 695.028 1290.51 694.989 1291.02 694.912C1291.52 694.815 1291.94 694.67 1292.29 694.477V691.896H1288.61V687.836H1296.56V696.855Z" fill="black"/>
<path d="M1268.08 677.656H1272.28V699H1268.08V677.656Z" fill="black"/>
<path d="M1244.26 699V677.656H1250.64C1252.78 677.656 1254.61 677.975 1256.12 678.613C1257.62 679.251 1258.83 680.102 1259.74 681.165C1260.67 682.229 1261.35 683.418 1261.77 684.732C1262.2 686.047 1262.41 687.371 1262.41 688.705C1262.41 690.291 1262.12 691.721 1261.54 692.997C1260.98 694.254 1260.21 695.337 1259.22 696.245C1258.23 697.135 1257.09 697.821 1255.8 698.304C1254.5 698.768 1253.13 699 1251.68 699H1244.26ZM1248.46 694.94H1250.95C1253.08 694.94 1254.79 694.389 1256.09 693.287C1257.4 692.185 1258.06 690.561 1258.06 688.415C1258.06 687.023 1257.83 685.892 1257.36 685.022C1256.92 684.133 1256.36 683.447 1255.68 682.963C1255.02 682.48 1254.35 682.151 1253.65 681.977C1252.96 681.784 1252.37 681.687 1251.88 681.687H1248.46V694.94Z" fill="black"/>
<path d="M1325.69 655.87L1310.76 642.385L1310.85 655H1306.58V632.815H1306.76L1321.66 646.503L1321.58 633.656H1325.81V655.87H1325.69Z" fill="black"/>
<path d="M1295.42 633.656H1299.62V655H1295.42V633.656Z" fill="black"/>
<path d="M1288.46 638.818C1287.65 638.373 1286.82 638.006 1285.96 637.716C1285.13 637.426 1284.35 637.281 1283.62 637.281C1282.71 637.281 1281.99 637.465 1281.47 637.832C1280.95 638.199 1280.69 638.75 1280.69 639.485C1280.69 639.988 1280.88 640.442 1281.27 640.848C1281.67 641.235 1282.18 641.583 1282.8 641.892C1283.44 642.201 1284.1 642.482 1284.78 642.733C1285.61 643.042 1286.41 643.439 1287.18 643.922C1287.96 644.386 1288.59 645.034 1289.1 645.865C1289.6 646.677 1289.85 647.76 1289.85 649.113C1289.85 650.196 1289.57 651.201 1289.01 652.129C1288.45 653.057 1287.63 653.811 1286.54 654.391C1285.46 654.952 1284.13 655.232 1282.54 655.232C1281.32 655.232 1280.08 655.048 1278.8 654.681C1277.54 654.314 1276.36 653.734 1275.23 652.941L1277.09 649.664C1277.83 650.205 1278.67 650.65 1279.61 650.998C1280.56 651.346 1281.41 651.52 1282.17 651.52C1282.67 651.52 1283.17 651.452 1283.67 651.317C1284.2 651.162 1284.62 650.911 1284.95 650.563C1285.3 650.215 1285.47 649.732 1285.47 649.113C1285.47 648.475 1285.16 647.924 1284.54 647.46C1283.94 646.977 1283.22 646.571 1282.37 646.242C1281.71 645.991 1281.03 645.701 1280.34 645.372C1279.64 645.043 1278.99 644.647 1278.37 644.183C1277.77 643.7 1277.27 643.11 1276.89 642.414C1276.52 641.699 1276.34 640.829 1276.34 639.804C1276.34 638.567 1276.61 637.494 1277.15 636.585C1277.71 635.676 1278.49 634.961 1279.5 634.439C1280.5 633.898 1281.66 633.598 1282.98 633.54C1284.7 633.54 1286.09 633.743 1287.15 634.149C1288.24 634.555 1289.2 635.038 1290.05 635.599L1288.46 638.818Z" fill="black"/>
<path d="M1265.9 633.656H1270.1V655H1265.9V633.656Z" fill="black"/>
<path d="M1241.85 655L1251.48 632.815H1251.71L1261.34 655H1256.46L1254.81 650.824H1247.74L1246 655H1241.85ZM1249.21 647.286H1253.42L1251.36 642.095L1249.21 647.286Z" fill="black"/>
<path d="M1112.2 766.08L1037.16 630H1073.28L1127.88 732.48L1181.64 630H1217.48L1141.6 766.08V833H1112.2V766.08Z" fill="black"/>
<path d="M867.371 833L956.691 621.6H958.371L1047.69 833H1013.81L993.931 782.04H917.491L896.491 833H867.371ZM927.571 756.84H983.851L956.411 686.84L927.571 756.84Z" fill="black"/>
<path d="M613.42 631.119H647.58L697.98 773.639L732.7 684.039L711.98 631.119H741.1L795.7 770.559L843.02 631.119H874.38L794.86 841.959L747.26 720.719L694.34 842.519L613.42 631.119Z" fill="black"/>
<path d="M506.2 684.22L506.2 632.92L517.108 632.92L517.108 672.988L539.68 672.988L539.68 637.24L550.588 637.24L550.588 672.988L573.592 672.988L573.592 631.408L584.5 631.408L584.5 684.22L506.2 684.22Z" fill="black"/>
<path d="M506.2 706.377L584.5 706.377L584.5 717.717L550.588 717.717L550.588 757.785L584.5 757.785L584.5 769.017L506.2 769.017L506.2 757.785L539.788 757.785L539.788 717.717L506.2 717.717L506.2 706.377Z" fill="black"/>
<path d="M506.2 837.601L506.2 785.437L517.108 785.437L517.108 806.173L584.5 806.173L584.5 817.513L517.108 817.513L517.108 837.601L506.2 837.601Z" fill="black"/>
<path d="M1668.15 567.6C1672.65 567.6 1676.25 571.25 1676.25 575.7C1676.25 580.15 1672.65 583.8 1668.15 583.8C1663.75 583.8 1660.1 580.15 1660.1 575.7C1660.1 571.25 1663.75 567.6 1668.15 567.6ZM1668.15 580.15C1670.65 580.15 1672.65 578.2 1672.65 575.7C1672.65 573.2 1670.65 571.2 1668.15 571.2C1665.75 571.2 1663.7 573.2 1663.7 575.7C1663.7 578.2 1665.75 580.15 1668.15 580.15Z" fill="black"/>
<path d="M1608.1 565C1609.55 563.8 1610.75 562.7 1612.25 561.1C1614.55 558.75 1618.4 553.65 1621.45 550.1C1624.9 546.15 1628.15 545.8 1631.75 549.3C1635.1 552.6 1639.05 557.7 1642 560.9C1645.15 564.35 1649.35 568.8 1654.1 573.05L1649 578.9C1645.45 575.55 1641.2 570.8 1638.05 567.1C1634.95 563.5 1631.3 558.75 1628.95 556.15C1627.2 554.25 1626.3 554.5 1624.85 556.3C1622.9 558.8 1619.35 563.7 1617.25 566.5C1616.1 568.1 1615 569.9 1614.1 571.2L1608.1 565Z" fill="black"/>
<path d="M1578.05 548.199V552.749H1580.8C1582.7 551.299 1584.5 549.799 1586.2 548.199H1578.05ZM1588.95 570.049V566.849H1571.75V570.049H1588.95ZM1571.75 577.949H1588.95V574.549H1571.75V577.949ZM1600.9 557.999H1582.9C1580.95 559.399 1579.05 560.699 1577 561.999H1595.15V584.199H1588.95V582.899H1571.75V584.399H1565.8V568.049C1563.3 569.149 1560.7 570.249 1558.15 571.199C1557.4 569.899 1555.65 567.499 1554.5 566.299C1561.05 564.249 1567.35 561.399 1573.1 557.999H1556.1V552.749H1572.15V548.199H1560.4V543.049H1572.15V537.649H1578.05V543.049H1588.9V545.499C1590.8 543.449 1592.5 541.349 1594.05 539.149L1599.15 541.749C1596.3 545.699 1592.95 549.399 1589.3 552.749H1600.9V557.999Z" fill="black"/>
<path d="M1514.8 564.349H1522.8V560.549H1514.8V564.349ZM1537.2 560.549H1529V564.349H1537.2V560.549ZM1519.55 546.349V549.099H1532.2V546.349H1519.55ZM1548.75 571.849V577.249H1529V584.399H1522.8V577.249H1503.4V571.849H1522.8V568.899H1508.8V555.949H1522.8V553.499H1513.7V546.349H1504.2V541.299H1513.7V537.649H1519.55V541.299H1532.2V537.649H1538.35V541.299H1547.9V546.349H1538.35V553.499H1529V555.949H1543.6V568.899H1529V571.849H1548.75Z" fill="black"/>
<path d="M1480.55 568.7H1467.35C1469.05 570.65 1471.15 572.25 1473.75 573.6C1476.4 572.25 1478.7 570.65 1480.55 568.7ZM1485.55 563.8L1489.4 566.4C1487.15 570.4 1483.95 573.6 1480.05 576.1C1484.85 577.55 1490.6 578.4 1497.15 578.7C1495.9 580.1 1494.45 582.65 1493.7 584.3C1485.6 583.65 1478.9 582.15 1473.45 579.55C1467.35 582.1 1460.25 583.6 1452.85 584.45C1452.4 582.95 1451.1 580.4 1450.05 579.1C1456.45 578.6 1462.45 577.65 1467.6 576C1465.9 574.7 1464.35 573.2 1462.95 571.55C1460.7 572.95 1458.15 574.25 1455.25 575.4C1454.5 574 1452.75 571.9 1451.5 571C1457.15 569.1 1461.35 566.6 1464.25 563.9C1463.35 562.65 1461.3 560.8 1460 559.9C1466.1 556.3 1466.9 551.3 1466.95 547.45H1451.45V542H1470.45V537.7H1476.55V542H1495.7V547.45H1482.85V556.45C1482.85 558.95 1482.45 560.4 1480.75 561.25C1479 562.05 1476.7 562.1 1473.7 562.1C1473.5 560.55 1472.75 558.35 1472.05 556.9C1473.8 556.95 1475.75 556.95 1476.3 556.95C1476.9 556.95 1477.05 556.8 1477.05 556.3V547.45H1472.5C1472.5 551.45 1471.95 556.4 1468.35 560.55L1473.6 561.6C1473 562.4 1472.4 563.2 1471.75 564H1484.5L1485.55 563.8ZM1457.85 549.1L1463.4 550.6C1461.35 554.5 1458.05 558.5 1454.6 560.95C1453.5 559.85 1451.6 558.25 1450.5 557.5C1453.6 555.5 1456.55 552.1 1457.85 549.1ZM1484.25 551.55L1488.85 548.9C1491.7 551.7 1495.2 555.6 1496.8 558.25L1491.85 561.3C1490.45 558.6 1487.05 554.5 1484.25 551.55Z" fill="black"/>
<path d="M1409.65 571C1411.7 571 1413.7 567.9 1415.7 561.2C1416.85 557.55 1417.75 553.3 1418.35 549.2C1410.15 550.9 1405.8 558.1 1405.8 563.55C1405.8 568.55 1407.8 571 1409.65 571ZM1423.25 582.05L1419.55 576.2C1421.45 575.95 1422.85 575.7 1424.15 575.4C1430.5 573.9 1435.4 569.35 1435.4 562.15C1435.4 555.3 1431.7 550.2 1425.05 549.05C1424.35 553.25 1423.5 557.85 1422.1 562.5C1419.15 572.5 1414.85 578.6 1409.45 578.6C1404 578.6 1399.35 572.55 1399.35 564.2C1399.35 552.8 1409.3 543 1422.15 543C1434.4 543 1442.15 551.55 1442.15 562.35C1442.15 572.75 1435.75 580.15 1423.25 582.05Z" fill="black"/>
<path d="M1354.85 539.7L1361.65 540C1360.95 542.45 1359.95 547.5 1359.65 550.25C1362 546.45 1366.3 542.25 1371.9 542.25C1378.8 542.25 1384.15 549 1384.15 559.9C1384.15 573.9 1375.55 580.6 1362.45 583L1358.7 577.25C1369.7 575.55 1377.4 571.95 1377.4 559.95C1377.4 552.3 1374.85 548.05 1370.75 548.05C1364.9 548.05 1359.8 556.85 1359.55 563.35C1359.5 564.7 1359.5 566.3 1359.8 568.6L1353.65 569C1353.4 567.1 1353.05 564.05 1353.05 560.75C1353.05 556.15 1353.7 550 1354.45 544.9C1354.7 543.1 1354.8 541.1 1354.85 539.7Z" fill="black"/>
<path d="M1321.8 538.95L1327.6 544.1C1326.05 545.25 1324.4 546.55 1323.25 547.45C1320.05 550.05 1313.5 555.1 1310.2 557.95C1307.55 560.2 1307.6 560.75 1310.3 563.05C1314 566.2 1323.55 573.75 1328.45 578.5L1322.7 583.8C1321.3 582.25 1319.75 580.7 1318.35 579.2C1315.65 576.35 1308.1 569.9 1303.55 566.05C1298.65 561.9 1299.05 559.15 1304 555.05C1307.85 551.9 1314.65 546.4 1318 543.1C1319.4 541.75 1321 540.1 1321.8 538.95Z" fill="black"/>
<path d="M1276.95 539.8C1278.25 541.65 1280 544.8 1280.95 546.7L1276.95 548.4C1275.9 546.35 1274.35 543.35 1273 541.45L1276.95 539.8ZM1282.9 537.55C1284.2 539.4 1286.05 542.6 1286.95 544.35L1282.95 546.05C1281.95 544 1280.3 541.05 1278.95 539.15L1282.9 537.55ZM1240.55 553.35C1242.35 553.05 1244.85 552.35 1246.65 551.85C1250.45 550.65 1260.5 547.15 1267.75 547.15C1276.7 547.15 1283.75 552.25 1283.75 561.45C1283.75 572.65 1273.1 579.85 1255.6 580.7L1252.75 574.1C1266.15 573.8 1276.65 569.95 1276.65 561.3C1276.65 556.65 1273.45 553.1 1267.5 553.1C1260.2 553.1 1248.55 558.05 1243.35 560.3L1240.55 553.35Z" fill="black"/>
<path d="M1227.7 543.399C1226.8 545.199 1226.1 547.399 1225.5 548.999C1223.4 554.749 1220.15 562.299 1216.1 567.349C1211.85 572.649 1204.85 578.749 1197.15 581.849L1191.45 575.999C1199.25 573.299 1206 568.399 1210.45 562.999C1215.25 557.199 1218.55 548.549 1219.9 541.399L1227.7 543.399Z" fill="black"/>
<path d="M1159.25 563.9V571.55C1159.25 574.3 1160.95 575.3 1164.95 575.3C1169.45 575.3 1173.85 575 1177.85 574.6L1177.4 581.35C1174.15 581.55 1168.5 581.75 1163.8 581.75C1154.65 581.75 1152.4 578.6 1152.4 573.55V563.9H1144.25C1142.85 563.9 1140.3 564.05 1138.8 564.15V557.6C1140.2 557.7 1142.7 557.85 1144.25 557.85H1152.4V549.35H1146.95C1145.15 549.35 1143.55 549.4 1142.1 549.5V543.25C1143.55 543.35 1145.15 543.5 1146.95 543.5H1171C1172.7 543.5 1174.35 543.4 1175.5 543.25V549.5C1174.2 549.45 1172.8 549.35 1171 549.35H1159.25V557.85H1174.35C1175.4 557.85 1177.9 557.75 1179.2 557.65L1179.25 564.05C1177.85 563.9 1175.6 563.9 1174.5 563.9H1159.25Z" fill="black"/>
<path d="M1719.67 492.6C1724.17 492.6 1727.77 496.25 1727.77 500.7C1727.77 505.15 1724.17 508.8 1719.67 508.8C1715.27 508.8 1711.62 505.15 1711.62 500.7C1711.62 496.25 1715.27 492.6 1719.67 492.6ZM1719.67 505.15C1722.17 505.15 1724.17 503.2 1724.17 500.7C1724.17 498.2 1722.17 496.2 1719.67 496.2C1717.27 496.2 1715.22 498.2 1715.22 500.7C1715.22 503.2 1717.27 505.15 1719.67 505.15Z" fill="black"/>
<path d="M1659.62 490C1661.07 488.8 1662.27 487.7 1663.77 486.1C1666.07 483.75 1669.92 478.65 1672.97 475.1C1676.42 471.15 1679.67 470.8 1683.27 474.3C1686.62 477.6 1690.57 482.7 1693.52 485.9C1696.67 489.35 1700.87 493.8 1705.62 498.05L1700.52 503.9C1696.97 500.55 1692.72 495.8 1689.57 492.1C1686.47 488.5 1682.82 483.75 1680.47 481.15C1678.72 479.25 1677.82 479.5 1676.37 481.3C1674.42 483.8 1670.87 488.7 1668.77 491.5C1667.62 493.1 1666.52 494.9 1665.62 496.2L1659.62 490Z" fill="black"/>
<path d="M1629.57 473.199V477.749H1632.32C1634.22 476.299 1636.02 474.799 1637.72 473.199H1629.57ZM1640.47 495.049V491.849H1623.27V495.049H1640.47ZM1623.27 502.949H1640.47V499.549H1623.27V502.949ZM1652.42 482.999H1634.42C1632.47 484.399 1630.57 485.699 1628.52 486.999H1646.67V509.199H1640.47V507.899H1623.27V509.399H1617.32V493.049C1614.82 494.149 1612.22 495.249 1609.67 496.199C1608.92 494.899 1607.17 492.499 1606.02 491.299C1612.57 489.249 1618.87 486.399 1624.62 482.999H1607.62V477.749H1623.67V473.199H1611.92V468.049H1623.67V462.649H1629.57V468.049H1640.42V470.499C1642.32 468.449 1644.02 466.349 1645.57 464.149L1650.67 466.749C1647.82 470.699 1644.47 474.399 1640.82 477.749H1652.42V482.999Z" fill="black"/>
<path d="M1571.32 482.5L1572.37 487.9C1570.42 488.6 1568.42 489.3 1566.42 489.95V502.65C1566.42 505.55 1565.92 507 1564.22 507.85C1562.57 508.8 1560.17 508.95 1556.62 508.95C1556.47 507.4 1555.67 505.05 1554.97 503.55C1556.97 503.6 1559.02 503.6 1559.67 503.6C1560.37 503.6 1560.62 503.35 1560.62 502.65V491.9C1558.87 492.5 1557.22 493.05 1555.62 493.55L1553.92 487.9C1555.82 487.4 1558.12 486.7 1560.62 486V477.65H1554.32V472.15H1560.62V462.7H1566.42V472.15H1571.72V477.65H1566.42V484.15C1568.07 483.6 1569.67 483.05 1571.32 482.5ZM1593.22 501V488.9H1581.57V501H1593.22ZM1600.72 471.55H1585.97C1584.87 475.45 1583.57 479.5 1581.87 483.3H1599.07V509.1H1593.22V506.55H1581.57V509.35H1575.97V493.55C1574.82 495.05 1573.62 496.4 1572.37 497.65C1571.42 496.35 1569.62 494.2 1568.47 493.05C1574.02 487.95 1577.77 479.25 1579.67 471.55H1571.97V465.9H1600.72V471.55Z" fill="black"/>
<path d="M1517.72 468.8H1509.87V471.35H1517.72V468.8ZM1509.87 477.95H1517.72V475.2H1509.87V477.95ZM1523.32 482.25H1509.87V509.35H1504.07V464.55H1523.32V482.25ZM1522.52 493.25H1527.17V489.5H1522.52V493.25ZM1537.87 498.1H1532.37V508.4H1527.17V498.1H1522.37C1521.87 501.55 1520.22 506.4 1515.97 509.3C1515.12 508.25 1513.32 506.7 1512.17 505.9C1515.37 503.9 1516.77 500.65 1517.27 498.1H1512.22V493.25H1517.47V489.5H1512.92V484.8H1537.07V489.5H1532.37V493.25H1537.87V498.1ZM1532.27 478.05H1540.37V475.2H1532.27V478.05ZM1540.37 468.8H1532.27V471.35H1540.37V468.8ZM1546.22 464.55V502.4C1546.22 505.45 1545.67 507.1 1543.87 508.05C1542.07 509.05 1539.47 509.2 1535.67 509.2C1535.47 507.55 1534.67 504.85 1533.87 503.3C1536.12 503.4 1538.57 503.4 1539.32 503.35C1540.12 503.35 1540.37 503.05 1540.37 502.35V482.35H1526.62V464.55H1546.22Z" fill="black"/>
<path d="M1461.17 496C1463.22 496 1465.22 492.9 1467.22 486.2C1468.37 482.55 1469.27 478.3 1469.87 474.2C1461.67 475.9 1457.32 483.1 1457.32 488.55C1457.32 493.55 1459.32 496 1461.17 496ZM1474.77 507.05L1471.07 501.2C1472.97 500.95 1474.37 500.7 1475.67 500.4C1482.02 498.9 1486.92 494.35 1486.92 487.15C1486.92 480.3 1483.22 475.2 1476.57 474.05C1475.87 478.25 1475.02 482.85 1473.62 487.5C1470.67 497.5 1466.37 503.6 1460.97 503.6C1455.52 503.6 1450.87 497.55 1450.87 489.2C1450.87 477.8 1460.82 468 1473.67 468C1485.92 468 1493.67 476.55 1493.67 487.35C1493.67 497.75 1487.27 505.15 1474.77 507.05Z" fill="black"/>
<path d="M1442.57 465.35V470.55H1430.72V465.35H1442.57ZM1430.22 470.75L1426.17 472.6C1425.57 470.75 1424.17 467.8 1422.87 465.6L1426.82 463.95C1428.12 466.1 1429.62 468.9 1430.22 470.75ZM1404.72 462.7L1410.07 464.6C1407.42 468.95 1403.22 473.65 1399.37 476.7C1398.67 475.45 1397.22 473.25 1396.32 472.25C1399.52 469.8 1402.97 465.85 1404.72 462.7ZM1410.87 483.5L1415.62 484.2C1415.12 491.15 1414.07 498.1 1412.12 502.65C1411.27 501.95 1409.22 500.55 1408.12 499.9C1409.92 495.9 1410.57 489.65 1410.87 483.5ZM1428.97 478.7H1422.52V508.55H1417.02V478.7H1410.37V476.65C1409.52 478.35 1408.52 480.1 1407.47 481.75V509.35H1402.02V489.1C1400.97 490.25 1399.97 491.35 1398.92 492.3C1398.37 491.05 1396.77 488.05 1395.72 486.8C1399.67 483.5 1403.52 478.3 1405.87 473.15L1410.37 474.7V473.25H1417.02V463.4H1422.52V473.25H1428.97V478.7ZM1423.47 484.45L1427.82 483.6C1428.87 488.4 1429.77 494.4 1430.07 498.45L1425.47 499.35C1425.32 495.35 1424.42 489.2 1423.47 484.45ZM1443.32 479.4V484.7H1439.47V502.9C1439.47 505.7 1439.07 507.3 1437.32 508.25C1435.57 509.2 1433.12 509.3 1429.82 509.3C1429.67 507.65 1428.97 505.25 1428.22 503.5C1430.27 503.6 1432.37 503.6 1432.97 503.6C1433.62 503.6 1433.82 503.45 1433.82 502.8V484.7H1429.47V479.4H1443.32Z" fill="black"/>
<path d="M1360.87 483.9L1361.62 489.35C1359.87 489.85 1358.07 490.35 1356.27 490.8V502.75C1356.27 505.65 1355.72 507.05 1354.02 508C1352.37 508.9 1349.97 509.05 1346.47 509.05C1346.22 507.55 1345.47 505.2 1344.77 503.65C1346.72 503.7 1348.77 503.7 1349.42 503.7C1350.17 503.7 1350.37 503.45 1350.37 502.7V492.4L1345.52 493.6L1343.97 487.95C1345.82 487.6 1347.97 487.1 1350.37 486.5V477.65H1344.62V472.15H1350.37V462.65H1356.27V472.15H1361.17V477.65H1356.27V485.05L1360.87 483.9ZM1381.77 486.6H1369.62C1371.02 489.9 1373.02 492.9 1375.52 495.45C1378.12 492.95 1380.27 490 1381.77 486.6ZM1385.52 481L1389.32 482.6C1387.42 489.55 1384.22 495 1380.02 499.2C1383.27 501.5 1387.12 503.15 1391.57 504.25C1390.32 505.45 1388.62 507.85 1387.77 509.4C1382.92 507.95 1378.77 505.9 1375.32 503.1C1371.42 505.8 1367.02 507.8 1362.17 509.25C1361.52 507.65 1360.07 505.15 1358.97 503.85C1363.37 502.8 1367.42 501.2 1370.92 498.95C1367.97 495.6 1365.62 491.65 1363.82 487.05L1365.32 486.6H1362.72V481.25H1372.57V475.25H1361.82V469.75H1372.57V462.6H1378.47V469.75H1389.67V475.25H1378.47V481.25H1384.47L1385.52 481Z" fill="black"/>
<path d="M1298.12 507.2L1292.02 503.15C1296.42 500.05 1299.12 495.45 1300.52 491.2C1301.92 486.9 1301.97 477.45 1301.97 471.4C1301.97 469.4 1301.82 468.05 1301.52 466.85H1308.87C1308.82 467.05 1308.52 469.3 1308.52 471.35C1308.52 477.25 1308.37 487.8 1307.02 492.85C1305.52 498.5 1302.42 503.4 1298.12 507.2ZM1319.32 507.35L1315.17 503.9C1315.37 502.95 1315.57 501.55 1315.57 500.2V471.05C1315.57 468.8 1315.22 466.9 1315.17 466.75H1322.62C1322.57 466.9 1322.27 468.85 1322.27 471.1V497.25C1326.32 495.5 1331.27 491.55 1334.62 486.7L1338.47 492.2C1334.32 497.6 1327.12 503 1321.52 505.85C1320.47 506.4 1319.97 506.85 1319.32 507.35Z" fill="black"/>
<path d="M1277.37 469.95L1282.47 473.1C1281.92 474.05 1281.27 475.4 1280.82 476.65C1279.52 480.5 1277.22 485.55 1273.92 490.35C1275.77 491.5 1277.47 492.65 1278.72 493.55L1274.17 499.4C1272.97 498.35 1271.37 497.15 1269.52 495.85C1265.07 500.7 1259.17 505.2 1251.07 508.3L1245.27 503.25C1254.12 500.55 1259.77 496.3 1263.92 492.05C1260.52 489.85 1257.12 487.8 1254.57 486.35L1258.82 481.6C1261.47 482.95 1264.87 484.85 1268.22 486.85C1270.67 483.3 1272.67 479.2 1273.42 476.2H1259.07C1255.57 480.85 1250.92 485.65 1245.87 489.1L1240.47 484.95C1249.27 479.55 1253.92 472.7 1256.42 468.35C1257.17 467.15 1258.22 464.85 1258.67 463.1L1265.92 465.35C1264.72 467.1 1263.42 469.4 1262.82 470.45L1262.77 470.5H1273.02C1274.57 470.5 1276.27 470.3 1277.37 469.95Z" fill="black"/>
<path d="M1222.45 466.6C1223.9 468.7 1225.9 472.05 1227.05 474.35L1222.7 476.2C1221.25 473.05 1220.1 470.9 1218.3 468.35L1222.45 466.6ZM1229.35 464.2C1230.9 466.2 1232.85 469.45 1234.05 471.65L1229.8 473.55C1228.2 470.4 1226.95 468.45 1225.1 465.95L1229.35 464.2ZM1200.75 465.65C1204.05 467.45 1209.55 471 1212.15 472.8L1208.45 478.3C1205.65 476.35 1200.45 473 1197.15 471.15L1200.75 465.65ZM1191.5 501.15C1197.1 500.2 1203.1 498.5 1208.5 495.5C1217 490.75 1224 483.9 1227.95 476.75L1231.8 483.55C1227.2 490.5 1220.1 496.8 1211.95 501.55C1206.85 504.4 1199.65 506.9 1195.25 507.7L1191.5 501.15ZM1193.05 477.05C1196.45 478.85 1201.95 482.3 1204.5 484.1L1200.85 489.7C1198 487.7 1192.8 484.35 1189.45 482.55L1193.05 477.05Z" fill="black"/>
<path d="M1182.9 468.35L1178.95 470.1C1177.9 468 1176.3 465.1 1174.95 463.2L1178.9 461.55C1180.2 463.45 1182.05 466.6 1182.9 468.35ZM1176.95 470.65L1172.95 472.4C1171.9 470.35 1170.35 467.4 1169 465.45L1173 463.8C1174.25 465.65 1176 468.8 1176.95 470.65ZM1164.6 473.55H1148.25C1146.55 473.55 1144.4 473.6 1142.9 473.7V467.25C1144.5 467.5 1146.55 467.65 1148.25 467.65H1164.6C1166.3 467.65 1168.3 467.5 1170 467.25V473.7C1168.3 473.6 1166.35 473.55 1164.6 473.55ZM1141.9 480.35H1174.65C1175.7 480.35 1177.9 480.25 1179.2 480.05V486.55C1177.95 486.45 1176.05 486.4 1174.65 486.4H1162.6C1162.3 491.55 1161.2 495.75 1159.4 499.25C1157.65 502.7 1153.8 506.6 1149.35 508.85L1143.5 504.6C1147.05 503.25 1150.55 500.4 1152.55 497.45C1154.6 494.35 1155.45 490.6 1155.65 486.4H1141.9C1140.45 486.4 1138.5 486.5 1137.1 486.6V480.05C1138.6 480.25 1140.35 480.35 1141.9 480.35Z" fill="black"/>
<path d="M917.871 582V379H974.151C994.311 379 1011.39 382.08 1025.39 388.24C1039.39 394.213 1050.78 402.333 1059.55 412.6C1068.32 422.68 1074.67 433.88 1078.59 446.2C1082.7 458.52 1084.75 470.84 1084.75 483.16C1084.75 498.28 1082.04 512 1076.63 524.32C1071.4 536.453 1064.03 546.813 1054.51 555.4C1045.18 563.987 1034.44 570.613 1022.31 575.28C1010.18 579.76 997.391 582 983.951 582H917.871ZM946.991 553.72H978.351C993.098 553.72 1006.16 550.92 1017.55 545.32C1028.94 539.72 1037.9 531.507 1044.43 520.68C1051.15 509.853 1054.51 496.693 1054.51 481.2C1054.51 468.507 1052.36 457.587 1048.07 448.44C1043.96 439.107 1038.46 431.453 1031.55 425.48C1024.64 419.32 1016.9 414.747 1008.31 411.76C999.725 408.773 990.951 407.28 981.991 407.28H946.991V553.72Z" fill="black"/>
<path d="M700.817 582L790.137 370.6H791.817L881.137 582H847.257L827.377 531.04H750.937L729.937 582H700.817ZM761.017 505.84H817.297L789.857 435.84L761.017 505.84Z" fill="black"/>
<path d="M538.34 379H671.34V407.28H567.46V465.8H660.14V494.08H567.46V553.72H675.26V582H538.34V379Z" fill="black"/>
<path d="M363.34 379H392.46V553.72H494.38V582H363.34V379Z" fill="black"/>
</g>
</svg>
