<svg width="387" height="569" viewBox="0 0 387 569" fill="none" xmlns="http://www.w3.org/2000/svg">
<mask id="mask0_832_1544" style="mask-type:alpha" maskUnits="userSpaceOnUse" x="-8" y="0" width="395" height="268">
<path fill-rule="evenodd" clip-rule="evenodd" d="M274.654 0L163.483 268H-8V0H274.654ZM387 0V268H185.891L297.061 0H387Z" fill="white"/>
</mask>
<g mask="url(#mask0_832_1544)">
<path d="M98.29 127.69H111.71L131.51 183.68L145.15 148.48L137.01 127.69H148.45L169.9 182.47L188.49 127.69H200.81L169.57 210.52L150.87 162.89L130.08 210.74L98.29 127.69ZM198.057 207L233.147 123.95H233.807L268.897 207H255.587L247.777 186.98H217.747L209.497 207H198.057ZM221.707 177.08H243.817L233.037 149.58L221.707 177.08ZM294.24 180.71L264.76 127.25H278.95L300.4 167.51L321.52 127.25H335.6L305.79 180.71V207H294.24V180.71Z" fill="black"/>
<path d="M56.55 208.9L56.55 188.614L60.792 188.614L60.792 196.678L87 196.678L87 201.088L60.792 201.088L60.792 208.9L56.55 208.9ZM56.55 157.869L87 157.869L87 162.279L73.812 162.279L73.812 177.861L87 177.861L87 182.229L56.55 182.229L56.55 177.861L69.612 177.861L69.612 162.279L56.55 162.279L56.55 157.869ZM56.55 149.252L56.55 129.302L60.792 129.302L60.792 144.884L69.57 144.884L69.57 130.982L73.812 130.982L73.812 144.884L82.758 144.884L82.758 128.714L87 128.714L87 149.252L56.55 149.252Z" fill="black"/>
<path d="M14.33 30.25H25.77V98.89H65.81V110H14.33V30.25ZM83.08 30.25H135.33V41.36H94.52V64.35H130.93V75.46H94.52V98.89H136.87V110H83.08V30.25ZM146.91 110L182 26.95H182.66L217.75 110H204.44L196.63 89.98H166.6L158.35 110H146.91ZM170.56 80.08H192.67L181.89 52.58L170.56 80.08ZM232.182 110V30.25H254.292C262.212 30.25 268.922 31.46 274.422 33.88C279.922 36.2267 284.395 39.4167 287.842 43.45C291.288 47.41 293.782 51.81 295.322 56.65C296.935 61.49 297.742 66.33 297.742 71.17C297.742 77.11 296.678 82.5 294.552 87.34C292.498 92.1067 289.602 96.1767 285.862 99.55C282.195 102.923 277.978 105.527 273.212 107.36C268.445 109.12 263.422 110 258.142 110H232.182ZM243.622 98.89H255.942C261.735 98.89 266.868 97.79 271.342 95.59C275.815 93.39 279.335 90.1633 281.902 85.91C284.542 81.6567 285.862 76.4867 285.862 70.4C285.862 65.4133 285.018 61.1233 283.332 57.53C281.718 53.8633 279.555 50.8567 276.842 48.51C274.128 46.09 271.085 44.2933 267.712 43.12C264.338 41.9467 260.892 41.36 257.372 41.36H243.622V98.89Z" fill="black"/>
</g>
<rect width="316" height="82" transform="translate(0 306)" fill="white"/>
<path d="M41.736 322.874L39.998 323.644C39.536 322.72 38.832 321.444 38.238 320.608L39.976 319.882C40.548 320.718 41.362 322.104 41.736 322.874ZM39.118 323.886L37.358 324.656C36.896 323.754 36.214 322.456 35.62 321.598L37.38 320.872C37.93 321.686 38.7 323.072 39.118 323.886ZM33.684 325.162H26.49C25.742 325.162 24.796 325.184 24.136 325.228V322.39C24.84 322.5 25.742 322.566 26.49 322.566H33.684C34.432 322.566 35.312 322.5 36.06 322.39V325.228C35.312 325.184 34.454 325.162 33.684 325.162ZM23.696 328.154H38.106C38.568 328.154 39.536 328.11 40.108 328.022V330.882C39.558 330.838 38.722 330.816 38.106 330.816H32.804C32.672 333.082 32.188 334.93 31.396 336.47C30.626 337.988 28.932 339.704 26.974 340.694L24.4 338.824C25.962 338.23 27.502 336.976 28.382 335.678C29.284 334.314 29.658 332.664 29.746 330.816H23.696C23.058 330.816 22.2 330.86 21.584 330.904V328.022C22.244 328.11 23.014 328.154 23.696 328.154ZM59.138 322.104C59.776 323.028 60.656 324.502 61.162 325.514L59.248 326.328C58.61 324.942 58.104 323.996 57.312 322.874L59.138 322.104ZM62.174 321.048C62.856 321.928 63.714 323.358 64.242 324.326L62.372 325.162C61.668 323.776 61.118 322.918 60.304 321.818L62.174 321.048ZM49.59 321.686C51.042 322.478 53.462 324.04 54.606 324.832L52.978 327.252C51.746 326.394 49.458 324.92 48.006 324.106L49.59 321.686ZM45.52 337.306C47.984 336.888 50.624 336.14 53 334.82C56.74 332.73 59.82 329.716 61.558 326.57L63.252 329.562C61.228 332.62 58.104 335.392 54.518 337.482C52.274 338.736 49.106 339.836 47.17 340.188L45.52 337.306ZM46.202 326.702C47.698 327.494 50.118 329.012 51.24 329.804L49.634 332.268C48.38 331.388 46.092 329.914 44.618 329.122L46.202 326.702ZM83.3043 323.578L85.5483 324.964C85.3063 325.382 85.0203 325.976 84.8223 326.526C84.2503 328.22 83.2383 330.442 81.7863 332.554C82.6003 333.06 83.3483 333.566 83.8983 333.962L81.8963 336.536C81.3683 336.074 80.6643 335.546 79.8503 334.974C77.8923 337.108 75.2963 339.088 71.7323 340.452L69.1803 338.23C73.0743 337.042 75.5603 335.172 77.3863 333.302C75.8903 332.334 74.3943 331.432 73.2723 330.794L75.1423 328.704C76.3083 329.298 77.8043 330.134 79.2783 331.014C80.3563 329.452 81.2363 327.648 81.5663 326.328H75.2523C73.7123 328.374 71.6663 330.486 69.4443 332.004L67.0683 330.178C70.9403 327.802 72.9863 324.788 74.0863 322.874C74.4163 322.346 74.8783 321.334 75.0763 320.564L78.2663 321.554C77.7383 322.324 77.1663 323.336 76.9023 323.798L76.8803 323.82H81.3903C82.0723 323.82 82.8203 323.732 83.3043 323.578ZM92.4343 339.968L89.7503 338.186C91.6863 336.822 92.8743 334.798 93.4903 332.928C94.1063 331.036 94.1283 326.878 94.1283 324.216C94.1283 323.336 94.0623 322.742 93.9303 322.214H97.1643C97.1423 322.302 97.0103 323.292 97.0103 324.194C97.0103 326.79 96.9443 331.432 96.3503 333.654C95.6903 336.14 94.3263 338.296 92.4343 339.968ZM101.762 340.034L99.9363 338.516C100.024 338.098 100.112 337.482 100.112 336.888V324.062C100.112 323.072 99.9583 322.236 99.9363 322.17H103.214C103.192 322.236 103.06 323.094 103.06 324.084V335.59C104.842 334.82 107.02 333.082 108.494 330.948L110.188 333.368C108.362 335.744 105.194 338.12 102.73 339.374C102.268 339.616 102.048 339.814 101.762 340.034ZM120.044 329.716L120.374 332.114C119.604 332.334 118.812 332.554 118.02 332.752V338.01C118.02 339.286 117.778 339.902 117.03 340.32C116.304 340.716 115.248 340.782 113.708 340.782C113.598 340.122 113.268 339.088 112.96 338.406C113.818 338.428 114.72 338.428 115.006 338.428C115.336 338.428 115.424 338.318 115.424 337.988V333.456L113.29 333.984L112.608 331.498C113.422 331.344 114.368 331.124 115.424 330.86V326.966H112.894V324.546H115.424V320.366H118.02V324.546H120.176V326.966H118.02V330.222L120.044 329.716ZM129.24 330.904H123.894C124.51 332.356 125.39 333.676 126.49 334.798C127.634 333.698 128.58 332.4 129.24 330.904ZM130.89 328.44L132.562 329.144C131.726 332.202 130.318 334.6 128.47 336.448C129.9 337.46 131.594 338.186 133.552 338.67C133.002 339.198 132.254 340.254 131.88 340.936C129.746 340.298 127.92 339.396 126.402 338.164C124.686 339.352 122.75 340.232 120.616 340.87C120.33 340.166 119.692 339.066 119.208 338.494C121.144 338.032 122.926 337.328 124.466 336.338C123.168 334.864 122.134 333.126 121.342 331.102L122.002 330.904H120.858V328.55H125.192V325.91H120.462V323.49H125.192V320.344H127.788V323.49H132.716V325.91H127.788V328.55H130.428L130.89 328.44ZM155.992 321.554V323.842H150.778V321.554H155.992ZM150.558 323.93L148.776 324.744C148.512 323.93 147.896 322.632 147.324 321.664L149.062 320.938C149.634 321.884 150.294 323.116 150.558 323.93ZM139.338 320.388L141.692 321.224C140.526 323.138 138.678 325.206 136.984 326.548C136.676 325.998 136.038 325.03 135.642 324.59C137.05 323.512 138.568 321.774 139.338 320.388ZM142.044 329.54L144.134 329.848C143.914 332.906 143.452 335.964 142.594 337.966C142.22 337.658 141.318 337.042 140.834 336.756C141.626 334.996 141.912 332.246 142.044 329.54ZM150.008 327.428H147.17V340.562H144.75V327.428H141.824V326.526C141.45 327.274 141.01 328.044 140.548 328.77V340.914H138.15V332.004C137.688 332.51 137.248 332.994 136.786 333.412C136.544 332.862 135.84 331.542 135.378 330.992C137.116 329.54 138.81 327.252 139.844 324.986L141.824 325.668V325.03H144.75V320.696H147.17V325.03H150.008V327.428ZM147.588 329.958L149.502 329.584C149.964 331.696 150.36 334.336 150.492 336.118L148.468 336.514C148.402 334.754 148.006 332.048 147.588 329.958ZM156.322 327.736V330.068H154.628V338.076C154.628 339.308 154.452 340.012 153.682 340.43C152.912 340.848 151.834 340.892 150.382 340.892C150.316 340.166 150.008 339.11 149.678 338.34C150.58 338.384 151.504 338.384 151.768 338.384C152.054 338.384 152.142 338.318 152.142 338.032V330.068H150.228V327.736H156.322ZM164.176 335.04C165.078 335.04 165.958 333.676 166.838 330.728C167.344 329.122 167.74 327.252 168.004 325.448C164.396 326.196 162.482 329.364 162.482 331.762C162.482 333.962 163.362 335.04 164.176 335.04ZM170.16 339.902L168.532 337.328C169.368 337.218 169.984 337.108 170.556 336.976C173.35 336.316 175.506 334.314 175.506 331.146C175.506 328.132 173.878 325.888 170.952 325.382C170.644 327.23 170.27 329.254 169.654 331.3C168.356 335.7 166.464 338.384 164.088 338.384C161.69 338.384 159.644 335.722 159.644 332.048C159.644 327.032 164.022 322.72 169.676 322.72C175.066 322.72 178.476 326.482 178.476 331.234C178.476 335.81 175.66 339.066 170.16 339.902ZM189.058 323.072H185.604V324.194H189.058V323.072ZM185.604 327.098H189.058V325.888H185.604V327.098ZM191.522 328.99H185.604V340.914H183.052V321.202H191.522V328.99ZM191.17 333.83H193.216V332.18H191.17V333.83ZM197.924 335.964H195.504V340.496H193.216V335.964H191.104C190.884 337.482 190.158 339.616 188.288 340.892C187.914 340.43 187.122 339.748 186.616 339.396C188.024 338.516 188.64 337.086 188.86 335.964H186.638V333.83H188.948V332.18H186.946V330.112H197.572V332.18H195.504V333.83H197.924V335.964ZM195.46 327.142H199.024V325.888H195.46V327.142ZM199.024 323.072H195.46V324.194H199.024V323.072ZM201.598 321.202V337.856C201.598 339.198 201.356 339.924 200.564 340.342C199.772 340.782 198.628 340.848 196.956 340.848C196.868 340.122 196.516 338.934 196.164 338.252C197.154 338.296 198.232 338.296 198.562 338.274C198.914 338.274 199.024 338.142 199.024 337.834V329.034H192.974V321.202H201.598ZM212.642 329.1L213.104 331.476C212.246 331.784 211.366 332.092 210.486 332.378V337.966C210.486 339.242 210.266 339.88 209.518 340.254C208.792 340.672 207.736 340.738 206.174 340.738C206.108 340.056 205.756 339.022 205.448 338.362C206.328 338.384 207.23 338.384 207.516 338.384C207.824 338.384 207.934 338.274 207.934 337.966V333.236C207.164 333.5 206.438 333.742 205.734 333.962L204.986 331.476C205.822 331.256 206.834 330.948 207.934 330.64V326.966H205.162V324.546H207.934V320.388H210.486V324.546H212.818V326.966H210.486V329.826C211.212 329.584 211.916 329.342 212.642 329.1ZM222.278 337.24V331.916H217.152V337.24H222.278ZM225.578 324.282H219.088C218.604 325.998 218.032 327.78 217.284 329.452H224.852V340.804H222.278V339.682H217.152V340.914H214.688V333.962C214.182 334.622 213.654 335.216 213.104 335.766C212.686 335.194 211.894 334.248 211.388 333.742C213.83 331.498 215.48 327.67 216.316 324.282H212.928V321.796H225.578V324.282ZM238.272 325.008V327.01H239.482C240.318 326.372 241.11 325.712 241.858 325.008H238.272ZM243.068 334.622V333.214H235.5V334.622H243.068ZM235.5 338.098H243.068V336.602H235.5V338.098ZM248.326 329.32H240.406C239.548 329.936 238.712 330.508 237.81 331.08H245.796V340.848H243.068V340.276H235.5V340.936H232.882V333.742C231.782 334.226 230.638 334.71 229.516 335.128C229.186 334.556 228.416 333.5 227.91 332.972C230.792 332.07 233.564 330.816 236.094 329.32H228.614V327.01H235.676V325.008H230.506V322.742H235.676V320.366H238.272V322.742H243.046V323.82C243.882 322.918 244.63 321.994 245.312 321.026L247.556 322.17C246.302 323.908 244.828 325.536 243.222 327.01H248.326V329.32ZM251.494 332.4C252.132 331.872 252.66 331.388 253.32 330.684C254.332 329.65 256.026 327.406 257.368 325.844C258.886 324.106 260.316 323.952 261.9 325.492C263.374 326.944 265.112 329.188 266.41 330.596C267.796 332.114 269.644 334.072 271.734 335.942L269.49 338.516C267.928 337.042 266.058 334.952 264.672 333.324C263.308 331.74 261.702 329.65 260.668 328.506C259.898 327.67 259.502 327.78 258.864 328.572C258.006 329.672 256.444 331.828 255.52 333.06C255.014 333.764 254.53 334.556 254.134 335.128L251.494 332.4ZM277.916 333.544C279.896 333.544 281.48 335.15 281.48 337.108C281.48 339.066 279.896 340.672 277.916 340.672C275.98 340.672 274.374 339.066 274.374 337.108C274.374 335.15 275.98 333.544 277.916 333.544ZM277.916 339.066C279.016 339.066 279.896 338.208 279.896 337.108C279.896 336.008 279.016 335.128 277.916 335.128C276.86 335.128 275.958 336.008 275.958 337.108C275.958 338.208 276.86 339.066 277.916 339.066ZM31.33 364.916V368.282C31.33 369.492 32.078 369.932 33.838 369.932C35.818 369.932 37.754 369.8 39.514 369.624L39.316 372.594C37.886 372.682 35.4 372.77 33.332 372.77C29.306 372.77 28.316 371.384 28.316 369.162V364.916H24.73C24.114 364.916 22.992 364.982 22.332 365.026V362.144C22.948 362.188 24.048 362.254 24.73 362.254H28.316V358.514H25.918C25.126 358.514 24.422 358.536 23.784 358.58V355.83C24.422 355.874 25.126 355.94 25.918 355.94H36.5C37.248 355.94 37.974 355.896 38.48 355.83V358.58C37.908 358.558 37.292 358.514 36.5 358.514H31.33V362.254H37.974C38.436 362.254 39.536 362.21 40.108 362.166L40.13 364.982C39.514 364.916 38.524 364.916 38.04 364.916H31.33ZM61.448 355.896C61.052 356.688 60.744 357.656 60.48 358.36C59.556 360.89 58.126 364.212 56.344 366.434C54.474 368.766 51.394 371.45 48.006 372.814L45.498 370.24C48.93 369.052 51.9 366.896 53.858 364.52C55.97 361.968 57.422 358.162 58.016 355.016L61.448 355.896ZM83.118 354.312C83.69 355.126 84.46 356.512 84.878 357.348L83.118 358.096C82.656 357.194 81.974 355.874 81.38 355.038L83.118 354.312ZM85.736 353.322C86.308 354.136 87.122 355.544 87.518 356.314L85.758 357.062C85.318 356.16 84.592 354.862 83.998 354.026L85.736 353.322ZM67.102 360.274C67.894 360.142 68.994 359.834 69.786 359.614C71.458 359.086 75.88 357.546 79.07 357.546C83.008 357.546 86.11 359.79 86.11 363.838C86.11 368.766 81.424 371.934 73.724 372.308L72.47 369.404C78.366 369.272 82.986 367.578 82.986 363.772C82.986 361.726 81.578 360.164 78.96 360.164C75.748 360.164 70.622 362.342 68.334 363.332L67.102 360.274ZM102.852 353.938L105.404 356.204C104.722 356.71 103.996 357.282 103.49 357.678C102.082 358.822 99.2 361.044 97.748 362.298C96.582 363.288 96.604 363.53 97.792 364.542C99.42 365.928 103.622 369.25 105.778 371.34L103.248 373.672C102.632 372.99 101.95 372.308 101.334 371.648C100.146 370.394 96.824 367.556 94.822 365.862C92.666 364.036 92.842 362.826 95.02 361.022C96.714 359.636 99.706 357.216 101.18 355.764C101.796 355.17 102.5 354.444 102.852 353.938ZM117.394 354.268L120.386 354.4C120.078 355.478 119.638 357.7 119.506 358.91C120.54 357.238 122.432 355.39 124.896 355.39C127.932 355.39 130.286 358.36 130.286 363.156C130.286 369.316 126.502 372.264 120.738 373.32L119.088 370.79C123.928 370.042 127.316 368.458 127.316 363.178C127.316 359.812 126.194 357.942 124.39 357.942C121.816 357.942 119.572 361.814 119.462 364.674C119.44 365.268 119.44 365.972 119.572 366.984L116.866 367.16C116.756 366.324 116.602 364.982 116.602 363.53C116.602 361.506 116.888 358.8 117.218 356.556C117.328 355.764 117.372 354.884 117.394 354.268ZM141.506 368.04C142.408 368.04 143.288 366.676 144.168 363.728C144.674 362.122 145.07 360.252 145.334 358.448C141.726 359.196 139.812 362.364 139.812 364.762C139.812 366.962 140.692 368.04 141.506 368.04ZM147.49 372.902L145.862 370.328C146.698 370.218 147.314 370.108 147.886 369.976C150.68 369.316 152.836 367.314 152.836 364.146C152.836 361.132 151.208 358.888 148.282 358.382C147.974 360.23 147.6 362.254 146.984 364.3C145.686 368.7 143.794 371.384 141.418 371.384C139.02 371.384 136.974 368.722 136.974 365.048C136.974 360.032 141.352 355.72 147.006 355.72C152.396 355.72 155.806 359.482 155.806 364.234C155.806 368.81 152.99 372.066 147.49 372.902ZM172.702 367.028H166.894C167.642 367.886 168.566 368.59 169.71 369.184C170.876 368.59 171.888 367.886 172.702 367.028ZM174.902 364.872L176.596 366.016C175.606 367.776 174.198 369.184 172.482 370.284C174.594 370.922 177.124 371.296 180.006 371.428C179.456 372.044 178.818 373.166 178.488 373.892C174.924 373.606 171.976 372.946 169.578 371.802C166.894 372.924 163.77 373.584 160.514 373.958C160.316 373.298 159.744 372.176 159.282 371.604C162.098 371.384 164.738 370.966 167.004 370.24C166.256 369.668 165.574 369.008 164.958 368.282C163.968 368.898 162.846 369.47 161.57 369.976C161.24 369.36 160.47 368.436 159.92 368.04C162.406 367.204 164.254 366.104 165.53 364.916C165.134 364.366 164.232 363.552 163.66 363.156C166.344 361.572 166.696 359.372 166.718 357.678H159.898V355.28H168.258V353.388H170.942V355.28H179.368V357.678H173.714V361.638C173.714 362.738 173.538 363.376 172.79 363.75C172.02 364.102 171.008 364.124 169.688 364.124C169.6 363.442 169.27 362.474 168.962 361.836C169.732 361.858 170.59 361.858 170.832 361.858C171.096 361.858 171.162 361.792 171.162 361.572V357.678H169.16C169.16 359.438 168.918 361.616 167.334 363.442L169.644 363.904C169.38 364.256 169.116 364.608 168.83 364.96H174.44L174.902 364.872ZM162.714 358.404L165.156 359.064C164.254 360.78 162.802 362.54 161.284 363.618C160.8 363.134 159.964 362.43 159.48 362.1C160.844 361.22 162.142 359.724 162.714 358.404ZM174.33 359.482L176.354 358.316C177.608 359.548 179.148 361.264 179.852 362.43L177.674 363.772C177.058 362.584 175.562 360.78 174.33 359.482ZM187.772 365.114H191.292V363.442H187.772V365.114ZM197.628 363.442H194.02V365.114H197.628V363.442ZM189.862 357.194V358.404H195.428V357.194H189.862ZM202.71 368.414V370.79H194.02V373.936H191.292V370.79H182.756V368.414H191.292V367.116H185.132V361.418H191.292V360.34H187.288V357.194H183.108V354.972H187.288V353.366H189.862V354.972H195.428V353.366H198.134V354.972H202.336V357.194H198.134V360.34H194.02V361.418H200.444V367.116H194.02V368.414H202.71ZM215.602 358.008V360.01H216.812C217.648 359.372 218.44 358.712 219.188 358.008H215.602ZM220.398 367.622V366.214H212.83V367.622H220.398ZM212.83 371.098H220.398V369.602H212.83V371.098ZM225.656 362.32H217.736C216.878 362.936 216.042 363.508 215.14 364.08H223.126V373.848H220.398V373.276H212.83V373.936H210.212V366.742C209.112 367.226 207.968 367.71 206.846 368.128C206.516 367.556 205.746 366.5 205.24 365.972C208.122 365.07 210.894 363.816 213.424 362.32H205.944V360.01H213.006V358.008H207.836V355.742H213.006V353.366H215.602V355.742H220.376V356.82C221.212 355.918 221.96 354.994 222.642 354.026L224.886 355.17C223.632 356.908 222.158 358.536 220.552 360.01H225.656V362.32ZM228.824 365.4C229.462 364.872 229.99 364.388 230.65 363.684C231.662 362.65 233.356 360.406 234.698 358.844C236.216 357.106 237.646 356.952 239.23 358.492C240.704 359.944 242.442 362.188 243.74 363.596C245.126 365.114 246.974 367.072 249.064 368.942L246.82 371.516C245.258 370.042 243.388 367.952 242.002 366.324C240.638 364.74 239.032 362.65 237.998 361.506C237.228 360.67 236.832 360.78 236.194 361.572C235.336 362.672 233.774 364.828 232.85 366.06C232.344 366.764 231.86 367.556 231.464 368.128L228.824 365.4ZM255.246 366.544C257.226 366.544 258.81 368.15 258.81 370.108C258.81 372.066 257.226 373.672 255.246 373.672C253.31 373.672 251.704 372.066 251.704 370.108C251.704 368.15 253.31 366.544 255.246 366.544ZM255.246 372.066C256.346 372.066 257.226 371.208 257.226 370.108C257.226 369.008 256.346 368.128 255.246 368.128C254.19 368.128 253.288 369.008 253.288 370.108C253.288 371.208 254.19 372.066 255.246 372.066Z" fill="black"/>
<path d="M211.216 454L217.192 440.23H217.336L223.312 454H220.288L219.262 451.408H214.87L213.79 454H211.216ZM215.788 449.212H218.398L217.12 445.99L215.788 449.212ZM226.143 440.752H228.753V454H226.143V440.752ZM240.146 443.956C239.642 443.68 239.126 443.452 238.598 443.272C238.082 443.092 237.596 443.002 237.14 443.002C236.576 443.002 236.132 443.116 235.808 443.344C235.484 443.572 235.322 443.914 235.322 444.37C235.322 444.682 235.442 444.964 235.682 445.216C235.934 445.456 236.252 445.672 236.636 445.864C237.032 446.056 237.44 446.23 237.86 446.386C238.376 446.578 238.874 446.824 239.354 447.124C239.834 447.412 240.23 447.814 240.543 448.33C240.854 448.834 241.01 449.506 241.01 450.346C241.01 451.018 240.836 451.642 240.488 452.218C240.14 452.794 239.63 453.262 238.958 453.622C238.286 453.97 237.458 454.144 236.474 454.144C235.718 454.144 234.944 454.03 234.152 453.802C233.372 453.574 232.634 453.214 231.938 452.722L233.09 450.688C233.546 451.024 234.068 451.3 234.656 451.516C235.244 451.732 235.772 451.84 236.24 451.84C236.552 451.84 236.864 451.798 237.176 451.714C237.5 451.618 237.764 451.462 237.968 451.246C238.184 451.03 238.292 450.73 238.292 450.346C238.292 449.95 238.1 449.608 237.716 449.32C237.344 449.02 236.894 448.768 236.366 448.564C235.958 448.408 235.538 448.228 235.106 448.024C234.674 447.82 234.266 447.574 233.882 447.286C233.51 446.986 233.204 446.62 232.964 446.188C232.736 445.744 232.622 445.204 232.622 444.568C232.622 443.8 232.79 443.134 233.126 442.57C233.474 442.006 233.96 441.562 234.584 441.238C235.208 440.902 235.928 440.716 236.744 440.68C237.812 440.68 238.676 440.806 239.336 441.058C240.008 441.31 240.608 441.61 241.137 441.958L240.146 443.956ZM244.467 440.752H247.077V454H244.467V440.752ZM263.258 454.54L253.988 446.17L254.042 454H251.396V440.23H251.504L260.756 448.726L260.702 440.752H263.33V454.54H263.258ZM212.71 481V467.752H216.67C218.002 467.752 219.136 467.95 220.072 468.346C221.008 468.742 221.758 469.27 222.322 469.93C222.898 470.59 223.318 471.328 223.582 472.144C223.846 472.96 223.978 473.782 223.978 474.61C223.978 475.594 223.798 476.482 223.438 477.274C223.09 478.054 222.61 478.726 221.998 479.29C221.386 479.842 220.678 480.268 219.874 480.568C219.07 480.856 218.218 481 217.318 481H212.71ZM215.32 478.48H216.868C218.188 478.48 219.25 478.138 220.054 477.454C220.87 476.77 221.278 475.762 221.278 474.43C221.278 473.566 221.134 472.864 220.846 472.324C220.57 471.772 220.222 471.346 219.802 471.046C219.394 470.746 218.974 470.542 218.542 470.434C218.11 470.314 217.744 470.254 217.444 470.254H215.32V478.48ZM227.497 467.752H230.107V481H227.497V467.752ZM245.172 479.668C245.016 479.836 244.77 480.01 244.434 480.19C244.098 480.358 243.708 480.514 243.264 480.658C242.832 480.802 242.388 480.916 241.932 481C241.476 481.096 241.044 481.144 240.636 481.144C239.208 481.144 237.966 480.868 236.91 480.316C235.854 479.764 235.038 479.008 234.462 478.048C233.898 477.088 233.616 475.99 233.616 474.754C233.616 473.542 233.796 472.492 234.156 471.604C234.528 470.704 235.026 469.96 235.65 469.372C236.286 468.772 237.012 468.328 237.828 468.04C238.656 467.752 239.52 467.608 240.42 467.608C241.272 467.608 242.052 467.704 242.76 467.896C243.468 468.076 244.068 468.304 244.56 468.58L243.714 471.01C243.498 470.89 243.21 470.77 242.85 470.65C242.49 470.53 242.124 470.434 241.752 470.362C241.38 470.278 241.05 470.236 240.762 470.236C239.334 470.236 238.236 470.596 237.468 471.316C236.7 472.024 236.316 473.092 236.316 474.52C236.316 475.348 236.502 476.062 236.874 476.662C237.246 477.262 237.762 477.724 238.422 478.048C239.094 478.372 239.856 478.534 240.708 478.534C241.08 478.534 241.422 478.51 241.734 478.462C242.046 478.402 242.31 478.312 242.526 478.192V476.59H240.24V474.07H245.172V479.668ZM249.037 467.752H251.647V481H249.037V467.752ZM255.066 467.752H263.994V470.272H260.772V481H258.162V470.272H255.066V467.752ZM264.847 481L270.823 467.23H270.967L276.943 481H273.919L272.893 478.408H268.501L267.421 481H264.847ZM269.419 476.212H272.029L270.751 472.99L269.419 476.212ZM279.774 467.752H282.384V478.48H288.612V481H279.774V467.752ZM212.71 494.752H221.746V497.272H215.32V500.098H221.008V502.618H215.32V505.48H221.998V508H212.71V494.752ZM237.46 508.54L228.19 500.17L228.244 508H225.598V494.23H225.706L234.958 502.726L234.904 494.752H237.532V508.54H237.46ZM252.59 506.668C252.434 506.836 252.188 507.01 251.852 507.19C251.516 507.358 251.126 507.514 250.682 507.658C250.25 507.802 249.806 507.916 249.35 508C248.894 508.096 248.462 508.144 248.054 508.144C246.626 508.144 245.384 507.868 244.328 507.316C243.272 506.764 242.456 506.008 241.88 505.048C241.316 504.088 241.034 502.99 241.034 501.754C241.034 500.542 241.214 499.492 241.574 498.604C241.946 497.704 242.444 496.96 243.068 496.372C243.704 495.772 244.43 495.328 245.246 495.04C246.074 494.752 246.938 494.608 247.838 494.608C248.69 494.608 249.47 494.704 250.178 494.896C250.886 495.076 251.486 495.304 251.978 495.58L251.132 498.01C250.916 497.89 250.628 497.77 250.268 497.65C249.908 497.53 249.542 497.434 249.17 497.362C248.798 497.278 248.468 497.236 248.18 497.236C246.752 497.236 245.654 497.596 244.886 498.316C244.118 499.024 243.734 500.092 243.734 501.52C243.734 502.348 243.92 503.062 244.292 503.662C244.664 504.262 245.18 504.724 245.84 505.048C246.512 505.372 247.274 505.534 248.126 505.534C248.498 505.534 248.84 505.51 249.152 505.462C249.464 505.402 249.728 505.312 249.944 505.192V503.59H247.658V501.07H252.59V506.668ZM256.455 494.752H259.065V508H256.455V494.752ZM275.246 508.54L265.976 500.17L266.03 508H263.384V494.23H263.492L272.744 502.726L272.69 494.752H275.318V508.54H275.246ZM279.63 494.752H288.666V497.272H282.24V500.098H287.928V502.618H282.24V505.48H288.918V508H279.63V494.752ZM292.518 494.752H301.554V497.272H295.128V500.098H300.816V502.618H295.128V505.48H301.806V508H292.518V494.752ZM309.42 494.752C311.088 494.752 312.366 495.16 313.254 495.976C314.154 496.78 314.604 497.86 314.604 499.216C314.604 499.972 314.442 500.716 314.118 501.448C313.806 502.18 313.272 502.762 312.516 503.194L315.594 508H312.552L309.762 503.788H308.016V508H305.406V494.752H309.42ZM309.87 501.268C310.398 501.268 310.806 501.16 311.094 500.944C311.394 500.716 311.604 500.452 311.724 500.152C311.844 499.84 311.904 499.558 311.904 499.306C311.904 499.162 311.88 498.982 311.832 498.766C311.796 498.538 311.712 498.31 311.58 498.082C311.448 497.854 311.244 497.662 310.968 497.506C310.704 497.35 310.344 497.272 309.888 497.272H308.016V501.268H309.87ZM318.646 494.752H321.256V508H318.646V494.752ZM337.438 508.54L328.168 500.17L328.222 508H325.576V494.23H325.684L334.936 502.726L334.882 494.752H337.51V508.54H337.438ZM352.567 506.668C352.411 506.836 352.165 507.01 351.829 507.19C351.493 507.358 351.103 507.514 350.659 507.658C350.227 507.802 349.783 507.916 349.327 508C348.871 508.096 348.439 508.144 348.031 508.144C346.603 508.144 345.361 507.868 344.305 507.316C343.249 506.764 342.433 506.008 341.857 505.048C341.293 504.088 341.011 502.99 341.011 501.754C341.011 500.542 341.191 499.492 341.551 498.604C341.923 497.704 342.421 496.96 343.045 496.372C343.681 495.772 344.407 495.328 345.223 495.04C346.051 494.752 346.915 494.608 347.815 494.608C348.667 494.608 349.447 494.704 350.155 494.896C350.863 495.076 351.463 495.304 351.955 495.58L351.109 498.01C350.893 497.89 350.605 497.77 350.245 497.65C349.885 497.53 349.519 497.434 349.147 497.362C348.775 497.278 348.445 497.236 348.157 497.236C346.729 497.236 345.631 497.596 344.863 498.316C344.095 499.024 343.711 500.092 343.711 501.52C343.711 502.348 343.897 503.062 344.269 503.662C344.641 504.262 345.157 504.724 345.817 505.048C346.489 505.372 347.251 505.534 348.103 505.534C348.475 505.534 348.817 505.51 349.129 505.462C349.441 505.402 349.705 505.312 349.921 505.192V503.59H347.635V501.07H352.567V506.668ZM216.724 521.752C218.392 521.752 219.67 522.16 220.558 522.976C221.458 523.78 221.908 524.86 221.908 526.216C221.908 526.972 221.746 527.716 221.422 528.448C221.11 529.18 220.576 529.762 219.82 530.194L222.898 535H219.856L217.066 530.788H215.32V535H212.71V521.752H216.724ZM217.174 528.268C217.702 528.268 218.11 528.16 218.398 527.944C218.698 527.716 218.908 527.452 219.028 527.152C219.148 526.84 219.208 526.558 219.208 526.306C219.208 526.162 219.184 525.982 219.136 525.766C219.1 525.538 219.016 525.31 218.884 525.082C218.752 524.854 218.548 524.662 218.272 524.506C218.008 524.35 217.648 524.272 217.192 524.272H215.32V528.268H217.174ZM225.95 521.752H234.986V524.272H228.56V527.098H234.248V529.618H228.56V532.48H235.238V535H225.95V521.752ZM248.774 533.902C248.63 534.022 248.36 534.184 247.964 534.388C247.58 534.592 247.106 534.772 246.542 534.928C245.978 535.084 245.354 535.156 244.67 535.144C243.626 535.12 242.69 534.934 241.862 534.586C241.046 534.226 240.35 533.74 239.774 533.128C239.21 532.516 238.778 531.814 238.478 531.022C238.178 530.23 238.028 529.384 238.028 528.484C238.028 527.14 238.298 525.952 238.838 524.92C239.378 523.888 240.128 523.078 241.088 522.49C242.06 521.902 243.188 521.608 244.472 521.608C245.36 521.608 246.146 521.728 246.83 521.968C247.514 522.208 248.072 522.466 248.504 522.742L247.478 525.208C247.178 524.98 246.776 524.746 246.272 524.506C245.78 524.254 245.21 524.128 244.562 524.128C243.89 524.128 243.26 524.314 242.672 524.686C242.096 525.058 241.628 525.562 241.268 526.198C240.92 526.822 240.746 527.536 240.746 528.34C240.746 529.192 240.908 529.942 241.232 530.59C241.556 531.226 242.018 531.724 242.618 532.084C243.218 532.444 243.92 532.624 244.724 532.624C245.432 532.624 246.038 532.51 246.542 532.282C247.046 532.054 247.43 531.814 247.694 531.562L248.774 533.902ZM256.303 521.752C257.971 521.752 259.249 522.16 260.137 522.976C261.037 523.78 261.487 524.86 261.487 526.216C261.487 526.972 261.325 527.716 261.001 528.448C260.689 529.18 260.155 529.762 259.399 530.194L262.477 535H259.435L256.645 530.788H254.899V535H252.289V521.752H256.303ZM256.753 528.268C257.281 528.268 257.689 528.16 257.977 527.944C258.277 527.716 258.487 527.452 258.607 527.152C258.727 526.84 258.787 526.558 258.787 526.306C258.787 526.162 258.763 525.982 258.715 525.766C258.679 525.538 258.595 525.31 258.463 525.082C258.331 524.854 258.127 524.662 257.851 524.506C257.587 524.35 257.227 524.272 256.771 524.272H254.899V528.268H256.753ZM267.869 530.104C267.869 530.524 267.995 530.926 268.247 531.31C268.499 531.694 268.829 532.006 269.237 532.246C269.657 532.486 270.113 532.606 270.605 532.606C271.145 532.606 271.625 532.486 272.045 532.246C272.465 532.006 272.795 531.694 273.035 531.31C273.287 530.926 273.413 530.524 273.413 530.104V521.752H275.987V530.158C275.987 531.13 275.747 531.994 275.267 532.75C274.787 533.494 274.139 534.082 273.323 534.514C272.507 534.934 271.601 535.144 270.605 535.144C269.621 535.144 268.721 534.934 267.905 534.514C267.101 534.082 266.459 533.494 265.979 532.75C265.499 531.994 265.259 531.13 265.259 530.158V521.752H267.869V530.104ZM280.034 521.752H282.644V535H280.034V521.752ZM286.064 521.752H294.992V524.272H291.77V535H289.16V524.272H286.064V521.752ZM219.784 551.956C219.28 551.68 218.764 551.452 218.236 551.272C217.72 551.092 217.234 551.002 216.778 551.002C216.214 551.002 215.77 551.116 215.446 551.344C215.122 551.572 214.96 551.914 214.96 552.37C214.96 552.682 215.08 552.964 215.32 553.216C215.572 553.456 215.89 553.672 216.274 553.864C216.67 554.056 217.078 554.23 217.498 554.386C218.014 554.578 218.512 554.824 218.992 555.124C219.472 555.412 219.868 555.814 220.18 556.33C220.492 556.834 220.648 557.506 220.648 558.346C220.648 559.018 220.474 559.642 220.126 560.218C219.778 560.794 219.268 561.262 218.596 561.622C217.924 561.97 217.096 562.144 216.112 562.144C215.356 562.144 214.582 562.03 213.79 561.802C213.01 561.574 212.272 561.214 211.576 560.722L212.728 558.688C213.184 559.024 213.706 559.3 214.294 559.516C214.882 559.732 215.41 559.84 215.878 559.84C216.19 559.84 216.502 559.798 216.814 559.714C217.138 559.618 217.402 559.462 217.606 559.246C217.822 559.03 217.93 558.73 217.93 558.346C217.93 557.95 217.738 557.608 217.354 557.32C216.982 557.02 216.532 556.768 216.004 556.564C215.596 556.408 215.176 556.228 214.744 556.024C214.312 555.82 213.904 555.574 213.52 555.286C213.148 554.986 212.842 554.62 212.602 554.188C212.374 553.744 212.26 553.204 212.26 552.568C212.26 551.8 212.428 551.134 212.764 550.57C213.112 550.006 213.598 549.562 214.222 549.238C214.846 548.902 215.566 548.716 216.382 548.68C217.45 548.68 218.314 548.806 218.974 549.058C219.646 549.31 220.246 549.61 220.774 549.958L219.784 551.956ZM224.104 548.752H226.714V562H224.104V548.752ZM230.133 548.752H239.061V551.272H235.839V562H233.229V551.272H230.133V548.752ZM242.48 548.752H251.516V551.272H245.09V554.098H250.778V556.618H245.09V559.48H251.768V562H242.48V548.752Z" fill="black"/>
</svg>
