<svg width="972" height="240" viewBox="0 0 972 240" fill="none" xmlns="http://www.w3.org/2000/svg">
<g clip-path="url(#clip0_1795_2533)">
<path d="M950 115H10V125H950V115Z" fill="black"/>
<path d="M972 0H840V240H972V0Z" fill="#0A2270"/>
<path d="M804 0H672V240H804V0Z" fill="#0A2270"/>
<path d="M636 0H504V240H636V0Z" fill="#0A2270"/>
<path d="M468 0H336V240H468V0Z" fill="#0A2270"/>
<path d="M300 0H168V240H300V0Z" fill="#0A2270"/>
<path d="M132 0H0V240H132V0Z" fill="#0A2270"/>
<path d="M84.8004 55.93C85.7004 55.93 86.5404 55.87 86.9404 55.81V58.51C86.5404 58.47 85.5604 58.43 84.7804 58.43H80.3604C80.2404 62.37 79.0204 65.59 74.7804 68.11L72.3404 66.29C76.2004 64.55 77.5004 61.75 77.6604 58.43H72.6404C71.8004 58.43 71.0204 58.47 70.4004 58.51V55.79C71.0004 55.87 71.8004 55.93 72.5804 55.93H77.6804V53.83C77.6804 53.17 77.6004 52.15 77.4204 51.53H80.5404C80.4204 52.15 80.3804 53.23 80.3804 53.83V55.93H84.8004Z" fill="white"/>
<path d="M74.5603 84.17C74.5603 85.01 74.9403 85.23 75.8403 85.41C76.4203 85.49 77.2203 85.53 78.1003 85.53C80.1603 85.53 83.3203 85.27 84.9403 84.83V87.71C83.0803 87.97 80.1203 88.09 77.9603 88.09C76.6803 88.09 75.4803 88.01 74.6403 87.89C72.9603 87.57 71.9603 86.65 71.9603 84.95V74.27C71.9603 73.81 71.9003 72.81 71.8203 72.23H74.7203C74.6203 72.81 74.5603 73.69 74.5603 74.27V77.97C76.8803 77.39 79.5803 76.51 81.3403 75.79C82.0403 75.51 82.7203 75.19 83.5003 74.73L84.5203 77.21C83.7803 77.53 82.9003 77.91 82.2403 78.13C80.2403 78.89 77.1003 79.87 74.5603 80.53V84.17ZM83.1403 74.73C82.7603 73.93 82.1403 72.77 81.6203 72.01L83.1803 71.37C83.6603 72.09 84.3603 73.33 84.7403 74.05L83.1403 74.73ZM85.5003 70.49C86.0003 71.23 86.7203 72.47 87.0803 73.15L85.5203 73.83C85.1003 73.01 84.4803 71.87 83.9603 71.13L85.5003 70.49Z" fill="white"/>
<path d="M84.8203 96.39C85.8403 96.39 86.4403 96.33 86.9803 96.25V98.85C86.5603 98.81 85.8403 98.79 84.8403 98.79H83.3803V99.43C83.3803 104.29 82.2003 107.25 77.4603 109.35L75.3603 107.37C79.1603 106.05 80.8203 104.35 80.8203 99.53V98.79H76.1603V101.45C76.1603 102.31 76.2203 103.13 76.2403 103.51H73.5003C73.5403 103.13 73.6003 102.33 73.6003 101.45V98.79H71.9603C70.9603 98.79 70.2603 98.83 69.8203 98.87V96.19C70.1603 96.25 70.9603 96.39 71.9603 96.39H73.6003V94.43C73.6003 93.69 73.5403 93.03 73.4803 92.65H76.2803C76.2403 93.03 76.1603 93.65 76.1603 94.43V96.39H80.8203V94.33C80.8203 93.51 80.7603 92.87 80.7003 92.51H83.5003C83.4603 92.89 83.3803 93.51 83.3803 94.33V96.39H84.8203Z" fill="white"/>
<path d="M80.8604 125.45C80.8604 126.33 80.9004 127.55 81.0204 128.03H77.9404C78.0004 127.57 78.0804 126.33 78.0804 125.45V119.03C76.0604 120.05 73.6004 121.07 71.3004 121.69L69.9004 119.31C73.3204 118.55 76.6404 117.11 78.8404 115.73C80.8204 114.51 82.8604 112.77 83.9604 111.31L86.0604 113.21C84.5604 114.69 82.8004 116.17 80.8604 117.43V125.45Z" fill="white"/>
<path d="M84.6206 142.59C82.6006 141.51 79.6606 140.37 77.5406 139.65V145.21C77.5406 145.77 77.6406 147.13 77.7206 147.93H74.6606C74.7806 147.17 74.8606 145.99 74.8606 145.21V133.93C74.8606 133.23 74.7806 132.27 74.6406 131.55H77.7006C77.6406 132.25 77.5406 133.11 77.5406 133.93V136.81C80.1606 137.59 83.9406 138.97 85.7206 139.85L84.6206 142.59Z" fill="white"/>
<path d="M84.6197 167.53C83.5197 166.43 82.0597 165.29 80.3397 164.49C80.3597 164.73 80.3597 164.97 80.3597 165.15C80.3597 166.87 79.4797 168.51 76.2397 168.51C73.4797 168.51 71.1797 167.59 71.1797 164.97C71.1797 162.93 72.9197 161.35 76.4597 161.35C76.8597 161.35 77.2397 161.37 77.6197 161.41C77.5597 159.89 77.4997 158.23 77.4997 157.21C77.4997 156.03 77.4797 154.89 77.4797 154.07C77.4397 153.09 77.3797 152.27 77.2597 151.81H80.1797C80.0997 152.37 80.0397 153.31 79.9997 154.07V155.47C81.5397 155.43 83.7997 155.35 85.4197 155.17L85.5197 157.49C83.8797 157.63 81.5797 157.73 79.9997 157.77C80.0397 158.93 80.1197 160.49 80.2197 161.91C82.6997 162.63 84.7997 163.97 86.1197 165.21L84.6197 167.53ZM77.6997 163.65C77.1997 163.55 76.6597 163.51 76.1197 163.51C74.5997 163.51 73.6997 164.01 73.6997 164.85C73.6997 165.79 74.6797 166.15 76.0197 166.15C77.2797 166.15 77.7197 165.61 77.7197 164.31C77.7197 164.13 77.7197 163.91 77.6997 163.65Z" fill="white"/>
<path d="M75.9806 171.91C75.7206 172.85 75.3406 174.85 75.2206 175.91C76.1406 174.43 77.8406 172.79 80.0006 172.79C82.7206 172.79 84.8006 175.43 84.8006 179.71C84.8006 185.19 81.4406 187.79 76.3006 188.73L74.8406 186.49C79.1406 185.83 82.1806 184.41 82.1806 179.73C82.1806 176.75 81.1806 175.07 79.5606 175.07C77.2806 175.07 75.2606 178.51 75.1806 181.05C75.1406 181.57 75.1606 182.21 75.2806 183.11L72.8806 183.27C72.7606 182.51 72.6406 181.33 72.6406 180.03C72.6406 178.23 72.8806 175.83 73.1806 173.81C73.2606 173.11 73.3206 172.35 73.3406 171.81L75.9806 171.91Z" fill="white"/>
<path d="M60.0202 85.4301C60.7202 85.4301 61.3402 85.3501 61.8402 85.2701V88.1101C61.3002 88.0301 60.4802 88.0301 60.0202 88.0301H47.0802C46.5002 88.0301 45.8202 88.0501 45.1602 88.1101V85.2701C45.7802 85.3901 46.4802 85.4301 47.0802 85.4301H52.0802V77.4101H48.2602C47.7402 77.4101 46.9202 77.4501 46.4002 77.4901V74.8101C46.9202 74.8901 47.7402 74.9301 48.2602 74.9301H58.9602C59.5602 74.9301 60.2402 74.8901 60.7802 74.8101V77.4901C60.2202 77.4501 59.5202 77.4101 58.9602 77.4101H54.8002V85.4301H60.0202Z" fill="white"/>
<path d="M53.4809 102.81C56.8209 100.83 59.3809 97.83 60.6409 95.19L62.1409 97.95C60.6609 100.59 58.0409 103.31 54.9009 105.21C52.9009 106.41 50.3809 107.49 47.6209 107.95L45.9609 105.39C49.0409 104.95 51.5609 103.95 53.4809 102.81ZM53.2809 96.63L51.3009 98.69C50.2609 97.59 47.8209 95.49 46.4009 94.51L48.2209 92.53C49.5609 93.43 52.1409 95.47 53.2809 96.63Z" fill="white"/>
<path d="M59.6206 122.25C57.6006 121.17 54.6606 120.03 52.5406 119.31V124.87C52.5406 125.43 52.6406 126.79 52.7206 127.59H49.6606C49.7806 126.83 49.8606 125.65 49.8606 124.87V113.59C49.8606 112.89 49.7806 111.93 49.6406 111.21H52.7006C52.6406 111.91 52.5406 112.77 52.5406 113.59V116.47C55.1606 117.25 58.9406 118.63 60.7206 119.51L59.6206 122.25Z" fill="white"/>
<path d="M50.4 131.73C50.36 132.17 50.34 132.61 50.34 133.21V139.85C50.34 140.35 50.36 141.11 50.4 141.57H47.5C47.52 141.19 47.58 140.43 47.58 139.85V133.21C47.58 132.87 47.56 132.17 47.5 131.73H50.4ZM59.44 131.55C59.4 132.11 59.36 132.75 59.36 133.53V137.41C59.36 141.63 58.56 143.45 57.08 145.05C55.8 146.49 53.76 147.43 52.32 147.89L50.28 145.73C52.24 145.27 53.88 144.53 55.06 143.25C56.4 141.79 56.66 140.31 56.66 137.25V133.53C56.66 132.75 56.62 132.11 56.54 131.55H59.44Z" fill="white"/>
<path d="M51.6602 166.81C51.8202 165.59 51.8202 164.09 51.8202 163.31C51.8202 161.97 51.8402 155.37 51.8402 153.67C51.8402 152.99 51.8402 151.81 51.6602 150.93H54.8602C54.7002 151.81 54.7002 152.97 54.7002 153.67C54.7002 155.37 54.6802 161.97 54.6802 163.31C54.6802 163.89 54.6802 165.59 54.8402 166.81H51.6602Z" fill="white"/>
<path d="M229.341 75.7801C228.281 76.5401 227.121 77.2201 225.961 77.7801C225.681 77.2001 225.061 76.3001 224.561 75.7801C227.981 74.2801 231.141 71.4401 232.641 69.0801H235.121C237.241 72.0201 240.421 74.3001 243.581 75.4201C242.981 76.0401 242.461 76.9001 242.041 77.6001C240.941 77.0801 239.781 76.4201 238.681 75.6601V77.2401H229.341V75.7801ZM225.801 78.9001H242.341V81.1001H233.381C232.801 82.2801 232.141 83.5201 231.541 84.6401C233.461 84.5801 235.521 84.5001 237.561 84.4201C236.941 83.7001 236.261 82.9801 235.601 82.3801L237.701 81.2801C239.481 82.8401 241.341 84.9201 242.281 86.4201L240.061 87.7601C239.861 87.3801 239.581 86.9601 239.261 86.5201C234.561 86.7801 229.621 86.9801 226.221 87.1401L225.901 84.8201L228.921 84.7201C229.461 83.6001 230.021 82.2801 230.441 81.1001H225.801V78.9001ZM237.821 75.0601C236.281 73.9001 234.901 72.6001 233.981 71.3601C233.121 72.5801 231.841 73.8801 230.321 75.0601H237.821Z" fill="white"/>
<path d="M232.06 103.1C231.64 102.54 230.96 101.74 230.28 101V108.54H227.92V101.64C227.12 102.38 226.28 103.04 225.44 103.56C225.24 102.92 224.68 101.76 224.32 101.3C226.5 100.12 228.6 98.0201 229.92 95.7001H225.08V93.5601H227.92V89.8801H230.28V93.5601H231.18L231.6 93.4601L232.94 94.3201C232.34 95.8401 231.54 97.2801 230.58 98.6001C231.54 99.3801 233.08 100.76 233.5 101.16L232.06 103.1ZM243.52 105.64V107.96H232.2V105.64H236.82V98.3201H233.02V96.0201H236.82V90.0401H239.26V96.0201H243.04V98.3201H239.26V105.64H243.52Z" fill="white"/>
<path d="M232.08 115.92H224.66V114.04H232.08V115.92ZM241.2 127.08C241.52 127.08 241.6 126.72 241.64 124.24C242.08 124.6 243.04 124.98 243.64 125.14C243.46 128.34 242.92 129.18 241.46 129.18H240.16C238.4 129.18 238 128.48 238 126.44V121.26H236.96C236.72 124.64 236.02 127.58 232.88 129.42C232.62 128.88 232.04 128.14 231.5 127.66V128.54H227.54V129.32H225.54V122.5H231.5V127.42C233.98 126.02 234.4 123.78 234.6 121.26H232.78V114.28H234.32C234.04 113.42 233.52 112.3 233.02 111.42L235.1 110.74C235.76 111.72 236.38 113.02 236.64 113.92L235.62 114.28H239.84L238.74 113.96C239.16 113.04 239.68 111.64 239.92 110.64L242.38 111.24C241.9 112.36 241.36 113.46 240.94 114.28H242.68V121.26H240.26V126.42C240.26 127 240.28 127.08 240.56 127.08H241.2ZM231.36 118.68H225.6V116.9H231.36V118.68ZM225.6 119.68H231.36V121.48H225.6V119.68ZM231.36 113.08H225.72V111.28H231.36V113.08ZM229.48 124.38H227.54V126.66H229.48V124.38ZM240.24 116.32H235.04V119.24H240.24V116.32Z" fill="white"/>
<path d="M227.62 144.76V146.48H225.42V132.54H232.4V144.76H227.62ZM227.62 134.7V137.52H230.2V134.7H227.62ZM230.2 142.6V139.64H227.62V142.6H230.2ZM242.78 147.4C242.78 148.66 242.52 149.3 241.74 149.68C240.94 150.06 239.8 150.12 238.14 150.12C238.04 149.46 237.64 148.42 237.3 147.82C238.38 147.88 239.6 147.86 239.94 147.84C240.3 147.84 240.42 147.72 240.42 147.38V143.86H235.72C235.22 146.26 234.14 148.64 231.9 150.28C231.54 149.82 230.62 149 230.12 148.7C233.48 146.22 233.78 142.5 233.78 139.46V132.26H242.78V147.4ZM240.42 141.72V139.16H236.12V139.46C236.12 140.18 236.1 140.94 236.02 141.72H240.42ZM236.12 134.46V137.02H240.42V134.46H236.12Z" fill="white"/>
<path d="M229.341 158.98C228.281 159.74 227.121 160.42 225.961 160.98C225.681 160.4 225.061 159.5 224.561 158.98C227.981 157.48 231.141 154.64 232.641 152.28H235.121C237.241 155.22 240.421 157.5 243.581 158.62C242.981 159.24 242.461 160.1 242.041 160.8C240.941 160.28 239.781 159.62 238.681 158.86V160.44H229.341V158.98ZM225.801 162.1H242.341V164.3H233.381C232.801 165.48 232.141 166.72 231.541 167.84C233.461 167.78 235.521 167.7 237.561 167.62C236.941 166.9 236.261 166.18 235.601 165.58L237.701 164.48C239.481 166.04 241.341 168.12 242.281 169.62L240.061 170.96C239.861 170.58 239.581 170.16 239.261 169.72C234.561 169.98 229.621 170.18 226.221 170.34L225.901 168.02L228.921 167.92C229.461 166.8 230.021 165.48 230.441 164.3H225.801V162.1ZM237.821 158.26C236.281 157.1 234.901 155.8 233.981 154.56C233.121 155.78 231.841 157.08 230.321 158.26H237.821Z" fill="white"/>
<path d="M403.1 49.96V50.66H409.5V52.1H403.1V52.82H410.96V54.48H393.02V52.82H400.72V52.1H394.42V50.66H400.72V49.96H394.86V48.5801H400.72V47.82H393.04V46.18H400.72V45.44H395.08V44.0601H400.72V42.8H403.1V44.0601H408.68V46.18H410.96V47.82H408.68V49.96H403.1ZM395.52 55.1H408.78V61.5801H406.38V61H397.82V61.6H395.52V55.1ZM397.82 56.62V57.34H406.38V56.62H397.82ZM406.38 59.5V58.7201H397.82V59.5H406.38ZM403.1 46.18H406.32V45.44H403.1V46.18ZM403.1 48.5801H406.32V47.82H403.1V48.5801Z" fill="white"/>
<path d="M400.299 80.7801C401.659 80.1801 403.159 79.1601 403.919 78.3001L405.859 79.5401C404.859 80.5801 403.159 81.7201 401.739 82.3401C401.379 81.9001 400.739 81.2601 400.239 80.8401L400.019 81.0801C399.459 80.5201 398.419 79.7001 397.419 78.9601C396.779 80.1401 395.659 81.2201 393.699 82.0601C393.479 81.5401 392.859 80.7201 392.439 80.3001C394.859 79.3201 395.699 77.9401 395.959 76.6201H392.959V74.5801H396.079V73.2201H398.219V74.5801H401.559V76.6201H398.159C398.139 76.7401 398.119 76.8801 398.099 77.0001C399.259 77.7401 400.739 78.7801 401.499 79.4801L400.299 80.7801ZM396.139 70.9201C395.459 71.8001 394.679 72.5801 393.899 73.1201C393.579 72.6401 392.959 71.9401 392.539 71.5801C393.599 71.0001 394.699 69.9801 395.479 68.9201H392.959V67.0601H396.139V63.9001H398.199V67.0601H401.419V68.9201H398.239C399.059 69.3401 401.139 70.5801 401.679 70.9401L400.439 72.6001C399.939 72.1201 399.019 71.4001 398.199 70.7601V72.8001H396.139V70.9201ZM394.059 67.0201C393.959 66.3801 393.559 65.4201 393.119 64.6801L394.719 64.0801C395.159 64.8001 395.599 65.7201 395.739 66.3601L394.059 67.0201ZM401.499 64.5201C401.019 65.4401 400.559 66.3201 400.159 66.9401L398.639 66.4401C398.979 65.7601 399.359 64.7201 399.539 64.0001L401.499 64.5201ZM404.699 67.7401C404.819 67.3201 404.899 66.8801 404.979 66.4601H401.639V64.4401H411.119V66.4601H407.539C407.359 66.9001 407.179 67.3401 407.019 67.7401H410.619V78.2801H402.219V67.7401H404.699ZM408.359 69.5201H404.359V70.7401H408.359V69.5201ZM408.359 72.3801H404.359V73.6001H408.359V72.3801ZM408.359 75.2601H404.359V76.5201H408.359V75.2601ZM408.299 78.4401C409.379 79.1801 410.879 80.2801 411.619 81.0401L409.819 82.3201C409.159 81.5601 407.719 80.4001 406.619 79.6001L408.299 78.4401Z" fill="white"/>
<path d="M403.76 98.0202C402.76 98.9602 401.08 99.8802 399.72 100.44C400.22 100.56 400.76 100.62 401.36 100.64C403.82 100.76 408.72 100.7 411.52 100.46C411.26 101 410.92 102.04 410.82 102.68C408.28 102.82 403.86 102.86 401.36 102.74C398.96 102.64 397.32 102.06 396.12 100.5C395.36 101.3 394.58 102.08 393.62 102.94L392.5 100.68C393.22 100.16 394.1 99.5002 394.86 98.8202V94.4002H392.8V92.2202H397.06V98.6202C397.6 99.5602 398.48 100.14 399.64 100.42C399.24 100.02 398.44 99.3402 397.96 99.0202C399.26 98.6202 400.66 98.0602 401.5 97.4202H397.7V95.6602H400.96V94.3402H398.28V92.6002H400.96V91.5402H403.16V92.6002H405.48V91.5402H407.74V92.6002H410.48V94.3402H407.74V95.6602H411.1V97.4202H407.2C408.58 98.0802 410.16 98.9402 411.06 99.5802L408.64 100.46C407.88 99.8402 406.48 98.9202 405.16 98.2802L406.68 97.4202H402.02L403.76 98.0202ZM395.32 89.5402C394.88 88.5602 393.68 87.1202 392.66 86.1202L394.54 84.9202C395.58 85.8802 396.84 87.2202 397.34 88.2202L395.32 89.5402ZM401.74 86.5602H397.96V85.0602H403.74V88.9202H400.2V89.3402C400.2 89.7602 400.28 89.8402 400.8 89.8402H402.34C402.74 89.8402 402.82 89.7202 402.9 89.0602C403.24 89.3202 404 89.5602 404.54 89.6602C404.34 91.0202 403.8 91.4002 402.6 91.4002H400.5C398.74 91.4002 398.24 90.9402 398.24 89.3402V87.4002H401.74V86.5602ZM403.16 95.6602H405.48V94.3402H403.16V95.6602ZM408.3 86.5602H404.42V85.0602H410.32V88.9202H406.74V89.3202C406.74 89.7602 406.84 89.8402 407.34 89.8402H408.96C409.36 89.8402 409.44 89.7202 409.52 89.0402C409.88 89.3002 410.66 89.5402 411.18 89.6402C410.98 91.0202 410.46 91.4002 409.2 91.4002H407.06C405.26 91.4002 404.8 90.9402 404.8 89.3402V87.4002H408.3V86.5602Z" fill="white"/>
<path d="M403.879 112.86C403.019 113.52 402.119 114.14 401.199 114.72C403.439 114.46 405.619 114.1 407.099 113.7L408.559 115.26C406.079 115.94 402.639 116.32 399.599 116.54L399.359 117.56H408.599C408.599 117.56 408.559 118.22 408.479 118.56C407.999 121.26 407.519 122.62 406.839 123.22C406.299 123.74 405.759 123.88 404.919 123.92C404.259 123.98 403.119 123.98 401.919 123.92C401.879 123.26 401.579 122.36 401.159 121.72C402.319 121.84 403.579 121.88 404.099 121.88C404.479 121.88 404.739 121.84 404.979 121.68C405.299 121.42 405.619 120.74 405.879 119.48H398.859L398.619 120.4L396.239 120.06C396.519 119.22 396.819 118.14 397.099 117C396.019 117.52 394.919 118 393.819 118.44C393.499 117.96 392.799 117.06 392.359 116.62C394.179 115.98 395.979 115.22 397.699 114.3L397.799 113.84L398.439 113.92C399.059 113.58 399.659 113.22 400.239 112.86H393.239V110.86H399.379V109.26H394.779V107.32H399.379V105.26H401.739V107.32H405.939V108.34C406.659 107.6 407.319 106.84 407.919 106.06L409.839 107.12C408.799 108.44 407.619 109.7 406.319 110.86H410.659V112.86H403.879ZM403.079 110.86C403.739 110.34 404.379 109.82 404.979 109.26H401.739V110.86H403.079Z" fill="white"/>
<path d="M401.999 127.84C403.399 127.84 404.559 129 404.559 130.4C404.559 131.8 403.399 132.96 401.999 132.96C400.599 132.96 399.439 131.8 399.439 130.4C399.439 129 400.599 127.84 401.999 127.84Z" fill="white"/>
<path d="M396.6 151.92L398.3 149.88C399.36 150.86 400.76 151.52 402.06 151.52C403.6 151.52 404.42 150.86 404.42 149.82C404.42 148.72 403.52 148.38 402.2 147.82L400.22 146.98C398.72 146.36 397.22 145.16 397.22 143C397.22 140.58 399.34 138.72 402.34 138.72C404.06 138.72 405.78 139.4 406.98 140.62L405.48 142.48C404.54 141.7 403.56 141.26 402.34 141.26C401.04 141.26 400.2 141.84 400.2 142.82C400.2 143.88 401.26 144.26 402.52 144.76L404.46 145.58C406.26 146.32 407.44 147.46 407.44 149.6C407.44 152.02 405.42 154.08 402 154.08C400.02 154.08 398.04 153.3 396.6 151.92Z" fill="white"/>
<path d="M397.148 159.8H402.008C405.288 159.8 407.808 160.94 407.808 164.44C407.808 167.94 405.268 169.34 402.088 169.34H400.108V174.6H397.148V159.8ZM401.888 167C403.928 167 404.908 166.14 404.908 164.44C404.908 162.74 403.828 162.14 401.788 162.14H400.108V167H401.888Z" fill="white"/>
<path d="M400.52 180.6H403.48V195.4H400.52V180.6Z" fill="white"/>
<path d="M579.22 87.3201V89.9001H560.82V87.3201H579.22Z" fill="white"/>
<path d="M566.521 111.42C565.121 113.04 563.501 114.78 562.141 116.12L560.621 114.1C561.721 113.02 563.501 111.18 565.141 109.36L566.521 111.42ZM564.661 106.26C563.961 105.4 562.401 104.12 561.181 103.24L562.881 101.5C564.061 102.26 565.681 103.46 566.441 104.3L564.661 106.26ZM573.421 108.12C573.421 110.26 574.621 114.62 579.521 116.76C579.061 117.34 578.381 118.32 578.001 118.94C574.421 117.3 572.561 113.78 572.181 112C571.701 113.78 569.661 117.18 565.621 118.94C565.341 118.38 564.601 117.38 564.181 116.94C569.581 114.78 570.921 110.36 570.921 108.14V106.08H569.321C568.721 107.5 568.001 108.76 567.241 109.74C566.761 109.36 565.601 108.72 565.001 108.44C566.701 106.6 567.901 103.52 568.521 100.32L571.001 100.78C570.781 101.78 570.521 102.76 570.201 103.7H577.081L577.541 103.58L579.301 104.6C578.741 106.6 577.801 108.66 577.001 110.1C576.521 109.82 575.541 109.34 574.981 109.12C575.381 108.36 575.881 107.22 576.241 106.08H573.421V108.12Z" fill="white"/>
<path d="M571.061 124.44C570.881 125.06 570.681 125.66 570.521 126.24H578.121V139.74H575.701V138.72H564.161V139.74H561.861V126.24H568.021C568.141 125.66 568.261 125.04 568.341 124.44H561.041V122.2H579.041V124.44H571.061ZM564.161 136.54H566.201V128.44H564.161V136.54ZM571.401 128.44H568.341V129.82H571.401V128.44ZM571.401 131.68H568.341V133.2H571.401V131.68ZM568.341 136.54H571.401V135.06H568.341V136.54ZM575.701 128.44H573.541V136.54H575.701V128.44Z" fill="white"/>
<path d="M573.44 150.3C573.24 150.76 573.021 151.26 572.781 151.74H579.22V153.74H577.06C576.74 155.04 576.281 156.1 575.641 156.96C576.961 157.56 578.16 158.18 579 158.76L577.5 160.54C576.66 159.92 575.38 159.22 573.98 158.54C572.42 159.58 570.24 160.18 567.22 160.58C567.04 159.92 566.681 159.1 566.341 158.66C568.641 158.46 570.361 158.12 571.641 157.52C571.141 157.32 570.64 157.12 570.16 156.96L569.961 157.32L567.92 156.66C568.36 155.86 568.88 154.82 569.38 153.74H566.98V152.66C566.48 152.8 565.98 152.96 565.48 153.1V157.86C565.48 159.04 565.281 159.68 564.641 160.04C563.981 160.44 563.04 160.52 561.66 160.52C561.6 159.88 561.3 158.86 561 158.2C561.78 158.24 562.6 158.24 562.86 158.22C563.1 158.22 563.201 158.14 563.201 157.84V153.74L560.98 154.34L560.48 152.04C561.24 151.88 562.181 151.66 563.201 151.42V147.82H560.88V145.64H563.201V141.88H565.48V145.64H567.021V147.82H565.48V150.86L567 150.46L567.16 151.74H570.281C570.501 151.24 570.7 150.76 570.88 150.3H566.82V148.28H569.82C569.72 147.54 569.5 146.58 569.24 145.84L569.641 145.76H567.42V143.76H571.88V141.86H574.3V143.76H578.76V145.76H577.12C576.8 146.68 576.46 147.56 576.16 148.28H579.24V150.3H573.44ZM571.82 153.74C571.58 154.24 571.321 154.74 571.081 155.22C571.861 155.46 572.7 155.76 573.56 156.08C574.08 155.46 574.46 154.68 574.72 153.74H571.82ZM571.401 145.76C571.701 146.6 571.96 147.6 572 148.26L571.92 148.28H574.021C574.301 147.56 574.601 146.56 574.781 145.76H571.401Z" fill="white"/>
<path d="M746.3 90.0801C745.76 91.9601 744.9 93.5201 743.78 94.7801C744.78 95.4401 745.98 95.9401 747.3 96.2601C746.84 96.7001 746.22 97.5601 745.9 98.1201C744.48 97.7001 743.24 97.0801 742.18 96.2601C741.16 97.0401 740.02 97.6601 738.78 98.1201C738.56 97.6601 738.12 97.0001 737.72 96.5201V98.1401H735.44V96.5201C733.14 96.7401 730.86 96.9401 729.1 97.1001L728.92 95.0601C729.44 95.0201 730.04 95.0001 730.66 94.9401V88.8601H729.1V86.9801H746.88V88.8601H737.72V96.1801C738.74 95.8401 739.72 95.3601 740.56 94.7401C739.84 93.8801 739.22 92.8801 738.74 91.7801L740.06 91.4201H738.22V89.6001H744.44L744.84 89.5201L746.3 90.0801ZM744.58 86.2401H731.44V80.1001H744.58V86.2401ZM732.84 88.8601V89.6601H735.44V88.8601H732.84ZM732.84 92.1601H735.44V91.3201H732.84V92.1601ZM732.84 94.7801C733.68 94.7201 734.56 94.6601 735.44 94.5801V93.8001H732.84V94.7801ZM742.2 81.6201H733.72V82.4401H742.2V81.6201ZM742.2 83.8801H733.72V84.7201H742.2V83.8801ZM740.74 91.4201C741.08 92.1401 741.54 92.8001 742.08 93.3801C742.62 92.8001 743.08 92.1401 743.44 91.4201H740.74Z" fill="white"/>
<path d="M731.379 112.3C731.179 114.18 730.759 116.18 730.179 117.46C729.759 117.2 728.879 116.78 728.359 116.6C728.939 115.42 729.259 113.64 729.419 111.96L731.379 112.3ZM746.459 102.9C745.699 104.82 744.579 106.48 743.239 107.9C744.559 108.92 746.079 109.74 747.679 110.26C747.179 110.74 746.499 111.62 746.179 112.2C744.519 111.54 742.999 110.58 741.639 109.38C740.239 110.54 738.699 111.44 737.139 112.1C736.999 111.8 736.739 111.4 736.439 111.02L734.979 111.68C734.919 111.38 734.839 111.06 734.739 110.7L733.719 110.78V118.96H731.659V110.92L728.759 111.1L728.559 109.04L729.999 108.98C730.299 108.6 730.619 108.16 730.939 107.7C730.359 106.84 729.399 105.78 728.579 104.98L729.719 103.36C729.859 103.48 730.019 103.62 730.179 103.76C730.739 102.66 731.299 101.34 731.639 100.28L733.699 101.04C732.979 102.4 732.179 103.96 731.459 105.06C731.699 105.34 731.939 105.6 732.139 105.86C732.819 104.74 733.459 103.6 733.919 102.62L735.859 103.52C734.759 105.26 733.379 107.28 732.119 108.9L734.039 108.82C733.819 108.32 733.579 107.82 733.339 107.38L734.919 106.72C735.479 107.72 736.039 108.92 736.379 109.94C737.699 109.4 738.959 108.68 740.079 107.82C739.519 107.2 739.019 106.52 738.559 105.82C738.019 106.42 737.439 107 736.779 107.54C736.419 107.04 735.659 106.3 735.139 106C737.319 104.34 738.739 102.14 739.479 100.26L741.799 100.64C741.579 101.14 741.339 101.66 741.059 102.16H744.619L744.979 102.08L746.459 102.9ZM735.439 111.8C735.939 112.94 736.459 114.4 736.679 115.4L734.919 116.04C734.739 115.04 734.219 113.5 733.759 112.32L735.439 111.8ZM738.399 114.26C740.979 114.96 744.079 116.26 745.919 117.26L744.539 119.12C742.799 118.02 739.619 116.68 737.019 115.94L738.399 114.26ZM740.519 110.88C741.959 111.44 743.679 112.34 744.659 113.06L743.279 114.72C742.339 113.96 740.599 112.94 739.179 112.38L740.519 110.88ZM739.879 104.2C740.359 104.98 740.939 105.74 741.619 106.46C742.299 105.76 742.879 105 743.359 104.2H739.879Z" fill="white"/>
<path d="M739.059 124.44C738.879 125.06 738.679 125.66 738.519 126.24H746.119V139.74H743.699V138.72H732.159V139.74H729.859V126.24H736.019C736.139 125.66 736.259 125.04 736.339 124.44H729.039V122.2H747.039V124.44H739.059ZM732.159 136.54H734.199V128.44H732.159V136.54ZM739.399 128.44H736.339V129.82H739.399V128.44ZM739.399 131.68H736.339V133.2H739.399V131.68ZM736.339 136.54H739.399V135.06H736.339V136.54ZM743.699 128.44H741.539V136.54H743.699V128.44Z" fill="white"/>
<path d="M741.439 150.3C741.239 150.76 741.019 151.26 740.779 151.74H747.219V153.74H745.059C744.739 155.04 744.279 156.1 743.639 156.96C744.959 157.56 746.159 158.18 746.999 158.76L745.499 160.54C744.659 159.92 743.379 159.22 741.979 158.54C740.419 159.58 738.239 160.18 735.219 160.58C735.039 159.92 734.679 159.1 734.339 158.66C736.639 158.46 738.359 158.12 739.639 157.52C739.139 157.32 738.639 157.12 738.159 156.96L737.959 157.32L735.919 156.66C736.359 155.86 736.879 154.82 737.379 153.74H734.979V152.66C734.479 152.8 733.979 152.96 733.479 153.1V157.86C733.479 159.04 733.279 159.68 732.639 160.04C731.979 160.44 731.039 160.52 729.659 160.52C729.599 159.88 729.299 158.86 728.999 158.2C729.779 158.24 730.599 158.24 730.859 158.22C731.099 158.22 731.199 158.14 731.199 157.84V153.74L728.979 154.34L728.479 152.04C729.239 151.88 730.179 151.66 731.199 151.42V147.82H728.879V145.64H731.199V141.88H733.479V145.64H735.019V147.82H733.479V150.86L734.999 150.46L735.159 151.74H738.279C738.499 151.24 738.699 150.76 738.879 150.3H734.819V148.28H737.819C737.719 147.54 737.499 146.58 737.239 145.84L737.639 145.76H735.419V143.76H739.879V141.86H742.299V143.76H746.759V145.76H745.119C744.799 146.68 744.459 147.56 744.159 148.28H747.239V150.3H741.439ZM739.819 153.74C739.579 154.24 739.319 154.74 739.079 155.22C739.859 155.46 740.699 155.76 741.559 156.08C742.079 155.46 742.459 154.68 742.719 153.74H739.819ZM739.399 145.76C739.699 146.6 739.959 147.6 739.999 148.26L739.919 148.28H742.019C742.299 147.56 742.599 146.56 742.779 145.76H739.399Z" fill="white"/>
<path d="M914.24 116.22C914.24 117.5 913.98 118.16 913.14 118.54C912.32 118.92 911.04 118.96 909.26 118.96C909.18 118.28 908.82 117.22 908.48 116.6C909.66 116.66 911 116.64 911.38 116.64C911.76 116.62 911.88 116.52 911.88 116.16V105.9H907.22C907.18 106.64 907.1 107.38 906.94 108.16C908.64 109.7 910.8 111.76 911.88 113.14L909.92 114.68C909.12 113.58 907.62 111.96 906.16 110.5C905.38 112.18 904.04 113.82 901.86 115.1C901.52 114.62 900.78 113.78 900.2 113.34V118.98H897.82V103.58H904.78V100.26H907.24V103.58H914.24V116.22ZM900.2 113.28C903.98 111.32 904.66 108.36 904.76 105.9H900.2V113.28Z" fill="white"/>
<path d="M907.22 137.04C907.94 137.12 908.7 137.16 909.5 137.16C910.58 137.16 913.88 137.16 915.22 137.1C914.88 137.68 914.5 138.82 914.38 139.52H909.38C905.68 139.52 902.94 138.92 901.14 136.06C900.48 137.6 899.6 138.88 898.46 139.86C898.06 139.44 897.06 138.6 896.5 138.24C898.66 136.64 899.64 133.88 900 130.46L902.48 130.7C902.36 131.6 902.22 132.44 902.04 133.24C902.64 134.84 903.58 135.8 904.76 136.38V129.32H900.5V127.06H911.5V129.32H907.22V131.82H912.72V134.06H907.22V137.04ZM899.8 128.08H897.46V123.08H904.72V121.08H907.24V123.08H914.56V128.08H912.1V125.34H899.8V128.08Z" fill="white"/>
<path opacity="0.2" d="M4 64V4H64" fill="white"/>
<path opacity="0.2" d="M172 64V4H232" fill="white"/>
<path opacity="0.2" d="M340 64V4H400" fill="white"/>
<path opacity="0.2" d="M508 64V4H568" fill="white"/>
<path opacity="0.2" d="M676 64V4H736" fill="white"/>
<path opacity="0.2" d="M844 64V4H904" fill="white"/>
<path d="M19.3496 15.3999H22.8696V28.5799H20.7696V17.4199H19.3496V15.3999Z" fill="white"/>
<path d="M185.52 28.58C186.35 27.74 187.15 26.93 187.93 26.14C188.71 25.35 189.41 24.59 190.02 23.85C190.63 23.11 191.12 22.39 191.48 21.68C191.84 20.97 192.02 20.29 192.02 19.64C192.02 19.09 191.91 18.64 191.68 18.29C191.45 17.94 191.16 17.68 190.79 17.51C190.42 17.34 190.03 17.26 189.62 17.26C189.06 17.26 188.61 17.37 188.27 17.6C187.93 17.83 187.68 18.1 187.52 18.43C187.36 18.76 187.28 19.07 187.28 19.38C187.28 20.25 187.54 20.94 188.06 21.46L186.76 22.64C186.44 22.44 186.17 22.15 185.94 21.77C185.71 21.39 185.54 20.99 185.42 20.57C185.3 20.15 185.24 19.77 185.24 19.44C185.24 18.71 185.42 18.02 185.78 17.39C186.14 16.76 186.67 16.24 187.38 15.84C188.09 15.44 188.95 15.24 189.96 15.24C190.81 15.24 191.55 15.44 192.18 15.83C192.81 16.22 193.3 16.74 193.65 17.38C194 18.02 194.18 18.72 194.18 19.48C194.18 20.32 193.98 21.13 193.57 21.92C193.16 22.71 192.65 23.49 192.02 24.26C191.39 25.03 190.75 25.8 190.08 26.56H194.58V28.58H185.52Z" fill="white"/>
<path d="M361.841 15.3999L358.901 20.2599C359.491 20.2999 360.041 20.4599 360.551 20.7299C361.061 20.9999 361.481 21.4199 361.791 21.9899C362.101 22.5599 362.261 23.2899 362.261 24.1999C362.261 25.1099 362.051 25.9399 361.621 26.6199C361.191 27.2999 360.631 27.8199 359.921 28.1899C359.211 28.5599 358.431 28.7399 357.581 28.7399C356.941 28.7399 356.301 28.6099 355.651 28.3399C355.001 28.0699 354.471 27.7299 354.061 27.2999L355.121 25.5799C355.361 25.8699 355.701 26.1399 356.141 26.3699C356.581 26.5999 357.051 26.7199 357.541 26.7199C358.231 26.7199 358.831 26.4799 359.341 26.0099C359.851 25.5399 360.101 24.8899 360.101 24.0799C360.101 23.3499 359.891 22.7699 359.461 22.3399C359.031 21.9099 358.451 21.6999 357.701 21.6999C357.311 21.6999 356.991 21.7299 356.741 21.7799C356.491 21.8299 356.251 21.8999 356.041 21.9799L355.961 21.8999L358.781 17.4199H354.881V15.3999H361.841Z" fill="white"/>
<path d="M521.48 25.44V25.42L529.581 15.24H529.6V23.84H531.3V25.44H529.6V28.58H527.5V25.44H521.48ZM527.5 20.1L524.62 23.84H527.5V20.1Z" fill="white"/>
<path d="M694.961 28.7399C694.251 28.7399 693.571 28.6099 692.901 28.3399C692.231 28.0699 691.701 27.7499 691.301 27.3599L692.401 25.7199C692.671 26.0099 693.021 26.2599 693.471 26.4499C693.921 26.6399 694.361 26.7399 694.801 26.7399C695.491 26.7399 696.061 26.5199 696.511 26.0699C696.961 25.6199 697.181 25.0399 697.181 24.3199C697.181 23.5599 696.971 22.9299 696.551 22.4299C696.131 21.9299 695.511 21.6799 694.681 21.6799C694.231 21.6799 693.801 21.7399 693.411 21.8699C693.021 21.9999 692.601 22.1899 692.161 22.4399H692.141V15.3999H698.481V17.4199H693.961V20.0599C694.361 19.9699 694.771 19.9199 695.181 19.9199C696.091 19.9199 696.851 20.1199 697.471 20.5199C698.091 20.9199 698.561 21.4499 698.871 22.0999C699.181 22.7499 699.341 23.4699 699.341 24.2599C699.341 25.0999 699.151 25.8599 698.771 26.5399C698.391 27.2199 697.871 27.7599 697.211 28.1499C696.551 28.5399 695.801 28.7399 694.961 28.7399Z" fill="white"/>
<path d="M863.669 28.74C862.779 28.74 861.969 28.53 861.239 28.1C860.509 27.67 859.939 27.06 859.509 26.27C859.079 25.48 858.869 24.53 858.869 23.42C858.869 22.57 859.039 21.75 859.369 20.98C859.699 20.21 860.149 19.48 860.719 18.8C861.289 18.12 861.929 17.48 862.649 16.89C863.369 16.3 864.119 15.75 864.889 15.26L866.289 16.78C865.059 17.37 864.069 18.05 863.309 18.82C862.549 19.59 861.999 20.36 861.649 21.12C861.979 20.79 862.369 20.53 862.819 20.36C863.269 20.19 863.779 20.1 864.369 20.1C865.049 20.1 865.689 20.28 866.289 20.64C866.889 21 867.379 21.5 867.749 22.13C868.119 22.76 868.309 23.49 868.309 24.3C868.309 25.21 868.089 25.99 867.649 26.66C867.209 27.33 866.639 27.84 865.939 28.2C865.239 28.56 864.479 28.74 863.669 28.74ZM863.589 26.86C864.299 26.86 864.899 26.63 865.399 26.17C865.899 25.71 866.149 25.09 866.149 24.32C866.149 23.55 865.899 22.98 865.399 22.53C864.899 22.08 864.299 21.86 863.589 21.86C863.109 21.86 862.679 21.96 862.289 22.15C861.899 22.34 861.599 22.61 861.369 22.94C861.139 23.27 861.029 23.64 861.029 24.04V24.42C861.029 24.85 861.139 25.25 861.369 25.62C861.599 25.99 861.899 26.29 862.289 26.52C862.679 26.75 863.109 26.86 863.589 26.86Z" fill="white"/>
</g>
<defs>
<clipPath id="clip0_1795_2533">
<rect width="972" height="240" fill="white"/>
</clipPath>
</defs>
</svg>
