<svg width="972" height="240" viewBox="0 0 972 240" fill="none" xmlns="http://www.w3.org/2000/svg">
<g clip-path="url(#clip0_1795_2595)">
<path d="M950 115H10V125H950V115Z" fill="black"/>
<path d="M972 0H840V240H972V0Z" fill="#0A2270"/>
<path d="M804 0H672V240H804V0Z" fill="#0A2270"/>
<path d="M636 0H504V240H636V0Z" fill="#0A2270"/>
<path d="M468 0H336V240H468V0Z" fill="#0A2270"/>
<path d="M300 0H168V240H300V0Z" fill="#0A2270"/>
<path d="M132 0H0V240H132V0Z" fill="#0A2270"/>
<path d="M84.8004 55.93C85.7004 55.93 86.5404 55.87 86.9404 55.81V58.51C86.5404 58.47 85.5604 58.43 84.7804 58.43H80.3604C80.2404 62.37 79.0204 65.59 74.7804 68.11L72.3404 66.29C76.2004 64.55 77.5004 61.75 77.6604 58.43H72.6404C71.8004 58.43 71.0204 58.47 70.4004 58.51V55.79C71.0004 55.87 71.8004 55.93 72.5804 55.93H77.6804V53.83C77.6804 53.17 77.6004 52.15 77.4204 51.53H80.5404C80.4204 52.15 80.3804 53.23 80.3804 53.83V55.93H84.8004Z" fill="white"/>
<path d="M74.5603 84.17C74.5603 85.01 74.9403 85.23 75.8403 85.41C76.4203 85.49 77.2203 85.53 78.1003 85.53C80.1603 85.53 83.3203 85.27 84.9403 84.83V87.71C83.0803 87.97 80.1203 88.09 77.9603 88.09C76.6803 88.09 75.4803 88.01 74.6403 87.89C72.9603 87.57 71.9603 86.65 71.9603 84.95V74.27C71.9603 73.81 71.9003 72.81 71.8203 72.23H74.7203C74.6203 72.81 74.5603 73.69 74.5603 74.27V77.97C76.8803 77.39 79.5803 76.51 81.3403 75.79C82.0403 75.51 82.7203 75.19 83.5003 74.73L84.5203 77.21C83.7803 77.53 82.9003 77.91 82.2403 78.13C80.2403 78.89 77.1003 79.87 74.5603 80.53V84.17ZM83.1403 74.73C82.7603 73.93 82.1403 72.77 81.6203 72.01L83.1803 71.37C83.6603 72.09 84.3603 73.33 84.7403 74.05L83.1403 74.73ZM85.5003 70.49C86.0003 71.23 86.7203 72.47 87.0803 73.15L85.5203 73.83C85.1003 73.01 84.4803 71.87 83.9603 71.13L85.5003 70.49Z" fill="white"/>
<path d="M84.8203 96.39C85.8403 96.39 86.4403 96.33 86.9803 96.25V98.85C86.5603 98.81 85.8403 98.79 84.8403 98.79H83.3803V99.43C83.3803 104.29 82.2003 107.25 77.4603 109.35L75.3603 107.37C79.1603 106.05 80.8203 104.35 80.8203 99.53V98.79H76.1603V101.45C76.1603 102.31 76.2203 103.13 76.2403 103.51H73.5003C73.5403 103.13 73.6003 102.33 73.6003 101.45V98.79H71.9603C70.9603 98.79 70.2603 98.83 69.8203 98.87V96.19C70.1603 96.25 70.9603 96.39 71.9603 96.39H73.6003V94.43C73.6003 93.69 73.5403 93.03 73.4803 92.65H76.2803C76.2403 93.03 76.1603 93.65 76.1603 94.43V96.39H80.8203V94.33C80.8203 93.51 80.7603 92.87 80.7003 92.51H83.5003C83.4603 92.89 83.3803 93.51 83.3803 94.33V96.39H84.8203Z" fill="white"/>
<path d="M80.8604 125.45C80.8604 126.33 80.9004 127.55 81.0204 128.03H77.9404C78.0004 127.57 78.0804 126.33 78.0804 125.45V119.03C76.0604 120.05 73.6004 121.07 71.3004 121.69L69.9004 119.31C73.3204 118.55 76.6404 117.11 78.8404 115.73C80.8204 114.51 82.8604 112.77 83.9604 111.31L86.0604 113.21C84.5604 114.69 82.8004 116.17 80.8604 117.43V125.45Z" fill="white"/>
<path d="M84.6206 142.59C82.6006 141.51 79.6606 140.37 77.5406 139.65V145.21C77.5406 145.77 77.6406 147.13 77.7206 147.93H74.6606C74.7806 147.17 74.8606 145.99 74.8606 145.21V133.93C74.8606 133.23 74.7806 132.27 74.6406 131.55H77.7006C77.6406 132.25 77.5406 133.11 77.5406 133.93V136.81C80.1606 137.59 83.9406 138.97 85.7206 139.85L84.6206 142.59Z" fill="white"/>
<path d="M84.6197 167.53C83.5197 166.43 82.0597 165.29 80.3397 164.49C80.3597 164.73 80.3597 164.97 80.3597 165.15C80.3597 166.87 79.4797 168.51 76.2397 168.51C73.4797 168.51 71.1797 167.59 71.1797 164.97C71.1797 162.93 72.9197 161.35 76.4597 161.35C76.8597 161.35 77.2397 161.37 77.6197 161.41C77.5597 159.89 77.4997 158.23 77.4997 157.21C77.4997 156.03 77.4797 154.89 77.4797 154.07C77.4397 153.09 77.3797 152.27 77.2597 151.81H80.1797C80.0997 152.37 80.0397 153.31 79.9997 154.07V155.47C81.5397 155.43 83.7997 155.35 85.4197 155.17L85.5197 157.49C83.8797 157.63 81.5797 157.73 79.9997 157.77C80.0397 158.93 80.1197 160.49 80.2197 161.91C82.6997 162.63 84.7997 163.97 86.1197 165.21L84.6197 167.53ZM77.6997 163.65C77.1997 163.55 76.6597 163.51 76.1197 163.51C74.5997 163.51 73.6997 164.01 73.6997 164.85C73.6997 165.79 74.6797 166.15 76.0197 166.15C77.2797 166.15 77.7197 165.61 77.7197 164.31C77.7197 164.13 77.7197 163.91 77.6997 163.65Z" fill="white"/>
<path d="M75.9806 171.91C75.7206 172.85 75.3406 174.85 75.2206 175.91C76.1406 174.43 77.8406 172.79 80.0006 172.79C82.7206 172.79 84.8006 175.43 84.8006 179.71C84.8006 185.19 81.4406 187.79 76.3006 188.73L74.8406 186.49C79.1406 185.83 82.1806 184.41 82.1806 179.73C82.1806 176.75 81.1806 175.07 79.5606 175.07C77.2806 175.07 75.2606 178.51 75.1806 181.05C75.1406 181.57 75.1606 182.21 75.2806 183.11L72.8806 183.27C72.7606 182.51 72.6406 181.33 72.6406 180.03C72.6406 178.23 72.8806 175.83 73.1806 173.81C73.2606 173.11 73.3206 172.35 73.3406 171.81L75.9806 171.91Z" fill="white"/>
<path d="M60.0202 85.4301C60.7202 85.4301 61.3402 85.3501 61.8402 85.2701V88.1101C61.3002 88.0301 60.4802 88.0301 60.0202 88.0301H47.0802C46.5002 88.0301 45.8202 88.0501 45.1602 88.1101V85.2701C45.7802 85.3901 46.4802 85.4301 47.0802 85.4301H52.0802V77.4101H48.2602C47.7402 77.4101 46.9202 77.4501 46.4002 77.4901V74.8101C46.9202 74.8901 47.7402 74.9301 48.2602 74.9301H58.9602C59.5602 74.9301 60.2402 74.8901 60.7802 74.8101V77.4901C60.2202 77.4501 59.5202 77.4101 58.9602 77.4101H54.8002V85.4301H60.0202Z" fill="white"/>
<path d="M53.4809 102.81C56.8209 100.83 59.3809 97.83 60.6409 95.19L62.1409 97.95C60.6609 100.59 58.0409 103.31 54.9009 105.21C52.9009 106.41 50.3809 107.49 47.6209 107.95L45.9609 105.39C49.0409 104.95 51.5609 103.95 53.4809 102.81ZM53.2809 96.63L51.3009 98.69C50.2609 97.59 47.8209 95.49 46.4009 94.51L48.2209 92.53C49.5609 93.43 52.1409 95.47 53.2809 96.63Z" fill="white"/>
<path d="M59.6206 122.25C57.6006 121.17 54.6606 120.03 52.5406 119.31V124.87C52.5406 125.43 52.6406 126.79 52.7206 127.59H49.6606C49.7806 126.83 49.8606 125.65 49.8606 124.87V113.59C49.8606 112.89 49.7806 111.93 49.6406 111.21H52.7006C52.6406 111.91 52.5406 112.77 52.5406 113.59V116.47C55.1606 117.25 58.9406 118.63 60.7206 119.51L59.6206 122.25Z" fill="white"/>
<path d="M50.4 131.73C50.36 132.17 50.34 132.61 50.34 133.21V139.85C50.34 140.35 50.36 141.11 50.4 141.57H47.5C47.52 141.19 47.58 140.43 47.58 139.85V133.21C47.58 132.87 47.56 132.17 47.5 131.73H50.4ZM59.44 131.55C59.4 132.11 59.36 132.75 59.36 133.53V137.41C59.36 141.63 58.56 143.45 57.08 145.05C55.8 146.49 53.76 147.43 52.32 147.89L50.28 145.73C52.24 145.27 53.88 144.53 55.06 143.25C56.4 141.79 56.66 140.31 56.66 137.25V133.53C56.66 132.75 56.62 132.11 56.54 131.55H59.44Z" fill="white"/>
<path d="M51.6602 166.81C51.8202 165.59 51.8202 164.09 51.8202 163.31C51.8202 161.97 51.8402 155.37 51.8402 153.67C51.8402 152.99 51.8402 151.81 51.6602 150.93H54.8602C54.7002 151.81 54.7002 152.97 54.7002 153.67C54.7002 155.37 54.6802 161.97 54.6802 163.31C54.6802 163.89 54.6802 165.59 54.8402 166.81H51.6602Z" fill="white"/>
<path d="M235.1 86.5599V87.2599H241.5V88.6999H235.1V89.4199H242.96V91.0799H225.02V89.4199H232.72V88.6999H226.42V87.2599H232.72V86.5599H226.86V85.1799H232.72V84.4199H225.04V82.7799H232.72V82.0399H227.08V80.6599H232.72V79.3999H235.1V80.6599H240.68V82.7799H242.96V84.4199H240.68V86.5599H235.1ZM227.52 91.6999H240.78V98.1799H238.38V97.5999H229.82V98.1999H227.52V91.6999ZM229.82 93.2199V93.9399H238.38V93.2199H229.82ZM238.38 96.0999V95.3199H229.82V96.0999H238.38ZM235.1 82.7799H238.32V82.0399H235.1V82.7799ZM235.1 85.1799H238.32V84.4199H235.1V85.1799Z" fill="white"/>
<path d="M232.299 117.38C233.659 116.78 235.159 115.76 235.919 114.9L237.859 116.14C236.859 117.18 235.159 118.32 233.739 118.94C233.379 118.5 232.739 117.86 232.239 117.44L232.019 117.68C231.459 117.12 230.419 116.3 229.419 115.56C228.779 116.74 227.659 117.82 225.699 118.66C225.479 118.14 224.859 117.32 224.439 116.9C226.859 115.92 227.699 114.54 227.959 113.22H224.959V111.18H228.079V109.82H230.219V111.18H233.559V113.22H230.159C230.139 113.34 230.119 113.48 230.099 113.6C231.259 114.34 232.739 115.38 233.499 116.08L232.299 117.38ZM228.139 107.52C227.459 108.4 226.679 109.18 225.899 109.72C225.579 109.24 224.959 108.54 224.539 108.18C225.599 107.6 226.699 106.58 227.479 105.52H224.959V103.66H228.139V100.5H230.199V103.66H233.419V105.52H230.239C231.059 105.94 233.139 107.18 233.679 107.54L232.439 109.2C231.939 108.72 231.019 108 230.199 107.36V109.4H228.139V107.52ZM226.059 103.62C225.959 102.98 225.559 102.02 225.119 101.28L226.719 100.68C227.159 101.4 227.599 102.32 227.739 102.96L226.059 103.62ZM233.499 101.12C233.019 102.04 232.559 102.92 232.159 103.54L230.639 103.04C230.979 102.36 231.359 101.32 231.539 100.6L233.499 101.12ZM236.699 104.34C236.819 103.92 236.899 103.48 236.979 103.06H233.639V101.04H243.119V103.06H239.539C239.359 103.5 239.179 103.94 239.019 104.34H242.619V114.88H234.219V104.34H236.699ZM240.359 106.12H236.359V107.34H240.359V106.12ZM240.359 108.98H236.359V110.2H240.359V108.98ZM240.359 111.86H236.359V113.12H240.359V111.86ZM240.299 115.04C241.379 115.78 242.879 116.88 243.619 117.64L241.819 118.92C241.159 118.16 239.719 117 238.619 116.2L240.299 115.04Z" fill="white"/>
<path d="M235.76 134.62C234.76 135.56 233.08 136.48 231.72 137.04C232.22 137.16 232.76 137.22 233.36 137.24C235.82 137.36 240.72 137.3 243.52 137.06C243.26 137.6 242.92 138.64 242.82 139.28C240.28 139.42 235.86 139.46 233.36 139.34C230.96 139.24 229.32 138.66 228.12 137.1C227.36 137.9 226.58 138.68 225.62 139.54L224.5 137.28C225.22 136.76 226.1 136.1 226.86 135.42V131H224.8V128.82H229.06V135.22C229.6 136.16 230.48 136.74 231.64 137.02C231.24 136.62 230.44 135.94 229.96 135.62C231.26 135.22 232.66 134.66 233.5 134.02H229.7V132.26H232.96V130.94H230.28V129.2H232.96V128.14H235.16V129.2H237.48V128.14H239.74V129.2H242.48V130.94H239.74V132.26H243.1V134.02H239.2C240.58 134.68 242.16 135.54 243.06 136.18L240.64 137.06C239.88 136.44 238.48 135.52 237.16 134.88L238.68 134.02H234.02L235.76 134.62ZM227.32 126.14C226.88 125.16 225.68 123.72 224.66 122.72L226.54 121.52C227.58 122.48 228.84 123.82 229.34 124.82L227.32 126.14ZM233.74 123.16H229.96V121.66H235.74V125.52H232.2V125.94C232.2 126.36 232.28 126.44 232.8 126.44H234.34C234.74 126.44 234.82 126.32 234.9 125.66C235.24 125.92 236 126.16 236.54 126.26C236.34 127.62 235.8 128 234.6 128H232.5C230.74 128 230.24 127.54 230.24 125.94V124H233.74V123.16ZM235.16 132.26H237.48V130.94H235.16V132.26ZM240.3 123.16H236.42V121.66H242.32V125.52H238.74V125.92C238.74 126.36 238.84 126.44 239.34 126.44H240.96C241.36 126.44 241.44 126.32 241.52 125.64C241.88 125.9 242.66 126.14 243.18 126.24C242.98 127.62 242.46 128 241.2 128H239.06C237.26 128 236.8 127.54 236.8 125.94V124H240.3V123.16Z" fill="white"/>
<path d="M235.879 149.46C235.019 150.12 234.119 150.74 233.199 151.32C235.439 151.06 237.619 150.7 239.099 150.3L240.559 151.86C238.079 152.54 234.639 152.92 231.599 153.14L231.359 154.16H240.599C240.599 154.16 240.559 154.82 240.479 155.16C239.999 157.86 239.519 159.22 238.839 159.82C238.299 160.34 237.759 160.48 236.919 160.52C236.259 160.58 235.119 160.58 233.919 160.52C233.879 159.86 233.579 158.96 233.159 158.32C234.319 158.44 235.579 158.48 236.099 158.48C236.479 158.48 236.739 158.44 236.979 158.28C237.299 158.02 237.619 157.34 237.879 156.08H230.859L230.619 157L228.239 156.66C228.519 155.82 228.819 154.74 229.099 153.6C228.019 154.12 226.919 154.6 225.819 155.04C225.499 154.56 224.799 153.66 224.359 153.22C226.179 152.58 227.979 151.82 229.699 150.9L229.799 150.44L230.439 150.52C231.059 150.18 231.659 149.82 232.239 149.46H225.239V147.46H231.379V145.86H226.779V143.92H231.379V141.86H233.739V143.92H237.939V144.94C238.659 144.2 239.319 143.44 239.919 142.66L241.839 143.72C240.799 145.04 239.619 146.3 238.319 147.46H242.659V149.46H235.879ZM235.079 147.46C235.739 146.94 236.379 146.42 236.979 145.86H233.739V147.46H235.079Z" fill="white"/>
<path d="M411.22 87.3201V89.9001H392.82V87.3201H411.22Z" fill="white"/>
<path d="M398.521 111.42C397.121 113.04 395.501 114.78 394.141 116.12L392.621 114.1C393.721 113.02 395.501 111.18 397.141 109.36L398.521 111.42ZM396.661 106.26C395.961 105.4 394.401 104.12 393.181 103.24L394.881 101.5C396.061 102.26 397.681 103.46 398.441 104.3L396.661 106.26ZM405.421 108.12C405.421 110.26 406.621 114.62 411.521 116.76C411.061 117.34 410.381 118.32 410.001 118.94C406.421 117.3 404.561 113.78 404.181 112C403.701 113.78 401.661 117.18 397.621 118.94C397.341 118.38 396.601 117.38 396.181 116.94C401.581 114.78 402.921 110.36 402.921 108.14V106.08H401.321C400.721 107.5 400.001 108.76 399.241 109.74C398.761 109.36 397.601 108.72 397.001 108.44C398.701 106.6 399.901 103.52 400.521 100.32L403.001 100.78C402.781 101.78 402.521 102.76 402.201 103.7H409.081L409.541 103.58L411.301 104.6C410.741 106.6 409.801 108.66 409.001 110.1C408.521 109.82 407.541 109.34 406.981 109.12C407.381 108.36 407.881 107.22 408.241 106.08H405.421V108.12Z" fill="white"/>
<path d="M403.061 124.44C402.881 125.06 402.681 125.66 402.521 126.24H410.121V139.74H407.701V138.72H396.161V139.74H393.861V126.24H400.021C400.141 125.66 400.261 125.04 400.341 124.44H393.041V122.2H411.041V124.44H403.061ZM396.161 136.54H398.201V128.44H396.161V136.54ZM403.401 128.44H400.341V129.82H403.401V128.44ZM403.401 131.68H400.341V133.2H403.401V131.68ZM400.341 136.54H403.401V135.06H400.341V136.54ZM407.701 128.44H405.541V136.54H407.701V128.44Z" fill="white"/>
<path d="M405.44 150.3C405.24 150.76 405.02 151.26 404.78 151.74H411.22V153.74H409.06C408.74 155.04 408.28 156.1 407.64 156.96C408.96 157.56 410.16 158.18 411 158.76L409.5 160.54C408.66 159.92 407.38 159.22 405.98 158.54C404.42 159.58 402.24 160.18 399.22 160.58C399.04 159.92 398.68 159.1 398.34 158.66C400.64 158.46 402.36 158.12 403.64 157.52C403.14 157.32 402.64 157.12 402.16 156.96L401.96 157.32L399.92 156.66C400.36 155.86 400.88 154.82 401.38 153.74H398.98V152.66C398.48 152.8 397.98 152.96 397.48 153.1V157.86C397.48 159.04 397.28 159.68 396.64 160.04C395.98 160.44 395.04 160.52 393.66 160.52C393.6 159.88 393.3 158.86 393 158.2C393.78 158.24 394.6 158.24 394.86 158.22C395.1 158.22 395.2 158.14 395.2 157.84V153.74L392.98 154.34L392.48 152.04C393.24 151.88 394.18 151.66 395.2 151.42V147.82H392.88V145.64H395.2V141.88H397.48V145.64H399.02V147.82H397.48V150.86L399 150.46L399.16 151.74H402.28C402.5 151.24 402.7 150.76 402.88 150.3H398.82V148.28H401.82C401.72 147.54 401.5 146.58 401.24 145.84L401.64 145.76H399.42V143.76H403.88V141.86H406.3V143.76H410.76V145.76H409.12C408.8 146.68 408.46 147.56 408.16 148.28H411.24V150.3H405.44ZM403.82 153.74C403.58 154.24 403.32 154.74 403.08 155.22C403.86 155.46 404.7 155.76 405.56 156.08C406.08 155.46 406.46 154.68 406.72 153.74H403.82ZM403.4 145.76C403.7 146.6 403.96 147.6 404 148.26L403.92 148.28H406.02C406.3 147.56 406.6 146.56 406.78 145.76H403.4Z" fill="white"/>
<path d="M564.6 104.92L566.3 102.88C567.36 103.86 568.76 104.52 570.06 104.52C571.6 104.52 572.42 103.86 572.42 102.82C572.42 101.72 571.52 101.38 570.2 100.82L568.22 99.98C566.72 99.36 565.22 98.16 565.22 96C565.22 93.58 567.34 91.72 570.34 91.72C572.06 91.72 573.78 92.4 574.98 93.62L573.48 95.48C572.54 94.7 571.56 94.26 570.34 94.26C569.04 94.26 568.2 94.84 568.2 95.82C568.2 96.88 569.26 97.26 570.52 97.76L572.46 98.58C574.26 99.32 575.44 100.46 575.44 102.6C575.44 105.02 573.42 107.08 570 107.08C568.02 107.08 566.04 106.3 564.6 104.92Z" fill="white"/>
<path d="M565.15 112.8H570.01C573.29 112.8 575.81 113.94 575.81 117.44C575.81 120.94 573.27 122.34 570.09 122.34H568.11V127.6H565.15V112.8ZM569.89 120C571.93 120 572.91 119.14 572.91 117.44C572.91 115.74 571.83 115.14 569.79 115.14H568.11V120H569.89Z" fill="white"/>
<path d="M568.52 133.6H571.479V148.4H568.52V133.6Z" fill="white"/>
<path d="M746.3 90.0801C745.76 91.9601 744.9 93.5201 743.78 94.7801C744.78 95.4401 745.98 95.9401 747.3 96.2601C746.84 96.7001 746.22 97.5601 745.9 98.1201C744.48 97.7001 743.24 97.0801 742.18 96.2601C741.16 97.0401 740.02 97.6601 738.78 98.1201C738.56 97.6601 738.12 97.0001 737.72 96.5201V98.1401H735.44V96.5201C733.14 96.7401 730.86 96.9401 729.1 97.1001L728.92 95.0601C729.44 95.0201 730.04 95.0001 730.66 94.9401V88.8601H729.1V86.9801H746.88V88.8601H737.72V96.1801C738.74 95.8401 739.72 95.3601 740.56 94.7401C739.84 93.8801 739.22 92.8801 738.74 91.7801L740.06 91.4201H738.22V89.6001H744.44L744.84 89.5201L746.3 90.0801ZM744.58 86.2401H731.44V80.1001H744.58V86.2401ZM732.84 88.8601V89.6601H735.44V88.8601H732.84ZM732.84 92.1601H735.44V91.3201H732.84V92.1601ZM732.84 94.7801C733.68 94.7201 734.56 94.6601 735.44 94.5801V93.8001H732.84V94.7801ZM742.2 81.6201H733.72V82.4401H742.2V81.6201ZM742.2 83.8801H733.72V84.7201H742.2V83.8801ZM740.74 91.4201C741.08 92.1401 741.54 92.8001 742.08 93.3801C742.62 92.8001 743.08 92.1401 743.44 91.4201H740.74Z" fill="white"/>
<path d="M731.379 112.3C731.179 114.18 730.759 116.18 730.179 117.46C729.759 117.2 728.879 116.78 728.359 116.6C728.939 115.42 729.259 113.64 729.419 111.96L731.379 112.3ZM746.459 102.9C745.699 104.82 744.579 106.48 743.239 107.9C744.559 108.92 746.079 109.74 747.679 110.26C747.179 110.74 746.499 111.62 746.179 112.2C744.519 111.54 742.999 110.58 741.639 109.38C740.239 110.54 738.699 111.44 737.139 112.1C736.999 111.8 736.739 111.4 736.439 111.02L734.979 111.68C734.919 111.38 734.839 111.06 734.739 110.7L733.719 110.78V118.96H731.659V110.92L728.759 111.1L728.559 109.04L729.999 108.98C730.299 108.6 730.619 108.16 730.939 107.7C730.359 106.84 729.399 105.78 728.579 104.98L729.719 103.36C729.859 103.48 730.019 103.62 730.179 103.76C730.739 102.66 731.299 101.34 731.639 100.28L733.699 101.04C732.979 102.4 732.179 103.96 731.459 105.06C731.699 105.34 731.939 105.6 732.139 105.86C732.819 104.74 733.459 103.6 733.919 102.62L735.859 103.52C734.759 105.26 733.379 107.28 732.119 108.9L734.039 108.82C733.819 108.32 733.579 107.82 733.339 107.38L734.919 106.72C735.479 107.72 736.039 108.92 736.379 109.94C737.699 109.4 738.959 108.68 740.079 107.82C739.519 107.2 739.019 106.52 738.559 105.82C738.019 106.42 737.439 107 736.779 107.54C736.419 107.04 735.659 106.3 735.139 106C737.319 104.34 738.739 102.14 739.479 100.26L741.799 100.64C741.579 101.14 741.339 101.66 741.059 102.16H744.619L744.979 102.08L746.459 102.9ZM735.439 111.8C735.939 112.94 736.459 114.4 736.679 115.4L734.919 116.04C734.739 115.04 734.219 113.5 733.759 112.32L735.439 111.8ZM738.399 114.26C740.979 114.96 744.079 116.26 745.919 117.26L744.539 119.12C742.799 118.02 739.619 116.68 737.019 115.94L738.399 114.26ZM740.519 110.88C741.959 111.44 743.679 112.34 744.659 113.06L743.279 114.72C742.339 113.96 740.599 112.94 739.179 112.38L740.519 110.88ZM739.879 104.2C740.359 104.98 740.939 105.74 741.619 106.46C742.299 105.76 742.879 105 743.359 104.2H739.879Z" fill="white"/>
<path d="M739.059 124.44C738.879 125.06 738.679 125.66 738.519 126.24H746.119V139.74H743.699V138.72H732.159V139.74H729.859V126.24H736.019C736.139 125.66 736.259 125.04 736.339 124.44H729.039V122.2H747.039V124.44H739.059ZM732.159 136.54H734.199V128.44H732.159V136.54ZM739.399 128.44H736.339V129.82H739.399V128.44ZM739.399 131.68H736.339V133.2H739.399V131.68ZM736.339 136.54H739.399V135.06H736.339V136.54ZM743.699 128.44H741.539V136.54H743.699V128.44Z" fill="white"/>
<path d="M741.439 150.3C741.239 150.76 741.019 151.26 740.779 151.74H747.219V153.74H745.059C744.739 155.04 744.279 156.1 743.639 156.96C744.959 157.56 746.159 158.18 746.999 158.76L745.499 160.54C744.659 159.92 743.379 159.22 741.979 158.54C740.419 159.58 738.239 160.18 735.219 160.58C735.039 159.92 734.679 159.1 734.339 158.66C736.639 158.46 738.359 158.12 739.639 157.52C739.139 157.32 738.639 157.12 738.159 156.96L737.959 157.32L735.919 156.66C736.359 155.86 736.879 154.82 737.379 153.74H734.979V152.66C734.479 152.8 733.979 152.96 733.479 153.1V157.86C733.479 159.04 733.279 159.68 732.639 160.04C731.979 160.44 731.039 160.52 729.659 160.52C729.599 159.88 729.299 158.86 728.999 158.2C729.779 158.24 730.599 158.24 730.859 158.22C731.099 158.22 731.199 158.14 731.199 157.84V153.74L728.979 154.34L728.479 152.04C729.239 151.88 730.179 151.66 731.199 151.42V147.82H728.879V145.64H731.199V141.88H733.479V145.64H735.019V147.82H733.479V150.86L734.999 150.46L735.159 151.74H738.279C738.499 151.24 738.699 150.76 738.879 150.3H734.819V148.28H737.819C737.719 147.54 737.499 146.58 737.239 145.84L737.639 145.76H735.419V143.76H739.879V141.86H742.299V143.76H746.759V145.76H745.119C744.799 146.68 744.459 147.56 744.159 148.28H747.239V150.3H741.439ZM739.819 153.74C739.579 154.24 739.319 154.74 739.079 155.22C739.859 155.46 740.699 155.76 741.559 156.08C742.079 155.46 742.459 154.68 742.719 153.74H739.819ZM739.399 145.76C739.699 146.6 739.959 147.6 739.999 148.26L739.919 148.28H742.019C742.299 147.56 742.599 146.56 742.779 145.76H739.399Z" fill="white"/>
<path d="M914.24 116.22C914.24 117.5 913.98 118.16 913.14 118.54C912.32 118.92 911.04 118.96 909.26 118.96C909.18 118.28 908.82 117.22 908.48 116.6C909.66 116.66 911 116.64 911.38 116.64C911.76 116.62 911.88 116.52 911.88 116.16V105.9H907.22C907.18 106.64 907.1 107.38 906.94 108.16C908.64 109.7 910.8 111.76 911.88 113.14L909.92 114.68C909.12 113.58 907.62 111.96 906.16 110.5C905.38 112.18 904.04 113.82 901.86 115.1C901.52 114.62 900.78 113.78 900.2 113.34V118.98H897.82V103.58H904.78V100.26H907.24V103.58H914.24V116.22ZM900.2 113.28C903.98 111.32 904.66 108.36 904.76 105.9H900.2V113.28Z" fill="white"/>
<path d="M907.22 137.04C907.94 137.12 908.7 137.16 909.5 137.16C910.58 137.16 913.88 137.16 915.22 137.1C914.88 137.68 914.5 138.82 914.38 139.52H909.38C905.68 139.52 902.94 138.92 901.14 136.06C900.48 137.6 899.6 138.88 898.46 139.86C898.06 139.44 897.06 138.6 896.5 138.24C898.66 136.64 899.64 133.88 900 130.46L902.48 130.7C902.36 131.6 902.22 132.44 902.04 133.24C902.64 134.84 903.58 135.8 904.76 136.38V129.32H900.5V127.06H911.5V129.32H907.22V131.82H912.72V134.06H907.22V137.04ZM899.8 128.08H897.46V123.08H904.72V121.08H907.24V123.08H914.56V128.08H912.1V125.34H899.8V128.08Z" fill="white"/>
<path opacity="0.2" d="M4 64V4H64" fill="white"/>
<path opacity="0.2" d="M172 64V4H232" fill="white"/>
<path opacity="0.2" d="M340 64V4H400" fill="white"/>
<path opacity="0.2" d="M508 64V4H568" fill="white"/>
<path opacity="0.2" d="M676 64V4H736" fill="white"/>
<path opacity="0.2" d="M844 64V4H904" fill="white"/>
<path d="M19.3496 15.3999H22.8696V28.5799H20.7696V17.4199H19.3496V15.3999Z" fill="white"/>
<path d="M185.52 28.58C186.35 27.74 187.15 26.93 187.93 26.14C188.71 25.35 189.41 24.59 190.02 23.85C190.63 23.11 191.12 22.39 191.48 21.68C191.84 20.97 192.02 20.29 192.02 19.64C192.02 19.09 191.91 18.64 191.68 18.29C191.45 17.94 191.16 17.68 190.79 17.51C190.42 17.34 190.03 17.26 189.62 17.26C189.06 17.26 188.61 17.37 188.27 17.6C187.93 17.83 187.68 18.1 187.52 18.43C187.36 18.76 187.28 19.07 187.28 19.38C187.28 20.25 187.54 20.94 188.06 21.46L186.76 22.64C186.44 22.44 186.17 22.15 185.94 21.77C185.71 21.39 185.54 20.99 185.42 20.57C185.3 20.15 185.24 19.77 185.24 19.44C185.24 18.71 185.42 18.02 185.78 17.39C186.14 16.76 186.67 16.24 187.38 15.84C188.09 15.44 188.95 15.24 189.96 15.24C190.81 15.24 191.55 15.44 192.18 15.83C192.81 16.22 193.3 16.74 193.65 17.38C194 18.02 194.18 18.72 194.18 19.48C194.18 20.32 193.98 21.13 193.57 21.92C193.16 22.71 192.65 23.49 192.02 24.26C191.39 25.03 190.75 25.8 190.08 26.56H194.58V28.58H185.52Z" fill="white"/>
<path d="M361.841 15.3999L358.901 20.2599C359.491 20.2999 360.041 20.4599 360.551 20.7299C361.061 20.9999 361.481 21.4199 361.791 21.9899C362.101 22.5599 362.261 23.2899 362.261 24.1999C362.261 25.1099 362.051 25.9399 361.621 26.6199C361.191 27.2999 360.631 27.8199 359.921 28.1899C359.211 28.5599 358.431 28.7399 357.581 28.7399C356.941 28.7399 356.301 28.6099 355.651 28.3399C355.001 28.0699 354.471 27.7299 354.061 27.2999L355.121 25.5799C355.361 25.8699 355.701 26.1399 356.141 26.3699C356.581 26.5999 357.051 26.7199 357.541 26.7199C358.231 26.7199 358.831 26.4799 359.341 26.0099C359.851 25.5399 360.101 24.8899 360.101 24.0799C360.101 23.3499 359.891 22.7699 359.461 22.3399C359.031 21.9099 358.451 21.6999 357.701 21.6999C357.311 21.6999 356.991 21.7299 356.741 21.7799C356.491 21.8299 356.251 21.8999 356.041 21.9799L355.961 21.8999L358.781 17.4199H354.881V15.3999H361.841Z" fill="white"/>
<path d="M521.48 25.44V25.42L529.581 15.24H529.6V23.84H531.3V25.44H529.6V28.58H527.5V25.44H521.48ZM527.5 20.1L524.62 23.84H527.5V20.1Z" fill="white"/>
<path d="M694.961 28.7399C694.251 28.7399 693.571 28.6099 692.901 28.3399C692.231 28.0699 691.701 27.7499 691.301 27.3599L692.401 25.7199C692.671 26.0099 693.021 26.2599 693.471 26.4499C693.921 26.6399 694.361 26.7399 694.801 26.7399C695.491 26.7399 696.061 26.5199 696.511 26.0699C696.961 25.6199 697.181 25.0399 697.181 24.3199C697.181 23.5599 696.971 22.9299 696.551 22.4299C696.131 21.9299 695.511 21.6799 694.681 21.6799C694.231 21.6799 693.801 21.7399 693.411 21.8699C693.021 21.9999 692.601 22.1899 692.161 22.4399H692.141V15.3999H698.481V17.4199H693.961V20.0599C694.361 19.9699 694.771 19.9199 695.181 19.9199C696.091 19.9199 696.851 20.1199 697.471 20.5199C698.091 20.9199 698.561 21.4499 698.871 22.0999C699.181 22.7499 699.341 23.4699 699.341 24.2599C699.341 25.0999 699.151 25.8599 698.771 26.5399C698.391 27.2199 697.871 27.7599 697.211 28.1499C696.551 28.5399 695.801 28.7399 694.961 28.7399Z" fill="white"/>
<path d="M863.669 28.74C862.779 28.74 861.969 28.53 861.239 28.1C860.509 27.67 859.939 27.06 859.509 26.27C859.079 25.48 858.869 24.53 858.869 23.42C858.869 22.57 859.039 21.75 859.369 20.98C859.699 20.21 860.149 19.48 860.719 18.8C861.289 18.12 861.929 17.48 862.649 16.89C863.369 16.3 864.119 15.75 864.889 15.26L866.289 16.78C865.059 17.37 864.069 18.05 863.309 18.82C862.549 19.59 861.999 20.36 861.649 21.12C861.979 20.79 862.369 20.53 862.819 20.36C863.269 20.19 863.779 20.1 864.369 20.1C865.049 20.1 865.689 20.28 866.289 20.64C866.889 21 867.379 21.5 867.749 22.13C868.119 22.76 868.309 23.49 868.309 24.3C868.309 25.21 868.089 25.99 867.649 26.66C867.209 27.33 866.639 27.84 865.939 28.2C865.239 28.56 864.479 28.74 863.669 28.74ZM863.589 26.86C864.299 26.86 864.899 26.63 865.399 26.17C865.899 25.71 866.149 25.09 866.149 24.32C866.149 23.55 865.899 22.98 865.399 22.53C864.899 22.08 864.299 21.86 863.589 21.86C863.109 21.86 862.679 21.96 862.289 22.15C861.899 22.34 861.599 22.61 861.369 22.94C861.139 23.27 861.029 23.64 861.029 24.04V24.42C861.029 24.85 861.139 25.25 861.369 25.62C861.599 25.99 861.899 26.29 862.289 26.52C862.679 26.75 863.109 26.86 863.589 26.86Z" fill="white"/>
</g>
<defs>
<clipPath id="clip0_1795_2595">
<rect width="972" height="240" fill="white"/>
</clipPath>
</defs>
</svg>
