<svg width="330" height="700" viewBox="0 0 330 700" fill="none" xmlns="http://www.w3.org/2000/svg">
<g clip-path="url(#clip0_1797_2668)">
<path d="M170 38H160V668H170V38Z" fill="black"/>
<path d="M330 0H0V100H330V0Z" fill="#0A2270"/>
<path d="M116.59 32.06C117.51 32.06 118.35 31.98 118.77 31.94V34.66C118.35 34.64 117.37 34.58 116.57 34.58H112.07C111.95 38.6 110.69 41.88 106.37 44.46L103.89 42.62C107.81 40.84 109.15 37.96 109.31 34.58H104.21C103.33 34.58 102.53 34.64 101.91 34.68V31.92C102.51 31.98 103.33 32.06 104.13 32.06H109.33V29.86C109.33 29.18 109.25 28.14 109.07 27.52H112.25C112.13 28.14 112.09 29.26 112.09 29.88V32.06H116.59Z" fill="white"/>
<path d="M125.59 40.18C125.59 41.04 125.99 41.26 126.89 41.44C127.49 41.52 128.31 41.56 129.21 41.56C131.29 41.56 134.53 41.3 136.17 40.86V43.78C134.29 44.06 131.25 44.2 129.05 44.2C127.75 44.2 126.55 44.1 125.69 43.96C123.95 43.66 122.95 42.7 122.95 40.98V30.08C122.95 29.64 122.89 28.62 122.79 28H125.75C125.65 28.62 125.59 29.52 125.59 30.08V33.86C127.95 33.28 130.73 32.4 132.51 31.64C133.23 31.36 133.91 31.04 134.69 30.56L135.77 33.1C134.99 33.42 134.09 33.8 133.43 34.04C131.41 34.84 128.19 35.84 125.59 36.48V40.18ZM134.35 30.56C133.95 29.74 133.33 28.56 132.79 27.8L134.37 27.14C134.87 27.88 135.59 29.14 135.97 29.88L134.35 30.56ZM136.73 26.24C137.27 26.98 137.99 28.26 138.35 28.96L136.77 29.64C136.35 28.8 135.71 27.64 135.15 26.88L136.73 26.24Z" fill="white"/>
<path d="M155.37 31.38C156.43 31.38 157.03 31.34 157.57 31.24V33.9C157.13 33.86 156.43 33.84 155.37 33.84H153.89V34.5C153.89 39.46 152.69 42.48 147.87 44.6L145.73 42.58C149.59 41.24 151.29 39.5 151.29 34.6V33.84H146.55V36.56C146.55 37.44 146.61 38.26 146.63 38.66H143.83C143.89 38.26 143.95 37.46 143.95 36.56V33.84H142.25C141.25 33.84 140.53 33.88 140.09 33.92V31.2C140.45 31.26 141.25 31.38 142.25 31.38H143.95V29.4C143.95 28.64 143.87 27.98 143.83 27.6H146.67C146.61 27.98 146.55 28.62 146.55 29.42V31.38H151.29V29.28C151.29 28.48 151.23 27.82 151.17 27.42H154.01C153.97 27.82 153.89 28.48 153.89 29.28V31.38H155.37Z" fill="white"/>
<path d="M170.83 41.5999C170.83 42.4799 170.87 43.7199 171.01 44.2199H167.85C167.93 43.7399 167.99 42.4799 167.99 41.5999V35.0399C165.93 36.0799 163.43 37.1199 161.11 37.7599L159.67 35.3199C163.17 34.5599 166.53 33.0799 168.77 31.6999C170.79 30.4399 172.87 28.6599 173.99 27.1799L176.13 29.1199C174.61 30.6399 172.81 32.1399 170.83 33.4199V41.5999Z" fill="white"/>
<path d="M191.81 38.74C189.75 37.66 186.75 36.5 184.59 35.76V41.42C184.59 42 184.69 43.4 184.77 44.2H181.65C181.77 43.42 181.85 42.22 181.85 41.42V29.94C181.85 29.22 181.79 28.22 181.65 27.52H184.77C184.69 28.22 184.59 29.1 184.59 29.94V32.88C187.27 33.66 191.11 35.08 192.95 35.98L191.81 38.74Z" fill="white"/>
<path d="M210.69 43.44C209.57 42.32 208.07 41.14 206.31 40.34C206.33 40.6 206.33 40.82 206.33 41.02C206.33 42.76 205.43 44.44 202.11 44.44C199.29 44.44 196.97 43.52 196.97 40.82C196.97 38.76 198.73 37.12 202.37 37.12C202.77 37.12 203.17 37.14 203.55 37.18C203.49 35.64 203.41 33.94 203.41 32.9C203.41 31.7 203.39 30.52 203.37 29.68C203.35 28.7 203.29 27.86 203.17 27.36H206.15C206.07 27.94 206.01 28.9 205.97 29.68V31.12C207.53 31.08 209.85 31 211.49 30.82L211.59 33.18C209.93 33.34 207.57 33.42 205.97 33.46C206.01 34.66 206.09 36.22 206.19 37.68C208.71 38.44 210.85 39.8 212.21 41.08L210.69 43.44ZM203.63 39.48C203.11 39.4 202.55 39.34 201.99 39.34C200.45 39.34 199.53 39.86 199.53 40.7C199.53 41.68 200.53 42.04 201.91 42.04C203.19 42.04 203.65 41.46 203.65 40.16C203.65 39.98 203.65 39.74 203.63 39.48Z" fill="white"/>
<path d="M218.95 27.34C218.67 28.32 218.27 30.34 218.15 31.44C219.09 29.92 220.81 28.24 223.05 28.24C225.81 28.24 227.95 30.94 227.95 35.3C227.95 40.9 224.51 43.58 219.27 44.54L217.77 42.24C222.17 41.56 225.25 40.12 225.25 35.32C225.25 32.26 224.23 30.56 222.59 30.56C220.25 30.56 218.21 34.08 218.11 36.68C218.09 37.22 218.09 37.86 218.21 38.78L215.75 38.94C215.65 38.18 215.51 36.96 215.51 35.64C215.51 33.8 215.77 31.34 216.07 29.3C216.17 28.58 216.21 27.78 216.23 27.22L218.95 27.34Z" fill="white"/>
<path d="M134.26 70.2C134.98 70.2 135.62 70.12 136.12 70.04V72.94C135.56 72.86 134.72 72.84 134.26 72.84H121.08C120.48 72.84 119.78 72.86 119.12 72.94V70.04C119.74 70.16 120.46 70.2 121.08 70.2H126.16V62.04H122.3C121.76 62.04 120.9 62.08 120.4 62.12V59.38C120.92 59.46 121.74 59.5 122.3 59.5H133.18C133.78 59.5 134.48 59.44 135.06 59.38V62.12C134.46 62.08 133.76 62.04 133.18 62.04H128.96V70.2H134.26Z" fill="white"/>
<path d="M147.1 68.84C150.5 66.82 153.12 63.76 154.38 61.06L155.94 63.88C154.42 66.58 151.76 69.34 148.54 71.28C146.52 72.5 143.94 73.62 141.12 74.1L139.44 71.46C142.56 71.02 145.16 70 147.1 68.84ZM147.1 62.36L145.06 64.46C144.02 63.34 141.52 61.16 140.06 60.14L141.94 58.14C143.34 59.08 145.94 61.16 147.1 62.36Z" fill="white"/>
<path d="M171.18 68.74C169.12 67.66 166.12 66.5 163.96 65.76V71.42C163.96 72 164.06 73.4 164.14 74.2H161.02C161.14 73.42 161.22 72.22 161.22 71.42V59.94C161.22 59.22 161.16 58.22 161.02 57.52H164.14C164.06 58.22 163.96 59.1 163.96 59.94V62.88C166.64 63.66 170.48 65.08 172.32 65.98L171.18 68.74Z" fill="white"/>
<path d="M180.32 57.9999C180.28 58.4399 180.26 58.8799 180.26 59.5199V66.2799C180.26 66.7799 180.28 67.5599 180.32 68.0199H177.36C177.38 67.6399 177.46 66.8599 177.46 66.2599V59.5199C177.46 59.1399 177.44 58.4399 177.38 57.9999H180.32ZM189.54 57.8199C189.5 58.3799 189.46 59.0199 189.46 59.8199V63.7799C189.46 68.0799 188.62 69.9199 187.14 71.5599C185.82 73.0199 183.74 73.9999 182.28 74.4599L180.18 72.2599C182.18 71.7999 183.86 71.0399 185.08 69.7399C186.44 68.2399 186.7 66.7399 186.7 63.6199V59.8199C186.7 59.0199 186.66 58.3799 186.58 57.8199H189.54Z" fill="white"/>
<path d="M194.18 64.08C194.9 64.14 196.36 64.2 197.4 64.2H208.14C209.06 64.2 209.96 64.12 210.48 64.08V67.22C210 67.2 208.98 67.12 208.14 67.12H197.4C196.26 67.12 194.92 67.16 194.18 67.22V64.08Z" fill="white"/>
<path opacity="0.2" d="M4 64V4H64" fill="white"/>
<path d="M19.3501 15.4H22.8701V28.58H20.7701V17.42H19.3501V15.4Z" fill="white"/>
<path d="M330 120H0V220H330V120Z" fill="#0A2270"/>
<path d="M134.9 167.5V168.2H141.3V169.64H134.9V170.36H142.76V172.02H124.82V170.36H132.52V169.64H126.22V168.2H132.52V167.5H126.66V166.12H132.52V165.36H124.84V163.72H132.52V162.98H126.88V161.6H132.52V160.34H134.9V161.6H140.48V163.72H142.76V165.36H140.48V167.5H134.9ZM127.32 172.64H140.58V179.12H138.18V178.54H129.62V179.14H127.32V172.64ZM129.62 174.16V174.88H138.18V174.16H129.62ZM138.18 177.04V176.26H129.62V177.04H138.18ZM134.9 163.72H138.12V162.98H134.9V163.72ZM134.9 166.12H138.12V165.36H134.9V166.12Z" fill="white"/>
<path d="M152.9 177.52C154.26 176.92 155.76 175.9 156.52 175.04L158.46 176.28C157.46 177.32 155.76 178.46 154.34 179.08C153.98 178.64 153.34 178 152.84 177.58L152.62 177.82C152.06 177.26 151.02 176.44 150.02 175.7C149.38 176.88 148.26 177.96 146.3 178.8C146.08 178.28 145.46 177.46 145.04 177.04C147.46 176.06 148.3 174.68 148.56 173.36H145.56V171.32H148.68V169.96H150.82V171.32H154.16V173.36H150.76C150.74 173.48 150.72 173.62 150.7 173.74C151.86 174.48 153.34 175.52 154.1 176.22L152.9 177.52ZM148.74 167.66C148.06 168.54 147.28 169.32 146.5 169.86C146.18 169.38 145.56 168.68 145.14 168.32C146.2 167.74 147.3 166.72 148.08 165.66H145.56V163.8H148.74V160.64H150.8V163.8H154.02V165.66H150.84C151.66 166.08 153.74 167.32 154.28 167.68L153.04 169.34C152.54 168.86 151.62 168.14 150.8 167.5V169.54H148.74V167.66ZM146.66 163.76C146.56 163.12 146.16 162.16 145.72 161.42L147.32 160.82C147.76 161.54 148.2 162.46 148.34 163.1L146.66 163.76ZM154.1 161.26C153.62 162.18 153.16 163.06 152.76 163.68L151.24 163.18C151.58 162.5 151.96 161.46 152.14 160.74L154.1 161.26ZM157.3 164.48C157.42 164.06 157.5 163.62 157.58 163.2H154.24V161.18H163.72V163.2H160.14C159.96 163.64 159.78 164.08 159.62 164.48H163.22V175.02H154.82V164.48H157.3ZM160.96 166.26H156.96V167.48H160.96V166.26ZM160.96 169.12H156.96V170.34H160.96V169.12ZM160.96 172H156.96V173.26H160.96V172ZM160.9 175.18C161.98 175.92 163.48 177.02 164.22 177.78L162.42 179.06C161.76 178.3 160.32 177.14 159.22 176.34L160.9 175.18Z" fill="white"/>
<path d="M177.16 173.96C176.16 174.9 174.48 175.82 173.12 176.38C173.62 176.5 174.16 176.56 174.76 176.58C177.22 176.7 182.12 176.64 184.92 176.4C184.66 176.94 184.32 177.98 184.22 178.62C181.68 178.76 177.26 178.8 174.76 178.68C172.36 178.58 170.72 178 169.52 176.44C168.76 177.24 167.98 178.02 167.02 178.88L165.9 176.62C166.62 176.1 167.5 175.44 168.26 174.76V170.34H166.2V168.16H170.46V174.56C171 175.5 171.88 176.08 173.04 176.36C172.64 175.96 171.84 175.28 171.36 174.96C172.66 174.56 174.06 174 174.9 173.36H171.1V171.6H174.36V170.28H171.68V168.54H174.36V167.48H176.56V168.54H178.88V167.48H181.14V168.54H183.88V170.28H181.14V171.6H184.5V173.36H180.6C181.98 174.02 183.56 174.88 184.46 175.52L182.04 176.4C181.28 175.78 179.88 174.86 178.56 174.22L180.08 173.36H175.42L177.16 173.96ZM168.72 165.48C168.28 164.5 167.08 163.06 166.06 162.06L167.94 160.86C168.98 161.82 170.24 163.16 170.74 164.16L168.72 165.48ZM175.14 162.5H171.36V161H177.14V164.86H173.6V165.28C173.6 165.7 173.68 165.78 174.2 165.78H175.74C176.14 165.78 176.22 165.66 176.3 165C176.64 165.26 177.4 165.5 177.94 165.6C177.74 166.96 177.2 167.34 176 167.34H173.9C172.14 167.34 171.64 166.88 171.64 165.28V163.34H175.14V162.5ZM176.56 171.6H178.88V170.28H176.56V171.6ZM181.7 162.5H177.82V161H183.72V164.86H180.14V165.26C180.14 165.7 180.24 165.78 180.74 165.78H182.36C182.76 165.78 182.84 165.66 182.92 164.98C183.28 165.24 184.06 165.48 184.58 165.58C184.38 166.96 183.86 167.34 182.6 167.34H180.46C178.66 167.34 178.2 166.88 178.2 165.28V163.34H181.7V162.5Z" fill="white"/>
<path d="M198.08 168C197.22 168.66 196.32 169.28 195.4 169.86C197.64 169.6 199.82 169.24 201.3 168.84L202.76 170.4C200.28 171.08 196.84 171.46 193.8 171.68L193.56 172.7H202.8C202.8 172.7 202.76 173.36 202.68 173.7C202.2 176.4 201.72 177.76 201.04 178.36C200.5 178.88 199.96 179.02 199.12 179.06C198.46 179.12 197.32 179.12 196.12 179.06C196.08 178.4 195.78 177.5 195.36 176.86C196.52 176.98 197.78 177.02 198.3 177.02C198.68 177.02 198.94 176.98 199.18 176.82C199.5 176.56 199.82 175.88 200.08 174.62H193.06L192.82 175.54L190.44 175.2C190.72 174.36 191.02 173.28 191.3 172.14C190.22 172.66 189.12 173.14 188.02 173.58C187.7 173.1 187 172.2 186.56 171.76C188.38 171.12 190.18 170.36 191.9 169.44L192 168.98L192.64 169.06C193.26 168.72 193.86 168.36 194.44 168H187.44V166H193.58V164.4H188.98V162.46H193.58V160.4H195.94V162.46H200.14V163.48C200.86 162.74 201.52 161.98 202.12 161.2L204.04 162.26C203 163.58 201.82 164.84 200.52 166H204.86V168H198.08ZM197.28 166C197.94 165.48 198.58 164.96 199.18 164.4H195.94V166H197.28Z" fill="white"/>
<path opacity="0.2" d="M4 184V124H64" fill="white"/>
<path d="M17.1799 148.58C18.0099 147.74 18.8099 146.93 19.5899 146.14C20.3699 145.35 21.0699 144.59 21.6799 143.85C22.2899 143.11 22.7799 142.39 23.1399 141.68C23.4999 140.97 23.6799 140.29 23.6799 139.64C23.6799 139.1 23.5699 138.64 23.3399 138.29C23.1099 137.94 22.8199 137.68 22.4499 137.51C22.0799 137.34 21.6899 137.26 21.2799 137.26C20.7199 137.26 20.2699 137.37 19.9299 137.6C19.5899 137.83 19.3399 138.1 19.1799 138.43C19.0199 138.76 18.9399 139.07 18.9399 139.38C18.9399 140.25 19.1999 140.94 19.7199 141.46L18.4199 142.64C18.0999 142.44 17.8299 142.15 17.5999 141.77C17.3699 141.39 17.1999 140.99 17.0799 140.57C16.9599 140.15 16.8999 139.77 16.8999 139.44C16.8999 138.71 17.0799 138.02 17.4399 137.39C17.7999 136.76 18.3299 136.24 19.0399 135.84C19.7499 135.44 20.6099 135.24 21.6199 135.24C22.4699 135.24 23.2099 135.44 23.8399 135.83C24.4699 136.22 24.9599 136.74 25.3099 137.38C25.6599 138.02 25.8399 138.72 25.8399 139.48C25.8399 140.32 25.6399 141.13 25.2299 141.92C24.8199 142.71 24.3099 143.49 23.6799 144.26C23.0499 145.03 22.4099 145.8 21.7399 146.56H26.2399V148.58H17.1799Z" fill="white"/>
<path d="M330 240H0V340H330V240Z" fill="#0A2270"/>
<path d="M143.02 288.26V290.84H124.62V288.26H143.02Z" fill="white"/>
<path d="M151.12 291.56C149.72 293.18 148.1 294.92 146.74 296.26L145.22 294.24C146.32 293.16 148.1 291.32 149.74 289.5L151.12 291.56ZM149.26 286.4C148.56 285.54 147 284.26 145.78 283.38L147.48 281.64C148.66 282.4 150.28 283.6 151.04 284.44L149.26 286.4ZM158.02 288.26C158.02 290.4 159.22 294.76 164.12 296.9C163.66 297.48 162.98 298.46 162.6 299.08C159.02 297.44 157.16 293.92 156.78 292.14C156.3 293.92 154.26 297.32 150.22 299.08C149.94 298.52 149.2 297.52 148.78 297.08C154.18 294.92 155.52 290.5 155.52 288.28V286.22H153.92C153.32 287.64 152.6 288.9 151.84 289.88C151.36 289.5 150.2 288.86 149.6 288.58C151.3 286.74 152.5 283.66 153.12 280.46L155.6 280.92C155.38 281.92 155.12 282.9 154.8 283.84H161.68L162.14 283.72L163.9 284.74C163.34 286.74 162.4 288.8 161.6 290.24C161.12 289.96 160.14 289.48 159.58 289.26C159.98 288.5 160.48 287.36 160.84 286.22H158.02V288.26Z" fill="white"/>
<path d="M176.46 283.78C176.28 284.4 176.08 285 175.92 285.58H183.52V299.08H181.1V298.06H169.56V299.08H167.26V285.58H173.42C173.54 285 173.66 284.38 173.74 283.78H166.44V281.54H184.44V283.78H176.46ZM169.56 295.88H171.6V287.78H169.56V295.88ZM176.8 287.78H173.74V289.16H176.8V287.78ZM176.8 291.02H173.74V292.54H176.8V291.02ZM173.74 295.88H176.8V294.4H173.74V295.88ZM181.1 287.78H178.94V295.88H181.1V287.78Z" fill="white"/>
<path d="M199.64 288.84C199.44 289.3 199.22 289.8 198.98 290.28H205.42V292.28H203.26C202.94 293.58 202.48 294.64 201.84 295.5C203.16 296.1 204.36 296.72 205.2 297.3L203.7 299.08C202.86 298.46 201.58 297.76 200.18 297.08C198.62 298.12 196.44 298.72 193.42 299.12C193.24 298.46 192.88 297.64 192.54 297.2C194.84 297 196.56 296.66 197.84 296.06C197.34 295.86 196.84 295.66 196.36 295.5L196.16 295.86L194.12 295.2C194.56 294.4 195.08 293.36 195.58 292.28H193.18V291.2C192.68 291.34 192.18 291.5 191.68 291.64V296.4C191.68 297.58 191.48 298.22 190.84 298.58C190.18 298.98 189.24 299.06 187.86 299.06C187.8 298.42 187.5 297.4 187.2 296.74C187.98 296.78 188.8 296.78 189.06 296.76C189.3 296.76 189.4 296.68 189.4 296.38V292.28L187.18 292.88L186.68 290.58C187.44 290.42 188.38 290.2 189.4 289.96V286.36H187.08V284.18H189.4V280.42H191.68V284.18H193.22V286.36H191.68V289.4L193.2 289L193.36 290.28H196.48C196.7 289.78 196.9 289.3 197.08 288.84H193.02V286.82H196.02C195.92 286.08 195.7 285.12 195.44 284.38L195.84 284.3H193.62V282.3H198.08V280.4H200.5V282.3H204.96V284.3H203.32C203 285.22 202.66 286.1 202.36 286.82H205.44V288.84H199.64ZM198.02 292.28C197.78 292.78 197.52 293.28 197.28 293.76C198.06 294 198.9 294.3 199.76 294.62C200.28 294 200.66 293.22 200.92 292.28H198.02ZM197.6 284.3C197.9 285.14 198.16 286.14 198.2 286.8L198.12 286.82H200.22C200.5 286.1 200.8 285.1 200.98 284.3H197.6Z" fill="white"/>
<path opacity="0.2" d="M4 304V244H64" fill="white"/>
<path d="M25.1699 255.4L22.2299 260.26C22.8199 260.3 23.3699 260.46 23.8799 260.73C24.3899 261 24.8099 261.42 25.1199 261.99C25.4299 262.56 25.5899 263.29 25.5899 264.2C25.5899 265.11 25.3799 265.94 24.9499 266.62C24.5199 267.3 23.9599 267.82 23.2499 268.19C22.5399 268.56 21.7599 268.74 20.9099 268.74C20.2699 268.74 19.6299 268.61 18.9799 268.34C18.3299 268.07 17.7999 267.73 17.3899 267.3L18.4499 265.58C18.6899 265.87 19.0299 266.14 19.4699 266.37C19.9099 266.6 20.3799 266.72 20.8699 266.72C21.5599 266.72 22.1599 266.48 22.6699 266.01C23.1799 265.54 23.4299 264.89 23.4299 264.08C23.4299 263.35 23.2199 262.77 22.7899 262.34C22.3599 261.91 21.7799 261.7 21.0299 261.7C20.6399 261.7 20.3199 261.73 20.0699 261.78C19.8199 261.83 19.5799 261.9 19.3699 261.98L19.2899 261.9L22.1099 257.42H18.2099V255.4H25.1699Z" fill="white"/>
<path d="M330 360H0V460H330V360Z" fill="#0A2270"/>
<path opacity="0.2" d="M4 424V364H64" fill="white"/>
<path d="M16.47 385.44V385.42L24.57 375.24H24.59V383.84H26.29V385.44H24.59V388.58H22.49V385.44H16.47ZM22.49 380.1L19.61 383.84H22.49V380.1Z" fill="white"/>
<path d="M330 480H0V580H330V480Z" fill="#0A2270"/>
<path d="M142.1 531.02C141.56 532.9 140.7 534.46 139.58 535.72C140.58 536.38 141.78 536.88 143.1 537.2C142.64 537.64 142.02 538.5 141.7 539.06C140.28 538.64 139.04 538.02 137.98 537.2C136.96 537.98 135.82 538.6 134.58 539.06C134.36 538.6 133.92 537.94 133.52 537.46V539.08H131.24V537.46C128.94 537.68 126.66 537.88 124.9 538.04L124.72 536C125.24 535.96 125.84 535.94 126.46 535.88V529.8H124.9V527.92H142.68V529.8H133.52V537.12C134.54 536.78 135.52 536.3 136.36 535.68C135.64 534.82 135.02 533.82 134.54 532.72L135.86 532.36H134.02V530.54H140.24L140.64 530.46L142.1 531.02ZM140.38 527.18H127.24V521.04H140.38V527.18ZM128.64 529.8V530.6H131.24V529.8H128.64ZM128.64 533.1H131.24V532.26H128.64V533.1ZM128.64 535.72C129.48 535.66 130.36 535.6 131.24 535.52V534.74H128.64V535.72ZM138 522.56H129.52V523.38H138V522.56ZM138 524.82H129.52V525.66H138V524.82ZM136.54 532.36C136.88 533.08 137.34 533.74 137.88 534.32C138.42 533.74 138.88 533.08 139.24 532.36H136.54Z" fill="white"/>
<path d="M147.98 532.44C147.78 534.32 147.36 536.32 146.78 537.6C146.36 537.34 145.48 536.92 144.96 536.74C145.54 535.56 145.86 533.78 146.02 532.1L147.98 532.44ZM163.06 523.04C162.3 524.96 161.18 526.62 159.84 528.04C161.16 529.06 162.68 529.88 164.28 530.4C163.78 530.88 163.1 531.76 162.78 532.34C161.12 531.68 159.6 530.72 158.24 529.52C156.84 530.68 155.3 531.58 153.74 532.24C153.6 531.94 153.34 531.54 153.04 531.16L151.58 531.82C151.52 531.52 151.44 531.2 151.34 530.84L150.32 530.92V539.1H148.26V531.06L145.36 531.24L145.16 529.18L146.6 529.12C146.9 528.74 147.22 528.3 147.54 527.84C146.96 526.98 146 525.92 145.18 525.12L146.32 523.5C146.46 523.62 146.62 523.76 146.78 523.9C147.34 522.8 147.9 521.48 148.24 520.42L150.3 521.18C149.58 522.54 148.78 524.1 148.06 525.2C148.3 525.48 148.54 525.74 148.74 526C149.42 524.88 150.06 523.74 150.52 522.76L152.46 523.66C151.36 525.4 149.98 527.42 148.72 529.04L150.64 528.96C150.42 528.46 150.18 527.96 149.94 527.52L151.52 526.86C152.08 527.86 152.64 529.06 152.98 530.08C154.3 529.54 155.56 528.82 156.68 527.96C156.12 527.34 155.62 526.66 155.16 525.96C154.62 526.56 154.04 527.14 153.38 527.68C153.02 527.18 152.26 526.44 151.74 526.14C153.92 524.48 155.34 522.28 156.08 520.4L158.4 520.78C158.18 521.28 157.94 521.8 157.66 522.3H161.22L161.58 522.22L163.06 523.04ZM152.04 531.94C152.54 533.08 153.06 534.54 153.28 535.54L151.52 536.18C151.34 535.18 150.82 533.64 150.36 532.46L152.04 531.94ZM155 534.4C157.58 535.1 160.68 536.4 162.52 537.4L161.14 539.26C159.4 538.16 156.22 536.82 153.62 536.08L155 534.4ZM157.12 531.02C158.56 531.58 160.28 532.48 161.26 533.2L159.88 534.86C158.94 534.1 157.2 533.08 155.78 532.52L157.12 531.02ZM156.48 524.34C156.96 525.12 157.54 525.88 158.22 526.6C158.9 525.9 159.48 525.14 159.96 524.34H156.48Z" fill="white"/>
<path d="M176.46 523.78C176.28 524.4 176.08 525 175.92 525.58H183.52V539.08H181.1V538.06H169.56V539.08H167.26V525.58H173.42C173.54 525 173.66 524.38 173.74 523.78H166.44V521.54H184.44V523.78H176.46ZM169.56 535.88H171.6V527.78H169.56V535.88ZM176.8 527.78H173.74V529.16H176.8V527.78ZM176.8 531.02H173.74V532.54H176.8V531.02ZM173.74 535.88H176.8V534.4H173.74V535.88ZM181.1 527.78H178.94V535.88H181.1V527.78Z" fill="white"/>
<path d="M199.64 528.84C199.44 529.3 199.22 529.8 198.98 530.28H205.42V532.28H203.26C202.94 533.58 202.48 534.64 201.84 535.5C203.16 536.1 204.36 536.72 205.2 537.3L203.7 539.08C202.86 538.46 201.58 537.76 200.18 537.08C198.62 538.12 196.44 538.72 193.42 539.12C193.24 538.46 192.88 537.64 192.54 537.2C194.84 537 196.56 536.66 197.84 536.06C197.34 535.86 196.84 535.66 196.36 535.5L196.16 535.86L194.12 535.2C194.56 534.4 195.08 533.36 195.58 532.28H193.18V531.2C192.68 531.34 192.18 531.5 191.68 531.64V536.4C191.68 537.58 191.48 538.22 190.84 538.58C190.18 538.98 189.24 539.06 187.86 539.06C187.8 538.42 187.5 537.4 187.2 536.74C187.98 536.78 188.8 536.78 189.06 536.76C189.3 536.76 189.4 536.68 189.4 536.38V532.28L187.18 532.88L186.68 530.58C187.44 530.42 188.38 530.2 189.4 529.96V526.36H187.08V524.18H189.4V520.42H191.68V524.18H193.22V526.36H191.68V529.4L193.2 529L193.36 530.28H196.48C196.7 529.78 196.9 529.3 197.08 528.84H193.02V526.82H196.02C195.92 526.08 195.7 525.12 195.44 524.38L195.84 524.3H193.62V522.3H198.08V520.4H200.5V522.3H204.96V524.3H203.32C203 525.22 202.66 526.1 202.36 526.82H205.44V528.84H199.64ZM198.02 532.28C197.78 532.78 197.52 533.28 197.28 533.76C198.06 534 198.9 534.3 199.76 534.62C200.28 534 200.66 533.22 200.92 532.28H198.02ZM197.6 524.3C197.9 525.14 198.16 526.14 198.2 526.8L198.12 526.82H200.22C200.5 526.1 200.8 525.1 200.98 524.3H197.6Z" fill="white"/>
<path opacity="0.2" d="M4 544V484H64" fill="white"/>
<path d="M21.2701 508.74C20.5601 508.74 19.8801 508.61 19.2101 508.34C18.5401 508.07 18.0101 507.75 17.6101 507.36L18.7101 505.72C18.9801 506.01 19.3301 506.26 19.7801 506.45C20.2301 506.64 20.6701 506.74 21.1101 506.74C21.8001 506.74 22.3701 506.52 22.8201 506.07C23.2701 505.62 23.4901 505.04 23.4901 504.32C23.4901 503.56 23.2801 502.93 22.8601 502.43C22.4401 501.93 21.8201 501.68 20.9901 501.68C20.5401 501.68 20.1101 501.74 19.7201 501.87C19.3301 502 18.9101 502.19 18.4701 502.44H18.4501V495.4H24.7901V497.42H20.2701V500.06C20.6701 499.97 21.0801 499.92 21.4901 499.92C22.4001 499.92 23.1601 500.12 23.7801 500.52C24.4001 500.92 24.8701 501.45 25.1801 502.1C25.4901 502.75 25.6501 503.47 25.6501 504.26C25.6501 505.1 25.4601 505.86 25.0801 506.54C24.7001 507.22 24.1801 507.76 23.5201 508.15C22.8601 508.54 22.1101 508.74 21.2701 508.74Z" fill="white"/>
<path d="M330 600H0V700H330V600Z" fill="#0A2270"/>
<path d="M162.84 656.36C162.84 657.64 162.58 658.3 161.74 658.68C160.92 659.06 159.64 659.1 157.86 659.1C157.78 658.42 157.42 657.36 157.08 656.74C158.26 656.8 159.6 656.78 159.98 656.78C160.36 656.76 160.48 656.66 160.48 656.3V646.04H155.82C155.78 646.78 155.7 647.52 155.54 648.3C157.24 649.84 159.4 651.9 160.48 653.28L158.52 654.82C157.72 653.72 156.22 652.1 154.76 650.64C153.98 652.32 152.64 653.96 150.46 655.24C150.12 654.76 149.38 653.92 148.8 653.48V659.12H146.42V643.72H153.38V640.4H155.84V643.72H162.84V656.36ZM148.8 653.42C152.58 651.46 153.26 648.5 153.36 646.04H148.8V653.42Z" fill="white"/>
<path d="M176.62 656.38C177.34 656.46 178.1 656.5 178.9 656.5C179.98 656.5 183.28 656.5 184.62 656.44C184.28 657.02 183.9 658.16 183.78 658.86H178.78C175.08 658.86 172.34 658.26 170.54 655.4C169.88 656.94 169 658.22 167.86 659.2C167.46 658.78 166.46 657.94 165.9 657.58C168.06 655.98 169.04 653.22 169.4 649.8L171.88 650.04C171.76 650.94 171.62 651.78 171.44 652.58C172.04 654.18 172.98 655.14 174.16 655.72V648.66H169.9V646.4H180.9V648.66H176.62V651.16H182.12V653.4H176.62V656.38ZM169.2 647.42H166.86V642.42H174.12V640.42H176.64V642.42H183.96V647.42H181.5V644.68H169.2V647.42Z" fill="white"/>
<path opacity="0.2" d="M4 664V604H64" fill="white"/>
<path d="M21.6501 628.74C20.7601 628.74 19.9501 628.53 19.2201 628.1C18.4901 627.67 17.9201 627.06 17.4901 626.27C17.0601 625.48 16.8501 624.53 16.8501 623.42C16.8501 622.57 17.0201 621.75 17.3501 620.98C17.6801 620.21 18.1301 619.48 18.7001 618.8C19.2701 618.12 19.9101 617.48 20.6301 616.89C21.3501 616.3 22.1001 615.76 22.8701 615.26L24.2701 616.78C23.0401 617.37 22.0501 618.05 21.2901 618.82C20.5301 619.59 19.9801 620.36 19.6301 621.12C19.9601 620.79 20.3501 620.53 20.8001 620.36C21.2501 620.19 21.7601 620.1 22.3501 620.1C23.0301 620.1 23.6701 620.28 24.2701 620.64C24.8701 621 25.3601 621.5 25.7301 622.13C26.1001 622.76 26.2901 623.49 26.2901 624.3C26.2901 625.21 26.0701 625.99 25.6301 626.66C25.1901 627.33 24.6201 627.84 23.9201 628.2C23.2201 628.56 22.4601 628.74 21.6501 628.74ZM21.5701 626.86C22.2801 626.86 22.8801 626.63 23.3801 626.17C23.8801 625.71 24.1301 625.09 24.1301 624.32C24.1301 623.55 23.8801 622.98 23.3801 622.53C22.8801 622.08 22.2801 621.86 21.5701 621.86C21.0901 621.86 20.6601 621.96 20.2701 622.15C19.8801 622.34 19.5801 622.61 19.3501 622.94C19.1201 623.27 19.0101 623.64 19.0101 624.04V624.42C19.0101 624.85 19.1201 625.25 19.3501 625.62C19.5801 625.99 19.8801 626.29 20.2701 626.52C20.6601 626.75 21.0901 626.86 21.5701 626.86Z" fill="white"/>
<path d="M148.83 415.46L150.53 413.42C151.59 414.4 152.99 415.06 154.29 415.06C155.83 415.06 156.65 414.4 156.65 413.36C156.65 412.26 155.75 411.92 154.43 411.36L152.45 410.52C150.95 409.9 149.45 408.7 149.45 406.54C149.45 404.12 151.57 402.26 154.57 402.26C156.29 402.26 158.01 402.94 159.21 404.16L157.71 406.02C156.77 405.24 155.79 404.8 154.57 404.8C153.27 404.8 152.43 405.38 152.43 406.36C152.43 407.42 153.49 407.8 154.75 408.3L156.69 409.12C158.49 409.86 159.67 411 159.67 413.14C159.67 415.56 157.65 417.62 154.23 417.62C152.25 417.62 150.27 416.84 148.83 415.46Z" fill="white"/>
<path d="M163.09 402.54H167.95C171.23 402.54 173.75 403.68 173.75 407.18C173.75 410.68 171.21 412.08 168.03 412.08H166.05V417.34H163.09V402.54ZM167.83 409.74C169.87 409.74 170.85 408.88 170.85 407.18C170.85 405.48 169.77 404.88 167.73 404.88H166.05V409.74H167.83Z" fill="white"/>
<path d="M177.23 402.54H180.19V417.34H177.23V402.54Z" fill="white"/>
</g>
<defs>
<clipPath id="clip0_1797_2668">
<rect width="330" height="700" fill="white"/>
</clipPath>
</defs>
</svg>
