<svg xmlns="http://www.w3.org/2000/svg" viewBox="0 0 176 40"><defs><style>.cls-1{fill:#fff;}.cls-2{fill:#333;}</style></defs><title>アセット 1</title><g id="レイヤー_2" data-name="レイヤー 2"><g id="header"><rect class="cls-1" width="176" height="40"/><path class="cls-2" d="M17.45,12.12l4.94,11.71H12.56ZM19,6h-.86L9.49,26.51C7.75,30.65,6.64,33.75,4,34v.81h8.43V34c-1.45,0-2.9-.38-2.9-1.78,0-1.58,1.75-5,2.3-6.6H23l1.53,3.62c1.62,3.78,1.66,4.6-2,4.76v.81H33.42V34c-2.38.13-3.28-2.42-4.05-4.17Z"/><path class="cls-2" d="M34.39,34.77v-.51l18.69-26H44.19c-4.43,0-6.9.76-7.66,5.66H35.42l.85-7.28H58.74V7.1L40.27,33.16H50.7c4.68,0,6.6-1.2,7.83-5.88h1l-1,7.49Z"/><path class="cls-2" d="M60.62,34.77V34c3.11,0,3.75-1.36,3.75-2.59V10c0-1.23-.64-2.59-3.75-2.59V6.59H72.45V7.4c-3.1,0-3.74,1.36-3.74,2.59V31.37C68.71,32.56,70.33,33,73,33c5.4,0,9.19.18,11.53-5.65h1.06l-2,7.4Z"/><path class="cls-2" d="M95.4,31.37C95.4,32.6,96,34,99.57,34v.81H86.88V34c3.54,0,4.18-1.36,4.18-2.59V10c0-1.23-.64-2.59-4.18-2.59V6.59H99.57V7.4C96,7.4,95.4,8.76,95.4,10Z"/><path class="cls-2" d="M126.35,35.37h-.64L106.89,11.91h-.08V31.37c0,1.23.63,2.59,4.13,2.59v.81H100.8V34c3.49,0,4.13-1.36,4.13-2.59V9.74l-.34-.43c-1.32-1.49-1.7-1.87-3.79-1.91V6.59h7.28l16.31,20.48h.08V10c0-1.23-.64-2.59-4.12-2.59V6.59h10.13V7.4c-3.5,0-4.13,1.36-4.13,2.59Z"/><path class="cls-2" d="M139.2,31.37c0,1.23.64,2.59,3.83,2.59v.81H131V34c3.19,0,3.83-1.36,3.83-2.59V10c0-1.23-.64-2.59-3.83-2.59V6.59h12.09V7.4c-3.28,0-3.92,1.36-3.92,2.59V20c1.75-1.7,10.86-9.15,10.86-11.16,0-1.57-1.79-1.36-2.9-1.44V6.59h11.16V7.4c-3.11,0-4.77,1.61-6.86,3.7l-7.7,7.62,6.72,7.11L153.33,29c2.22,2.47,4,5,7,5v.81h-13V34c3.15,0,3.4-.76,2.72-1.91a42.48,42.48,0,0,0-5.66-6.69l-4.13-4.09-1.11.9Z"/><path class="cls-2" d="M172.53,32.94a2.38,2.38,0,0,1-2.46,2.43,2.45,2.45,0,1,1,2.46-2.43Z"/></g></g></svg>