<svg width="150" height="151" viewBox="0 0 150 151" fill="none" xmlns="http://www.w3.org/2000/svg">
<g clip-path="url(#clip0_803_3156)">
<path d="M75 150.314C116.421 150.314 150 116.735 150 75.3137C150 33.8924 116.421 0.313721 75 0.313721C33.5786 0.313721 0 33.8924 0 75.3137C0 116.735 33.5786 150.314 75 150.314Z" fill="white"/>
<path d="M119.39 31.3137H31.3901V119.314H119.39V31.3137Z" fill="white"/>
<path d="M106.44 35.7437H43.5601V79.8336H106.44V35.7437Z" fill="white" stroke="#464A65" stroke-width="2.95" stroke-linecap="round" stroke-linejoin="round"/>
<path d="M50.6699 64.1736V73.0436" stroke="#0DB2E7" stroke-width="2.95" stroke-linecap="round" stroke-linejoin="round"/>
<path d="M55.96 65.9436V73.0436" stroke="#0DB2E7" stroke-width="2.95" stroke-linecap="round" stroke-linejoin="round"/>
<path d="M61.2402 58.1836V73.0436" stroke="#0DB2E7" stroke-width="2.95" stroke-linecap="round" stroke-linejoin="round"/>
<path d="M66.5303 59.6235V73.0435" stroke="#0DB2E7" stroke-width="2.95" stroke-linecap="round" stroke-linejoin="round"/>
<path d="M71.8101 63.8337V73.0437" stroke="#0DB2E7" stroke-width="2.95" stroke-linecap="round" stroke-linejoin="round"/>
<path d="M77.1001 56.6335V73.0435" stroke="#0DB2E7" stroke-width="2.95" stroke-linecap="round" stroke-linejoin="round"/>
<path d="M82.3901 46.6436V73.0436" stroke="#0DB2E7" stroke-width="2.95" stroke-linecap="round" stroke-linejoin="round"/>
<path d="M87.6699 55.0737V73.0437" stroke="#0DB2E7" stroke-width="2.95" stroke-linecap="round" stroke-linejoin="round"/>
<path d="M92.96 59.8438V73.0438" stroke="#0DB2E7" stroke-width="2.95" stroke-linecap="round" stroke-linejoin="round"/>
<path d="M98.25 62.8438V73.0438" stroke="#0DB2E7" stroke-width="2.95" stroke-linecap="round" stroke-linejoin="round"/>
<path d="M78.23 111.744C75.97 108.964 74.93 102.404 72.04 98.8437C70.14 96.5137 70.16 93.1537 71.91 92.7037C75.63 91.7437 79.73 96.6937 79.73 96.6937V73.9537C79.73 69.7237 87.02 69.6037 86.98 73.8237C86.92 78.6937 86.98 87.3237 86.98 87.3237C89.53 86.6137 91.53 86.9737 93.07 88.8237C95 87.8337 97.79 88.4937 99.1 90.1537C101.58 89.4137 104.75 91.6837 104.75 95.2837V106.884C104.75 110.194 102.61 112.844 101.36 114.104C100.85 114.614 100.16 114.904 99.43 114.904H83.82C83.18 114.904 82.55 114.734 81.99 114.414C80.83 113.734 78.85 112.524 78.24 111.764L78.23 111.744Z" fill="white" stroke="#464A65" stroke-width="2.95" stroke-linecap="round" stroke-linejoin="round"/>
</g>
<defs>
<clipPath id="clip0_803_3156">
<rect width="150" height="150" fill="white" transform="translate(0 0.313721)"/>
</clipPath>
</defs>
</svg>
