<svg width="150" height="150" viewBox="0 0 150 150" fill="none" xmlns="http://www.w3.org/2000/svg">
<path d="M75 150C116.421 150 150 116.421 150 75C150 33.5786 116.421 0 75 0C33.5786 0 0 33.5786 0 75C0 116.421 33.5786 150 75 150Z" fill="white"/>
<path d="M97.0702 48.47H48.9102C44.6521 48.47 41.2002 51.9219 41.2002 56.18V87.36C41.2002 91.6181 44.6521 95.07 48.9102 95.07H97.0702C101.328 95.07 104.78 91.6181 104.78 87.36V56.18C104.78 51.9219 101.328 48.47 97.0702 48.47Z" fill="white" stroke="#464A65" stroke-width="2.95" stroke-linecap="round" stroke-linejoin="round"/>
<path d="M41.2002 100.8H104.78" stroke="#464A65" stroke-width="2.95" stroke-linecap="round" stroke-linejoin="round"/>
<path d="M95.6401 105.9C105.327 105.9 113.18 98.0471 113.18 88.3601C113.18 78.673 105.327 70.8201 95.6401 70.8201C85.953 70.8201 78.1001 78.673 78.1001 88.3601C78.1001 98.0471 85.953 105.9 95.6401 105.9Z" fill="white" stroke="#464A65" stroke-width="2.95" stroke-linecap="round" stroke-linejoin="round"/>
<path d="M95.64 100.25C102.207 100.25 107.53 94.9266 107.53 88.36C107.53 81.7933 102.207 76.47 95.64 76.47C89.0733 76.47 83.75 81.7933 83.75 88.36C83.75 94.9266 89.0733 100.25 95.64 100.25Z" stroke="#464A65" stroke-width="2.95" stroke-linecap="round" stroke-linejoin="round"/>
<path d="M109.55 102.28L116.8 109.53" stroke="#464A65" stroke-width="2.95" stroke-linecap="round" stroke-linejoin="round"/>
<path d="M91.3999 88.0901V93.1501" stroke="#0DB2E7" stroke-width="2.95" stroke-linecap="round" stroke-linejoin="round"/>
<path d="M95.6099 83.3101V93.1501" stroke="#0DB2E7" stroke-width="2.95" stroke-linecap="round" stroke-linejoin="round"/>
<path d="M100.26 86.53V93.15" stroke="#0DB2E7" stroke-width="2.95" stroke-linecap="round" stroke-linejoin="round"/>
</svg>
