<svg width="360" height="940" viewBox="0 0 360 940" fill="none" xmlns="http://www.w3.org/2000/svg">
<path d="M130 78H120V868H130V78Z" fill="black"/>
<path d="M250 0H0V100H250V0Z" fill="#0A2270"/>
<path d="M99.0001 44.08C98.6801 44.66 98.3801 45.2 98.1201 45.64H102.1V56.48C102.1 57.66 101.86 58.3 101.08 58.68C100.3 59.04 99.1801 59.08 97.6201 59.08C97.5201 58.52 97.2201 57.66 96.9401 57.06H92.0601V58.16H89.9601V51.88H97.8001V56.84C98.5001 56.86 99.1201 56.86 99.3601 56.86C99.7001 56.86 99.8001 56.76 99.8001 56.46V50.32C99.5001 50.92 99.0001 51.12 98.2001 51.12H96.5801C94.8001 51.12 94.4401 50.58 94.4401 48.96V47.68H92.8201C92.6401 49.9 91.9001 51.18 88.8601 51.88C88.7201 51.48 88.3601 50.88 88.0001 50.48V59.04H85.7401V45.64H89.3001C89.1401 45.14 88.9001 44.54 88.6801 44.08H85.0601V41.92H92.5001V40.42H94.9201V41.92H102.56V44.08H99.0001ZM88.0001 50.2C90.1401 49.78 90.6001 49.06 90.7401 47.68H88.0001V50.2ZM95.5001 45.64C95.7401 45.16 96.0201 44.6 96.2401 44.08H91.2401C91.5001 44.6 91.7601 45.2 91.8801 45.64H95.5001ZM95.6601 53.64H92.0601V55.32H95.6601V53.64ZM99.8001 47.68H96.4801V48.94C96.4801 49.36 96.5401 49.42 96.8801 49.42H97.9201C98.2601 49.42 98.3401 49.28 98.4001 48.32C98.7001 48.52 99.3001 48.74 99.8001 48.88V47.68Z" fill="white"/>
<path d="M106.04 50.08H113.66V58.98H111.28V58.08H108.3V59.08H106.04V50.08ZM108.3 52.36V55.8H111.28V52.36H108.3ZM120.52 48.42H108.8V41.18H120.52V48.42ZM118.1 43.46H111.1V46.16H118.1V43.46ZM123.22 50.08V59H120.82V58.08H117.64V59.08H115.36V50.08H123.22ZM120.82 55.8V52.36H117.64V55.8H120.82Z" fill="white"/>
<path d="M136.42 40.32C138.58 43.48 141.86 46.2 145.06 47.58C144.46 48.2 143.92 48.98 143.46 49.72C140.36 48 137.02 45.12 135.3 42.66C133.68 45.1 130.6 47.88 127.3 49.74C127 49.2 126.32 48.32 125.8 47.82C129.26 46.04 132.48 42.86 133.98 40.32H136.42ZM136.76 56.38H143.92V58.54H126.9V56.38H129.08V49.44H131.42V56.38H134.26V46H136.76V50.28H142.12V52.38H136.76V56.38Z" fill="white"/>
<path d="M165.16 41.6V43.82H157.32V45.42H160.96V54.48H151.44V45.42H154.94V43.82H147.26V41.6H165.16ZM162.26 45.14H164.56V59.06H162.26V57.9H150.18V59.08H147.86V45.14H150.18V55.66H162.26V45.14ZM153.38 49.04H155.12V47.36H153.38V49.04ZM153.38 52.54H155.12V50.84H153.38V52.54ZM158.9 47.36H157.16V49.04H158.9V47.36ZM158.9 50.84H157.16V52.54H158.9V50.84Z" fill="white"/>
<path opacity="0.2" d="M4 64V4H64" fill="white"/>
<path d="M19.3501 15.4H22.8701V28.58H20.7701V17.42H19.3501V15.4Z" fill="white"/>
<path d="M250 140H0V240H250V140Z" fill="#0A2270"/>
<path d="M102.12 194.04C101.1 194.72 99.88 195.38 98.82 195.88C100.02 196.52 101.46 196.96 103.16 197.22C102.7 197.68 102.14 198.54 101.86 199.12C97.7 198.32 95.2 196.44 93.7 193.26C93 193.78 92.2 194.26 91.34 194.68V196.42C92.64 196.26 94 196.08 95.34 195.9L95.42 197.76C92.6 198.16 89.62 198.56 87.42 198.88L87.08 196.94C87.66 196.88 88.34 196.8 89.06 196.72V195.6C88 195.96 86.88 196.24 85.76 196.44C85.48 195.94 84.92 195.16 84.5 194.72C86.7 194.42 88.96 193.84 90.68 193.04H84.84V191.16H92.62V190.14H91.82C91.72 189.68 91.44 189.14 91.24 188.76C91.7 188.78 92.18 188.78 92.32 188.78C92.5 188.78 92.56 188.72 92.56 188.56V187.74H90.92V190.66H88.9V187.74H87.4V190.22H85.6V186.3H88.9V185.6H84.8V184H86.02C85.62 183.76 85.1 183.46 84.78 183.3C85.44 182.54 86 181.46 86.34 180.42L88.08 180.86C87.98 181.14 87.88 181.4 87.76 181.68H88.9V180.4H90.92V181.68H94.24V183.2H90.92V184H94.78V185.6H90.92V186.3H94.46V188.56C94.46 189.32 94.32 189.68 93.8 189.92C93.54 190.04 93.22 190.1 92.86 190.12H94.98V191.16H102.78V193.04H100.78L102.12 194.04ZM88.9 184V183.2H87C86.84 183.48 86.68 183.76 86.5 184H88.9ZM97.72 187.86H95.6V181.2H97.72V187.86ZM95.8 193.04C96.18 193.68 96.66 194.26 97.22 194.76C98.16 194.28 99.26 193.62 100.06 193.04H95.8ZM102.06 188.54C102.06 189.56 101.86 190.06 101.14 190.36C100.44 190.66 99.46 190.68 98.08 190.68C97.98 190.12 97.66 189.32 97.38 188.8C98.28 188.84 99.24 188.84 99.52 188.82C99.82 188.82 99.9 188.74 99.9 188.48V180.54H102.06V188.54Z" fill="white"/>
<path d="M106.04 190.08H113.66V198.98H111.28V198.08H108.3V199.08H106.04V190.08ZM108.3 192.36V195.8H111.28V192.36H108.3ZM120.52 188.42H108.8V181.18H120.52V188.42ZM118.1 183.46H111.1V186.16H118.1V183.46ZM123.22 190.08V199H120.82V198.08H117.64V199.08H115.36V190.08H123.22ZM120.82 195.8V192.36H117.64V195.8H120.82Z" fill="white"/>
<path d="M133.88 185.58H126.06V183.7H133.88V185.58ZM143.86 189.46C143.22 191.88 142.16 193.78 140.78 195.28C141.96 196.04 143.36 196.62 144.9 197C144.38 197.5 143.7 198.44 143.36 199.06C141.68 198.56 140.22 197.82 138.96 196.88C137.62 197.82 136.08 198.54 134.38 199.06C134.14 198.48 133.58 197.54 133.14 197V198.02H128.96V198.8H126.94V191.98H133.14V196.96C134.64 196.58 136 196.02 137.18 195.24C136.26 194.24 135.5 193.08 134.88 191.78L136.92 191.12H134.14V188.98H134.82C134.48 188.58 133.64 187.86 133.16 187.54V188.3H127V186.48H133.16V187.44C134.88 186.26 135.1 184.68 135.1 183.34V180.96H141.8V185.44C141.8 186 141.84 186.06 142.06 186.06H142.56C142.82 186.06 142.9 185.8 142.92 184.06C143.36 184.4 144.28 184.74 144.86 184.9C144.66 187.38 144.14 188.08 142.8 188.08H141.64C140.04 188.08 139.58 187.46 139.58 185.48V183.06H137.34V183.4C137.34 185.28 136.94 187.56 134.86 188.98H141.9L142.3 188.88L143.86 189.46ZM133.16 191H127V189.22H133.16V191ZM133.12 182.82H127.08V181.02H133.12V182.82ZM131.08 193.86H128.96V196.16H131.08V193.86ZM136.98 191.12C137.46 192.12 138.12 193.02 138.92 193.82C139.7 193.04 140.32 192.14 140.8 191.12H136.98Z" fill="white"/>
<path d="M155.04 185.58H146.86V183.7H155.04V185.58ZM154.18 198.02H149.82V198.8H147.76V191.98H154.18V198.02ZM147.82 186.48H154.24V188.3H147.82V186.48ZM147.82 189.22H154.24V191H147.82V189.22ZM154.28 182.82H147.94V181.02H154.28V182.82ZM149.82 193.86V196.16H152.1V193.86H149.82ZM165.72 189.44H161.54V199.08H159.14V189.44H154.96V187.08H159.14V180.48H161.54V187.08H165.72V189.44Z" fill="white"/>
<path opacity="0.2" d="M4 208V148H64" fill="white"/>
<path d="M17.1799 171.58C18.0099 170.74 18.8099 169.93 19.5899 169.14C20.3699 168.35 21.0699 167.59 21.6799 166.85C22.2899 166.11 22.7799 165.39 23.1399 164.68C23.4999 163.97 23.6799 163.29 23.6799 162.64C23.6799 162.09 23.5699 161.64 23.3399 161.29C23.1099 160.94 22.8199 160.68 22.4499 160.51C22.0799 160.34 21.6899 160.26 21.2799 160.26C20.7199 160.26 20.2699 160.37 19.9299 160.6C19.5899 160.83 19.3399 161.1 19.1799 161.43C19.0199 161.76 18.9399 162.07 18.9399 162.38C18.9399 163.25 19.1999 163.94 19.7199 164.46L18.4199 165.64C18.0999 165.44 17.8299 165.15 17.5999 164.77C17.3699 164.39 17.1999 163.99 17.0799 163.57C16.9599 163.15 16.8999 162.77 16.8999 162.44C16.8999 161.71 17.0799 161.02 17.4399 160.39C17.7999 159.76 18.3299 159.24 19.0399 158.84C19.7499 158.44 20.6099 158.24 21.6199 158.24C22.4699 158.24 23.2099 158.44 23.8399 158.83C24.4699 159.22 24.9599 159.74 25.3099 160.38C25.6599 161.02 25.8399 161.72 25.8399 162.48C25.8399 163.32 25.6399 164.13 25.2299 164.92C24.8199 165.71 24.3099 166.49 23.6799 167.26C23.0499 168.03 22.4099 168.8 21.7399 169.56H26.2399V171.58H17.1799Z" fill="white"/>
<path d="M250 280H0V380H250V280Z" fill="#0A2270"/>
<path d="M112.5 325.58H105.26V323.7H112.5V325.58ZM112 338.02H108.06V338.8H106.1V331.98H112V338.02ZM106.16 326.48H112.04V328.3H106.16V326.48ZM106.16 329.22H112.04V331H106.16V329.22ZM111.92 322.82H106.22V321.02H111.92V322.82ZM108.06 333.86V336.16H110.02V333.86H108.06ZM118.68 334.7L118.84 336.66C116.78 337.12 114.6 337.58 112.88 337.94L112.4 335.76C113 335.68 113.7 335.56 114.46 335.44V330.54H112.78V328.5H118.22V330.54H116.66V335.06L118.68 334.7ZM120.78 326.34C120.92 332.06 121.38 336.08 122.14 336.14C122.4 336.14 122.56 335.22 122.64 333.72C123 334.24 123.94 334.9 124.3 335.14C123.78 338.4 122.78 339.1 122.04 339.08C119.56 339.02 118.82 334.3 118.58 326.34H112.8V324.18H118.52C118.5 322.98 118.48 321.74 118.48 320.42H120.76V321.42L122.36 320.6C123 321.34 123.74 322.36 124.08 323.04L122.36 324C122.06 323.32 121.38 322.26 120.76 321.48C120.74 322.4 120.74 323.3 120.76 324.18H123.72V326.34H120.78Z" fill="white"/>
<path d="M132.76 321.2C132.24 322.6 131.58 324.02 130.84 325.36V339.06H128.44V329.06C128.02 329.56 127.6 330.06 127.2 330.5C126.98 329.92 126.3 328.56 125.88 327.96C127.7 326.16 129.44 323.32 130.44 320.48L132.76 321.2ZM139.1 325.92V328.02H144.28V330.18H139.1V332.44H144.54V334.64H139.1V339.08H136.66V325.92H135.9C135.1 327.4 134.18 328.76 133.28 329.8C132.9 329.36 131.96 328.52 131.46 328.14C133.22 326.34 134.8 323.46 135.7 320.6L138 321.18C137.72 322.02 137.4 322.84 137.02 323.66H144.78V325.92H139.1Z" fill="white"/>
<path opacity="0.2" d="M4 344V284H64" fill="white"/>
<path d="M25.1699 295.4L22.2299 300.26C22.8199 300.3 23.3699 300.46 23.8799 300.73C24.3899 301 24.8099 301.42 25.1199 301.99C25.4299 302.56 25.5899 303.29 25.5899 304.2C25.5899 305.11 25.3799 305.94 24.9499 306.62C24.5199 307.3 23.9599 307.82 23.2499 308.19C22.5399 308.56 21.7599 308.74 20.9099 308.74C20.2699 308.74 19.6299 308.61 18.9799 308.34C18.3299 308.07 17.7999 307.73 17.3899 307.3L18.4499 305.58C18.6899 305.87 19.0299 306.14 19.4699 306.37C19.9099 306.6 20.3799 306.72 20.8699 306.72C21.5599 306.72 22.1599 306.48 22.6699 306.01C23.1799 305.54 23.4299 304.89 23.4299 304.08C23.4299 303.35 23.2199 302.77 22.7899 302.34C22.3599 301.91 21.7799 301.7 21.0299 301.7C20.6399 301.7 20.3199 301.73 20.0699 301.78C19.8199 301.83 19.5799 301.9 19.3699 301.98L19.2899 301.9L22.1099 297.42H18.2099V295.4H25.1699Z" fill="white"/>
<path d="M250 420H0V520H250V420Z" fill="#0A2270"/>
<path d="M66.08 465.58H58.26V463.7H66.08V465.58ZM65.34 478.02H61.16V478.8H59.14V471.98H65.34V478.02ZM59.2 466.48H65.36V468.3H59.2V466.48ZM59.2 469.22H65.36V471H59.2V469.22ZM65.32 462.82H59.28V461.02H65.32V462.82ZM61.16 473.86V476.16H63.28V473.86H61.16ZM76.95 472.28H72.53V479.06H70.19V472.28H65.77V470.02H70.19V463.6H66.47V461.38H76.59V463.6H72.53V470.02H76.95V472.28ZM68.54 464.42C68.98 465.9 69.36 467.78 69.44 469.02L67.44 469.5C67.38 468.24 67.04 466.32 66.62 464.82L68.54 464.42ZM73.12 469C73.56 467.72 74.02 465.7 74.22 464.26L76.48 464.7C75.98 466.38 75.44 468.26 74.94 469.46L73.12 469Z" fill="white"/>
<path d="M85.18 461.12C84.68 462.44 84.06 463.78 83.38 465.06V479.06H81.14V468.62C80.74 469.16 80.34 469.66 79.92 470.1C79.7 469.54 79.08 468.28 78.7 467.7C80.42 465.96 82.06 463.2 83.04 460.44L85.18 461.12ZM93.96 464.48V466.98H97.34V478.52H95.06V477.5H87.14V478.64H84.94V466.98H88.16V464.48H84.74V462.36H97.44V464.48H93.96ZM87.14 475.46H88.38V469.04H87.14V475.46ZM90.38 469.04V475.46H91.72V469.04H90.38ZM91.72 464.48H90.4V466.98H91.72V464.48ZM95.06 469.04H93.72V475.46H95.06V469.04Z" fill="white"/>
<path d="M104.2 467.18C105.6 467.18 106.76 468.34 106.76 469.74C106.76 471.14 105.6 472.3 104.2 472.3C102.8 472.3 101.64 471.14 101.64 469.74C101.64 468.34 102.8 467.18 104.2 467.18Z" fill="white"/>
<path d="M129.32 478.3H121.7V479.08H119.46V470.36C119.32 470.46 119.18 470.58 119.04 470.68C118.8 470.38 118.3 469.78 117.86 469.32V476.68H114.24V478.24H112.32V473.18C112.1 473.56 111.86 473.94 111.6 474.28C111.38 473.74 110.76 472.54 110.34 472.02C111.74 470.02 112.5 467 112.96 463.74H111.02V461.58H118.18V462.26H122.24C122.44 461.66 122.62 461.04 122.76 460.4L125 460.8C124.88 461.3 124.74 461.78 124.6 462.26H129.22V465.9H127.12V464.26H123.86C123.5 465.16 123.06 465.98 122.6 466.76H124.2C124.48 466.08 124.76 465.34 124.9 464.74L127.06 465.2C126.82 465.74 126.56 466.26 126.3 466.76H128.86V468.72H125.84V470.06H128.42V471.8H125.84V473.22H128.42V474.94H125.84V476.36H129.32V478.3ZM115.86 469.48H114.24V474.62H115.86V469.48ZM117.86 468.6C119.34 467.5 120.54 466.02 121.42 464.26H120.02V465.9H118V463.74H115.18C115 465 114.76 466.24 114.48 467.44H117.86V468.6ZM123.66 468.72H121.7V470.06H123.66V468.72ZM123.66 471.8H121.7V473.22H123.66V471.8ZM121.7 476.36H123.66V474.94H121.7V476.36Z" fill="white"/>
<path d="M138.72 465.58H131.46V463.7H138.72V465.58ZM138.2 476.8C138.94 475.8 139.3 474.22 139.48 472.68L141.36 473.16C141.16 474.94 140.8 476.84 139.82 478.02L138.2 477.04V478.02H134.26V478.8H132.3V471.98H138.2V476.8ZM138.18 468.3H132.36V466.48H138.18V468.3ZM132.36 469.22H138.18V471H132.36V469.22ZM138.12 462.82H132.42V461.02H138.12V462.82ZM136.22 473.86H134.26V476.16H136.22V473.86ZM140.42 463.76C141.02 463.94 141.66 464.18 142.3 464.42C142.42 464 142.52 463.58 142.6 463.16H139.6V461.18H149.52C149.52 461.18 149.52 461.78 149.5 462.06C149.3 466.58 149.1 468.44 148.56 469.08C148.18 469.58 147.8 469.76 147.24 469.84C146.76 469.92 145.94 469.94 145.08 469.92C145.04 469.28 144.82 468.4 144.52 467.84C144.18 467.62 143.82 467.4 143.42 467.18C142.7 468.46 141.62 469.58 139.98 470.44C139.74 469.92 139.12 469.14 138.64 468.76C140.02 468.1 140.92 467.22 141.52 466.24C140.78 465.92 140.02 465.62 139.32 465.4L140.42 463.76ZM145.16 476.88C145.54 476.88 145.62 476.62 145.68 474.78C146.08 475.14 147.02 475.48 147.62 475.64C147.4 478.26 146.82 478.92 145.4 478.92H143.76C141.88 478.92 141.5 478.26 141.5 476.28V471.9H143.7V476.26C143.7 476.8 143.74 476.88 144.1 476.88H145.16ZM143.32 469.14C144.6 469.8 146.14 470.82 146.9 471.68L145.42 473.2C144.74 472.38 143.22 471.26 141.94 470.52L143.32 469.14ZM144.74 463.16C144.62 463.88 144.46 464.6 144.24 465.3C144.94 465.64 145.58 465.98 146.06 466.3L145.1 467.84C145.52 467.86 145.86 467.86 146.06 467.86C146.34 467.88 146.52 467.82 146.66 467.6C146.94 467.3 147.1 466.12 147.24 463.16H144.74ZM148.26 472.22C149.32 473.74 150.16 475.78 150.44 477.16L148.34 478.02C148.14 476.64 147.32 474.52 146.34 472.98L148.26 472.22Z" fill="white"/>
<path d="M159.5 465.58H152.26V463.7H159.5V465.58ZM159 478.02H155.06V478.8H153.1V471.98H159V478.02ZM153.16 466.48H159.04V468.3H153.16V466.48ZM153.16 469.22H159.04V471H153.16V469.22ZM158.92 462.82H153.22V461.02H158.92V462.82ZM155.06 473.86V476.16H157.02V473.86H155.06ZM165.68 474.7L165.84 476.66C163.78 477.12 161.6 477.58 159.88 477.94L159.4 475.76C160 475.68 160.7 475.56 161.46 475.44V470.54H159.78V468.5H165.22V470.54H163.66V475.06L165.68 474.7ZM167.78 466.34C167.92 472.06 168.38 476.08 169.14 476.14C169.4 476.14 169.56 475.22 169.64 473.72C170 474.24 170.94 474.9 171.3 475.14C170.78 478.4 169.78 479.1 169.04 479.08C166.56 479.02 165.82 474.3 165.58 466.34H159.8V464.18H165.52C165.5 462.98 165.48 461.74 165.48 460.42H167.76V461.42L169.36 460.6C170 461.34 170.74 462.36 171.08 463.04L169.36 464C169.06 463.32 168.38 462.26 167.76 461.48C167.74 462.4 167.74 463.3 167.76 464.18H170.72V466.34H167.78Z" fill="white"/>
<path d="M172.84 477.3C173.52 476.28 173.76 474.6 173.84 472.9L175.16 473.16C175.06 474.98 174.86 476.84 174.04 477.96L172.84 477.3ZM188.22 473.5C189.02 475.12 190.28 476.46 191.96 477.18C191.48 477.62 190.8 478.46 190.46 479.06C188.8 478.2 187.58 476.7 186.72 474.84C186 476.46 184.66 477.96 182.28 479.12C182.04 478.72 181.54 478.12 181.12 477.72C181.04 477.98 180.96 478.16 180.86 478.28C180.52 478.74 180.16 478.92 179.66 478.98C179.26 479.06 178.62 479.08 177.9 479.04C177.88 478.48 177.7 477.7 177.42 477.2C177.94 477.26 178.38 477.28 178.64 477.28C178.88 477.28 179.02 477.22 179.18 477.02C179.32 476.82 179.42 476.32 179.52 475.28L178.88 475.52C178.76 474.82 178.36 473.74 177.98 472.94L178.92 472.62C179.18 473.12 179.42 473.7 179.6 474.24C179.64 473.64 179.68 472.9 179.72 472.04H174V461.14H181.36V463.06H179.22V464.16H180.96V465.22C182.76 464.14 184.5 462.08 185.32 460.42H187.36C188.56 462.26 190.3 464.08 192.06 464.92C191.64 465.48 191.18 466.34 190.88 466.96C190.44 466.7 190 466.4 189.58 466.04V467.14H187.58V468.22H191.16V473.5H188.22ZM176.36 473.22C176.54 474.38 176.62 475.92 176.56 476.88L175.48 477.02C175.54 476.02 175.48 474.5 175.34 473.32L176.36 473.22ZM175.96 463.06V464.16H177.32V463.06H175.96ZM175.96 465.96V467.16H177.32V465.96H175.96ZM175.96 470.2H177.32V468.96H175.96V470.2ZM177.7 473.02C178.02 474.06 178.3 475.38 178.36 476.24L177.32 476.46C177.28 475.6 177.02 474.26 176.7 473.22L177.7 473.02ZM181.74 470.2C181.74 470.2 181.74 470.72 181.72 470.98C181.58 474.28 181.46 476.2 181.24 477.26C183.3 476.22 184.38 474.9 184.92 473.5H182.08V468.22H185.48V467.14H183.44V466.06C182.94 466.48 182.44 466.88 181.9 467.2C181.68 466.68 181.3 465.98 180.96 465.48V465.96H179.22V467.16H180.96V468.96H179.22V470.2H181.74ZM185.36 471.78C185.46 471.18 185.48 470.58 185.48 470V469.94H184.02V471.78H185.36ZM188.76 465.32C187.82 464.44 186.98 463.4 186.42 462.48C185.9 463.38 185.12 464.4 184.22 465.32H188.76ZM187.58 469.94V470.02C187.58 470.6 187.56 471.18 187.5 471.78H189.14V469.94H187.58Z" fill="white"/>
<path opacity="0.2" d="M4 484V424H64" fill="white"/>
<path d="M16.47 445.44V445.42L24.57 435.24H24.59V443.84H26.29V445.44H24.59V448.58H22.49V445.44H16.47ZM22.49 440.1L19.61 443.84H22.49V440.1Z" fill="white"/>
<path d="M250 560H0V660H250V560Z" fill="#0A2270"/>
<path d="M82.0399 616.18V618.52H64.0599V616.18H71.7799V612.16H66.3599V609.86H71.7799V606.34H67.6399C67.0599 607.44 66.4399 608.46 65.7799 609.24C65.2999 608.86 64.2399 608.14 63.6399 607.82C65.1999 606.14 66.4999 603.38 67.1799 600.66L69.6399 601.2C69.3599 602.16 69.0399 603.1 68.6999 604.02H71.7799V600.42H74.2799V604.02H81.0199V606.34H74.2799V609.86H80.2599V612.16H74.2799V616.18H82.0399Z" fill="white"/>
<path d="M102.84 606V608.04H88.34V609.24C88.34 612.04 87.98 616.28 86.1 619.02C85.74 618.6 84.74 617.78 84.26 617.52C85.9 615.08 86.06 611.6 86.06 609.22V606H89.68C89.52 605.38 89.24 604.62 88.92 604L89.36 603.88H85.9V601.86H92.66V600.4H95.04V601.86H101.86V603.88H99.38C98.92 604.64 98.48 605.4 98.1 606H102.84ZM96.78 616.72H102.72V618.68H88.7V616.72H94.44V614.96H90.26V613.16L90.12 613.3C89.68 612.94 88.78 612.4 88.24 612.16C89.34 611.2 90.26 609.72 90.76 608.26L92.86 608.74C92.74 609.1 92.58 609.46 92.42 609.82H94.44V608.34H96.78V609.82H101.64V611.64H96.78V613.14H101.06V614.96H96.78V616.72ZM94.44 613.14V611.64H91.42C91.06 612.2 90.66 612.72 90.28 613.14H94.44ZM91.34 603.88C91.68 604.54 91.96 605.3 92.08 605.84L91.48 606H96.18L95.82 605.9C96.08 605.32 96.34 604.56 96.54 603.88H91.34Z" fill="white"/>
<path d="M123.74 615.3V617.7H105.56V615.3H113.18V604.96H106.64V602.48H122.62V604.96H115.9V615.3H123.74Z" fill="white"/>
<path d="M132.64 613.28C132.4 612.76 131.92 611.98 131.44 611.26V619.06H129.14V611.88C128.5 613.42 127.74 614.84 126.96 615.84C126.74 615.16 126.24 614.18 125.86 613.58C126.98 612.28 128.08 610.16 128.82 608.22H126.28V606H129.14V603.68C128.3 603.84 127.48 603.98 126.7 604.08C126.58 603.54 126.3 602.74 126.04 602.26C128.24 601.88 130.7 601.3 132.24 600.6L133.82 602.42C133.1 602.7 132.3 602.96 131.44 603.18V606H133.58V608.22H131.44V608.8C131.98 609.24 133.62 610.98 134 611.42L132.64 613.28ZM144.72 616.56V618.64H133.16V616.56H137.92V614.8H134.42V612.8H137.92V611.14H133.94V609.1H144.3V611.14H140.28V612.8H143.82V614.8H140.28V616.56H144.72ZM143.76 607.9H134.58V601.14H143.76V607.9ZM141.44 603.14H136.78V605.9H141.44V603.14Z" fill="white"/>
<path d="M154.68 605.58H146.86V603.7H154.68V605.58ZM164.66 609.46C164.02 611.88 162.96 613.78 161.58 615.28C162.76 616.04 164.16 616.62 165.7 617C165.18 617.5 164.5 618.44 164.16 619.06C162.48 618.56 161.02 617.82 159.76 616.88C158.42 617.82 156.88 618.54 155.18 619.06C154.94 618.48 154.38 617.54 153.94 617V618.02H149.76V618.8H147.74V611.98H153.94V616.96C155.44 616.58 156.8 616.02 157.98 615.24C157.06 614.24 156.3 613.08 155.68 611.78L157.72 611.12H154.94V608.98H155.62C155.28 608.58 154.44 607.86 153.96 607.54V608.3H147.8V606.48H153.96V607.44C155.68 606.26 155.9 604.68 155.9 603.34V600.96H162.6V605.44C162.6 606 162.64 606.06 162.86 606.06H163.36C163.62 606.06 163.7 605.8 163.72 604.06C164.16 604.4 165.08 604.74 165.66 604.9C165.46 607.38 164.94 608.08 163.6 608.08H162.44C160.84 608.08 160.38 607.46 160.38 605.48V603.06H158.14V603.4C158.14 605.28 157.74 607.56 155.66 608.98H162.7L163.1 608.88L164.66 609.46ZM153.96 611H147.8V609.22H153.96V611ZM153.92 602.82H147.88V601.02H153.92V602.82ZM151.88 613.86H149.76V616.16H151.88V613.86ZM157.78 611.12C158.26 612.12 158.92 613.02 159.72 613.82C160.5 613.04 161.12 612.14 161.6 611.12H157.78Z" fill="white"/>
<path d="M175.84 605.58H167.66V603.7H175.84V605.58ZM174.98 618.02H170.62V618.8H168.56V611.98H174.98V618.02ZM168.62 606.48H175.04V608.3H168.62V606.48ZM168.62 609.22H175.04V611H168.62V609.22ZM175.08 602.82H168.74V601.02H175.08V602.82ZM170.62 613.86V616.16H172.9V613.86H170.62ZM186.52 609.44H182.34V619.08H179.94V609.44H175.76V607.08H179.94V600.48H182.34V607.08H186.52V609.44Z" fill="white"/>
<path opacity="0.2" d="M4 624V564H64" fill="white"/>
<path d="M21.2701 588.74C20.5601 588.74 19.8801 588.61 19.2101 588.34C18.5401 588.07 18.0101 587.75 17.6101 587.36L18.7101 585.72C18.9801 586.01 19.3301 586.26 19.7801 586.45C20.2301 586.64 20.6701 586.74 21.1101 586.74C21.8001 586.74 22.3701 586.52 22.8201 586.07C23.2701 585.62 23.4901 585.04 23.4901 584.32C23.4901 583.56 23.2801 582.93 22.8601 582.43C22.4401 581.93 21.8201 581.68 20.9901 581.68C20.5401 581.68 20.1101 581.74 19.7201 581.87C19.3301 582 18.9101 582.19 18.4701 582.44H18.4501V575.4H24.7901V577.42H20.2701V580.06C20.6701 579.97 21.0801 579.92 21.4901 579.92C22.4001 579.92 23.1601 580.12 23.7801 580.52C24.4001 580.92 24.8701 581.45 25.1801 582.1C25.4901 582.75 25.6501 583.47 25.6501 584.26C25.6501 585.1 25.4601 585.86 25.0801 586.54C24.7001 587.22 24.1801 587.76 23.5201 588.15C22.8601 588.54 22.1101 588.74 21.2701 588.74Z" fill="white"/>
<path d="M250 700H0V800H250V700Z" fill="#E6E6E6"/>
<path d="M123.64 756.18V758.52H105.66V756.18H113.38V752.16H107.96V749.86H113.38V746.34H109.24C108.66 747.44 108.04 748.46 107.38 749.24C106.9 748.86 105.84 748.14 105.24 747.82C106.8 746.14 108.1 743.38 108.78 740.66L111.24 741.2C110.96 742.16 110.64 743.1 110.3 744.02H113.38V740.42H115.88V744.02H122.62V746.34H115.88V749.86H121.86V752.16H115.88V756.18H123.64Z" fill="black"/>
<path d="M144.44 746V748.04H129.94V749.24C129.94 752.04 129.58 756.28 127.7 759.02C127.34 758.6 126.34 757.78 125.86 757.52C127.5 755.08 127.66 751.6 127.66 749.22V746H131.28C131.12 745.38 130.84 744.62 130.52 744L130.96 743.88H127.5V741.86H134.26V740.4H136.64V741.86H143.46V743.88H140.98C140.52 744.64 140.08 745.4 139.7 746H144.44ZM138.38 756.72H144.32V758.68H130.3V756.72H136.04V754.96H131.86V753.16L131.72 753.3C131.28 752.94 130.38 752.4 129.84 752.16C130.94 751.2 131.86 749.72 132.36 748.26L134.46 748.74C134.34 749.1 134.18 749.46 134.02 749.82H136.04V748.34H138.38V749.82H143.24V751.64H138.38V753.14H142.66V754.96H138.38V756.72ZM136.04 753.14V751.64H133.02C132.66 752.2 132.26 752.72 131.88 753.14H136.04ZM132.94 743.88C133.28 744.54 133.56 745.3 133.68 745.84L133.08 746H137.78L137.42 745.9C137.68 745.32 137.94 744.56 138.14 743.88H132.94Z" fill="black"/>
<path opacity="0.6" d="M4 764V704H64" fill="white"/>
<path d="M21.6501 728.74C20.7601 728.74 19.9501 728.53 19.2201 728.1C18.4901 727.67 17.9201 727.06 17.4901 726.27C17.0601 725.48 16.8501 724.53 16.8501 723.42C16.8501 722.57 17.0201 721.75 17.3501 720.98C17.6801 720.21 18.1301 719.48 18.7001 718.8C19.2701 718.12 19.9101 717.48 20.6301 716.89C21.3501 716.3 22.1001 715.75 22.8701 715.26L24.2701 716.78C23.0401 717.37 22.0501 718.05 21.2901 718.82C20.5301 719.59 19.9801 720.36 19.6301 721.12C19.9601 720.79 20.3501 720.53 20.8001 720.36C21.2501 720.19 21.7601 720.1 22.3501 720.1C23.0301 720.1 23.6701 720.28 24.2701 720.64C24.8701 721 25.3601 721.5 25.7301 722.13C26.1001 722.76 26.2901 723.49 26.2901 724.3C26.2901 725.21 26.0701 725.99 25.6301 726.66C25.1901 727.33 24.6201 727.84 23.9201 728.2C23.2201 728.56 22.4601 728.74 21.6501 728.74ZM21.5701 726.86C22.2801 726.86 22.8801 726.63 23.3801 726.17C23.8801 725.71 24.1301 725.09 24.1301 724.32C24.1301 723.55 23.8801 722.98 23.3801 722.53C22.8801 722.08 22.2801 721.86 21.5701 721.86C21.0901 721.86 20.6601 721.96 20.2701 722.15C19.8801 722.34 19.5801 722.61 19.3501 722.94C19.1201 723.27 19.0101 723.64 19.0101 724.04V724.42C19.0101 724.85 19.1201 725.25 19.3501 725.62C19.5801 725.99 19.8801 726.29 20.2701 726.52C20.6601 726.75 21.0901 726.86 21.5701 726.86Z" fill="black"/>
<path d="M250 840H0V940H250V840Z" fill="#E6E6E6"/>
<path d="M115.78 885.24V887.34H122.08V894.1C122.08 895.24 121.84 895.92 121.02 896.28C120.18 896.64 119.04 896.68 117.48 896.68C117.38 896 117.02 894.98 116.68 894.34C117.68 894.38 118.86 894.38 119.18 894.38C119.5 894.38 119.6 894.28 119.6 894.06V889.66H115.78V899.1H113.3V889.66H109.8V896.68H107.4V887.34H113.3V885.24H105.52V882.92H113.28V880.32H115.82V882.92H123.76V885.24H115.78Z" fill="black"/>
<path d="M136.78 890.42C136.62 890.74 136.42 891.06 136.22 891.38H144.34C144.34 891.38 144.32 891.92 144.3 892.2C144.02 896.1 143.7 897.7 143.16 898.28C142.78 898.74 142.34 898.9 141.84 898.96C141.38 899.02 140.62 899.04 139.82 899C139.78 898.44 139.58 897.64 139.28 897.14C139.92 897.2 140.44 897.2 140.7 897.2C140.98 897.2 141.14 897.16 141.3 896.98C141.58 896.68 141.82 895.66 142.04 893.24H141.26C140.44 895.48 138.88 897.9 137.26 899.16C136.86 898.7 136.18 898.16 135.58 897.84C137.1 896.88 138.44 895.1 139.3 893.24H138.12C137.04 895.16 135.18 897.16 133.44 898.26C133.06 897.8 132.44 897.2 131.88 896.86C133.36 896.12 134.9 894.72 135.96 893.24H134.76C134.04 894 133.26 894.68 132.44 895.2C132.14 894.82 131.38 894.12 130.88 893.8C129.44 894.52 128 895.24 126.78 895.84L125.9 893.44C126.58 893.18 127.42 892.84 128.36 892.46V886.82H126.36V884.58H128.36V880.64H130.56V884.58H132.44V886.82H130.56V891.54L132.16 890.84L132.58 892.54C133.3 891.92 133.92 891.2 134.42 890.42H132.16V888.42H144.74V890.42H136.78ZM143.38 887.66H133.92V880.9H143.38V887.66ZM141.18 882.54H136.02V883.5H141.18V882.54ZM141.18 885.06H136.02V886.02H141.18V885.06Z" fill="black"/>
<path opacity="0.6" d="M4 904V844H64" fill="white"/>
<path d="M26.0101 855.4L20.7901 868.58H18.4301L22.9501 857.42H17.3301V855.4H26.0101Z" fill="black"/>
<path d="M352 0.5H292C287.858 0.5 284.5 3.85786 284.5 8V412C284.5 416.142 287.858 419.5 292 419.5H352C356.142 419.5 359.5 416.142 359.5 412V8C359.5 3.85786 356.142 0.5 352 0.5Z" fill="#E6E9F1"/>
<path d="M352 1C355.86 1 359 4.14 359 8V412C359 415.86 355.86 419 352 419H292C288.14 419 285 415.86 285 412V8C285 4.14 288.14 1 292 1H352ZM352 0H292C287.6 0 284 3.6 284 8V412C284 416.4 287.6 420 292 420H352C356.4 420 360 416.4 360 412V8C360 3.6 356.4 0 352 0Z" fill="#0A2270"/>
<path d="M330.84 30.96H332.86L335.4 38.02C335.71 38.94 336.01 39.86 336.34 40.77H336.43C336.74 39.85 337.02 38.93 337.33 38.02L339.85 30.96H341.87V44.16H340.3V36.85C340.3 35.72 340.43 34.11 340.52 32.96H340.45L339.41 35.97L336.91 42.83H335.79L333.29 35.97L332.25 32.96H332.18C332.25 34.11 332.38 35.71 332.38 36.85V44.16H330.87V30.96H330.84Z" fill="black"/>
<path d="M332.23 49.68H336.15C338.83 49.68 340.69 50.58 340.69 52.9C340.69 54.21 339.99 55.37 338.74 55.76V55.85C340.32 56.16 341.44 57.2 341.44 59C341.44 61.59 339.39 62.87 336.43 62.87H332.22V49.67L332.23 49.68ZM335.87 55.3C338.14 55.3 339.06 54.45 339.06 53.12C339.06 51.57 338 51 335.94 51H333.91V55.3H335.87ZM336.21 61.54C338.48 61.54 339.81 60.73 339.81 58.95C339.81 57.31 338.51 56.57 336.21 56.57H333.91V61.54H336.21Z" fill="black"/>
<path d="M331.96 68.4H335.27C339.32 68.4 341.5 70.76 341.5 74.95C341.5 79.14 339.32 81.59 335.34 81.59H331.96V68.39V68.4ZM335.13 80.23C338.24 80.23 339.77 78.28 339.77 74.95C339.77 71.62 338.24 69.75 335.13 69.75H333.63V80.23H335.13Z" fill="black"/>
<path d="M336.35 88.63C339.86 88.63 342.72 90.05 344.92 92.21L344.36 93.29C342.22 91.22 339.55 89.94 336.35 89.94C333.15 89.94 330.48 91.22 328.34 93.29L327.78 92.21C329.98 90.05 332.84 88.63 336.35 88.63Z" fill="black"/>
<path d="M336.11 107.21C336.11 108.09 336.72 108.63 338.36 108.63C340 108.63 341.49 108.56 343.01 108.38L342.92 109.88C341.55 109.97 339.86 110.04 338.17 110.04C335.49 110.04 334.64 109.1 334.64 107.66V103.66H331.2C330.75 103.66 330.03 103.7 329.54 103.71V102.23C330.01 102.27 330.73 102.3 331.2 102.3H334.64V98.55H332.3C331.71 98.55 331.18 98.57 330.72 98.6V97.2C331.19 97.24 331.71 97.27 332.3 97.27H340.71C341.3 97.27 341.79 97.23 342.17 97.2V98.6C341.76 98.58 341.34 98.55 340.71 98.55H336.12V102.3H342.1C342.46 102.3 343.16 102.28 343.56 102.25L343.58 103.69C343.15 103.65 342.52 103.65 342.12 103.65H336.12V107.2L336.11 107.21Z" fill="black"/>
<path d="M342.11 119.57C342.49 119.57 343.06 119.55 343.5 119.48V120.94C343.1 120.92 342.56 120.9 342.11 120.9H337.32C337.27 122.81 336.96 124.43 336.26 125.74C335.61 126.91 334.28 128.19 332.77 128.96L331.47 128.01C332.86 127.43 334.12 126.41 334.82 125.29C335.59 124.05 335.79 122.57 335.83 120.9H330.54C330 120.9 329.5 120.92 329.01 120.95V119.47C329.5 119.52 329.98 119.56 330.54 119.56H342.12L342.11 119.57ZM332.71 116.44C332.13 116.44 331.56 116.48 331.09 116.51V115.03C331.61 115.1 332.13 115.14 332.69 115.14H338.83C339.32 115.14 339.96 115.1 340.47 115.03V116.51C339.95 116.47 339.34 116.44 338.83 116.44H332.71ZM341.87 116.44C341.53 115.74 340.93 114.68 340.45 113.99L341.39 113.59C341.84 114.22 342.49 115.3 342.85 116L341.88 116.43L341.87 116.44ZM343.33 112.89C343.8 113.54 344.48 114.64 344.82 115.28L343.87 115.71C343.47 114.94 342.9 113.95 342.41 113.28L343.33 112.88V112.89Z" fill="black"/>
<path d="M328.93 145.17C330.42 144.11 331.41 142.61 331.94 140.88C332.48 139.26 332.48 135.91 332.48 133.93C332.48 133.43 332.44 133.03 332.35 132.65H333.99C333.95 132.87 333.9 133.41 333.9 133.93C333.9 135.89 333.83 139.51 333.34 141.28C332.82 143.19 331.68 144.9 330.21 146.12L328.93 145.17ZM336.98 145.33C337.03 145.04 337.09 144.68 337.09 144.34V133.9C337.09 133.23 337 132.75 337 132.6H338.64C338.6 132.74 338.55 133.25 338.55 133.91V143.94C340.17 143.2 342.37 141.58 343.72 139.58L344.55 140.79C343.04 142.86 340.59 144.68 338.54 145.71C338.27 145.84 338.11 145.96 337.93 146.11L336.99 145.34L336.98 145.33Z" fill="black"/>
<path d="M329.7 156.76C330.55 155.91 332.08 153.93 333.19 152.62C334.13 151.52 334.85 151.4 336.13 152.46C337.21 153.32 338.67 154.89 339.8 156.12C340.97 157.4 342.79 159.34 344.09 160.84L342.94 162.1C341.7 160.52 340.1 158.7 338.94 157.4C337.73 156.03 336.26 154.45 335.5 153.8C334.76 153.19 334.51 153.21 333.9 153.94C333.05 154.97 331.56 156.91 330.75 157.88C330.41 158.35 330.01 158.89 329.74 159.25L328.44 157.94C328.91 157.56 329.23 157.24 329.7 156.77V156.76ZM341.41 153.4L340.37 153.87C339.94 152.93 339.31 151.82 338.73 151.04L339.72 150.59C340.17 151.24 340.98 152.57 341.41 153.4ZM343.73 152.46L342.72 152.95C342.23 152.01 341.59 150.95 341.01 150.16L342 149.69C342.45 150.32 343.3 151.63 343.73 152.46Z" fill="black"/>
<path d="M335.32 167.18C335.32 166.68 335.32 165.78 335.21 165.18H337.05C336.92 165.77 336.92 166.68 336.92 167.16V176.85C336.92 177.39 336.92 178.51 337.03 179.32H335.21C335.32 178.51 335.32 177.48 335.32 176.85V167.18Z" fill="black"/>
<path d="M341.66 184.61C341.55 184.75 341.32 185.15 341.23 185.38C340.62 186.91 339.5 188.98 338.24 190.58C340.11 192.16 342.27 194.45 343.41 195.84L342.19 196.92C341 195.35 339.13 193.28 337.31 191.66C335.4 193.69 333.02 195.64 330.4 196.83L329.28 195.64C332.12 194.54 334.74 192.42 336.57 190.38C337.76 189.01 339.06 186.92 339.51 185.46H332.61C331.98 185.46 331.03 185.53 330.83 185.55V183.95C331.06 183.97 332.07 184.06 332.61 184.06H339.43C340.01 184.06 340.47 183.99 340.76 183.92L341.66 184.6V184.61Z" fill="black"/>
<path d="M330.31 206.26V215.93H329V200.25H335.52V206.26H330.32H330.31ZM330.31 201.28V202.74H334.25V201.28H330.31ZM334.26 205.24V203.69H330.32V205.24H334.26ZM338.72 211.57V215.58H337.53V211.57H334.97C334.86 212.78 334.29 214.65 332.56 215.82C332.36 215.59 331.97 215.21 331.68 215.03C333.19 214.11 333.7 212.62 333.8 211.57H331.55V210.44H333.84V208.5H331.9V207.4H340.78V208.5H338.73V210.44H341.18V211.57H338.73H338.72ZM337.54 210.44V208.5H335.02V210.44H337.54ZM343.78 214.18C343.78 214.97 343.6 215.4 343.08 215.64C342.54 215.86 341.64 215.89 340.29 215.87C340.25 215.53 340.06 214.9 339.86 214.54C340.85 214.58 341.82 214.58 342.09 214.56C342.38 214.56 342.47 214.45 342.47 214.16V206.27H337.1V200.24H343.78V214.18ZM338.38 201.28V202.74H342.47V201.28H338.38ZM342.47 205.25V203.68H338.38V205.25H342.47Z" fill="black"/>
<path d="M339.19 225.81V228.49H343.46V229.73H339.19V232.63C339.19 233.19 339.3 233.3 339.91 233.3H341.96C342.52 233.3 342.61 232.94 342.68 231.01C342.97 231.24 343.53 231.48 343.89 231.57C343.76 233.86 343.39 234.49 342.07 234.49H339.71C338.2 234.49 337.8 234.09 337.8 232.62V229.74H334.56C334.27 231.67 333.21 233.5 329.68 234.73C329.52 234.42 329.1 233.92 328.83 233.67C331.84 232.66 332.86 231.24 333.19 229.74H329.19V228.5H333.33V225.82H331.44V225.14C330.58 225.79 329.66 226.31 328.76 226.72C328.58 226.43 328.18 225.96 327.93 225.71C329.17 225.21 330.47 224.4 331.59 223.37C331.05 222.79 330.17 222.04 329.43 221.48L330.26 220.78C330.98 221.3 331.86 222 332.44 222.54C333.09 221.8 333.66 221.01 334.11 220.16H329.64V218.97H334.77L335 218.92L335.88 219.35C335.11 221.46 333.74 223.22 332.13 224.57H340.59C338.84 223 337.47 220.93 336.57 218.61L337.72 218.27C338.03 219.04 338.4 219.82 338.85 220.52C339.64 219.87 340.51 219.03 341.06 218.4L342.07 219.12C341.28 219.89 340.29 220.76 339.44 221.39C339.8 221.88 340.18 222.34 340.61 222.78C341.49 222.1 342.54 221.14 343.17 220.46L344.18 221.16C343.35 221.97 342.27 222.83 341.35 223.5C342.36 224.38 343.49 225.1 344.72 225.59C344.43 225.84 344.02 226.36 343.8 226.71C342.88 226.31 342.02 225.77 341.22 225.14V225.82H339.15L339.19 225.81ZM337.8 225.81H334.67V228.49H337.8V225.81Z" fill="black"/>
<path d="M336.35 240.98C332.84 240.98 329.98 239.56 327.78 237.4L328.34 236.32C330.48 238.39 333.15 239.67 336.35 239.67C339.55 239.67 342.22 238.39 344.36 236.32L344.92 237.4C342.72 239.56 339.86 240.98 336.35 240.98Z" fill="black"/>
<path d="M331.47 254.68C330.73 254.18 329.26 253.31 328.16 252.74L328.9 251.77C329.94 252.29 331.44 253.08 332.23 253.59L331.47 254.69V254.68ZM328.59 261.94C329.56 260.59 330.95 258.21 331.99 256.18L332.96 257.06C332.02 258.95 330.76 261.18 329.7 262.84L328.58 261.94H328.59ZM332.37 249.8C331.63 249.28 330.14 248.41 329.04 247.82L329.78 246.87C330.88 247.39 332.39 248.22 333.15 248.72L332.38 249.8H332.37ZM339.57 253.17V256.12H343.33V262.98H342.05V262.31H335.64V263.07H334.42V256.12H338.29V253.17H333.1V251.87H338.29V248.95C336.98 249.15 335.61 249.31 334.33 249.44C334.28 249.12 334.1 248.61 333.97 248.31C337.07 247.99 340.69 247.43 342.68 246.71L343.74 247.75C342.57 248.15 341.11 248.49 339.56 248.76V251.88H344.49V253.18H339.56L339.57 253.17ZM342.05 257.37H335.64V261.08H342.05V257.37Z" fill="black"/>
<path d="M343.26 279.99C343.26 280.86 343.03 281.25 342.45 281.49C341.84 281.71 340.79 281.72 339.1 281.71C339.05 281.35 338.83 280.77 338.65 280.41C339.91 280.46 341.13 280.45 341.46 280.45C341.82 280.43 341.95 280.32 341.95 279.98V276.32H337.11V281.63H335.78V276.32H331.28C331.01 278.32 330.4 280.37 329.03 281.9C328.83 281.63 328.29 281.18 328 281.02C329.98 278.79 330.16 275.62 330.16 273.12V266.64H343.27V280L343.26 279.99ZM335.77 275.04V272.05H331.47V273.11C331.47 273.7 331.45 274.37 331.4 275.04H335.78H335.77ZM331.47 267.91V270.79H335.77V267.91H331.47ZM341.95 267.91H337.11V270.79H341.95V267.91ZM341.95 275.04V272.05H337.11V275.04H341.95Z" fill="black"/>
<path d="M332.3 285.1C332.19 285.39 332.03 285.95 331.96 286.27C331.64 287.87 331.1 290.99 331.1 292.95C331.1 293.78 331.15 294.48 331.26 295.33C331.55 294.54 331.94 293.53 332.21 292.83L332.97 293.41C332.54 294.63 331.91 296.49 331.75 297.32C331.7 297.55 331.66 297.9 331.66 298.09L331.71 298.7L330.45 298.79C330.09 297.55 329.8 295.55 329.8 293.19C329.8 290.62 330.38 287.63 330.57 286.2C330.62 285.79 330.7 285.34 330.7 284.96L332.3 285.1ZM336.27 293.55C336.09 294.16 336.02 294.67 336.02 295.13C336.02 295.92 336.54 296.7 338.95 296.7C340.52 296.7 341.85 296.56 343.24 296.25L343.28 297.73C342.22 297.95 340.74 298.09 338.94 298.09C336.01 298.09 334.71 297.1 334.71 295.48C334.71 294.83 334.84 294.17 335 293.43L336.28 293.56L336.27 293.55ZM335.57 286.43C337.46 286.74 340.99 286.68 342.74 286.43V287.85C340.85 288.05 337.48 288.05 335.59 287.85L335.57 286.43Z" fill="black"/>
<path d="M337.23 307.31C337.23 308.44 337.32 310.15 337.41 311.67C339.64 312.28 341.57 313.49 342.81 314.62L341.98 315.93C340.86 314.8 339.28 313.7 337.46 313.05C337.48 313.5 337.5 313.9 337.5 314.22C337.5 315.64 336.62 316.87 334.29 316.87C331.96 316.87 330.11 316.11 330.11 314.12C330.11 312.55 331.48 311.26 334.49 311.26C334.99 311.26 335.48 311.3 335.97 311.37C335.92 309.97 335.84 308.36 335.84 307.32C335.84 306.28 335.82 304.87 335.82 304.13C335.8 303.5 335.75 302.74 335.66 302.4H337.37C337.3 302.78 337.24 303.61 337.23 304.13V305.89C338.64 305.87 340.83 305.76 342.38 305.57L342.43 306.9C340.86 307.04 338.65 307.15 337.23 307.17V307.31ZM336.02 312.66C335.46 312.55 334.9 312.5 334.33 312.5C332.53 312.5 331.52 313.11 331.52 314.07C331.52 315.03 332.49 315.55 334.15 315.55C335.45 315.55 336.04 314.97 336.04 313.77C336.04 313.5 336.02 313.12 336.02 312.67V312.66Z" fill="black"/>
<path d="M340.51 321.8C340.19 322.02 339.81 322.27 339.52 322.47C338.67 323.12 336.53 325.05 335.22 326.18C336.03 325.91 336.72 325.8 337.49 325.8C340.39 325.8 342.48 327.49 342.48 329.87C342.48 332.71 339.94 334.55 336.2 334.55C333.9 334.55 332.65 333.45 332.65 332.06C332.65 330.87 333.71 329.76 335.33 329.76C337.45 329.76 338.64 331.16 338.91 332.77C340.24 332.23 341.05 331.22 341.05 329.84C341.05 328.17 339.41 326.98 337.22 326.98C334.5 326.98 332.72 328.33 330.61 330.55L329.57 329.52L334.18 325.56C335.13 324.73 337.17 322.97 338.03 322.19C337.11 322.23 333.96 322.39 333.08 322.42C332.67 322.46 332.27 322.47 331.89 322.53L331.85 321.07C332.25 321.12 332.73 321.14 333.09 321.14C333.99 321.14 337.83 321.01 338.74 320.92C339.26 320.87 339.5 320.83 339.69 320.76L340.5 321.8H340.51ZM337.62 333.13C337.44 331.78 336.61 330.88 335.32 330.88C334.53 330.88 333.93 331.33 333.93 331.94C333.93 332.79 334.79 333.25 336.07 333.25C336.63 333.25 337.13 333.21 337.62 333.12V333.13Z" fill="black"/>
<path d="M336.87 337.27C338.74 340.08 341.89 342.82 344.72 344.26C344.41 344.58 344.07 345.03 343.84 345.41C341.03 343.79 337.9 341.03 336.28 338.59C334.84 340.91 331.92 343.7 328.86 345.52C328.7 345.21 328.32 344.75 328.01 344.48C331.14 342.72 334.13 339.74 335.52 337.28H336.87V337.27ZM337.14 351.99H343.98V353.23H328.77V351.99H331.02V345.36H332.35V351.99H335.75V342.12H337.14V346.32H342.31V347.53H337.14V352V351.99Z" fill="black"/>
<path d="M344.25 357.21V358.45H336.94V360.45H340.61V368.5H332V360.45H335.6V358.45H328.43V357.21H344.24H344.25ZM342.45 360.25H343.75V372.4H342.45V371.34H330.3V372.46H329V360.25H330.3V370.06H342.45V360.25ZM333.14 363.93H335.7V361.59H333.14V363.93ZM333.14 367.36H335.7V365H333.14V367.36ZM339.44 361.58H336.87V363.92H339.44V361.58ZM339.44 365.01H336.87V367.37H339.44V365.01Z" fill="black"/>
<path d="M333.48 385.26C333.23 384.68 332.6 383.59 332.08 382.7V391.16H330.86V382.75C330.27 384.71 329.49 386.6 328.66 387.77C328.52 387.43 328.19 386.92 327.98 386.62C329.1 385.12 330.19 382.32 330.72 379.87H328.34V378.63H330.86V374.74H332.08V378.63H334.13V379.87H332.08V381.11C332.58 381.78 333.92 383.77 334.22 384.26L333.48 385.25V385.26ZM344.75 388.25H343.6V389.78C343.6 390.41 343.47 390.75 342.99 390.95C342.52 391.13 341.75 391.13 340.56 391.13C340.51 390.82 340.33 390.36 340.18 390.05C341.04 390.09 341.82 390.07 342.07 390.07C342.29 390.05 342.36 389.98 342.36 389.76V388.25H336.22V391.13H335V388.25H333.78V387.21H335V382.69H338.6V381.63H334.1V380.6H336.59V379.39H334.88V378.4H336.59V377.23H334.52V376.22H336.59V374.74H337.81V376.22H340.71V374.74H341.97V376.22H344.2V377.23H341.97V378.4H343.93V379.39H341.97V380.6H344.56V381.63H339.82V382.69H343.6V387.21H344.75V388.25ZM336.22 383.69V384.93H338.6V383.69H336.22ZM336.22 387.2H338.6V385.89H336.22V387.2ZM337.8 378.4H340.7V377.23H337.8V378.4ZM337.8 380.59H340.7V379.38H337.8V380.59ZM339.82 383.69V384.93H342.36V383.69H339.82ZM342.36 387.2V385.89H339.82V387.2H342.36Z" fill="black"/>
<path d="M331.67 403.94V399.2C330.88 400.68 329.87 402.04 328.86 402.87C328.64 402.56 328.27 402.15 328 401.93C329.31 400.99 330.65 399.14 331.44 397.3H328.4V396.13H331.68V393.5H332.96V396.13H335.8V397.3H332.96V398.31C333.64 398.74 335.48 400.11 335.95 400.47L335.23 401.55C334.76 401.1 333.75 400.22 332.96 399.55V403.93H331.68L331.67 403.94ZM328.24 408.37C328.96 407.42 329.57 405.89 329.93 404.71L331.1 405.16C330.7 406.37 330.13 407.97 329.41 408.96L328.24 408.37ZM338.56 408.32C339.42 408.32 339.57 408.07 339.64 406.23C339.95 406.46 340.49 406.66 340.86 406.73C340.68 408.98 340.27 409.52 338.65 409.52H334.92C332.98 409.52 332.47 409.16 332.47 407.77V404.91H333.78V407.75C333.78 408.22 333.96 408.31 335 408.31H338.55L338.56 408.32ZM335.75 403.62C336.58 404.38 337.68 405.49 338.23 406.16L337.26 406.95C336.74 406.27 335.64 405.11 334.81 404.3L335.75 403.62ZM343.55 403.76H336.56V394.42H343.55V403.76ZM342.27 395.51H337.8V397.18H342.27V395.51ZM342.27 398.23H337.8V399.92H342.27V398.23ZM342.27 400.95H337.8V402.66H342.27V400.95ZM342.27 404.35C343.01 405.48 343.98 407.03 344.43 407.95L343.19 408.56C342.78 407.62 341.84 406.06 341.12 404.87L342.27 404.35Z" fill="black"/>
<path d="M303.31 35.87V45.54H302V29.86H308.52V35.87H303.32H303.31ZM303.31 30.89V32.35H307.25V30.89H303.31ZM307.26 34.85V33.3H303.32V34.85H307.26ZM311.72 41.19V45.2H310.53V41.19H307.97C307.86 42.4 307.29 44.27 305.56 45.44C305.36 45.21 304.97 44.83 304.68 44.65C306.19 43.73 306.7 42.24 306.8 41.19H304.55V40.06H306.84V38.12H304.9V37.02H313.78V38.12H311.73V40.06H314.18V41.19H311.73H311.72ZM310.54 40.05V38.11H308.02V40.05H310.54ZM316.78 43.8C316.78 44.59 316.6 45.02 316.08 45.26C315.54 45.48 314.64 45.51 313.29 45.49C313.25 45.15 313.06 44.52 312.86 44.16C313.85 44.2 314.82 44.2 315.09 44.18C315.38 44.18 315.47 44.07 315.47 43.78V35.89H310.1V29.86H316.78V43.8ZM311.38 30.89V32.35H315.47V30.89H311.38ZM315.47 34.87V33.3H311.38V34.87H315.47Z" fill="black"/>
<path d="M312.19 55.42V58.1H316.46V59.34H312.19V62.24C312.19 62.8 312.3 62.91 312.91 62.91H314.96C315.52 62.91 315.61 62.55 315.68 60.62C315.97 60.85 316.53 61.09 316.89 61.18C316.76 63.47 316.39 64.1 315.07 64.1H312.71C311.2 64.1 310.8 63.7 310.8 62.23V59.35H307.56C307.27 61.28 306.21 63.11 302.68 64.34C302.52 64.03 302.1 63.53 301.83 63.28C304.84 62.27 305.86 60.85 306.19 59.35H302.19V58.11H306.33V55.43H304.44V54.75C303.58 55.4 302.66 55.92 301.76 56.33C301.58 56.04 301.18 55.57 300.93 55.32C302.17 54.82 303.47 54.01 304.59 52.98C304.05 52.4 303.17 51.65 302.43 51.09L303.26 50.39C303.98 50.91 304.86 51.61 305.44 52.15C306.09 51.41 306.66 50.62 307.11 49.77H302.64V48.58H307.77L308 48.53L308.88 48.96C308.11 51.07 306.74 52.83 305.13 54.18H313.59C311.84 52.61 310.47 50.54 309.57 48.22L310.72 47.88C311.03 48.65 311.4 49.43 311.85 50.13C312.64 49.48 313.51 48.64 314.06 48.01L315.07 48.73C314.28 49.5 313.29 50.37 312.44 51C312.8 51.49 313.18 51.95 313.61 52.39C314.49 51.71 315.54 50.75 316.17 50.07L317.18 50.77C316.35 51.58 315.27 52.44 314.35 53.11C315.36 53.99 316.49 54.71 317.72 55.2C317.43 55.45 317.02 55.97 316.8 56.32C315.88 55.92 315.02 55.38 314.22 54.75V55.43H312.15L312.19 55.42ZM310.8 55.42H307.67V58.1H310.8V55.42Z" fill="black"/>
<path d="M307.33 78.18C306.93 77.62 306.02 76.51 305.3 75.68V82.97H303.99V76.31C303.22 77.17 302.41 77.93 301.63 78.52C301.49 78.2 301.11 77.58 300.89 77.37C302.85 75.97 304.98 73.52 306.17 71.05H301.4V69.83H303.99V66.55H305.3V69.83H306.83L307.06 69.76L307.82 70.28C307.24 71.74 306.43 73.14 305.5 74.44C305.68 74.62 305.91 74.85 306.17 75.11C306.64 74.55 307.2 73.74 307.52 73.18L308.4 73.9C307.84 74.53 307.27 75.23 306.78 75.74C307.36 76.33 307.93 76.93 308.15 77.18L307.34 78.19L307.33 78.18ZM317.2 68.92C316.98 78.05 316.8 81.07 316.12 81.97C315.74 82.53 315.35 82.69 314.75 82.76C314.16 82.83 313.17 82.8 312.19 82.76C312.17 82.36 311.99 81.79 311.76 81.39C312.82 81.48 313.79 81.48 314.19 81.48C314.51 81.5 314.69 81.43 314.89 81.17C315.43 80.54 315.66 77.55 315.84 69.43H312.2C312.06 74.51 311.62 80.05 307.5 82.97C307.27 82.66 306.83 82.2 306.47 81.96C310.45 79.33 310.74 74.13 310.83 69.43H307.79V68.17H317.19V68.91L317.2 68.92Z" fill="black"/>
<path d="M309.89 97.35H301.1V96.14H302.85V88.83H301.34V87.62H302.85V85.44H304.07V87.62H307.33V85.44H308.57V87.62H309.88V88.83H308.57V96.14H309.88V97.35H309.89ZM304.86 98.07C304.21 99.46 303.19 100.82 302.19 101.71C301.94 101.49 301.43 101.12 301.11 100.94C302.1 100.13 303.04 98.92 303.58 97.73L304.86 98.07ZM304.07 88.83V90.41H307.33V88.83H304.07ZM304.07 93.26H307.33V91.5H304.07V93.26ZM304.07 96.14H307.33V94.34H304.07V96.14ZM307.19 97.72C307.91 98.53 308.74 99.65 309.08 100.39L308 101.02C307.68 100.3 306.87 99.13 306.15 98.28L307.19 97.72ZM317 99.97C317 100.76 316.8 101.16 316.32 101.37C315.8 101.59 314.97 101.62 313.64 101.62C313.59 101.24 313.41 100.67 313.23 100.32C314.18 100.34 315.08 100.34 315.34 100.32C315.61 100.32 315.72 100.23 315.72 99.94V95.62H311.92C311.74 97.76 311.29 100.05 310.21 101.78C309.99 101.53 309.45 101.11 309.15 100.99C310.64 98.61 310.79 95.21 310.79 92.64V86.14H317.02V99.97H317ZM315.7 94.43V91.44H312.03V92.65C312.03 93.21 312.01 93.82 311.99 94.43H315.7ZM312.03 87.37V90.23H315.7V87.37H312.03Z" fill="black"/>
<path d="M309.18 117.2C309.74 117.16 310.24 117.07 310.66 117C312.89 116.5 315.09 114.84 315.09 111.85C315.09 109.2 313.42 107.04 310.46 106.77C310.23 108.41 309.88 110.17 309.42 111.79C308.36 115.37 306.97 117.23 305.35 117.23C303.73 117.23 302.23 115.43 302.23 112.55C302.23 108.77 305.6 105.47 309.86 105.47C314.12 105.47 316.52 108.35 316.52 111.88C316.52 115.41 314.12 117.98 309.98 118.52L309.17 117.19L309.18 117.2ZM308.03 111.51C308.46 110.07 308.79 108.39 308.98 106.81C305.67 107.24 303.63 110.09 303.63 112.43C303.63 114.64 304.64 115.6 305.38 115.6C306.17 115.6 307.14 114.45 308.03 111.51Z" fill="black"/>
<path d="M307.89 125.62H301.1V124.52H307.89V125.62ZM307.26 136.95H303.08V137.78H301.91V131.75H307.26V136.95ZM301.95 126.95H307.28V128.01H301.95V126.95ZM301.95 129.33H307.28V130.41H301.95V129.33ZM307.22 123.24H302.03V122.16H307.22V123.24ZM303.08 132.84V135.86H306.09V132.84H303.08ZM310.57 124.29C310.57 125.84 310.17 127.73 308.27 128.99C308.07 128.76 307.57 128.29 307.3 128.11C309.03 127.01 309.3 125.52 309.3 124.28V122.12H314.92V126.51C314.92 126.91 314.97 126.98 315.26 126.98H316.16C316.48 126.98 316.56 126.75 316.59 125.02C316.84 125.24 317.36 125.43 317.71 125.51C317.6 127.62 317.28 128.14 316.32 128.14H315.08C313.98 128.14 313.66 127.8 313.66 126.52V123.31H310.58V124.3L310.57 124.29ZM316.62 129.56C316.01 131.77 314.95 133.52 313.58 134.87C314.75 135.75 316.14 136.42 317.72 136.81C317.43 137.08 317.04 137.62 316.86 137.94C315.22 137.45 313.8 136.72 312.57 135.73C311.24 136.76 309.69 137.48 308.05 137.96C307.92 137.64 307.58 137.06 307.33 136.79C308.86 136.39 310.32 135.75 311.58 134.81C310.52 133.71 309.67 132.4 309.06 130.88L310.25 130.52C310.77 131.83 311.56 133 312.57 133.99C313.58 133.04 314.39 131.87 314.93 130.48H308.12V129.26H315.52L315.75 129.21L316.61 129.55L316.62 129.56Z" fill="black"/>
<path d="M308.19 144.34H301.1V143.24H308.19V144.34ZM307.47 155.67H303.11V156.5H301.92V150.47H307.47V155.67ZM301.95 145.67H307.53V146.73H301.95V145.67ZM301.95 148.05H307.53V149.13H301.95V148.05ZM307.53 141.96H302.04V140.88H307.53V141.96ZM303.12 151.56V154.58H306.27V151.56H303.12ZM317.75 147.69H313.72V156.69H312.39V147.69H308.18V146.38H312.39V140.31H313.72V146.38H317.75V147.69Z" fill="black"/>
<path d="M313.24 170.62C314.27 172.78 315.71 173.66 317.78 174.37C317.47 174.66 317.15 175.13 317.01 175.5C314.87 174.67 313.37 173.63 312.31 171.38C311.66 173 310.24 174.48 307.16 175.5C307.05 175.21 306.67 174.71 306.44 174.49C309.57 173.48 310.82 172.11 311.28 170.62H307.66V165.99H311.55V164.33H308.81V163.48C308.32 163.82 307.82 164.15 307.3 164.42C307.25 164.28 307.16 164.11 307.07 163.95V164.06H305.13V165.41C305.63 166.06 307 168.02 307.29 168.49L306.55 169.55C306.3 168.97 305.67 167.84 305.13 166.96V175.39H303.87V167.07C303.28 169.01 302.48 170.87 301.67 172.02C301.51 171.68 301.18 171.16 300.97 170.85C302.09 169.34 303.22 166.51 303.76 164.06H301.35V162.82H303.87V158.97H305.13V162.82H307.07V163.13C308.93 162.14 310.65 160.54 311.54 159.01H312.75C314.03 160.79 316.03 162.39 317.92 163.22C317.67 163.54 317.38 164.01 317.2 164.39C316.7 164.12 316.17 163.8 315.65 163.44V164.34H312.77V166H316.8V170.63H313.25L313.24 170.62ZM311.51 169.52C311.53 169.21 311.55 168.89 311.55 168.58V167.07H308.85V169.52H311.52H311.51ZM315.29 163.21C314.08 162.33 312.93 161.23 312.19 160.2C311.51 161.21 310.44 162.29 309.22 163.21H315.29ZM312.75 167.08V168.63C312.75 168.94 312.73 169.22 312.71 169.53H315.55V167.08H312.74H312.75Z" fill="black"/>
<path d="M301.1 180.68H308.18V181.78H301.1V180.68ZM307.47 193.11H303.11V193.94H301.92V187.91H307.47V193.11ZM301.95 183.11H307.53V184.17H301.95V183.11ZM301.95 185.49H307.53V186.57H301.95V185.49ZM307.53 179.4H302.04V178.32H307.53V179.4ZM303.12 189V192.02H306.27V189H303.12ZM317.61 183.1H315.41V192.28C315.41 193.23 315.18 193.63 314.6 193.86C314.02 194.09 312.96 194.11 311.41 194.11C311.34 193.75 311.12 193.1 310.91 192.72C312.15 192.76 313.3 192.74 313.65 192.74C313.99 192.72 314.12 192.63 314.12 192.27V183.09H308.43V181.81H314.12V177.7H315.42V181.81H317.62V183.09L317.61 183.1ZM311.54 189.67C311.13 188.54 310.17 186.77 309.27 185.47L310.39 184.93C311.33 186.19 312.3 187.9 312.69 189.05L311.54 189.66V189.67Z" fill="black"/>
<path d="M305.3 197.44C305.19 197.73 305.03 198.29 304.96 198.61C304.64 200.21 304.1 203.33 304.1 205.29C304.1 206.12 304.15 206.82 304.26 207.67C304.55 206.88 304.94 205.87 305.21 205.17L305.97 205.75C305.54 206.97 304.91 208.83 304.75 209.66C304.7 209.89 304.66 210.24 304.66 210.43L304.71 211.04L303.45 211.13C303.09 209.89 302.8 207.89 302.8 205.53C302.8 202.96 303.38 199.97 303.57 198.54C303.62 198.12 303.7 197.67 303.7 197.3L305.3 197.44ZM309.27 205.88C309.09 206.49 309.02 207 309.02 207.46C309.02 208.25 309.54 209.03 311.95 209.03C313.52 209.03 314.85 208.89 316.24 208.58L316.28 210.06C315.22 210.28 313.74 210.42 311.94 210.42C309.01 210.42 307.71 209.43 307.71 207.81C307.71 207.16 307.84 206.5 308 205.76L309.28 205.89L309.27 205.88ZM308.57 198.77C310.46 199.08 313.99 199.02 315.74 198.77V200.19C313.85 200.39 310.48 200.39 308.59 200.19L308.57 198.77Z" fill="black"/>
<path d="M307.85 228.4C306.39 229.28 304.14 230.15 302.36 230.65C302.13 230.4 301.68 229.88 301.37 229.62C303.21 229.24 305.37 228.58 306.65 227.84L307.86 228.4H307.85ZM317.18 218.93H301.59V217.83H308.65V216.12H303.14V215.04H315.71V216.12H310V217.83H317.18V218.93ZM303.58 227.74V220.02H315.25V227.74H303.58ZM304.92 222.28H313.87V220.95H304.92V222.28ZM304.92 224.51H313.87V223.18H304.92V224.51ZM304.92 226.78H313.87V225.41H304.92V226.78ZM311.9 227.88C313.88 228.53 316.04 229.36 317.36 229.97L315.96 230.64C314.79 230.06 312.83 229.25 310.85 228.59L311.91 227.89L311.9 227.88Z" fill="black"/>
<path d="M314.39 239.15C314.89 243.09 315.85 246.5 317.74 248.24C317.45 248.49 317.02 249 316.8 249.34C315.22 247.72 314.28 245.13 313.7 241.98C313.27 244.5 312.33 247.15 310.26 249.33C310.12 249.17 309.88 248.92 309.65 248.72C309.56 248.85 309.45 248.95 309.29 249.04C308.89 249.22 308.3 249.22 307.38 249.22C307.33 248.95 307.18 248.45 307.04 248.16C307.65 248.18 308.21 248.18 308.39 248.16C308.57 248.16 308.64 248.11 308.64 247.93V238.87H302.79V249.28H301.67V237.76H305.07V235.92H301.4V234.77H305.07V232.92H306.33V234.77H310.04V235.92H306.33V237.76H309.77V247.88C312.09 245.25 312.6 241.9 312.69 239.17H310.08V237.91H312.73V232.94H314.03V237.91H317.4V239.17H314.39V239.15ZM306.25 245.45V248.51H305.19V245.45H303.39V244.44H305.19V242.89H303.34V241.88H308.15V242.89H306.26V244.44H308.04V245.45H306.26H306.25ZM304.4 239.22C304.76 239.94 305.07 240.89 305.14 241.49L304.33 241.74C304.26 241.13 303.95 240.17 303.61 239.44L304.4 239.22ZM307.82 239.38C307.5 240.19 307.17 241.11 306.88 241.72L306.14 241.47C306.37 240.82 306.73 239.78 306.88 239.11L307.82 239.38ZM316.41 236.7C316.12 235.93 315.38 234.77 314.68 233.95L315.71 233.48C316.43 234.29 317.21 235.42 317.53 236.18L316.41 236.7Z" fill="black"/>
<path d="M336.5 20C337.881 20 339 18.8807 339 17.5C339 16.1193 337.881 15 336.5 15C335.119 15 334 16.1193 334 17.5C334 18.8807 335.119 20 336.5 20Z" fill="black"/>
<path d="M309.5 20C310.881 20 312 18.8807 312 17.5C312 16.1193 310.881 15 309.5 15C308.119 15 307 16.1193 307 17.5C307 18.8807 308.119 20 309.5 20Z" fill="black"/>
<path d="M352 429.5H292C287.858 429.5 284.5 432.858 284.5 437V711C284.5 715.142 287.858 718.5 292 718.5H352C356.142 718.5 359.5 715.142 359.5 711V437C359.5 432.858 356.142 429.5 352 429.5Z" fill="#E6E9F1"/>
<path d="M352 430C355.86 430 359 433.14 359 437V711C359 714.86 355.86 718 352 718H292C288.14 718 285 714.86 285 711V437C285 433.14 288.14 430 292 430H352ZM352 429H292C287.6 429 284 432.6 284 437V711C284 715.4 287.6 719 292 719H352C356.4 719 360 715.4 360 711V437C360 432.6 356.4 429 352 429Z" fill="#0A2270"/>
<path d="M343.42 469.81C342.41 470.51 341.1 471.21 339.98 471.72C341.2 472.58 342.75 473.18 344.59 473.48C344.32 473.73 344 474.24 343.83 474.56C340.17 473.82 337.67 471.99 336.3 469.09C335.56 469.65 334.66 470.17 333.69 470.64V472.82C334.99 472.62 336.41 472.39 337.81 472.17L337.88 473.25L330.79 474.4L330.57 473.28C331.11 473.21 331.72 473.12 332.41 473.01V471.19C331.22 471.66 329.98 472.02 328.83 472.27C328.69 471.96 328.34 471.53 328.09 471.28C330.34 470.87 332.9 470.02 334.64 468.96H328.39V467.84H335.66V466.78H336.99V467.84H344.28V468.96H337.47C337.9 469.75 338.44 470.44 339.09 471.05C340.21 470.51 341.59 469.72 342.42 469.11L343.39 469.81H343.42ZM332.37 462.39H328.34V461.42H332.37V460.3H330.25C330.03 460.71 329.8 461.09 329.57 461.4C329.35 461.24 328.87 461 328.62 460.88C329.23 460.16 329.74 459.15 330.04 458.16L331.1 458.41C330.99 458.73 330.85 459.04 330.72 459.36H332.38V458.08H333.53V459.36H336.74V460.3H333.53V461.42H337.37V462.39H333.53V463.35H336.82V465.53C336.82 466.03 336.77 466.29 336.37 466.43C336.01 466.59 335.47 466.59 334.68 466.59C334.63 466.32 334.45 465.98 334.32 465.73C334.91 465.75 335.36 465.75 335.53 465.73C335.69 465.73 335.73 465.68 335.73 465.53V464.25H333.53V467.17H332.38V464.25H330.31V466.7H329.23V463.35H332.38V462.39H332.37ZM339.52 464.8H338.31V458.79H339.52V464.8ZM343.62 465.72C343.62 466.4 343.48 466.73 342.95 466.93C342.45 467.13 341.62 467.13 340.36 467.13C340.31 466.79 340.13 466.34 339.95 466.01C340.92 466.05 341.79 466.05 342.07 466.03C342.3 466.01 342.39 465.94 342.39 465.72V458.27H343.61V465.72H343.62Z" fill="black"/>
<path d="M328.89 485.43H335.25V493.1H333.94V492.29H330.18V493.26H328.9V485.43H328.89ZM330.17 486.73V491H333.93V486.73H330.17ZM341.3 483.54H331.51V477.58H341.3V483.54ZM339.95 478.86H332.8V482.26H339.95V478.86ZM343.91 485.43V493.14H342.6V492.29H338.51V493.26H337.21V485.43H343.91ZM342.59 490.99V486.72H338.5V490.99H342.59Z" fill="black"/>
<path d="M336.18 508.76C336.74 508.72 337.24 508.63 337.66 508.56C339.89 508.06 342.09 506.4 342.09 503.41C342.09 500.76 340.42 498.6 337.46 498.33C337.23 499.97 336.88 501.73 336.42 503.35C335.36 506.93 333.97 508.79 332.35 508.79C330.73 508.79 329.23 506.99 329.23 504.11C329.23 500.33 332.6 497.03 336.86 497.03C341.12 497.03 343.52 499.91 343.52 503.44C343.52 506.97 341.12 509.54 336.98 510.08L336.17 508.75L336.18 508.76ZM335.03 503.07C335.46 501.63 335.79 499.95 335.98 498.37C332.67 498.8 330.63 501.65 330.63 503.99C330.63 506.2 331.64 507.16 332.38 507.16C333.17 507.16 334.14 506.01 335.03 503.07Z" fill="black"/>
<path d="M328.28 514.08H337.46V515.38H333.39C333.14 516.21 332.87 517.07 332.62 517.79H336.98V528.18C336.98 528.74 336.89 529.06 336.53 529.24C336.19 529.42 335.68 529.46 334.95 529.46C334.91 529.15 334.75 528.69 334.59 528.38C335.08 528.4 335.53 528.4 335.65 528.4C335.81 528.38 335.87 528.35 335.87 528.18V518.98H334.59V528.36H333.64V518.98H332.33V528.36H331.39V518.98H329.93V529.49H328.81V517.79H331.4C331.63 517.07 331.85 516.19 332.05 515.38H328.29V514.08H328.28ZM344.61 518.44H343.06V527.91C343.06 528.7 342.86 529.06 342.39 529.28C341.89 529.5 341.13 529.55 339.83 529.53C339.78 529.19 339.56 528.63 339.36 528.29C340.31 528.31 341.14 528.31 341.38 528.29C341.67 528.29 341.76 528.2 341.76 527.91V518.44H337.6V517.18H341.76V513.2H343.06V517.18H344.61V518.44ZM339.59 524.56C339.37 523.48 338.65 521.82 337.9 520.56L338.98 520.16C339.79 521.4 340.53 523.04 340.78 524.12L339.59 524.55V524.56Z" fill="black"/>
<path d="M339.64 535.09C339.23 536.76 338.67 538.3 338 539.68C339.22 542.92 341.64 545.78 344.68 547.06C344.36 547.31 343.94 547.87 343.72 548.23C340.86 546.88 338.63 544.29 337.18 541.14C335.14 544.53 332.32 546.9 329.24 548.31C329.04 547.97 328.54 547.37 328.21 547.14C332.57 545.29 336.28 541.65 337.88 536.07H333.18C332.06 538.19 330.71 540.03 329.2 541.38C328.95 541.13 328.35 540.64 328.01 540.41C330.42 538.47 332.31 535.32 333.43 531.84L334.83 532.16C334.54 533.04 334.2 533.91 333.82 534.74H338.41L338.66 534.67L339.61 535.1L339.64 535.09Z" fill="black"/>
<path d="M327.9 558.55C328.39 557.36 328.71 555.4 328.84 553.94L329.85 554.08C329.76 555.56 329.42 557.59 328.95 558.91L327.91 558.55H327.9ZM330.5 550.53H331.83V566.97H330.5V550.53ZM332.89 553.42C333.43 554.39 333.99 555.67 334.2 556.43L333.19 556.92C332.99 556.15 332.45 554.85 331.95 553.86L332.89 553.43V553.42ZM344.36 565.08V566.36H333.38V565.08H338.53V560.58H334.71V559.34H338.53V555.61H335.9C335.54 556.69 335.13 557.63 334.64 558.4C334.37 558.22 333.78 557.93 333.45 557.79C334.49 556.22 335.21 553.81 335.63 551.36L336.93 551.58C336.75 552.52 336.53 553.45 336.28 554.33H338.53V550.6H339.86V554.33H343.93V555.61H339.86V559.34H343.53V560.58H339.86V565.08H344.36Z" fill="black"/>
<path d="M331.77 571.2C331.9 571.49 332.2 572.06 332.38 572.37C332.69 572.95 333.03 573.63 333.39 574.37C335.48 573.43 337.82 572.5 339.64 572.5C342.07 572.5 343.55 573.89 343.55 575.8C343.55 577.82 342.25 579.33 339.52 579.33C338.57 579.33 337.58 579.08 336.93 578.83L336.98 577.44C337.63 577.75 338.51 578.02 339.43 578.02C341.36 578.02 342.13 576.98 342.13 575.75C342.13 574.69 341.32 573.75 339.61 573.75C338.1 573.75 335.95 574.58 333.94 575.51C334.17 576 334.39 576.48 334.61 576.95C335.58 579.11 336.66 582.35 337.27 584.28L335.74 584.68C335.18 582.63 334.37 579.82 333.35 577.53C333.13 577.04 332.92 576.56 332.72 576.09C331.37 576.74 330.18 577.37 329.37 577.73L328.69 576.29C329.19 576.16 329.82 575.95 330.11 575.82C330.7 575.59 331.41 575.28 332.18 574.92C331.82 574.16 331.48 573.52 331.17 573.01C330.97 572.67 330.61 572.13 330.34 571.77L331.78 571.21L331.77 571.2ZM337 572.46C336.35 571.79 335.47 570.96 334.75 570.44L335.74 569.7C336.33 570.15 337.38 570.98 338.03 571.66L337 572.45V572.46Z" fill="black"/>
<path d="M333.36 599.89C331.76 600.48 330.07 601.11 328.73 601.56L328.24 600.43C329.5 600.05 331.36 599.46 333.19 598.85L333.35 599.89H333.36ZM335.7 594.51C335.7 594.51 335.68 594.92 335.66 595.12C335.35 600.22 335.07 602.09 334.53 602.72C334.21 603.12 333.88 603.22 333.36 603.28C332.91 603.33 332.1 603.32 331.24 603.26C331.22 602.92 331.1 602.4 330.9 602.07C331.71 602.14 332.45 602.16 332.77 602.16C333.08 602.16 333.24 602.12 333.4 601.94C333.8 601.49 334.08 599.87 334.32 595.66H330.03C329.98 595.97 329.9 596.24 329.85 596.49L328.57 596.27C328.88 594.97 329.27 592.89 329.49 591.3H334.12V588.76H328.93V587.55H335.43V592.5H330.62C330.51 593.17 330.39 593.85 330.26 594.5H335.7V594.51ZM331.49 598.85C331.15 598.27 330.37 597.39 329.65 596.8L330.51 596.15C331.25 596.74 332.02 597.55 332.38 598.13L331.48 598.85H331.49ZM341.53 599.68C339.82 600.35 338.04 601.01 336.67 601.52L336.17 600.39C337.47 599.99 339.43 599.35 341.32 598.7L341.54 599.69L341.53 599.68ZM343.89 594.51C343.89 594.51 343.89 594.94 343.87 595.14C343.65 600.23 343.4 602.11 342.86 602.72C342.52 603.12 342.14 603.24 341.56 603.3C341.02 603.35 340.03 603.34 338.98 603.26C338.94 602.92 338.8 602.41 338.58 602.09C339.62 602.2 340.61 602.2 340.99 602.2C341.31 602.2 341.53 602.16 341.69 601.98C342.09 601.55 342.32 599.91 342.54 595.68H337.82L337.64 596.45L336.33 596.25C336.67 594.95 337.09 592.86 337.34 591.3H342.27V588.76H336.87V587.55H343.62V592.5H338.45C338.32 593.17 338.2 593.85 338.05 594.5H343.87L343.89 594.51ZM339.46 598.83C339.12 598.22 338.29 597.34 337.55 596.72L338.43 596.07C339.2 596.66 340.01 597.47 340.41 598.07L339.46 598.83Z" fill="black"/>
<path d="M328.15 621.44C329.1 620.63 330.02 619.19 330.6 617.86L331.86 618.18C331.27 619.58 330.35 621.1 329.38 622.03L328.16 621.44H328.15ZM342.34 616.78H330.37V611.05H335.54V605.59H336.87V607.52H343.68V608.78H336.87V611.05H342.34V616.78ZM340.99 612.31H331.65V615.52H340.99V612.31ZM334.76 618.24C334.99 619.37 335.19 620.85 335.21 621.71L333.88 621.89C333.88 620.99 333.72 619.5 333.48 618.34L334.76 618.23V618.24ZM338.38 618.09C338.94 619.17 339.51 620.63 339.73 621.53L338.43 621.84C338.25 620.96 337.71 619.46 337.17 618.37L338.38 618.1V618.09ZM342 617.75C342.92 618.88 343.95 620.38 344.4 621.39L343.14 621.89C342.73 620.9 341.74 619.35 340.84 618.2L342.01 617.75H342Z" fill="black"/>
<path d="M336.81 636.4C336.86 635.73 336.88 634.6 336.88 633.7C335.26 634.58 334.14 635.46 334.14 636.62C334.14 637.99 335.47 638.19 337.27 638.19C338.62 638.19 340.49 638.03 342.01 637.76L341.97 639.2C340.66 639.34 338.71 639.49 337.22 639.49C334.72 639.49 332.72 638.95 332.72 636.82C332.72 634.69 334.79 633.45 336.83 632.39C336.65 631.67 336.02 631.35 335.26 631.35C334.09 631.35 333.05 631.89 332.25 632.63C331.75 633.1 331.26 633.75 330.65 634.45L329.46 633.55C331.67 631.41 332.84 629.62 333.47 628.22H332.73C332.01 628.22 330.84 628.2 329.87 628.13V626.82C330.81 626.93 332.01 627 332.8 627C333.16 627 333.54 627 333.93 626.98C334.18 626.21 334.34 625.41 334.38 624.82L335.84 624.95C335.71 625.45 335.55 626.16 335.32 626.95C337.08 626.86 338.99 626.7 340.65 626.41L340.63 627.72C338.9 627.99 336.76 628.13 334.85 628.19C334.47 629.09 333.93 630.06 333.27 630.87C333.92 630.47 334.93 630.22 335.7 630.22C336.83 630.22 337.73 630.78 338 631.8C339.21 631.22 340.25 630.81 341.17 630.4C341.69 630.17 342.12 629.97 342.61 629.73L343.17 631.03C342.74 631.16 342.11 631.41 341.64 631.61C340.67 631.97 339.41 632.48 338.09 633.11C338.11 634.1 338.13 635.58 338.14 636.42H336.79L336.81 636.4Z" fill="black"/>
<path d="M344.34 644.87H342.13V656.79C342.13 657.76 341.9 658.23 341.21 658.43C340.49 658.68 339.25 658.68 337.48 658.68C337.39 658.3 337.12 657.64 336.9 657.26C338.34 657.33 339.82 657.31 340.23 657.3C340.63 657.28 340.75 657.16 340.75 656.78V644.88H328.4V643.55H344.33V644.88L344.34 644.87ZM331.54 654.18V655.62H330.24V647.5H337.55V654.18H331.54ZM331.54 648.8V652.9H336.24V648.8H331.54Z" fill="black"/>
<path d="M334.47 672.15C334.05 671.59 333.1 670.57 332.33 669.79V677.42H331.02V670.49C330.17 671.35 329.31 672.11 328.44 672.69C328.31 672.35 327.95 671.74 327.76 671.48C329.8 670.22 331.92 667.95 333.11 665.57H328.41V664.35H331.02V661H332.33V664.35H333.81L334.04 664.3L334.78 664.79C334.26 666.12 333.5 667.42 332.64 668.59C333.43 669.26 334.93 670.66 335.31 671.08L334.48 672.16L334.47 672.15ZM343.08 676.16C343.49 676.16 343.57 675.91 343.62 674C343.85 674.22 344.36 674.41 344.72 674.5C344.59 676.73 344.25 677.27 343.23 677.27H341.56C340.32 677.27 340.03 676.91 340.03 675.65V671.92H338.57C338.25 674.51 337.36 676.37 334.52 677.41C334.38 677.12 334.02 676.64 333.75 676.38C336.27 675.53 337.01 674 337.3 671.92H335.88V661.89H343.39V671.92H341.25V675.65C341.25 676.08 341.32 676.15 341.75 676.15H343.1L343.08 676.16ZM337.08 664.89H342.07V663.02H337.08V664.89ZM337.08 667.84H342.07V665.93H337.08V667.84ZM337.08 670.81H342.07V668.9H337.08V670.81Z" fill="black"/>
<path d="M334.29 680.42C333.75 681.7 333.07 682.98 332.29 684.17V696.11H330.94V686.06C330.18 687.01 329.39 687.88 328.6 688.6C328.46 688.28 328.04 687.57 327.79 687.25C329.84 685.54 331.82 682.82 333.01 679.99L334.29 680.42ZM342.14 694.63C343.13 694.63 343.29 693.98 343.42 691.37C343.76 691.6 344.3 691.86 344.7 691.95C344.48 694.87 344.09 695.89 342.23 695.89H338.54C336.67 695.89 336.09 695.35 336.09 693.39V680.14H337.44V686.84C339.44 685.72 341.49 684.32 342.82 683.11L343.77 684.26C342.08 685.63 339.66 687 337.43 688.18V693.4C337.43 694.41 337.63 694.62 338.62 694.62H342.13L342.14 694.63Z" fill="black"/>
<path d="M307.89 462.17H301.1V461.07H307.89V462.17ZM307.26 473.5H303.08V474.33H301.91V468.3H307.26V473.5ZM301.95 463.51H307.28V464.57H301.95V463.51ZM301.95 465.88H307.28V466.96H301.95V465.88ZM307.22 459.8H302.03V458.72H307.22V459.8ZM303.08 469.39V472.41H306.09V469.39H303.08ZM310.57 460.84C310.57 462.39 310.17 464.28 308.27 465.54C308.07 465.31 307.57 464.84 307.3 464.66C309.03 463.56 309.3 462.07 309.3 460.82V458.66H314.92V463.05C314.92 463.45 314.97 463.52 315.26 463.52H316.16C316.48 463.52 316.56 463.29 316.59 461.56C316.84 461.78 317.36 461.97 317.71 462.05C317.6 464.16 317.28 464.68 316.32 464.68H315.08C313.98 464.68 313.66 464.34 313.66 463.06V459.85H310.58V460.84H310.57ZM316.62 466.12C316.01 468.33 314.95 470.08 313.58 471.43C314.75 472.31 316.14 472.98 317.72 473.37C317.43 473.64 317.04 474.18 316.86 474.5C315.22 474.01 313.8 473.28 312.57 472.29C311.24 473.32 309.69 474.04 308.05 474.52C307.92 474.2 307.58 473.62 307.33 473.35C308.86 472.95 310.32 472.31 311.58 471.37C310.52 470.27 309.67 468.96 309.06 467.44L310.25 467.08C310.77 468.39 311.56 469.56 312.57 470.55C313.58 469.6 314.39 468.43 314.93 467.04H308.12V465.82H315.52L315.75 465.77L316.61 466.11L316.62 466.12Z" fill="black"/>
<path d="M308.19 480.89H301.1V479.79H308.19V480.89ZM307.47 492.22H303.11V493.05H301.92V487.02H307.47V492.22ZM301.95 482.22H307.53V483.28H301.95V482.22ZM301.95 484.6H307.53V485.68H301.95V484.6ZM307.53 478.52H302.04V477.44H307.53V478.52ZM303.12 488.11V491.13H306.27V488.11H303.12ZM317.75 484.24H313.72V493.24H312.39V484.24H308.18V482.93H312.39V476.86H313.72V482.93H317.75V484.24Z" fill="black"/>
<path d="M310.57 502.49C309.63 503.16 308.66 503.79 307.67 504.36H315.11V511.89H313.74V511.39H306.45V511.97H305.14V505.74C304.06 506.26 302.94 506.75 301.85 507.16C301.69 506.87 301.26 506.33 301 506.06C303.61 505.14 306.13 503.95 308.4 502.49H301.4V501.28H307.56V498.98H302.97V497.79H307.56V495.54H308.87V497.79H313.32V498.53C314.08 497.77 314.76 496.98 315.37 496.15L316.5 496.76C315.24 498.42 313.76 499.93 312.12 501.28H317.31V502.49H310.58H310.57ZM313.74 505.5H306.45V507.28H313.74V505.5ZM313.74 510.22V508.35H306.45V510.22H313.74ZM310.12 501.29C311.09 500.57 312.01 499.79 312.86 498.99H308.86V501.29H310.12Z" fill="black"/>
<path d="M305.3 515.27C305.19 515.56 305.03 516.12 304.96 516.44C304.64 518.04 304.1 521.16 304.1 523.12C304.1 523.95 304.15 524.65 304.26 525.5C304.55 524.71 304.94 523.7 305.21 523L305.97 523.58C305.54 524.8 304.91 526.66 304.75 527.49C304.7 527.72 304.66 528.07 304.66 528.26L304.71 528.87L303.45 528.96C303.09 527.72 302.8 525.72 302.8 523.36C302.8 520.79 303.38 517.8 303.57 516.37C303.62 515.95 303.7 515.5 303.7 515.13L305.3 515.27ZM309.27 523.72C309.09 524.33 309.02 524.84 309.02 525.3C309.02 526.09 309.54 526.87 311.95 526.87C313.52 526.87 314.85 526.73 316.24 526.42L316.28 527.9C315.22 528.12 313.74 528.26 311.94 528.26C309.01 528.26 307.71 527.27 307.71 525.65C307.71 525 307.84 524.34 308 523.6L309.28 523.73L309.27 523.72ZM308.57 516.6C310.46 516.91 313.99 516.85 315.74 516.6V518.02C313.85 518.22 310.48 518.22 308.59 518.02L308.57 516.6Z" fill="black"/>
<path d="M308.16 536.8C307.8 538.91 307.31 540.78 306.63 542.4C307.48 543.52 308.18 544.6 308.63 545.48L307.55 546.4C307.19 545.64 306.63 544.73 305.98 543.77C304.97 545.62 303.66 547.14 301.91 548.29C301.75 548.04 301.26 547.5 300.97 547.26C302.84 546.14 304.17 544.58 305.15 542.6C304.16 541.27 303.03 539.9 301.96 538.76L302.9 538C303.84 538.97 304.83 540.11 305.73 541.22C306.23 539.85 306.61 538.3 306.86 536.61L308.16 536.79V536.8ZM309.72 536.21H301.4V534.97H304.82V532.04H306.1V534.97H309.72V536.21ZM317.54 537.59H315.4V546.61C315.4 547.51 315.18 547.91 314.64 548.16C314.1 548.38 313.2 548.41 311.65 548.41C311.6 548.05 311.42 547.42 311.22 547.02C312.35 547.06 313.34 547.06 313.65 547.04C313.96 547.02 314.08 546.93 314.08 546.61V537.59H309.16V536.31H314.08V531.99H315.39V536.31H317.53V537.59H317.54ZM311.33 544C311.04 542.94 310.23 541.21 309.39 539.97L310.49 539.47C311.35 540.69 312.2 542.35 312.47 543.43L311.34 544.01L311.33 544Z" fill="black"/>
<path d="M303.8 553.45C303.28 554.24 302.7 554.96 302.11 555.52C301.86 555.32 301.32 554.94 301.01 554.78C302.16 553.77 303.24 552.2 303.84 550.66L305.1 550.98C304.92 551.43 304.72 551.86 304.49 552.29H309.1V553.44H306.02C306.36 554.02 306.65 554.66 306.79 555.1L305.62 555.53C305.46 554.97 305.06 554.14 304.68 553.44H303.8V553.45ZM310.14 561.35C311.56 562.93 314.41 564.61 317.68 565.33C317.41 565.62 317.03 566.16 316.83 566.5C314.08 565.76 311.68 564.29 310.13 562.83V567.15H308.73V562.79C306.97 564.52 304.5 565.89 302.01 566.57C301.85 566.23 301.47 565.72 301.16 565.45C304.13 564.77 307.14 563.16 308.72 561.2V559.65H304.29V563.11H302.9V558.48H308.72V557.09H301.61V555.9H308.72V555.31C308.45 555.09 308.11 554.84 307.86 554.73C309.08 553.76 310.16 552.24 310.72 550.64L312.03 550.95C311.85 551.42 311.65 551.85 311.44 552.28H317.22V553.43H313.51C313.89 554.01 314.21 554.62 314.37 555.07L313.2 555.48C313 554.92 312.57 554.11 312.12 553.43H310.75C310.43 553.9 310.07 554.37 309.72 554.76H310.12V555.89H316.98V557.08H310.12V558.47H315.95V561.78C315.95 562.43 315.82 562.7 315.36 562.9C314.91 563.08 314.19 563.08 313.18 563.08C313.11 562.74 312.89 562.32 312.73 562.02C313.45 562.06 314.15 562.04 314.35 562.04C314.57 562.04 314.62 561.97 314.62 561.79V559.65H310.12V561.34L310.14 561.35Z" fill="black"/>
<path d="M309.81 581.52C309.86 580.85 309.88 579.72 309.88 578.82C308.26 579.7 307.14 580.58 307.14 581.74C307.14 583.11 308.47 583.31 310.27 583.31C311.62 583.31 313.49 583.15 315.01 582.88L314.97 584.32C313.66 584.46 311.71 584.61 310.22 584.61C307.72 584.61 305.72 584.07 305.72 581.94C305.72 579.81 307.79 578.57 309.83 577.51C309.65 576.79 309.02 576.47 308.26 576.47C307.09 576.47 306.05 577.01 305.25 577.75C304.75 578.22 304.26 578.87 303.65 579.57L302.46 578.67C304.67 576.53 305.84 574.74 306.47 573.34H305.73C305.01 573.34 303.84 573.32 302.87 573.25V571.94C303.81 572.05 305.01 572.12 305.8 572.12C306.16 572.12 306.54 572.12 306.93 572.1C307.18 571.33 307.34 570.53 307.38 569.94L308.84 570.07C308.71 570.57 308.55 571.28 308.32 572.07C310.08 571.98 311.99 571.82 313.65 571.53L313.63 572.84C311.9 573.11 309.76 573.25 307.85 573.31C307.47 574.21 306.93 575.18 306.27 575.99C306.92 575.59 307.93 575.34 308.7 575.34C309.83 575.34 310.73 575.9 311 576.92C312.21 576.34 313.25 575.93 314.17 575.52C314.69 575.29 315.12 575.09 315.61 574.85L316.17 576.15C315.74 576.28 315.11 576.53 314.64 576.73C313.67 577.09 312.41 577.59 311.09 578.22C311.11 579.21 311.13 580.69 311.14 581.53H309.79L309.81 581.52Z" fill="black"/>
<path d="M308.32 591.75C308.27 592.72 308.19 593.71 308.05 594.7H315.22C315.22 594.7 315.2 595.13 315.18 595.35C314.82 600.48 314.46 602.46 313.76 603.18C313.35 603.61 312.91 603.74 312.23 603.77C311.6 603.81 310.43 603.79 309.22 603.72C309.18 603.34 309 602.78 308.75 602.42C310.03 602.55 311.31 602.55 311.76 602.55C312.17 602.55 312.43 602.53 312.61 602.35C313.15 601.88 313.49 600.12 313.8 595.96H307.86C307.23 599.15 305.79 602.12 302.13 603.88C301.93 603.54 301.52 603.05 301.17 602.78C306.14 600.55 306.66 595.88 306.88 591.74H301.35V590.46H308.61V587.33H309.96V590.46H317.34V591.74H308.32V591.75Z" fill="black"/>
<path d="M304.65 613.92C303.89 613.34 302.35 612.59 301.1 612.16L301.8 611.13C303.01 611.53 304.57 612.21 305.36 612.79L304.64 613.92H304.65ZM305.96 616.54C305.06 618.43 303.87 620.64 302.86 622.32L301.73 621.46C302.65 620.06 303.98 617.73 304.95 615.68L305.96 616.54ZM305.55 609.18C304.81 608.55 303.3 607.7 302.06 607.22L302.78 606.23C304.02 606.68 305.55 607.44 306.31 608.08L305.55 609.18ZM316.46 622.58C316.28 622.13 316.03 621.61 315.7 621.05C312.23 621.32 308.61 621.55 306.12 621.72L305.92 620.39L307.41 620.32C308.17 618.79 309.03 616.61 309.57 614.9H305.9V613.62H310.91V610.33H306.8V609.07H310.91V606.13H312.28V609.07H316.55V610.33H312.28V613.62H317.39V614.9H311.16C310.49 616.61 309.65 618.66 308.86 620.23C310.71 620.14 312.86 620.01 314.98 619.87C314.4 618.99 313.76 618.09 313.13 617.31L314.26 616.72C315.61 618.3 317.09 620.47 317.7 621.89L316.46 622.59V622.58Z" fill="black"/>
<path d="M309.81 636.9C309.86 636.23 309.88 635.1 309.88 634.2C308.26 635.08 307.14 635.96 307.14 637.12C307.14 638.49 308.47 638.69 310.27 638.69C311.62 638.69 313.49 638.53 315.01 638.26L314.97 639.7C313.66 639.84 311.71 639.99 310.22 639.99C307.72 639.99 305.72 639.45 305.72 637.32C305.72 635.19 307.79 633.95 309.83 632.89C309.65 632.17 309.02 631.85 308.26 631.85C307.09 631.85 306.05 632.39 305.25 633.13C304.75 633.6 304.26 634.25 303.65 634.95L302.46 634.05C304.67 631.91 305.84 630.12 306.47 628.72H305.73C305.01 628.72 303.84 628.7 302.87 628.63V627.32C303.81 627.43 305.01 627.5 305.8 627.5C306.16 627.5 306.54 627.5 306.93 627.48C307.18 626.71 307.34 625.91 307.38 625.32L308.84 625.45C308.71 625.95 308.55 626.66 308.32 627.45C310.08 627.36 311.99 627.2 313.65 626.91L313.63 628.22C311.9 628.49 309.76 628.63 307.85 628.69C307.47 629.59 306.93 630.56 306.27 631.37C306.92 630.97 307.93 630.72 308.7 630.72C309.83 630.72 310.73 631.28 311 632.3C312.21 631.72 313.25 631.31 314.17 630.9C314.69 630.67 315.12 630.47 315.61 630.23L316.17 631.53C315.74 631.66 315.11 631.91 314.64 632.11C313.67 632.47 312.41 632.98 311.09 633.61C311.11 634.6 311.13 636.08 311.14 636.92H309.79L309.81 636.9Z" fill="black"/>
<path d="M306.57 651.84C305.92 652.07 305.26 652.27 304.59 652.51V657.55C304.59 658.29 304.43 658.63 303.98 658.85C303.57 659.07 302.88 659.12 301.75 659.1C301.7 658.78 301.53 658.24 301.35 657.86C302.12 657.88 302.83 657.88 303.02 657.88C303.25 657.88 303.34 657.81 303.34 657.54V652.91C302.6 653.16 301.9 653.38 301.25 653.58L300.93 652.28C301.6 652.12 302.42 651.87 303.34 651.58V647.64H301.13V646.4H303.34V642.82H304.58V646.4H306.56V647.64H304.58V651.19L306.4 650.63L306.56 651.85L306.57 651.84ZM312.57 657.66C313.09 657.73 313.67 657.77 314.26 657.77C314.69 657.77 317.14 657.77 317.74 657.75C317.56 658.04 317.4 658.6 317.34 658.94H314.21C311.62 658.94 309.73 658.45 308.56 655.93C308.06 657.28 307.35 658.38 306.4 659.22C306.2 659 305.7 658.59 305.41 658.41C307.01 657.15 307.8 655.13 308.09 652.47L309.33 652.61C309.24 653.28 309.13 653.94 308.97 654.54C309.49 656.05 310.28 656.88 311.31 657.31V651.62H306.92V650.49H317.18V651.62H312.57V653.73H316.3V654.83H312.57V657.66ZM316.19 649.21H307.75V643.38H316.19V649.21ZM314.91 644.39H308.97V645.81H314.91V644.39ZM314.91 646.75H308.97V648.19H314.91V646.75Z" fill="black"/>
<path d="M311.09 673.51C312.73 674.9 315.36 676.07 317.77 676.59C317.48 676.86 317.1 677.36 316.91 677.71C314.41 677.03 311.67 675.6 309.96 673.88V677.91H308.65V673.95C306.98 675.62 304.33 677.03 301.86 677.7C301.68 677.38 301.3 676.85 301.01 676.62C303.41 676.08 306.02 674.89 307.6 673.52H301.35V672.4H308.64V670.91H309.95V672.4H317.37V673.52H311.09V673.51ZM303.98 668.96C304.48 668.4 305.06 667.68 305.65 666.94H301.64V665.84H306.5C306.95 665.26 307.36 664.69 307.72 664.18L308.96 664.54C308.67 664.95 308.35 665.39 308.01 665.84H317.12V666.94H313.66C313.21 667.9 312.58 668.69 311.68 669.34C313.43 669.79 315.06 670.29 316.25 670.73L315.44 671.7C314.22 671.2 312.34 670.62 310.35 670.08C308.59 670.87 306.1 671.34 302.55 671.59C302.5 671.3 302.28 670.8 302.12 670.53C304.91 670.35 306.96 670.06 308.48 669.61C307.49 669.36 306.5 669.14 305.56 668.94L305.22 669.35L303.98 668.95V668.96ZM303.1 665.41H301.84V662.84H308.66V661.51H309.97V662.84H316.92V665.41H315.64V663.97H303.09V665.41H303.1ZM307.17 666.94C306.86 667.34 306.56 667.73 306.27 668.09C307.48 668.32 308.83 668.61 310.16 668.94C311.15 668.42 311.78 667.75 312.21 666.94H307.17Z" fill="black"/>
<path d="M336.5 449C337.881 449 339 447.881 339 446.5C339 445.119 337.881 444 336.5 444C335.119 444 334 445.119 334 446.5C334 447.881 335.119 449 336.5 449Z" fill="black"/>
<path d="M309.5 449C310.881 449 312 447.881 312 446.5C312 445.119 310.881 444 309.5 444C308.119 444 307 445.119 307 446.5C307 447.881 308.119 449 309.5 449Z" fill="black"/>
<path d="M352 730.5H292C287.858 730.5 284.5 733.858 284.5 738V932C284.5 936.142 287.858 939.5 292 939.5H352C356.142 939.5 359.5 936.142 359.5 932V738C359.5 733.858 356.142 730.5 352 730.5Z" fill="#E6E9F1"/>
<path d="M352 731C355.86 731 359 734.14 359 738V932C359 935.86 355.86 939 352 939H292C288.14 939 285 935.86 285 932V738C285 734.14 288.14 731 292 731H352ZM352 730H292C287.6 730 284 733.6 284 738V932C284 936.4 287.6 940 292 940H352C356.4 940 360 936.4 360 932V738C360 733.6 356.4 730 352 730Z" fill="#0A2270"/>
<path d="M335.18 772.93C334.8 772.48 333.88 771.6 333.13 770.91V775.48H331.83V770.74C330.95 772.13 329.83 773.42 328.82 774.22C328.6 773.91 328.21 773.48 327.92 773.25C329.22 772.4 330.64 770.78 331.54 769.2H328.32V768.07H331.83V766.18H328.27V765.05H336.62V766.18H333.13V768.07H336.48V769.2H333.13V769.63C333.81 770.13 335.56 771.56 335.97 771.93L335.18 772.92V772.93ZM336.4 762.09H328.51V760.97H331.82V759.15H333.12V760.97H336.4V762.09ZM330.3 765.03C330.23 764.33 329.94 763.25 329.6 762.44L330.64 762.17C331.02 762.98 331.32 764.04 331.41 764.73L330.29 765.04L330.3 765.03ZM333.25 764.74C333.57 764.02 333.99 762.9 334.15 762.13L335.37 762.42C335.03 763.32 334.67 764.33 334.33 764.98L333.25 764.75V764.74ZM344.56 766.38H342.54V775.42H341.23V766.38H338.55V766.83C338.55 769.51 338.21 773.11 335.69 775.62C335.53 775.33 335.04 774.86 334.74 774.68C337.03 772.45 337.28 769.33 337.28 766.81V760.54L338.25 760.85C340.09 760.45 342.1 759.88 343.26 759.3L344.34 760.29C342.81 760.97 340.56 761.51 338.56 761.91V765.12H344.57V766.38H344.56Z" fill="black"/>
<path d="M344.4 791.54V792.87H328.34V791.54H335.58V781.21H329.28V779.84H343.5V781.21H337.04V791.54H344.4Z" fill="black"/>
<path d="M331.65 804.34C330.89 803.76 329.35 803.01 328.1 802.58L328.8 801.55C330.01 801.95 331.57 802.63 332.36 803.21L331.64 804.34H331.65ZM332.96 806.97C332.06 808.86 330.87 811.07 329.86 812.75L328.73 811.89C329.65 810.49 330.98 808.16 331.95 806.11L332.96 806.97ZM332.55 799.61C331.81 798.98 330.3 798.13 329.06 797.65L329.78 796.66C331.02 797.11 332.55 797.87 333.31 798.51L332.55 799.61ZM343.46 813C343.28 812.55 343.03 812.03 342.7 811.47C339.23 811.74 335.61 811.97 333.12 812.14L332.92 810.81L334.41 810.74C335.17 809.21 336.03 807.03 336.57 805.32H332.9V804.04H337.91V800.75H333.8V799.49H337.91V796.55H339.28V799.49H343.55V800.75H339.28V804.04H344.39V805.32H338.16C337.49 807.03 336.65 809.08 335.86 810.65C337.71 810.56 339.86 810.43 341.98 810.29C341.4 809.41 340.76 808.51 340.13 807.73L341.26 807.14C342.61 808.72 344.09 810.89 344.7 812.31L343.46 813.01V813Z" fill="black"/>
<path d="M330.31 822.03V831.7H329V816.02H335.52V822.03H330.32H330.31ZM330.31 817.05V818.51H334.25V817.05H330.31ZM334.26 821.01V819.46H330.32V821.01H334.26ZM338.72 827.35V831.36H337.53V827.35H334.97C334.86 828.56 334.29 830.43 332.56 831.6C332.36 831.37 331.97 830.99 331.68 830.81C333.19 829.89 333.7 828.4 333.8 827.35H331.55V826.22H333.84V824.28H331.9V823.18H340.78V824.28H338.73V826.22H341.18V827.35H338.73H338.72ZM337.54 826.21V824.27H335.02V826.21H337.54ZM343.78 829.96C343.78 830.75 343.6 831.18 343.08 831.42C342.54 831.64 341.64 831.67 340.29 831.65C340.25 831.31 340.06 830.68 339.86 830.32C340.85 830.36 341.82 830.36 342.09 830.34C342.38 830.34 342.47 830.23 342.47 829.94V822.05H337.1V816.02H343.78V829.96ZM338.38 817.05V818.51H342.47V817.05H338.38ZM342.47 821.03V819.46H338.38V821.03H342.47Z" fill="black"/>
<path d="M339.19 841.58V844.26H343.46V845.5H339.19V848.4C339.19 848.96 339.3 849.07 339.91 849.07H341.96C342.52 849.07 342.61 848.71 342.68 846.78C342.97 847.01 343.53 847.25 343.89 847.34C343.76 849.63 343.39 850.26 342.07 850.26H339.71C338.2 850.26 337.8 849.86 337.8 848.39V845.51H334.56C334.27 847.44 333.21 849.27 329.68 850.5C329.52 850.19 329.1 849.69 328.83 849.44C331.84 848.43 332.86 847.01 333.19 845.51H329.19V844.27H333.33V841.59H331.44V840.91C330.58 841.56 329.66 842.08 328.76 842.49C328.58 842.2 328.18 841.73 327.93 841.48C329.17 840.98 330.47 840.17 331.59 839.14C331.05 838.56 330.17 837.81 329.43 837.25L330.26 836.55C330.98 837.07 331.86 837.77 332.44 838.31C333.09 837.57 333.66 836.78 334.11 835.93H329.64V834.74H334.77L335 834.69L335.88 835.12C335.11 837.23 333.74 838.99 332.13 840.34H340.59C338.84 838.77 337.47 836.7 336.57 834.38L337.72 834.04C338.03 834.81 338.4 835.59 338.85 836.29C339.64 835.64 340.51 834.8 341.06 834.17L342.07 834.89C341.28 835.66 340.29 836.53 339.44 837.16C339.8 837.65 340.18 838.11 340.61 838.55C341.49 837.87 342.54 836.91 343.17 836.23L344.18 836.93C343.35 837.74 342.27 838.6 341.35 839.27C342.36 840.15 343.49 840.87 344.72 841.36C344.43 841.61 344.02 842.13 343.8 842.48C342.88 842.08 342.02 841.54 341.22 840.91V841.59H339.15L339.19 841.58ZM337.8 841.58H334.67V844.26H337.8V841.58Z" fill="black"/>
<path d="M342.31 860.01C341.3 862.51 339.66 864.39 337.61 865.81C339.54 866.85 341.9 867.56 344.6 867.92C344.29 868.21 343.93 868.8 343.75 869.18C340.83 868.73 338.35 867.88 336.31 866.62C334.1 867.84 331.54 868.64 328.84 869.12C328.73 868.78 328.37 868.15 328.12 867.86C330.66 867.46 333.05 866.8 335.11 865.77C333.54 864.55 332.3 863.03 331.38 861.2L332.46 860.82H329.61V859.51H335.62V856.74H328.8V855.44H335.62V852.7H336.99V855.44H343.85V856.74H336.99V859.51H341.13L341.38 859.46L342.3 860.02L342.31 860.01ZM332.62 860.82C333.48 862.53 334.74 863.93 336.37 865.05C338.08 863.99 339.47 862.6 340.39 860.82H332.63H332.62Z" fill="black"/>
<path d="M331.67 881.53V886.3C331.67 887.04 331.49 887.4 331.04 887.61C330.63 887.83 329.94 887.88 328.81 887.86C328.76 887.54 328.59 887 328.41 886.62C329.18 886.64 329.9 886.64 330.1 886.62C330.32 886.62 330.41 886.57 330.41 886.3V881.94C329.64 882.19 328.91 882.43 328.25 882.62L328.03 881.32C328.7 881.14 329.51 880.89 330.41 880.62V876.26H328.18V875.02H330.41V871.42H331.67V875.02H333.6V876.26H331.67V880.22L333.54 879.63L333.72 880.84L331.67 881.52V881.53ZM343.21 881.4C342.67 883.09 341.82 884.39 340.74 885.4C341.89 886.05 343.26 886.5 344.74 886.77C344.45 887.04 344.11 887.56 343.93 887.9C342.35 887.56 340.92 887 339.72 886.21C338.57 887 337.23 887.52 335.79 887.88C335.65 887.61 335.29 887.09 335.03 886.89C336.4 886.58 337.64 886.13 338.7 885.49C337.87 884.82 337.15 884.05 336.59 883.15C335.89 884.99 334.83 886.68 333.04 887.85C332.84 887.54 332.43 887.11 332.12 886.91C334.69 885.31 335.67 882.52 336.1 879.91H333.65V878.78H336.28C336.33 878.29 336.39 877.81 336.42 877.36H334.06V876.26H340.45C341.03 875.38 341.71 874.14 342.11 873.23L343.37 873.64C342.87 874.5 342.27 875.48 341.71 876.25H343.89V877.35H337.71C337.67 877.8 337.62 878.29 337.57 878.77H344.41V879.9H337.39C337.34 880.3 337.25 880.71 337.16 881.11H342.2L342.43 881.07L343.19 881.39L343.21 881.4ZM343.58 872.54C341.15 873.08 337.28 873.37 334.13 873.46C334.09 873.15 333.93 872.72 333.81 872.42C336.93 872.31 340.72 872.01 342.81 871.54L343.58 872.55V872.54ZM335.64 873.69C335.96 874.37 336.38 875.31 336.54 875.87L335.44 876.25C335.28 875.64 334.94 874.68 334.59 873.96L335.63 873.69H335.64ZM337.34 882.16C337.92 883.17 338.73 884.05 339.73 884.77C340.54 884.09 341.19 883.22 341.64 882.16H337.34ZM338.29 876.03C338.24 875.42 338.02 874.37 337.82 873.58L338.88 873.4C339.11 874.17 339.33 875.18 339.42 875.78L338.29 876.03Z" fill="black"/>
<path d="M316.64 768.5C316.08 770.21 315.15 771.61 313.99 772.73C315.02 773.52 316.24 774.12 317.63 774.46C317.34 774.71 316.98 775.2 316.82 775.5C315.38 775.09 314.12 774.4 313.06 773.52C311.96 774.37 310.74 774.98 309.48 775.41C309.34 775.1 309.01 774.64 308.78 774.4V775.52H307.5V773.77C305.3 774.04 303.11 774.29 301.43 774.49L301.3 773.3C301.8 773.26 302.38 773.21 303.01 773.14V767.09H301.46V765.97H317.2V767.09H308.77V774.38C309.96 774.02 311.13 773.44 312.15 772.67C311.32 771.77 310.66 770.71 310.17 769.5L310.94 769.27H309.39V768.21H315.58L315.81 768.17L316.62 768.49L316.64 768.5ZM315.18 764.97H303.6V759.66H315.18V764.97ZM304.23 767.1V768.31H307.49V767.1H304.23ZM304.23 770.57H307.49V769.31H304.23V770.57ZM304.23 773.02C305.26 772.91 306.37 772.8 307.49 772.68V771.58H304.23V773.02ZM313.87 760.62H304.87V761.86H313.87V760.62ZM313.87 762.76H304.87V764.02H313.87V762.76ZM311.29 769.28C311.7 770.27 312.32 771.17 313.05 771.93C313.86 771.17 314.53 770.29 314.99 769.28H311.28H311.29Z" fill="black"/>
<path d="M304.79 790.64C305.64 791.97 307.22 792.58 309.33 792.66C311.31 792.75 315.45 792.7 317.61 792.55C317.45 792.86 317.23 793.47 317.18 793.86C315.16 793.95 311.36 793.99 309.35 793.9C306.99 793.81 305.37 793.18 304.25 791.78C303.46 792.55 302.63 793.31 301.75 794.08L301.05 792.8C301.81 792.24 302.72 791.49 303.54 790.73V786.12H301.25V784.86H304.8V790.64H304.79ZM304.25 782.02C303.71 781.12 302.5 779.88 301.41 779.01L302.44 778.25C303.54 779.08 304.78 780.3 305.34 781.18L304.26 782.01L304.25 782.02ZM308.68 780.4H305.82V779.32H310.79V777.81H312.1V779.32H317.32V780.4H314.55L315.02 780.53C314.7 781.14 314.35 781.77 314.07 782.26H316.7V790.18C316.7 790.83 316.57 791.17 316.11 791.39C315.64 791.57 314.9 791.59 313.84 791.59C313.79 791.27 313.61 790.76 313.43 790.44C314.24 790.48 314.94 790.48 315.18 790.46C315.4 790.46 315.45 790.39 315.45 790.19V783.33H312.03V784.54H314.73V785.46H312.03V786.76H313.96V790H310.12V790.68H309.15V786.76H311V785.46H308.32V784.54H311V783.33H307.71V791.61H306.49V782.27H308.83C308.69 781.75 308.38 781.08 308.07 780.58L308.7 780.42L308.68 780.4ZM312.84 782.2C313.13 781.71 313.47 780.98 313.69 780.4H309.26C309.6 780.94 309.91 781.68 310.02 782.16L309.7 782.25H313.05L312.85 782.2H312.84ZM312.95 787.58H310.1V789.13H312.95V787.58Z" fill="black"/>
<path d="M309.17 800.6C309.03 808.56 308.9 811.17 308.34 811.94C308.02 812.41 307.69 812.57 307.15 812.62C306.66 812.69 305.84 812.69 305.04 812.64C305 812.24 304.88 811.67 304.64 811.29C305.47 811.36 306.24 811.36 306.57 811.36C306.86 811.38 307.04 811.32 307.16 811.07C307.57 810.57 307.74 808.12 307.86 801.22H305.14C304.98 806.05 304.37 810.35 301.93 812.98C301.73 812.69 301.25 812.26 300.92 812.06C303.15 809.7 303.69 805.72 303.84 801.22H301.35V799.91H303.87C303.89 798.88 303.89 797.84 303.89 796.78H305.2C305.2 797.84 305.18 798.89 305.16 799.91H309.14V800.59L309.17 800.6ZM316.73 798.76V812.57H315.4V811.38H311.91V812.69H310.65V798.75H316.73V798.76ZM315.4 810.1V800.05H311.91V810.1H315.4Z" fill="black"/>
<path d="M317.4 828.98V830.31H301.34V828.98H308.58V818.64H302.28V817.27H316.5V818.64H310.04V828.98H317.4Z" fill="black"/>
<path d="M311.18 845.09C312.75 846.75 315.27 848.19 317.63 848.89C317.31 849.18 316.91 849.68 316.73 850.02C314.28 849.16 311.65 847.44 309.98 845.5V850.4H308.65V845.48C306.98 847.46 304.35 849.19 301.95 850.09C301.77 849.75 301.37 849.28 301.09 848.99C303.38 848.25 305.9 846.76 307.46 845.08H301.43V843.89H308.65V841.96H309.98V843.89H317.29V845.08H311.19L311.18 845.09ZM314.26 836.09C313.43 837.66 312.17 838.95 310.66 840C312.62 840.92 314.96 841.55 317.5 841.85C317.21 842.16 316.85 842.7 316.71 843.06C313.99 842.65 311.51 841.89 309.44 840.77C307.23 842.03 304.61 842.86 302.08 843.35C301.97 843.01 301.7 842.45 301.47 842.16C303.77 841.78 306.17 841.06 308.22 840.02C307.23 839.34 306.37 838.56 305.65 837.68C304.8 838.42 303.83 839.08 302.72 839.68C302.49 839.37 302.07 838.91 301.76 838.72C304.41 837.42 306.26 835.57 307.18 833.95L308.66 834.22C308.37 834.69 308.05 835.16 307.67 835.61H313.16L313.39 835.56L314.27 836.1L314.26 836.09ZM306.54 836.86C307.28 837.8 308.25 838.62 309.4 839.31C310.55 838.59 311.52 837.74 312.26 836.77H306.62L306.53 836.86H306.54Z" fill="black"/>
<path d="M306.47 853.15C305.97 854.46 305.37 855.8 304.69 857.04V869.1H303.41V859.11C302.89 859.88 302.31 860.59 301.75 861.22C301.62 860.9 301.23 860.21 300.99 859.91C302.66 858.16 304.25 855.48 305.2 852.76L306.46 853.16L306.47 853.15ZM317.41 862.93H312.53V869.14H311.2V862.93H306.07V861.62H311.2V857.68H308.37C307.99 858.72 307.56 859.66 307.07 860.42C306.82 860.22 306.26 859.9 305.92 859.74C306.98 858.26 307.72 855.92 308.13 853.6L309.39 853.87C309.23 854.72 309.03 855.56 308.8 856.37H311.19V852.93H312.52V856.37H316.63V857.68H312.52V861.62H317.4V862.93H317.41Z" fill="black"/>
<path d="M309.18 884.64C309.74 884.6 310.24 884.51 310.66 884.44C312.89 883.94 315.09 882.28 315.09 879.29C315.09 876.64 313.42 874.48 310.46 874.21C310.23 875.85 309.88 877.61 309.42 879.23C308.36 882.81 306.97 884.67 305.35 884.67C303.73 884.67 302.23 882.87 302.23 879.99C302.23 876.21 305.6 872.91 309.86 872.91C314.12 872.91 316.52 875.79 316.52 879.32C316.52 882.85 314.12 885.42 309.98 885.96L309.17 884.63L309.18 884.64ZM308.03 878.95C308.46 877.51 308.79 875.83 308.98 874.25C305.67 874.68 303.63 877.53 303.63 879.87C303.63 882.08 304.64 883.04 305.38 883.04C306.17 883.04 307.14 881.89 308.03 878.95Z" fill="black"/>
<path d="M313.24 900.62C314.27 902.78 315.71 903.66 317.78 904.37C317.47 904.66 317.15 905.13 317.01 905.5C314.87 904.67 313.37 903.63 312.31 901.38C311.66 903 310.24 904.48 307.16 905.5C307.05 905.21 306.67 904.71 306.44 904.49C309.57 903.48 310.82 902.11 311.28 900.62H307.66V895.99H311.55V894.33H308.81V893.48C308.32 893.82 307.82 894.15 307.3 894.42C307.25 894.28 307.16 894.11 307.07 893.95V894.06H305.13V895.41C305.63 896.06 307 898.02 307.29 898.49L306.55 899.55C306.3 898.97 305.67 897.84 305.13 896.96V905.39H303.87V897.07C303.28 899.01 302.48 900.87 301.67 902.02C301.51 901.68 301.18 901.16 300.97 900.85C302.09 899.34 303.22 896.51 303.76 894.06H301.35V892.82H303.87V888.97H305.13V892.82H307.07V893.13C308.93 892.14 310.65 890.54 311.54 889.01H312.75C314.03 890.79 316.03 892.39 317.92 893.22C317.67 893.54 317.38 894.01 317.2 894.39C316.7 894.12 316.17 893.8 315.65 893.44V894.34H312.77V896H316.8V900.63H313.25L313.24 900.62ZM311.51 899.52C311.53 899.21 311.55 898.89 311.55 898.58V897.07H308.85V899.52H311.52H311.51ZM315.29 893.21C314.08 892.33 312.93 891.23 312.19 890.2C311.51 891.21 310.44 892.29 309.22 893.21H315.29ZM312.75 897.08V898.63C312.75 898.94 312.73 899.22 312.71 899.53H315.55V897.08H312.74H312.75Z" fill="black"/>
<path d="M301.1 910.68H308.18V911.78H301.1V910.68ZM307.47 923.11H303.11V923.94H301.92V917.91H307.47V923.11ZM301.95 913.11H307.53V914.17H301.95V913.11ZM301.95 915.49H307.53V916.57H301.95V915.49ZM307.53 909.4H302.04V908.32H307.53V909.4ZM303.12 919V922.02H306.27V919H303.12ZM317.61 913.1H315.41V922.28C315.41 923.23 315.18 923.63 314.6 923.86C314.02 924.09 312.96 924.11 311.41 924.11C311.34 923.75 311.12 923.1 310.91 922.72C312.15 922.76 313.3 922.74 313.65 922.74C313.99 922.72 314.12 922.63 314.12 922.27V913.09H308.43V911.81H314.12V907.7H315.42V911.81H317.62V913.09L317.61 913.1ZM311.54 919.67C311.13 918.54 310.17 916.77 309.27 915.47L310.39 914.93C311.33 916.19 312.3 917.9 312.69 919.05L311.54 919.66V919.67Z" fill="black"/>
<path d="M336.5 748C337.881 748 339 746.881 339 745.5C339 744.119 337.881 743 336.5 743C335.119 743 334 744.119 334 745.5C334 746.881 335.119 748 336.5 748Z" fill="black"/>
<path d="M309.5 748C310.881 748 312 746.881 312 745.5C312 744.119 310.881 743 309.5 743C308.119 743 307 744.119 307 745.5C307 746.881 308.119 748 309.5 748Z" fill="black"/>
<path d="M251 51H267V131H284.5" stroke="#0A2270" stroke-width="2" stroke-linejoin="round"/>
<path d="M251 190H267V477H284.5" stroke="#0A2270" stroke-width="2" stroke-linejoin="round"/>
<path d="M251 609H267V836H284.5" stroke="#0A2270" stroke-width="2" stroke-linejoin="round"/>
<path d="M250.5 58C254.642 58 258 54.6421 258 50.5C258 46.3579 254.642 43 250.5 43C246.358 43 243 46.3579 243 50.5C243 54.6421 246.358 58 250.5 58Z" fill="#FFFF00" stroke="#0A2270" stroke-width="2" stroke-miterlimit="10"/>
<path d="M284.5 139C288.642 139 292 135.642 292 131.5C292 127.358 288.642 124 284.5 124C280.358 124 277 127.358 277 131.5C277 135.642 280.358 139 284.5 139Z" fill="#FFFF00" stroke="#0A2270" stroke-width="2" stroke-miterlimit="10"/>
<path d="M250.5 198C254.642 198 258 194.642 258 190.5C258 186.358 254.642 183 250.5 183C246.358 183 243 186.358 243 190.5C243 194.642 246.358 198 250.5 198Z" fill="#FFFF00" stroke="#0A2270" stroke-width="2" stroke-miterlimit="10"/>
<path d="M284.5 484C288.642 484 292 480.642 292 476.5C292 472.358 288.642 469 284.5 469C280.358 469 277 472.358 277 476.5C277 480.642 280.358 484 284.5 484Z" fill="#FFFF00" stroke="#0A2270" stroke-width="2" stroke-miterlimit="10"/>
<path d="M250.5 617C254.642 617 258 613.642 258 609.5C258 605.358 254.642 602 250.5 602C246.358 602 243 605.358 243 609.5C243 613.642 246.358 617 250.5 617Z" fill="#FFFF00" stroke="#0A2270" stroke-width="2" stroke-miterlimit="10"/>
<path d="M284.5 844C288.642 844 292 840.642 292 836.5C292 832.358 288.642 829 284.5 829C280.358 829 277 832.358 277 836.5C277 840.642 280.358 844 284.5 844Z" fill="#FFFF00" stroke="#0A2270" stroke-width="2" stroke-miterlimit="10"/>
</svg>
