<svg xmlns="http://www.w3.org/2000/svg" id="_レイヤー_1" data-name="レイヤー_1" version="1.1" viewBox="0 0 556 556"><defs><style>.st0{fill:#e6e6e6}</style></defs><path d="M277.8 288.5c-3 0-5.3-2.4-5.2-5.4 0-2.8 2.4-5.2 5.2-5.2 2.9 0 5.4 2.4 5.3 5.3 0 2.9-2.4 5.3-5.4 5.2ZM266.8 277.4c-2.9 0-5.2-2.4-5.2-5.2 0-2.9 2.4-5.2 5.2-5.2 3 0 5.3 2.4 5.3 5.4 0 2.9-2.4 5.1-5.3 5.1ZM289.1 277.4c-2.9 0-5.3-2.2-5.3-5.1 0-2.8 2.1-5.3 5.3-5.3 2.9 0 5.2 2.3 5.2 5.2 0 2.9-2.3 5.2-5.2 5.2ZM266.8 289.2c2.6 0 5.1 2 5.2 5.2 0 2.8-2.4 5.2-5.2 5.2-2.9 0-5.2-2.3-5.2-5.2 0-2.9 2.3-5.2 5.2-5.2ZM289 299.5c-2.9 0-5.3-2.2-5.3-5.1 0-2.9 2.2-5.2 5.1-5.3 2.9 0 5.3 2.2 5.3 5.1 0 2.8-2.3 5.2-5.1 5.3ZM277.9 266.3c-2.9 0-5.2-2.5-5.1-5.3.1-2.8 2.4-5 5.2-5 2.9 0 5.2 2.3 5.2 5.2 0 2.9-2.4 5.2-5.3 5.1ZM255.7 288.4c-2.9 0-5.1-2.4-5-5.3 0-2.9 2.4-5.1 5.4-5 2.8 0 5 2.4 5 5.2 0 2.8-2.4 5.1-5.3 5.1ZM300.1 288.4c-2.8 0-5.2-2.3-5.2-5.1s2.3-5.1 5.2-5.1c2.8 0 5 2.2 5.1 5 0 2.9-2.2 5.2-5.1 5.3ZM277.8 310.6c-2.8 0-5.2-2.5-5.1-5.3 0-2.9 2.5-5.1 5.4-5 2.8 0 5 2.4 5 5.1 0 2.9-2.4 5.2-5.2 5.1ZM250.8 261.2c0-2.8 2.1-5.1 5-5.1 2.8 0 5.1 2.2 5.1 5s-2.2 5.1-5 5.1-5.1-2.2-5.1-5ZM295.1 261.2c0-2.8 2.2-5.1 5-5.1s5.1 2.2 5.1 5-2.3 5.1-5 5.1c-2.8 0-5-2.2-5.1-5ZM255.9 300.4c2.8.1 4.9 2.4 4.8 5.3 0 2.8-2.5 5-5.2 4.9-2.8-.1-5-2.6-4.8-5.3.1-2.8 2.5-4.9 5.3-4.8ZM300 300.4c2.8 0 5.1 2.2 5.1 5s-2.2 5.1-5 5.1c-2.7 0-5.1-2.3-5.1-5 0-2.8 2.2-5.1 5-5.1ZM289 311.5c2.8 0 5 2.3 4.9 5.2 0 2.7-2.3 4.9-5 4.9-2.8 0-5.1-2.3-5-5.1 0-2.8 2.3-5 5.1-5ZM261.9 250c0-2.8 2.3-5 5.1-4.9 2.7 0 4.9 2.3 4.9 5 0 2.8-2.3 5.1-5.1 5.1s-5-2.3-4.9-5.2ZM239.8 272.2c0-2.8 2.3-5 5.1-5 2.7 0 4.9 2.2 4.9 5s-2.2 5.1-5 5.1-5-2.3-5-5.1ZM306.2 272.1c0-2.8 2.3-5 5.1-5 2.7 0 4.9 2.3 4.9 5 0 2.8-2.2 5.1-5 5.1-3.1 0-5.1-2.6-5-5.1ZM284.1 250c0-2.8 2.3-5 5.1-5 2.7 0 4.9 2.3 4.9 5 0 2.8-2.2 5.1-5 5.1-3.1 0-5.1-2.6-5-5.1ZM244.7 289.3c2.8 0 5 2.3 5 5.1 0 2.7-2.2 4.9-4.9 5-2.8 0-5.1-2.2-5.1-5s2.2-5.1 5-5.1ZM316.1 294.5c0 2.4-2 5-5.1 4.9-2.7 0-4.9-2.3-4.9-5 0-2.8 2.3-5.1 5.1-5 2.8 0 5 2.3 4.9 5.1ZM271.8 316.7c0 2.7-2.3 4.9-5 4.9-2.8 0-5-2.3-5-5.1s2.3-5 5.1-5 4.9 2.4 4.9 5.2ZM317.3 283.3c0-2.7 2.2-5 4.9-5s4.9 2.2 4.9 5c0 2.7-2.2 4.9-4.9 4.9s-4.9-2.2-4.9-4.9ZM238.6 283.2c0 2.8-2.1 5-4.9 5-2.7 0-4.9-2.2-5-4.9 0-2.7 2.2-5 4.9-5s4.9 2.2 4.9 4.9ZM282.9 239c0 2.7-2.2 4.9-5 4.9-2.7 0-4.9-2.3-4.9-5s2.3-4.9 5-4.9 4.9 2.3 4.9 5ZM244.7 321.4c-2.7 0-4.9-2.1-4.9-4.9 0-2.7 2.2-4.9 4.9-4.9s4.9 2.2 4.9 4.9-2.2 4.9-4.9 4.9ZM311 254.9c-2.7-.1-4.8-2.4-4.7-5.1.1-2.7 2.5-4.8 5.1-4.7 2.7.2 4.7 2.4 4.7 5.1 0 2.7-2.3 4.8-5.1 4.7ZM249.6 250c0 2.8-2.1 4.9-4.8 5-2.7 0-4.9-2.1-5-4.8 0-2.7 2.2-5 4.8-5 3.3 0 5 2.7 5 4.8ZM311.1 321.4c-2.7 0-4.9-2.1-4.9-4.9 0-2.7 2.2-4.9 4.9-4.9s4.9 2.2 4.9 4.9-2.2 4.9-4.9 4.9ZM277.8 332.5c-2.7 0-4.8-2.2-4.8-5 0-2.1 1.7-4.8 5-4.8 2.7 0 4.9 2.3 4.8 5 0 2.7-2.3 4.9-5 4.8ZM327.1 261.1c0 2.8-2.1 4.9-4.8 4.9-2.7 0-4.9-2.2-4.9-4.9 0-2.6 2.2-4.8 4.8-4.8 2.7 0 4.9 2.1 5 4.8ZM233.6 310.3c-2.8 0-4.9-2.1-4.9-4.8 0-2.7 2.2-4.9 4.9-4.9 2.6 0 4.8 2.2 4.8 4.8 0 2.7-2.1 4.9-4.8 5ZM238.6 261.1c0 2.8-2.1 4.9-4.8 4.9-2.7 0-4.9-2.2-4.9-4.9 0-2.6 2.2-4.8 4.8-4.8 2.7 0 4.9 2.1 5 4.8ZM300 332.4c-2.7 0-4.8-2.2-4.8-5 0-2.6 2.2-4.7 4.8-4.8 2.6 0 4.9 2.2 4.9 4.9 0 2.3-1.9 4.9-5 4.8ZM322.1 310.3c-2.7 0-4.8-2.2-4.8-5 0-2.6 2.2-4.7 4.8-4.8 2.7 0 4.9 2.3 4.9 4.9 0 2.7-2.2 4.9-5 4.8ZM260.7 239c0 2.7-2.2 4.8-5 4.8-2.6 0-4.7-2.2-4.8-4.8 0-2.7 2.2-5 4.9-4.9 2.7 0 4.9 2.2 4.9 5ZM305 238.9c0 2.8-2.1 4.9-4.8 4.9-2.7 0-4.9-2.1-4.9-4.9 0-2.6 2.1-4.8 4.7-4.9 2.7-.1 5 2.1 5 4.8ZM255.7 332.4c-2.8 0-4.9-2.1-4.9-4.9 0-2.7 2.3-4.9 5-4.8 2.6 0 4.7 2.3 4.8 4.8 0 2.7-2.2 4.9-4.9 4.9ZM266.9 232.7c-2.6 0-4.8-2.2-4.8-4.8 0-2.6 2.2-4.8 4.8-4.8 2.7 0 4.9 2.2 4.9 4.9 0 2.6-2.2 4.7-4.9 4.7ZM289.1 232.7c-2.6 0-4.8-2.1-4.9-4.7 0-2.7 2.2-4.9 4.9-4.9 2.6 0 4.7 2.2 4.7 4.8 0 2.6-2.1 4.7-4.8 4.8ZM222.6 277c-2.6 0-4.8-2.1-4.9-4.7 0-2.7 2.2-4.9 4.9-4.9 2.6 0 4.7 2.2 4.7 4.8 0 2.6-2.1 4.7-4.8 4.7ZM333.4 277c-2.6 0-4.8-2-4.9-4.7 0-2.7 2.2-4.9 4.9-4.9 2.6 0 4.8 2.2 4.7 4.8 0 2.6-2.1 4.7-4.8 4.8ZM266.9 343.4c-2.7 0-4.8-2-4.9-4.7 0-2.6 2-4.8 4.7-4.8 2.6 0 4.8 2 4.9 4.7 0 2.6-2.1 4.8-4.7 4.8ZM333.4 299.1c-2.7 0-4.8-2-4.9-4.6 0-2.6 2-4.8 4.7-4.9 2.6 0 4.8 2 4.9 4.6 0 2.6-2.1 4.8-4.7 4.9ZM222.5 299.1c-2.6 0-4.8-2.1-4.8-4.8 0-2.6 2.1-4.7 4.8-4.7 2.6 0 4.8 2.1 4.8 4.8 0 2.6-2.2 4.8-4.8 4.7ZM288.9 333.9c2.6 0 4.8 2.1 4.8 4.7s-2.1 4.8-4.8 4.8c-2.7 0-4.8-2.1-4.8-4.7s2.1-4.8 4.8-4.8ZM233.7 243.7c-2.6 0-4.8-2.2-4.8-4.8 0-2.5 2.1-4.6 4.6-4.7 2.7 0 4.8 2 4.9 4.6 0 2.6-2.1 4.8-4.7 4.8ZM322.3 243.7c-2.6 0-4.8-2.2-4.8-4.8 0-2.5 2.1-4.6 4.7-4.6 2.7 0 4.8 2 4.9 4.7 0 2.6-2.1 4.8-4.8 4.8ZM322.1 332.3c-2.5 0-4.6-2.1-4.7-4.6 0-2.6 2.1-4.8 4.8-4.7 2.6 0 4.6 2.1 4.7 4.6 0 2.6-2.1 4.8-4.8 4.8ZM244.7 232.6c-2.5 0-4.6-2.1-4.6-4.7s2.1-4.7 4.8-4.7c2.6 0 4.6 2.1 4.6 4.7s-2.2 4.8-4.8 4.7ZM311.3 223.2c2.6 0 4.6 2.1 4.6 4.7s-2.2 4.8-4.8 4.7c-2.5 0-4.6-2.1-4.6-4.7s2.1-4.7 4.8-4.7ZM222.7 245.4c2.6 0 4.7 2.1 4.7 4.6 0 2.6-2.1 4.8-4.8 4.8-2.6 0-4.8-2.2-4.7-4.8 0-2.6 2.1-4.6 4.7-4.5ZM333.4 245.4c2.6 0 4.7 2.1 4.7 4.6 0 2.6-2.1 4.8-4.8 4.8-2.6 0-4.6-2.1-4.7-4.6 0-2.6 2.1-4.8 4.8-4.8ZM233.5 322.9c2.7 0 4.8 2.1 4.8 4.8 0 2.6-2.1 4.6-4.7 4.6s-4.8-2.2-4.8-4.8c0-2.5 2.1-4.6 4.7-4.6ZM311 334c2.6 0 4.7 1.9 4.7 4.5 0 2.7-2 4.8-4.7 4.8-2.5 0-4.7-2.1-4.7-4.6 0-2.5 2.1-4.6 4.6-4.7ZM211.6 278.6c2.6 0 4.7 2.1 4.7 4.6 0 2.6-2.2 4.8-4.8 4.7-2.6 0-4.6-2.2-4.5-4.8 0-2.6 2.1-4.6 4.7-4.6ZM344.4 278.6c2.6 0 4.6 2.1 4.6 4.7s-2.1 4.6-4.7 4.6-4.8-2.3-4.7-4.8c.1-2.6 2.2-4.5 4.8-4.5ZM328.5 316.2c.2-2.7 2.5-4.6 5.2-4.3 2.5.2 4.4 2.5 4.2 5-.2 2.6-2.4 4.5-5 4.3-2.8-.2-4.4-2.6-4.3-5ZM277.9 212.2c2.6 0 4.7 1.9 4.8 4.5.1 2.6-2.1 4.8-4.7 4.8s-4.6-2.1-4.7-4.6c0-2.6 2-4.7 4.6-4.7ZM244.6 334c2.6 0 4.7 1.9 4.7 4.5 0 2.7-2 4.8-4.7 4.8-2.5 0-4.7-2.1-4.7-4.6 0-2.5 2.1-4.6 4.6-4.7ZM277.9 345.1c2.6 0 4.6 2.1 4.6 4.7s-2.1 4.7-4.6 4.7c-2.6 0-4.8-2.2-4.7-4.8 0-2.6 2.2-4.6 4.8-4.5ZM222.5 311.9c2.6 0 4.6 2 4.6 4.6 0 2.6-2 4.7-4.6 4.7-2.6 0-4.8-2.2-4.8-4.8 0-2.5 2.2-4.6 4.7-4.6ZM295.5 216.8c0-2.6 2.1-4.6 4.7-4.6s4.7 2.2 4.6 4.7c0 2.5-2.2 4.6-4.7 4.6-2.6 0-4.6-2.1-4.6-4.7ZM339.8 261.1c0-2.6 2.1-4.6 4.7-4.6s4.7 2.2 4.6 4.7c0 2.5-2.2 4.6-4.7 4.6-2.6 0-4.6-2.1-4.5-4.7ZM348.9 305.4c0 2.6-2.1 4.7-4.6 4.7-2.5 0-4.7-2.1-4.7-4.7 0-2.5 2.1-4.6 4.7-4.6s4.6 2 4.6 4.6ZM216.1 305.4c0 2.6-2 4.7-4.6 4.7-2.5 0-4.7-2.1-4.7-4.6 0-2.5 2.1-4.6 4.6-4.7 2.6 0 4.6 2 4.7 4.6ZM206.9 261.2c0-2.6 1.9-4.7 4.5-4.7s4.7 2 4.8 4.5c0 2.5-2 4.7-4.6 4.8-2.5 0-4.7-2-4.7-4.6ZM251.2 216.7c0-2.6 2.1-4.6 4.7-4.5 2.6 0 4.6 2.2 4.6 4.7s-2.2 4.6-4.8 4.6c-2.6 0-4.6-2.2-4.5-4.8ZM304.6 349.8c0 2.6-2.2 4.6-4.7 4.6-2.4 0-4.5-2.2-4.5-4.6 0-2.5 2.1-4.6 4.7-4.6s4.6 2.1 4.6 4.7ZM260.3 349.8c0 2.6-2.2 4.6-4.7 4.6-2.4 0-4.5-2.2-4.5-4.6 0-2.5 2.1-4.6 4.7-4.6s4.6 2.1 4.6 4.7ZM328.7 338.6c0-2.5 2-4.5 4.5-4.5 2.6 0 4.6 2.1 4.5 4.7 0 2.5-2.2 4.5-4.6 4.4-2.5 0-4.4-2.1-4.4-4.6ZM205 272.2c0 2.5-2 4.5-4.5 4.6-2.4 0-4.5-2-4.6-4.5 0-2.6 2-4.7 4.6-4.7 2.5 0 4.5 2 4.5 4.6ZM360 272.3c0 2.5-2 4.5-4.5 4.5s-4.6-2.1-4.5-4.7c0-2.5 2.2-4.5 4.6-4.4 2.5 0 4.4 2.1 4.4 4.6ZM218.1 227.9c0-2.5 2-4.5 4.5-4.5 2.6 0 4.6 2.1 4.5 4.7 0 2.5-2.2 4.5-4.6 4.4-2.5 0-4.4-2.1-4.4-4.6ZM238.2 216.9c0 2.5-2.1 4.5-4.5 4.5-2.5 0-4.6-2.2-4.5-4.7 0-2.5 2.2-4.5 4.6-4.4 2.5 0 4.4 2.1 4.4 4.6ZM227 338.7c0 2.5-2.1 4.5-4.5 4.5-2.5 0-4.5-2-4.5-4.5 0-2.6 2.1-4.7 4.6-4.6 2.5 0 4.4 2.1 4.4 4.6ZM204.9 294.4c0 2.5-2.1 4.5-4.5 4.5-2.5 0-4.5-2-4.5-4.5 0-2.6 2.1-4.7 4.6-4.6 2.5 0 4.4 2.1 4.4 4.6ZM326.8 216.9c0 2.5-2 4.5-4.5 4.5-2.4 0-4.5-2-4.6-4.5 0-2.6 2-4.7 4.6-4.6 2.5 0 4.4 2.1 4.4 4.6ZM337.9 227.8c0 2.5-1.9 4.6-4.4 4.7-2.4.1-4.6-1.9-4.7-4.4 0-2.6 1.9-4.7 4.5-4.8 2.5 0 4.5 2 4.6 4.5ZM293.6 205.7c0 2.5-1.9 4.5-4.4 4.6-2.4 0-4.5-1.9-4.6-4.4 0-2.6 2-4.7 4.5-4.7s4.5 2 4.5 4.5ZM262.4 205.7c0-2.5 2.1-4.5 4.6-4.5 2.6 0 4.5 2.2 4.5 4.8 0 2.4-2 4.4-4.7 4.3-2.5 0-4.4-2.2-4.4-4.7ZM350.9 294.4c0-2.5 1.9-4.6 4.4-4.6 2.6 0 4.7 2 4.7 4.6 0 2.5-2 4.5-4.5 4.5s-4.5-2-4.5-4.5ZM326.7 349.7c0 2.5-2 4.5-4.5 4.5s-4.6-2.1-4.5-4.7c0-2.5 2.1-4.5 4.5-4.4 2.4 0 4.4 2.1 4.4 4.5ZM238.1 349.7c0 2.5-2 4.5-4.5 4.5s-4.6-2.1-4.5-4.7c0-2.5 2.1-4.5 4.5-4.4 2.4 0 4.4 2.1 4.4 4.5ZM348.9 238.9c0 2.5-1.9 4.5-4.4 4.6-2.5 0-4.6-2-4.6-4.6 0-2.5 2-4.5 4.5-4.5s4.5 2 4.5 4.5ZM348.8 327.6c0 2.5-2 4.5-4.5 4.5s-4.6-2.1-4.5-4.7c0-2.5 2.1-4.5 4.5-4.4 2.4 0 4.4 2.1 4.4 4.5ZM216 238.9c0 2.5-1.9 4.5-4.4 4.6-2.5 0-4.6-2-4.6-4.6 0-2.4 2.1-4.5 4.5-4.5 2.5 0 4.4 2 4.5 4.5ZM207 327.6c0-2.5 1.9-4.5 4.4-4.6 2.5 0 4.6 2 4.6 4.6 0 2.5-2 4.5-4.5 4.5s-4.5-2-4.5-4.5ZM284.5 360.8c0-2.5 2-4.5 4.5-4.5 2.4 0 4.5 2 4.5 4.5 0 2.6-2.1 4.7-4.6 4.6-2.5 0-4.4-2.1-4.4-4.6ZM262.3 360.8c0-2.5 1.9-4.5 4.4-4.6 2.5 0 4.6 2.1 4.6 4.6 0 2.5-2.1 4.5-4.5 4.4-2.5 0-4.4-2-4.4-4.5ZM355.4 312c2.4 0 4.5 2.1 4.5 4.5 0 2.5-2 4.5-4.5 4.5s-4.4-2-4.4-4.5 2-4.5 4.5-4.5ZM249.2 205.8c0 2.5-2 4.5-4.5 4.4-2.5 0-4.5-2-4.4-4.5 0-2.4 2.1-4.5 4.5-4.5 2.5 0 4.4 2.1 4.4 4.5ZM204.9 250c0 2.5-1.9 4.5-4.4 4.5-2.5 0-4.5-1.9-4.5-4.4 0-2.4 2-4.5 4.4-4.6 2.4 0 4.5 2 4.5 4.4ZM359.9 250c0 2.5-1.9 4.5-4.3 4.6-2.5 0-4.5-1.9-4.6-4.4 0-2.4 1.9-4.5 4.4-4.6 2.4 0 4.5 1.9 4.5 4.4ZM315.7 205.8c0 2.5-2 4.5-4.5 4.4-2.5 0-4.5-2-4.4-4.5 0-2.4 2.1-4.5 4.5-4.5 2.5 0 4.4 2.1 4.4 4.5ZM195.9 316.4c0-2.5 2.1-4.5 4.5-4.4 2.4 0 4.4 2.1 4.4 4.6 0 2.5-2.1 4.4-4.5 4.4-2.5 0-4.4-2-4.4-4.5ZM311.1 356.3c2.4 0 4.5 2.1 4.4 4.5 0 2.5-2.1 4.4-4.6 4.4-2.4 0-4.3-1.9-4.3-4.4 0-2.5 2-4.5 4.4-4.5ZM282.4 194.6c0 2.5-1.9 4.5-4.4 4.5-2.5 0-4.5-2-4.5-4.4 0-2.4 1.9-4.3 4.3-4.4 2.4 0 4.5 1.9 4.6 4.4ZM244.6 356.3c2.4 0 4.5 2 4.5 4.4 0 2.4-1.9 4.3-4.3 4.4-2.5 0-4.5-1.8-4.6-4.3 0-2.5 1.9-4.5 4.3-4.6ZM189.4 287.7c-2.4 0-4.4-1.9-4.4-4.3s2-4.5 4.5-4.5c2.4 0 4.3 2 4.4 4.4 0 2.5-1.9 4.5-4.4 4.5ZM366.4 287.7c-2.5 0-4.4-2-4.3-4.5 0-2.4 2.1-4.3 4.5-4.3s4.3 2 4.4 4.4c0 2.5-2 4.5-4.5 4.4ZM300.1 199.1c-2.4 0-4.3-1.9-4.4-4.3 0-2.4 2.1-4.5 4.5-4.5s4.3 2 4.3 4.4c0 2.5-1.9 4.5-4.5 4.4ZM255.9 199.1c-2.5 0-4.5-1.9-4.5-4.4 0-2.4 2-4.3 4.3-4.4 2.4 0 4.5 2 4.5 4.5 0 2.4-1.9 4.3-4.3 4.3ZM277.9 376.3c-2.5 0-4.4-2-4.4-4.5 0-2.4 2-4.3 4.4-4.3 2.4 0 4.5 2.1 4.4 4.5 0 2.4-2 4.3-4.4 4.3ZM255.6 376.2c-2.4 0-4.3-2-4.3-4.4 0-2.4 2-4.3 4.4-4.3 2.5 0 4.5 2.1 4.4 4.5 0 2.4-2.1 4.2-4.5 4.2ZM344.5 221.2c-2.4 0-4.4-1.9-4.4-4.2 0-2.4 2-4.5 4.5-4.5 2.4 0 4.3 2 4.3 4.4 0 2.4-1.9 4.3-4.3 4.3ZM211.6 221.2c-2.4 0-4.4-1.8-4.5-4.2-.1-2.4 2-4.5 4.4-4.5 2.4 0 4.3 1.9 4.4 4.3 0 2.4-1.9 4.3-4.3 4.4ZM189.5 265.5c-2.4 0-4.4-1.8-4.5-4.2 0-2.4 2-4.5 4.4-4.5 2.4 0 4.3 2 4.3 4.4 0 2.4-1.9 4.3-4.3 4.4ZM366.5 265.5c-2.4 0-4.3-2-4.4-4.3 0-2.4 2-4.3 4.3-4.4 2.5 0 4.5 2 4.4 4.5 0 2.4-2 4.3-4.4 4.2ZM189.3 309.8c-2.4 0-4.4-1.8-4.4-4.3s2-4.5 4.4-4.5c2.4 0 4.3 2 4.3 4.4 0 2.4-2 4.3-4.4 4.3ZM366.4 309.8c-2.4 0-4.3-1.9-4.4-4.3 0-2.5 2-4.5 4.5-4.4 2.4 0 4.3 2.1 4.3 4.4 0 2.4-2 4.3-4.4 4.3ZM299.9 376.2c-2.4 0-4.3-2-4.3-4.4 0-2.4 2-4.3 4.4-4.3 2.5 0 4.5 2.1 4.4 4.5-.1 2.4-2.1 4.2-4.5 4.2ZM222.4 365.1c-2.4 0-4.3-2-4.2-4.4 0-2.4 2.1-4.2 4.5-4.2s4.3 2.1 4.2 4.4c0 2.4-2.1 4.2-4.5 4.2ZM222.6 210.1c-2.4 0-4.4-2-4.3-4.3 0-2.4 2-4.3 4.4-4.3 2.4 0 4.3 1.9 4.3 4.3s-2 4.3-4.4 4.3ZM333.3 365.1c-2.4 0-4.4-1.9-4.4-4.3s1.9-4.3 4.3-4.3 4.4 1.9 4.4 4.3-1.9 4.3-4.3 4.3ZM355.3 343c-2.4 0-4.3-2-4.3-4.4 0-2.4 2-4.3 4.4-4.3 2.4 0 4.4 2 4.3 4.4 0 2.4-2 4.3-4.4 4.3ZM200.3 343c-2.4 0-4.3-2-4.3-4.4 0-2.4 2-4.3 4.4-4.2 2.4 0 4.3 2 4.3 4.4 0 2.4-2 4.3-4.5 4.2ZM211.4 354c-2.4 0-4.3-2-4.3-4.4 0-2.4 2-4.3 4.4-4.3 2.4 0 4.4 2 4.3 4.4 0 2.4-2 4.3-4.4 4.3ZM344.4 354c-2.4 0-4.4-1.8-4.4-4.3 0-2.4 1.9-4.3 4.3-4.4 2.4 0 4.4 1.9 4.4 4.3s-1.9 4.3-4.3 4.4ZM355.6 232.2c-2.4 0-4.4-1.9-4.4-4.2 0-2.4 1.9-4.3 4.3-4.4 2.4 0 4.4 1.9 4.4 4.2 0 2.4-1.9 4.3-4.3 4.4ZM200.4 232.2c-2.4 0-4.3-2.1-4.3-4.4 0-2.4 2.1-4.3 4.5-4.2 2.4 0 4.3 2 4.2 4.4 0 2.4-2 4.3-4.5 4.2ZM333.3 210.1c-2.4 0-4.4-2-4.3-4.3 0-2.4 2-4.3 4.4-4.3 2.4 0 4.3 1.9 4.3 4.3s-2 4.3-4.4 4.3ZM366.7 234.7c2.4 0 4.3 2 4.2 4.4 0 2.4-2.1 4.2-4.5 4.1-2.3 0-4.2-2.1-4.1-4.3 0-2.4 2-4.3 4.4-4.2ZM189.5 234.7c2.4 0 4.3 2 4.2 4.4 0 2.4-2.1 4.2-4.5 4.1-2.3 0-4.2-2.1-4.1-4.3 0-2.4 2-4.3 4.4-4.2ZM238 194.8c0 2.4-2.1 4.3-4.5 4.2-2.3 0-4.2-2-4.2-4.3 0-2.7 2.1-4.3 4.3-4.3 2.4 0 4.3 2 4.3 4.4ZM322.3 190.4c2.4 0 4.3 2 4.2 4.4 0 2.4-2.1 4.2-4.5 4.2-2.3 0-4.2-2-4.1-4.3 0-2.7 2.1-4.3 4.4-4.3ZM237.9 371.8c0 2.3-1.8 4.3-4.1 4.4-2.4.1-4.4-1.8-4.5-4.2 0-2.3 1.8-4.2 4.1-4.3 2.4 0 4.4 1.7 4.5 4.1ZM178.4 268c2.3 0 4.2 1.9 4.2 4.2 0 2.4-2 4.3-4.4 4.3-2.3 0-4.2-1.9-4.2-4.2 0-2.4 1.9-4.3 4.4-4.3ZM381.8 294.4c0 2.4-2.1 4.3-4.5 4.2-2.3 0-4.1-2.1-4.1-4.3 0-2.4 2-4.2 4.5-4.2 2.3 0 4.1 2 4.1 4.3ZM178.1 290.1c2.4 0 4.4 1.8 4.4 4.3 0 2.3-1.9 4.2-4.2 4.2-2.4 0-4.4-1.9-4.4-4.3 0-2.3 1.9-4.2 4.2-4.2ZM377.7 268c2.3 0 4.2 1.9 4.2 4.2 0 2.4-2 4.3-4.4 4.3-2.3 0-4.2-1.9-4.2-4.2 0-2.4 1.9-4.3 4.4-4.3ZM289 378.7c2.3 0 4.2 1.8 4.2 4.2 0 2.4-1.9 4.4-4.3 4.3-2.3 0-4.2-1.9-4.3-4.2 0-2.4 1.9-4.3 4.3-4.3ZM266.9 378.7c2.3 0 4.2 1.9 4.2 4.2 0 2.4-1.9 4.3-4.3 4.3-2.3 0-4.2-1.9-4.2-4.2 0-2.4 1.9-4.3 4.4-4.3ZM266.9 179.4c2.4 0 4.4 2 4.3 4.3 0 2.3-2 4.2-4.3 4.2-2.4 0-4.3-2-4.3-4.4 0-2.3 1.9-4.1 4.3-4.1ZM289.1 179.4c2.3 0 4.2 1.8 4.3 4.1 0 2.4-1.9 4.4-4.3 4.4s-4.3-2-4.3-4.4c0-2.3 1.9-4.1 4.3-4.1ZM322.2 367.6c2.3 0 4.2 1.9 4.2 4.2 0 2.4-1.9 4.3-4.3 4.3-2.3 0-4.2-1.9-4.2-4.2 0-2.4 1.9-4.3 4.3-4.3ZM366.5 323.3c2.3 0 4.2 1.9 4.2 4.2 0 2.4-2 4.3-4.3 4.3s-4.2-1.9-4.2-4.2c0-2.4 1.9-4.3 4.4-4.3ZM189.3 323.3c2.4 0 4.4 1.9 4.3 4.3 0 2.3-1.9 4.2-4.2 4.2-2.4 0-4.4-2-4.3-4.3 0-2.3 1.9-4.2 4.2-4.2ZM244.9 179.4c2.3 0 4.2 2 4.1 4.3 0 2.3-2 4.2-4.3 4.2-2.4 0-4.3-2-4.2-4.4 0-2.3 2-4.1 4.3-4ZM377.8 245.9c2.3 0 4.2 2.1 4.1 4.3 0 2.3-2 4.1-4.3 4.1-2.4 0-4.3-2.1-4.1-4.5.1-2.3 2-4.1 4.4-4ZM178.5 245.9c2.3 0 4.2 2 4.1 4.3 0 2.3-2 4.2-4.3 4.2-2.4 0-4.3-2-4.2-4.4 0-2.3 2-4.1 4.3-4ZM311.3 179.4c2.3 0 4.2 2 4.1 4.3 0 2.3-2 4.2-4.3 4.2-2.4 0-4.3-2-4.2-4.4 0-2.3 2-4.1 4.3-4ZM381.7 316.4c0 2.3-1.8 4.3-4.1 4.3s-4.2-1.8-4.3-4.1c0-2.3 1.8-4.2 4.1-4.3 2.3 0 4.2 1.7 4.3 4.1ZM248.8 383c0 2.3-1.9 4.2-4.2 4.2-2.3 0-4.2-2-4.2-4.3s1.9-4.2 4.3-4.1c2.3 0 4.1 1.9 4.1 4.2ZM178.3 320.7c-2.3 0-4.2-1.8-4.3-4.1 0-2.3 1.8-4.2 4.1-4.3 2.3 0 4.2 1.7 4.3 4.1 0 2.3-1.7 4.3-4.1 4.3ZM315.3 382.8c0 2.3-1.7 4.3-4.1 4.3-2.3 0-4.2-1.8-4.3-4.1 0-2.3 1.8-4.2 4.1-4.3 2.3 0 4.2 1.7 4.3 4.1ZM278 176.7c-2.3 0-4.2-2-4.1-4.3 0-2.3 1.9-4 4.2-4 2.2 0 4.1 1.8 4.1 4.1s-1.9 4.3-4.2 4.3ZM204.5 360.9c0 2.3-1.8 4.1-4.1 4.1s-4.3-1.9-4.2-4.2c0-2.3 2-4.2 4.3-4.1 2.3 0 4 1.9 4 4.2ZM370.7 216.8c0 2.3-1.9 4.3-4.2 4.3-2.2 0-4.1-1.8-4.1-4.1s1.7-4.1 3.9-4.2c2.3 0 4.3 1.7 4.4 4.1ZM207.4 194.6c0-2.3 1.8-4.1 4.1-4.1s4.2 1.9 4.2 4.2c0 2.2-1.9 4.1-4.1 4.1-2.3 0-4.2-1.9-4.2-4.3ZM359.5 360.8c0 2.3-1.8 4.1-4 4.2-2.3 0-4.3-1.9-4.3-4.2 0-2.3 1.9-4.2 4.3-4.1 2.3 0 4 1.9 4 4.2ZM344.3 190.5c2.3 0 4.3 1.9 4.3 4.2 0 2.2-1.9 4.1-4.1 4.2-2.2 0-4.1-1.7-4.2-4 0-2.4 1.7-4.3 4-4.4ZM200.6 201.6c2.2 0 4.1 1.9 4 4.2 0 2.3-2 4.2-4.3 4.2s-4.1-2-4-4.4c.1-2.3 2-4 4.2-3.9ZM359.7 205.7c0 2.3-1.9 4.3-4.2 4.3-2.2 0-4.1-1.8-4.1-4.1s1.7-4.1 3.9-4.2c2.3 0 4.3 1.7 4.4 4.1ZM193.6 216.9c0 2.3-2 4.2-4.3 4.2-2.2 0-4-1.9-4-4.2 0-2.4 1.9-4.2 4.3-4.1 2.2 0 4 1.9 4 4.2ZM282 393.9c0 2.3-1.7 4.1-3.9 4.2-2.3.1-4.3-1.8-4.3-4.2 0-2.3 1.8-4.1 4.1-4.1 2.2 0 4.1 1.8 4.1 4ZM388.5 279.2c2.2 0 4.1 1.7 4.2 4 0 2.4-1.8 4.3-4.1 4.3-2.2 0-4.1-1.8-4.1-4.1s1.8-4.1 4-4.2ZM304.2 172.5c0 2.3-1.7 4.1-4 4.2-2.2 0-4.1-1.7-4.2-4 0-2.4 1.7-4.3 4.1-4.3 2.3 0 4.1 1.8 4.1 4.1ZM392.7 305.5c0 2.2-1.9 4.1-4.1 4-2.2 0-4-1.9-4.1-4.1 0-2.4 1.9-4.2 4.3-4.1 2.2 0 4 2 3.9 4.2ZM348.4 371.9c0 2.3-1.8 4.1-4 4.1-2.3 0-4.2-1.9-4.1-4.3 0-2.3 1.9-4 4.2-4 2.2 0 4 1.9 4 4.1ZM226.7 183.6c0 2.3-1.8 4.1-4 4.2-2.3 0-4.2-1.9-4.2-4.2 0-2.3 1.9-4.1 4.1-4 2.2 0 4.1 1.9 4.1 4.1ZM215.5 371.9c0 2.3-1.8 4.1-4.1 4.1-2.2 0-4.1-1.8-4.1-4.1s1.9-4.3 4.2-4.2c2.2 0 4 1.9 4 4.2ZM333.3 179.5c2.2 0 4.1 1.8 4.2 4 0 2.3-1.8 4.3-4.1 4.3-2.2 0-4-1.9-4-4.1 0-2.3 1.8-4.1 4-4.1ZM171.3 305.5c0 2.3-1.8 4.1-4.1 4.1-2.2 0-4.1-1.8-4.1-4.1s1.9-4.3 4.2-4.2c2.2 0 4 1.9 4 4.2ZM392.8 261.1c0 2.3-1.8 4.1-4 4.2-2.3 0-4.2-1.9-4.2-4.2 0-2.3 1.9-4.1 4.1-4 2.2 0 4.1 1.8 4.1 4.1ZM167.3 257c2.2 0 4.1 1.8 4.1 4.1s-1.9 4.3-4.2 4.2c-2.2 0-4-1.9-4-4.2 0-2.3 1.9-4.1 4.1-4.1ZM259.9 172.6c0 2.3-1.9 4.1-4.1 4-2.3 0-4.1-2-4-4.4 0-2.2 2-4 4.2-3.9 2.2 0 4 2 3.9 4.2ZM189.4 345.6c2.2 0 4 1.9 4 4.2 0 2.3-1.8 4.1-4.1 4.1s-4.2-1.9-4.1-4.3c0-2.3 1.9-4 4.2-4ZM366.4 353.9c-2.2 0-4-1.9-4-4.2 0-2.3 2-4.2 4.3-4.1 2.2.1 4 2 3.9 4.3 0 2.2-2 4.1-4.2 4ZM167.4 279.2c2.2 0 4 1.9 4 4.2 0 2.3-1.9 4.1-4.1 4.1-2.3 0-4.2-1.9-4.1-4.3 0-2.3 2-4 4.2-4ZM259.8 394c0 2.3-1.8 4.1-4.1 4.1-2.2 0-4.1-1.8-4.1-4.1s1.8-4.1 4-4.1 4.1 1.8 4.1 4.1ZM304.1 394c0 2.3-1.8 4.1-4 4.2-2.2 0-4.1-1.8-4.1-4 0-2.3 1.8-4.1 4-4.2 2.2 0 4.1 1.8 4.1 4ZM377.6 223.8c2.2 0 4.1 1.8 4.1 4.1s-1.8 4.1-4.1 4.1c-2.2 0-4.1-1.8-4.1-4.1s1.8-4.1 4.1-4.1ZM222.4 387.1c-2.3-.1-4-2-3.9-4.3 0-2.3 2-4 4.2-4s4 2 3.9 4.3c0 2.2-2 4.1-4.2 4ZM182.3 338.5c0 2.3-1.7 4.1-4 4.2-2.2 0-4.1-1.8-4.2-4 0-2.3 1.7-4.1 4-4.2 2.2 0 4.1 1.8 4.2 4ZM178.2 232c-2.2 0-4-1.9-4-4.2 0-2.2 1.9-4.1 4.2-4 2.2 0 4 1.9 4 4.2 0 2.3-1.9 4.1-4.1 4ZM377.4 334.5c2.2 0 4.1 1.7 4.2 4 0 2.3-1.7 4.1-4 4.2-2.2 0-4.1-1.7-4.2-4 0-2.3 1.7-4.1 3.9-4.2ZM333.3 387.1c-2.2 0-4.1-1.8-4.1-4 0-2.3 1.7-4.1 4-4.2 2.2 0 4.1 1.8 4.1 4 0 2.3-1.7 4.1-4 4.2ZM233.6 176.6c-2.3 0-4-1.9-4-4.2 0-2.1 1.9-3.9 4-3.9 2.2 0 4.1 1.8 4.1 4.1s-1.8 4.1-4.1 4ZM322.3 168.5c2.2 0 4 1.9 4 4.2 0 2.3-1.9 4-4.2 3.9-2.2-.1-3.9-1.9-3.9-4.1 0-2.2 1.9-4.1 4.1-4.1ZM388.7 243c-2.2 0-4.1-1.8-4.1-4.1 0-2.2 1.8-4 3.9-4 2.2 0 4.1 1.7 4.2 4 0 2.3-1.7 4.1-4 4.1ZM171.3 239.1c0 2.3-1.9 4-4.2 3.9-2.2 0-3.9-1.9-3.9-4.1 0-2.2 1.9-4.1 4.1-4.1 2.2 0 4 1.9 4 4.2ZM293 161.4c0 2.3-1.8 4-4.1 4-2.2 0-3.9-1.8-3.9-4s1.9-4.1 4.1-4c2.2 0 3.9 1.8 3.9 4ZM237.6 394c0 2.2-1.7 3.9-3.9 4-2.3 0-4.1-1.7-4.1-4s1.9-4.1 4.1-4c2.1 0 3.9 1.9 3.9 4ZM270.9 161.5c0 2.3-1.9 4-4.2 3.9-2.2 0-3.9-1.9-3.8-4 0-2.1 1.8-3.9 4-4 2.2 0 4.1 1.8 4 4.1ZM326.2 393.9c0 2.2-1.6 4-3.8 4.1-2.3 0-4.1-1.6-4.2-3.9 0-2.3 1.8-4.1 4-4.1 2.1 0 3.9 1.8 4 3.9ZM167.1 331.6c-2.3 0-4-1.9-3.9-4.2 0-2.2 1.9-3.9 4.1-3.8 2.2 0 4 2 3.9 4.2-.1 2.2-1.9 3.8-4.1 3.8ZM388.5 323.5c2.1 0 4 1.7 4.1 3.8.1 2.3-1.6 4.1-3.9 4.2-2.2 0-4-1.6-4.1-3.8 0-2.3 1.6-4.2 3.9-4.2ZM262.9 404.8c.1-2.1 2.1-3.8 4.2-3.7 2.2.2 3.8 2 3.7 4.2-.1 2.2-2 3.9-4.3 3.7-2.2-.2-3.7-2-3.6-4.2ZM399.7 276.1c-2.2 0-3.9-1.8-3.9-3.9 0-2.1 1.8-4 3.9-4 2.2 0 4.1 1.8 4 4.1 0 2.2-1.8 3.9-4 3.8ZM156.3 268.2c2.2 0 3.9 1.9 3.9 4 0 2.3-1.8 4-4.2 3.9-2.2 0-3.9-1.9-3.8-4.1 0-2.1 2-3.9 4.1-3.8ZM160.1 294.5c0 2.2-1.8 3.9-4 3.8-2.3 0-4-1.8-3.9-4.2 0-2.1 2-3.9 4.1-3.8 2.1.1 3.9 2 3.8 4.1ZM193.4 194.7c0 2.2-1.7 3.9-3.9 3.9s-4-1.7-4-3.9 1.9-4.1 4.1-4.1c2.2 0 3.9 1.8 3.9 4ZM399.7 298.3c-2.2 0-3.9-1.7-4-3.9 0-2.3 1.8-4.1 4-4.1 2.1 0 3.9 1.9 3.9 4 0 2.2-1.8 3.9-4 3.9ZM366.6 198.6c-2.2 0-4-1.6-4.1-3.8 0-2.2 1.8-4.1 4-4.1s3.9 1.8 3.9 4-1.7 3.9-3.9 4ZM289 409c-2.2 0-3.9-1.7-4-3.8 0-2.3 1.8-4.1 4-4.1 2.1 0 3.9 1.9 3.9 4 0 2.2-1.8 3.9-4 3.9ZM403.7 250c0 2.2-1.6 4-3.8 4-2.2 0-4-1.6-4.1-3.8 0-2.1 1.7-4 3.9-4s4 1.7 4 3.8ZM366.5 375.8c-2.2 0-4-1.7-4-3.8 0-2.2 1.7-3.9 3.9-4 2.1 0 4 1.7 4 3.9 0 2.1-1.7 3.9-3.9 4ZM182.3 205.8c0 2.2-1.7 3.9-3.9 3.9s-4-1.8-3.9-3.9c0-2.1 1.8-3.9 4-3.9s3.9 1.8 3.9 3.9ZM403.6 316.5c0 2.2-1.8 3.9-4 3.9s-3.9-1.7-3.9-3.9 1.8-3.9 4-3.9c2.1 0 3.9 1.8 3.9 4ZM204.3 383.1c0 2.2-1.9 3.8-4.1 3.8-2.2 0-3.9-1.8-3.8-4 0-2.2 1.9-3.9 4-3.8 2.1 0 3.9 1.9 3.9 4ZM359.3 382.9c0 2.1-1.7 3.9-3.9 4-2.2 0-4-1.7-4-3.8 0-2.2 1.7-4 3.9-4 2.1 0 4 1.7 4 3.9ZM196.5 183.3c.2-2.2 2.1-3.8 4.2-3.6 2.2.2 3.8 2 3.6 4.2-.2 2.2-2.1 3.8-4.4 3.6-2-.2-3.6-2.1-3.4-4.2ZM311.1 157.5c2.2 0 4 1.7 4 3.9s-1.7 3.9-3.9 4c-2.2 0-4-1.7-4-3.8 0-2.1 1.8-4 3.9-4ZM156.3 312.6c2.1.1 3.9 2 3.7 4.1-.1 2.2-2 3.8-4.2 3.7-2.2 0-3.8-1.9-3.7-4.1.1-2.2 2-3.8 4.1-3.7ZM160.1 250.1c0 2.2-1.7 3.9-3.9 3.9s-4-1.8-3.9-3.9c0-2.1 1.8-3.9 4-3.9s3.9 1.8 3.9 3.9ZM377.6 201.8c2.2 0 4 1.7 4 3.8 0 2.2-1.7 3.9-3.8 4-2.2 0-4-1.7-4-3.8 0-2.1 1.7-4 3.9-4ZM248.7 161.4c0 2.2-1.6 4-3.8 4-2.2 0-4-1.6-4.1-3.8 0-2.1 1.7-4 3.9-4s4 1.7 4 3.8ZM248.6 405c0 2.1-1.7 4-3.8 4-2.2 0-4-1.6-4-3.8 0-2.2 1.6-4 3.8-4 2.1 0 4 1.7 4.1 3.8ZM381.5 360.8c0 2.1-1.8 3.9-4 3.9s-3.9-1.7-3.9-3.9 1.8-3.9 3.9-3.9c2.1 0 4 1.8 3.9 3.9ZM311.1 401.2c2.1 0 4 1.8 3.9 3.9 0 2.1-1.8 3.9-4 3.9s-3.9-1.7-3.9-3.9 1.8-3.9 3.9-3.9ZM355.6 187.5c-2.2 0-4-1.6-4.1-3.8 0-2.1 1.7-4 3.8-4 2.2 0 4 1.7 4 3.8 0 2.2-1.6 4-3.8 4ZM189.3 367.9c2.1 0 4 1.8 4 3.9 0 2.1-1.8 3.9-3.9 3.9-2.2 0-3.9-1.7-3.9-3.9s1.7-3.9 3.9-3.9ZM182.2 360.8c0 2.2-1.8 3.9-4 3.9s-3.9-1.7-3.9-3.9 1.8-3.9 4-3.9c2.1 0 3.9 1.8 3.9 4ZM392.5 349.7c0 2.1-1.8 3.9-4 3.9s-3.9-1.8-3.8-4c0-2.1 1.7-3.7 3.8-3.8 2.2 0 4 1.7 4 3.9ZM211.6 397.9c-2.2 0-4-1.7-4-3.8 0-2.2 1.7-3.9 3.9-3.9 2.1 0 3.8 1.6 3.9 3.7.1 2.1-1.6 4-3.8 4ZM388.8 220.7c-2.2 0-4-1.7-4-3.9 0-2.1 1.7-3.8 3.8-3.9 2.2 0 4 1.6 4.1 3.8 0 2.2-1.7 3.9-3.8 4ZM211.7 168.7c2.2 0 3.9 1.9 3.8 4 0 2.2-1.9 3.8-4.1 3.7-2.1 0-3.7-1.9-3.7-3.9 0-2.1 1.8-3.9 4-3.8ZM348.3 172.5c0 2.2-1.7 3.9-3.9 3.9s-3.9-1.8-3.9-3.9c0-2.1 1.7-3.8 3.8-3.8 2.2 0 4 1.7 4 3.8ZM171.2 216.8c0 2.2-1.8 3.9-4 3.9s-3.9-1.9-3.9-4 1.8-3.7 3.9-3.7c2.2 0 4 1.7 4 3.9ZM348.2 394.1c0 2.2-1.9 3.8-4.1 3.8-2.2 0-3.9-1.9-3.8-4.1.1-2.1 1.8-3.7 3.9-3.7 2.2 0 4 1.8 3.9 3.9ZM171.1 349.8c0 2.2-1.9 3.9-4.1 3.8-2.2 0-3.9-1.9-3.8-4.1.1-2.1 1.8-3.7 3.9-3.7 2.2 0 4 1.8 3.9 3.9ZM414.6 283.4c0 2.2-1.9 3.9-4.1 3.8-2.1 0-3.7-1.9-3.7-3.9 0-2.2 1.9-3.8 4.1-3.7 2.1 0 3.7 1.8 3.7 3.9ZM149 283.3c0 2.1-1.9 3.9-4 3.8-2.1 0-3.8-1.8-3.7-3.9 0-2.2 1.8-3.9 4-3.8 2.1 0 3.7 1.8 3.7 3.9ZM281.9 150.3c0 2-1.6 3.8-3.7 3.9-2.2 0-4-1.6-4.1-3.8 0-2.1 1.6-3.8 3.7-3.9 2.2 0 4 1.6 4.1 3.7ZM226.5 161.4c0 2-1.6 3.8-3.7 3.9-2.2.1-4-1.6-4.1-3.7 0-2 1.6-3.8 3.7-3.9 2.2 0 4 1.6 4.1 3.7ZM333.4 165.3c-2.2 0-4-1.8-3.9-3.9 0-2.1 1.8-3.7 3.8-3.7 2.2 0 4 1.8 3.9 3.9 0 2.1-1.8 3.7-3.8 3.8ZM255.9 154.2c-2.1 0-3.8-1.6-3.9-3.7 0-2.1 1.5-3.8 3.6-3.9 2.2 0 4 1.6 4 3.7 0 2-1.7 3.8-3.7 3.9ZM410.8 301.6c2.1 0 3.7 1.7 3.7 3.8 0 2.1-1.7 3.8-3.8 3.8-2.1 0-3.9-1.8-3.9-3.9 0-2.1 1.8-3.7 3.9-3.6ZM414.7 261.2c0 2.1-1.8 3.7-3.9 3.7-2.2 0-3.9-1.9-3.8-4 .1-2.1 1.8-3.6 4-3.6 2.1 0 3.7 1.8 3.7 3.9ZM403.6 227.8c0 2-1.6 3.8-3.7 3.9-2.1 0-3.8-1.5-4-3.6-.1-2.2 1.6-4 3.8-4 2.1 0 3.8 1.6 3.9 3.7ZM333.2 408.9c-2.1 0-3.8-1.7-3.8-3.7 0-2.1 1.8-3.9 3.9-3.8 2.1 0 3.7 1.7 3.7 3.8 0 2.1-1.7 3.8-3.8 3.8ZM300.2 154.2c-2.1 0-3.8-1.6-3.9-3.7 0-2.1 1.5-3.8 3.6-3.9 2.2 0 4 1.6 4 3.7 0 2-1.7 3.8-3.7 3.9ZM226.3 405c0 2.1-1.6 3.8-3.7 3.9-2.1 0-4-1.7-4-3.9 0-2.1 1.7-3.7 3.8-3.7 2.1 0 3.8 1.6 3.8 3.7ZM145.1 301.6c2.1 0 3.8 1.7 3.7 3.8 0 2.1-1.7 3.8-3.8 3.8-2.1 0-3.9-1.8-3.9-3.9 0-2.1 1.8-3.7 3.9-3.7ZM145 257.4c2.1 0 3.8 1.6 3.9 3.6 0 2.1-1.7 4-3.9 4-2.1 0-3.8-1.7-3.8-3.8 0-2.1 1.6-3.8 3.7-3.8ZM255.8 420c-2.1 0-3.8-1.7-3.9-3.7 0-2.1 1.7-3.9 3.9-3.9 2.1 0 3.8 1.7 3.7 3.8 0 2.1-1.7 3.8-3.8 3.8ZM281.7 416.1c0 2.1-1.6 3.8-3.7 3.9-2.1 0-4-1.7-4-3.8 0-2.1 1.7-3.7 3.8-3.8 2.1 0 3.8 1.6 3.8 3.7ZM156.1 231.7c-2.1 0-3.7-1.8-3.7-3.8 0-2.2 1.8-3.8 4-3.7 2.1 0 3.7 1.9 3.6 3.9-.1 2.1-1.9 3.7-3.9 3.7ZM300 412.4c2.1 0 3.8 1.6 3.8 3.7s-1.6 3.8-3.7 3.9c-2.1 0-4-1.7-3.9-3.9 0-2.1 1.7-3.7 3.8-3.7ZM159.9 338.6c0 2.1-1.6 3.8-3.7 3.9-2.1 0-4-1.7-4-3.8 0-2.1 1.7-3.7 3.8-3.8 2.1 0 3.8 1.6 3.8 3.7ZM399.7 334.9c2.1 0 3.8 1.7 3.8 3.7 0 2.1-1.6 3.8-3.7 3.8s-4-1.8-3.9-3.9c0-2.1 1.8-3.7 3.9-3.7ZM414.6 238.9c0 2.1-1.7 3.8-3.8 3.8-2 0-3.6-1.7-3.7-3.7 0-2.1 1.5-3.7 3.5-3.8 2.1 0 3.9 1.6 3.9 3.7ZM145.1 242.7c-2.1 0-3.7-1.8-3.7-3.9 0-2 1.7-3.6 3.7-3.6s3.7 1.7 3.7 3.7c0 2.1-1.7 3.8-3.8 3.8ZM237.4 150.4c0 2.1-1.8 3.8-3.8 3.8-2 0-3.6-1.7-3.6-3.7 0-2.1 1.5-3.7 3.6-3.7s3.9 1.6 3.9 3.7ZM377.5 386.7c-2.1 0-3.8-1.8-3.7-3.9 0-2 1.7-3.6 3.7-3.6 2.1 0 3.8 1.7 3.7 3.8 0 2-1.7 3.6-3.7 3.6ZM410.7 323.9c2 0 3.7 1.5 3.7 3.6s-1.6 3.9-3.7 3.9-3.8-1.8-3.8-3.8c0-2 1.7-3.6 3.7-3.7ZM148.7 327.6c0 2-1.6 3.7-3.6 3.8-2 0-3.9-1.7-3.9-3.7 0-2.1 1.7-3.8 3.9-3.7 2 0 3.6 1.7 3.6 3.7ZM325.9 416.1c0 2.1-1.7 3.8-3.8 3.8-2 0-3.6-1.7-3.7-3.7 0-2.1 1.7-3.8 3.8-3.8 2 0 3.6 1.6 3.6 3.7ZM366.6 168.8c2 0 3.7 1.7 3.7 3.7 0 2.1-1.8 3.8-3.8 3.8-2.1 0-3.7-1.8-3.6-3.9 0-2 1.7-3.6 3.8-3.6ZM178.3 379.2c2.1 0 3.7 1.7 3.6 3.9 0 2-1.8 3.6-3.8 3.6-2 0-3.7-1.7-3.7-3.7 0-2.1 1.7-3.8 3.8-3.8ZM326 150.3c0 2.1-1.8 3.8-3.8 3.8-2 0-3.6-1.7-3.6-3.7 0-2.1 1.5-3.7 3.5-3.8 2.1 0 3.9 1.6 3.9 3.7ZM189.5 168.8c2 0 3.6 1.7 3.6 3.7 0 2.1-1.8 3.8-3.8 3.8-2.1 0-3.7-1.8-3.6-4 0-2 1.8-3.6 3.8-3.5ZM182.1 183.7c0 2.1-1.9 3.8-3.9 3.7-2-.1-3.6-1.8-3.5-3.8 0-2.1 1.7-3.7 3.9-3.7 2 0 3.6 1.8 3.6 3.8ZM377.8 179.9c2 0 3.6 1.7 3.6 3.7 0 2.1-1.8 3.8-3.9 3.7-2.1 0-3.7-1.8-3.6-4 .1-2 1.8-3.6 3.8-3.5ZM237.3 416.1c0 2.1-1.7 3.8-3.8 3.8-2 0-3.6-1.7-3.7-3.7 0-2.1 1.7-3.8 3.8-3.8 2 0 3.6 1.6 3.6 3.7ZM392.5 194.7c0 2.1-1.9 3.8-3.9 3.7-2-.1-3.6-1.8-3.5-3.8 0-2.1 1.7-3.8 3.9-3.7 2 0 3.6 1.8 3.6 3.8ZM171 194.7c0 2.1-1.8 3.8-3.9 3.7-2 0-3.6-1.7-3.6-3.8 0-2.1 1.7-3.8 3.8-3.7 2 0 3.6 1.7 3.6 3.7ZM137.7 272.3c0 2-1.7 3.7-3.7 3.7-2.1 0-3.7-1.8-3.7-3.9 0-2 1.8-3.6 3.8-3.5 2 0 3.6 1.7 3.6 3.8ZM359.2 161.5c0 2-1.6 3.7-3.6 3.7-2.1 0-3.8-1.7-3.7-3.8 0-2 1.7-3.6 3.7-3.6s3.6 1.7 3.6 3.7ZM388.8 368.2c2 .1 3.5 1.8 3.4 3.9 0 2-1.8 3.6-3.8 3.6-2.1 0-3.7-1.9-3.6-4 .1-2 1.9-3.5 3.9-3.4ZM170.8 371.9c0 2-1.7 3.7-3.7 3.7s-3.6-1.7-3.7-3.7c0-2.1 1.7-3.8 3.8-3.8 2 0 3.6 1.7 3.6 3.7ZM159.9 205.8c0 2-1.7 3.7-3.7 3.7-2.1 0-3.7-1.8-3.7-3.9 0-2 1.8-3.6 3.8-3.5 2 0 3.6 1.7 3.6 3.8ZM366.6 397.7c-2 0-3.7-1.6-3.8-3.6 0-2 1.5-3.7 3.5-3.8 2.1-.1 3.8 1.5 3.9 3.6 0 2-1.6 3.7-3.6 3.8ZM421.7 275.9c-2 0-3.6-1.8-3.5-3.8 0-2.1 1.8-3.8 3.9-3.6 2 .1 3.5 1.8 3.4 3.9 0 2-1.8 3.6-3.8 3.5ZM403.5 205.8c0 2-1.7 3.7-3.7 3.7-2.1 0-3.7-1.7-3.7-3.9 0-2 1.7-3.6 3.8-3.5 2 0 3.6 1.7 3.6 3.7ZM421.9 298.1c-2 0-3.7-1.5-3.8-3.6 0-2 1.4-3.7 3.5-3.8 2.1-.1 3.9 1.5 3.9 3.6 0 2-1.6 3.7-3.6 3.8ZM137.6 294.3c0 2-1.6 3.7-3.6 3.8-2.1 0-3.8-1.7-3.8-3.8 0-2 1.7-3.6 3.7-3.6s3.6 1.6 3.6 3.7ZM292.7 139.4c0 2-1.7 3.6-3.7 3.6-2.1 0-3.7-1.8-3.6-3.9 0-2 1.8-3.6 3.8-3.5 2 0 3.6 1.8 3.5 3.8ZM270.6 139.4c0 2-1.7 3.7-3.7 3.7-2.1 0-3.7-1.8-3.6-3.9 0-2 1.8-3.6 3.8-3.5 2 0 3.6 1.7 3.6 3.8ZM189.4 397.7c-2 0-3.7-1.6-3.7-3.6s1.5-3.7 3.5-3.8c2.1 0 3.8 1.6 3.8 3.7 0 2-1.6 3.7-3.6 3.7ZM200.6 157.8c2 0 3.6 1.7 3.6 3.7s-1.6 3.7-3.6 3.7c-2.1 0-3.8-1.7-3.7-3.8 0-2 1.7-3.6 3.7-3.6ZM359 405.1c0 2-1.6 3.7-3.6 3.7s-3.6-1.6-3.7-3.6c0-2 1.6-3.7 3.6-3.7s3.7 1.6 3.7 3.6ZM204 405.1c0 2-1.7 3.7-3.7 3.6-2 0-3.6-1.7-3.6-3.7s1.6-3.7 3.6-3.6c2 0 3.6 1.7 3.6 3.7ZM314.8 139.3c0 2-1.6 3.7-3.6 3.7s-3.6-1.6-3.7-3.6c0-2 1.6-3.7 3.6-3.7s3.6 1.6 3.6 3.6ZM266.7 430.9c-2 0-3.6-1.7-3.5-3.8 0-2 1.7-3.6 3.7-3.6s3.6 1.7 3.5 3.7c0 2-1.7 3.7-3.7 3.6ZM285.3 426.9c.1-2 1.9-3.5 3.9-3.3 2 .2 3.5 1.9 3.3 4-.1 2-2 3.6-3.9 3.3-2-.2-3.5-1.9-3.3-4ZM159.7 360.7c0 2-1.6 3.7-3.5 3.8-2 0-3.7-1.6-3.7-3.6s1.5-3.7 3.5-3.7 3.7 1.6 3.7 3.6ZM403.3 360.8c0 2-1.7 3.7-3.6 3.7-2 0-3.6-1.7-3.6-3.7s1.6-3.7 3.6-3.7 3.6 1.7 3.6 3.7ZM244.7 143c-2 0-3.6-1.8-3.5-3.8 0-2 1.7-3.6 3.7-3.6s3.6 1.7 3.5 3.8c0 2-1.7 3.6-3.7 3.6ZM421.9 246.4c2 0 3.6 1.7 3.6 3.7s-1.7 3.6-3.7 3.6c-1.9 0-3.5-1.6-3.5-3.6s1.6-3.7 3.6-3.7ZM425.4 316.5c0 2-1.7 3.7-3.7 3.6-1.9 0-3.5-1.6-3.5-3.5 0-2 1.5-3.7 3.5-3.7s3.7 1.6 3.6 3.6ZM137.5 316.5c0 2-1.6 3.7-3.6 3.6-1.9 0-3.5-1.5-3.6-3.5 0-2 1.5-3.7 3.5-3.8 2 0 3.7 1.6 3.7 3.6ZM211.6 146.8c2 0 3.6 1.7 3.5 3.8 0 2-1.8 3.6-3.8 3.5-1.9-.1-3.4-1.7-3.4-3.6 0-2 1.7-3.7 3.7-3.6ZM215 416.1c0 2-1.6 3.7-3.6 3.7-1.9 0-3.5-1.5-3.6-3.4 0-2 1.4-3.7 3.4-3.8 2 0 3.7 1.5 3.7 3.5ZM145.1 213.2c2 0 3.6 1.6 3.6 3.6s-1.6 3.6-3.6 3.6c-1.9 0-3.5-1.6-3.5-3.5 0-2 1.6-3.7 3.5-3.7ZM410.8 220.4c-2 0-3.6-1.7-3.5-3.7 0-1.9 1.7-3.5 3.6-3.5 2 0 3.6 1.6 3.6 3.6s-1.6 3.6-3.7 3.6ZM344.4 154c-2 0-3.6-1.7-3.6-3.7 0-1.9 1.6-3.5 3.5-3.6 2 0 3.7 1.5 3.7 3.6 0 2-1.5 3.7-3.6 3.7ZM244.6 423.6c2 0 3.7 1.6 3.6 3.6 0 1.9-1.5 3.5-3.4 3.6-2 0-3.7-1.5-3.7-3.5s1.5-3.7 3.5-3.7ZM314.7 427.2c0 2-1.6 3.7-3.6 3.7-1.9 0-3.5-1.5-3.6-3.4 0-2 1.4-3.7 3.4-3.8 2 0 3.7 1.5 3.7 3.5ZM148.6 349.7c0 2-1.7 3.6-3.7 3.6s-3.6-1.7-3.5-3.7c0-1.9 1.6-3.5 3.5-3.5 2 0 3.6 1.7 3.6 3.7ZM410.9 346.1c2 .1 3.5 1.9 3.4 3.9-.1 2-1.9 3.5-3.9 3.3-2-.2-3.4-1.9-3.2-4 .2-1.9 1.9-3.4 3.8-3.3ZM344.3 412.5c2 0 3.6 1.7 3.6 3.7 0 1.9-1.6 3.5-3.5 3.5-2 0-3.7-1.5-3.7-3.6 0-2 1.6-3.7 3.6-3.7ZM137.6 250.1c0 2-1.7 3.6-3.7 3.5-1.9 0-3.5-1.7-3.5-3.6 0-2 1.6-3.7 3.6-3.7s3.6 1.7 3.6 3.7ZM432.9 279.7c1.9 0 3.5 1.7 3.5 3.6 0 1.9-1.6 3.5-3.6 3.4-2 0-3.5-1.6-3.5-3.5s1.6-3.5 3.6-3.5ZM421.9 342.1c-2 0-3.5-1.5-3.6-3.4 0-1.9 1.5-3.6 3.4-3.6s3.6 1.6 3.6 3.5-1.5 3.5-3.5 3.5ZM130.4 338.3c.1-1.9 1.9-3.4 3.8-3.2 1.9.2 3.4 2 3.2 3.8-.2 1.9-1.8 3.3-3.8 3.2-1.9-.1-3.3-1.8-3.2-3.8ZM222.6 423.7c1.9 0 3.5 1.7 3.5 3.6 0 1.9-1.6 3.5-3.6 3.4-2 0-3.5-1.6-3.5-3.5s1.6-3.5 3.6-3.5ZM137.6 227.8c0 2-1.4 3.5-3.4 3.6-2 0-3.6-1.5-3.6-3.4s1.5-3.6 3.4-3.6 3.6 1.5 3.6 3.4ZM333.4 142.8c-2 0-3.6-1.5-3.6-3.4s1.6-3.6 3.5-3.6 3.5 1.5 3.6 3.5c0 2-1.5 3.5-3.5 3.5ZM170.8 172.4c0 2-1.4 3.5-3.4 3.6-2 0-3.6-1.5-3.6-3.4s1.5-3.6 3.4-3.6 3.6 1.5 3.6 3.4ZM300.2 131.7c-2 0-3.6-1.5-3.6-3.4s1.5-3.6 3.5-3.6c1.9 0 3.6 1.5 3.6 3.4 0 2-1.4 3.5-3.4 3.6ZM421.9 231.4c-2 0-3.5-1.6-3.5-3.5s1.6-3.5 3.5-3.5 3.5 1.6 3.5 3.5c0 2-1.5 3.5-3.5 3.5ZM259.4 128.2c0 2-1.5 3.5-3.5 3.5s-3.5-1.6-3.5-3.5 1.7-3.5 3.5-3.5c1.9 0 3.5 1.6 3.5 3.5ZM281.5 128.3c0 2-1.6 3.5-3.6 3.4-2 0-3.5-1.6-3.5-3.6 0-1.9 1.7-3.5 3.6-3.5 1.9 0 3.5 1.7 3.4 3.6ZM333.3 430.7c-2 0-3.5-1.5-3.6-3.4 0-1.9 1.5-3.6 3.4-3.6s3.6 1.6 3.6 3.5-1.5 3.5-3.5 3.5ZM126.5 283.2c0 2-1.5 3.5-3.5 3.5s-3.6-1.5-3.6-3.5c0-1.9 1.6-3.6 3.5-3.6s3.5 1.6 3.5 3.5ZM222.7 135.8c1.9 0 3.4 1.7 3.4 3.7s-1.6 3.4-3.6 3.4c-1.9 0-3.5-1.7-3.4-3.6 0-1.9 1.8-3.5 3.7-3.4ZM392.2 172.6c0 2-1.6 3.5-3.6 3.5s-3.5-1.6-3.5-3.5 1.7-3.5 3.6-3.5c1.9 0 3.5 1.6 3.5 3.6ZM403.2 382.9c0 1.9-1.5 3.5-3.5 3.5-1.9 0-3.4-1.4-3.5-3.2-.1-1.9 1.4-3.6 3.3-3.7 1.9 0 3.6 1.4 3.7 3.4ZM381 405.1c0 1.9-1.6 3.5-3.6 3.4-2 0-3.5-1.6-3.4-3.6 0-1.8 1.6-3.3 3.4-3.3 1.9 0 3.6 1.6 3.5 3.5ZM281.4 438.2c0 1.9-1.5 3.5-3.5 3.6-1.9 0-3.4-1.4-3.5-3.2-.1-1.9 1.4-3.6 3.3-3.7 1.9 0 3.6 1.4 3.7 3.4ZM432.8 302c1.9 0 3.6 1.6 3.6 3.5 0 1.8-1.5 3.4-3.3 3.5-2 0-3.6-1.4-3.6-3.3s1.5-3.5 3.4-3.6ZM392.1 394c0 1.9-1.6 3.5-3.6 3.4-2 0-3.5-1.6-3.4-3.6 0-1.8 1.6-3.3 3.4-3.3 1.9 0 3.6 1.6 3.5 3.5ZM122.8 302c1.9 0 3.6 1.5 3.6 3.4 0 1.8-1.5 3.4-3.3 3.5-2 0-3.6-1.4-3.7-3.3 0-1.9 1.4-3.6 3.4-3.6ZM167.2 390.6c1.9 0 3.5 1.7 3.4 3.6 0 1.9-1.7 3.4-3.7 3.3-1.9 0-3.3-1.6-3.3-3.5s1.6-3.5 3.6-3.4ZM189.3 146.9c1.9 0 3.5 1.5 3.6 3.5 0 2-1.5 3.5-3.5 3.5-1.9 0-3.4-1.5-3.5-3.3 0-1.9 1.5-3.6 3.4-3.6ZM436.5 261.2c0 2-1.6 3.4-3.6 3.4-1.9 0-3.4-1.5-3.4-3.4s1.6-3.5 3.5-3.5 3.5 1.6 3.5 3.5ZM381.1 161.5c0 1.9-1.6 3.4-3.6 3.4-1.9 0-3.4-1.6-3.4-3.4 0-1.9 1.6-3.5 3.5-3.5s3.5 1.6 3.5 3.5ZM181.8 161.6c0 1.9-1.7 3.4-3.6 3.3-1.8 0-3.3-1.6-3.4-3.4 0-1.9 1.6-3.5 3.5-3.5s3.5 1.6 3.4 3.6ZM123 257.7c1.9 0 3.5 1.7 3.4 3.6 0 1.9-1.7 3.4-3.7 3.3-1.8 0-3.3-1.6-3.3-3.5s1.7-3.5 3.6-3.5ZM159.7 183.7c0 1.9-1.6 3.4-3.6 3.4-1.9 0-3.4-1.6-3.4-3.4 0-1.9 1.6-3.5 3.5-3.5s3.5 1.6 3.5 3.5ZM403.3 183.7c0 2-1.6 3.4-3.6 3.4-1.9 0-3.4-1.5-3.4-3.4s1.6-3.5 3.5-3.5 3.5 1.6 3.5 3.5ZM181.7 405c0 1.9-1.5 3.5-3.5 3.5-1.9 0-3.4-1.4-3.5-3.3 0-1.9 1.4-3.6 3.4-3.6 1.9 0 3.6 1.5 3.6 3.4ZM255.7 441.8c-2 0-3.5-1.6-3.4-3.5 0-1.9 1.7-3.5 3.6-3.4 1.8 0 3.3 1.6 3.3 3.5s-1.6 3.5-3.5 3.5ZM152.6 382.7c.2-1.9 1.9-3.3 3.8-3.2 1.8.2 3.3 1.8 3.1 3.6-.1 1.9-1.8 3.4-3.7 3.3-1.9-.1-3.4-1.8-3.2-3.7ZM300.1 441.8c-2 0-3.5-1.5-3.5-3.5 0-1.9 1.6-3.5 3.6-3.5 1.8 0 3.4 1.5 3.4 3.4s-1.5 3.5-3.5 3.5ZM410.8 198.1c-1.8 0-3.4-1.6-3.4-3.4 0-1.9 1.6-3.5 3.6-3.4 1.9 0 3.3 1.6 3.3 3.4 0 1.9-1.6 3.5-3.5 3.4ZM410.6 375.3c-1.9 0-3.3-1.6-3.3-3.4 0-1.9 1.6-3.5 3.5-3.4 1.9 0 3.4 1.6 3.4 3.4 0 1.9-1.6 3.5-3.6 3.4ZM148.6 194.6c0 1.8-1.4 3.4-3.2 3.5-1.9.1-3.6-1.4-3.7-3.3 0-1.8 1.4-3.4 3.3-3.5 2 0 3.6 1.4 3.6 3.3ZM432.9 331c-1.9 0-3.5-1.6-3.4-3.5 0-1.8 1.6-3.3 3.5-3.3s3.5 1.6 3.4 3.5c0 1.8-1.6 3.3-3.5 3.3ZM123 324.2c1.9 0 3.4 1.5 3.4 3.4s-1.6 3.5-3.5 3.4c-1.9 0-3.3-1.5-3.4-3.4 0-1.9 1.6-3.5 3.5-3.4ZM145.1 368.5c1.9 0 3.4 1.5 3.4 3.3 0 1.9-1.6 3.5-3.5 3.5s-3.4-1.5-3.4-3.3c0-1.9 1.5-3.5 3.5-3.5ZM432.9 242.4c-1.8 0-3.4-1.6-3.4-3.4 0-1.9 1.6-3.5 3.6-3.4 1.9 0 3.3 1.5 3.4 3.4 0 1.9-1.6 3.5-3.5 3.4ZM126.4 239.1c0 1.9-1.7 3.4-3.7 3.3-1.8 0-3.3-1.7-3.2-3.5 0-1.9 1.7-3.4 3.7-3.3 1.8 0 3.3 1.7 3.2 3.5ZM369.9 416.2c0 1.8-1.5 3.4-3.3 3.4-2 0-3.6-1.5-3.6-3.4s1.6-3.5 3.5-3.4c1.9 0 3.4 1.6 3.4 3.4ZM189.4 419.6c-2 0-3.5-1.5-3.5-3.5 0-1.8 1.5-3.3 3.4-3.4 2 0 3.6 1.6 3.5 3.5 0 1.8-1.6 3.3-3.4 3.4ZM237.1 128.2c0 1.8-1.4 3.4-3.3 3.5-1.9 0-3.6-1.4-3.6-3.3 0-1.8 1.4-3.4 3.3-3.5 2 0 3.6 1.4 3.6 3.3ZM370 150.3c0 1.8-1.4 3.4-3.3 3.5-1.9 0-3.6-1.4-3.6-3.3 0-1.8 1.4-3.4 3.3-3.5 2 0 3.6 1.4 3.6 3.3ZM325.7 128.2c0 1.9-1.6 3.5-3.6 3.4-1.8 0-3.3-1.6-3.3-3.4 0-1.9 1.6-3.5 3.6-3.4 1.9 0 3.3 1.6 3.3 3.4ZM200.3 430.6c-1.8 0-3.4-1.6-3.4-3.4 0-1.9 1.6-3.4 3.6-3.4 1.9 0 3.3 1.6 3.2 3.5 0 1.8-1.6 3.3-3.4 3.3ZM355.4 423.9c1.9 0 3.4 1.5 3.4 3.3 0 1.8-1.5 3.4-3.3 3.4-1.9 0-3.6-1.5-3.5-3.4 0-1.8 1.5-3.3 3.4-3.3ZM200.5 142.7c-1.8 0-3.4-1.5-3.4-3.3 0-1.8 1.5-3.4 3.3-3.4 1.9 0 3.5 1.5 3.5 3.4 0 1.8-1.6 3.3-3.4 3.3ZM137.5 205.7c0 1.8-1.5 3.4-3.3 3.5-1.9 0-3.5-1.5-3.5-3.4 0-1.8 1.5-3.3 3.4-3.3s3.4 1.4 3.4 3.3ZM425.3 205.7c0 1.8-1.5 3.4-3.3 3.4-1.9 0-3.5-1.5-3.5-3.4s1.5-3.3 3.4-3.3 3.4 1.5 3.4 3.3ZM421.8 357.4c1.9 0 3.4 1.5 3.4 3.3 0 1.8-1.5 3.4-3.3 3.4-1.9 0-3.6-1.5-3.5-3.4 0-1.8 1.5-3.3 3.4-3.3ZM137.3 360.8c0 1.8-1.5 3.3-3.4 3.4-1.9 0-3.5-1.6-3.4-3.5 0-1.8 1.6-3.3 3.5-3.2 1.9 0 3.3 1.5 3.3 3.4ZM325.6 438.2c0 1.8-1.4 3.4-3.2 3.5-1.9 0-3.6-1.5-3.6-3.4 0-1.8 1.5-3.3 3.4-3.4 1.9 0 3.4 1.4 3.4 3.3ZM237 438.4c0 1.8-1.6 3.3-3.4 3.3-1.9 0-3.5-1.7-3.4-3.6.1-1.8 1.7-3.2 3.5-3.2 1.9 0 3.3 1.6 3.3 3.4ZM358.9 139.4c0 1.8-1.6 3.3-3.5 3.3s-3.5-1.7-3.3-3.6c.1-1.9 1.7-3.2 3.5-3.1 1.8 0 3.3 1.6 3.3 3.5ZM270.3 117.1c0 1.8-1.5 3.4-3.3 3.5-1.8 0-3.3-1.4-3.4-3.1-.1-1.9 1.3-3.5 3.2-3.5 1.9 0 3.4 1.4 3.5 3.2ZM292.4 117.2c0 1.8-1.6 3.4-3.5 3.3-1.9 0-3.3-1.6-3.2-3.5 0-1.8 1.5-3.2 3.3-3.2 1.9 0 3.4 1.5 3.4 3.4ZM443.9 297.7c-1.8 0-3.4-1.7-3.3-3.5.1-1.9 1.7-3.3 3.6-3.2 1.8 0 3.1 1.5 3.1 3.4s-1.6 3.4-3.4 3.3ZM115.1 294.3c0 1.9-1.5 3.4-3.4 3.4-1.8 0-3.4-1.6-3.3-3.4 0-1.8 1.5-3.2 3.3-3.2 1.9 0 3.4 1.4 3.4 3.3ZM444 268.9c1.9 0 3.3 1.5 3.3 3.4 0 1.8-1.5 3.2-3.2 3.3-1.8 0-3.4-1.5-3.4-3.3 0-1.8 1.5-3.4 3.4-3.3ZM115.3 272.3c0 1.8-1.7 3.3-3.5 3.3s-3.3-1.7-3.2-3.5c0-1.8 1.5-3.1 3.3-3.1 1.9 0 3.4 1.6 3.3 3.4ZM344.5 131.6c-1.7 0-3.2-1.4-3.3-3.1 0-1.9 1.3-3.4 3.2-3.5 1.8 0 3.3 1.3 3.4 3.1.1 1.8-1.4 3.4-3.2 3.5ZM112 246.8c1.8 0 3.2 1.5 3.2 3.3 0 1.8-1.6 3.4-3.4 3.3-1.8 0-3.3-1.7-3.1-3.5.1-1.8 1.6-3.1 3.4-3.1ZM432.8 353c-1.8 0-3.3-1.7-3.2-3.5.1-1.8 1.6-3.1 3.4-3.1 1.9 0 3.3 1.6 3.2 3.5 0 1.8-1.6 3.2-3.4 3.1ZM115.1 316.6c0 1.8-1.5 3.2-3.2 3.2-1.8 0-3.4-1.6-3.3-3.4 0-1.9 1.6-3.3 3.5-3.2 1.8 0 3.1 1.6 3.1 3.4ZM443.9 319.8c-1.8 0-3.4-1.7-3.2-3.5.1-1.8 1.6-3.1 3.4-3.1 1.9 0 3.3 1.5 3.2 3.5 0 1.8-1.6 3.2-3.3 3.1ZM347.6 438.3c0 1.9-1.5 3.4-3.3 3.4-1.7 0-3.2-1.6-3.2-3.3 0-1.8 1.5-3.4 3.4-3.3 1.8 0 3.2 1.4 3.2 3.3ZM211.5 435c1.8 0 3.2 1.4 3.2 3.2 0 1.9-1.5 3.4-3.3 3.4-1.7 0-3.2-1.5-3.2-3.3 0-1.8 1.5-3.4 3.4-3.3ZM289 452.7c-1.8 0-3.4-1.6-3.3-3.4 0-1.8 1.5-3.2 3.3-3.2 1.9 0 3.3 1.5 3.3 3.4 0 1.8-1.5 3.2-3.2 3.2ZM311.3 113.9c1.8 0 3.2 1.5 3.2 3.2 0 1.8-1.6 3.4-3.4 3.4-1.8 0-3.3-1.6-3.2-3.5 0-1.8 1.5-3.1 3.3-3.1ZM444.1 253.4c-1.8 0-3.2-1.4-3.3-3.2 0-1.9 1.4-3.4 3.2-3.4 1.8 0 3.2 1.4 3.3 3.1 0 1.8-1.4 3.4-3.3 3.5ZM244.8 113.9c1.8 0 3.2 1.5 3.3 3.2 0 1.8-1.5 3.4-3.4 3.4-1.8 0-3.3-1.6-3.2-3.5 0-1.8 1.5-3.2 3.3-3.1ZM126.3 216.8c0 1.8-1.5 3.4-3.3 3.4-1.8 0-3.2-1.5-3.2-3.2 0-1.8 1.3-3.3 3.1-3.4 1.9 0 3.4 1.4 3.5 3.2ZM436.3 216.9c0 1.8-1.7 3.4-3.5 3.3-1.8 0-3.1-1.6-3.1-3.3 0-1.9 1.5-3.3 3.4-3.3 1.8 0 3.2 1.6 3.2 3.3ZM211.7 125c1.8 0 3.2 1.5 3.2 3.3 0 1.8-1.6 3.4-3.4 3.3-1.8 0-3.3-1.6-3.2-3.5 0-1.8 1.6-3.1 3.4-3.1ZM126.1 349.8c0 1.8-1.5 3.2-3.3 3.2-1.8 0-3.4-1.6-3.3-3.4 0-1.9 1.6-3.3 3.5-3.2 1.8 0 3.1 1.6 3.1 3.4ZM270.1 449.4c0 1.8-1.4 3.3-3.1 3.3-1.8 0-3.4-1.5-3.4-3.3 0-1.8 1.6-3.3 3.4-3.3 1.8 0 3.2 1.5 3.2 3.3ZM402.9 405c0 1.8-1.3 3.3-3.1 3.3s-3.4-1.5-3.4-3.3c0-1.8 1.5-3.2 3.2-3.2 1.8 0 3.2 1.4 3.2 3.2ZM410.9 175.8c-1.7 0-3.2-1.4-3.2-3.2 0-1.8 1.3-3.3 3.1-3.3 1.9 0 3.4 1.4 3.4 3.3 0 1.8-1.5 3.2-3.2 3.2ZM311 446.1c1.8 0 3.2 1.3 3.3 3.1 0 1.9-1.4 3.4-3.2 3.4-1.7 0-3.2-1.5-3.2-3.3 0-1.8 1.4-3.2 3.2-3.3ZM247.9 449.4c0 1.8-1.5 3.2-3.2 3.2-1.7 0-3.2-1.5-3.3-3.2 0-1.9 1.5-3.4 3.3-3.3 1.8 0 3.1 1.5 3.1 3.3ZM170.5 150.5c0 1.7-1.5 3.2-3.3 3.2-1.8 0-3.3-1.6-3.2-3.5 0-1.8 1.6-3.1 3.3-3.1 1.8 0 3.2 1.5 3.1 3.3ZM388.7 153.7c-1.7 0-3.2-1.4-3.3-3.2 0-1.8 1.3-3.3 3.1-3.3 1.9 0 3.4 1.4 3.4 3.3 0 1.8-1.5 3.2-3.2 3.3ZM403 161.5c0 1.8-1.5 3.2-3.2 3.2-1.8 0-3.3-1.6-3.2-3.4 0-1.8 1.6-3.2 3.3-3.1 1.8 0 3.2 1.5 3.1 3.3ZM156.2 158.2c1.8 0 3.2 1.4 3.2 3.2 0 1.8-1.6 3.4-3.4 3.3-1.8 0-3.1-1.6-3.1-3.4 0-1.8 1.5-3.2 3.2-3.2ZM145.1 169.3c1.8 0 3.2 1.4 3.3 3.1 0 1.8-1.5 3.4-3.3 3.4-1.7 0-3.2-1.5-3.2-3.3 0-1.8 1.4-3.2 3.2-3.3ZM167.2 419.4c-1.8 0-3.2-1.4-3.2-3.2 0-1.7 1.3-3.1 3-3.2 1.8 0 3.3 1.3 3.3 3.1s-1.4 3.3-3.1 3.3ZM145 390.8c1.8 0 3.2 1.4 3.2 3.2 0 1.8-1.5 3.3-3.3 3.2-1.7 0-3.1-1.4-3.1-3.1 0-1.8 1.4-3.3 3.1-3.3ZM410.6 397.3c-1.8 0-3.1-1.6-3-3.4 0-1.8 1.7-3.2 3.4-3 1.8.2 3.1 1.7 2.9 3.5-.1 1.7-1.7 3-3.3 2.9ZM134.2 180.4c1.8 0 3.1 1.6 3 3.4 0 1.7-1.5 3-3.2 3-1.8 0-3.2-1.5-3.1-3.3 0-1.8 1.6-3.2 3.3-3.1ZM425.1 183.6c0 1.8-1.5 3.2-3.3 3.2-1.7 0-3.1-1.5-3.1-3.1 0-1.8 1.4-3.3 3.2-3.3 1.8 0 3.2 1.5 3.2 3.3ZM159.3 405c0 1.8-1.4 3.3-3.1 3.3-1.7 0-3.1-1.3-3.2-3 0-1.8 1.2-3.3 3-3.4 1.8 0 3.3 1.4 3.3 3.1ZM181.5 139.3c0 1.8-1.4 3.3-3.2 3.3-1.8 0-3.2-1.5-3.2-3.3 0-1.7 1.4-3.1 3.1-3.1 1.8 0 3.2 1.4 3.3 3.2ZM380.8 139.4c0 1.8-1.5 3.2-3.3 3.2-1.7 0-3-1.5-3.1-3.2 0-1.8 1.4-3.3 3.2-3.3 1.8 0 3.2 1.5 3.2 3.3ZM225.8 117.2c0 1.8-1.5 3.3-3.3 3.2-1.7 0-3.1-1.4-3.1-3.1 0-1.8 1.4-3.3 3.1-3.3 1.8 0 3.2 1.4 3.2 3.2ZM134 379.7c1.8 0 3.2 1.5 3.2 3.3 0 1.7-1.4 3.1-3.1 3.2-1.7 0-3.3-1.4-3.3-3.2 0-1.8 1.4-3.3 3.2-3.3ZM425 383c0 1.8-1.5 3.3-3.2 3.2-1.8 0-3.2-1.5-3.1-3.3 0-1.7 1.4-3.1 3.1-3.1 1.8 0 3.2 1.4 3.2 3.2ZM388.5 413c1.8 0 3.2 1.4 3.3 3.2 0 1.8-1.5 3.3-3.2 3.2-1.7 0-3.1-1.4-3.1-3.1 0-1.8 1.3-3.3 3.1-3.4ZM111.8 231.1c-1.8 0-3.2-1.5-3.1-3.3 0-1.8 1.6-3.2 3.4-3.1 1.7 0 3 1.5 3 3.2 0 1.8-1.5 3.3-3.2 3.2ZM444.2 224.7c1.8 0 3.1 1.6 3.1 3.4 0 1.7-1.5 3.1-3.2 3.1-1.8 0-3.2-1.5-3.2-3.3 0-1.8 1.5-3.2 3.3-3.2ZM447.1 338.5c0 1.8-1.4 3.3-3.1 3.3-1.7 0-3.1-1.3-3.2-3-.1-1.8 1.2-3.3 3-3.4 1.8 0 3.3 1.3 3.3 3.1ZM111.8 341.9c-1.8 0-3.2-1.5-3.2-3.3 0-1.8 1.5-3.2 3.3-3.2 1.7 0 3 1.5 3.1 3.2 0 1.8-1.4 3.3-3.2 3.3ZM336.5 117.2c0 1.8-1.5 3.2-3.3 3.2-1.7 0-3.1-1.5-3.1-3.1 0-1.8 1.4-3.3 3.2-3.3 1.8 0 3.2 1.5 3.2 3.3ZM178.3 424.1c1.8 0 3.2 1.6 3.1 3.3 0 1.7-1.5 3-3.2 3-1.8 0-3.1-1.5-3.1-3.3 0-1.7 1.5-3 3.2-3ZM278.1 102.9c1.8 0 3.1 1.6 3 3.4 0 1.7-1.5 3-3.2 3-1.8 0-3.2-1.6-3.1-3.3.1-1.7 1.6-3 3.2-3ZM458.2 283.2c0 1.8-1.4 3.3-3.2 3.2-1.7 0-3.1-1.3-3.1-3.1s1.4-3.3 3.2-3.3c1.7 0 3.1 1.4 3.1 3.1ZM104 283.4c0 1.7-1.4 3.1-3.1 3.1-1.8 0-3.2-1.5-3.2-3.2 0-1.7 1.5-3.1 3.1-3.1 1.8 0 3.2 1.5 3.1 3.3ZM104 261.2c0 1.7-1.4 3-3.1 3.1-1.8 0-3.2-1.5-3.2-3.3 0-1.7 1.5-3.1 3.1-3.1 1.8 0 3.2 1.5 3.1 3.3ZM222.4 446.2c1.6 0 3.1 1.3 3.2 3 .1 1.8-1.3 3.3-3 3.4-1.7 0-3.1-1.2-3.2-2.9 0-1.8 1.3-3.3 3-3.4ZM366.5 125.1c1.7 0 3.1 1.4 3.1 3 0 1.8-1.3 3.3-3.1 3.3-1.7 0-3.1-1.3-3.2-3 0-1.8 1.4-3.3 3.1-3.3ZM192.5 128.3c0 1.7-1.4 3.1-3.1 3.1-1.8 0-3.2-1.4-3.2-3.2 0-1.7 1.4-3.1 3.1-3.1 1.7 0 3.2 1.5 3.2 3.2ZM380.7 427.2c0 1.7-1.3 3.1-3 3.2-1.8 0-3.2-1.3-3.2-3.1s1.5-3.2 3.2-3.2c1.7 0 3 1.5 3 3.2ZM455.1 258c1.7 0 3.1 1.4 3.1 3.1 0 1.8-1.3 3.3-3.1 3.3-1.7 0-3.1-1.3-3.2-3 0-1.8 1.4-3.3 3.1-3.3ZM303.3 106c0 1.8-1.3 3.3-3.2 3.2-1.7 0-3.1-1.4-3.1-3.1 0-1.8 1.4-3.3 3.2-3.3 1.7 0 3.1 1.4 3.1 3.1ZM281 460.4c0 1.7-1.3 3.1-3 3.2-1.8 0-3.3-1.3-3.3-3.1s1.5-3.3 3.2-3.2c1.7 0 3.1 1.5 3.1 3.1ZM451.9 305.1c.1-1.7 1.7-3 3.3-2.9 1.8.1 3.1 1.7 2.9 3.5-.2 1.7-1.6 3-3.3 2.8-1.8-.1-3.1-1.6-2.9-3.5ZM126.1 194.7c0 1.8-1.4 3.2-3.2 3.2-1.7 0-3-1.4-3-3.1 0-1.7 1.4-3.1 3-3.2 1.7 0 3.2 1.4 3.2 3.2ZM255.9 102.9c1.8 0 3.1 1.6 3 3.4 0 1.7-1.5 3-3.2 3-1.8 0-3.2-1.6-3.1-3.3.1-1.7 1.6-3 3.2-3ZM333.3 452.5c-1.7 0-3.1-1.2-3.2-3 0-1.8 1.3-3.3 3-3.4 1.6 0 3.1 1.3 3.2 3 .1 1.8-1.3 3.3-3 3.4ZM436.1 194.8c0 1.7-1.4 3.1-3.1 3.1-1.8 0-3.2-1.5-3.2-3.2 0-1.7 1.5-3.1 3.1-3.1 1.8 0 3.2 1.5 3.2 3.3ZM258.9 460.4c0 1.7-1.3 3.1-3 3.1s-3.1-1.2-3.2-2.9c0-1.8 1.3-3.3 3.1-3.3 1.6 0 3.1 1.4 3.1 3.1ZM126 371.9c0 1.7-1.4 3-3.1 3-1.8 0-3.2-1.4-3.1-3.2 0-1.7 1.5-3 3.2-3 1.7 0 3 1.5 3 3.2ZM192.4 438.3c0 1.7-1.3 3.1-3 3.1s-3.1-1.2-3.2-2.9c0-1.8 1.4-3.3 3.1-3.3 1.7 0 3.1 1.4 3.1 3.1ZM436 371.8c0 1.7-1.3 3.1-3 3.1s-3.1-1.2-3.2-2.9c0-1.8 1.3-3.3 3.1-3.3 1.6 0 3.1 1.4 3.1 3.1ZM303.1 460.4c0 1.7-1.3 3.1-3 3.2-1.7 0-3.1-1.2-3.2-2.9-.1-1.8 1.3-3.3 3-3.3 1.6 0 3.1 1.4 3.2 3ZM103.8 305.3c0 1.7-1.3 3.1-3 3.2-1.7 0-3.1-1.2-3.2-2.9 0-1.8 1.3-3.3 3-3.3 1.6 0 3.1 1.4 3.1 3ZM369.6 438.3c0 1.7-1.3 3.1-3 3.1s-3.1-1.2-3.2-2.9c0-1.8 1.4-3.3 3.1-3.3 1.7 0 3.1 1.4 3.1 3.1ZM355.6 120.2c-1.7 0-3.2-1.3-3.2-3s1.4-3.1 3.1-3.1c1.6 0 3 1.3 3 2.9 0 1.7-1.2 3.1-2.9 3.2ZM322.3 109.1c-1.7 0-3.1-1.4-3.1-3.1 0-1.6 1.4-2.9 3-3 1.7 0 3.1 1.3 3.1 3s-1.3 3.1-3.1 3.1ZM203.5 449.3c0 1.7-1.3 3.1-3 3.1s-3-1.2-3.1-2.8c-.1-1.7 1.2-3.2 2.9-3.3 1.7 0 3.2 1.3 3.2 2.9ZM444.1 208.8c-1.7 0-3.1-1.4-3.1-3.1 0-1.6 1.3-3 2.9-3 1.7 0 3.1 1.3 3.2 3 0 1.7-1.3 3.1-3 3.1ZM115 205.7c0 1.7-1.3 3.1-3.1 3-1.7 0-3.1-1.4-3-3.1 0-1.6 1.4-2.9 3-3 1.7 0 3.1 1.3 3.1 3ZM203.5 117.2c0 1.7-1.4 3-3.2 2.9-1.6 0-2.9-1.4-2.9-3 0-1.7 1.4-3.1 3.1-3.1 1.7 0 3.1 1.4 3 3.1ZM233.6 103c1.7 0 3.1 1.3 3.1 3 0 1.6-1.2 3-2.8 3.1-1.7.1-3.2-1.2-3.3-2.9 0-1.7 1.3-3.1 3-3.2ZM100.8 324.5c1.7 0 3.1 1.6 3 3.2 0 1.7-1.5 3-3.3 2.9-1.6 0-2.9-1.4-2.9-3.1 0-1.7 1.4-3.1 3.1-3ZM325.2 460.5c0 1.7-1.5 3-3.2 3-1.7 0-3-1.4-3-3.2 0-1.6 1.4-2.9 3-2.9 1.7 0 3.1 1.4 3.1 3.1ZM447 360.8c0 1.7-1.5 3-3.2 3-1.7 0-3-1.5-2.9-3.2 0-1.6 1.4-2.9 3-2.9 1.7 0 3.1 1.4 3.1 3.1ZM355.3 446.3c1.7 0 3.1 1.4 3.1 3.1 0 1.6-1.3 2.9-2.9 3-1.8 0-3.2-1.2-3.2-2.9s1.3-3.1 3-3.1ZM114.9 360.9c0 1.7-1.5 3-3.2 3-1.7 0-3-1.5-2.9-3.2 0-1.6 1.4-2.9 3-2.9 1.7 0 3.1 1.4 3.1 3.1ZM100.8 242c-1.7 0-3.1-1.4-3.1-3.1 0-1.6 1.4-2.9 3-3 1.7 0 3.1 1.3 3.1 3s-1.3 3.1-3.1 3.1ZM455 324.5c1.7 0 3.1 1.4 3.1 3.1 0 1.6-1.3 2.9-2.9 3-1.8 0-3.2-1.2-3.2-2.9s1.3-3.1 3-3.2ZM233.6 463.5c-1.7 0-3.1-1.3-3.1-3.1 0-1.7 1.5-3.1 3.1-3 1.6 0 2.9 1.4 3 3 0 1.7-1.4 3.1-3.1 3.1ZM458.2 239c0 1.7-1.4 3-3.2 3-1.6 0-2.9-1.4-3-3 0-1.7 1.4-3.1 3.1-3.1 1.7 0 3.1 1.4 3 3.1ZM413.9 150.5c0 1.7-1.5 3-3.2 2.9-1.6 0-2.9-1.5-2.8-3.1 0-1.7 1.5-3 3.2-2.9 1.6 0 2.9 1.5 2.8 3.1ZM148.1 150.5c0 1.7-1.5 3-3.2 2.9-1.6 0-2.9-1.5-2.8-3.1 0-1.7 1.5-3 3.2-2.9 1.6 0 2.9 1.4 2.8 3.1ZM134.1 164.4c-1.6 0-3-1.3-3-2.9 0-1.6 1.3-3 2.9-3 1.7 0 3 1.2 3 2.9 0 1.6-1.3 3-2.9 3ZM289.1 98c-1.6 0-3-1.3-3-2.9 0-1.6 1.3-3 2.9-3 1.7 0 3 1.3 3 2.9 0 1.6-1.3 3-2.9 3ZM466.2 269.3c1.6 0 2.9 1.4 2.9 3s-1.4 2.9-3.1 2.9c-1.6 0-2.9-1.4-2.9-3s1.4-2.9 3.1-2.8ZM422 164.4c-1.6 0-3-1.3-3-2.9 0-1.6 1.3-3 2.9-3 1.7 0 3 1.2 3 2.9 0 1.6-1.3 3-2.9 3ZM103.7 349.7c0 1.6-1.4 2.9-3 2.9s-3-1.4-3-3 1.3-2.9 3-2.9c1.6 0 3 1.3 3 2.9ZM432.9 169.6c1.7 0 3 1.2 3 2.8 0 1.6-1.3 3-2.9 3-1.6 0-3-1.3-3-2.9 0-1.6 1.3-3 2.9-3ZM344.5 109c-1.6 0-3-1.3-3-2.9 0-1.6 1.3-3 2.9-3 1.7 0 3 1.2 3 2.9 0 1.6-1.3 3-2.9 3ZM211.5 109c-1.6 0-2.9-1.4-2.9-3s1.4-2.9 3-2.8c1.6 0 2.9 1.4 2.9 3s-1.4 2.9-3.1 2.9ZM133.9 402.2c1.7 0 3 1.2 3 2.8 0 1.6-1.3 3-2.9 3-1.6 0-3-1.3-3.1-2.9 0-1.6 1.3-3 2.9-3ZM123.1 175.5c-1.6 0-3-1.2-3.1-2.9 0-1.6 1.3-3 2.9-3 1.7 0 3 1.2 3.1 2.8 0 1.6-1.3 3-2.9 3ZM156.2 142.3c-1.6 0-3-1.3-3-2.9 0-1.6 1.3-3 2.9-3 1.7 0 3 1.3 3 2.9 0 1.6-1.3 3-2.9 3ZM455 352.7c-1.6 0-3-1.4-2.9-3 0-1.6 1.4-2.9 3-2.9s3 1.4 2.9 3c0 1.6-1.4 2.9-3 2.9ZM466.1 297.3c-1.6 0-3-1.4-2.9-3 0-1.6 1.4-2.9 3-2.9s3 1.4 2.9 3c0 1.6-1.4 2.9-3 2.9ZM89.8 297.3c-1.6 0-3-1.3-3-2.9 0-1.6 1.3-3 2.9-3 1.7 0 3 1.2 3 2.9 0 1.6-1.3 3-2.9 3ZM399.7 424.3c1.6 0 3 1.4 2.9 3 0 1.6-1.4 2.9-3 2.9s-2.9-1.4-2.9-3 1.4-2.9 3-2.9ZM156.1 430.2c-1.6 0-3-1.3-3-2.9 0-1.6 1.3-2.9 3-2.9 1.6 0 3 1.3 3 2.9 0 1.6-1.3 3-2.9 3ZM267 98c-1.6 0-3-1.2-3.1-2.9 0-1.6 1.3-3 2.9-3 1.7 0 3 1.2 3.1 2.8 0 1.6-1.3 3-2.9 3ZM100.9 219.8c-1.6 0-3-1.3-3-2.9 0-1.6 1.3-3 2.9-3 1.7 0 3 1.2 3 2.9 0 1.6-1.3 3-2.9 3ZM89.7 269.3c1.7 0 3 1.2 3 2.8 0 1.6-1.3 3-2.9 3-1.6 0-3-1.3-3-2.9 0-1.6 1.3-3 2.9-3ZM424.8 405c0 1.6-1.3 3-2.9 3-1.6 0-3-1.3-3-2.9 0-1.6 1.3-3 2.9-3 1.7 0 3 1.2 3 2.9ZM289 474.5c-1.6 0-3-1.3-3-2.9 0-1.6 1.3-2.9 2.9-3 1.6 0 3 1.2 3 2.9 0 1.6-1.3 3-2.9 3ZM269.8 471.5c0 1.6-1.4 2.9-3 2.9s-3-1.3-3-2.9c0-1.6 1.3-2.9 3-2.9 1.6 0 3 1.3 3 2.9ZM167.2 125.3c1.7 0 3 1.2 3 2.8 0 1.6-1.3 3-2.9 3-1.6 0-3-1.3-3-2.9 0-1.6 1.3-3 2.9-3ZM455.1 213.9c1.6 0 3 1.3 3 2.9 0 1.6-1.3 3-2.9 3-1.6 0-3-1.3-3-2.9 0-1.6 1.3-2.9 2.9-3ZM388.8 125.3c1.6 0 3 1.4 2.9 3 0 1.6-1.4 2.9-3 2.9s-2.9-1.4-2.9-3 1.4-2.9 3-2.9ZM148 416.1c0 1.6-1.3 3-2.9 3-1.6 0-3-1.3-3-2.9 0-1.6 1.3-2.9 2.9-3 1.6 0 3 1.3 3 2.9ZM413.7 416.2c0 1.6-1.4 2.9-3 2.9s-3-1.4-2.9-3c0-1.6 1.4-2.9 3-2.9s3 1.4 2.9 3ZM399.8 142.3c-1.6 0-3-1.3-3-2.9 0-1.6 1.3-2.9 2.9-3 1.6 0 3 1.3 3 2.9 0 1.6-1.3 3-2.9 3ZM466.2 253c-1.6 0-2.9-1.4-2.8-3 0-1.6 1.3-2.7 2.8-2.8 1.6 0 3 1.3 3 2.9 0 1.6-1.4 2.9-3 2.9ZM311.3 97.9c-1.6 0-2.9-1.3-2.9-2.9 0-1.6 1.2-2.8 2.7-2.9 1.6 0 3 1.2 3.1 2.8 0 1.6-1.3 3-2.9 3ZM391.5 438.2c0 1.6-1.2 3-2.8 3-1.6 0-3-1.3-3-2.9 0-1.5 1.2-2.8 2.8-2.9 1.7 0 3 1.1 3 2.8ZM170 438.3c0 1.6-1.3 3-2.9 3-1.6 0-3-1.4-2.9-3 0-1.5 1.3-2.8 2.8-2.8 1.7 0 3 1.2 3 2.8ZM89.9 253c-1.6 0-3-1.3-3-2.9 0-1.6 1.2-2.8 2.7-2.9 1.6 0 3 1.1 3.1 2.7 0 1.6-1.2 3-2.8 3ZM244.8 97.9c-1.6 0-2.9-1.3-2.9-3 0-1.6 1.2-2.8 2.8-2.8 1.6 0 3 1.3 3 2.8 0 1.6-1.4 2.9-2.9 2.9ZM211.5 463.4c-1.6 0-3-1.3-3-2.9 0-1.6 1.4-2.9 3-2.9s2.8 1.2 2.8 2.8c0 1.6-1.2 3-2.8 3ZM344.3 463.4c-1.6 0-3-1.4-2.9-3 0-1.6 1.4-2.9 3-2.8 1.6 0 2.7 1.3 2.8 2.8 0 1.6-1.3 3-2.9 3ZM435.8 394.1c0 1.6-1.4 2.9-3 2.8-1.5 0-2.8-1.4-2.8-2.9 0-1.6 1.3-2.9 3-2.9 1.6 0 2.9 1.3 2.8 3ZM125.7 394.1c0 1.6-1.4 2.9-3 2.8-1.5 0-2.8-1.4-2.8-2.9 0-1.6 1.3-2.9 3-2.9 1.6 0 2.9 1.3 2.8 3ZM92.5 316.5c0 1.6-1.3 2.9-2.9 2.9-1.6 0-2.9-1.4-2.9-3 0-1.5 1.3-2.8 2.8-2.8 1.7 0 2.9 1.2 3 2.9ZM466 319.4c-1.6 0-2.9-1.5-2.8-3 0-1.6 1.5-2.8 3.1-2.7 1.5 0 2.7 1.3 2.7 2.9 0 1.6-1.4 2.9-3 2.9ZM175.5 116.8c.2-1.6 1.6-2.7 3.2-2.5 1.5.2 2.7 1.6 2.5 3.1-.1 1.6-1.6 2.8-3.2 2.7-1.6-.1-2.8-1.6-2.6-3.2ZM377.6 114.3c1.6 0 3 1.3 3 2.9 0 1.6-1.4 2.9-3 2.9-1.5 0-2.8-1.2-2.8-2.8 0-1.7 1.2-3 2.8-3ZM314 471.5c0 1.6-1.2 3-2.8 3-1.6 0-3-1.3-3-2.9 0-1.5 1.2-2.8 2.8-2.9 1.7 0 3 1.1 3 2.8ZM244.7 474.5c-1.6 0-3-1.3-3-2.9 0-1.6 1.3-2.9 2.9-2.9 1.6 0 2.8 1.2 2.9 2.7 0 1.6-1.2 3-2.8 3ZM333.3 92.2c1.5 0 2.8 1.2 2.9 2.8 0 1.6-1.4 3-3 2.9-1.5 0-2.7-1.3-2.7-2.9 0-1.6 1.2-2.8 2.8-2.8ZM219.8 95.1c0-1.6 1.2-2.8 2.7-2.9 1.6 0 3 1.3 3 2.9 0 1.5-1.4 2.8-2.9 2.8s-2.8-1.3-2.8-2.8ZM446.8 382.9c0 1.6-1.2 2.9-2.7 2.9-1.6 0-3-1.3-3-2.9 0-1.5 1.3-2.8 2.9-2.8 1.6 0 2.8 1.2 2.8 2.8ZM114.6 383c0 1.6-1.3 2.8-2.8 2.8-1.5 0-2.8-1.3-2.9-2.8 0-1.6 1.3-3 3-2.9 1.6 0 2.7 1.3 2.7 2.9ZM377.4 446.6c1.6 0 2.8 1.1 2.9 2.7 0 1.7-1.2 3-2.8 3-1.5 0-2.8-1.3-2.8-2.8 0-1.5 1.3-2.8 2.8-2.9ZM178.2 446.6c1.6 0 2.8 1.2 2.9 2.7 0 1.6-1.1 2.9-2.7 3-1.6 0-3-1.3-3-2.9 0-1.5 1.3-2.8 2.8-2.8ZM109.1 183.6c0-1.6 1.2-2.8 2.8-2.8 1.5 0 2.8 1.2 2.9 2.8 0 1.6-1.4 3-3 2.9-1.5 0-2.7-1.3-2.7-2.9ZM444 180.8c1.5 0 2.8 1.2 2.9 2.7 0 1.6-1.3 3-2.9 3-1.5 0-2.8-1.3-2.8-2.9 0-1.6 1.2-2.8 2.8-2.8ZM86.9 338.6c0-1.5 1.2-2.8 2.8-2.8 1.5 0 2.8 1.2 2.8 2.8 0 1.5-1.3 2.8-2.8 2.8-1.5 0-2.8-1.3-2.8-2.8ZM219.7 471.5c0-1.5 1.2-2.8 2.8-2.8 1.5 0 2.8 1.2 2.8 2.8 0 1.5-1.3 2.8-2.8 2.8-1.5 0-2.8-1.3-2.8-2.8ZM100.9 191.9c1.5 0 2.7 1.4 2.7 2.9s-1.4 2.8-2.9 2.7c-1.5 0-2.7-1.4-2.7-2.9 0-1.6 1.3-2.8 2.9-2.7ZM466.2 335.9c1.5 0 2.7 1.3 2.7 2.9 0 1.5-1.4 2.8-2.9 2.7-1.5 0-2.7-1.4-2.7-2.9s1.3-2.8 2.9-2.7ZM89.9 225.1c1.5 0 2.7 1.4 2.7 2.9s-1.4 2.8-2.9 2.7c-1.5 0-2.7-1.4-2.7-2.9 0-1.6 1.3-2.8 2.9-2.7ZM463.5 227.6c.2-1.5 1.6-2.6 3.1-2.5 1.5.2 2.6 1.6 2.4 3.1-.2 1.5-1.6 2.7-3.1 2.5-1.5-.2-2.6-1.6-2.4-3.1ZM330.5 471.6c0-1.5 1.2-2.8 2.8-2.8 1.5 0 2.8 1.2 2.8 2.8 0 1.5-1.2 2.8-2.8 2.8-1.5 0-2.8-1.3-2.8-2.8ZM452.3 371.8c0-1.5 1.3-2.8 2.8-2.7 1.5 0 2.7 1.3 2.7 2.9 0 1.5-1.3 2.8-2.8 2.8-1.5 0-2.7-1.3-2.7-2.9ZM452.4 194.7c0-1.6 1.2-2.8 2.8-2.8 1.5 0 2.8 1.3 2.8 2.8 0 1.5-1.3 2.8-2.8 2.8-1.5 0-2.8-1.3-2.8-2.8ZM363.8 106.2c0-1.6 1.1-2.8 2.7-2.9 1.5 0 2.8 1.2 2.9 2.7 0 1.5-1.1 2.8-2.7 2.9-1.5 0-2.8-1.2-2.9-2.7ZM278 81.1c1.5 0 2.8 1.2 2.8 2.8 0 1.5-1.2 2.8-2.7 2.8-1.5 0-2.8-1.2-2.8-2.8 0-1.6 1.2-2.8 2.7-2.8ZM186.6 106c0-1.6 1.3-2.8 2.8-2.7 1.5 0 2.7 1.3 2.7 2.9 0 1.5-1.4 2.8-2.9 2.7-1.5 0-2.7-1.3-2.7-2.9ZM297.4 84c0-1.5 1.3-2.8 2.8-2.8 1.5 0 2.6 1.2 2.6 2.7 0 1.6-1.2 2.8-2.8 2.8-1.4 0-2.6-1.3-2.7-2.7ZM81.3 305.4c0 1.5-1.3 2.8-2.8 2.8-1.5 0-2.6-1.2-2.6-2.7 0-1.6 1.2-2.8 2.8-2.8 1.4 0 2.6 1.3 2.7 2.7ZM258.5 84c0 1.5-1.2 2.7-2.7 2.7-1.5 0-2.8-1.3-2.7-2.8 0-1.5 1.3-2.7 2.7-2.7 1.5 0 2.8 1.3 2.7 2.8ZM275.2 482.6c0-1.6 1.3-2.8 2.8-2.8 1.4 0 2.6 1.3 2.6 2.7 0 1.5-1.3 2.8-2.8 2.8-1.5 0-2.6-1.2-2.6-2.7ZM474.5 283.3c0-1.5 1.2-2.7 2.6-2.7 1.5 0 2.8 1.2 2.8 2.8 0 1.5-1.2 2.7-2.6 2.7-1.5 0-2.8-1.2-2.8-2.8ZM369.2 460.4c0 1.5-1.1 2.7-2.6 2.8-1.5 0-2.8-1.2-2.8-2.7 0-1.6 1.3-2.8 2.8-2.8 1.4 0 2.6 1.3 2.6 2.7ZM192 460.6c0 1.5-1.3 2.7-2.7 2.7-1.6 0-2.8-1.3-2.7-2.8 0-1.5 1.2-2.7 2.7-2.7 1.5 0 2.8 1.3 2.8 2.8ZM81.4 283.4c0 1.5-1.2 2.6-2.7 2.7-1.5 0-2.8-1.3-2.7-2.8 0-1.5 1.3-2.7 2.7-2.7 1.5 0 2.8 1.3 2.7 2.8ZM103.5 371.8c0 1.5-1.3 2.8-2.8 2.8-1.5 0-2.6-1.2-2.6-2.7 0-1.6 1.3-2.8 2.8-2.8 1.4 0 2.6 1.3 2.6 2.7ZM81.4 261.2c0 1.5-1.2 2.6-2.7 2.7-1.5 0-2.8-1.3-2.7-2.8 0-1.5 1.3-2.7 2.7-2.7 1.5 0 2.8 1.3 2.7 2.8ZM480 261.2c0 1.5-1.2 2.6-2.7 2.7-1.5 0-2.8-1.3-2.7-2.9 0-1.5 1.3-2.7 2.7-2.7 1.5 0 2.8 1.3 2.7 2.9ZM474.5 305.3c0-1.5 1.2-2.6 2.7-2.7 1.5 0 2.8 1.3 2.7 2.9 0 1.5-1.3 2.7-2.7 2.7-1.6 0-2.8-1.3-2.7-2.9ZM413.5 128.2c0 1.5-1.1 2.7-2.5 2.7-1.5 0-2.7-1-2.8-2.5 0-1.5 1.2-2.9 2.7-2.9 1.4 0 2.6 1.2 2.7 2.6ZM78.8 241.6c-1.5 0-2.7-1.1-2.8-2.5 0-1.5 1.2-2.9 2.7-2.8 1.4 0 2.6 1.2 2.6 2.7 0 1.5-1.1 2.7-2.6 2.7ZM477.4 241.6c-1.5 0-2.7-1.1-2.8-2.5 0-1.5 1.2-2.9 2.7-2.8 1.4 0 2.6 1.2 2.6 2.7 0 1.5-1.1 2.6-2.6 2.7ZM203.1 95c0 1.5-1.1 2.7-2.6 2.7s-2.7-1.1-2.8-2.5c0-1.5 1.2-2.9 2.7-2.9 1.4 0 2.6 1.2 2.6 2.7ZM125.6 150.4c0 1.5-1.2 2.6-2.7 2.6-1.5 0-2.7-1.2-2.7-2.6 0-1.5 1.3-2.8 2.8-2.8 1.5 0 2.6 1.3 2.6 2.7ZM468.8 360.9c0 1.4-1.3 2.6-2.7 2.6-1.6 0-2.7-1.3-2.6-2.9 0-1.4 1.4-2.6 2.8-2.5 1.4 0 2.6 1.4 2.5 2.8ZM92.3 360.9c0 1.4-1.3 2.6-2.7 2.5-1.6 0-2.7-1.3-2.6-2.9.1-1.4 1.4-2.6 2.8-2.5 1.4.1 2.6 1.4 2.5 2.8ZM424.6 139.2c0 1.5-1.1 2.7-2.5 2.7-1.5 0-2.7-1-2.8-2.5 0-1.5 1.2-2.9 2.7-2.9 1.4 0 2.6 1.2 2.7 2.6ZM147.8 128.3c0 1.5-1.2 2.6-2.7 2.5-1.5 0-2.6-1.2-2.6-2.7 0-1.5 1.4-2.8 2.9-2.7 1.5.1 2.5 1.3 2.5 2.8ZM89.7 208.4c-1.5 0-2.6-1.2-2.6-2.7 0-1.4 1.2-2.7 2.6-2.7 1.5 0 2.8 1.3 2.7 2.8 0 1.5-1.2 2.6-2.7 2.5ZM466.2 208.4c-1.5 0-2.7-1.2-2.7-2.6 0-1.5 1.3-2.8 2.8-2.8 1.5 0 2.6 1.3 2.6 2.7 0 1.5-1.2 2.6-2.7 2.6ZM424.5 427.3c0 1.4-1.2 2.6-2.7 2.6-1.5 0-2.6-1.1-2.6-2.6s1.3-2.8 2.8-2.7c1.4 0 2.6 1.3 2.6 2.8ZM324.9 84c0 1.5-1.2 2.6-2.7 2.6-1.5 0-2.7-1.2-2.7-2.6 0-1.5 1.3-2.8 2.8-2.8 1.5 0 2.6 1.3 2.6 2.8ZM258.4 482.6c0 1.4-1.2 2.6-2.7 2.6-1.5 0-2.7-1.1-2.7-2.6 0-1.6 1.2-2.8 2.7-2.8 1.4 0 2.6 1.3 2.6 2.7ZM358.1 95.1c0 1.5-1.2 2.6-2.7 2.6-1.5 0-2.6-1.2-2.7-2.6 0-1.5 1.4-2.8 2.8-2.7 1.5.1 2.6 1.3 2.5 2.8ZM236.4 83.9c0 1.5-1.1 2.7-2.5 2.7-1.5 0-2.8-1.2-2.8-2.7 0-1.4 1.3-2.7 2.7-2.7 1.4 0 2.6 1.2 2.7 2.6ZM136.7 139.3c0 1.5-1.1 2.6-2.6 2.7-1.5 0-2.7-1.1-2.7-2.6s1.3-2.8 2.7-2.8c1.4 0 2.6 1.2 2.6 2.7ZM302.7 482.5c0 1.4-1.1 2.7-2.5 2.7-1.5 0-2.7-1-2.8-2.5 0-1.6 1.1-2.9 2.6-2.9 1.4 0 2.7 1.2 2.7 2.6ZM433 153c-1.5 0-2.7-1.2-2.7-2.6 0-1.4 1.2-2.7 2.6-2.8 1.5 0 2.8 1.2 2.8 2.7 0 1.5-1.2 2.6-2.7 2.6ZM145.1 440.9c-1.5 0-2.7-1.1-2.7-2.6s1.2-2.7 2.7-2.6c1.3 0 2.5 1.2 2.6 2.5 0 1.4-1.1 2.7-2.6 2.7ZM432.7 418.8c-1.5 0-2.6-1.3-2.5-2.8 0-1.4 1.3-2.5 2.6-2.4 1.4 0 2.7 1.3 2.6 2.7 0 1.5-1.3 2.6-2.8 2.5ZM355.3 474.1c-1.5 0-2.6-1.2-2.6-2.7 0-1.4 1.2-2.5 2.5-2.5 1.4 0 2.7 1.2 2.7 2.6 0 1.4-1.2 2.6-2.7 2.6ZM402.4 117.2c0 1.5-1.2 2.6-2.7 2.5-1.4 0-2.5-1.2-2.5-2.5 0-1.4 1.2-2.7 2.6-2.7 1.5 0 2.6 1.2 2.6 2.7ZM158.8 117.2c0 1.5-1.2 2.6-2.7 2.6-1.4 0-2.5-1.1-2.6-2.5 0-1.4 1.2-2.7 2.6-2.7 1.5 0 2.7 1.2 2.7 2.6ZM111.8 407.7c-1.5 0-2.6-1.2-2.6-2.7 0-1.5 1.3-2.6 2.7-2.6 1.3 0 2.5 1.2 2.5 2.6 0 1.4-1.2 2.6-2.7 2.6ZM133.8 429.8c-1.5 0-2.6-1.3-2.5-2.8 0-1.4 1.2-2.5 2.6-2.5 1.4 0 2.7 1.3 2.7 2.7 0 1.5-1.3 2.6-2.8 2.5ZM200.3 474.1c-1.5 0-2.6-1.2-2.5-2.7 0-1.4 1.2-2.5 2.6-2.5 1.4 0 2.7 1.2 2.7 2.7 0 1.5-1.2 2.6-2.7 2.6ZM233.5 485.2c-1.5 0-2.6-1.2-2.5-2.7 0-1.4 1.2-2.5 2.6-2.5 1.4 0 2.7 1.3 2.7 2.7 0 1.5-1.2 2.6-2.7 2.6ZM399.7 452c-1.5 0-2.6-1.2-2.6-2.6 0-1.5 1.3-2.6 2.7-2.6 1.3 0 2.5 1.2 2.5 2.6 0 1.4-1.2 2.6-2.6 2.6ZM114.5 161.4c0 1.5-1.1 2.7-2.6 2.7s-2.7-1.2-2.7-2.6c0-1.3 1.2-2.5 2.5-2.6 1.4 0 2.7 1.1 2.8 2.5ZM444.1 164.1c-1.5 0-2.7-1.1-2.7-2.6 0-1.4 1.3-2.7 2.7-2.6 1.4 0 2.5 1.2 2.6 2.5 0 1.5-1.1 2.7-2.6 2.7ZM156 452c-1.5 0-2.6-1.3-2.5-2.8 0-1.4 1.3-2.5 2.6-2.4 1.4 0 2.7 1.3 2.6 2.7 0 1.5-1.3 2.6-2.8 2.5ZM322 485.2c-1.5 0-2.6-1.3-2.5-2.8 0-1.4 1.3-2.5 2.6-2.4 1.4 0 2.7 1.3 2.6 2.7 0 1.5-1.3 2.6-2.8 2.5ZM410.8 440.9c-1.5 0-2.7-1.1-2.6-2.6 0-1.5 1.3-2.7 2.7-2.6 1.3 0 2.5 1.2 2.6 2.6 0 1.4-1.1 2.7-2.6 2.7ZM477.3 330.2c-1.5 0-2.7-1.1-2.7-2.5 0-1.5 1.2-2.7 2.6-2.7 1.3 0 2.5 1.1 2.6 2.5.1 1.4-1.1 2.7-2.5 2.8ZM122.9 418.8c-1.5 0-2.7-1.1-2.6-2.6 0-1.5 1.2-2.7 2.7-2.6 1.3 0 2.5 1.2 2.6 2.6 0 1.4-1.1 2.7-2.6 2.7ZM78.5 330.2c-1.5 0-2.6-1.2-2.5-2.7 0-1.4 1.2-2.5 2.6-2.5 1.4 0 2.7 1.3 2.7 2.7 0 1.5-1.2 2.6-2.7 2.6ZM443.9 407.7c-1.5 0-2.6-1.2-2.5-2.7 0-1.4 1.2-2.5 2.6-2.5 1.4 0 2.7 1.2 2.7 2.6 0 1.5-1.2 2.6-2.7 2.6ZM455.1 396.6c-1.4 0-2.6-1-2.7-2.4 0-1.5 1.1-2.7 2.6-2.7 1.4 0 2.6 1.1 2.6 2.5s-1.1 2.5-2.5 2.6ZM100.8 175.1c-1.4 0-2.6-1.1-2.6-2.5s1.2-2.7 2.7-2.6c1.4 0 2.5 1.2 2.5 2.6 0 1.4-1.2 2.5-2.6 2.5ZM477.3 219.4c-1.4 0-2.5-1.1-2.6-2.5 0-1.4 1.2-2.6 2.7-2.6 1.4 0 2.5 1.2 2.5 2.6 0 1.4-1.2 2.5-2.6 2.5ZM211.5 86.5c-1.4 0-2.5-1.2-2.5-2.5 0-1.4 1.2-2.5 2.5-2.5 1.5 0 2.7 1.2 2.6 2.7 0 1.4-1.2 2.4-2.6 2.4ZM388.5 457.9c1.4 0 2.6 1 2.7 2.4 0 1.3-1 2.6-2.4 2.7-1.5 0-2.7-1-2.8-2.5 0-1.4 1.1-2.5 2.5-2.6ZM167.2 463c-1.4 0-2.6-1.1-2.6-2.4 0-1.5 1.2-2.7 2.6-2.6 1.4 0 2.5 1.2 2.5 2.6 0 1.4-1.2 2.5-2.6 2.5ZM266.9 75.4c-1.4 0-2.6-1.1-2.6-2.5s1.2-2.7 2.7-2.6c1.4 0 2.5 1.2 2.5 2.6 0 1.4-1.2 2.5-2.6 2.5ZM289.1 75.4c-1.4 0-2.6-1.1-2.6-2.5s1.2-2.7 2.7-2.6c1.4 0 2.5 1.2 2.5 2.6 0 1.4-1.2 2.5-2.6 2.5ZM78.6 219.4c-1.4 0-2.5-1.2-2.5-2.6 0-1.4 1.2-2.5 2.6-2.5 1.5 0 2.7 1.2 2.6 2.7 0 1.4-1.2 2.4-2.7 2.4ZM388.6 108.6c-1.4 0-2.5-1.2-2.5-2.6 0-1.4 1.2-2.5 2.6-2.5 1.5 0 2.7 1.2 2.6 2.7 0 1.4-1.2 2.4-2.7 2.4ZM167.3 108.6c-1.4 0-2.6-1-2.7-2.4 0-1.4 1.1-2.7 2.6-2.7 1.4 0 2.5 1.1 2.5 2.5s-1.1 2.5-2.5 2.6ZM100.7 396.6c-1.4 0-2.5-1.1-2.5-2.5s1.1-2.5 2.5-2.5c1.5 0 2.7 1.2 2.6 2.7 0 1.4-1.2 2.5-2.6 2.4ZM344.4 81.4c1.4 0 2.6 1.1 2.6 2.4 0 1.4-1 2.6-2.4 2.6-1.5 0-2.8-1.1-2.8-2.5s1.2-2.5 2.5-2.5ZM455.2 175.1c-1.4 0-2.6-1-2.7-2.4 0-1.4 1.1-2.7 2.6-2.7 1.4 0 2.5 1.1 2.5 2.5s-1.1 2.5-2.5 2.6ZM488.2 269.7c1.4 0 2.5 1 2.6 2.4 0 1.4-1.1 2.5-2.4 2.6-1.4 0-2.5-1.1-2.6-2.4 0-1.3 1.1-2.5 2.5-2.5ZM244.9 70.4c1.4 0 2.5 1.2 2.4 2.6 0 1.4-1.2 2.4-2.6 2.4-1.4 0-2.5-1.2-2.4-2.6 0-1.4 1.2-2.4 2.6-2.4ZM377.7 97.5c-1.4 0-2.5-1.1-2.5-2.5s1.1-2.5 2.5-2.5 2.5 1.1 2.5 2.5-1.1 2.5-2.5 2.5ZM211.6 485.1c-1.4 0-2.6-1-2.6-2.4 0-1.3 1-2.5 2.4-2.6 1.4 0 2.6 1 2.6 2.4s-1 2.5-2.4 2.6ZM89.7 186.1c-1.4 0-2.5-1.2-2.4-2.6 0-1.4 1.2-2.4 2.6-2.4 1.4 0 2.5 1.2 2.4 2.6 0 1.4-1.2 2.4-2.6 2.4ZM178.4 97.5c-1.4 0-2.5-1-2.6-2.4 0-1.4 1-2.5 2.4-2.6 1.4 0 2.6 1 2.6 2.4 0 1.3-1.1 2.5-2.4 2.6ZM477.3 352.2c-1.4 0-2.5-1-2.6-2.4 0-1.3 1.1-2.5 2.4-2.6 1.4 0 2.5 1 2.6 2.4 0 1.4-1.1 2.5-2.4 2.6ZM67.7 274.7c-1.4 0-2.5-1-2.6-2.4 0-1.4 1-2.5 2.4-2.6 1.4 0 2.6 1 2.6 2.4 0 1.3-1.1 2.5-2.4 2.6ZM344.3 485.1c-1.4 0-2.5-1.2-2.5-2.5 0-1.4 1.2-2.4 2.6-2.4 1.4 0 2.5 1.2 2.5 2.5 0 1.4-1.2 2.5-2.6 2.4ZM288.8 496.2c-1.4 0-2.5-1.3-2.4-2.6 0-1.4 1.3-2.4 2.7-2.3 1.4 0 2.5 1.2 2.4 2.6 0 1.4-1.3 2.4-2.6 2.4ZM78.4 352.2c-1.4 0-2.5-1.3-2.4-2.6 0-1.4 1.3-2.4 2.7-2.3 1.4 0 2.5 1.2 2.4 2.6 0 1.4-1.3 2.4-2.6 2.4ZM266.8 491.2c1.4 0 2.5 1 2.6 2.4 0 1.4-1.1 2.5-2.5 2.5s-2.5-1.1-2.6-2.4c0-1.4 1.1-2.5 2.5-2.5ZM466.1 186.1c-1.4 0-2.5-1.2-2.4-2.6 0-1.4 1.2-2.4 2.6-2.4 1.4 0 2.5 1.3 2.4 2.6 0 1.4-1.3 2.4-2.6 2.4ZM488.2 291.9c1.4 0 2.5 1.1 2.5 2.5s-1.1 2.5-2.5 2.5-2.5-1.1-2.5-2.5 1.1-2.5 2.5-2.5ZM67.7 296.9c-1.4 0-2.5-1.1-2.6-2.4 0-1.4 1.1-2.5 2.5-2.5s2.5 1.1 2.6 2.4c0 1.4-1.1 2.5-2.5 2.5ZM311.3 75.4c-1.4 0-2.5-1-2.6-2.4 0-1.4 1-2.5 2.4-2.6 1.4 0 2.6 1 2.6 2.4 0 1.3-1.1 2.5-2.4 2.6ZM377.8 469.1c1.3.1 2.2 1.2 2.2 2.6 0 1.4-1.3 2.5-2.7 2.3-1.3-.1-2.3-1.3-2.2-2.6 0-1.4 1.3-2.4 2.7-2.3ZM178.2 469.1c1.3 0 2.4 1 2.4 2.3 0 1.4-1 2.6-2.4 2.6s-2.5-1.2-2.5-2.6c0-1.3 1.1-2.3 2.5-2.3ZM92.1 383c0 1.3-1.1 2.4-2.4 2.4-1.4 0-2.5-1.2-2.5-2.5 0-1.4 1.3-2.4 2.7-2.3 1.3 0 2.3 1.2 2.2 2.5ZM247.1 493.7c0 1.3-1 2.4-2.3 2.5-1.3 0-2.6-1.1-2.6-2.4 0-1.4 1.2-2.5 2.6-2.4 1.3 0 2.3 1.1 2.3 2.4ZM468.5 382.9c0 1.4-1 2.6-2.4 2.6-1.3 0-2.4-1.1-2.5-2.3 0-1.3 1.1-2.5 2.5-2.5 1.3 0 2.4 1 2.4 2.3ZM67.7 247.6c1.3 0 2.4 1.1 2.4 2.4 0 1.3-1.1 2.5-2.5 2.5s-2.4-1.2-2.4-2.6c0-1.3 1.1-2.3 2.5-2.3ZM313.5 493.6c0 1.4-1.1 2.6-2.5 2.5-1.3 0-2.4-1.1-2.4-2.4 0-1.4 1.1-2.5 2.5-2.5 1.3 0 2.4 1 2.4 2.3ZM485.9 250.1c0-1.3 1-2.4 2.3-2.4 1.4 0 2.6 1 2.6 2.4 0 1.3-1.2 2.5-2.6 2.5-1.3 0-2.3-1.1-2.3-2.4ZM67.5 314.1c1.3 0 2.4.9 2.4 2.3s-1 2.6-2.4 2.6-2.5-1.2-2.5-2.5 1.1-2.3 2.4-2.3ZM490.7 316.4c0 1.4-1 2.6-2.4 2.6-1.3 0-2.4-1.1-2.4-2.3 0-1.3 1.1-2.5 2.5-2.5 1.3 0 2.4 1 2.4 2.3ZM479.5 372c0 1.3-1.2 2.4-2.5 2.3-1.3 0-2.3-1.2-2.3-2.5s1.2-2.3 2.5-2.3 2.3 1.1 2.3 2.5ZM364.2 83.9c0-1.3 1.1-2.4 2.4-2.3 1.3 0 2.4 1.1 2.3 2.4 0 1.3-1.2 2.4-2.4 2.3-1.3 0-2.3-1.1-2.3-2.5ZM331 72.9c0-1.3 1-2.4 2.4-2.4 1.3 0 2.4 1.1 2.4 2.4 0 1.3-1.1 2.4-2.4 2.4-1.3 0-2.4-1.1-2.3-2.4ZM69.9 338.6c0 1.3-1.1 2.4-2.3 2.4-1.3 0-2.4-1.1-2.4-2.4 0-1.3 1.1-2.4 2.4-2.4 1.3 0 2.4 1 2.4 2.4ZM490.6 338.6c0 1.3-1.1 2.4-2.3 2.4-1.3 0-2.4-1.1-2.4-2.4 0-1.3 1.1-2.4 2.4-2.4 1.3 0 2.4 1 2.4 2.4ZM486 227.9c0-1.3 1-2.4 2.4-2.4 1.3 0 2.4 1.1 2.4 2.4 0 1.3-1.1 2.4-2.4 2.4-1.3 0-2.4-1.1-2.3-2.4ZM76.3 194.8c0-1.3.9-2.4 2.3-2.5 1.3 0 2.4 1 2.5 2.3 0 1.3-1 2.4-2.3 2.5-1.3 0-2.4-1-2.5-2.3ZM189.5 81.6c1.3 0 2.4 1.1 2.3 2.4 0 1.3-1.2 2.4-2.4 2.3-1.3 0-2.3-1.1-2.3-2.5 0-1.3 1.1-2.4 2.4-2.3ZM65.3 228c0-1.3 1-2.4 2.3-2.4 1.3 0 2.4 1 2.4 2.3 0 1.3-1 2.4-2.3 2.5-1.3 0-2.4-1-2.4-2.3ZM474.9 194.8c0-1.4.9-2.4 2.2-2.5 1.3 0 2.4 1 2.5 2.3 0 1.3-1 2.4-2.3 2.5-1.3 0-2.4-1-2.5-2.3ZM220.3 72.8c0-1.3 1.1-2.4 2.4-2.3 1.3 0 2.4 1.1 2.3 2.4 0 1.3-1.2 2.4-2.4 2.4-1.3 0-2.3-1.1-2.3-2.4ZM457.4 150.4c0 1.2-1 2.3-2.2 2.3-1.3 0-2.4-1-2.4-2.3 0-1.2 1-2.3 2.2-2.3 1.3 0 2.4 1 2.4 2.3ZM335.5 493.8c0 1.2-1 2.2-2.3 2.3-1.3 0-2.4-1.1-2.3-2.4 0-1.3 1-2.2 2.2-2.3 1.3 0 2.4 1.1 2.3 2.4ZM419.6 117.2c0-1.2 1-2.3 2.2-2.3 1.3 0 2.4 1 2.4 2.3 0 1.2-1 2.3-2.2 2.4-1.3 0-2.4-1-2.4-2.3ZM136.3 117.2c0 1.2-1 2.2-2.2 2.3-1.3 0-2.4-1.1-2.3-2.4 0-1.2 1-2.2 2.2-2.3 1.3 0 2.4 1.1 2.3 2.4ZM125.3 128.3c0 1.2-1 2.3-2.2 2.3-1.3 0-2.4-1.1-2.4-2.4 0-1.2 1-2.2 2.2-2.3 1.3 0 2.4 1 2.4 2.4ZM435.3 128.1c0 1.3-1 2.4-2.3 2.4-1.2 0-2.2-1-2.3-2.2 0-1.3 1-2.4 2.3-2.4 1.2 0 2.2 1 2.3 2.2ZM114.2 139.4c0 1.2-1.1 2.2-2.3 2.2-1.3 0-2.3-1.1-2.3-2.4 0-1.2 1.1-2.2 2.3-2.2 1.3 0 2.3 1.1 2.3 2.4ZM446.3 139.2c0 1.3-1 2.4-2.3 2.4-1.2 0-2.2-1-2.3-2.2 0-1.3 1-2.4 2.3-2.4 1.2 0 2.2 1 2.3 2.2ZM103.1 150.5c0 1.2-1.1 2.2-2.3 2.2-1.3 0-2.3-1.1-2.3-2.4 0-1.2 1.1-2.2 2.3-2.2 1.3 0 2.3 1.1 2.3 2.4ZM424.1 449.5c0 1.2-1.1 2.2-2.3 2.2-1.3 0-2.3-1.1-2.3-2.4 0-1.2 1-2.2 2.3-2.2 1.3 0 2.4 1.1 2.3 2.4ZM131.7 449.5c0-1.3 1-2.4 2.3-2.4 1.2 0 2.2 1 2.3 2.2 0 1.3-1 2.4-2.3 2.4-1.2 0-2.2-1-2.3-2.2ZM368.7 482.8c0 1.2-1.1 2.2-2.3 2.2-1.3 0-2.3-1.2-2.2-2.5 0-1.2 1.1-2.2 2.3-2.2 1.3 0 2.3 1.2 2.2 2.5ZM220.2 493.8c0-1.3 1-2.4 2.3-2.4 1.2 0 2.2 1 2.3 2.2 0 1.3-1 2.4-2.3 2.4-1.2 0-2.2-1-2.3-2.2ZM280.3 61.8c0 1.2-.9 2.3-2.2 2.4-1.3 0-2.4-1-2.4-2.3 0-1.3 1.1-2.4 2.4-2.4 1.2 0 2.2 1.1 2.2 2.3ZM435.2 438.4c0 1.2-1 2.2-2.2 2.3-1.3 0-2.4-1-2.4-2.4 0-1.2 1-2.2 2.2-2.3 1.3 0 2.4 1.1 2.4 2.4ZM187 482.7c0-1.3 1-2.4 2.3-2.4 1.2 0 2.2 1 2.3 2.2 0 1.3-1 2.4-2.3 2.4-1.2 0-2.2-1-2.3-2.2ZM413.1 106.1c0 1.2-1 2.3-2.2 2.3-1.3 0-2.4-1.1-2.4-2.4 0-1.2 1-2.3 2.2-2.3 1.3 0 2.4 1 2.4 2.3ZM125.2 438.3c0 1.3-1.1 2.4-2.4 2.3-1.2 0-2.2-1.1-2.2-2.3 0-1.3 1.1-2.4 2.4-2.3 1.2 0 2.2 1.1 2.2 2.3ZM441.7 427.2c0-1.2 1-2.2 2.2-2.3 1.3 0 2.4 1.1 2.4 2.4 0 1.2-1 2.2-2.2 2.3-1.3 0-2.4-1-2.4-2.4ZM80.9 371.9c0 1.3-1.2 2.4-2.4 2.3-1.2 0-2.2-1.1-2.2-2.4 0-1.3 1.1-2.4 2.4-2.3 1.2 0 2.2 1.1 2.2 2.3ZM109.5 427.3c0-1.3 1-2.4 2.3-2.4 1.2 0 2.2 1 2.3 2.2 0 1.3-1 2.4-2.3 2.4-1.2 0-2.2-1-2.3-2.2ZM147.4 106.2c0 1.2-1 2.2-2.3 2.3-1.3 0-2.4-1.1-2.3-2.4 0-1.2 1-2.2 2.3-2.3 1.3 0 2.4 1.1 2.3 2.4ZM258.1 61.9c0 1.3-1.1 2.2-2.3 2.1-1.2 0-2.2-1.1-2.2-2.3 0-1.2 1.2-2.2 2.3-2.2 1.2 0 2.2 1.1 2.1 2.4ZM408.5 460.4c0-1.2 1.1-2.2 2.3-2.2 1.2 0 2.2 1.2 2.2 2.3 0 1.2-1.1 2.2-2.3 2.1-1.3 0-2.2-1-2.1-2.3ZM145.1 458.2c1.2 0 2.2 1.1 2.2 2.3 0 1.2-1.1 2.2-2.3 2.2-1.3 0-2.2-1-2.1-2.3 0-1.2 1.1-2.2 2.3-2.2ZM497.1 305.4c0-1.2 1-2.3 2.2-2.3 1.2 0 2.3 1 2.3 2.2 0 1.2-1 2.2-2.2 2.3-1.3 0-2.2-.9-2.3-2.2ZM54.2 305.5c0-1.2.9-2.3 2.1-2.4 1.2 0 2.3 1 2.3 2.2 0 1.2-.9 2.3-2.2 2.3-1.3 0-2.3-.9-2.3-2.1ZM302.4 61.8c0 1.3-1 2.2-2.2 2.2-1.2 0-2.3-1-2.2-2.2 0-1.2 1-2.3 2.2-2.3 1.2 0 2.2 1 2.2 2.3ZM69.8 205.8c0 1.3-1 2.2-2.3 2.2-1.3 0-2.2-1-2.2-2.3 0-1.2 1.1-2.2 2.3-2.2 1.2 0 2.2 1.1 2.2 2.3ZM490.6 205.7c0 1.3-.9 2.2-2.2 2.3-1.2 0-2.3-1-2.3-2.2 0-1.2 1-2.3 2.2-2.3 1.2 0 2.2 1 2.3 2.2ZM452.8 416.2c0-1.2 1-2.3 2.2-2.3 1.2 0 2.2 1.1 2.2 2.3 0 1.2-1 2.2-2.3 2.2-1.3 0-2.2-1-2.2-2.2ZM499.3 281c1.2 0 2.3 1 2.3 2.2 0 1.2-.9 2.3-2.2 2.3-1.3 0-2.3-.9-2.3-2.2 0-1.2.9-2.3 2.2-2.3ZM58.8 283.3c0 1.3-1 2.2-2.2 2.2-1.2 0-2.3-1-2.2-2.2 0-1.2 1-2.3 2.2-2.3 1.2 0 2.2 1 2.2 2.3ZM402 95c0 1.3-.9 2.2-2.2 2.3-1.2 0-2.3-1-2.3-2.2 0-1.2 1-2.3 2.2-2.3 1.2 0 2.2 1 2.2 2.2ZM100.8 413.9c1.2 0 2.2 1.1 2.2 2.3 0 1.2-1.1 2.2-2.3 2.2-1.3 0-2.2-1-2.1-2.3 0-1.2 1.1-2.2 2.3-2.2ZM357.7 72.8c0 1.3-.9 2.3-2.2 2.3-1.2 0-2.3-1-2.3-2.2 0-1.2 1-2.3 2.2-2.3 1.2 0 2.2 1 2.3 2.2ZM158.4 95c0 1.3-.9 2.2-2.2 2.2-1.2 0-2.3-1-2.3-2.2 0-1.2 1-2.3 2.2-2.3 1.2 0 2.2 1 2.2 2.3ZM202.7 72.9c0 1.3-1.1 2.2-2.3 2.1-1.2 0-2.2-1.1-2.2-2.3 0-1.2 1.2-2.2 2.3-2.2 1.2 0 2.2 1.1 2.1 2.4ZM58.8 261.2c0 1.3-1 2.2-2.3 2.2-1.3 0-2.2-1-2.2-2.3 0-1.2 1.1-2.2 2.3-2.2 1.2 0 2.2 1.1 2.2 2.3ZM501.6 261.1c0 1.3-.9 2.2-2.2 2.3-1.2 0-2.3-1-2.3-2.2 0-1.2 1-2.3 2.2-2.3 1.2 0 2.2 1 2.3 2.2ZM255.7 502.5c1.2 0 2.2 1.1 2.2 2.3 0 1.2-1 2.2-2.2 2.2-1.3 0-2.2-1-2.2-2.2 0-1.2 1-2.3 2.2-2.3ZM277.9 502.5c1.2 0 2.2 1.1 2.2 2.3 0 1.2-1 2.2-2.3 2.2-1.3 0-2.2-1-2.2-2.2 0-1.2 1-2.3 2.2-2.3ZM297.8 504.9c0-1.2.9-2.3 2.1-2.4 1.2 0 2.3 1 2.3 2.2 0 1.2-.9 2.3-2.1 2.3-1.3 0-2.3-.9-2.3-2.1ZM468.4 161.4c0 1.3-.9 2.3-2.1 2.3-1.2 0-2.3-.9-2.3-2.1 0-1.2 1-2.3 2.2-2.3 1.2 0 2.3.9 2.3 2.2ZM92 161.4c0 1.3-.9 2.3-2.1 2.3-1.2 0-2.3-.9-2.3-2.1 0-1.2 1-2.3 2.2-2.4 1.2 0 2.3.9 2.3 2.2ZM89.5 407.2c-1.2 0-2-1-2-2.2 0-1.2 1.1-2.2 2.3-2.1 1.1 0 2.1 1.1 2.1 2.2 0 1.2-1.1 2.2-2.3 2.1ZM399.6 473.7c-1.2 0-2.1-.9-2.1-2.1 0-1.2 1-2.3 2.2-2.2 1.1 0 2.1 1 2.1 2.1 0 1.2-1 2.2-2.3 2.2ZM355.3 495.8c-1.2 0-2.1-.9-2.1-2.1 0-1.2 1-2.3 2.3-2.2 1.1 0 2.1 1.1 2.1 2.2 0 1.2-1 2.2-2.3 2.2ZM233.8 63.9c-1.3 0-2.3-.9-2.3-2.2 0-1.1 1-2.1 2.1-2.2 1.2 0 2.3 1 2.3 2.2 0 1.2-.9 2.1-2.1 2.1ZM67.5 362.9c-1.2 0-2.1-.9-2.1-2.1 0-1.2 1-2.3 2.2-2.3 1.1 0 2.1 1 2.2 2.1 0 1.2-1 2.2-2.2 2.2ZM499.4 241.1c-1.2 0-2.1-.9-2.2-2.1 0-1.2 1-2.3 2.2-2.3 1.2 0 2.2 1.1 2.1 2.3 0 1.2-1 2-2.2 2ZM56.6 241.1c-1.3 0-2.3-.9-2.3-2.2 0-1.1 1-2.1 2.1-2.2 1.2 0 2.3 1 2.3 2.2 0 1.2-.9 2.1-2.1 2.1ZM488.2 362.9c-1.2 0-2.1-.9-2.1-2.1 0-1.2 1-2.3 2.2-2.2 1.1 0 2.1 1 2.1 2.1 0 1.2-1 2.2-2.3 2.2ZM233.6 506.9c-1.2 0-2.1-.9-2.2-2 0-1.2.9-2.3 2.2-2.3 1.2 0 2.3 1.1 2.2 2.3 0 1.1-1 2-2.2 2.1ZM322.1 506.9c-1.2 0-2.1-1-2.1-2.1 0-1.2 1.1-2.3 2.3-2.2 1.1 0 2.1 1.1 2.1 2.2 0 1.2-1 2.2-2.3 2.2ZM322.2 63.9c-1.2 0-2.1-.9-2.2-2.1 0-1.2 1-2.3 2.2-2.3 1.2 0 2.2 1.1 2.1 2.3 0 1.2-1 2-2.2 2ZM56.3 329.7c-1.2 0-2.1-1-2.1-2.1 0-1.2 1.1-2.3 2.3-2.2 1.1 0 2.1 1.1 2.1 2.2 0 1.2-1 2.2-2.3 2.2ZM466.1 407.2c-1.2 0-2.1-.8-2.2-2 0-1.2.9-2.3 2.1-2.3 1.2 0 2.3 1.1 2.2 2.3 0 1.1-1 2.1-2.2 2.1ZM499.2 329.7c-1.2 0-2.1-1-2.1-2.1 0-1.2 1.1-2.3 2.3-2.2 1.1 0 2.1 1.1 2.1 2.2 0 1.2-1 2.2-2.3 2.2ZM200.3 495.8c-1.2 0-2.1-1-2-2.2 0-1.2 1.1-2.2 2.3-2.2 1.1 0 2.1 1.1 2.1 2.2 0 1.2-1.1 2.2-2.3 2.1ZM156 473.7c-1.2 0-2.1-1-2.1-2.1 0-1.2 1.1-2.3 2.3-2.2 1.1 0 2.1 1.1 2.1 2.2 0 1.2-1 2.2-2.3 2.1ZM390.7 482.6c0 1.1-1 2.1-2.1 2.1-1.2 0-2.1-.9-2.1-2.1 0-1.1.9-2.1 2.1-2.1 1.2 0 2.1.9 2.1 2.1ZM479.4 172.6c0 1.1-1 2.1-2.2 2-1.2 0-2.1-1-2.1-2.1 0-1.2 1-2.1 2.2-2 1.2 0 2.1 1 2.1 2.1ZM78.7 392c1.2 0 2.1 1 2 2.2 0 1.1-1.1 2-2.2 2-1.2 0-2.1-1-2-2.2 0-1.2 1-2 2.2-2ZM390.8 84c0 1.1-1 2.1-2.1 2.1-1.2 0-2.1-1-2.1-2.1s1-2.1 2.1-2.1c1.2 0 2.1 1 2.1 2.1ZM479.3 394c0 1.1-1 2.1-2.1 2.1-1.2 0-2.1-.9-2.1-2.1 0-1.1.9-2.1 2.1-2.1 1.2 0 2.1.9 2.1 2.1ZM167.2 86c-1.2 0-2.1-1-2-2.2 0-1.2 1-2 2.2-2 1.2 0 2.1 1 2 2.2 0 1.2-1 2-2.2 2ZM80.8 172.5c0 1.1-1 2.1-2.1 2.1-1.2 0-2.1-1-2.1-2.1s1-2.1 2.1-2.1c1.2 0 2.1.9 2.1 2.1ZM169.3 482.5c0 1.1-.9 2.1-2 2.2-1.2 0-2.2-.8-2.2-2 0-1.1.8-2.1 2-2.2 1.2 0 2.2.8 2.2 2ZM56.6 214.8c1.1 0 2 .9 2 2s-1 2.1-2.1 2c-1.1 0-1.9-.9-1.9-2 0-1.2.9-2.1 2.1-2ZM346.5 61.8c0 1.1-1 2.1-2.2 2-1.1 0-1.9-1-1.9-2 0-1.1.8-2 1.9-2 1.2 0 2.2.9 2.2 2ZM69.7 183.7c0 1.1-1.1 2-2.3 1.9-1 0-1.9-1.1-1.8-2.1 0-1.2 1-2 2.2-1.9 1.1 0 1.9 1.1 1.9 2.1ZM499.4 218.9c-1.1 0-1.9-.9-2-2 0-1.2.9-2.1 2.1-2.1 1.1 0 2 .9 2 2s-1 2.1-2.1 2.1ZM486.3 183.6c0-1.1.8-2 1.9-2 1.2 0 2.2.8 2.2 2 0 1.1-1 2.1-2.1 2-1.1 0-1.9-.9-1.9-2ZM346.3 504.8c0 1.1-.9 2-1.9 2-1.1 0-2.2-.9-2.2-2s1-2.1 2.2-2c1.1 0 1.9.9 1.9 2ZM58.5 349.7c0 1.1-.9 2-1.9 2-1.1 0-2.2-.9-2.2-2s1-2.1 2.2-2c1.1 0 1.9.9 1.9 2ZM501.3 349.8c0 1.1-.9 1.9-2 1.9s-2.1-1-2.1-2.1 1.1-2 2.2-1.9c1.1 0 1.9 1 1.8 2.1ZM213.5 504.7c0 1.1-.8 2-1.8 2.1-1.1.1-2.2-.8-2.2-1.9 0-1.1.9-2.1 2.1-2.1 1.1 0 2 .8 2 1.9ZM377.7 74.9c-1.1 0-2-.8-2.1-1.9-.1-1.2.8-2.1 2-2.2 1.1 0 2 .8 2.1 1.8.1 1.1-.8 2.2-2 2.2ZM178.3 70.9c1.2 0 2.1 1 2.1 2.1 0 1-1 1.9-2 1.9-1.2 0-2.1-1-2-2.1 0-1.1.9-1.9 2-1.9ZM289.2 48.7c1.1 0 2 .9 2 2s-1 2.1-2.2 2c-1.1 0-1.9-1-1.9-2 0-1.2 1-2.1 2.1-2ZM267 52.8c-1.1 0-2-.8-2.1-1.8-.1-1.2.8-2.2 1.9-2.2 1.1 0 2 .7 2.1 1.8.1 1.1-.8 2.2-2 2.2ZM211.6 63.8c-1.1 0-2-.8-2.1-1.9 0-1.2.8-2.1 2-2.2 1.1 0 2 .8 2.1 1.8.1 1.1-.9 2.2-2 2.2ZM244.8 48.8c1.1 0 2 .9 1.9 2 0 1-1 2-2 1.9-1.1 0-1.9-.9-1.9-2s.9-1.9 2-1.9ZM111.9 115.2c1.1 0 2 .9 2 1.9 0 1-.9 2-1.9 2-1 0-1.9-.9-2-1.9 0-1.1.8-2 1.9-2ZM45.6 292.4c1.1 0 1.9 1 1.9 2s-1 1.9-2.1 1.9-1.9-1-1.8-2.1c0-1.1.9-1.9 2-1.9ZM45.5 252c-1.1 0-1.9-.9-1.9-2s.8-2 1.9-1.9c1.1 0 2 .9 2 2 0 1-.9 2-2 2ZM180.2 493.7c0 1.1-.9 2-1.9 2-1 0-2-.9-2-2 0-1 .9-1.9 2-1.9s1.9.9 1.9 2ZM512.3 316.6c0 1.1-1 1.9-2 1.9s-1.9-1.1-1.9-2.1c0-1.1 1-1.9 2.1-1.8 1.1 0 1.9.9 1.8 2ZM47.3 316.4c0 1.1-.7 2-1.8 2.1-1 0-2-.8-2.1-1.9 0-1 .8-2 1.8-2.1 1.1 0 2 .7 2 1.8ZM122.9 108.1c-1.1 0-1.9-1-1.8-2.1 0-1.1.9-1.9 2-1.8 1.1 0 1.9 1 1.8 2.1 0 1-1.1 1.9-2.1 1.9ZM435 106.2c0 1-1 1.9-2 1.9-1.1 0-1.9-1-1.8-2 0-1.1.9-1.9 2-1.9s1.9 1 1.9 2ZM512.3 294.2c0 1.1-.7 2-1.8 2.1-1 0-2-.8-2.1-1.9 0-1 .8-2 1.8-2.1 1.1 0 2 .7 2 1.8ZM313.2 50.7c0 1-1 2-2 2-1.1 0-1.9-.9-1.9-2s.9-2 1.9-1.9c1.1 0 2 .9 2 2ZM377.5 495.7c-1 0-1.9-1-1.9-2 0-1.1 1-1.9 2-1.9 1.1 0 1.9.9 1.9 2s-1 2-2 1.9ZM512.3 272.2c0 1.1-.9 2-1.9 2-1 0-2-.9-2-2 0-1 .9-1.9 2-1.9s1.9.9 1.9 2ZM510.5 248.1c1.1 0 2 .9 2 2 0 1-1 2-2 2-1.1 0-1.9-.9-1.9-2s.9-2 1.9-1.9ZM45.5 270.3c1.1 0 1.9 1 1.9 2s-1 1.9-2 1.9c-1.1 0-1.9-.9-1.9-2s.9-1.9 2-1.9ZM289.1 513.9c1.1 0 1.9.9 1.8 2.1 0 1.1-1 1.9-2 1.9s-1.9-1.1-1.9-2.1c0-1.1 1-1.9 2.1-1.8ZM455 130.2c-1.1 0-1.9-1-1.8-2.1 0-1.1.9-1.9 2-1.8 1.1 0 1.9 1 1.8 2.1 0 1-1.1 1.9-2.1 1.9ZM102.8 128.1c0 1-.8 2-1.9 2.1-1 0-2-.8-2-1.9 0-1.1.7-2 1.8-2s2 .8 2.1 1.8ZM444 119.1c-1.1 0-1.9-1-1.8-2.1 0-1.1.9-1.9 2-1.8 1.1 0 1.9 1 1.8 2.1 0 1-1.1 1.9-2.1 1.9ZM490.2 382.9c0 1.1-.8 2-1.8 2s-2-.9-2-1.9c0-1.1.8-2 1.9-2 1.1 0 2 .8 2 1.9ZM67.5 381c1.1 0 1.9.8 1.9 1.9 0 1.1-.9 2-1.9 2-1 0-2-.9-2-2 0-1 .9-1.9 2-2ZM266.9 517.8c-1 0-2-.9-2-1.9 0-1 .8-2 1.9-2 1.1 0 2 .8 2 1.9 0 1.1-.8 2-1.9 2ZM91.5 427.3c0 1-.8 1.8-1.8 1.8-1.1 0-1.9-.9-1.9-2 0-1 .8-1.8 1.8-1.8 1.1 0 1.9.9 1.9 2ZM246.5 515.8c0 1.1-.9 2-2 1.9-1 0-1.7-.9-1.7-1.9 0-1.1.9-2 2-1.9 1 0 1.7.9 1.7 1.9ZM100.7 440.2c-1 0-1.8-.8-1.8-1.8 0-1.1.8-2 1.8-2s1.8.8 1.8 1.8c0 1.1-.8 2-1.8 2ZM366.5 63.7c-1.1 0-1.9-1-1.8-2 0-1 .9-1.8 1.9-1.7 1.1 0 1.9.9 1.8 2 0 1-.9 1.8-1.9 1.7ZM456.9 438.3c0 1.1-.9 2-2 1.9-1 0-1.7-.9-1.7-1.9 0-1.1.9-2 2-1.9 1 0 1.7.9 1.7 1.9ZM191.3 61.9c0 1-.9 1.8-1.8 1.8-1.1 0-1.9-.9-1.9-2 0-1 .9-1.8 1.8-1.8 1.1 0 1.9.9 1.9 2ZM133.8 469.7c1 0 1.8.7 1.9 1.7.1 1.1-.7 2-1.7 2.1-1 0-1.8-.7-1.9-1.7-.1-1.1.7-2 1.7-2.1ZM434.7 460.5c0 1.1-.9 2-2 1.9-1 0-1.7-.9-1.7-1.9 0-1.1.9-2 2-1.9 1 0 1.7.9 1.7 1.9ZM124.7 460.5c0 1.1-.9 2-2 1.9-1 0-1.7-.9-1.7-1.9 0-1.1.9-2 2-1.9 1 0 1.7.9 1.7 1.9ZM91.6 139.3c0 1-.8 1.8-1.8 1.9-1 0-2-.8-2-1.9 0-1 .8-1.8 1.8-1.9 1.1 0 2 .8 2 1.9ZM466.3 137.4c1.1 0 1.9 1 1.8 2.1 0 1-1 1.8-1.9 1.7-1.1 0-1.9-1-1.8-2.1 0-1 1-1.7 1.9-1.7ZM423.7 471.6c0 1-.9 1.8-1.8 1.8-1.1 0-1.9-.9-1.9-2 0-1 .8-1.8 1.8-1.8 1.1 0 1.9.9 1.9 2ZM313 515.9c0 1-.9 1.8-1.8 1.8-1.1 0-1.9-.9-1.9-2 0-1 .8-1.8 1.8-1.8 1.1 0 1.9.9 1.9 2ZM56.5 196.6c-1.1 0-1.9-.9-1.8-2 0-1 .9-1.8 1.9-1.8 1.1 0 1.9.9 1.8 2 0 1-.9 1.8-1.9 1.8ZM335.2 50.6c0 1.1-.8 2-1.9 2-1 0-1.8-.8-1.8-1.8 0-1.1.8-2 1.9-2 1 0 1.8.8 1.8 1.8ZM501.3 194.7c0 1-.8 1.8-1.8 1.9-1 0-1.9-.9-1.9-1.9 0-1 .8-1.8 1.8-1.8 1.1 0 1.9.8 1.9 1.9ZM444 451.3c-1 0-1.8-.8-1.9-1.8 0-1.1.7-2 1.8-2 1 0 1.8.8 1.9 1.8 0 1.1-.8 2-1.8 2ZM111.9 451.3c-1 0-1.8-.7-1.9-1.7-.1-1.1.7-2 1.7-2.1 1 0 1.8.7 1.9 1.7.1 1.1-.7 2-1.7 2.1ZM466.2 429.1c-1 0-1.8-.7-1.9-1.7 0-1.1.7-2 1.8-2.1 1 0 1.8.7 1.9 1.7 0 1.1-.7 2-1.8 2.1ZM134.1 96.9c-1 0-1.8-.7-1.9-1.7 0-1.1.7-2 1.8-2.1 1 0 1.8.7 1.9 1.7 0 1.1-.7 2-1.8 2.1ZM423.8 95c0 1-.8 1.8-1.7 1.9-1 0-2-.8-2-1.9 0-1.1.9-2 1.9-1.9 1 0 1.8.9 1.8 1.9ZM222.6 48.8c1 0 1.8.8 1.9 1.8 0 1.1-.8 2-1.8 2-1.1 0-1.9-.9-1.9-2 0-1 .9-1.8 1.8-1.8ZM477.3 152.2c-1 0-1.9-.8-1.8-1.8 0-1 .9-1.8 1.9-1.8.9 0 1.7.8 1.7 1.7 0 1.1-.7 1.9-1.7 1.9ZM410.8 82.1c1 0 1.8.8 1.8 1.8 0 .9-.7 1.7-1.6 1.8-1 0-1.9-.7-1.9-1.7s.8-1.9 1.8-1.9ZM45.4 340.4c-1 0-1.8-.8-1.8-1.8 0-.9.7-1.7 1.6-1.8.9 0 1.9.7 1.9 1.7s-.7 1.8-1.8 1.9ZM501.1 372c0 1-1 1.7-2 1.7s-1.7-1-1.6-2c.1-.9.9-1.6 1.8-1.6 1 0 1.8.9 1.7 1.9ZM58.2 371.8c0 1-.8 1.8-1.8 1.8s-1.7-.7-1.8-1.6c0-1 .7-1.9 1.7-2 1 0 1.9.8 1.9 1.8ZM510.4 340.4c-1 0-1.8-.8-1.8-1.8 0-.9.8-1.7 1.7-1.7 1 0 1.9.8 1.9 1.8s-.8 1.8-1.8 1.8ZM510.5 229.7c-1 0-1.8-.8-1.8-1.8s1-1.8 1.9-1.7c.9 0 1.6.8 1.7 1.8 0 1-.7 1.8-1.8 1.8ZM78.7 148.6c1 0 1.8.9 1.7 1.9 0 1-.9 1.8-1.9 1.7-.9 0-1.6-.9-1.6-1.8 0-1 .9-1.8 1.8-1.8ZM43.7 228c0-1 .8-1.9 1.8-1.9s1.8.8 1.8 1.8c0 .9-.7 1.7-1.6 1.8-1 0-1.9-.7-2-1.7ZM80.4 416.1c0 1-.7 1.8-1.7 1.9-1 0-1.7-.6-1.8-1.6 0-1 .6-1.9 1.6-2 .9 0 1.9.7 1.9 1.7ZM479 416.2c0 1-.9 1.8-1.9 1.7-.9 0-1.6-.8-1.7-1.7 0-1 .8-1.9 1.8-1.9s1.8.9 1.8 1.8ZM335 515.8c0 1-.8 1.8-1.8 1.8s-1.7-.7-1.8-1.6c0-1 .7-1.9 1.7-2 1 0 1.9.8 1.9 1.7ZM222.5 517.6c-1 0-1.8-.8-1.7-1.9 0-.9.8-1.7 1.7-1.7 1 0 1.8.8 1.8 1.8s-.8 1.8-1.8 1.8ZM146.9 83.9c0 1-.8 1.8-1.8 1.8-.9 0-1.7-.8-1.7-1.7 0-1 .8-1.9 1.8-1.9s1.8.8 1.8 1.8ZM366.5 506.5c-1 0-1.8-.7-1.8-1.8 0-1 .8-1.9 1.8-1.8.9 0 1.7.8 1.7 1.7 0 1-.7 1.9-1.7 1.9ZM189.3 506.5c-1 0-1.8-.8-1.8-1.8 0-.9.8-1.7 1.7-1.7 1 0 1.9.8 1.9 1.8s-.8 1.8-1.8 1.8ZM412.5 482.6c0 1-.8 1.8-1.8 1.8-.9 0-1.7-.7-1.7-1.7s.7-1.9 1.7-1.9 1.8.8 1.8 1.8ZM144.9 480.8c1 0 1.9.8 1.9 1.7 0 .9-.6 1.7-1.6 1.8-1 .1-1.9-.6-2-1.6 0-1 .7-1.9 1.7-2ZM488.4 163.1c-.9 0-1.7-.7-1.8-1.6 0-.9.8-1.8 1.8-1.8.9 0 1.7.8 1.7 1.7 0 .9-.7 1.7-1.6 1.7ZM69.2 405.2c0 .9-.9 1.6-1.8 1.6-1 0-1.8-.9-1.7-1.9.1-.9.9-1.6 1.8-1.5.9 0 1.6.9 1.6 1.8ZM490 405c0 .9-.7 1.7-1.6 1.7-.9 0-1.7-.6-1.8-1.5 0-1 .7-1.9 1.7-1.9.9 0 1.7.8 1.7 1.6ZM277.9 37.9c.9 0 1.7.7 1.8 1.6 0 .9-.6 1.7-1.5 1.8-1 0-1.9-.7-1.9-1.7 0-.9.8-1.7 1.7-1.7ZM301.8 39.6c0 .9-.7 1.7-1.6 1.7-1 0-1.9-.8-1.8-1.7 0-.9.8-1.6 1.7-1.6.9 0 1.7.7 1.7 1.7ZM255.8 41.3c-.9 0-1.7-.8-1.7-1.7 0-.9.8-1.7 1.7-1.7 1 0 1.8.8 1.8 1.8 0 .9-.8 1.6-1.8 1.6ZM69.3 161.6c0 .9-.8 1.6-1.8 1.6-.9 0-1.7-.8-1.7-1.7 0-1 .9-1.8 1.9-1.7.9 0 1.6.9 1.5 1.8ZM156.2 74.5c-.9 0-1.7-.7-1.8-1.6 0-.9.9-1.8 1.8-1.8s1.6.8 1.6 1.7c0 .9-.7 1.6-1.7 1.6ZM399.8 495.4c-.9 0-1.7-.6-1.8-1.5 0-1 .7-1.9 1.7-1.8.9 0 1.7.8 1.7 1.7 0 .9-.7 1.7-1.6 1.7ZM401.5 72.9c0 .9-.7 1.6-1.7 1.7-.9 0-1.7-.7-1.8-1.6 0-.9.8-1.8 1.8-1.8.9 0 1.6.8 1.6 1.7ZM523.2 283.2c0 .9-.7 1.7-1.6 1.8-.9 0-1.7-.6-1.8-1.5-.1-1 .7-1.9 1.7-1.9.9 0 1.7.7 1.7 1.6ZM36.1 283.2c0 .9-.7 1.7-1.6 1.7-.9 0-1.7-.6-1.8-1.5 0-.9.8-1.9 1.7-1.8.9 0 1.7.8 1.7 1.7ZM357 515.8c0 .8-.7 1.6-1.5 1.6-.9 0-1.7-.7-1.8-1.6 0-.9.8-1.6 1.7-1.6.8 0 1.5.7 1.5 1.6ZM202.1 50.8c0 .9-.9 1.6-1.8 1.5-.8 0-1.5-.8-1.4-1.7 0-.9.9-1.6 1.8-1.5.8 0 1.5.8 1.5 1.6ZM510.4 359.2c.8 0 1.5.7 1.6 1.5 0 .9-.7 1.7-1.7 1.7-.8 0-1.5-.7-1.6-1.5 0-.9.7-1.7 1.7-1.7ZM47 360.7c0 .8-.6 1.6-1.4 1.7-.9.1-1.8-.6-1.8-1.5s.7-1.7 1.6-1.7c.9 0 1.6.6 1.6 1.5ZM235.3 39.5c0 .9-.7 1.7-1.6 1.7-.8 0-1.5-.7-1.6-1.5 0-.8.6-1.6 1.4-1.7.9-.1 1.8.6 1.8 1.5ZM301.6 526.8c0 .8-.6 1.6-1.4 1.7-.9.1-1.8-.6-1.8-1.5s.7-1.7 1.6-1.7c.9 0 1.6.6 1.6 1.5ZM357.1 50.8c0 .9-.9 1.6-1.8 1.6-.8 0-1.5-.8-1.5-1.6 0-.9.8-1.6 1.8-1.6.8 0 1.5.8 1.5 1.6ZM279.5 526.9c0 .8-.6 1.6-1.4 1.7-.9 0-1.8-.6-1.8-1.5s.7-1.7 1.7-1.6c.8 0 1.5.7 1.6 1.5ZM523.2 261.1c0 .9-.8 1.7-1.7 1.6-.8 0-1.5-.8-1.5-1.6 0-.9.8-1.7 1.7-1.6.8 0 1.5.8 1.5 1.6ZM202 515.9c0 .9-.9 1.6-1.8 1.5-.8-.1-1.5-.9-1.4-1.7 0-.9.9-1.6 1.8-1.5.8 0 1.5.8 1.4 1.7ZM521.4 303.8c.9 0 1.6.6 1.7 1.4 0 .9-.6 1.7-1.6 1.8-.9 0-1.7-.8-1.7-1.7 0-.8.7-1.5 1.6-1.5ZM322.2 38.1c.9 0 1.8.7 1.7 1.6 0 .8-.7 1.5-1.5 1.6-.9 0-1.7-.7-1.7-1.6 0-.8.7-1.5 1.5-1.6ZM255.8 525.3c.8 0 1.5.7 1.6 1.5 0 .9-.8 1.7-1.7 1.6-.8 0-1.5-.7-1.6-1.6 0-.9.8-1.7 1.7-1.6ZM157.7 493.7c0 .8-.7 1.5-1.5 1.6-.9 0-1.7-.7-1.7-1.6 0-.9.8-1.6 1.7-1.6.8 0 1.5.8 1.5 1.6ZM512.1 205.7c0 .9-.8 1.7-1.7 1.7-.8 0-1.5-.7-1.6-1.5 0-.8.6-1.6 1.5-1.6s1.8.6 1.8 1.5ZM34.4 259.6c.9 0 1.7.8 1.6 1.7 0 .8-.8 1.5-1.6 1.5-.9 0-1.7-.8-1.6-1.7 0-.8.7-1.5 1.6-1.5ZM167.4 60.2c.8 0 1.5.8 1.5 1.6 0 .9-.8 1.7-1.7 1.6-.8 0-1.5-.8-1.5-1.6 0-.9.8-1.7 1.7-1.6ZM390.3 61.7c0 .9-.7 1.7-1.6 1.7-.8 0-1.5-.7-1.6-1.5 0-.8.6-1.6 1.4-1.7.9-.1 1.8.6 1.8 1.5ZM45.4 204.2c.9 0 1.8.7 1.7 1.6 0 .8-.7 1.5-1.5 1.6-.9 0-1.7-.7-1.7-1.6 0-.8.7-1.5 1.5-1.6ZM35.9 305.5c0 .9-.9 1.6-1.8 1.5-.8 0-1.5-.9-1.4-1.7 0-.9.9-1.6 1.8-1.5.8 0 1.5.8 1.4 1.7ZM56.5 171c.8 0 1.6.7 1.6 1.5s-.8 1.6-1.6 1.5c-.7 0-1.4-.6-1.4-1.4 0-.9.6-1.6 1.4-1.6ZM233.6 525.4c.9 0 1.5.7 1.4 1.6 0 .8-.7 1.4-1.4 1.4-.8 0-1.6-.7-1.6-1.5s.7-1.5 1.6-1.5ZM499.3 392.5c.9 0 1.5.6 1.5 1.5 0 .8-.6 1.4-1.3 1.5-.8 0-1.6-.6-1.7-1.4 0-.8.6-1.6 1.5-1.6ZM57.9 394c0 .9-.7 1.6-1.5 1.5-.8 0-1.5-.8-1.5-1.6 0-.7.7-1.4 1.5-1.4.9 0 1.6.6 1.6 1.5ZM501 172.5c0 .8-.8 1.5-1.6 1.5s-1.5-.8-1.4-1.6c0-.8.6-1.4 1.4-1.4.8 0 1.6.7 1.6 1.5ZM390.1 504.8c0 .8-.8 1.6-1.6 1.5-.8 0-1.5-.9-1.4-1.7 0-.8.7-1.4 1.5-1.4.9 0 1.5.6 1.5 1.5ZM34.5 237.5c.9 0 1.5.8 1.4 1.6 0 .8-.9 1.5-1.7 1.4-.7 0-1.3-.8-1.3-1.6 0-.9.7-1.5 1.6-1.5ZM323.6 527c0 .8-.8 1.5-1.6 1.4-.7 0-1.4-.8-1.4-1.5 0-.8.7-1.5 1.5-1.5.9 0 1.5.7 1.5 1.6ZM522.9 327.6c0 .9-.7 1.6-1.5 1.5-.8 0-1.5-.8-1.5-1.6 0-.7.7-1.4 1.5-1.4.9 0 1.6.6 1.6 1.5ZM521.6 240.5c-.8 0-1.6-.7-1.6-1.5s.5-1.4 1.3-1.5c.8 0 1.6.5 1.7 1.4 0 .8-.6 1.6-1.4 1.7ZM35.8 327.5c0 .9-.6 1.6-1.4 1.6-.8 0-1.6-.7-1.6-1.5 0-.7.6-1.4 1.4-1.5.9-.1 1.6.5 1.7 1.4ZM167.1 506.3c-.8 0-1.5-.8-1.5-1.6s.8-1.5 1.7-1.4c.8 0 1.3.7 1.3 1.5 0 .9-.7 1.6-1.5 1.5ZM433.1 82.5c.8 0 1.3.7 1.3 1.5s-.7 1.4-1.5 1.3c-.8 0-1.3-.8-1.3-1.5 0-.8.7-1.4 1.5-1.3ZM377.7 49.3c.8 0 1.3.7 1.3 1.5s-.7 1.4-1.5 1.3c-.8 0-1.3-.8-1.3-1.5 0-.8.7-1.4 1.5-1.3ZM124.4 83.9c0 .8-.6 1.4-1.4 1.4-.8 0-1.4-.7-1.4-1.4 0-.8.7-1.4 1.4-1.4.8 0 1.4.6 1.4 1.4ZM89.9 115.7c.8 0 1.3.7 1.3 1.5s-.7 1.4-1.5 1.3c-.8 0-1.3-.8-1.3-1.5 0-.8.7-1.4 1.5-1.3ZM111.9 93.6c.7 0 1.4.6 1.4 1.4 0 .8-.6 1.4-1.4 1.4-.8 0-1.4-.7-1.4-1.4 0-.8.6-1.4 1.4-1.4ZM467.5 449.4c0 .8-.7 1.4-1.4 1.4-.8 0-1.4-.7-1.4-1.4 0-.8.7-1.4 1.4-1.4.8 0 1.4.7 1.4 1.4ZM91.1 449.5c0 .8-.7 1.4-1.5 1.4s-1.3-.7-1.3-1.5.7-1.4 1.5-1.3c.8 0 1.4.7 1.3 1.5ZM444.2 93.6c.8 0 1.3.7 1.3 1.5s-.7 1.4-1.5 1.3c-.8 0-1.3-.8-1.3-1.5 0-.8.7-1.4 1.5-1.3ZM477.3 126.8c.7 0 1.4.6 1.4 1.4 0 .8-.6 1.4-1.4 1.4-.8 0-1.4-.7-1.4-1.4 0-.8.6-1.4 1.4-1.4ZM80.1 128.3c0 .8-.7 1.4-1.5 1.3-.8 0-1.3-.8-1.3-1.5 0-.8.8-1.4 1.5-1.3.7 0 1.3.7 1.3 1.5ZM100.7 461.9c-.7 0-1.4-.7-1.4-1.4 0-.8.7-1.4 1.4-1.4.8 0 1.4.7 1.4 1.4 0 .8-.7 1.4-1.4 1.4ZM456.4 460.5c0 .8-.7 1.4-1.4 1.4-.8 0-1.4-.7-1.3-1.5 0-.8.7-1.4 1.4-1.4.8 0 1.4.7 1.3 1.5ZM179.7 50.6c0 .8-.5 1.5-1.3 1.5-.7 0-1.4-.6-1.5-1.3 0-.8.5-1.4 1.3-1.5.7 0 1.4.6 1.5 1.3ZM467.6 117.2c0 .8-.6 1.4-1.4 1.4-.8 0-1.4-.7-1.4-1.4 0-.8.7-1.4 1.4-1.4.8 0 1.4.6 1.4 1.4ZM345.8 39.6c0 .8-.6 1.4-1.4 1.4-.8 0-1.4-.6-1.4-1.4 0-.8.6-1.4 1.4-1.4.7 0 1.4.6 1.4 1.4ZM212.9 39.7c0 .8-.7 1.4-1.4 1.4-.8 0-1.4-.7-1.3-1.5 0-.8.7-1.4 1.4-1.4.8 0 1.4.7 1.3 1.5ZM35.8 216.8c0 .8-.6 1.4-1.4 1.4-.8 0-1.4-.7-1.4-1.4 0-.8.7-1.4 1.4-1.4.8 0 1.4.6 1.4 1.4ZM522.9 216.7c0 .8-.5 1.5-1.3 1.5-.7 0-1.4-.6-1.5-1.3 0-.8.5-1.4 1.3-1.5.7 0 1.4.6 1.5 1.3ZM100.9 107.5c-.7 0-1.4-.6-1.4-1.4 0-.8.6-1.4 1.4-1.5.8 0 1.4.6 1.4 1.4 0 .8-.6 1.4-1.3 1.5ZM113.2 471.6c0 .8-.7 1.4-1.4 1.4-.8 0-1.4-.7-1.4-1.4 0-.8.7-1.4 1.4-1.4.8 0 1.4.7 1.4 1.4ZM444 470.1c.8 0 1.4.7 1.4 1.5s-.7 1.4-1.4 1.4c-.8 0-1.4-.7-1.3-1.5 0-.8.7-1.4 1.4-1.4ZM456.5 106.2c0 .8-.7 1.4-1.5 1.3-.8 0-1.3-.8-1.3-1.5 0-.8.7-1.4 1.5-1.3.8 0 1.3.7 1.3 1.5ZM521.5 348.4c.7 0 1.2.6 1.2 1.3 0 .8-.7 1.4-1.5 1.3-.7 0-1.2-.7-1.1-1.4 0-.7.7-1.2 1.3-1.2ZM78.5 437c.6 0 1.3.5 1.4 1.2 0 .7-.4 1.3-1.1 1.4-.8.1-1.5-.5-1.5-1.2s.5-1.3 1.2-1.3ZM478.5 438.2c0 .7-.5 1.3-1.1 1.4-.7 0-1.3-.4-1.4-1.1-.1-.8.5-1.5 1.2-1.5.6 0 1.3.5 1.3 1.2ZM423.2 72.8c0 .7-.5 1.3-1.2 1.3s-1.3-.5-1.4-1.1c0-.7.6-1.5 1.4-1.4.7 0 1.2.6 1.2 1.3ZM46.7 383c0 .7-.5 1.2-1.3 1.3-.7 0-1.3-.5-1.3-1.2 0-.8.6-1.5 1.4-1.4.7 0 1.2.7 1.2 1.3ZM211.3 525.6c.6 0 1.3.5 1.4 1.1.1.6-.4 1.3-1.1 1.4-.8.1-1.5-.4-1.5-1.2 0-.7.5-1.3 1.2-1.4ZM45.5 184.9c-.7 0-1.3-.5-1.4-1.1 0-.7.6-1.5 1.3-1.4.7 0 1.2.6 1.2 1.3 0 .7-.5 1.3-1.2 1.3ZM510.5 184.9c-.7 0-1.3-.6-1.3-1.2 0-.7.7-1.4 1.4-1.3.7 0 1.2.7 1.2 1.4s-.6 1.2-1.3 1.2ZM378.8 515.7c0 .7-.5 1.3-1.1 1.4-.7 0-1.3-.4-1.4-1.1-.1-.8.5-1.5 1.2-1.5.6 0 1.3.5 1.3 1.2ZM178.2 514.5c.6 0 1.3.5 1.4 1.2 0 .7-.4 1.3-1.1 1.4-.8.1-1.5-.5-1.5-1.2s.5-1.3 1.2-1.3ZM268.2 28.7c0 .7-.6 1.2-1.3 1.2-.7 0-1.3-.6-1.3-1.3 0-.7.7-1.4 1.5-1.3.6 0 1.2.7 1.1 1.4ZM290.3 28.7c0 .7-.6 1.2-1.3 1.2-.7 0-1.3-.6-1.3-1.3 0-.7.7-1.4 1.5-1.3.6 0 1.2.7 1.1 1.4ZM510.4 381.6c.7 0 1.2.6 1.2 1.3 0 .8-.7 1.4-1.5 1.3-.7 0-1.2-.7-1.1-1.4 0-.7.7-1.2 1.3-1.2ZM134 71.6c.6 0 1.3.5 1.4 1.2 0 .7-.4 1.3-1.1 1.4-.8.1-1.5-.5-1.5-1.2s.6-1.3 1.2-1.3ZM344.2 528.2c-.7 0-1.2-.6-1.2-1.3 0-.7.6-1.3 1.3-1.3.7 0 1.4.7 1.3 1.4 0 .7-.7 1.2-1.4 1.1ZM124.2 482.6c0 .7-.5 1.2-1.3 1.2-.7 0-1.3-.5-1.3-1.2 0-.8.6-1.5 1.4-1.4.7 0 1.2.7 1.2 1.3ZM432.8 483.9c-.7 0-1.2-.6-1.2-1.3 0-.7.6-1.3 1.3-1.3.7 0 1.4.7 1.3 1.4 0 .7-.7 1.2-1.4 1.1ZM67.7 138c.7 0 1.2.6 1.2 1.3 0 .8-.7 1.4-1.5 1.3-.7 0-1.2-.7-1.1-1.4 0-.7.7-1.2 1.4-1.2ZM488.3 138c.6 0 1.3.5 1.4 1.2 0 .7-.4 1.3-1.1 1.4-.8.1-1.5-.5-1.5-1.2s.6-1.3 1.2-1.3ZM24.6 272.3c0 .7-.6 1.2-1.3 1.2-.7 0-1.3-.6-1.3-1.3 0-.7.7-1.4 1.5-1.3.6 0 1.2.7 1.1 1.4ZM532.6 270.9c.7 0 1.2.6 1.2 1.3 0 .8-.7 1.4-1.5 1.3-.7 0-1.2-.7-1.1-1.4 0-.7.7-1.2 1.3-1.2ZM24.6 294.3c0 .7-.5 1.3-1.2 1.3s-1.3-.5-1.4-1.1c0-.7.6-1.5 1.4-1.4.7 0 1.2.6 1.2 1.3ZM533.8 294.5c0 .7-.7 1.2-1.4 1.2s-1.2-.6-1.2-1.3c0-.8.7-1.4 1.4-1.3.7 0 1.2.8 1.2 1.4ZM34.3 351c-.7 0-1.2-.6-1.2-1.3 0-.7.6-1.3 1.2-1.3.7 0 1.4.7 1.4 1.4s-.7 1.2-1.3 1.2ZM67.6 426.1c.6 0 1.1.5 1.1 1.1 0 .7-.6 1.2-1.3 1.2-.6 0-1.1-.5-1.1-1.1 0-.6.6-1.2 1.3-1.2ZM146.3 61.7c0 .7-.5 1.3-1.2 1.3-.6 0-1.1-.5-1.2-1.1 0-.6.4-1.1 1-1.2.7-.1 1.3.4 1.4 1ZM488.3 426.1c.6 0 1.1.5 1.1 1.1 0 .7-.6 1.3-1.2 1.2-.6 0-1.1-.5-1.1-1.1 0-.6.5-1.2 1.2-1.2ZM421.7 492.6c.6 0 1.1.4 1.2 1 .1.7-.4 1.3-1.1 1.3-.7 0-1.3-.5-1.3-1.2 0-.6.5-1.1 1.1-1.1ZM135.1 493.6c0 .7-.5 1.3-1.2 1.2-.6 0-1.1-.5-1.2-1.1 0-.7.5-1.2 1.2-1.2.6 0 1.1.5 1.2 1.1ZM367.8 39.6c0 .7-.5 1.2-1.2 1.2-.6 0-1.1-.5-1.2-1.1 0-.6.4-1.1 1-1.2.7 0 1.3.4 1.4 1.1ZM311.2 27.4c.6 0 1.1.4 1.2 1 0 .7-.5 1.3-1.2 1.3s-1.2-.6-1.2-1.3c0-.6.6-1 1.2-1ZM246 28.6c0 .7-.7 1.2-1.3 1.1-.6 0-1.1-.6-1-1.2 0-.6.7-1.2 1.3-1.1.6 0 1.1.6 1 1.2ZM500.6 150.4c0 .6-.6 1.2-1.3 1.2-.6 0-1.1-.6-1.1-1.1 0-.6.5-1.1 1.1-1.2.7 0 1.3.5 1.3 1.1ZM312.3 538c0 .7-.7 1.2-1.3 1.1-.6 0-1.1-.6-1.1-1.2 0-.7.6-1.2 1.3-1.1.6 0 1.1.6 1.1 1.2ZM288.9 539.2c-.7 0-1.2-.6-1.2-1.3 0-.6.6-1 1.2-1s1.1.5 1.2 1.1c0 .7-.5 1.3-1.2 1.2ZM266.8 539.2c-.7 0-1.2-.6-1.1-1.3 0-.6.6-1 1.2-1s1.1.5 1.2 1.1c0 .7-.5 1.3-1.2 1.2ZM24.5 250.1c0 .7-.7 1.2-1.4 1.1-.6 0-1-.7-1-1.2 0-.6.7-1.2 1.4-1.1.6 0 1 .7 1 1.2ZM532.6 315.4c.6 0 1.1.6 1.1 1.1 0 .7-.6 1.2-1.3 1.2-.6 0-1.1-.6-1.1-1.1 0-.6.6-1.2 1.3-1.2ZM23.3 317.7c-.7 0-1.3-.5-1.3-1.2 0-.6.5-1.1 1.1-1.1.7 0 1.3.5 1.3 1.2 0 .6-.5 1.1-1.1 1.1ZM532.7 251.2c-.7 0-1.3-.5-1.3-1.2 0-.6.5-1.1 1.1-1.1.6 0 1.1.4 1.3.9.1.6-.4 1.3-1.1 1.4ZM190.6 39.6c0 .6-.6 1.2-1.3 1.2-.6 0-1.1-.6-1.1-1.1 0-.6.5-1.1 1.1-1.2.7 0 1.3.5 1.3 1.1ZM244.6 539.2c-.7 0-1.2-.6-1.2-1.3 0-.6.6-1 1.2-1s1.1.5 1.2 1.1c0 .7-.5 1.3-1.2 1.2ZM412 61.8c0 .6-.6 1.2-1.3 1.2-.6 0-1.1-.6-1.1-1.1 0-.6.5-1.1 1.1-1.2.7 0 1.3.5 1.3 1.1ZM56.5 151.5c-.7 0-1.2-.6-1.1-1.3 0-.6.6-1 1.2-1s1.1.5 1.2 1.1c0 .7-.5 1.2-1.2 1.2ZM410.8 503.7c.5 0 .9.5.9 1 0 .6-.5 1.1-1.1 1.1-.5 0-.9-.5-1-1 0-.6.5-1.1 1.1-1ZM533.5 338.6c0 .6-.5 1.1-1.1 1.1-.5 0-.9-.5-1-1 0-.6.5-1.1 1.1-1.1.5 0 .9.5.9 1ZM23.1 337.6c.5 0 1 .3 1.1.8.1.6-.3 1.2-.9 1.3-.6 0-1.1-.5-1.1-1.1 0-.5.4-1 .9-1ZM57.4 416.3c0 .5-.5 1-1 1-.6 0-1.1-.5-1.1-1.1 0-.6.6-1 1.2-.9.5 0 .9.6.8 1.1ZM34.4 372.9c-.6 0-1.1-.5-1.2-1 0-.5.4-1 .9-1s1 .3 1.1.8c.1.6-.3 1.2-.9 1.3ZM24.4 227.9c0 .6-.6 1.1-1.2 1-.5 0-.9-.6-.9-1.1 0-.6.5-1.1 1.1-1 .5 0 .9.6.9 1ZM533.7 227.8c0 .6-.5 1.1-1 1.1s-.9-.4-1-1c0-.6.4-1.1 1-1.1.5 0 1 .5 1 .9ZM190.3 526.9c0 .5-.4 1-.9 1.1-.6 0-1.2-.4-1.2-1s.5-1.1 1.1-1c.5 0 .9.5.9 1ZM366.6 528c-.6 0-1.1-.5-1.2-1 0-.5.4-1 .9-1s1 .3 1.1.8c.1.6-.3 1.2-.9 1.3ZM521.4 370.9c.5 0 1 .3 1.1.8.1.6-.3 1.2-.9 1.3-.6 0-1.1-.5-1.1-1.1 0-.5.4-1 .9-1ZM500.3 416.2c0 .5-.4 1-.9 1.1-.6 0-1.2-.4-1.2-1s.5-1.1 1.1-1c.5 0 .9.5.9 1ZM521.6 193.7c.5 0 1 .4 1 .9 0 .6-.4 1.2-1 1.2s-1.1-.5-1-1.2c0-.5.5-.9 1-.9ZM34.4 193.7c.5 0 1 .4 1 .9 0 .6-.4 1.2-1 1.2s-1.1-.5-1-1.2c0-.5.5-.9 1-.9ZM333.3 27.5c.5 0 1 .4 1 .9 0 .6-.4 1.2-1 1.2s-1.1-.5-1-1.2c0-.5.5-.9 1-.9ZM145 505.8c-.6 0-1.1-.6-1-1.2 0-.5.5-.9 1-.9.6 0 1.1.5 1 1.1 0 .5-.5 1-1 .9ZM222.7 27.5c.5 0 .9.5.9 1 0 .6-.6 1.1-1.1 1.1-.6 0-1-.6-.9-1.2 0-.5.5-.9 1.1-.8ZM510.4 162.3c-.2-.2-.6-.4-.7-.7-.2-.5.4-1 .9-1 .4 0 .8.4.8.9s-.3.8-1 .9ZM46.3 161.3c0 .7-.4 1-.9 1s-.8-.4-.9-.8c0-.5.5-1.1 1-.9.3.1.6.5.7.7ZM156.1 514.7c.4.5.7.7.8 1.1.2.5-.4.9-.9.9s-.9-.5-.7-.9c.1-.3.5-.6.8-1.1ZM400.5 515.6c0 .7-.3 1-.8 1s-.9-.3-.9-.8c0-.6.5-1.1.9-.9.3.1.6.5.8.7ZM223.6 538.1c-.5.3-.8.6-1.2.7-.4 0-.8-.3-.8-.8s.5-1.1 1-.9c.3.2.6.5 1 1ZM400.6 50.5c0 .7-.3 1-.8 1s-.9-.3-.9-.8.5-1.1.9-.9c.3.1.6.5.8.6ZM334.1 537.7c0 .7-.3 1-.8 1.1-.5 0-.9-.3-.9-.7 0-.5.4-1.1.9-1 .4.1.6.5.8.6ZM45.4 405.9c-.5 0-.8-.4-.8-.8 0-.5.3-.9.8-.9s1 .4 1 .9c0 .4-.4.8-.9.8ZM510.3 405.9c-.5 0-.8-.4-.8-.8 0-.5.4-.9.8-.9.5 0 1 .5.9 1 0 .4-.4.8-.9.7ZM278.1 16.4c.3.5.6.8.7 1.2.1.4-.3.8-.8.8-.6 0-1.1-.5-.8-1 .2-.3.5-.6 1-1ZM156.1 51.6c-.2-.2-.6-.4-.7-.7-.2-.5.4-1 .9-1 .4 0 .8.4.8.9s-.3.8-1 .9ZM68.6 117.1c-.4.4-.6.7-.9.8-.4.1-.7-.2-.7-.6 0-.4.2-.7.6-.7.3 0 .6.3 1 .5ZM455 481.7c.3.4.6.6.7.9 0 .3-.2.7-.7.7-.4 0-.7-.3-.7-.7 0-.3.4-.5.7-.9ZM299.9 548.2c.3.4.7.6.7.9 0 .4-.2.7-.6.7-.4 0-.7-.2-.7-.6 0-.3.3-.5.6-1ZM277.7 550c-.3-.5-.5-.7-.5-1 0-.4.3-.6.7-.6.4 0 .7.4.6.7 0 .3-.4.5-.8.8ZM68.4 449.5c-.4.3-.7.5-1 .6-.4 0-.6-.3-.6-.7 0-.4.3-.7.7-.6.3 0 .5.4.9.7ZM255.7 548.2c.3.4.7.6.7.9 0 .4-.2.7-.6.7-.4 0-.7-.2-.7-.6 0-.3.3-.5.6-1ZM355.4 538.9c-.3-.4-.6-.6-.7-.9 0-.4.2-.7.6-.7.4 0 .7.3.7.6s-.3.5-.6.9ZM200.4 538.9c-.3-.4-.6-.7-.7-.9 0-.4.3-.6.7-.6.4 0 .7.3.7.7 0 .3-.4.5-.7.9ZM544.7 239.1c-.4.3-.7.5-1 .6-.4 0-.6-.3-.6-.7 0-.4.3-.7.7-.6.3 0 .5.4.9.7ZM12.3 238.1c.3.4.6.7.6.9 0 .4-.3.7-.7.6-.4 0-.7-.3-.6-.7 0-.3.4-.5.7-.9ZM389.5 526.8c-.4.4-.5.7-.8.8-.4.1-.7-.1-.8-.5 0-.3.2-.8.5-.8s.6.3 1 .5ZM168.1 526.8c-.4.4-.6.7-.8.8-.4.1-.7-.2-.8-.6 0-.4.2-.7.6-.7.3 0 .6.3 1 .5ZM522.4 394.1c-.4.3-.7.5-1 .6-.4 0-.6-.3-.6-.7 0-.4.3-.7.7-.6.3 0 .5.4.9.7ZM388.6 40.6c-.3-.5-.5-.7-.5-1 0-.4.3-.6.7-.6.4 0 .7.3.6.7 0 .3-.4.5-.8.8ZM34.2 394.9c-.3-.5-.5-.7-.5-1 0-.4.3-.6.7-.6.4 0 .7.4.6.7 0 .3-.4.5-.8.8ZM300 18.4c-.3-.5-.5-.7-.5-1 0-.4.3-.6.7-.6.4 0 .7.3.6.7 0 .3-.4.5-.8.8ZM78.5 459.6c.4.4.7.6.8.8.1.4-.2.7-.6.7-.4 0-.7-.2-.7-.6 0-.3.3-.5.5-1ZM477.2 459.6c.3.4.6.6.7.9 0 .3-.2.7-.7.7-.4 0-.7-.3-.7-.7 0-.3.4-.5.7-.9ZM167.3 40.6c-.3-.4-.6-.6-.7-.9 0-.4.2-.7.7-.7.4 0 .7.3.7.7 0 .3-.4.5-.7.9ZM255.9 18.4c-.3-.4-.6-.6-.7-.9 0-.4.2-.7.7-.7.4 0 .7.3.7.7 0 .3-.4.5-.7.9ZM488.4 118.1c-.3-.4-.7-.6-.7-.9 0-.4.2-.7.6-.7.4 0 .7.2.7.6 0 .3-.3.5-.6 1ZM234.7 17.4c-.4.4-.6.7-.9.8-.4.1-.7-.2-.7-.6 0-.4.2-.7.6-.7.3 0 .6.3 1 .5ZM543.6 284.2c-.3-.4-.6-.6-.7-.9 0-.4.2-.7.6-.7.4 0 .7.3.7.6s-.3.5-.6.9ZM322.3 16.6c.3.4.6.6.7.9 0 .4-.2.7-.7.7-.4 0-.7-.3-.7-.7 0-.3.4-.5.7-.9ZM13.2 283.2c-.4.3-.6.6-.9.7-.4.1-.7-.2-.7-.6 0-.4.2-.7.6-.7.3 0 .5.3 1 .6ZM13.1 305.3c-.4.4-.5.7-.8.8-.4.1-.7-.1-.8-.5 0-.3.2-.8.5-.8s.6.3 1 .5ZM543.6 306.4c-.3-.4-.6-.6-.7-.9 0-.4.2-.7.6-.7.4 0 .7.3.7.6s-.3.5-.6.9ZM111.8 72c.4.4.7.6.8.8.1.4-.2.7-.6.7-.4 0-.7-.2-.7-.6 0-.3.3-.5.5-1ZM477.3 107c-.3-.4-.7-.6-.7-.9 0-.4.2-.7.6-.7.4 0 .7.2.7.6 0 .3-.3.5-.6 1ZM444.1 72c.3.4.6.6.7.9 0 .4-.2.7-.7.7-.4 0-.7-.3-.7-.7 0-.3.4-.5.7-.9ZM533.4 360.9c-.4.3-.7.6-1 .6-.4 0-.7-.3-.6-.7 0-.4.3-.7.7-.6.3 0 .5.4.9.7ZM24.1 360.9c-.4.3-.7.6-1 .6-.4 0-.7-.3-.6-.7 0-.4.3-.7.7-.6.3 0 .5.4.9.7ZM35.4 172.7c-.5.2-.7.5-1 .5-.4 0-.6-.3-.6-.7 0-.4.4-.7.8-.5.3 0 .5.4.8.8ZM13.2 261.3c-.5.2-.7.5-1 .5-.4 0-.6-.3-.6-.7 0-.4.4-.7.8-.5.3 0 .5.4.8.8ZM544.7 261.2c-.4.3-.7.6-1 .6-.4 0-.7-.3-.6-.7 0-.4.3-.7.7-.6.3 0 .5.4.9.7ZM89.6 472.5c-.3-.4-.6-.7-.6-1 0-.4.3-.6.7-.6.4 0 .7.3.6.7 0 .3-.4.5-.7.9ZM466 472.5c-.3-.4-.6-.7-.6-1 0-.4.3-.6.7-.6.4 0 .7.3.6.7 0 .3-.4.5-.7.9ZM532.5 204.9c.4.4.7.6.8.8.1.4-.2.7-.6.7-.4 0-.7-.2-.7-.6 0-.3.3-.5.5-1ZM79.6 106c-.4.3-.6.6-.9.7-.4.1-.7-.2-.7-.6 0-.4.2-.7.6-.7.3 0 .5.3 1 .6ZM24.3 205.7c-.4.3-.6.6-.9.7-.4.1-.7-.2-.7-.6 0-.4.2-.7.6-.7.3 0 .5.3 1 .6ZM100.7 83c.4.4.7.6.8.8.1.4-.2.7-.6.7-.4 0-.7-.2-.7-.6 0-.3.3-.5.5-1ZM521.5 173.5c-.3-.5-.5-.7-.5-1 0-.4.3-.6.7-.6.4 0 .7.3.6.7 0 .3-.4.5-.8.8ZM455.1 83c.3.4.7.6.7.9 0 .4-.2.7-.6.7-.4 0-.7-.2-.7-.6 0-.3.3-.5.6-1ZM443.8 492.8c.4.4.7.6.8.8.1.4-.2.7-.6.7-.4 0-.7-.2-.7-.6 0-.3.3-.5.5-1ZM111.8 492.8c.3.4.6.6.7.9 0 .3-.2.7-.7.7-.4 0-.7-.3-.7-.7 0-.3.4-.5.7-.9ZM466.2 94.1c.3.4.6.6.7.9 0 .4-.2.7-.7.7-.4 0-.7-.3-.7-.7 0-.3.4-.5.7-.9ZM90.7 95.1c-.4.3-.7.5-1 .6-.4 0-.6-.3-.6-.7 0-.4.3-.7.7-.6.3 0 .5.4.9.7ZM489.2 449.3c-.4.3-.6.7-.9.7-.4.1-.7-.2-.7-.6 0-.4.2-.7.6-.7.3 0 .5.3 1 .5ZM201.4 28.6c-.4.3-.7.6-1 .6-.4 0-.7-.3-.6-.7 0-.4.3-.7.7-.6.3 0 .5.4.9.7ZM355.4 29.5c-.3-.5-.5-.7-.5-1 0-.4.3-.6.7-.6.4 0 .7.3.6.7 0 .3-.4.5-.8.8ZM101.6 482.7c-.4.3-.7.6-1 .6-.4 0-.7-.3-.6-.7 0-.4.3-.7.7-.6.3 0 .5.4.9.7ZM134 51.2c-.2-.2-.4-.4-.4-.5 0-.2.3-.3.4-.4.1.1.3.3.3.4 0 .1-.2.3-.4.5ZM367 549.2c-.3.1-.5.3-.6.3-.1 0-.3-.3-.3-.5 0-.1.3-.3.4-.3.1 0 .2.3.4.5ZM78.7 481.7c.2.4.3.6.3.8 0 .2-.2.3-.3.5-.2-.1-.4-.2-.4-.3 0-.1.1-.3.4-.9ZM23.1 383.5c-.1-.3-.3-.5-.2-.6 0-.1.3-.2.4-.3.1.2.3.3.3.5 0 .1-.3.3-.5.4ZM555.2 316.5c-.2.2-.4.4-.5.4-.1 0-.3-.2-.4-.4.1-.1.3-.4.4-.4.2 0 .3.2.5.4ZM477.2 483.1c-.2-.2-.4-.4-.4-.5 0-.1.3-.4.4-.4.2 0 .4.2.4.4 0 .1-.2.3-.4.5ZM1.2 315.6c.2.4.3.6.3.8 0 .2-.2.3-.3.5-.2-.1-.4-.2-.4-.3 0-.1.1-.3.4-.9ZM67.6 94.5c.2.2.4.4.4.5 0 .1-.2.4-.4.4-.1 0-.4-.2-.4-.4 0-.1.2-.3.4-.5ZM12.2 194.1c.2.2.4.3.4.5s-.2.3-.3.5c-.2-.1-.4-.2-.5-.3 0-.1.1-.3.3-.6ZM543.2 194.6c.3-.1.5-.3.6-.3.1 0 .3.3.3.5 0 .1-.3.3-.4.3-.1 0-.2-.3-.4-.5ZM533.1 183.9c-.3 0-.5.1-.6 0-.1 0-.2-.4-.2-.5 0-.1.4-.2.5-.2.1 0 .2.3.3.6ZM178.3 29.1c-.2-.2-.4-.4-.4-.5 0-.2.3-.3.4-.4.1.1.3.3.3.4 0 .1-.2.3-.4.5ZM477.2 83.4c.2.2.4.3.4.5 0 .1-.2.3-.3.4-.2-.1-.4-.2-.4-.4 0-.1.2-.3.3-.6ZM156.7 28.4c-.2.2-.3.5-.4.5-.2 0-.4-.2-.5-.3 0-.1.1-.4.3-.5.1 0 .3.1.6.3ZM267.4 6.5c-.2.1-.4.3-.6.2-.1 0-.3-.3-.3-.4 0-.1.3-.3.5-.3.1 0 .2.3.4.5ZM289.8 6.3c-.4.3-.6.5-.8.4-.1 0-.3-.3-.4-.4.1-.1.3-.3.5-.4.2 0 .4.2.7.3ZM312 6.5c-.3.2-.5.3-.7.3-.2 0-.3-.2-.5-.3.1-.1.2-.4.4-.4.1 0 .3.2.8.5ZM23.2 183.1c.2.2.4.3.4.5s-.2.3-.3.5c-.2-.1-.4-.2-.5-.3 0-.1.1-.3.3-.6ZM510.4 426.7c.2.2.4.4.4.5 0 .1-.2.4-.4.4-.1 0-.4-.2-.4-.4 0-.1.2-.3.3-.5ZM45.9 427.4c-.3.1-.5.3-.6.3-.1 0-.3-.3-.3-.5 0-.1.3-.3.4-.3.1 0 .2.3.4.5ZM89.6 493.2c.2.2.4.4.4.5 0 .1-.2.4-.4.4-.1 0-.4-.2-.4-.4 0-.1.2-.3.3-.5ZM488.3 94.5c.2.2.4.4.4.5 0 .1-.2.4-.4.4-.1 0-.4-.2-.4-.4 0-.1.2-.3.4-.5ZM377.6 29.1c-.2-.2-.4-.4-.4-.5 0-.2.3-.3.4-.4.1.1.3.3.3.4 0 .1-.2.3-.4.5ZM466.2 492.8c.2.4.3.6.3.8 0 .2-.2.3-.3.5-.2-.1-.4-.2-.4-.3 0-.1.1-.3.4-.9ZM544.1 349.8c-.3.1-.5.3-.6.3-.1 0-.3-.3-.3-.5 0-.1.3-.3.4-.3.1 0 .2.3.4.5ZM399.3 28.4c.3-.1.5-.3.6-.3.1 0 .3.3.3.5 0 .1-.3.3-.4.3-.1 0-.2-.3-.4-.5ZM57 438.2c-.2.2-.3.4-.4.5-.1 0-.4-.2-.4-.3 0-.1.2-.4.3-.5.1 0 .3.2.6.3ZM78.2 83.8c.3-.1.5-.3.6-.3.1 0 .3.3.3.5 0 .1-.3.3-.4.3-.1 0-.2-.3-.4-.5ZM12.7 349.6c-.2.2-.3.4-.4.5-.1 0-.4-.2-.4-.3 0-.1.2-.4.3-.5.1 0 .3.2.6.3ZM422.6 50.6c-.4.3-.6.5-.8.4-.1 0-.3-.3-.4-.4.1-.1.3-.3.5-.4.2 0 .4.2.7.3ZM554.6 272.7c-.1-.2-.3-.4-.3-.6 0-.1.3-.2.4-.4.1.1.3.3.3.4 0 .1-.2.3-.4.5ZM1.9 272.1c-.4.3-.6.5-.8.4-.1 0-.3-.3-.4-.4.1-.1.3-.3.5-.4.2 0 .4.2.7.3ZM57.3 106c-.5.3-.7.5-.8.5-.1 0-.3-.3-.4-.4.1-.1.3-.3.5-.4.2 0 .4.1.7.3ZM488.8 471.5c-.2.2-.4.4-.5.4-.1 0-.4-.2-.4-.3 0-.1.2-.4.3-.4.1 0 .3.2.6.3ZM12.7 327.5c-.2.2-.3.4-.4.5-.1 0-.4-.2-.4-.3 0-.1.2-.4.3-.5.1 0 .3.2.6.3ZM68 471.7c-.3.1-.5.3-.6.3-.1 0-.3-.3-.3-.5 0-.1.3-.3.4-.3.1 0 .2.3.4.5ZM499.9 438.3c-.2.2-.4.4-.5.4-.1 0-.4-.2-.4-.3 0-.1.2-.4.3-.4.1 0 .3.2.6.3ZM122.8 505.3c-.1-.2-.3-.4-.3-.6 0-.1.3-.2.4-.4.1.1.3.3.3.4 0 .1-.2.3-.4.5ZM432.9 504.2c.2.2.4.4.4.5 0 .1-.2.4-.4.4-.1 0-.4-.2-.4-.4 0-.1.2-.3.3-.5ZM543.6 327c.2.2.4.4.4.5 0 .1-.2.4-.4.4-.1 0-.4-.2-.4-.4 0-.1.2-.3.3-.5ZM11.7 216.7c.3-.1.5-.3.6-.3.1 0 .3.3.3.5 0 .1-.3.3-.4.3-.1 0-.2-.3-.4-.5ZM544.2 216.9c-.2.1-.4.3-.6.2-.1 0-.3-.3-.3-.4 0-.1.3-.3.5-.3.1 0 .2.3.4.5ZM465.7 72.7c.3-.1.5-.3.6-.3.1 0 .3.3.3.5 0 .1-.3.3-.4.3-.1 0-.2-.3-.4-.5ZM367.3 17.4c-.4.3-.6.5-.8.4-.1 0-.3-.3-.4-.4.1-.1.3-.3.5-.4.2 0 .4.2.7.3ZM344.4 18c-.2-.2-.4-.4-.4-.5 0-.2.3-.3.4-.4.1.1.3.3.3.4 0 .1-.2.3-.4.5ZM244.3 6.3c.3-.1.5-.3.6-.3.1 0 .3.3.3.5 0 .1-.3.3-.4.3-.1 0-.2-.3-.4-.5ZM189.4 16.9c.2.2.4.3.4.5 0 .1-.2.3-.3.4-.2-.1-.4-.2-.4-.4 0-.1.2-.3.3-.6ZM211.5 16.9c.2.2.4.3.4.5 0 .1-.2.3-.3.4-.2-.1-.4-.2-.4-.4 0-.1.2-.3.3-.6ZM499.4 106.6c-.2-.2-.4-.4-.4-.5 0-.2.3-.3.4-.4.1.1.3.3.3.4 0 .1-.2.3-.4.5ZM89.8 72.3c.2.2.4.4.4.5 0 .1-.2.4-.4.4-.1 0-.4-.2-.4-.4 0-.1.2-.3.4-.5ZM522 416.1c-.2.2-.3.4-.4.5-.1 0-.4-.2-.4-.3 0-.1.2-.4.3-.5.1 0 .3.2.6.3ZM133.8 516.3c-.1-.3-.3-.5-.2-.6 0-.1.3-.2.4-.3.1.2.3.3.3.5 0 .1-.3.3-.5.4ZM422.3 516c-.3.1-.5.3-.6.3-.1 0-.3-.3-.3-.5 0-.1.3-.3.4-.3.1 0 .2.3.4.5ZM34.8 416.1c-.2.2-.3.4-.4.5-.1 0-.4-.2-.4-.3 0-.1.2-.4.3-.5.1 0 .3.2.6.3ZM533.1 161.6c-.2.1-.4.3-.6.2-.1 0-.3-.3-.3-.4 0-.1.3-.3.5-.3.1 0 .2.3.4.5ZM145.6 39.5c-.2.2-.3.5-.4.5-.2 0-.4-.2-.5-.3 0-.1.1-.4.3-.5.1 0 .3.1.6.3ZM23.3 160.9c.2.2.4.3.4.5 0 .1-.2.3-.3.4-.2-.1-.4-.2-.4-.4 0-.1.2-.3.3-.6ZM544.1 372c-.3.1-.5.3-.6.3-.1 0-.3-.3-.3-.5 0-.1.3-.3.4-.3.1 0 .2.3.4.5ZM411.3 39.5c-.2.2-.3.5-.4.5-.2 0-.4-.2-.5-.3 0-.1.1-.4.3-.5.1 0 .3.1.6.3ZM100.8 62.3c-.2-.2-.4-.4-.4-.5 0-.2.3-.3.4-.4.1.1.3.3.3.4 0 .1-.2.3-.4.5ZM123.7 61.9c-.3.2-.5.3-.7.3-.2 0-.3-.2-.5-.3.1-.1.2-.4.4-.4.1 0 .3.2.8.5ZM433.5 61.9c-.2.1-.4.3-.6.2-.1 0-.3-.3-.3-.4 0-.1.3-.3.5-.3.1 0 .2.3.4.5ZM145.5 527c-.3.1-.5.3-.6.3-.1 0-.3-.3-.3-.5 0-.1.3-.3.4-.3.1 0 .2.3.4.5ZM12.7 371.8c-.2.2-.3.4-.4.5-.1 0-.4-.2-.4-.3 0-.1.2-.4.3-.5.1 0 .3.2.6.3ZM521.5 150.9c-.2-.2-.4-.4-.4-.5 0-.2.3-.3.4-.4.1.1.3.3.3.4 0 .1-.2.3-.4.5ZM410.7 527.4c-.2-.2-.4-.4-.4-.5 0-.1.3-.4.4-.4.2 0 .4.2.4.4 0 .1-.2.3-.4.5ZM555.3 249.9c-.2.2-.3.5-.4.5-.2 0-.4-.2-.5-.3 0-.1.1-.4.3-.5.1 0 .3.1.6.3ZM1.7 249.9c-.2.2-.3.5-.4.5-.2 0-.4-.2-.5-.3 0-.1.1-.4.3-.5.1 0 .3.1.6.3ZM322.7 549c-.2.2-.3.4-.4.5-.1 0-.4-.2-.4-.3 0-.1.2-.4.3-.5.1 0 .3.2.6.3ZM57.3 128.1c-.5.3-.7.5-.8.5-.1 0-.3-.3-.4-.4.1-.1.3-.3.5-.4.2 0 .4.1.7.3ZM500.2 128.3c-.3.2-.5.3-.7.3-.2 0-.3-.2-.5-.3.1-.1.2-.4.4-.4.1 0 .3.2.8.5ZM454.6 61.7c.3-.1.5-.3.6-.3.1 0 .3.3.3.5 0 .1-.3.3-.4.3-.1 0-.2-.3-.4-.5ZM178.8 537.9c-.2.2-.4.4-.5.4-.1 0-.4-.2-.4-.3 0-.1.2-.4.3-.4.1 0 .3.2.6.3ZM554.8 293.5c.2.4.3.6.3.8 0 .2-.2.3-.3.5-.2-.1-.4-.2-.4-.3 0-.1.1-.3.4-.9ZM1.9 294.3c-.4.3-.6.5-.8.4-.1 0-.3-.3-.4-.4.1-.1.3-.3.5-.4.2 0 .4.2.7.3ZM377.6 537.1c.2.4.3.6.3.8 0 .2-.2.3-.3.5-.2-.1-.4-.2-.4-.3 0-.1.1-.3.4-.9ZM190.1 549c-.5.3-.7.5-.8.4-.1 0-.3-.3-.3-.4 0-.1.3-.3.4-.3.2 0 .4.2.7.3ZM211.4 549.6c-.2-.2-.4-.4-.4-.5 0-.1.3-.4.4-.4.2 0 .4.2.4.4 0 .1-.2.3-.4.5ZM234.1 549.2c-.3.1-.5.3-.6.3-.1 0-.3-.3-.3-.5 0-.1.3-.3.4-.3.1 0 .2.3.4.5ZM34.9 150.5c-.2.1-.4.3-.6.2-.1 0-.3-.3-.3-.4 0-.1.3-.3.5-.3.1 0 .2.3.4.5ZM46 139.4c-.2.1-.4.3-.6.2-.1 0-.3-.3-.3-.4 0-.1.3-.3.5-.3.1 0 .2.3.4.5ZM510.5 138.8c.2.2.4.4.4.5 0 .1-.2.4-.4.4-.1 0-.4-.2-.4-.4 0-.1.2-.3.4-.5ZM533.1 405.1c-.2.2-.4.4-.5.4-.1 0-.3-.2-.4-.4.1-.1.3-.4.4-.4.2 0 .3.2.5.4ZM344.3 549.6c-.2-.2-.4-.4-.4-.5 0-.1.3-.4.4-.4.2 0 .4.2.4.4 0 .1-.2.3-.4.5ZM533 383.1c-.3.1-.5.3-.6.3-.1 0-.3-.3-.3-.5 0-.1.3-.3.4-.3.1 0 .2.3.4.5Z" class="st0"/></svg>