<svg xmlns="http://www.w3.org/2000/svg" data-name="レイヤー_1" preserveAspectRatio="none" viewBox="0 0 390 646"><defs><style>.st1{fill:#2c6a77}</style></defs><rect height="608.2" x="390" y="5.6" class="st1"/><rect height="3.2" x="390" y="2.4"/><rect height="3.5" x="390.3" y="613.6"/><path d="M0 632.7V31.2v608.2-6.7z" style="fill:none"/><path d="M390 5.6 0 31.2v612.4l305.8-18.7-6.2-5.1 90.4-6V5.6z" class="st1"/><path d="M0 432.6v.1l2.4-3.2-2.4 3.1zM0 455.5v.8l14.2-19.2L0 455.5zM0 478.8v1.4l26-35.6-26 34.2zM0 502.5v2l37.7-52.3L0 502.5zM0 526.6v2.7l49.5-69.6L0 526.6zM0 551.1v3.4l61.3-87.2L0 551.1zM0 576v4.1l73.1-105.3L0 576zM0 601.4v4.8l84.9-123.8L0 601.4zM0 627.1v5.6l96.7-142.8L0 627.1zM0 21.4v9.8L390 5.6V0L0 21.4zM296.2 620l-16.6 1.1 5.7-10.3-5.9 10.3-16.4 1.1 10.5-19-11 19-16.4 1.1 15.6-27.6-16.3 27.6-16.2 1.1 20.7-36.3-21.7 36.4-16.1 1 26.1-44.9-27.3 45-16.1 1.1 31.6-53.7-33 53.7-15.9 1.1 37.1-62.3-38.8 62.4-15.9 1 42.9-71-44.8 71.2-15.8 1 48.8-79.7-50.9 79.8-15.7 1.1 54.8-88.5-57.2 88.6-15.6 1.1 61-97.2-63.6 97.3-15.5 1 67.3-105.9-70.2 106.1-15.4 1 73.8-114.6-77 114.9-15.3 1 80.6-123.5-84 123.7-15.2 1 87.4-132.2-91.1 132.4-15.1 1 94.4-141-98.4 141.3-10.1.6v5.7l390-21.3v-10l-93.8 6.2z"/></svg>