<svg xmlns="http://www.w3.org/2000/svg" preserveAspectRatio="none" viewBox="0 0 1280 750"><defs><clipPath id="clippath"><path d="M1280 671 0 744V88l1280-78v661z" class="st0"/></clipPath><clipPath id="clippath-1"><path d="M1280 671 0 744V84.3l1280-78V671z" class="st0"/></clipPath><style>.st0{fill:none}</style></defs><g style="clip-path:url(#clippath)"><path d="M-64-43h1406v814H-64z" style="fill:#2c6a77"/></g><path d="M-1 75.3 1280.2 1l.6 9L0 91.7l-1-16.4zM-.8 740 1280 658.3l1 16.4L-.2 749l-.6-9z"/><path d="M-473.1 947.7-4.4 351.6-462 956.2l-11.1-8.5zm23.3 15L15.3 364.2l-453.9 607.1-11.2-8.6zm23.3 15.1 461.4-601-450.2 609.5-11.2-8.5zm23.3 15.1L54.6 389.4-392 1001.3l-11.2-8.4zm23.2 15.1L74.2 402l-442.8 614.3-11.4-8.3zm23.3 15.1L93.9 414.6l-439.2 616.7-11.4-8.2zm23.3 15 446.9-611-435.5 619.2-11.4-8.2zm23.3 15.1 443.2-613.5-431.7 621.7-11.5-8.2zm23.3 15.1 439.6-616-428.1 624.1-11.5-8.1zm23.3 15.1 435.9-618.5-424.4 626.5-11.5-8zm23.2 15.1 432.4-621-420.7 628.9-11.7-7.9zm23.3 15.1 428.7-623.5-417 631.3-11.7-7.8zm23.3 15 425.1-625.9-413.4 633.7-11.7-7.8zm23.3 15.1L251 515.3l-409.7 636.1-11.7-7.7zm23.3 15.1 417.8-631-406 638.7-11.8-7.7zm23.3 15.1 414.1-633.5-402.3 641.1-11.8-7.6zm23.3 15.1L310 553l-398.7 643.5-11.8-7.5zm23.2 15.1 406.9-638.5-394.9 645.9-12-7.4zm23.3 15 403.3-640.9L-42 1226.5l-12-7.4zm23.3 15.1 399.6-643.4-387.6 650.7-12-7.3zm23.3 15.1 396-645.9L4.7 1256.5l-12.1-7.2zm23.3 15.1L408.2 616 28 1271.6l-12.1-7.2zm23.3 15.1 388.7-651-376.6 658.1-12.1-7.1zm23.3 15.1 385-653.5-372.9 660.5-12.1-7zm23.3 15 381.4-655.9L98 1316.6l-12.2-7zm23.2 15.1 377.8-658.4-365.5 665.3-12.3-6.9zm23.3 15.1 374.2-660.9-361.9 667.7-12.3-6.8z" style="clip-path:url(#clippath-1)"/></svg>