<svg xmlns="http://www.w3.org/2000/svg" preserveAspectRatio="none" viewBox="0 0 1280 726"><defs><clipPath id="clippath"><path d="M1280 646.8 0 719.8v-636l1280-78v641z" class="st1"/></clipPath><clipPath id="clippath-1"><path d="M1280 646.8 0 719.8v-636l1280-78v641z" class="st1"/></clipPath><style>.st1{fill:none}</style></defs><g style="clip-path:url(#clippath)"><path d="M-64-47.2h1406v764H-64z" style="fill:#b52c2e"/></g><path d="M-1 76.1 1280.2 1.8l.6 8.9L0 92.4l-1-16.3zm.2 639.7 1280.7-83.3 1.2 19.5L-.2 724.7l-.6-8.9z"/><path d="m1529.9 421.1-217.9-123L1732.7 547l109.5 68.5v-23.3l-250.8-139.7-61.5-31.4zm312.3 216V631l-139.1-82.8 139.1 88.9zm-84-40.1 84 54.2v-4.8l-84-49.4zm-74.9-69.9 158.9 97.3v-6.9l-158.9-90.4zm-222.6-80.2-194.5-133.5 568.5 406.3h7.5v-10.4l-381.5-262.4zm-11.8 64.6 244.7 208.2h16.1l-452-370.9 191.2 162.7zm361.5 208.2h12.8L1422 433l388.4 286.7zm-380.2-267.1L1780 719.7h18.8l-220.6-160.3-148-106.8zm150.3 150 142.4 117.1h16.5l-188.5-145.6 29.6 28.5zm178.6 117.1h6.1l-139.6-105.6 133.5 105.6zm83.1-403.2v-7.7l-487.8-121.5 487.8 129.2zm0 214.8v-5.6l-251.9-122.2 251.9 127.8zm0-100.3v-11.5l-398.1-147.3 101.2 41.3L1842.2 431zm0 269.4v-9.1l-476.5-319.2 476.5 328.3zm0-247.1V446l-1.1-.4-179.9-69 181 76.7zm0 218.6v-7.8L1678.9 561l163.3 110.9zm-71-288.5 71 26.6v-8.7l-516.6-181.8 445.6 163.9zm71 79-286.3-119.2 286.3 125.4v-6.2zm0 76.1-500.6-251.3 500.6 260.5v-9.2zm-231-132.1 231 114.1v-11.1l-501.2-236 270.2 133zm231 65.2-139.1-57.8 139.1 62.7v-4.9zm0-147.6v-7.3l-341-86.4 341 93.7zm-720.9 395.7h3.9l-81.6-266.4 77.7 266.4zm44 0h4.6l-110.1-291.3 105.5 291.3zm109.1 0h3.8l-114.7-208.8 110.9 208.8zm-182.8 0h4.2l-59.1-223.8 54.9 223.8zm163.8 0h5.1L1095.1 401l160.3 318.7zm-191.4 0h3.8l-56.5-262.4 52.7 262.4zm6.9 0h2.8l-45.2-199.8 42.4 199.8zm-67.8 0-12.8-109.9 11.3 109.9h1.5zm12 0h3.6L979.9 440l35.2 279.7zm184.5-380 326.8 323.4 56.1 56.6h17.8l-402.5-384.1 1.8 4.1zM1771.7 119l-255.1-9.5 325.6 19.8v-16.9l-264.5-8.4-265.6-8.7 459.6 23.7zm70.5 388.6v-13.3l-530.6-241-65.6-28.7 596.2 283zm0 81.6V569l-502.8-269.2 359.1 200.3-462.4-253.2 606.1 342.3zm0-281.8v-11.9l-483.6-113.1-49.3-10.1 532.9 135.1zm0-238.2v-4.7l-190.7 3.8 190.7.9zm-270-17 270-8.7v-8.7l-494 24.2 224-6.8zm-171.7 667.5h5.8l-127.5-169.1 121.7 169.1zm-115.4 0h4l-83.8-146.9 79.8 146.9zm-71.8-181.5 110.3 181.5h5.9l-19.2-30.3-97-151.2zm-69.2 181.5h6.7l-58.5-165 22.1 73.3 29.7 91.7zm44.9 0h2.4l-43.8-104.6 41.4 104.6zm-128.7-275.4 95.5 275.4h3.9l-99.4-275.4zm162.6 91.2 116.5 184.2h3.3l-119.8-184.2zm266.5 184.2h6.6l-211.2-237.1 204.6 237.1zM1304 516.1l171.5 203.6h9.7l-124.1-141.2-57.1-62.4zm120.1 203.6h13l-76.9-95.2 44.9 61.4L1291.7 546l132.4 173.7zm418.1-379.4v-6.2L1630.9 278l211.3 62.3zM934.7 512.7l.5 207h2.6l-3.1-207zm13.9 134.7 1.3 72.3h1.4l-2.7-72.3zm-31 72.3 2-147.5-4.4 147.5h2.4zm161.7-95.3 24.9 95.3h4.8l-39.1-138.5 9.4 43.2zM959.4 500.7l12.5 219h4.6l-17.1-219zm19.4 87.5 11.1 131.5h1.9l-13-131.5zm227.3 131.5h.4l-3.1-7 2.7 7zm636.1-497.8v-3.4l-218.1-32.1 218.1 35.5zm0-132.3v-6.2L1486 83l356.2 6.6zm-477.4 630.1h1.2l-23.6-33.8 22.4 33.8zm477.4-570.6v-5.9L1563 126l279.2 23.1zm0 103v-6.5l-462.3-82.7 462.3 89.2zm0-93.9v-6.7l-521-39.9 521 46.6zm-355.8 91.9 162.7 55-258-80.1 26.4 10.8 424.7 140.5v-20.6l-355.8-105.6zm355.8 144.6v-6.8l-465.9-156.8 465.9 163.6zm0-221.5v-5.3l-314-28.5 314 33.8zm0 105.9-465.3-100.4 465.3 107.2v-6.8zm0-46.4-427.3-69.8 427.3 76.7v-6.9zm-335.9 460-61-62.5-43.1-41.7 69.2 78.3-193-205.5 106 121.2-47.7-48.9 163.2 186.1h40.9l-82.4-85.4 47.9 58.4zm-158.8-183 200.1 210h6.6l-206.7-210zm-135.8-148.3 351.2 358.3h8.1l-359.3-358.3zm108.1 194.3 131.2 164h9.2l-121.3-145.2-19.1-18.8zm35.6 164h4.3l-131.8-194.1 127.5 194.1zm266.6 0h8.2l-294.5-267.9L1622 719.7zm21.4 0h2l-27.1-23.6 25.1 23.6zm198.8-529v-13.9l-368.8-38 177.6 22.7-269.7-28.8 460.9 58zm-410.9 317.5-116.9-97.6-62.8-52.1L1659 719.7h22.2l-249.9-211.5zm9.8-361.5 401.1 55.5V193l-219.8-25.5-181.3-20.8zm401.1-42.9L1528 96.7l314.2 11.7v-4.6zM540.8 565.6 415.4 719.7h3.8l121.6-154.1zM406 719.7h3.2l88.7-110.3L406 719.7zm142.6-122.8 12.2-21.2-108.9 144h7.3l89.4-122.8zM359.3 719.7 380 696l-21.5 23.7h.8zm18 0h3.2L475.1 608l-97.8 111.7zm211.2-121.3-66.9 95.5-17.6 25.8h10.1l63.1-98.9 11.3-22.4zm8.2 121.3 22.5-43.8-23.7 43.8h1.2zm58-237.3L489.2 719.7h9l140-209.2 16.5-28.1zm-169 237.3 96.9-141.6-100.7 141.6h3.8zm103.4 0 2-3.9-2.2 3.9h.2zM479.2 510 299.5 676.7 406 571.2l106.6-103.7-168.1 151.8-4.4-.7-56.2 46.3-61.5 54.8h42.7L479.2 510zM342 404.9-29.3 608.4v7.4L342 404.9zM170.3 719.7h1.7l35.2-30.4-36.9 30.4zm-30 0h12l36.1-31.1 57.6-52.5-105.7 83.6zM127.4 378l345.2-131.3-501.9 181.6v9.8L127.4 378zm338-121.6L-29.3 442.8v7.8l494.7-194.2zm4.7 228.4-6.7 2.2-269.3 232.7h15.3l260.7-234.9zM44 719.7h22l265.2-199.9 18.6-17.7L50.6 715.2l-6.6 4.5zm74.6 0h11.2l14-11.7L248 619.5 118.6 719.7zm-85.1 0 279.1-202.8L22.3 719.7h11.2zm359.2-234.2L160.4 656.6l-86.7 63.1H98l161.1-128.1 133.6-106.1zM335.2 237l-364.5 94.2v6.8l364.5-101zm131 339.7L331 719.7h16.5l345.3-381.5-304.5 327.3 77.9-88.8zm-488.3 143h30l386.9-271.9 214.6-150.7-204.8 137.1-426.7 285.5zm293.6-588.8-300.8 21.5v4.4l300.8-25.9zm-300.8 11.9v6.2l497.9-37.7-497.9 31.5zm676.1 576.9 80.9-185.1-84.9 185.1h4zm84.9 0h.7l13.1-43.7-13.8 43.7zm163.2 0 13.3-260.9L892 719.7h2.9zm-225.6 0h3.5l52.1-131.6-55.6 131.6zm-13.9 0 8.9-21.2-11.1 21.2h2.2zm-3.2-30.5-14.3 30.5h1l13.3-30.5zm25 30.5h2l40.3-104.8-42.3 104.8zm-110.4-19.1-11.4 19.1h.4l11-19.1zm139.1 19.1h2.5L765.8 551l-59.9 168.7zm21.5 0 75-240-78.8 240h3.8zm-9.5 0 70-214-73 214h3zm-21.8 0 84.5-234.1-88.4 234.1h3.9zm-12.4 0h2.2l37.4-100.5-39.6 100.5zm-713-604.5v2.1l118.6-5.7-118.6 3.6zm0-19.4v6.4l407.8-11.8-407.8 5.4zm0-51.6v7.4l593 14.6-593-22zm0 21v24.2l263.4-5.2-15.3-3.1 96.8-3.1 37.6-2.6 221.9-.7-604.4-9.5zm0 41.7v1.4l61.1-2.4-61.1 1zm0-47.7v5.9L147.1 64l-176.4-4.8zM360 442.7 47.7 637.5l-77 45.4v17l64.6-43.3L360 442.7zm-311.4 136-77.9 42.9v10l177.9-105.3-100 52.4zm-77.9 127v9.1l425.2-285-425.2 275.9zm93.7-105.2-93.7 55.3v2.8l93.7-58.1zM843 711.3l-1.3 8.4h3.9l17.5-139.2L843 711.3zm-8.2 8.4 34.1-238.8-37.4 238.8h3.3zm30.1 0h8.9l3-38.5 10.9-160.5-6.4 58-16.4 141zM125.2 573.5l-154.5 93.1v13.6l528.8-334.9-374.3 228.2zm700.7 146.2 2.1-21.5-3.8 21.5h1.7zm-55.3 0h1.8l30.1-125.6-31.9 125.6zm-799.9-597v4.6l279.4-15.9-279.4 11.3zm823.5 597 39.5-193.6L791 719.7h3.2zm-823.5-583v1.6l75.9-5.4-75.9 3.8zm796.1 583 49.2-197-51.8 197h2.6zm-796.1-551v5.5L326 137.4l-355.3 31.3zm0 92.7 518.6-99.9-518.6 93.4v6.5zm0 2.2v6.8l518.5-104.9-518.5 98.1zm0 43.5v5.7l171.9-43.1-171.9 37.4zm355.9-101.5L79.5 253.4l-108.8 21v13l303.9-67.9 52-13.9zm-355.9 33.1v9.4l456.7-81.9L225 197.9l-254.3 40.8zm0-56v3.6L194.3 160l-223.6 22.7zm0 113.6v2.2L32 283.9l-61.3 12.4zm300.2-132.9-300.2 36.1v4.7l300.2-40.8zm-300.2 54.9L351.2 161l34.3-7.3-414.8 53.5v11.1zm0 99v5.9l423.5-109.4-423.5 103.5zm0 237.1v6.6l356.7-181.9-356.7 175.3zm472.8-274.8L184.3 383.3 427.8 281 152.9 388.1l12.7-8.9-194.9 73.6v31.5L273 353.7l170.5-74.1zM-29.3 531.5V550l303.6-151.5-.8-3.2 129.8-65.7-432.6 201.9zm41.2 41.6L180 478-29.3 587.5v8.6l41.2-23zm-41.2-351.8v3.2l85.6-14.1-85.6 10.9zm0 285.2v13.8l309.9-145.9L557.2 246-29.3 506.5zM89.9 512l-119.2 59.7v7.4l6.8-3.6L89.9 512zm125.7-188.3L33.3 382l-62.6 20.1v13.5l252.8-91.1-7.9-.8zM-.7 343.9l523.1-151-551.7 150.7v20.9l251.6-77.4 300.3-90.4L-.7 343.9zm-28.6 47.8v3.9l128.4-44.1-128.4 40.2zm85.6-43.1-85.6 22.9V382l201.8-65.6-116.2 32.2z" style="clip-path:url(#clippath-1)"/></svg>