<svg xmlns="http://www.w3.org/2000/svg" data-name="レイヤー_1" preserveAspectRatio="none" viewBox="0 0 390 530"><path d="M.3 32.8H0V528l381.6-25.2V499l7-.4 1.4-45.8V7.3L.3 32.8z" style="fill:#b52c2e"/><path d="M0 521.4v.5l10.1-11.6L0 521.4zM0 453.4v4.2l80-78.5-80 74.3zM103.6 349.2 0 442.8v7.7l28.5-28.2 75.1-73.1zM0 220.8v1.4l75.4-28.7L0 220.8zM0 226.8v1.1l70.3-27.6L0 226.8zM68.9 362.9 0 422.5v5.2l73.6-66.4-4.7 1.6zM0 375.9v1.1l19.1-15.2L0 375.9zM16 488.8l54.9-62.6L0 501.1v11.8L230.7 258 16 488.8zM171.8 229 27.5 325.6 0 344v5.7l20.5-14.5L171.8 229zM0 102.6v.9L72.6 98 0 102.6zM0 83.4v.1l9.1-.3-9.1.2zM0 61v1.7l139.6 3.5L0 61zM0 69.9v2.7l147.7-.4L0 69.9zM0 336.4v.5l21.4-14.4L0 336.4zM0 320.5v2.3L94.4 263 0 320.5zM0 149.1v1.1l87.2-16.8L0 149.1zM0 152.7v1.1l87.1-17.6L0 152.7zM0 143.5v1l43.5-7.8L0 143.5zM0 129.7v1.2l14-3-14 1.8zM0 175.1v.3l20.1-5.2L0 175.1zM0 238.6v1.9l54.9-23.9-54.9 22zM0 234.7v1.3l43.8-18.4L0 234.7zM0 264.3v1l26.6-13.4L0 264.3zM0 252.9v2.7l135.1-62.7L0 252.9zM0 185.7v1.7l110.6-31.9L0 185.7zM0 189.3v2.2l110.7-33.3L0 189.3zM0 23v9.8h.3L390 7.3V1.7L0 23zM390 489.7v-36.9l-1.4 45.8-13.7.9 8-156.5-9.8 156.6-12.4.8v-.5l7.7-113.3-4.5 41-8.5 73.2-13.5.9 9.1-72.9-11.2 73-5.1.3 20.5-143.5-22.5 143.7-25.5 1.6 23.1-113.4-25 113.6-12.9.8 15.9-66.5-16.8 66.6-2.9.1L317.9 388 287 505.3l-22 1.4 3.2-10.5-3.4 10.5-3.1.2 46.5-149.1-49 149.3-4.1.2L298 376.1l-44.8 131.4-4.7.3 34-99.8-35.5 99.9-6.9.4 52.8-146.4-55.3 146.6-4.7.3 19.6-52.7-20.8 52.8-3.4.2 21.5-56-22.6 56.1-3.3.2 29.7-75.2-31.8 75.3-16.1 1.1 49.9-114.2-52.4 114.4-3.2.2 2.3-5.5-2.5 5.5-29.4 1.9 8.7-16.8-9.1 16.8-28.6 1.9.7-1.3-.7 1.3-29.9 2 37.9-59.6 8.1-15.8-47.2 67.4-5.8 8.4-4.3.3 92.3-138 11.6-19.9L93.8 517.9l-2.8.2 62.3-91-64.8 91.2-16.7 1.1 57.5-79 8.6-15-71.2 94.3-24.1 1.6 81.2-103-83.9 103.2-4.7.3 58.3-72.6L33 521.9l-19 1.3 63.5-75-65.7 75.1-11.5.8H0v5.7l390-21.3v-10h.3v-31.6l-.3 22.8z"/></svg>