<svg xmlns="http://www.w3.org/2000/svg" viewBox="0 0 318 116"><path d="m11.6 91.5 178.4-1 20.3 22.7-.5-22.7 95.1-1.5 10.2-76.1L2.9 2.8l8.7 88.7z" style="fill:#fbf3cc"/><path d="M4.4.6c-.6 0-1.1 0 0 0ZM317.3 10.6c-10.3-.3-20.7-.7-31-1l-74.7-2.4-90.1-2.9c-26-.8-51.9-1.7-77.9-2.5L17.9 1C13.9.9 9.8.5 5.7.6H4.4C2.7 1 0 3.3 0 4.8c1 10 2 20 2.9 29.9l4.7 47.7c.4 3.7.7 7.3 1.1 11 .2 1.5 1.2 1.4 2.3.6h21.9c18 0 36-.2 54-.3l58.6-.3c12.7 0 25.5 0 38.2-.2h3.6c-.3 0 .2.3.3.4.3.4.7.8 1.1 1.2 5.8 6.5 11.6 12.9 17.3 19.4l1.4 1.6c1.2 1.3 5.6-3.1 5.5-4.4v-.3l.3-.2c-.1-.1-.2-.2-.3-.4-.1-5.8-.3-11.6-.4-17.3 8.9-.1 17.9-.3 26.8-.4 17.1-.3 34.1-.5 51.2-.8l11.8-.2c1.9 0 5-2.6 5.2-4.6 3-22.2 5.9-44.4 8.9-66.6.4-3.2.8-6.3 1.3-9.5 0-.3 0-.4-.4-.4ZM9.3 94h-.1Zm299.8-53.9-6.2 46.4c-9.2.2-18.3.3-27.5.4-17.1.3-34.1.5-51.2.8l-11.8.2c-1.7 0-5.3 2.7-5.2 4.6v.7c0 3.7.2 7.5.2 11.2-3.1-3.5-6.3-7-9.4-10.5l-3.8-4.2c-.4-.4-.9-1.3-1.4-1.6s-1.3 0-1.9 0c-11.2 0-22.3 0-33.5.2l-57.8.3c-18.7 0-37.4.2-56.1.3-9.6 0-19.4-.4-29 .2h-.3c-1-9.9-2-19.8-2.9-29.6L6.8 11.7c-.2-2.1-.4-4.2-.6-6.2 2.3 0 4.7.2 7 .2 11.2.4 22.4.7 33.7 1.1 16 .5 31.9 1 47.9 1.6l55.4 1.8 56.1 1.8c16.7.5 33.4 1.1 50.2 1.6l37.5 1.2 11.9.4c1.9 0 4.3.5 6.2.2h.2c-.2 1.2-.3 2.4-.4 3.5-.9 7.1-1.9 14.1-2.8 21.2Zm3.5-24.8c.7 0 .3 0 0 0ZM4.4.6h.8-.8Z"/></svg>